<svg height="16" width="16" xmlns="http://www.w3.org/2000/svg"><g fill="#bebebe" transform="translate(-321.0002 -647)"><path d="m6 0a1.0001 1.0001 0 1 0 0 2h7v9h-7a1.0001 1.0001 0 1 0 0 2h3v1.507812h-.5078125c-.27243 0-.4921875.219748-.4921875.492188v.507812c0 .27243.2197575.492188.4921875.492188h3.0156245c.27243 0 .492188-.219758.492188-.492188v-.507812c0-.27244-.219758-.492188-.492188-.492188h-.507812v-1.507812h3a1.0001 1.0001 0 0 0 1-1v-11a1.0001 1.0001 0 0 0 -1-1z" fill-rule="evenodd" transform="translate(321.0002 647)"/><path d="m322.50722 649.76087c-.25801.00002-.49297.23498-.49299.49298v6.39123c.00002.25799.23498.49295.49299.49298h1.74912c-.0532-.15215-.086-.31597-.086-.49298v-.47719h-1.17018v-5.42106h1.17018v-.49298c.00001-.17701.0327-.34083.086-.49298z"/><path d="m325.56096 649.76147c-.258.00003-.49274.23476-.49276.49276v6.39051c.00002.25799.23476.49273.49276.49276h4.91221c.25397-.00003.48267-.22802.48988-.48122l.003.004v-.0154-4.43485c-.0009-.13228-.0579-.26323-.154-.35418l-1.95564-1.94025c-.091-.0961-.2219-.153-.35417-.15399zm.49276.98553h2.24823l1.67846 1.67846v3.74191h-3.92669z"/></g></svg>