<svg height="16" width="16" xmlns="http://www.w3.org/2000/svg"><g fill="#bebebe" transform="translate(-321.0002 -647)"><path d="m6 0a1.0001 1.0001 0 1 0 0 2h7v9h-7a1.0001 1.0001 0 1 0 0 2h3v1.507812h-.5078125c-.27243 0-.4921875.219748-.4921875.492188v.507812c0 .27243.2197575.492188.4921875.492188h3.0156245c.27243 0 .492188-.219758.492188-.492188v-.507812c0-.27244-.219758-.492188-.492188-.492188h-.507812v-1.507812h3a1.0001 1.0001 0 0 0 1-1v-11a1.0001 1.0001 0 0 0 -1-1z" fill-rule="evenodd" transform="translate(321.0002 647)"/><path d="m208.53105 997c-.28913 0-.53125.24212-.53125.53125v13.93755c0 .2985.23264.5312.53125.5312h14.9375c.2986 0 .53125-.2326.53125-.5312v-8.9376c0-.2891-.24212-.5312-.53125-.5312h-12.46875v7.5c0 .277-.223.5-.5.5s-.5-.223-.5-.5v-8c0-.277.223-.5.5-.5h2.96875 8.53125v-1.4062c0-.3272-.26666-.5938-.59375-.5938h-7.40625v-1.46875c0-.28915-.24212-.53125-.53125-.53125z" transform="matrix(.48333333 0 0 .48333333 222.466966 167.866669)"/></g></svg>