<svg height="16" width="16" xmlns="http://www.w3.org/2000/svg"><g fill="#bebebe"><path d="m4.7758577 6.271212c.5191327-.4504011 1.4016649-.2889377 1.7952644.2318766.6502659.7887624.8383323 1.7977724 1.0775987 2.7419176.1774664.8051948.288933 1.6228838.3339996 2.4436928.5255326-1.03799 1.1309986-2.1528857 1.1419985-3.3217491.0145334-.5908018-.3415995-1.0915912-.5794659-1.6140554-.1964664-.4379071.3444662-.8935773.8083323-.7530835.5681327.1102901.6627997.7358993.6463992 1.1844975-.0597332 1.3342055-.6080659 2.6442679-1.1629319 3.8636265-.7863323 1.610263-1.9118643 3.103563-3.3839958 4.236601-.5789326.415201-2.0431308.896731-2.7661299.646652-1.3333316-.662086-1.3333316-1.986259 0-1.986259.5656955 0 1.6927313.827541 2.183464.811109.8099323-.006 1.3873316-.699475 1.6059313-1.360032.2221331-.873885.0142667-1.776762-.1229331-2.648073-.2235331-1.1326653-.4750661-2.2882764-1.0643321-3.312947-.2178012-.3772427-1.0647986-.6344907-.5131993-1.163774z" stroke-width=".665972"/><path d="m7.5662247 2.9582215c-.3683329 0-.6462333.058094-.8336805.1742759-.1841733.1161882-.2762565.2874076-.2762565.513658 0 .2079111.073994.371489.2219888.4907273.1512825.1161883.3601136.1742824.6265001.1742824.3321543 0 .6116917-.1100687.8386189-.3302124.2269134-.2231939.3403736-.5014253.3403805-.8346943v-.1880369h-.9175444m2.6983724-.6191419v2.9306094h-1.780828v-.7613173c-.2367904.3118666-.5031769.5396517-.7991527.6833491-.2959896.1406472-.6561032.2109676-1.0803408.2109676-.5722323 0-1.0375868-.1544018-1.3960497-.4632118-.355182-.3118601-.532773-.7154495-.532773-1.2107681 0-.6023243.2219887-1.0441336.6659594-1.325428.4472652-.2812816 1.1477593-.4219288 2.1014822-.4219352h1.0408746v-.1284145c-.0000069-.2598792-.1101794-.4494444-.3305174-.5686956-.2203449-.122295-.5640131-.1834456-1.0310046-.1834456-.3782028 0-.7300972.035163-1.0556761.1054838-.3255789.0703268-.6281371.1758106-.9076813.3164514v-1.25204469c.3782029-.08560967.7580496-.14981692 1.1395401-.19262818.3814836-.04585498.7629742-.06878569 1.1444647-.06879211.9964699.00000642 1.7150532.18345847 2.1557431.55034972.4439635.36384753.6659525.95700206.6659595 1.77946366" stroke-width=".665973"/><path d="m3 .000018h1v15.99998h-1z" stroke-width=".816496"/></g></svg>