<svg height="16" width="16" xmlns="http://www.w3.org/2000/svg"><g fill="#b6b6b6"><path d="m3.4426636 3.2552221c.5193334-.4504 1.4013334-.2889333 1.7953334.2318667.65.7888.838 1.7978 1.0773333 2.7419333.1773333.8052.306 1.2675334.3513333 2.0883334.5253334-1.038 1.114-1.7975334 1.1246667-2.9664.014667-.5908-.3413333-1.0916-.5793333-1.6140667-.1966667-.4378667.3446666-.8935333.808-.7530667.5686666.1102667.6633333.7359334.6466667 1.1845334-.06 1.3342-.6080001 2.6442666-1.1626667 3.8636-.7866667 1.6102667-1.912 3.1035975-3.384 4.2365975-.5793334.4152-2.0433334.896734-2.7666667.646667-1.33333336-.662067-1.33333336-1.986267 0-1.986267.5047709 0 1.6933333.827534 2.184.811134.81-.006 1.3873333-.699467 1.606-1.360067.222-.8738645.014-1.7767312-.1233333-2.6480645-.2233334-1.1326667-.4753334-2.2882667-1.064-3.3129334-.2182399-.3780026-1.0653334-.6345333-.5133334-1.1638z" stroke-width=".666667"/><path d="m12.232664 6.5709555c-.368 0-.646.057333-.833334.1720666-.184.1146667-.276666.2836667-.276666.5070667 0 .2052.074.3666667.222.4844.151333.1146667.360666.172.626666.172.332 0 .612-.1086.838667-.3259333.227333-.2203334.340667-.495.340667-.8239334v-.1856666zm2.434-.6272v3.0402666l-1.516.016v-.8988666c-.236667.3078666-.503334.5327333-.799334.6746-.296.1388-.656.2082-1.080666.2082-.572 0-1.037334-.1524-1.3960003-.4572-.3546667-.3078667-.5326667-.7062667-.5326667-1.1952 0-.5946.222-1.0307334.666-1.3084.447333-.2776667 1.148-.4165334 2.101333-.4165334h1.041334v-.1267333c0-.2565333-.110667-.4436667-.330667-.5614-.220667-.1207333-.564-.1810667-1.031333-.1810667-.378 0-.73.034667-1.055334.1041334-.325333.0694-.454.00333-.733333.1424v-1.2359334l2.109333-.088067c.996667 0 1.450667.1650666 1.891334.5272.444.3592.666.9447333.666 1.7566" stroke-width=".666667"/><path d="m9.000005-15.999997h1v16h-1z" stroke-width=".816497" transform="rotate(90)"/></g></svg>