<svg height="16" width="16.000092" xmlns="http://www.w3.org/2000/svg"><g fill="#bebebe" stroke-width="1.154881"><path d="m7.4462705 4.4511872a.57749838.57749838 0 0 0 -.4691705.5774407v2.8872032h-1.7323219a.57749838.57749838 0 1 0 0 1.1548812h2.3097626a.57749838.57749838 0 0 0 .5774406-.5774406v-3.4646438a.57749838.57749838 0 0 0 -.6857108-.5774407z"/><path d="m7.5067283.9865434c-4.1321883 0-7.5067283 3.3745515-7.5067283 7.5067283 0 4.1321763 3.37454 7.5067283 7.5067283 7.5067283 3.1101527 0 5.7911207-1.911919 6.9270317-4.619525h.0023c.184555-.439114.326343-.900138.424059-1.378188.03535-.1729609.05801-.3507294.0812-.5278178.0095-.072619.02642-.1432872.03383-.2165402.000228-.00222-.000225-.00454 0-.00677.02502-.2493465.03835-.5021308.03835-.7578908 0-3.110179-1.911919-5.7911287-4.619526-6.9270321v-.0022521c-.4391552-.1845546-.9001787-.3263423-1.3782299-.4240579-.1729598-.0353537-.3507293-.0580104-.5278168-.0812026-.3219651-.042166-.6479872-.0721801-.981198-.0721801zm0 2.3097626c.3349835 0 .659837.03956.9766867.099248.063099.011681.1250088.026691.1872171.040601.2649497.060165.5216594.1381984.7691689.2368409.048018.019098.097095.035878.1443602.056391 1.3138438.5700222 2.3243418 1.6711056 2.8037448 3.0315634h-.009c.09661.2730081.177534.5512032.234585.8390934.05705.2878902.09023.5854757.09023.8932285 0 .3349821-.03956.659838-.09925.9766866-.01168.063099-.02669.1250089-.0406.1872166-.06017.2649494-.138198.5216606-.236841.7691686-.0191.04802-.03588.0971-.05639.144361-.570027 1.313843-1.671109 2.324339-3.0315638 2.803745v-.009c-.2730081.09661-.5512031.177534-.8390934.234585-.2913689.05011-.5868905.09023-.8932285.09023-2.8838887 0-5.1969657-2.313089-5.1969657-5.1969658 0-.360486.037133-.711877.1060145-1.0511224.4821396-2.374745 2.5675225-4.1458708 5.0909252-4.1458708z"/></g></svg>