<svg height="16" width="16.000092" xmlns="http://www.w3.org/2000/svg"><g fill="#bebebe" transform="translate(-261.00011 -807)"><path d="m273.0002 808v1.99673h-2v1.99673h2v1.99673h2v-1.99673h2v-1.99673h-2v-1.99673z"/><path d="m267.40625 813a.50005.50005 0 0 0 -.40625.5v2.5h-1.5a.50005.50005 0 1 0 0 1h2a.50005.50005 0 0 0 .5-.5v-3a.50005.50005 0 0 0 -.59375-.5z"/><path d="m267.5002 810c-3.57802 0-6.5 2.92199-6.5 6.5s2.92198 6.5 6.5 6.5c3.57799 0 6.5-2.92199 6.5-6.5 0-.51565-.0727-1.01814-.1875-1.5h-2.09375c.1673.47279.28125.96704.28125 1.5 0 2.49712-2.00289 4.5-4.5 4.5-2.49713 0-4.5-2.00288-4.5-4.5 0-2.49713 2.00287-4.5 4.5-4.5.9323 0 1.7895.26937 2.5.75v-2.25c-.7679-.32274-1.61416-.5-2.5-.5z"/></g></svg>