<svg height="16" width="16" xmlns="http://www.w3.org/2000/svg"><g fill="#bebebe"><path d="m10 8v1 3.28125c-.29454-.17076-.63503-.28125-1-.28125-1.10457 0-2 .89543-2 2s.89543 2 2 2 2-.89543 2-2v-5h4v3.28125c-.29454-.17076-.63503-.28125-1-.28125-1.10457 0-2 .89543-2 2s.89543 2 2 2 2-.89543 2-2v-5-1h-1-4z"/><path d="m7.9882812.99609375c-3.8423345 0-6.99414057 3.15184065-6.99414058 6.99414065 0 3.1892806 2.17390308 5.9108116 5.10937498 6.7460936-.061193-.237169-.1035156-.48124-.1035156-.736328 0-1.64501 1.35499-3 3-3v-.185547c-.3167691.111219-.6531946.181641-1.0117188.181641-1.6805607 0-2.9843749-1.3253196-2.984375-3.0058596 0-1.68054 1.3038143-2.984375 2.984375-2.984375 1.3294817 0 2.4255228.8211849 2.8300778 1.9941406h.181641 1c-.552262-.0000552-.999945-.4477381-1-1v-1h-1c-.5522619-.0000552-.9999448-.4477381-1-1v-2c.0001785-.3408076.173897-.6580646.4609375-.8417969-.4757801-.1033478-.9677885-.16210935-1.4726563-.16210935zm.015625 5.00976565c-1.0986568 0-2.0117187.8974437-2.0117187 1.9960937 0 1.09864.9130619 1.9980469 2.0117187 1.9980469.3638362 0 .7013925-.1054975.9960938-.2773438v-.7226562-.9882812c-.00543.5532763-.4413522.9902343-.9960938.9902343-.5582132 0-.9980468-.4418-.9980468-1 0-.55821.4398335-.9980469.9980468-.9980469.554725 0 .9906427.435043.9960938.9882813.0039184-.4490143.3066219-.8403723.7402344-.9570313-.3428371-.6104177-.9897022-1.0292968-1.7363282-1.0292968zm3.9960938 3.9941406v1.833984c.535361-.492359 1.223016-.833984 2-.833984v-1z" stroke-width="1.000003"/><path d="m12 0v2h-2v2h2v2h2v-2h2v-2h-2v-2z"/></g></svg>