<svg height="16.001951" width="16" xmlns="http://www.w3.org/2000/svg"><g fill="#bebebe"><path d="m15.000197 7.9999943a2.0000001 1.9999943 0 1 1 -4 0 2.0000001 1.9999943 0 1 1 4 0z" stroke-width="1.032257"/><path d="m15.000197 2.9999943a2.0000001 1.9999943 0 1 1 -4 0 2.0000001 1.9999943 0 1 1 4 0z" stroke-width="1.032257"/><path d="m1.979667 1.027811v.004a1.0001 1.000104 0 0 1 .0605-.002 1.0001 1.000104 0 0 1 .6875.302731l11.95508 11.953177a1.0001 1.000104 0 0 1 .28711.921873v.792973h-.88672a1.0001 1.000104 0 0 1 -.81445-.300781l-11.95508-11.953176a1.0001 1.000104 0 0 1 -.30273-.718753v-1.000004h.96875z" stroke-width="1.000002"/><path d="m5.453.98828c-.4740596 0-.9121523.137861-1.2890625.365235l3.7890625 3.789062v-1.654297c0-1.385-1.115-2.5-2.5-2.5zm-4 4.013672c-.27614 0-.5.22386-.5.5v2.968749c0 1.968381 1.25801 3.62455 3 4.25v1.28125h-2c-.56475 0-1 .49007-1 1v1h.84375 2.15625 5 .09375.90625v-1c-.00006-.58435-.47642-.99995-1-1h-2v-1.28125c.6771661-.243132 1.2782443-.645769 1.7636719-1.158203l-.6855469-.685546c-.6443561.690106-1.5569085 1.124999-2.578125 1.124999-1.9523 0-3.5-1.567099-3.5-3.53125v-2.968749c0-.27614-.22386-.5-.5-.5zm8 0c-.27614 0-.5.22386-.5.5 0 .069.00605.12768.03125.1875v.484375l.96875.96875v-1.640625c0-.27614-.22386-.5-.5-.5zm-6.5.796875v2.703124c0 1.385 1.115 2.5 2.5 2.5.7441461 0 1.4041329-.329103 1.8613281-.841796z"/></g></svg>