<svg height="16" width="16.000002" xmlns="http://www.w3.org/2000/svg"><g fill="#bebebe"><path d="m7.96875 1c-1.1648336 0-2.2524109.3799355-3.1757812.9824219l1.0722656 1.0722656c.6297668-.3236436 1.3384617-.5234344 2.1035156-.5234375 2.485496 0 4.499828 1.82687 4.492188 4.28125-.012359.8833497-.068218 1.5865392-.232422 2.4140625-.070738-.0315881-.140313-.0655313-.216797-.0878906-.02464-.0072033-.049518-.0076057-.074219-.0136719l1.482422 1.482422c.278688-1.0917536.580078-2.558658.580078-3.888672 0-2.8298-2.725794-5.71875-6.03125-5.71875zm-5.6972656 4.1171875c-.1853069.5285365-.2823136 1.0710633-.2714844 1.6015625.04825 2.36557.808593 4.69547 1 5.28125h.0019531l.4882813 1.615234c.2994801.987573 1.3052626 1.558577 2.2539062 1.28125.9486437-.277326 1.4713552-1.29563 1.171875-2.283203l-.6757812-2.224609c-.2994802-.9875726-1.3033094-1.5605298-2.2519532-1.2832032-.1137275.033247-.2214664.0795957-.3222656.1328124-.2256529-1.338206-.1894531-2.3945312-.1894531-2.3945312 0-.1616701.0326292-.3154806.0507813-.4726562zm6.9804687 6.9785155-.1679687.550781c-.2994802.987573.2232317 2.005876 1.1718746 2.283204.544891.159292 1.105051.031543 1.542969-.28711z" stroke-width=".999975"/><path d="m1.980002 1.026713v.004a1.0001 1.000104 0 0 1 .0605-.002 1.0001 1.000104 0 0 1 .6875.302731l11.95508 11.953178a1.0001 1.000104 0 0 1 .28711.921873v.792973h-.88672a1.0001 1.000104 0 0 1 -.81445-.300781l-11.95508-11.953177a1.0001 1.000104 0 0 1 -.30273-.718753v-1.000004h.96875z" stroke-width="1.000002"/></g></svg>