<svg height="16" width="16" xmlns="http://www.w3.org/2000/svg"><g fill="#bebebe"><path d="m12.029297.98632812a1.0001 1.0001 0 0 0 -.154297.01367188 1.0001 1.0001 0 0 0 -.59375.28125l-2 2a1.016466 1.016466 0 0 0 -.28125.8984375v.8203125h.8242188a1.016466 1.016466 0 0 0 .8945312-.28125l2-2a1.0001 1.0001 0 0 0 -.689453-1.73242188zm-5.576172 1.01367188-.8164062.8261719 1.3632812 1.3632812v-2.1738281zm-5.453125 3v6h2.484375l3.0410156 3.015625h.4746094v-4.171875l-4.8457031-4.84375zm8.90625 2a1.001098 1.001098 0 0 0 -.0859375.0078125l2.0058595 2.0058594 2.205078.0175781a1.0001 1.0001 0 1 0 0-2l-4.03125-.03125a1.0001 1.0001 0 0 0 -.09375 0zm-.9316406 4.818359a1.0001 1.0001 0 0 0 .3066406.900391l2 2a1.016466 1.016466 0 0 0 .878906.285156z"/><path d="m1.980002 1.026713v.004a1.0001 1.000104 0 0 1 .0605-.002 1.0001 1.000104 0 0 1 .6875.302731l11.95508 11.953178a1.0001 1.000104 0 0 1 .28711.921873v.792973h-.88672a1.0001 1.000104 0 0 1 -.81445-.300781l-11.95508-11.953177a1.0001 1.000104 0 0 1 -.30273-.718753v-1.000004h.96875z" stroke-width="1.000002"/></g></svg>