<svg height="16" width="16" xmlns="http://www.w3.org/2000/svg"><g fill="#bebebe"><path d="m5.7402344 0c-3.1543199 0-5.7402344 2.585943-5.7402344 5.7402344 0 2.0314423 1.0754499 3.8306196 2.6816406 4.8574216-.0245343-.240604-.0371093-.483911-.0371094-.7304685.0000001-1.1779351.2929449-2.2893372.8007813-3.2753906-.094611-.2658744-.1542969-.5494388-.1542969-.8515625 0-1.3796197 1.069582-2.4492188 2.4492188-2.4492188.3021257 0 .5856876.0596848.8515625.1542969.9860538-.5078387 2.0974488-.8007813 3.2753906-.8007813.2465585 0 .4898635.0125749.7304685.0371094-1.0267977-1.6061915-2.8259663-2.6816406-4.8574216-2.6816406zm-.2402344 4.1386719c-.7069011.1111715-1.2702725.6713164-1.375 1.3789062.3948493-.5186708.8575676-.9825028 1.375-1.3789062z" stroke-width=".820941"/><g stroke-linecap="round" stroke-linejoin="round" stroke-width="2.247457" transform="matrix(.88989748 0 0 .88989178 -176.11189 -395.91375)"><path d="m208.98907 448.99554c-3.84231 0-6.99332 3.15102-6.99332 6.99332s3.15101 7.01559 6.99332 7.01559c3.8423 0 7.01559-3.17329 7.01559-7.01559s-3.17329-6.99332-7.01559-6.99332zm0 4.00891c1.68054 0 3.00668 1.30387 3.00668 2.98441s-1.32614 3.00668-3.00668 3.00668c-1.68055 0-2.98441-1.32614-2.98441-3.00668s1.30386-2.98441 2.98441-2.98441z"/><path d="m209.00524 454.0058c-1.09865 0-2.01317.89789-2.01317 1.99654 0 1.09864.91452 1.99653 2.01317 1.99653s1.99654-.89789 1.99654-1.99653c0-1.09865-.89789-1.99654-1.99654-1.99654zm0 .99827c.55821 0 .99827.44006.99827.99827 0 .5582-.44006.99826-.99827.99826s-.99827-.44006-.99827-.99826c0-.55821.44006-.99827.99827-.99827z"/></g></g></svg>