<svg height="16.000919" width="16.000002" xmlns="http://www.w3.org/2000/svg"><g fill="#bebebe"><path d="m7.96875 0c-1.4180634 0-2.7265008.55604552-3.7558594 1.4023438l1.0332032 1.0332031c.7567605-.5588778 1.6928075-.9042928 2.7226562-.9042969 2.485496 0 4.499828 1.92062 4.492188 4.375-.005972.4267904-.021251.7852028-.052735 1.1230469-.634894-.0830896-1.284729.281985-1.664062.9042969l2.8125 2.8125002.443359.160156-.005859.277344.982421.982422.023438-1.603516v-.34375l-.3125-.125-1.255859-.4628906.11914-.375c.007667-.0241433.008842-.0481371.015625-.0722656.22802-.8013143.433594-1.8833435.433594-3.3710938 0-2.8298-2.725794-5.8125-6.03125-5.8125zm-5.8984375 4.9160156c-.0458669.2684071-.0757338.5369398-.0703125.8027344.0277061 1.3584179.2197108 2.4304694.4394531 3.2675781.0164933.0896215.0338403.1792837.0625.2695313l.4257813 1.3437496c.3121355.982893 1.2390818 1.585789 2.078125 1.351563.8390431-.234226 1.2633074-1.214373.9511718-2.1972658l-.4257812-1.34375c-.0063247-.0199161-.0166139-.037046-.0234375-.0566406l-1.2734375-1.2753906c-.2311455-.0662455-.4710134-.0831526-.7070312-.03125-.0295847-.3995531-.0241423-.4866606-.0292969-.703125zm4.9765625 9.0527344c-.5453437 0-.984375.439031-.984375.984375s.4390313.984375.984375.984375h1.9375c.5287015 0 .9489317-.41539.9746094-.9375h2.1953126l-1-1h-2.0156251c-.0521955-.008488-.0996296-.03125-.1542969-.03125z"/><path d="m1.979792 1.027633v.004a1.0001 1.000104 0 0 1 .0605-.002 1.0001 1.000104 0 0 1 .6875.302731l11.95508 11.953178a1.0001 1.000104 0 0 1 .28711.921873v.792973h-.88672a1.0001 1.000104 0 0 1 -.81445-.300781l-11.95508-11.953177a1.0001 1.000104 0 0 1 -.30273-.718753v-1.000004h.96875z" stroke-width="1.000002"/></g></svg>