<svg height="16" width="16" xmlns="http://www.w3.org/2000/svg"><g fill="#bebebe"><path d="m7.5.98632812c-1.0051879 0-1.8620511.59176748-2.2597656 1.44335938l4.7597656 4.7578125v-3.7011719c0-1.385-1.115-2.49999998-2.5-2.49999998zm4 4.01367188c-.27614 0-.5.22386-.5.5 0 .069.00605.12768.03125.1875v2.53125l.916016.9179688c.032396-.2179929.052734-.440531.052734-.6679688v-2.96875c0-.27614-.22386-.5-.5-.5zm-8.5.8457031v2.6230469c0 1.96838 1.25801 3.62455 3 4.25v1.28125h-2c-.56475 0-1 .49007-1 1v1h.84375 2.15625 5 .09375.90625v-1c-.000007-.070862-.025812-.129853-.039062-.195312l-.767579-.765626c-.064744-.013178-.126151-.039056-.193359-.039062h-2v-1.28125c.2089107-.075008.4098615-.166114.6035156-.269531l-.7246094-.726563c-.4236506.178686-.8892685.277344-1.3789062.277344-1.9523 0-3.5-1.5671-3.5-3.53125v-1.6230469zm2 2v.6542969c0 1.385 1.115 2.5 2.5 2.5.2012527 0 .394773-.029726.5820312-.074219z"/><path d="m1.979792 1.0267131v.004a1.0001 1.000104 0 0 1 .0605-.002 1.0001 1.000104 0 0 1 .6875.302731l11.95508 11.9531779a1.0001 1.000104 0 0 1 .28711.921873v.792973h-.88672a1.0001 1.000104 0 0 1 -.81445-.300781l-11.95508-11.9531769a1.0001 1.000104 0 0 1 -.30273-.718753v-1.000004h.96875z" stroke-width="1.000002"/></g></svg>