<svg height="16" width="16" xmlns="http://www.w3.org/2000/svg"><g fill="#bebebe"><path d="m0 5v.5 10.5h11v-3.183594c-.32533.077908-.658269.131761-1 .158203v2.025391h-9v-9h2.0253906c.0264426-.341731.0802958-.6746698.1582032-1zm2 2v.5 6.5h7v-1.025391c-.341731-.026442-.6746698-.080295-1-.158203v.183594h-5v-5h.1835938c-.0779074-.3253302-.1317606-.658269-.1582032-1z"/><path d="m9.5 0c-3.583929 0-6.5 2.9160714-6.5 6.5 0 3.583929 2.916071 6.5 6.5 6.5s6.5-2.916071 6.5-6.5c0-3.5839286-2.916071-6.5-6.5-6.5zm0 1c3.043488 0 5.5 2.4565116 5.5 5.5s-2.456512 5.5-5.5 5.5-5.5-2.4565116-5.5-5.5 2.456512-5.5 5.5-5.5zm0 1c-2.479359 0-4.5 2.0206409-4.5 4.5s2.020641 4.5 4.5 4.5 4.5-2.0206409 4.5-4.5-2.020641-4.5-4.5-4.5zm0 1c1.938919 0 3.5 1.5610811 3.5 3.5s-1.561081 3.5-3.5 3.5-3.5-1.5610811-3.5-3.5 1.561081-3.5 3.5-3.5z"/></g></svg>