<svg height="16" width="16" xmlns="http://www.w3.org/2000/svg"><g fill="#bebebe"><path d="m1 7v1h2.5507812c-.0211887-.1656201-.0507812-.328932-.0507812-.5s.0295925-.3343799.0507812-.5z" fill-rule="evenodd"/><path d="m7 11.449219v2.550781h1v-2.550781c-.1656202.021189-.328932.050781-.5.050781s-.3343798-.029592-.5-.050781z" fill-rule="evenodd"/><path d="m4.546875 7a3 3 0 0 0 -.046875.5 3 3 0 0 0 3 3 3 3 0 0 0 .5-.041016v-3.458984z"/><path d="m4.546875 7h3.453125v3.458984a3 3 0 0 0 2.5-2.958984 3 3 0 0 0 -3-3 3 3 0 0 0 -2.953125 2.5z" opacity=".75"/></g></svg>