<svg height="16" width="16" xmlns="http://www.w3.org/2000/svg"><g fill="#bebebe"><path d="m1 7v1h2.5507812c-.0211887-.1656201-.0507812-.328932-.0507812-.5s.0295925-.3343799.0507812-.5z" fill-rule="evenodd"/><path d="m11.449219 7c.021189.1656201.050781.328932.050781.5s-.02959.3343799-.05078.5h2.55078v-1z" fill-rule="evenodd"/><path d="m4.546875 7a3 3 0 0 0 -.046875.5 3 3 0 0 0 3 3 3 3 0 0 0 3-3 3 3 0 0 0 -.041016-.5z"/><path d="m4.546875 7h5.912109a3 3 0 0 0 -2.958984-2.5 3 3 0 0 0 -2.953125 2.5z" opacity=".75"/></g></svg>