<svg height="16" width="16" xmlns="http://www.w3.org/2000/svg"><g fill="#bebebe"><path d="m7 1v2.5507812c.1656202-.0211887.328932-.0507812.5-.0507812s.3343798.0295925.5.0507812v-2.5507812z" fill-rule="evenodd"/><path d="m1 7v1h2.5507812c-.0211887-.1656201-.0507812-.328932-.0507812-.5s.0295925-.3343799.0507812-.5z" fill-rule="evenodd"/><path d="m8 4.546875a3 3 0 0 0 -.5-.046875 3 3 0 0 0 -3 3 3 3 0 0 0 .0410156.5h3.4589844z"/><path d="m8 4.546875v3.453125h-3.4589844a3 3 0 0 0 2.9589844 2.5 3 3 0 0 0 3-3 3 3 0 0 0 -2.5-2.953125z" opacity=".75"/></g></svg>