<svg height="16" width="16" xmlns="http://www.w3.org/2000/svg"><g fill="#bebebe"><path d="m11.449219 7c.021189.1656201.050781.328932.050781.5s-.02959.3343799-.05078.5h2.55078v-1z" fill-rule="evenodd"/><path d="m7 11.449219v2.550781h1v-2.550781c-.1656202.021189-.328932.050781-.5.050781s-.3343798-.029592-.5-.050781z" fill-rule="evenodd"/><path d="m7 10.453125a3 3 0 0 0 .5.046875 3 3 0 0 0 3-3 3 3 0 0 0 -.041016-.5h-3.458984z"/><path d="m7 10.453125v-3.453125h3.458984a3 3 0 0 0 -2.958984-2.5 3 3 0 0 0 -3 3 3 3 0 0 0 2.5 2.953125z" opacity=".75"/></g></svg>