<svg height="16" width="16" xmlns="http://www.w3.org/2000/svg"><g fill="#bebebe"><path d="m7 1v2.5507812c.1656202-.0211887.328932-.0507812.5-.0507812s.3343798.0295925.5.0507812v-2.5507812z" fill-rule="evenodd"/><path d="m11.449219 7c.021189.1656201.050781.328932.050781.5s-.02959.3343799-.05078.5h2.55078v-1z" fill-rule="evenodd"/><path d="m10.453125 8a3 3 0 0 0 .046875-.5 3 3 0 0 0 -3-3 3 3 0 0 0 -.5.0410156v3.4589844z"/><path d="m10.453125 8h-3.453125v-3.4589844a3 3 0 0 0 -2.5 2.9589844 3 3 0 0 0 3 3 3 3 0 0 0 2.953125-2.5z" opacity=".75"/></g></svg>