<svg height="16" width="16" xmlns="http://www.w3.org/2000/svg"><g fill="#bebebe"><path d="m1 7v1h2.5507812c-.0211887-.1656201-.0507812-.328932-.0507812-.5s.0295925-.3343799.0507812-.5z" fill-rule="evenodd"/><path d="m11.449219 7c.021189.1656201.050781.328932.050781.5s-.02959.3343799-.05078.5h2.55078v-1z" fill-rule="evenodd"/><path d="m10.453125 8h-5.9121094a3 3 0 0 0 2.9589844 2.5 3 3 0 0 0 2.953125-2.5z" opacity=".75"/><path d="m7.5 4.5a3 3 0 0 0 -3 3 3 3 0 0 0 .0410156.5h5.9121094a3 3 0 0 0 .046875-.5 3 3 0 0 0 -3-3z"/></g></svg>