<svg height="16" width="16" xmlns="http://www.w3.org/2000/svg"><g fill="#bebebe"><path d="m7 1v2.5507812c.1656202-.0211887.328932-.0507812.5-.0507812s.3343798.0295925.5.0507812v-2.5507812z" fill-rule="evenodd"/><path d="m7 11.449219v2.550781h1v-2.550781c-.1656202.021189-.328932.050781-.5.050781s-.3343798-.029592-.5-.050781z" fill-rule="evenodd"/><path d="m8 4.546875a3 3 0 0 0 -.5-.046875 3 3 0 0 0 -3 3 3 3 0 0 0 3 3 3 3 0 0 0 .5-.041016z"/><path d="m8 4.546875v5.912109a3 3 0 0 0 2.5-2.958984 3 3 0 0 0 -2.5-2.953125z" opacity=".75"/></g></svg>