<svg height="16" width="16" xmlns="http://www.w3.org/2000/svg"><g fill="#bebebe"><path d="m7.9882812.99609375c-3.8423099 0-6.99218745 3.14988755-6.99218745 6.99218745 0 3.8422998 3.14987755 7.0156248 6.99218745 7.0156248 3.8422998 0 7.0156248-3.173325 7.0156248-7.0156248s-3.173325-6.99218745-7.0156248-6.99218745zm.0117188.50390625v3.5058594c.9977482.0037998 1.8641949.4705514 2.40625 1.1992187l.652344-.6523437c.18898-.1889.440247-.2832031.685547-.2832032.24535 0 .497083.096693.683593.2832032l1.158204 1.1582031c.3733.37332.37331.9958206 0 1.3691406l-1.408204 1.4082031-3.7167965 3.6718748-3.3476563.888672.8359376-3.394531.2519531-.251953c-.4886822-.364965-.8433171-.8839962-1.0351563-1.4824221l-3.3476562 1.0878901a6.5 6.5 0 0 1 .9238281-5.8281245 6.5 6.5 0 0 1 5.2578125-2.6796875zm0 4.5058594v1c.002133-.0000129.0037229-.0019532.0058594-.0019532.4374434 0 .7923383.2746421.9296875.6601563l.5996093-.5996094.1425782-.1425781c-.3564061-.5493769-.9712509-.9160156-1.671875-.9160156-.0019794 0-.0038812-.0000058-.0058594 0zm-.9453125 2.3007812-.9511719.3085938c.147472.4389688.4363826.8158606.8222656 1.0625l.7421876-.7441406c-.2920571-.1032553-.5188182-.3327916-.6132813-.6269532z"/><g fill-rule="evenodd" transform="matrix(.59642297 0 0 .59642297 -234.35350820248 -452.67812703422)"><path d="m403.66263 777.27842 5.84933-5.85075 2.99982 2.99981-5.82888 5.87306-4.02677 1.07184z"/><path d="m412.62129 768.66211c-.20052 0-.40103.0768-.55468.23047l-1.76953 1.76758 3.05273 3.05273 1.76953-1.76953c.3073-.3073.3073-.80208 0-1.10938l-1.94336-1.9414c-.15365-.15365-.35417-.23047-.55469-.23047z"/></g></g></svg>