<svg height="16" width="16" xmlns="http://www.w3.org/2000/svg"><g fill="#bebebe"><path d="m7.9882812.99609375c-3.8423099 0-6.99218745 3.14988755-6.99218745 6.99218745 0 3.8422998 3.14987755 7.0156248 6.99218745 7.0156248 3.8422998 0 7.0156248-3.173325 7.0156248-7.0156248s-3.173325-6.99218745-7.0156248-6.99218745zm-.078125.50390625a6.5 6.5 0 0 1 .0898438 0v3.5058594c.6658548.0025358 1.2625469.224356 1.7539062.5800781l2.0664058-2.84375a6.5 6.5 0 0 1 1.970704 8.2089845 6.5 6.5 0 0 1 -7.7988285 3.230469 6.5 6.5 0 0 1 -.5683594-.214844l-.3105469.082031.0507813-.207031a6.5 6.5 0 0 1 -3.5839844-6.8593751 6.5 6.5 0 0 1 6.3300781-5.4824219zm.0898438 4.5058594v1c.002133-.0000129.0037229-.0019532.0058594-.0019532.2197437 0 .4191075.0696522.5800781.1875l.578125-.7929687c-.3279259-.2395854-.7222683-.3925781-1.1582031-.3925781-.0019794 0-.0038812-.0000058-.0058594 0z"/><g fill-rule="evenodd" transform="matrix(.59642297 0 0 .59642297 -234.35350820248 -452.67812703422)"><path d="m403.66263 777.27842 5.84933-5.85075 2.99982 2.99981-5.82888 5.87306-4.02677 1.07184z"/><path d="m412.62129 768.66211c-.20052 0-.40103.0768-.55468.23047l-1.76953 1.76758 3.05273 3.05273 1.76953-1.76953c.3073-.3073.3073-.80208 0-1.10938l-1.94336-1.9414c-.15365-.15365-.35417-.23047-.55469-.23047z"/></g></g></svg>