<svg height="16" width="16" xmlns="http://www.w3.org/2000/svg"><g fill="#bebebe" transform="translate(-100.0002 -746)"><path d="m103.34395 749.52122c-1.20207.2879-1.99303 1.09829-2.1875 2.4375-.0536.5628-.28002 1.34482.25 1.71875.70817.42322 1.57418.35362 2.34375.21875.56137-.14838.80163-.2025 1.25-.625 0 0-.0518-1.07046.1875-1.65625 1.931-.81073 3.81009-.75064 5.6875 0 .23926.58579.1875 1.65625.1875 1.65625.44837.4225.68863.47662 1.25.625.76957.13487 1.63558.20447 2.34375-.21875.53002-.37393.30355-1.15595.25-1.71875-.19447-1.33921-.98543-2.1496-2.1875-2.4375-3.13782-.59102-6.2763-.72425-9.375 0z"/><path d="m111.00018 757h-1.00001c-.25689.00001-.52845.12983-.71875.31251l-1.28124 1.28124-1.28125-1.28125c-.19004-.18293-.46186-.3125-.71878-.31245h-1l-.00001 1c0 .30945.0903.55231.28131.74998l2.71875 2.65625 2.71874-2.65625c.19093-.19772.28126-.44056.28126-.75v-1z"/></g></svg>