<svg height="16" width="16" xmlns="http://www.w3.org/2000/svg"><path d="m92.300865 748.00133c-.771297.0431-1.33312.68465-1.816105 1.22222-.466728.60189-.942508 1.25915-1.073867 2.02556-.000657.22907.284116.34038.408413.51848.470782.42342.955551 1.06752.656257 1.72633-.421746.83704-1.218022 1.39221-1.832463 2.07888-.497656.49947-1.134757 1.1788-1.9118.89084-.576306-.21885-.915483-.75054-1.36481-1.1129-.621684.0481-1.17016.43406-1.690212.75268-.666446.4833-1.356714 1.077-1.598477 1.89323-.142145.64969.540252.99854.962245 1.34049 1.054218.76368 2.470373.86461 3.675217.42739 1.940489-.68924 3.504203-2.12348 4.881283-3.60911 1.176996-1.33851 2.300863-2.90797 2.451736-4.7397.103349-1.28818-.553125-2.56534-1.545692-3.35675l-.09981-.0394-.101903-.0182z" fill="#bebebe" transform="translate(-80.0002 -746)"/></svg>