<svg height="16" width="16" xmlns="http://www.w3.org/2000/svg"><g fill="#bebebe"><path d="m6.8105469 4 4.1894531 4.1875v-3.1875c0-.554-.446111-1-1-1zm-5.4121094.2421875c-.2195012.1831502-.3671875.4482464-.3671875.7578125v7c0 .554.4461108 1 1 1h7.96875c.045669 0 .084895-.019516.128906-.025391z"/><path d="m14.46875 5-3.328125 3.328125 3.671875 3.671875h.1875v-7z"/><path d="m1.979792 1.026713v.004a1.0001 1.000104 0 0 1 .0605-.002 1.0001 1.000104 0 0 1 .6875.302731l11.95508 11.953178a1.0001 1.000104 0 0 1 .28711.921873v.792973h-.88672a1.0001 1.000104 0 0 1 -.81445-.300781l-11.95508-11.953177a1.0001 1.000104 0 0 1 -.30273-.718753v-1.000004h.96875z" stroke-width="1.000002"/></g></svg>