<svg height="16" width="16" xmlns="http://www.w3.org/2000/svg"><g fill="#bebebe"><path d="m0 0v3h15v-3z"/><path d="m0 6v3h11.767578c.927701-1.260952 1.68519-2.218761 2.353516-3z"/><path d="m0 12v3h6.0214844a1.0001 1.0001 0 0 1 .9902344-.871094c.4979622.000183.7317095-.10888.9375-.267578.2057903-.158698.3931754-.416732.578125-.77539.1549011-.30039.299162-.695492.4765624-1.085938z"/><path d="m16 5.4003906c-1.01296 1.0603-2.086454 2.3357938-3.746094 4.6210934 1.00266.038 1.863557.687647 2.310547 1.623047.5315-.5729 1.008047-1.140497 1.435547-1.6542966zm-4.130859 5.5898434c-.344944.00815-.715264.112638-1.097657.351563-1.3199596.8247-1.0412253 3.788109-3.7597652 3.787109.25739.997 4.1483582 1.238413 5.7617192.195313.84104-.5437 1.474398-1.549597 1.136718-2.779297-.200707-.730875-1.006185-1.579138-2.041015-1.554688z" stroke-width=".882338"/></g></svg>