<svg height="16" width="16" xmlns="http://www.w3.org/2000/svg"><g fill="#bebebe"><path d="m0 0v15h3v-15z"/><path d="m6 0v15h.021484a1.0001 1.0001 0 0 1 .9902344-.871094c.4979258.000183.7317039-.108875.9375-.267578.2057958-.158703.3931646-.416728.578125-.77539.153771-.298183.2973122-.690738.4726566-1.078125v-12.007813z"/><path d="m12 0v8.6875c1.229364-1.654331 2.157607-2.772723 3-3.677734v-5.009766z"/><path d="m16 5.400391c-1.012917 1.0603-2.086524 2.335793-3.746094 4.621093 1.002618.038 1.863576.687647 2.310547 1.623047.531477-.5729 1.008065-1.140497 1.435547-1.654297zm-4.130859 5.589843c-.344929.0082-.71528.112638-1.097657.351563-1.3199038.8247-1.0413402 3.788109-3.7597652 3.787109.257379.997 4.1484272 1.238413 5.7617192.195313.841005-.5437 1.474384-1.549597 1.136718-2.779297-.200698-.730875-1.006229-1.579138-2.041015-1.554688z" stroke-width=".882319"/></g></svg>