<svg height="16" width="16" xmlns="http://www.w3.org/2000/svg"><g fill="#bebebe"><path d="m1 4.2285156v8.8789064c0 .41924.3366094.757812.7558594.757812h8.5019526 2.628907 1.357422c.41925 0 .755859-.338572.755859-.757812v-8.8789064h-5.2695312-2.2949219zm6.1445312.7714844 1.125.6738281.515625.3105469-.6191406 1.0351562-.4960937-.2988281-.8554688 1.8222657c.5919505.2920692 1.1150673.7731275 1.4902344 1.3828124.331819.5392138.5468517 1.1853148.5449219 1.8671878h2.5488286v-.16211-.603515h1.207031v.603515 1.369141h-4.4414065-4.7695313zm-.8398437 4.6328125-1.0117187 2.1601565h2.3496093c.0026968-.431849-.1327696-.856593-.3652343-1.234375-.254838-.414138-.6262127-.7420085-.9726563-.9257815z"/><path d="m1.7558594 2.1347656c-.41925 0-.7558594.3385725-.7558594.7578125v1.3359375h6.4316406 2.2988282 5.2695312v-1.3359375c0-.41924-.336609-.7578125-.755859-.7578125h-2.185547-2.2968752z" fill-opacity=".501961"/></g></svg>