<svg height="16" width="16" xmlns="http://www.w3.org/2000/svg"><g fill="#bebebe"><path d="m1 4.2285156v8.8789064c0 .41924.3366094.757812.7558594.757812h8.5019526 2.628907 1.357422c.41925 0 .755859-.338572.755859-.757812v-8.8789064h-5.2695312-2.2949219zm6 2.0761719v1.1542969l-2.75 1.5878906 2.75 1.587891v1.154296l-4-2.3085932v-.8652344zm2 0 4 2.3105469v.8652344l-4 2.3085932v-1.154296l2.75-1.5859379-2.75-1.5878906z"/><path d="m1.7558594 2.1347656c-.41925 0-.7558594.3385725-.7558594.7578125v1.3359375h6.4316406 2.2988282 5.2695312v-1.3359375c0-.41924-.336609-.7578125-.755859-.7578125h-2.185547-2.2968752z" fill-opacity=".501961"/></g></svg>