<svg height="16" width="16" xmlns="http://www.w3.org/2000/svg"><path d="m1 13 11-12v-.5h-11.5v12.5z" fill="#bebebe" fill-rule="evenodd" opacity=".35"/><path d="m1.0000031 15.127317c2.7210758.000981 2.4433392-2.963717 3.7645278-3.78917 1.531002-.956544 2.8726918.228725 3.140554 1.204166.3379982 1.230831-.2954653 2.237208-1.1372903 2.781428-1.6148697 1.043993-5.5101624.801454-5.7677915-.196424z" fill="#b6b6b6" stroke-width=".883162"/><path d="m15.41632 1.33497c.30837-.6658-.16372-.9212-.73242-.3567-3.99874 3.9688-4.6839 4-8.42383 9.1497 1.00355.0377 1.86506.6864 2.3125 1.6228 4.42743-4.7725 4.92644-7.3334 6.84375-10.4158z" fill="#b6b6b6"/><path d="m0 0v13h1v-12h11v-1z" fill="#bebebe"/></svg>