<svg height="16" width="16" xmlns="http://www.w3.org/2000/svg"><g fill="#bebebe"><path d="m1 4.2285156v8.8789064c0 .41924.3366094.757812.7558594.757812h8.5019526 2.628907 1.357422c.41925 0 .755859-.338572.755859-.757812v-8.8789064h-5.2695312-2.2949219zm6.9589844.7714844c.417313.0003422.7557264.3365149.7558594.7539062-.0001611.4173427-.3385664.7555172-.7558594.7558594-.417626.0001466-.7576545-.3381746-.7578125-.7558594.000132-.4177336.3401675-.7540527.7578125-.7539062zm-1.0078125 1.5097656c.184329.2995134.6280265.5034665 1.0078125.5039063.348847-.0002294.8155846-.242502 1.0097656-.5039063l1.345703 2.9960938c.215708-.1340803.434944-.2900605.667969-.4746094l.988281.4589844c-.32858.3907342-.765399.6960076-1.236328.9472656l1.154297 2.5625-1.660156-2.314453c-.5767884.227975-1.1916435.363281-1.7675785.363281-.844012 0-1.7419015-.349526-2.3828125-.90625l-2.0488281 2.857422zm1.0078125 1.0078125-1.3359375 1.8632813c.539602.3511632 1.1769166.6582056 1.8378906.6582026.441089.000003.8104753-.076949 1.1601563-.2031245z"/><path d="m1.7558594 2.1347656c-.41925 0-.7558594.3385725-.7558594.7578125v1.3359375h6.4316406 2.2988282 5.2695312v-1.3359375c0-.41924-.336609-.7578125-.755859-.7578125h-2.185547-2.2968752z" fill-opacity=".501961"/></g></svg>