<svg height="16" width="16" xmlns="http://www.w3.org/2000/svg"><g fill="#bebebe"><path d="m1 4.2285156v8.8789064c0 .419252.3366094.757812.7558594.757812h8.5019526 2.628907 1.357422c.41925 0 .755859-.33856.755859-.757812v-8.8789064h-5.2695312-2.2949219zm7 1.0019532c.068357 0 .135405.011325.203125.015625.104559.00682.2076839.0090538.3105469.0253906l.0019531-.0019532c.056904.0102961.1135519.0213342.1699219.0332032.08152.01752.1638706.0355837.2441406.0585937.072988.020574.1450599.0451437.2167969.0703125l-.0019532.0039063c.01854.00638.0342944.0167375.0527344.0234375.152843.054061.3039749.11588.4511719.1875l.1855469.1035156c.0016-.00139.0026062-.0025363.0039062-.0039062.1920694.1036986.3783514.2171189.5585934.3417968-.0019.00197-.003475.0047625-.003906.0078125.146762.1002916.293477.200208.431641.3105469.212646.1716164.400277.3570001.589843.5410156.102983.0996581.204482.197146.300782.296875v.0019532c.040603.041931.087663.0841431.126953.1269531l.003906-.0039063c.153167.1665125.295982.3287357.425781.4863282l.001954.0019531-.001954.0019531c.2831.343983.505688.6534222.66211.8808594.0022.003139.007665.0086087.009765.0117187.01352.019969.017247.0269409.029297.0449219.120815.1786893.207185.3173125.208985.3203125-.002005.0032864-.089645.1389086-.177735.2714844-.02878.0434279-.041971.0643269-.082031.1230469-.156066.2260652-.372723.5239442-.650391.8613282l.001954.001953-.001954.001953c-.1298.15758-.272614.319815-.425781.486328l-.003906-.003906c-.039293.042813-.086343.085023-.126953.126953v.001953c-.097268.100733-.198639.202038-.302735.302735-.188718.183042-.376328.366367-.58789.537109-.138163.110339-.284879.210255-.431641.310547.0006.0038.003759.005112.00586.007812-.180198.124696-.366587.238053-.5585942.341797-.0019-.0021-.0034594-.003759-.0058594-.005859l-.1855469.103516c-.147198.071618-.2983289.13344-.4511719.1875-.01844.0067-.0341944.017037-.0527344.023437l.0019532.003906c-.071743.02517-.1438069.049743-.2167969.070313-.080273.02301-.1626206.041074-.2441406.058594-.056373.011869-.1130219.022903-.1699219.033203l-.0019531-.001953c-.10286.01629-.2059879.01859-.3105469.02539-.06772.00432-.134765.015625-.203125.015625s-.135405-.011325-.203125-.015625l-.0019531.007813c-.089564-.00657-.1794782-.008275-.2675781-.021485-.072221-.0105-.1415507-.027958-.2128907-.042968-.054756-.01176-.1097425-.025573-.1640625-.039063l.0019532-.007813c-.2754-.071068-.5437714-.170868-.8027344-.296874l-.0039063.007812c-.194221-.094745-.3835792-.202699-.5664062-.320312l.0039062-.00586c-.208324-.133757-.4094505-.277553-.6015625-.43164-.210938-.170055-.3955574-.354622-.5839844-.53711-.107649-.104621-.2116519-.208067-.3125-.3125l-.0019531.001953c-.04095-.042346-.08533-.085666-.125-.128906l-.0039062.003906c-.153164-.166513-.2959803-.328748-.4257813-.486328l-.0019531-.001953.0019531-.001953c-.286312-.347887-.515109-.6626519-.671875-.8906251-.0054-.007872-.0045656-.0059719-.0097656-.0136719-.144896-.2118041-.2259156-.3472825-.2285156-.3515625.001993-.0032977.0830526-.1408861.2285156-.3535156.0053-.007662.0043656-.0058019.0097656-.0136719.156766-.2279714.385563-.5427324.671875-.890625l-.0019531-.0019531.0019531-.0019531c.129801-.15758.2726183-.3198152.4257813-.4863282l.0039062.0039063c.03967-.0432403.08405-.0865563.125-.1289063l.0019531.0019532c.0932841-.0966007.1903625-.1924096.2890626-.2890626.1949839-.1900375.3880308-.3817249.6074218-.5585937.192125-.1541015.3932255-.2998278.6015625-.4335937l-.0019531-.0058594c.182113-.1170426.3710441-.2240114.5644531-.3183594l.0039063.0058594c.258963-.126006.5273343-.225805.8027344-.296875l-.0019532-.0078125c.054321-.013492.1093025-.0273005.1640625-.0390625.07134-.01501.1406707-.0324688.2128907-.0429688.08813-.013214.1779881-.0149243.2675781-.0214844l.0019531.0078126c.067722-.00434.134765-.015625.203125-.015625zm0 1.2890624c-.126278.0000002-.2485886.0127796-.3691406.0253907-.106045.01258-.210224.026935-.3125.046875-1.001637.195257-1.7806347.7903684-2.3222656 1.3535156-.574714.6015011-.8828126 1.171875-.8828126 1.171875.0000001.00005-.0039062.0039063-.0039062.0039063 0-.0000002.3120047.5664671.8867188 1.1679682.5416349.563152 1.3206286 1.156301 2.3222656 1.351563.102276.01994.206455.036248.3125.048828.120546.01261.2428626.025391.3691406.025391.126277 0 .2466425-.012941.3671875-.025391.106049-.01258.2121731-.028888.3144531-.048828 1.001636-.195257 1.7767254-.78841 2.3183594-1.351563.574714-.6015011.890625-1.1679682.890625-1.1679682s-.003881-.0038607-.003906-.0039063c0-.00008.003906-.0058594.003906-.0058594s-.315911-.5645144-.890625-1.1660156c-.541634-.5631509-1.3167234-1.1582586-2.3183594-1.3535156-.10228-.01994-.2084041-.034295-.3144531-.046875-.120545-.01245-.2409105-.0253907-.3671875-.0253907zm.0234375.6660157c.847486.0009238 1.5956391.5535273 1.8457031 1.3632812.01873.0616797.034385.124258.046875.1875.01283.0619829.0225989.1245498.0292969.1875.000001.00131.000002.0026063 0 .0039063v.0019531c.00611.0603602.0093616.1209736.0097656.1816406.000008.00326.000008.0065057 0 .0097657-.0004.061318-.0035656.1225857-.0097656.1835937-.006569.0642511-.0163469.1281363-.0292969.1914063-.01249.0632424-.028135.1258199-.046875.1875-.250064.8097552-.9982181 1.3623572-1.8457031 1.3632812-.869341.000879-1.6324264-.578425-1.8652344-1.4160156-.01664-.0604962-.0303356-.1217638-.0410156-.1835938-.000008-.0033-.000009-.0064656 0-.0097656-.00991-.0588817-.0170844-.1181894-.0214844-.1777344-.0027-.029249-.0045594-.0585526-.0058593-.0878906-.0009001-.016917-.0015242-.0338462-.0019532-.0507812-.000008-.00326-.000008-.0065057 0-.0097657.0005-.015632.0011121-.031258.0019532-.046875.0013-.030641.0031593-.0612489.0058593-.0917969.00448-.0588909.0116844-.1175462.0214844-.1757812-.000008-.00326-.000009-.0065056 0-.0097656.009759-.0578247.0221394-.115176.0371094-.171875.002-.00652.0038594-.0130313.0058593-.0195313.234799-.8345659.9963143-1.4108922 1.8632813-1.4101562z" stroke-width="1.000015"/><path d="m1.7558594 2.1347656c-.41925 0-.7558594.3385725-.7558594.7578125v1.3359375h6.4316406 2.2988282 5.2695312v-1.3359375c0-.41924-.336609-.7578125-.755859-.7578125h-2.185547-2.2968752z" fill-opacity=".501961"/></g></svg>