<svg height="16" width="16" xmlns="http://www.w3.org/2000/svg"><g fill="#bebebe"><path d="m1 4.2285156v8.8789064c0 .41924.3366094.757812.7558594.757812h8.5019526 2.628907 1.357422c.41925 0 .755859-.338572.755859-.757812v-8.8789064h-5.2695312-2.2949219zm3.1035156.7714844h7.7929684c.610845 0 1.103516.4926713 1.103516 1.1035156v1.7929688c0 .6108443-.492671 1.1035156-1.103516 1.1035156h-.865234l-2.03125 4v-4h-4.8964844c-.6108443 0-1.1035156-.4926713-1.1035156-1.1035156v-1.7929688c0-.6108443.4926713-1.1035156 1.1035156-1.1035156z"/><path d="m1.7558594 2.1347656c-.41925 0-.7558594.3385725-.7558594.7578125v1.3359375h6.4316406 2.2988282 5.2695312v-1.3359375c0-.41924-.336609-.7578125-.755859-.7578125h-2.185547-2.2968752z" fill-opacity=".501961"/></g></svg>