<svg height="16" width="16" xmlns="http://www.w3.org/2000/svg"><g fill="#bebebe"><path d="m13.4301 1.94652c-5.5785 1.0362-10.5734 4.7355-11.4063 11.4375a.50389111.50389111 0 1 0 1 .125c.7787-6.2666 5.3216-9.5832 10.5938-10.5625a.50871314.50871314 0 1 0 -.1875-1z"/><circle cx="13.5625" cy="2.500003" r="1.5"/><circle cx="2.5625" cy="13.500003" r="1.5"/><path d="m2.983 4.20902c-1.2435 1.8693-1.2766 4.2067.2444 5.615 1.4792.8068 2.9545.6486 4.7753-.9867-3.248.4264-4.9899-1.103-5.0197-4.6283z"/><path d="m8.9234 1.11232c-1.5099.9137-2.2988 2.505-1.6614 3.9183.8042.9889 1.9214 1.3157 3.7716.7325-2.4852-.6659-3.2426-2.2272-2.1102-4.6508z"/></g></svg>