<svg height="16.01759" width="16" xmlns="http://www.w3.org/2000/svg"><g fill="#bebebe"><path d="m0 .01757813v1.33398437 10.6660155h4.1953125c-.2538674-.736831-.2519889-1.570671.0527344-2.3632811.172322-.4481713.4231348-.8115585.6699219-1.1171875l.9238281-1.1445313 1.5410156 2.7246099.5800781-.3339849-1.5371094-2.7246093 1.4707032-.1914063c.19431-.025244.4011186-.0434319.6191406-.0449219s.4472578.0137182.6835938.0566406l-.1074219-.0136718.0546875.0039062.0527344.0097656c1.0378392.1885414 1.9076642.7929624 2.3828122 1.6347657s.54229 1.8989801.164063 2.8828121c-.062209.161789-.177826.29773-.259766.451172l.109375.169922h.404297v-11.99999987z"/><path d="m9.0201 7.86275c-.32486-.059-.6669-.0455-.99404-.003l.9759 1.72872c.20088.35507-.0237.76283-.45022 1.00909l-.76991.44451c-.43052.23932-.91014.20778-1.11067-.14747l-.97565-1.72885c-.20685.25617-.39602.54042-.51415.84765-.56538 1.4706.23676 2.8917 1.79162 3.17415.32485.0591.66688.0455.99402.003.0263-.004 1.5184 2.76504 1.5184 2.76504l3.50484.062-2.66726-4.12967c.20681-.25617.37073-.54378.48887-.85103.56534-1.47056-.23679-2.89167-1.79161-3.17413z"/></g></svg>