<svg height="16" width="16" xmlns="http://www.w3.org/2000/svg"><g fill="#bebebe"><path d="m6.9999999-.0000002v16.0000002h1v-16.0000002z"/><path d="m6 1.00171h3v3h-3z" fill-rule="evenodd" stroke-width=".6"/><path d="m6 6.00171h3v3h-3z" fill-rule="evenodd" stroke-width=".6"/><path d="m6 12.00171h3v3h-3z" fill-rule="evenodd" stroke-width=".6"/></g><path d="m15.492188 15.496094-7.9899676-1.931188c-8.00465127-1.933384-5.0652316-6.0972499.0765006-6.166261 5.141733-.0690111 7.040025-3.0474247-.0159122-4.97389l-7.05728453-1.91923073" fill="none" stroke="#bebebe" stroke-linecap="round"/><path d="m16 13.5h-8.5" fill="none" stroke="#bebebe"/><path d="m16 7.5h-8.5" fill="none" stroke="#bebebe"/><path d="m16 2.5h-8.5" fill="none" stroke="#bebebe"/><path d="m13.979 9.338332 1.021165-1.333334.978506 1.333334h-.645227v2.328335h.666556l-.999835 1.333333-.999836-1.333333h.666558v-2.328335z" fill="#bebebe" fill-rule="evenodd" stroke-width=".666612"/><path d="m13.979 4.336151 1.021334-1.333334.978666 1.333334h-.645333v1.330516h.666667l-1 1.333333-1-1.333333h.666667v-1.330516z" fill="#bebebe" fill-rule="evenodd" stroke-width=".666667"/></svg>