<svg height="16" width="16" xmlns="http://www.w3.org/2000/svg"><g fill="#bebebe"><path d="m10.10933 6.9432793c.519334-.419 1.401334-.2688 1.795334.2157334.65.7338.838 1.6724666 1.077333 2.5508.177333.7490663.306 1.1791333.351333 1.9427333.525334-.9656 1.114-1.6722 1.124667-2.7596.01467-.5496-.341333-1.0155333-.579333-1.5015333-.196667-.4074.344666-.8313334.808-.7006.568666.1026.663333.6846.646666 1.1019333-.06 1.2412-.608 2.459933-1.162666 3.594333-.786667 1.498-1.912 2.8872-3.384 3.941267-.579334.386267-2.0433337.834267-2.766667.6016-1.3333334-.615933-1.3333334-1.8478 0-1.8478.4574504 0 1.6933333.769867 2.184.754533.81-.0053 1.387333-.650666 1.606-1.2652.222-.813.014-1.652933-.123333-2.463533-.223334-1.053667-.475334-2.1287333-1.064-3.082-.187519-.3247929-1.0653337-.5902667-.513334-1.0826667z" stroke-width=".666667"/><path d="m12.89933 2.9582126c-.368 0-.646.058067-.833333.1742667-.184.1162-.276667.2874667-.276667.5136667 0 .2079333.074.3715333.222.4907333.151334.1162.360667.1742667.626667.1742667.332 0 .612-.1100667.838667-.3302.227333-.2232.340666-.5014.340666-.8346667v-.1880667zm2.434-.9582v3.3333334h-1.333333v-.7613334c-.236667.3118667-.503333.5396667-.799333.6833334-.296.1406666-.656.211-1.08.211-.572667 0-1.220667-.2180667-1.579334-.5268667-.354666-.3118667-.532666-.7154667-.532666-1.2107333 0-.6023334.222-1.0441334.666-1.3254667.447333-.2812667 1.148-.4219333 2.101333-.4219333h1.041333v-.1284c0-.2598667-.110666-.4494667-.330666-.5687334-.220667-.1222666-.564-.1834-1.031334-.1834-.378 0-.73.035133-1.055333.1054667-.325333.070333-.628.1758-.908.3164667v-1.25206671c.378667-.0856.758-.1498 1.14-.19260001.381333-.04586666.762667-.0688 1.144-.0688.996667 0 1.332.0548 1.772667.42166667.444.36386667.784666.74660005.784666 1.56906665" stroke-width=".666667"/><path d="m13.000001-15.999997h1v16h-1z" stroke-width=".816497" transform="rotate(90)"/><path d="m5.000001-15.999997h1v16h-1z" stroke-width=".816497" transform="rotate(90)"/><path d="m1.667 8.0000127 1.833-2.0000001 1.8333303 2.0000001h-1.3333318l-.0000015 2.9999873h1.3333333l-1.8333303 2-1.833-2h1.333l.0000015-2.9999873z" fill-rule="evenodd" stroke-width=".666667"/></g></svg>