<svg height="16" width="16" xmlns="http://www.w3.org/2000/svg"><g fill="#bebebe"><path d="m10.155667 6.169546c.519338-.4504 1.402004-.2889334 1.795338.2318666.650666.7888001.838666 1.7978001 1.078 2.7419334.177333.8052.306 1.267533.350666 2.088333.526-1.038 1.114-1.797533 1.125334-2.9663997.01467-.5908-.342-1.0916-.58-1.6140666-.196-.4378667.344666-.8935334.808666-.7530667.568.1102666.662667.7359333.646 1.1845333-.06 1.3342-.608 2.6442667-1.162666 3.8635997-.786 1.610267-1.912 3.1036-3.384 4.2366-.578672.4152-2.0433383.896734-2.766005.646667-1.3333333-.662067-1.3333333-1.986267 0-1.986267.5346314 0 1.6926667.827534 2.183333.811134.810005-.006 1.387338-.699467 1.606005-1.360067.222-.873867.014-1.776733-.123333-2.648067-.223334-1.1326663-.474667-2.2882663-1.064-3.312933-.216807-.3755201-1.0646716-.6345333-.513338-1.1638z" stroke-width=".666667"/><path d="m4.8955832 8.9582127c-.368 0-.646.058067-.8333334.1742666-.184.1162-.2766666.2874667-.2766666.5136667 0 .2079333.074.371533.222.490733.1513333.1162.3606666.174267.6266666.174267.332 0 .612-.110067.8386667-.3302.2273333-.2232.3406667-.5014.3406667-.8346667v-.1880666zm2.434-.9582v3.3333333h-1.3333334v-.761333c-.2366666.311866-.5033333.539666-.7993333.683333-.296.140667-.656.211-1.08.211-.5726667 0-1.2206667-.218067-1.5793333-.526867-.3546667-.311866-.5326667-.715466-.5326667-1.210733 0-.6023333.222-1.0441333.666-1.3254667.4473333-.2812666 1.148-.4219333 2.1013333-.4219333h1.0413334v-.1284c0-.2598667-.1106667-.4494667-.3306667-.5687333-.2206667-.1222667-.564-.1834-1.0313333-.1834-.378 0-.73.035133-1.0553334.1054666-.3253333.070333-.628.1758-.908.3164667v-1.2520667c.3786667-.0856.758-.1498 1.14-.1926.3813334-.045867.7626667-.0688 1.144-.0688.9966667 0 1.332.0548 1.7726667.4216667.444.3638667.7846667.7466.7846667 1.5690667" stroke-width=".666667"/><path d="m1 .000001h1v16h-1z" stroke-width=".816497"/><path d="m9.000091.000001h1v16h-1z" stroke-width=".816497"/><path d="m4.0000989 4.333-2.0000989-1.9999931 1.9997638-1.6670069.0003351 1.3339954h3.0001525l-.0003352-1.3339954 2.0001676 1.6670069-1.9998324 1.9999931v-1.3333287h-3.0001525z" fill-rule="evenodd" stroke-width=".666682"/></g></svg>