<svg height="16" width="16" xmlns="http://www.w3.org/2000/svg"><g fill="#bebebe"><path d="m15.998856 7.0011437h-16v1h16z"/><path d="m6.001144-14.997146h3v3h-3z" fill-rule="evenodd" stroke-width=".6" transform="rotate(90)"/><path d="m6.001144-9.997146h3v3h-3z" fill-rule="evenodd" stroke-width=".6" transform="rotate(90)"/><path d="m6.001144-3.997146h3v3h-3z" fill-rule="evenodd" stroke-width=".6" transform="rotate(90)"/></g><path d="m.502762 15.493332 1.931188-7.9899678c1.933384-8.00465127 6.0972499-5.0652316 6.166261.076501.069011 5.1417332 3.047425 7.0400252 4.97389-.015912l1.919231-7.05728453" fill="none" stroke="#bebebe" stroke-linecap="round"/><path d="m4.334121 2.0207371-1.333334-1.02133345 1.333334-.97866668v.6453333h2.3283352v-.6666666l1.333333.99999998-1.333333 1.00000005v-.6666668h-2.3283352z" fill="#bebebe" fill-rule="evenodd" stroke-width=".666667"/><path d="m2.5 7.5v-7.5" fill="none" stroke="#bebebe"/><path d="m8.5 7.5v-7.5" fill="none" stroke="#bebebe"/><path d="m13.5 7.5v-7.5" fill="none" stroke="#bebebe"/><path d="m10.334121 2.0207371-1.333334-1.02133345 1.333334-.97866668v.6453333h1.330516v-.6666666l1.333333.99999998-1.333333 1.00000005v-.6666668h-1.330516z" fill="#bebebe" fill-rule="evenodd" stroke-width=".666667"/></svg>