<svg height="16" width="16" xmlns="http://www.w3.org/2000/svg"><path d="m466.28497 300.00094a.84967819.84967819 0 0 0 -.68941.84956v2.40611h-1.53702c-.0267-.001-.0534-.001-.0801 0-.026-.001-.0521-.001-.0781 0h-.002c-.40581.0779-.69676.43641-.68942.84956v11.04427c.00007.46917.38039.84949.84956.84956h8.4956c.46917-.00007.84949-.38039.84956-.84956v-2.40415h1.53701a.84967819.84967819 0 0 0 .84956-.84956v-8.01906a.84967819.84967819 0 0 0 -.23826-.60934l-3.02717-3.02717a.84967819.84967819 0 0 0 -.61129-.24022h-5.46843a.84967819.84967819 0 0 0 -.0801 0 .84967819.84967819 0 0 0 -.0801 0zm1.00971 1.70108h4.2478v2.54867h2.54868v6.79648h-6.79648zm-2.38658 3.25371h.68746v6.941a.84967819.84967819 0 0 0 .84956.84956h5.25946v1.55459h-6.79648z" fill="#bebebe" transform="translate(-462 -300)"/></svg>