<svg height="16" width="16" xmlns="http://www.w3.org/2000/svg"><g fill="#bebebe" transform="translate(-281 -727)"><path d="m285.0002 728v2h8v-2zm-2 3c-.5 0-1 .5-1 1v4c0 .5.5 1 1 1h1v-2h5.125c.66316-.63263 1.55072-1.03125 2.53125-1.03125 1.78152 0 3.29058 1.27976 3.625 2.96875.39274-.13746.71875-.53064.71875-.9375v-4c0-.5-.5-1-1-1zm2 5v5h5.09375c-1.25368-.5913-2.125-1.87524-2.125-3.34375 0-.59537.15156-1.15644.40625-1.65625z"/><path d="m291.65645 734.9375c-1.4956 0-2.71875 1.22315-2.71875 2.71875s1.22315 2.71875 2.71875 2.71875c.4871 0 .94729-.14835 1.34375-.375a.750075.750075 0 0 0 .15625.21875l1.84375 1.8125a.75130096.75130096 0 1 0 1.0625-1.0625l-1.84375-1.8125a.750075.750075 0 0 0 -.21875-.15625c.22665-.39646.375-.85664.375-1.34375 0-1.4956-1.22315-2.71875-2.71875-2.71875zm0 1c.95516 0 1.71875.76359 1.71875 1.71875s-.76359 1.71875-1.71875 1.71875-1.71875-.76359-1.71875-1.71875.76359-1.71875 1.71875-1.71875z"/></g></svg>