<svg height="16.012291" width="16" xmlns="http://www.w3.org/2000/svg"><g transform="matrix(1 0 0 .99836583 0 -.0313)"><path d="m-15.0625 431c-.632499.0455-1.027657.72053-.9375 1.3125.0028 4.24996.02115 8.50019.03125 12.75.05698.62486.692327 1.02649 1.28125.9375 3.252979-.003 6.497173-.0213 9.75-.0312.624253-.0569 1.026385-.69174.9375-1.28125-.0044-3.25599-.01605-6.52564-.03125-9.78125-.09405-.59835-.66512-.91374-1.03125-1.34375-.802576-.78917-1.554622-1.60576-2.375-2.375-.49046-.30313-1.110769-.1456-1.65625-.1875h-5.96875zm5.0625 3.5625 3.71875 3.71875c.18814.18817.28122.45344.28125.71875v1h-1c-.2653 0-.53058-.0931-.71875-.28125l-1.28125-1.28125.03125 5.625-2.125.0625.0625-5.65625-1.25 1.25c-.18818.18811-.45344.28129-.71875.28125h-1v-1c0-.26528.093-.53057.28125-.71875z" fill="#bebebe" transform="matrix(1 0 0 1.0016368 18 -430.6725)"/><path d="m0 .031346h16v15.999999h-16z" fill="none"/></g></svg>