<svg height="16.01759" width="16" xmlns="http://www.w3.org/2000/svg"><g fill-rule="evenodd"><path d="m7.2250407 9.49559c.002-.11109.0526-.21574.13859-.28603l3.7741703-3.09039c.27175-.22232.67321.0144.61035.35977l-.27274 1.48915h4.52459v3.09038h-4.48772l.30516 1.50537c.0703.34771-.33425.5917-.60887.36714l-3.8449403-3.13756c-.0892-.0729-.14028-.18259-.13859-.29783z" fill="#bebebe"/><path d="m12.38672 12.29492c-.00028.001.002.002.002.004h-.002z"/><path d="m12.38672 12.75781c-.00028.001.002.002.002.004h-.002z"/></g><path d="m3.03125 1c-.52358.0000501-.99995.47642-1 1v12.96875c.00005.52358.47642.99995 1 1h9.96875c.51539-.00005.979521-.462733.994141-.976562l.005859.007812v-.03125-2.910156h-1.265625l.0625.30664c.11799.583591-.189659 1.182354-.638672 1.453125-.047891.028881-.105764.042007-.158203.064453v.117188h-.582031c-.022457-.000476-.04392.001504-.066407 0h-7.320312v-11h4.5625l2.1875 2.1875c.163881-.0769092.335351-.1322275.511719-.1425781.279678-.0164137.558863.047433.783203.1796875.448679.264509.762047.8523267.65625 1.4335937l-.056641.3105469h1.324219v-1c-.002-.26843-.11756-.53419-.3125-.71875l-3.96875-3.9375c-.18456-.19494-.45032-.31049-.71875-.3125z" fill="#bebebe"/></svg>