<svg height="16" width="16" xmlns="http://www.w3.org/2000/svg"><g fill="#bebebe"><path d="m2.37321.19929539c-.84901-.00729-1.720709.3656449-1.975912 1.06174441-.379262.8398849.229359 1.821108 1.268626 2.1234925.0033.0008775.0081-.0008258.0112 0 1.133342.409631 2.543882.6096568 3.772207 1.8805522l.460299.4768825-.415391.4229007c-1.231881 1.2687276-2.637703 1.4639224-3.772209 1.8715508-.0025.00124-.0083-.00124-.0112 0-1.036399.2994477-1.637499 1.275933-1.268622 2.1144925.0013.0025-.0013.0064 0 .009.315296.848609 1.553631 1.224299 2.548484.998761.0033-.000619.0078.000619.0112 0 1.018885-.177621 1.85311-1.006622 1.616661-1.8445565-.116656-.4134248-.265936-.605399-.40416-.71983-.06912-.057213-.12943-.09295-.168403-.1259664-.03897-.033017-.202942-.1249239-.202942-.1249239.101461-.073848.160728-.1087845.24783-.1630038.130137-.084805.357481-.1890013.651154-.3149265.582198-.2496464 1.439628-.6021264 2.424985-1.1697238 1.782152 1.0130322 4.09776 2.3250014 5.377626 3.0502554 1.279865.7252585 2.589806.3594675 3.132273.02698l-6.863796-4.0287953 6.903081-4.0681494c-1.069951-.659859-2.290911-.380433-3.104206.016867-1.808165 1.0255174-3.62208 2.046147-5.43376 3.0682476-.826106-.4515355-1.712573-.8655329-2.481084-1.1967122-.293946-.1266426-.520758-.2297136-.651153-.3149265-.0652-.042606-.230147-.1349677-.230147-.1349677.150787-.087886.310565-.2498374.426627-.373409.116072-.1235716.252676-.3065703.3312-.6253522.207607-.8428691-.598173-1.67409541-1.616666-1.85355661-.196841-.043558-.409538-.04996-.583775-.062982zm-.112261.7108288c.378969-.0178.770091.085842 1.021637.28793141.376852.3027556.44863.7197775.303123 1.0617439-.145513.3419768-.494282.5947561-.987959.593858h-.0112c-.452496.020965-.893798-.1880464-1.156361-.4948799-.262555-.3068336-.337402-.6884387-.07858-1.0167566v-.00901c.178814-.2723861.530651-.40511331.909369-.42289701zm.291893 7.65716911c.03357-.0006193.06821-.00124.08981 0 .493755-.0000258.843303.2519948.987959.5938532.144666.341858.0746.759644-.303123 1.0617485-.251819.201404-.653718.31472-1.03286.296924-.379148-.0178-.720037-.159117-.898146-.431897l-.0112-.009c-.249757-.3183995-.177242-.6786205.06736-.9807625.244597-.3021423.664122-.5245371 1.100226-.5308752z" stroke-width=".051613"/><path d="m6 12v2h5v2l4-3-4-3v2z" fill-rule="evenodd"/></g></svg>