<svg height="16.01759" width="16" xmlns="http://www.w3.org/2000/svg"><g transform="translate(-360 -766)"><path d="m372.38672 778.29492c-.00028.001.002.002.002.004h-.002z" fill-rule="evenodd"/><g fill="#bebebe"><path d="m3.03125 1c-.52358.00005-.99995.47642-1 1v4.96875h1.2929688l-.0566407-.3105469c-.1058-.58126.20757-1.1690837.65625-1.4335937.0325287-.0191817.072753-.0267027.1074219-.0429688v-2.1816406h4.5625l3.40625 3.40625v7.59375h-7.3515625c-.0224869.001504-.0439497-.000476-.0664063 0h-.5507812v-.105469c-.0635943-.025297-.1322091-.041651-.1894531-.076172-.44902-.27077-.7566619-.869535-.6386719-1.453125l.0625-.30664h-1.234375v2.910156c.00005.52358.47642.99995 1 1h9.96875c.51539-.00005.979521-.462733.994141-.976562l.005859.007812v-.03125-9c-.002-.26843-.11756-.53419-.3125-.71875l-3.96875-3.9375c-.18456-.19494-.45032-.31049-.71875-.3125z" transform="translate(360 766)"/><path d="m368.77496 775.49559c-.002-.11109-.0526-.21574-.13859-.28603l-3.77417-3.09039c-.27175-.22232-.67321.0144-.61035.35977l.27274 1.48915h-4.52459v3.09038h4.48772l-.30516 1.50537c-.0703.34771.33425.5917.60887.36714l3.84494-3.13756c.0892-.0729.14028-.18259.13859-.29783z" fill-rule="evenodd"/></g></g></svg>