<svg height="16" width="16.000002" xmlns="http://www.w3.org/2000/svg"><g fill="#bebebe" transform="translate(-160.0002 -646)"><path d="m160.53145 651c-.28913 0-.53125.2421-.53125.5313v9.9375c0 .2985.23264.5312.53125.5312h13.8125c.2986 0 .53125-.2326.53125-.5312l1.125-4.9159c0-.2891-.24212-.5312-.53125-.5312h-11.59375l-.875 3.4783c0 .277-.223.5-.5.5s-.5-.223-.5-.5v-4.9966c0-.277.223-.5.5-.5h.46615v-3.0034z"/><path d="m164.8127 647c-.4584.0875-.82072.5334-.8125 1v7h2v-6h4v3h3v3h2v-3.4375c.006-.2641-.0976-.529-.28125-.7188l-3.5625-3.56245c-.18978-.1837-.45469-.28737-.71875-.28125h-5.4375c-.0312-.001-.0625-.001-.0937 0-.0312-.001-.0625-.001-.0937 0z"/></g></svg>