<svg height="16.01759" width="16" xmlns="http://www.w3.org/2000/svg"><path d="m12.38672 12.29492c-.00028.001.002.002.002.004h-.002z" fill-rule="evenodd"/><g fill="#bebebe"><path d="m3.03125 1c-.52358.00005-.99995.47642-1 1v4.3671875l1.2480469-1.0214844c.2183968-.1786717.4848268-.2703449.7519531-.2929687v-2.0527344h4.5625l3.40625 3.40625v7.59375h-7.8066406c-.0225399-.000473-.0438356.001506-.0664063 0h-.0957031v-.019531c-.2427782-.032414-.4829358-.112908-.6816406-.275391l-1.3183594-1.076172v2.339844c.00005.52358.47642.99995 1 1h9.96875c.51539-.00005.979521-.462733.994141-.976562l.005859.007812v-.03125-9c-.002-.26843-.11756-.53419-.3125-.71875l-3.96875-3.9375c-.18456-.19494-.45032-.31049-.71875-.3125z"/><path d="m.00004065 9.49559c.002-.11109.0526-.21574.13859-.28603l3.77417005-3.09039c.27175-.22232.67321.0144.61035.35977l-.27274 1.48915h4.52459v3.09038h-4.48772l.30516 1.50537c.0703.34771-.33425.5917-.60887.36714l-3.84494005-3.13756c-.0892-.0729-.14028-.18259-.13859-.29783z" fill-rule="evenodd"/></g></svg>