<svg height="16.01759" width="16" xmlns="http://www.w3.org/2000/svg"><g transform="translate(-360 -766)"><path d="m375.99996 775.49559c-.002-.11109-.0526-.21574-.13859-.28603l-3.77417-3.09039c-.27175-.22232-.67321.0144-.61035.35977l.27274 1.48915h-4.52459v3.09038h4.48772l-.30516 1.50537c-.0703.34771.33425.5917.60887.36714l3.84494-3.13756c.0892-.0729.14028-.18259.13859-.29783z" fill="#bebebe" fill-rule="evenodd"/><path d="m372.38672 778.29492c-.00028.001.002.002.002.004h-.002z" fill-rule="evenodd"/><path d="m3.03125 1c-.52358.00005-.99995.47642-1 1v12.96875c.00005.52358.47642.99995 1 1h9.96875c.51539-.00005.979521-.462733.994141-.976562l.005859.007812v-.03125-2.365234l-1.351562 1.101562c-.189914.154811-.417154.233325-.648438.269531v.025391h-.126953c-.021173.001424-.041354-.000514-.0625 0h-7.779297v-11h4.5625l2.375 2.375c.059255-.0518684.113669-.1114708.179688-.1503906.22434-.13229.503523-.1960875.783203-.1796875.27968.01642.560412.1137212.789062.3007812l1.279297 1.046875v-.4238281c-.002-.26843-.11756-.53419-.3125-.71875l-3.96875-3.9375c-.18456-.19494-.45032-.31049-.71875-.3125z" fill="#bebebe" transform="translate(360 766)"/><path d="m372.38672 778.75781c-.00028.001.002.002.002.004h-.002z" fill-rule="evenodd"/></g></svg>