<svg height="16.012289" width="16" xmlns="http://www.w3.org/2000/svg"><path d="m385.9377 808c-.6325.0455-1.02766.72053-.9375 1.3125.003 4.24996.0213 8.50019.0312 12.75.057.62486.69233 1.02649 1.28125.9375 3.25298-.003 6.49717-.0214 9.75-.0312.62425-.0569 1.02639-.69174.9375-1.28125-.004-3.25599-.0162-6.52564-.0312-9.78125-.0941-.59835-.66512-.91374-1.03125-1.34375-.80258-.78917-1.55462-1.60576-2.375-2.375-.49046-.30313-1.11077-.1456-1.65625-.1875h-5.96875zm5.0625 3h1c.30945 0 .55232.0902.75.28125l3.65625 3.71875-3.65625 3.71875c-.19768.19085-.44055.28125-.75.28125h-1v-1c0-.25689.12983-.52846.3125-.71875l1.28125-1.28125h-3.125c-.93955 0-1.46875.65905-1.46875 1.5 0 .42921.16539.82274.4375 1.09375l-1.15625 1.625c-.80398-.63477-1.3125-1.6184-1.3125-2.71875 0-1.92048 1.57816-3.5 3.5-3.5h3.125l-1.28125-1.28125c-.18267-.1903-.3125-.46186-.3125-.71875z" fill="#bebebe" fill-rule="evenodd" transform="translate(-383.0002 -807)"/></svg>