<svg height="16.012238" width="16" xmlns="http://www.w3.org/2000/svg"><path d="m365.9377 807.99992c-.6325.0455-1.02766.72053-.9375 1.3125.003 4.24997.0212 8.50019.0312 12.75.057.62486.69233 1.02649 1.28125.9375 3.25298-.003 6.49717-.0214 9.75-.0312.62425-.0569 1.02639-.69174.9375-1.28124-.004-3.25599-.0161-6.52565-.0312-9.78125-.0941-.59835-.66512-.91375-1.03125-1.34375-.80258-.78918-1.55462-1.60577-2.375-2.37501-.49046-.30313-1.11077-.1456-1.65625-.1875zm4.0625 3h1v1c0 .25689-.12983.52846-.3125.71876l-1.28125 1.28124h3.125c1.92184 0 3.5 1.57952 3.5 3.5 0 1.10035-.51808 2.07852-1.32206 2.71329l-1.1452-1.63125c.27211-.27101.43601-.65283.43601-1.08204 0-.84095-.66911-1.75588-1.46875-1.49999h-3.125l1.28125 1.28124c.18267.19029.3125.46186.3125.71875v1.00001h-1c-.30945 0-.55232-.0904-.75-.28125l-3.65625-3.71876 3.65625-3.71875c.19768-.191.44055-.28125.75-.28125z" fill="#bebebe" transform="translate(-363.0002 -807)"/></svg>