<svg height="16" width="16" xmlns="http://www.w3.org/2000/svg"><path d="m2.303 13.464c7.774198-1.299545.697-10.964378.697-10.964378l5.5.000378" fill="none" stroke="#bebebe" stroke-linecap="round"/><path d="m1 12h3v3h-3z" fill="#bebebe" fill-rule="evenodd" stroke-width=".752152"/><path d="m2 13.5h5" fill="none" stroke="#bebebe" stroke-linecap="round"/><g fill="#bebebe"><path d="m1 1h3v3h-3z" stroke-width=".75"/><path d="m10.949219 0-1.5683596 5.8515625.7070316 1.2246094 2.898437.7773437 1.22461-.7070312 1.789062-6.67382815v-.47265625zm-1.1191409 8.0429688-.2597656.9648437.9667965.2597656.964844.2578125.966797.2597656.259766-.9667968zm.4472659 2.1914062-.5820315 2.171875a.50005.50005 0 1 0 .9667965.259766l.582032-2.173828z" fill-rule="evenodd"/></g></svg>