<svg height="16" width="16" xmlns="http://www.w3.org/2000/svg"><path d="m10.349609 0-2.3124996 5.703125c-.024311.05953-.0369104.123195-.0371094.1875l.0078125 6.087891c-.00036.31298-.0014399.574517.0195313.804687.0105129.115364.0240149.222923.0625.341797.0384849.118874.1063201.26957.2734374.384766.1671175.115195.3969848.125401.5449219.085937.147937-.03947.253539-.103221.359375-.177734.211672-.149025.4285429-.356548.7167969-.652344.002-.0019.0038594-.003859.0058594-.005859l4.3945316-4.6562504c.04245-.04484.076219-.0971598.099609-.1542968l1.515625-3.7382813v-4.2109375zm-8.3769528.23828125c-.313482.01384654-.6578011.04500128-1.03710932.09375a.50005.50005 0 1 0 .12890622.99023435c1.4156671-.1819416 2.1824355-.0235117 2.4511719.1523438.1343682.0879277.169579.1535953.1953125.265625s.0185529.2875191-.0429687.5058594c-.1230433.4366799-.4534482 1.010191-.8085938 1.5253906-.3551456.5151995-.7214454.9664259-.9375 1.2871094-.9002823 1.3461267-1.33471549 2.0684342-1.46289062 2.6601562-.03204382.1479305-.04846314.302001.00390624.4804688.05236961.1784675.21197824.3598054.37695313.4335937.32994975.1475767.55921095.064104.80273435 0 .4870471-.1282079 1.0572987-.3795362 1.6308594-.5546875s1.1237595-.244709 1.4375-.140625c.2089813.069335.2816443.1473417.34375.2714844.062106.1241427.0953513.3192371.0820313.5625-.0266401.4865258-.2368364 1.1174799-.4042969 1.5820316-.3906371 1.083659-.5650593 2.541528.0234375 3.71289.4031338.802443 1.1164594 1.287461 1.8242187 1.566406.7077601.278948 1.4220721.367188 1.9550781.367188 1.1173518 0 2.5737038-.36258 3.6523438-1.251953.562275-.463623 1.049484-1.040315 1.425781-1.591797s.640661-1.048413.742188-1.486328a.50007857.50007857 0 1 0 -.97461-.22461c-.04129.178082-.262345.660794-.59375 1.146485-.331404.48569-.772223 1.002091-1.236328 1.384765-.825612.680745-2.1329763 1.023438-3.0156248 1.023438-.4165472 0-1.0349913-.078193-1.5898437-.296875s-1.0333421-.561372-1.296875-1.085937c-.3868761-.770052-.294232-2.042588.0234375-2.923829.1696861-.470724.424256-1.1616117.4628906-1.8671871.0193174-.3527877-.013888-.7213252-.1855468-1.0644531-.1716591-.3431281-.5003528-.6329392-.9238282-.7734376-.6862595-.2276679-1.3973861-.0643325-2.0429687.1328126-.5459167.1667094-.9943674.3457207-1.3476563.4609374.1288758-.322089.3693477-.8464265 1.1171875-1.9648437v-.0019531c.1599673-.237257.5489597-.7230797.9296875-1.2753906.3811088-.5528636.7672678-1.176522.9492188-1.8222657.090975-.3228718.1327333-.6602327.0546875-1-.0780449-.3397673-.2983865-.66645528-.6230469-.87890622-.3246604-.21245095-.7274103-.33860524-1.2382812-.38671876-.2554355-.02405673-.5380805-.02751841-.8515626-.01367187z" fill="#bebebe"/></svg>