<svg height="16" width="16" xmlns="http://www.w3.org/2000/svg"><g fill="#bebebe"><path d="m-19.798971 9.8700226-4.079782 3.7689764-.509933-5.5308029-4.845232-2.7154261 5.102528-2.1940869 1.085265-5.4472021 3.663469 4.1747826 5.515962-.6511299-2.83838 4.7742445 2.323787 5.0447818z" fill-opacity=".501961" stroke="#bebebe" stroke-dashoffset="2078.737305" stroke-linecap="round" stroke-width="1.342251" transform="matrix(.52799225 .35905259 -.35905259 .52799225 22.810167 14.378988)"/><path d="m6 1.1171875-5.49609375 3.9921875 2.09960935 6.460937h1.8632813l.9414062-1.7011714-2.5390625-5.0898437 5.5859375 1.078125 1.7285159-1.6992188z" fill-opacity=".501961"/><path d="m6 .58789062-6 4.35742188 2.2910156 7.0546875h1.9394532l.4726562-.857422h-1.7890625l-1.90625-5.8691405 4.9921875-3.6269531 3.875 2.8144531.619141-.609375z"/></g></svg>