<svg height="16" width="16" xmlns="http://www.w3.org/2000/svg"><path d="m1.578125.06054688a.50004294.50004294 0 0 0 -.3613281.83203124l6.078125 7.05468748-2.796875 2.4101564a.50004294.50004294 0 1 0 .6523437.757812l2.796875-2.4101559 6.0781254 7.0546879a.50004294.50004294 0 1 0 .757812-.652344l-6.0781249-7.0546876 2.7968749-2.4101563a.50004294.50004294 0 0 0 -.347656-.8828125.50004294.50004294 0 0 0 -.304688.125l-2.7968746 2.4101563-6.078125-7.05468752a.50004294.50004294 0 0 0 -.3964844-.1796875z" fill="#bebebe"/></svg>