<svg height="16" width="16" xmlns="http://www.w3.org/2000/svg"><path d="m.55859375.10742188a.50005.50005 0 0 0 -.33203125.84375l2.71875 2.95117192 3.1757813 10.9589842a.50005.50005 0 1 0 .9589843-.277344l-2.6152343-9.0332028 9.3593752 10.1601568a.50005.50005 0 1 0 .734375-.677735l-9.4863284-10.2968749 10.1308594 4.4355469a.50024126.50024126 0 1 0 .402344-.9160156l-12.0761721-5.2871094a.50005.50005 0 0 0 -.1171875-.0351562l-2.4511719-2.6601563a.50005.50005 0 0 0 -.3515625-.16601562.50005.50005 0 0 0 -.05078125 0z" fill="#bebebe"/></svg>