<svg height="16" width="16" xmlns="http://www.w3.org/2000/svg"><path d="m6 0v1.2949219c-2.2537328.6733609-4.0317172 2.4513453-4.7050781 4.7050781h-1.2949219v4h1.2949219c.8628623 2.887992 3.5400986 5 6.7050781 5 3.16498 0 5.842216-2.112008 6.705078-5h1.294922v-4h-1.294922c-.673361-2.2537328-2.451345-4.0317172-4.705078-4.7050781v-1.2949219zm0 2.3476562v1.6523438h4v-1.6523438c1.705495.6016054 3.050738 1.9468485 3.652344 3.6523438h-1.652344v4h1.652344c-.822434 2.331524-3.035383 4-5.652344 4-2.6169605 0-4.8299096-1.668476-5.6523438-4h1.6523438v-4h-1.6523438c.6016054-1.7054953 1.9468485-3.0507384 3.6523438-3.6523438z" fill="#bebebe"/></svg>