<svg height="16" viewBox="0 0 16 16" width="16" xmlns="http://www.w3.org/2000/svg"><g fill="#bebebe" transform="translate(-122.92673 -579.682)"><path d="m123.92673 579.682c-.554 0-1 .446-1 1v7c0 .554.446 1 1 1h7v4l5-4h2c.554 0 1-.446 1-1v-7c0-.554-.446-1-1-1zm1 1h12c.554 0 1 .446 1 1v5c0 .554-.446 1-1 1h-1-.5l-3.5 2.65625v-2.65625h-1-6c-.554 0-1-.446-1-1v-5c0-.554.446-1 1-1z"/><path d="m122.92673 593.682v2h1v-1h1v1h1v-1h1v1h1v-1h1v1h1v-1h1v1h1v-1h1v1h1v-1h1v1h1v-1h1v1h1v-2z"/><path d="m128.92673 581.68201h1v4.999998h-1z"/><path d="m130.92673 585.68201h1v1h-1z"/><path d="m132.92673 581.682v5h3v-5zm1 1h1v3h-1z"/></g></svg>