<svg height="16" width="16" xmlns="http://www.w3.org/2000/svg"><path d="m4.6224934 1.6443007c-2.2248311 1.0642504-3.80322483 3.3360144-3.6055454 5.9592308.2128868 2.8250185 2.6404832 5.2485515 5.5847918 4.9873205 2.3297639-.206706 4.3287012-2.232387 4.0711912-4.6777511-.198818-1.8880095-1.8630721-3.5070762-3.8637139-3.254092-1.4993886.1896002-2.7889431 1.5379099-2.5404092 3.1485271.1796008 1.1638983 1.2549732 2.1692157 2.5303811 1.9234084.4405636-.084909.8283393-.3246524 1.1014071-.6748485.2730679-.350196.4239884-.844018.3000153-1.3418062a.58301461.58299843 89.970078 1 0 -1.1295985.2816965c.031426.1261846.0026407.2274128-.0887674.3446392-.0914082.1172264-.2535772.2172957-.4023343.2459655-.5470113.1054245-1.0712657-.3867074-1.1594144-.957953-.1378615-.893408.6334248-1.700161 1.5331581-1.8139336 1.2920702-.1633844 2.4242798.9388673 2.5593649 2.2216569.1836042 1.7435461-1.2941105 3.2407918-3.0142021 3.3934048-2.2479488.199447-4.1532937-1.7022425-4.3199595-3.9139076-.2114306-2.8056944 2.1592433-5.1597239 4.9164339-5.3371978 3.4166329-.2199208 6.2656299 2.6670936 6.4507959 6.0239653.120076 2.1768661-.841545 4.3341571-2.489168 5.7690551a.58301461.58299843 89.970078 1 0 .765364.879098c1.913232-1.666216 3.030213-4.153617 2.889118-6.711538-.21931-3.9758557-3.584824-7.38957405-7.6896607-7.1253553-.8433938.0542868-1.6576375.2756648-2.3992479.630415z" fill="#bebebe" fill-rule="evenodd"/></svg>