<svg height="16" width="16" xmlns="http://www.w3.org/2000/svg"><path d="m12 0v2.2636719c-1.134986-.7937168-2.5128729-1.2636719-4-1.2636719-3.8600709 0-7 3.1399291-7 7 0 3.860071 3.1399291 7 7 7 3.860071 0 7-3.139929 7-7 0-1.487127-.469955-2.8650143-1.263672-4h2.263672v-4zm-4 2c1.4792564 0 2.828267.5360594 3.873047 1.4199219l-1.580078 1.5800781h-3.292969v4h4v-3.2929688l1.580078-1.5800781c.883863 1.0447799 1.419922 2.3937906 1.419922 3.8730469 0 3.319631-2.680369 6-6 6-3.3196308 0-6-2.680369-6-6 0-3.3196308 2.6803692-6 6-6z" fill="#bebebe"/></svg>