<svg height="16" width="16" xmlns="http://www.w3.org/2000/svg"><path d="m10.341797 0-1.2988282 4.2734375-1.9472657 2.6835937c-.06195.085144-.0954431.187672-.0957031.2929688v6.25c.000028.276131.223869.499972.5.5h.8710938c.180346.000099.3467738-.09692.4355468-.253906.90076-1.586302 3.0815714-3.651263 4.2988284-4.3046878.163841-.08788.2654-.2594001.263672-.4453124l-.019532-3.1191407c.304726-.020263.607648.0269239.900391-.2089843.463036-.373142.662593-.8649438.65625-1.8574219.365725-.6205648.728816-1.2437225 1.09375-1.8652344v-1.9453125zm-10.341797.00195313v.33398437c5.332517 1.4581103-1.443653 10.4263935 3 13.9980465 2.76831 2.22506 7.098071 1.899976 8.998047 0 .666565-.666564 2.00031-1.333225 3.8125-.625v-.146484c-1.145625-1.895509-3.146636-1.561645-4.146485-.228516-1.264738 1.686276-4.9983524 3.665557-6.9980464.666016-2.666259-3.999388 7.6654314-13.99804687-4.6660156-13.99804687zm9.3515625 6.99804687h1.4999995v1.5h-.46289l-2.2871095 4.199219 1.25-4.199219z" fill="#bebebe" stroke-width=".666565pt"/></svg>