<svg height="16" width="16" xmlns="http://www.w3.org/2000/svg"><g fill="#bebebe" transform="translate(379 -487)"><path d="m-375.8125 487c-1.2016 0-2.1875.98758-2.1875 2.1875v7.625c0 1.19992.9859 2.1875 2.1875 2.1875h6.625c1.2016 0 2.1875-.98758 2.1875-2.1875v-7.625c0-1.19992-.9859-2.1875-2.1875-2.1875zm0 2h6.625c.1238 0 .1875.0566.1875.1875v7.625c0 .1309-.0637.1875-.1875.1875h-6.625c-.1238 0-.1875-.0566-.1875-.1875v-7.625c0-.1309.0637-.1875.1875-.1875z"/><path d="m-372.65605 490c-1.16094.0659-2.13781.92958-2.3125 2.125-.19965 1.3662.72755 2.6441 2.09375 2.84375l.28125-1.78125c-.34213-.0475-.625-.3323-.625-.6875 0-.38832.33042-.6875.71875-.6875s.71875.29918.71875.6875c0 .0537-.0199.10602-.0312.15625l1.75.40625c.0141-.0625.022-.12411.0312-.1875.19965-1.3662-.72755-2.6441-2.09375-2.84375-.17077-.025-.3654-.0407-.53125-.0312z"/><path d="m-372.08623 493.01071.83646 2.40965c.45867 1.23852 1.87401.23152.93488-.60242z"/><path d="m-365.9998 491v2.1875 6.8125.8125c0 .1309-.0637.1875-.1875.1875h-6.625c-.1238 0-.1875-.0566-.1875-.1875v-.8125h-2v.8125c0 1.19992.9859 2.1875 2.1875 2.1875h6.625c1.2016 0 2.1875-.98758 2.1875-2.1875v-7.625c0-1.13596-.88628-2.08992-2-2.1875z"/></g></svg>