<svg height="16" width="16" xmlns="http://www.w3.org/2000/svg"><g fill="#bebebe"><path d="m2.40625 9v2h6.5c.84027 0 1.5.65973 1.5 1.5s-.65973 1.5-1.5 1.5h-.5v2h.5c1.92115 0 3.5-1.57885 3.5-3.5 0-.574906-.154658-1.111335-.404297-1.591797-.326634.055672-.660156.091797-1.001953.091797-1.7634816 0-3.350576-.777281-4.4511719-2z"/><path d="m5.40625 6.0221v1c0 .25689-.12983.52846-.3125.71875l-2.28125 2.28125 2.28125 2.28125c.18267.19029.3125.46186.3125.71875v1h-1c-.30945 0-.55232-.0903-.75-.28125l-3.65625-3.71875 3.65625-3.71875c.19768-.19095.44055-.28125.75-.28125z"/><path d="m11 0c-2.7555014 0-5 2.2444986-5 5s2.2444986 5 5 5c2.755501 0 5-2.2444986 5-5s-2.244499-5-5-5zm0 1c2.215061 0 4 1.7849387 4 4s-1.784939 4-4 4c-2.2150613 0-4-1.7849387-4-4s1.7849387-4 4-4z"/><path d="m13.460938 2.1523438a.3750375.3750375 0 0 0 -.257813.1132812l-2.203125 2.203125-1.4003906-1.4003906a.37565048.37565048 0 1 0 -.53125.53125l1.6660156 1.6660156a.3750375.3750375 0 0 0 .53125 0l2.46875-2.46875a.3750375.3750375 0 0 0 -.273437-.6445312z" fill-rule="evenodd"/></g></svg>