<svg height="16" width="16.0002" xmlns="http://www.w3.org/2000/svg"><g fill="#bebebe" transform="translate(-181.0002 -767)"><path d="m186.5002 767c-3.02528 0-5.5 2.4784-5.5 5.5 0 1.99861 1.08914 3.75057 2.70067 4.70973l1.36183-1.52223c-1.22112-.54149-2.0625-1.75673-2.0625-3.1875 0-1.94138 1.55626-3.5 3.5-3.5 1.3972 0 2.59519.79765 3.15625 1.96875l1.46875-1.46875c-.98492-1.50354-2.7028-2.5-4.625-2.5zm4.90625 8.96875-1.40625 1.40625 3.28125 3.3125c.36811.37651 1.04567.38405 1.42208.0158.3764-.36822.38375-1.04578.0154-1.42208z"/><path d="m184.00201 778 8.99819-9c1 0 2 1 2 2l-9 9h-2z" fill-rule="evenodd"/><path d="m194.0002 768c1 0 2 1 2 2l1-1c0-1-.75185-2-2-2z"/></g></svg>