<svg height="16" width="16" xmlns="http://www.w3.org/2000/svg"><path d="m473.85251 401.00116c-.3734.0114-.73861.1155-1.08956.27212-.7019.31324-1.39081.81651-2.18177 1.24582-1.4287.77541-3.15578 1.3476-5.85174.18176.19085-.61616-.41193-1.32442-1.25537-1.14643-.91902.19394-.65148-.39244-1.76137-.40552.73984.49322.69892 1.61993 1.37444 2.01807.54733.32259.99706.34014 1.34467-.005 2.88813 1.26141 4.89629.65693 6.40927-.16423.82942-.45017 1.52228-.94998 2.1435-1.22722.62122-.27722 1.12756-.35218 1.74276-.01.41425.23071.58593.46231.6532.67234.0673.21003.035.42647-.0542.64257-.10898.26391-.29274.49005-.42519.63513-.36929-.24669-.80838-.45554-1.34361-.61334l-1.43131 1.73267a6.3268801 6.3268801 0 0 0 -2.41988-.48366 6.3268801 6.3268801 0 0 0 -6.32688 6.32688 6.3268801 6.3268801 0 0 0 6.32688 6.32688 6.3268801 6.3268801 0 0 0 6.32688-6.32688 6.3268801 6.3268801 0 0 0 -1.15972-3.63753l1.41377-1.82196c-.25526-.42224-.55893-.81846-.95349-1.16609.15814-.17606.35997-.43647.49534-.76429.12172-.29472.18608-.65267.0696-1.01621-.11645-.36353-.40912-.70452-.90672-.98166-.38466-.21423-.76612-.29571-1.13952-.28435z" fill="#bebebe" transform="translate(-461.0002 -401)"/></svg>