<svg height="16.00297" width="16" xmlns="http://www.w3.org/2000/svg"><g fill="#bebebe"><path d="m5.03125 5.03125v.96875h1v-.96875zm1 .96875v1h1v-1zm1 0h1v-.96875h-1zm1 0v1h1v-1zm1 0h1v-.96875h-1zm1 0v1h.976562l-.003906-1zm0 1h-1v1h1zm0 1v1h.986328l-.003906-1zm0 1h-1v1h1zm0 1v1h-1v1l1.990234-1.986328v-.013672zm-1 1v-1h-1v1zm-1 0h-1v1h1zm-1 0v-1h-1v1zm-1 0h-1v1h1zm-1 0v-1h-1v1zm0-1h1v-1h-1zm0-1v-1h-1v1zm0-1h1v-1h-1zm0-1v-1h-1v1zm1 1v1h1v-1zm1 0h1v-1h-1zm1 0v1h1v-1zm0 1h-1v1h1z"/><rect height="4" rx=".53033" width="5.062505" x="4.999992"/><path d="m2.5 1c-.293087 0-.646731.036-1 .3125-.353269.27647-.53125.76875-.53125 1.125v12.03125c0 .384.127689.81517.4375 1.125.285418.28544.709136.38602 1.09375.375v.0313h.09375 9.875c.362847 0 .759922-.12788 1.0625-.40625.302578-.27842.46875-.71075.46875-1.12505v-12.09375c0-.33333-.118934-.72959-.40625-1s-.668899-.375-.96875-.375h-1.65625v2h1.03125v11h-9.03125v-11h.96875v-2z"/></g></svg>