<svg height="16" width="16" xmlns="http://www.w3.org/2000/svg"><g fill="#bebebe"><path d="m0 0v10h3v-7h7v-3z"/><path d="m4 4v12h12v-12zm5.2304688 1h1.5390622c1.265154 0 2.306641 1.0434398 2.306641 2.3085938v2.3066406h.769531c.426154 0 .769531.3433778.769531.7695316v.408203 4.207031h-3.845703-1.5390622-3.8457032v-4.207031-.408203c0-.4261538.3433774-.7695316.7695313-.7695316h.7695312 1.5371094 1.5 1.5781245v-2.3066406c.000002-.4394611-.330069-.7695313-.769531-.7695313h-1.5390622c-.0507273 0-.0931596.0188944-.140625.0273437l-1.1582032-1.1582031c.3715065-.2561591.8180028-.4082031 1.2988282-.4082031z"/></g></svg>