<svg height="16" width="16" xmlns="http://www.w3.org/2000/svg"><g fill="#bebebe"><path d="m0 0v1h2v-1z"/><path d="m3 0v1h2v-1z"/><path d="m6 0v1h2v-1z"/><path d="m2 9v1h2v-1z"/><path d="m5 9v1h2v-1z"/><path d="m8 9v1h1v-1z"/><path d="m0 2v2h1v-2z"/><path d="m0 5v2h1v-2z"/><path d="m0 8v2h1v-2z"/><path d="m9 6v2h1v-2z"/><path d="m9 3v2h1v-2z"/><path d="m9 0v2h1v-2z"/><path d="m9.94638 8.9444868h.756704c.0078-.0000908.01573-.0003482.02364 0 .192922.00848.38582.097327.520233.2365432l1.726229 1.726768 1.749876-1.726768c.201-.174474.337998-.2312446.520234-.2365432h.756704v.7569392c0 .21684-.02598.416809-.189175.567704l-1.72623 1.726768 1.702583 1.703113c.142402.142433.212816.343234.212822.54405v.756939h-.756702c-.200755-.000008-.401497-.07047-.543881-.212889l-1.726229-1.726768-1.726229 1.726768c-.142385.142448-.343135.212889-.54388.212889h-.756704v-.756939c-.000002-.200808.07042-.401617.212824-.54405l1.726229-1.703113-1.726229-1.726768c-.159464-.147323-.229398-.355193-.212819-.567704z" stroke-width=".756821"/></g></svg>