<svg height="16" width="16" xmlns="http://www.w3.org/2000/svg"><g fill="#bebebe" transform="translate(-41.0002 -887)"><path d="m43.000002 892v1c0 .25689.12983.52846.3125.71875l1.28125 1.28125-1.28125 1.28125c-.18267.19029-.3125.46186-.3125.71875v1h1c.30945 0 .55232-.0903.75-.28125l2.65625-2.71875-2.65625-2.71875c-.19768-.19095-.44055-.28125-.75-.28125z"/><path d="m55.000202 892v1c0 .25689-.12983.52846-.3125.71875l-1.28125 1.28125 1.28125 1.28125c.18267.19029.3125.46186.3125.71875v1h-1c-.30945 0-.55232-.0903-.75-.28125l-2.65625-2.71875 2.65625-2.71875c.19768-.19095.44055-.28125.75-.28125z"/></g></svg>