<svg height="16" width="16" xmlns="http://www.w3.org/2000/svg"><path d="m126 540-6 6 6 6h9.0353c.53033-.0221.9647-.49177.9647-1v-10c0-.53079-.34561-1-1.0089-1zm1 3h1c.0104-.00012.0208-.00046.0313 0 .25495.0112.50987.12858.6875.3125l1.2812 1.28125 1.3125-1.28125c.26562-.2305.44667-.3055.6875-.3125h1v1c0 .28647-.0343.55065-.25.75l-1.28125 1.28125 1.25 1.25c.18819.18817.28124.45345.28125.71875v1h-1c-.2653-.00001-.53059-.0931-.71875-.28125l-1.28125-1.28125-1.28125 1.28125c-.18816.18819-.45346.28125-.71875.28125h-1v-1c0-.26529.0931-.53058.28125-.71875l1.28125-1.25-1.28125-1.28125c-.21074-.19463-.30316-.46925-.28125-.75z" fill="#bebebe" transform="translate(-120 -538)"/></svg>