<svg height="16" width="16" xmlns="http://www.w3.org/2000/svg"><g fill="#bebebe"><path d="m0 0v4 8 4h12 4v-4-8-4h-4-8zm4 4h8v8h-8z" opacity=".35"/><path d="m0 0v1h.5 1 .5v-1h-.5-1z"/><path d="m3 0v1h.5 1 .5v-1h-.5-1z"/><path d="m6 0v1h.5 1 .5v-1h-.5-1z"/><path d="m9 0v1h.5 1 .5v-1h-.5-1z"/><path d="m12 0v1h.5 1 .5v-1h-.5-1z"/><path d="m2 15v1h.5 1 .5v-1h-.5-1z"/><path d="m5 15v1h.5 1 .5v-1h-.5-1z"/><path d="m8 15v1h.5 1 .5v-1h-.5-1z"/><path d="m11 15v1h.5 1 .5v-1h-.5-1z"/><path d="m14 15v1h.5 1 .5v-1h-.5-1z"/><path d="m0 2v.5 1 .5h1v-.5-1-.5z"/><path d="m0 5v.5 1 .5h1v-.5-1-.5z"/><path d="m0 8v.5 1 .5h1v-.5-1-.5z"/><path d="m0 11v.5 1 .5h1v-.5-1-.5z"/><path d="m0 14v.5 1 .5h1v-.5-1-.5z"/><path d="m15 12v.5 1 .5h1v-.5-1-.5z"/><path d="m15 9v.5 1 .5h1v-.5-1-.5z"/><path d="m15 6v.5 1 .5h1v-.5-1-.5z"/><path d="m15 3v.5 1 .5h1v-.5-1-.5z"/><path d="m15 0v.5 1 .5h1v-.5-1-.5z"/><path d="m5 12v1h.5 1 .5v-1h-.5-1z"/><path d="m8 12v1h.5 1 .5v-1h-.5-1z"/><path d="m3 8v.5 1 .5h1v-.5-1-.5z"/><path d="m3 11v.5 1 .5h1v-.5-1-.5z"/><path d="m3 3v1h.5 1 .5v-1h-.5-1z"/><path d="m3 5v.5 1 .5h1v-.5-1-.5z"/><path d="m6 3v1h.5 1 .5v-1h-.5-1z"/><path d="m11 12v1h.5 1 .5v-1h-.5-1z"/><path d="m12 9v.5 1 .5h1v-.5-1-.5z"/><path d="m12 6v.5 1 .5h1v-.5-1-.5z"/><path d="m12 3v.5 1 .5h1v-.5-1-.5z"/><path d="m9 3v1h.5 1 .5v-1h-.5-1z"/></g></svg>