<svg height="16" width="16" xmlns="http://www.w3.org/2000/svg"><g fill="#bebebe"><path d="m0 0v10h3v-7h7v-3z"/><path d="m4 4v12h12v-12zm5.2304688 1h1.5390622c1.265185 0 2.308594 1.0434387 2.308594 2.3085938v2.3066406h.769531c.426163 0 .767578.3433773.767578.7695316v.408203 4.207031h-3.845703-1.5390622-3.8457032v-4.207031-.408203c0-.4261543.3433677-.7695316.7695313-.7695316h.7695312v-2.3066406c0-1.2651551 1.041455-2.3085938 2.3066407-2.3085938zm0 1.5390625c-.439473 0-.7675782.3300693-.7675782.7695313v2.3066406h3.0761714v-2.3066406c0-.439462-.330058-.7695313-.769531-.7695313z"/></g></svg>