<svg height="16.00297" width="16" xmlns="http://www.w3.org/2000/svg"><g fill="#bebebe"><path d="m4.03125 5.03125v6.96875h5l1.990234-1.986328-.021484-4.982422zm3.96875.9980469v2.9746093l1.5-.00195-2 2.0019529-2-1.9999998h1.5v-2.9511749z"/><rect height="4" rx=".53033" width="5.062505" x="4.999992"/><path d="m2.5 1c-.293087 0-.646731.036-1 .3125-.353269.27647-.53125.76875-.53125 1.125v12.03125c0 .384.127689.81517.4375 1.125.285418.28544.709136.38602 1.09375.375v.0313h.09375 9.875c.362847 0 .759922-.12788 1.0625-.40625.302578-.27842.46875-.71075.46875-1.12505v-12.09375c0-.33333-.118934-.72959-.40625-1s-.668899-.375-.96875-.375h-1.65625v2h1.03125v11h-9.03125v-11h.96875v-2z"/></g></svg>