<svg height="16.000004" width="16" xmlns="http://www.w3.org/2000/svg"><g fill="#bebebe" transform="translate(-40 -668)"><path d="m43.5 676.98684c-1.904524 0-3.492268 1.57485-3.492268 3.51316s1.587744 3.51316 3.492268 3.51316 3.492268-1.57485 3.492268-3.51316-1.587744-3.51316-3.492268-3.51316zm0 2.02632c.8569 0 1.507732.66373 1.507732 1.48684 0 .82312-.650832 1.48684-1.507732 1.48684s-1.507732-.66372-1.507732-1.48684c0-.82311.650832-1.48684 1.507732-1.48684z"/><path d="m52.499999 676.98685c-1.904524 0-3.492268 1.57485-3.492268 3.51315 0 1.93831 1.587744 3.51316 3.492268 3.51316 1.904525 0 3.492269-1.57485 3.492269-3.51316 0-1.9383-1.587744-3.51315-3.492269-3.51315zm0 2.02631c.8569 0 1.507733.66373 1.507733 1.48684 0 .82312-.650833 1.48685-1.507733 1.48685s-1.507732-.66373-1.507732-1.48685c0-.82311.650832-1.48684 1.507732-1.48684z"/><path d="m43.096112 668c-1.060411.554-1.406518 1.7592-.794292 2.71875l4.420406 7.28125-1.746288 2.36796 1.414082 2.08517 1.60998-2.48438 1.57873 2.48438 1.401138-1.99679-1.702094-2.45634 4.420406-7.28125c.612226-.95955.266119-2.16475-.794292-2.71875l-4.903888 8z"/></g></svg>