<svg height="16.00297" width="16" xmlns="http://www.w3.org/2000/svg"><g fill="#bebebe" transform="translate(-60 -668)"><path d="m64.031245 673.03127v6.96874h5.000005l1.990842-1.98705-.0221-4.98168h-6.96875z"/><rect height="4" rx=".53033" width="5.062505" x="64.999992" y="668"/><path d="m62.5 669c-.293087 0-.646731.036-1 .3125-.353269.27647-.53125.76875-.53125 1.125v12.03125c0 .384.127689.81517.4375 1.125.285418.28544.709136.38602 1.09375.375v.0313h.09375 9.875c.362847 0 .759922-.12788 1.0625-.40625.302578-.27842.46875-.71075.46875-1.12505v-12.09375c0-.33333-.118934-.72959-.40625-1s-.668899-.375-.96875-.375h-1.65625v2h1.03125v11h-9.03125v-11h.96875v-2z"/></g></svg>