<svg height="16" width="16" xmlns="http://www.w3.org/2000/svg"><g fill="#bebebe"><path d="m3.4414062 8.0859375c-1.1093799.36328-2.4360299 1.2877537-2.4375 2.9023435l-.0039062 3.011719c-.00072.554.446 1 1 1h8c.129444 0 .251894-.027878.365234-.072266-1.6463379-.381295-2.8906246-1.861521-2.8906246-3.617187 0-1.251226.6334229-2.3617604 1.5917968-3.0371095-.1656342-.0725905-.3359012-.1338087-.5117187-.1796875-.70541.62353-1.5391775.90625-2.5546875.90625s-1.8531837-.2905325-2.5585938-.9140625zm7.5214848 2.5468745c-.293405.088769-.488282.339076-.488282.677735 0 .352063.212073.605366.525391.683594v-.994141c0-.125351-.019732-.245837-.037109-.367188z"/><path d="m9 4.99997a3 3 0 1 1 -6 0 3 3 0 1 1 6 0z" stroke-width="1.2"/><path d="m11.19291 8.59148c-1.4956 0-2.71875 1.22315-2.71875 2.71875s1.22315 2.71875 2.71875 2.71875c.4871 0 .94729-.14835 1.34375-.375a.750075.750075 0 0 0 .15625.21875l1.84375 1.8125a.75130096.75130096 0 1 0 1.0625-1.0625l-1.84375-1.8125a.750075.750075 0 0 0 -.21875-.15625c.22665-.39646.375-.85664.375-1.34375 0-1.4956-1.22315-2.71875-2.71875-2.71875zm0 1c.95516 0 1.71875.76359 1.71875 1.71875s-.76359 1.71875-1.71875 1.71875-1.71875-.76359-1.71875-1.71875.76359-1.71875 1.71875-1.71875z"/></g></svg>