<svg height="16" width="16" xmlns="http://www.w3.org/2000/svg"><g fill="#bebebe" transform="translate(-201.0002 -767)"><path d="m211.875 767.0625a1.0001 1.0001 0 0 0 -.6875.5l-3.3125 5.625a1.0077822 1.0077822 0 1 0 1.75 1l3.3125-5.625a1.0001 1.0001 0 0 0 -1.0625-1.5z"/><path d="m206.53145 771.71875 4.94742 3.05384c.60355.31472.68739.89216.20883 1.50866l-.625.8125-6.59375-3.875.55118-1.06136c.28883-.58524.75466-.81586 1.51132-.43864z"/><path d="m204.55512 774.57767s-2.85468 3.03618-1.33265 4.69914c1.6875 1.84375 4.75797 1.76738 5.86282 1.72319h4.00866c-1.875-.375-3.83708-1.81564-2.90273-3.24464z"/></g></svg>