<svg height="16" width="16" xmlns="http://www.w3.org/2000/svg"><g fill="#bebebe"><path d="m13.59375 9v2h-6.5c-.84027 0-1.5.65973-1.5 1.5s.65973 1.5 1.5 1.5h.5v2h-.5c-1.92115 0-3.5-1.57885-3.5-3.5 0-.574906.154658-1.111335.404297-1.591797.326634.055672.660156.091797 1.001953.091797 1.7634816 0 3.350576-.777281 4.4511719-2z"/><path d="m10.59375 6.0221v1c0 .25689.12983.52846.3125.71875l2.28125 2.28125-2.28125 2.28125c-.18267.19029-.3125.46186-.3125.71875v1h1c.30945 0 .55232-.0903.75-.28125l3.65625-3.71875-3.65625-3.71875c-.19768-.19095-.44055-.28125-.75-.28125z"/><g transform="matrix(-1 0 0 1 10 0)"><path d="m5 0c2.7555014 0 5 2.2444986 5 5s-2.2444986 5-5 5c-2.755501 0-5-2.2444986-5-5s2.244499-5 5-5zm0 1c-2.215061 0-4 1.7849387-4 4s1.784939 4 4 4c2.2150613 0 4-1.7849387 4-4s-1.7849387-4-4-4z"/><path d="m2.539062 2.1523438a.3750375.3750375 0 0 1 .257813.1132812l2.203125 2.203125 1.4003906-1.4003906a.37565048.37565048 0 1 1 .53125.53125l-1.6660156 1.6660156a.3750375.3750375 0 0 1 -.53125 0l-2.46875-2.46875a.3750375.3750375 0 0 1 .273437-.6445312z" fill-rule="evenodd"/></g></g></svg>