<svg height="15.999995" width="16" xmlns="http://www.w3.org/2000/svg"><path d="m243.93296 648.00074c-.50766.0395-.94152.51729-.93263 1.02692v12.94533c-.008.5398.48663 1.03477 1.02589 1.02691h9.948c.53926.008 1.03373-.48711 1.02589-1.02691v-9.95795c-.004-.26704-.1184-.53079-.31088-.71573l-2.9844-2.98738c-.18475-.19267-.44824-.30734-.71501-.31119h-6.9636c-.0311-.00099-.0622-.00099-.0933 0zm1.08806 2.05393h5.9688v1.99159h-5.9688zm0 3.98318h7.9584v1.99159h-7.9584zm0 3.98317h7.9584v1.99159h-7.9584z" fill="#bebebe" transform="translate(-241.0002 -647)"/></svg>