<svg height="16" width="16" xmlns="http://www.w3.org/2000/svg"><g fill="#bebebe" transform="translate(-141.00015 -667)"><path d="m146.5 673c-1.92115 0-3.5 1.57885-3.5 3.5s1.57885 3.5 3.5 3.5h.5v-2h-.5c-.84027 0-1.5-.65973-1.5-1.5s.65973-1.5 1.5-1.5h6.5v-2z"/><path d="m150.0002 670v1c0 .25689.12983.52846.3125.71875l2.28125 2.28125-2.28125 2.28125c-.18267.19029-.3125.46186-.3125.71875v1h1c.30945 0 .55232-.0903.75-.28125l3.65625-3.71875-3.65625-3.71875c-.19768-.19095-.44055-.28125-.75-.28125z"/></g></svg>