<svg height="16" width="16" xmlns="http://www.w3.org/2000/svg"><g fill="#bebebe" transform="translate(-121.00015 -667)"><path d="m125 673v2h6.5c.84027 0 1.5.65973 1.5 1.5s-.65973 1.5-1.5 1.5h-.5v2h.5c1.92115 0 3.5-1.57885 3.5-3.5s-1.57885-3.5-3.5-3.5z"/><path d="m128 670.0221v1c0 .25689-.12983.52846-.3125.71875l-2.28125 2.28125 2.28125 2.28125c.18267.19029.3125.46186.3125.71875v1h-1c-.30945 0-.55232-.0903-.75-.28125l-3.65625-3.71875 3.65625-3.71875c.19768-.19095.44055-.28125.75-.28125z"/></g></svg>