<svg height="16" width="16" xmlns="http://www.w3.org/2000/svg"><g fill="#bebebe"><path d="m0 0v1h.5 1 .5v-1h-.5-1z"/><path d="m3 0v1h.5 1 .5v-1h-.5-1z"/><path d="m6 0v1h.5 1 .5v-1h-.5-1z"/><path d="m9 0v1h.5 1 .5v-1h-.5-1z"/><path d="m12 0v1h.5 1 .5v-1h-.5-1z"/><path d="m2 15v1h.5 1 .5v-1h-.5-1z"/><path d="m5 15v1h.5 1 .5v-1h-.5-1z"/><path d="m8 15v1h.5 1 .5v-1h-.5-1z"/><path d="m11 15v1h.5 1 .5v-1h-.5-1z"/><path d="m14 15v1h.5 1 .5v-1h-.5-1z"/><path d="m0 2v.5 1 .5h1v-.5-1-.5z"/><path d="m0 5v.5 1 .5h1v-.5-1-.5z"/><path d="m0 8v.5 1 .5h1v-.5-1-.5z"/><path d="m0 11v.5 1 .5h1v-.5-1-.5z"/><path d="m0 14v.5 1 .5h1v-.5-1-.5z"/><path d="m15 12v.5 1 .5h1v-.5-1-.5z"/><path d="m15 9v.5 1 .5h1v-.5-1-.5z"/><path d="m15 6v.5 1 .5h1v-.5-1-.5z"/><path d="m15 3v.5 1 .5h1v-.5-1-.5z"/><path d="m15 0v.5 1 .5h1v-.5-1-.5z"/><g stroke-width=".833323"><path d="m1.3339844 9 4.1679687 5h9.1640629l-2.083985-2.5h-7.5468748l-2.0839843-2.5zm4.2207031 0 .4160156.5h4.9433589l-.416015-.5z"/><path d="m1.3339844 5.5 4.1679687 5h9.1640629l-2.083985-2.5h-7.5488279l-2.0839843-2.5zm4.2207031 0 .4160156.5h4.9433589l-.416015-.5z"/><path d="m1.333 2h9.164062l4.168938 5h-9.1640611z"/></g></g></svg>