<svg height="16" width="16" xmlns="http://www.w3.org/2000/svg"><g fill="#bebebe"><path d="m3 0h6v6h-6z" stroke-width=".666667"/><path d="m10 7h6v6h-6z" stroke-width=".666667"/><path d="m10 2.0051766v.6658039h1.997412a.6658039.6658039 0 0 1 .665804.6658039v.6658039h-1.331608l1.66451 1.9974117 1.664509-1.9974117h-1.331607v-.6658039a1.3316078 1.3316078 0 0 0 -1.331608-1.3316078z" stroke-width=".665804"/><path d="m9 10.995v-.665833h-1.9975714a.66585714.66583332 0 0 1 -.6658572-.6658337v-.6658334h1.3317143l-1.6646429-1.9974999-1.6646428 1.9974999h1.3317143v.6658334a1.3317143 1.3316666 0 0 0 1.3317143 1.3316667z" stroke-width=".665845"/><g fill-rule="evenodd"><path d="m1.6825657 10-1.6825657 1.578947h1.2631579v4.421053h.8412828v-4.421053h1.2631579z"/><path d="m3.7894737 10v4.421053h-1.2631579l1.6825657 1.578947 1.685033-1.578947h-1.263158v-4.421053z"/></g></g></svg>