<svg height="16" width="16" xmlns="http://www.w3.org/2000/svg"><g fill="#bebebe"><path d="m3.4912472 15.958374-.7316861.041626.0207391-.671389.5852419-.02081zm-1.2341056-.734634-.271815.608479-.6473921-.335358.376313-.566518zm2.1957941-.377321.4390652.524489-.6887362.397597-.2508752-.629427zm-3.1780879-.293531-.50175055.440565-.43879758-.58733.58544253-.335895zm4.5997145-.608681v1.909295l-1.9024373-1.909295zm-5.20562847-1.007217.06288606.607943-.6481279.104938-.08369199-.733694zm5.33106617.461043-.6690007-.06311.0207391-.607741.6481948-.06311zm-.147314-1.448186-.6481279.188861-.2503401-.481385.522891-.419483zm-1.4833754-1.656316.6057803.419282-.4181256.503542-.5012152-.314344zm-4.1812545-.146833 1.9025043 1.909229h-1.9025043zm2.1742524.608614-.5646366.251771-.3136276-.587465.6690008-.293665zm1.3164597-.713149-.1463774.671389-.5850411-.06311-.0628861-.650442z" stroke-width=".670194"/><path d="m3 0h6v6h-6z" stroke-width=".666667"/><path d="m10 7h6v6h-6z" stroke-width=".666667"/><path d="m10 2.0051766v.6658039h1.997412a.6658039.6658039 0 0 1 .665804.6658039v.6658039h-1.331608l1.66451 1.9974117 1.664509-1.9974117h-1.331607v-.6658039a1.3316078 1.3316078 0 0 0 -1.331608-1.3316078z" stroke-width=".665804"/><path d="m9 10.995v-.665833h-1.9975714a.66585714.66583332 0 0 1 -.6658572-.6658337v-.6658334h1.3317143l-1.6646429-1.9974999-1.6646428 1.9974999h1.3317143v.6658334a1.3317143 1.3316666 0 0 0 1.3317143 1.3316667z" stroke-width=".665845"/></g></svg>