<svg height="16" width="16" xmlns="http://www.w3.org/2000/svg"><g fill="#bebebe" fill-rule="evenodd" transform="translate(-360.00021 -786)"><path d="m367.90797 786.00004c-.11109.002-.21573.0526-.28602.13859l-3.0902 3.77427c-.22231.27176.0144.67323.35974.61037l1.48907-.27275v4.52471h3.0902v-4.48784l1.50528.30517c.34769.0703.59166-.33426.36712-.60889l-3.13738-3.84504c-.0729-.0892-.18258-.14028-.29781-.13859z"/><path d="m374.88759 790.04241a.78035873.78035873 0 0 0 -.66482.43626l-1.85356 3.66327a.78035873.78035873 0 0 0 -.0838.35242v5.94546h-8.4829v-5.94546a.78035873.78035873 0 0 0 -.0913-.36765l-1.94118-3.62138a.78035873.78035873 0 1 0 -1.37541.73722l1.84785 3.44802v6.52838a.78035873.78035873 0 0 0 .78102.78105h10.04308a.78035873.78035873 0 0 0 .77915-.78105v-6.53791l1.76971-3.49754a.78035873.78035873 0 0 0 -.72771-1.14109z"/></g></svg>