<svg height="16.000637" width="16" xmlns="http://www.w3.org/2000/svg"><g fill="#bebebe" transform="matrix(1 0 0 1.0000254 0 .001281)"><path d="m8.0351562 5.0175781a2.9831696 2.9831696 0 0 0 -2.984375 2.9824219 2.9831696 2.9831696 0 0 0 2.984375 2.984375 2.9831696 2.9831696 0 0 0 2.9824218-2.984375 2.9831696 2.9831696 0 0 0 -2.9824218-2.9824219zm0 1.625a1.3582944 1.3582944 0 0 1 1.3574219 1.3574219 1.3582944 1.3582944 0 0 1 -1.3574219 1.359375 1.3582944 1.3582944 0 0 1 -1.359375-1.359375 1.3582944 1.3582944 0 0 1 1.359375-1.3574219z"/><path d="m6.7050781 0c-.31595.0265-.52774.336675-.4375.640625l.4257813 1.5429688c-.42482.1096299-.8388213.2626612-1.2382813.4570312l-1.0214843-1.765625c-.0919-.16463-.2686313-.26355936-.4570313-.25585938-.38079.01380001-.6068262.43144248-.4101563.75781248l1.0175782 1.7578125c-.3383.21721-.6663625.451085-.9765625.703125l-1.2539063-1.2539062c-.0945-.0967-.224175-.1509007-.359375-.1503906-.44709.002-.6671962.5447118-.3476562.8574218l1.2207031 1.2207032c-.2121424.200739-.4051348.3983106-.5976563.5976562l-.00195-.00195c-.06317.06534-.1321594.1305656-.1933593.1972656l-.7207063-.7207062c-.0463711-.0474803-.1022098-.0857807-.1621094-.1113282h-.00195c-.00976-.00408-.021248-.0024-.03125-.00586-.048183-.016811-.096505-.031602-.1484375-.033203-.0035-.0000961-.00629.00198-.00977.00195-.002077-.000018-.003779-.00196-.005859-.00195-.00389.0000173-.00591.00381-.009766.00391-.10639596.0023-.19952007.033947-.27539062.087891h-.001953c-.019437.013875-.0259435.038329-.0429687.054687-.0512968.049305-.10211786.098799-.12890625.1640625-.0111748.02714-.00531.05726-.0117188.085937-.0144528.064498-.0316597.1289323-.0195313.1953125.0173214.094801.0624386.187279.14257813.265625l.76367304.7636693c-.88546985 1.0759-1.4101562 1.9453125-1.4101562 1.9453125s.20771917.3354529.55273438.8222656c.0545492.077394.07599.1053489.13867187.1914063.14029827.192945.29921844.3982136.47851565.625.080337.10175.1525702.192322.2402343.2988281.2032409.246738.427669.500789.6679688.761719.070158.0764.1241751.147879.1972656.224609l.00195-.002c.8811374.922762 1.9693487 1.853015 3.1933593 2.445313.1570581.076.3172934.141058.4785157.205078.074051.02965.147801.05899.2226562.08594.1306436.0465.2615094.08944.3945312.126953.1238273.03549.2492473.06282.375.08984.1100507.02317.2186624.05013.3300782.06641.2401044.035991.4824429.058638.7285188.058638s.4884144-.02265.7285156-.05859c.1114158-.01627.2200275-.04324.3300782-.06641.1257526-.02702.2511727-.05435.375-.08984.1330216-.03751.2638876-.08045.3945312-.126953.074855-.02695.1486061-.05629.222656-.08594.161222-.06402.321458-.129078.478516-.205078 1.22401-.592297 2.312222-1.522551 3.193359-2.445313l.002.002c.07309-.07673.127108-.148206.197266-.224609.2403-.26093.464728-.514981.667969-.761719.08766-.1065061.159897-.1970781.240234-.2988281.179297-.2267863.338217-.432055.478516-.625.06268-.086057.08412-.1140125.138672-.1914063.344968-.4868606.552687-.8223136.552687-.8223136s-.131192-.2165187-.373047-.5683594c-.241856-.35184-.594374-.8390031-1.037109-1.3769531l.763672-.7636719c.32529-.31801.09141-.8699118-.363282-.8574218-.12976.004-.25303.057501-.34375.1503906l-.720703.7207031c-.0612-.0667-.130189-.1319256-.193359-.1972656l-.002.00195c-.192475-.1993425-.385467-.3969141-.59761-.5976531l-.740234-.6738282c-.3102-.25204-.638262-.485915-.976562-.703125l-.871094-.4941406c-.227058-.1104821-.459543-.2037188-.6953126-.2871094-.0284365-.0103595-.0553805-.0253098-.0839844-.0351562l.570313-1.6464844c.118198-.32287-.117168-.665935-.460938-.671875-.21868-.003-.4140919.136-.4824219.34375l-.5976562 1.7207031c-.1586673-.0252095-.3211412-.0285314-.4824219-.0390625-.10446-.0067-.20705-.0253906-.3125-.0253906s-.20804.0186906-.3125.0253906l-.4550781-1.6503906c-.0563-.21805-.2513925-.37157-.4765625-.375-.0169-.00086-.0338813-.00086-.0507813 0zm1.2949219 4c.1967914 0 .386456.017435.5742188.037109.1722673.020456.3421092.046796.5078124.080078 1.5373998.3088876 2.7236848 1.2171712 3.5527348 2.085938.8841.92646 1.365234 1.796875 1.365234 1.796875s-.482613.8729354-1.369141 1.8007812c-.835501.8686908-2.034999 1.7866978-3.5800778 2.0878908-.1577725.030762-.3188421.054849-.4824218.074219-.185946.019286-.3735679.037109-.5683594.037109s-.3824134-.017823-.5683594-.037109c-.1635797-.01937-.3246495-.043457-.4824218-.074219-1.545079-.301193-2.7445768-1.2192-3.5800782-2.0878908-.8865276-.9278458-1.3691406-1.8007812-1.3691406-1.8007812s.4811344-.870415 1.3652344-1.796875c.8355388-.875567 2.0415538-1.7911193 3.5917968-2.0917969.1450642-.0283801.293268-.0517706.4433594-.0703125.196246-.021543.3930778-.0410156.5996094-.0410156z"/><path d="m10.873641 2.7505488 1.160253-1.6776972c.10485-.15670109.288968-.24108909.476137-.21825389.378445.044397.570135.47887049.34784.78835649l-1.155718 1.6702378c-.02209.5871067-1.667292.047824-.828512-.5626432z"/><path d="m12.428209 3.9622156 1.207534-1.2986215c.09093-.1000684.218551-.1589421.35368-.1633428.446869-.014233.686544.5201297.378571.8442384l-1.175573 1.264228c-.932498.6412623-1.021527-.1704918-.764212-.6465021z"/></g></svg>