<svg height="16.007551" width="16.00655" xmlns="http://www.w3.org/2000/svg"><g fill="#bebebe" transform="translate(-180.96716 -806.99245)"><path d="m188.3752 807c-.22882.0437-.41035.2667-.40625.5v.59375c-3.16079.24582-5.67637 2.75322-5.9375 5.90625h-.5c-.031-.003-.0627-.003-.0937 0-.26195.0238-.49328.30019-.46875.5625.0246.26231.3007.46288.5625.4375h.5c.23256 3.18201 2.7559 5.75257 5.9375 6v.5c-.004.26416.23626.53125.5.53125s.50372-.26709.5-.53125v-.5c3.20261-.23774 5.75016-2.82717 5.96875-6.03125h.53125c.26372.004.5-.23582.5-.5s-.23628-.50374-.5-.5h-.53125c-.27588-3.14608-2.80782-5.64035-5.96875-5.875v-.59375c.005-.29617-.30327-.55555-.59375-.5zm.0937 3.0625c2.49225 0 4.5 1.9794 4.5 4.46875s-2.00775 4.5-4.5 4.5c-.0213 0-.0413.00029-.0625 0-2.46253-.0337-4.40625-2.03188-4.40625-4.5.00067-.01 0-.0213 0-.0312.0169-2.47452 1.98714-4.4375 4.46875-4.4375z"/><path d="m-91 478a1 1 0 1 1 -2 0 1 1 0 1 1 2 0z" transform="matrix(3.5030816 0 0 3.50887 510.76439 -862.731)"/></g></svg>