<svg height="16" width="16" xmlns="http://www.w3.org/2000/svg"><path d="m11.863231 4.2355a2.1329598 2.2270617 0 0 0 -2.0552461 1.6392476c-1.0093674.2898897-2.0358618.7415312-3.0129013 1.4886331-.2411798.184762-.4679117.3282122-.6982828.483002a2.1329598 2.2270617 0 0 0 -1.3861818-.5373855 2.1329598 2.2270617 0 0 0 -2.1242889 2.0510646c-.9871011.1835872-1.83954062.1638903-2.57379439.1589721l-.01254071 1.6057401c.73767596.0051 1.776059.01533 3.0149375-.240437a2.1329598 2.2270617 0 0 0 1.6956685.880163 2.1329598 2.2270617 0 0 0 2.1326353-2.226631 2.1329598 2.2270617 0 0 0 -.016781-.2530605c.3107627-.1996483.6224894-.4004737.9429947-.6460467.7144476-.5463761 1.4558748-.9108788 2.197404-1.1520656a2.1329598 2.2270617 0 0 0 1.896383 1.2043096 2.1329598 2.2270617 0 0 0 2.046888-1.6140934c.779324.034577 1.496233.096235 2.090785.096235v-1.6057383c-.495746 0-1.29326-.08928-2.241291-.1234277a2.1329598 2.2270617 0 0 0 -1.896376-1.2084809zm0 1.1917811a.99137588 1.0351135 0 0 1 .991064 1.0349538.99137588 1.0351135 0 0 1 -.991064 1.0349549.99137588 1.0351135 0 0 1 -.993097-1.0349549.99137588 1.0351135 0 0 1 .993097-1.0349538zm-7.152612 3.0734968a.99137588 1.0351135 0 0 1 .9909543 1.0370911.99137588 1.0351135 0 0 1 -.9909543 1.034851.99137588 1.0351135 0 0 1 -.9910654-1.034851.99137588 1.0351135 0 0 1 .9910654-1.0370911z" fill="#bebebe" fill-rule="evenodd" stroke-width="1.605741"/></svg>