<svg height="16" width="16.002001" xmlns="http://www.w3.org/2000/svg"><g fill="#bebebe" transform="translate(-60.9982 -987.00001)"><path d="m68.93379 989-7.93359.01-.002 11.9687h9.96875l.0273-9.91792c0-1.12431-.93624-2.06055-2.06055-2.06055zm-4.91797 3h1c.30945 0 .55233.0903.75.28125l2.65626 2.71875-2.65626 2.71875c-.19767.19095-.44055.28125-.75.28125h-1v-1c.00001-.25689.12983-.52846.3125-.71875l1.28126-1.28125-1.28126-1.28125c-.18267-.19029-.3125-.46186-.3125-.71875z"/><path d="m70.98458 989.03125s1.03125.48405 1.03125 1.96875v10h.98437v-10c0-1.2501-2.01562-1.96875-2.01562-1.96875z"/><path d="m72.96895 989.03125s1.03125.48405 1.03125 1.96875v10h1v-10c0-1.2501-2.03125-1.96875-2.03125-1.96875z"/></g></svg>