<svg height="16" width="16.000004" xmlns="http://www.w3.org/2000/svg"><g fill="#bebebe" transform="translate(-301.0002 -727)"><path d="m301.53145 731c-.28913 0-.53125.2422-.53125.5312v10.9375c0 .2985.23264.5313.53125.5313h12.9375c.2986 0 .53125-.2327.53125-.5313v-5.9375c0-.289-.24212-.5312-.53125-.5312h-10.46875v4.5c0 .277-.223.5-.5.5s-.5-.223-.5-.5v-5c0-.277.223-.5.5-.5h2.96875 6.53125v-1h-1v-1h-5.96875v-1.4688c0-.289-.24212-.5312-.53125-.5312z"/><path d="m313.00019 727v1.9967h-1.99999v1.9967h1.99999v1.9968h2.00001v-1.9968h2v-1.9967h-2v-1.9967z"/></g></svg>