<svg height="16" width="16" xmlns="http://www.w3.org/2000/svg"><g fill="#bebebe"><path d="m.33203125 0c-.18070589 0-.33203125.15132536-.33203125.33203125v8.33593755c0 .1865623.14540038.3320312.33203125.3320312h4.66796875v-1.6679688c0-.7389776.5930536-1.3320312 1.3320312-1.3320312h3.3359376c.1179748 0 .2283994.0178658.3320312.0488281v-2.7167969c0-.1806871-.1513252-.3320373-.3320312-.3320312h-.6679688-7v4.4121094a.5.5 0 0 1 -.5.5.5.5 0 0 1 -.5-.5v-4.9121094a.50005.50005 0 0 1 .5-.5h7.5v-.6289062c-.0000569-.2044996-.166663-.3710938-.3710938-.3710938h-4.6289062v-.66796875c0-.18071839-.1513253-.33203125-.3320312-.33203125z" opacity=".35" stroke-width=".625"/><path d="m6.3320312 7c-.180706 0-.3320312.1513252-.3320312.3320312v8.3359378c0 .186562.1454002.332031.3320312.332031h9.3359378c.186624 0 .332031-.145406.332031-.332031v-5.335938c0-.180687-.151325-.3320371-.332031-.332031h-.667969-7v4.412109a.5.5 0 0 1 -.5.5.5.5 0 0 1 -.5-.5v-4.912109a.50005.50005 0 0 1 .5-.5h7.5v-.6289062c-.000057-.2044998-.166663-.3710938-.371094-.3710938h-4.628906v-.6679688c0-.1807185-.1513251-.3320312-.3320312-.3320312z"/></g></svg>