<svg height="16" width="16.0002" xmlns="http://www.w3.org/2000/svg"><g fill="#bebebe" transform="translate(-241 -827)"><path d="m241 832v1c0 .25689.12983.52846.3125.71875l1.28125 1.28125-1.28125 1.28125c-.18267.19029-.3125.46186-.3125.71875v1h1c.30945 0 .55232-.0903.75-.28125l2.65625-2.71875-2.65625-2.71875c-.19768-.19095-.44055-.28125-.75-.28125z"/><path d="m257.0002 832v1c0 .25689-.12983.52846-.3125.71875l-1.28125 1.28125 1.28125 1.28125c.18267.19029.3125.46186.3125.71875v1h-1c-.30945 0-.55232-.0903-.75-.28125l-2.65625-2.71875 2.65625-2.71875c.19768-.19095.44055-.28125.75-.28125z"/><path d="m248 830v2h1.90625c-.0552 0 .0937.17104.0937.0937v.9375h-1c-1.71588 0-3.03787 1.10986-3.0625 2.46875-.0123.67944.3195 1.35323.875 1.8125s1.30959.71875 2.1875.71875h2 1v-1-4.9375c.00005-1.17114-.89686-2.0937-2.0937-2.0937zm1 5.03125h1v1h-1c-.51941 0-.78011-.14571-.90625-.25s-.15755-.17804-.15625-.25c.003-.14393.0927-.5 1.0625-.5z"/></g></svg>