<svg height="16" width="16" xmlns="http://www.w3.org/2000/svg"><g fill="#bebebe" transform="translate(-180.0002 -706)"><path d="m184 708v2h6c.42816 0 1 .61414 1 1v1h-5c-.91927 0-1.7356.38396-2.25.96875s-.75639 1.31063-.75 2.03125c.006.72062.26893 1.45271.78125 2.03125s1.31047.96875 2.21875.96875h6 1v-1-6c0-1.63434-1.3198-3-3-3zm2 6h5v2h-5c-.39787 0-.56691-.10979-.71875-.28125s-.27877-.43937-.28125-.71875c-.002-.27938.10467-.55354.25-.71875s.32764-.28125.75-.28125z"/><path d="m182 719v2h12v-2z"/></g></svg>