<svg height="16" width="16" xmlns="http://www.w3.org/2000/svg"><g fill="#bebebe" transform="translate(-161.0002 -747)"><path d="m163.78125 750a1.0001 1.0001 0 0 0 -.5 1.71875l5 5 .71875.6875.71875-.6875 5-5a1.016466 1.016466 0 1 0 -1.4375-1.4375l-4.28125 4.28125-4.28125-4.28125a1.0001 1.0001 0 0 0 -.9375-.28125z"/><path d="m758-175.0002h2v12h-2z" transform="rotate(90)"/><g transform="matrix(0 -1 -1 0 0 0)"><rect height="1" rx="0" ry="1" width="1" x="-751" y="-175.0002"/><rect height="1" rx="0" ry="1" width="1" x="-751" y="-164.0002"/></g></g></svg>