<svg height="16.01759" width="16" xmlns="http://www.w3.org/2000/svg"><g transform="translate(-360 -766)"><path d="m3.03125 1c-.52358.00005-.99995.47642-1 1v5.9746094h1.140625v1 1.4335936l.859375-.8593749v-6.5488281h4.5625l3.40625 3.40625v7.59375h-4.8886719l.2910157.291016v.001953c.3175999.31691.5011625.78816.4765624 1.21289-.0096262.166163-.04945.319156-.1035156.462891h5.2246094c.51539-.00005.979521-.462733.994141-.976562l.005859.007812v-.03125-9c-.002-.26843-.11756-.53419-.3125-.71875l-3.96875-3.9375c-.18456-.19499-.45032-.31049-.71875-.3125zm.140625 13.574219v1.394531h1.3925781z" fill="#bebebe" transform="translate(360 766)"/><path d="m372.38672 778.29492c-.00028.001.002.002.002.004h-.002z" fill-rule="evenodd"/><g fill="#bebebe"><path d="m366.2016 774.9746a.58616804.58616804 0 0 0 -.348.16485l-2.93055 2.93054-.40295.42127.40295.42127 2.93055 2.93054a.59576031.59576031 0 1 0 .84253-.84253l-2.50928-2.50928 2.50928-2.50928a.58616804.58616804 0 0 0 -.49453-1.00738z"/><path d="m-362.17221 774.97461h1.172219v7.033313h-1.172219z" transform="scale(-1 1)"/></g></g></svg>