<svg height="16" width="16" xmlns="http://www.w3.org/2000/svg"><g fill="#bebebe" transform="translate(-361.0001 -627)"><path d="m367.5 629c-1.92115 0-3.5 1.57885-3.5 3.5v.5h2v-.5c0-.84027.65973-1.5 1.5-1.5s1.5.65973 1.5 1.5v6.5h2v-6.5c0-1.92115-1.57885-3.5-3.5-3.5z"/><path d="m374.0001 636.00005h-1c-.25689 0-.52846.12983-.71875.3125l-2.28125 2.28125-2.28125-2.28125c-.19029-.18267-.46186-.3125-.71875-.3125h-1v1c0 .30945.0903.55232.28125.75l3.71875 3.65625 3.71875-3.65625c.19095-.19768.28125-.44055.28125-.75z"/></g></svg>