<svg height="16.01759" width="16" xmlns="http://www.w3.org/2000/svg"><g transform="translate(-360 -766)"><path d="m3.03125 1c-.52358.00005-.99995.47642-1 1v6.0546875c.2596206.068636.505986.1810514.6992188.3710937l.0019531.0039063 1.2988281 1.2988281v-6.7285156h4.5625l3.40625 3.40625v7.59375h-6.7148438l-1.9667968 1.96875h9.6816406c.51539-.00005.979521-.462733.994141-.976562l.005859.007812v-.03125-9c-.002-.26843-.11756-.53419-.3125-.71875l-3.96875-3.9375c-.18456-.19499-.45032-.31049-.71875-.3125zm-1 11.242188v.5l.25-.25z" fill="#bebebe" transform="translate(360 766)"/><path d="m372.38672 778.29492c-.00028.001.002.002.002.004h-.002z" fill-rule="evenodd"/><path d="m361.68122 774.9746a.58616804.58616804 0 0 1 .348.16485l2.93055 2.93054.40295.42127-.40295.42127-2.93055 2.93054a.59576031.59576031 0 1 1 -.84253-.84253l2.50928-2.50928-2.50928-2.50928a.58616804.58616804 0 0 1 .49453-1.00738z" fill="#bebebe"/></g></svg>