<svg height="16" width="16.000004" xmlns="http://www.w3.org/2000/svg"><path d="m2 0v3.6796875l-2-1.1542969v1.1542969l1.3632812.7871094-1.3632812.7871093v1.1523438l2-1.1542969v4.4277344l-2-1.1542969v1.1542969l1.3632812.7871095-1.3632812.787109v1.152344l2-1.154297v4.748047h2.1699219l2.8300781-1.634766v1.634766h1v-1.703125l2.949219 1.703125h2.050781v-4.814453l3 1.732422v-1.154297l-2.246094-1.298828 2.246094-1.2968752v-1.1523438l-3 1.7324219v-4.5625l3 1.7324219v-1.1542969l-2.246094-1.2988281 2.246094-1.296875v-1.1523438l-3 1.7324219v-3.7480469h-1v3.453125l-3.4414062-1.9863281 2.5390622-1.4667969h-1.9980466l-1.0996094.63476562v-.63476562h-1v.56640625l-.9804688-.56640625h-2.0019531l2.5410157 1.4667969-3.5585938 2.0546875v-3.5214844zm6 2.2988281 3.753906 2.1679688-3.753906 2.1679687zm-1 .0664063v4.2011718l-3.6386719-2.0996093zm-4 3.0449218 3.5585938 2.0566407-3.5585938 2.0546875zm9 .0683594v3.9746094l-3.4414062-1.9863281zm-4 2.8203125 3.753906 2.1679689-3.753906 2.167969zm-1 .0664063v4.2011716l-3.6386719-2.099609zm-4 3.0449216 3.5585938 2.056641-3.5585938 2.054687zm9 .06836v3.974609l-3.4414062-1.986328z" fill="#bebebe" fill-rule="evenodd"/></svg>