<svg height="16" width="16" xmlns="http://www.w3.org/2000/svg"><g fill="#bebebe" transform="translate(-441.0002 -787)"><path d="m442.00021 788h2.000001v14h-2.000001z"/><path d="m800-456.00021h2v14h-2z" transform="rotate(90)"/><path d="m454.5 788.07422a.50005.50005 0 0 0 -.48633.51367c.0174 1.18183-.07 2.28411-.71484 3.21094-.64481.92683-1.89323 1.76158-4.41992 2.26953-2.72029.54687-4.34237 1.68836-5.30664 3.0625-.96428 1.37414-1.27468 2.92879-1.5586 4.2793a.50009069.50009069 0 1 0 .97852.20703c.28448-1.35317.58385-2.74851 1.40039-3.91211.81654-1.16361 2.14641-2.14619 4.68359-2.65625 2.67394-.53756 4.213-1.48391 5.04492-2.67969.83193-1.19578.91082-2.55886.89258-3.79687a.50005.50005 0 0 0 -.51367-.49805z"/><path d="m442.50354 801.51385c.5684-2.70367 1.25808-5.36691 6.49666-6.51385 5.21797-.9552 5.08547-3.64757 6-6v12.55805z" opacity=".33"/></g></svg>