<svg height="16" width="16" xmlns="http://www.w3.org/2000/svg"><g fill="#bebebe"><path d="m1.00001 1h2v2h-2z"/><path d="m3.00001 1h2v2h-2z"/><path d="m5.00001 1h2v2h-2z"/><path d="m5.00001 3h2v2h-2z"/><path d="m3.00001 5h2v2h-2z"/><path d="m1.00001 7h2v2h-2z"/><path d="m3.00001 9h2v2h-2z"/><path d="m5.00001 7h2v2h-2z"/><path d="m7.00001 5h2v2h-2z"/><path d="m9.00001 5h2v2h-2z"/><path d="m9.00001 1h2v2h-2z"/><path d="m11.00001 3h2v2h-2z"/><path d="m11.00001 9h2v2h-2z"/><path d="m7.00001 11h2v2h-2z"/><path d="m9.00001 13h2v2h-2z"/><path d="m3.00001 13h2v2h-2z"/><path d="m13.00001 11h2v2h-2z"/><path d="m13.00001 13h2v2h-2z"/><path d="m13.00001 13h2v2h-2z"/></g></svg>