<svg height="16" width="16" xmlns="http://www.w3.org/2000/svg"><path d="m89 447a8 8 0 0 0 -8 8 8 8 0 0 0 8 8 8 8 0 0 0 8-8 8 8 0 0 0 -8-8zm.720703 1.67383c.862535-.0603 1.322421.37545 1.380859 1.30664.02065.32903-.09395.62199-.345703.88086-.251754.25887-.542064.39927-.871093.41992-.875343.0549-1.345121-.38719-1.410157-1.32422-.01909-.30419.09985-.58805.357422-.85351.257572-.26547.553435-.40865.888672-.42969zm-.759766 4.14258c.645642-.0405.99705.33303 1.052735 1.12109.0097.1552-.01808.35278-.08398.59375l-1.08789 4.57422c-.01937.0885-.02655.15736-.02344.20703.0062.0993.08656.14806.242188.14453.16141-.0101.423258-.27569.783203-.79687.05663-.0908.172641-.0682.349609.0703.131175.10396.207559.19069.230469.25781.0015.0248-.008.0498-.03125.0762-.359943.5212-.780672.98624-1.259766 1.39649-.473271.40365-.88121.61724-1.222656.63867-.620808.0389-.955208-.32948-1.003906-1.10547-.01363-.21728.0043-.43702.05273-.6582l1.089844-4.54688c.02015-.0761.03048-.141.0332-.19726-.0078-.12416-.07311-.18358-.197265-.17578-.117956.007-.403183.28085-.855469.82031-.06982.0792-.187795.0407-.353516-.11719-.118757-.10473-.180477-.18276-.183594-.23242-.000799-.0124.0055-.0362.01563-.0742.360723-.50878.774734-.96232 1.242188-1.35938.467065-.40326.869492-.61528 1.210937-.63671z" fill="#bebebe" transform="translate(-81 -447)"/></svg>