<svg height="16" width="16" xmlns="http://www.w3.org/2000/svg"><g fill="#bebebe"><path d="m0 0v1h.5 1 .5v-1h-.5-1z"/><path d="m3 0v1h.5 1 .5v-1h-.5-1z"/><path d="m6 0v1h.5 1 .5v-1h-.5-1z"/><path d="m9 0v1h.5 1 .5v-1h-.5-1z"/><path d="m12 0v1h.5 1 .5v-1h-.5-1z"/><path d="m2 15v1h.5 1 .5v-1h-.5-1z"/><path d="m5 15v1h.5 1 .5v-1h-.5-1z"/><path d="m8 15v1h.5 1 .5v-1h-.5-1z"/><path d="m11 15v1h.5 1 .5v-1h-.5-1z"/><path d="m14 15v1h.5 1 .5v-1h-.5-1z"/><path d="m0 2v.5 1 .5h1v-.5-1-.5z"/><path d="m0 5v.5 1 .5h1v-.5-1-.5z"/><path d="m0 8v.5 1 .5h1v-.5-1-.5z"/><path d="m0 11v.5 1 .5h1v-.5-1-.5z"/><path d="m0 14v.5 1 .5h1v-.5-1-.5z"/><path d="m15 12v.5 1 .5h1v-.5-1-.5z"/><path d="m15 9v.5 1 .5h1v-.5-1-.5z"/><path d="m15 6v.5 1 .5h1v-.5-1-.5z"/><path d="m15 3v.5 1 .5h1v-.5-1-.5z"/><path d="m15 0v.5 1 .5h1v-.5-1-.5z"/><circle cx="9.5" cy="6.5" r="4.5"/><path d="m1.9999954 6.9999998v7.0000002h9.0000046l.000304-2.214844c-.477907.136549-.979704.214844-1.4999997.214844-2.8570536 0-5.2197726-2.2066421-5.4746086-5.0000002z"/></g></svg>