<svg height="16" width="16" xmlns="http://www.w3.org/2000/svg"><g fill="#bebebe" transform="translate(-41.0002 -807)"><path d="m43.0002 807v9h12v-9zm2 2h8v5h-8z"/><path d="m46.0004 812c2.32075 1 3.04463-1.65963 6 0v1h-6z" opacity=".35"/><path d="m52.003606 818.03877h-1.00114c-.2572 0-.52906.12998-.71957.31286l-1.28269 1.28271-1.2827-1.28272c-.19026-.18312-.46238-.31285-.71959-.31281h-1.00114l-.00001 1.00114c0 .3098.0903.55295.28162.75083l2.72184 2.65927 2.72182-2.65927c.19115-.19793.28158-.44106.28158-.75085v-1.00114z"/></g></svg>