<svg height="15.999935" width="16.000132" xmlns="http://www.w3.org/2000/svg"><g fill="#bebebe" transform="translate(-81.000135 -807)"><path d="m92.000179 819h-.999993c-.256903.00001-.528453.11786-.718755.28369l-1.281223 1.16309-1.281234-1.1631c-.190044-.16606-.461851-.28368-.718773-.28364h-.999993l-.00001.90779c0 .28091.09021.50137.281297.68082l2.718741 2.41128 2.718704-2.41128c.190934-.17949.281258-.39993.281258-.68084v-.90778z"/><path d="m85 807v2h6c.428164 0 1 .61414 1 1v1h-5c-.919269 0-1.735601.38396-2.25.96875s-.756392 1.31063-.75 2.03125c.0064.72062.268927 1.45271.78125 2.03125s1.310472.96875 2.21875.96875h6 1v-1-6c0-1.63434-1.319804-3-3-3zm2 6h5v2h-5c-.397872 0-.566911-.10979-.71875-.28125s-.278772-.43937-.28125-.71875c-.0025-.27938.104672-.55354.25-.71875s.327639-.28125.75-.28125z"/></g></svg>