<svg height="15.99993" width="16.000132" xmlns="http://www.w3.org/2000/svg"><g fill="#bebebe" transform="translate(-101.00014 -927)"><path d="m109.0002 927-4.99967 3.14259v4.71482l4.99951 3.14259 5.00049-3.14259v-4.71482zm0 6-3.64507-2.17601 3.64507-2.29205 3.64623 2.29205z"/><path d="m112.00019 939h-.99999c-.2569.00001-.52845.11786-.71875.28369l-1.28123 1.16309-1.28123-1.1631c-.19004-.16606-.46185-.28368-.71877-.28364h-1l-.00001.90779c0 .28091.0902.50137.2813.68082l2.71874 2.41128 2.71871-2.41128c.19093-.17949.28125-.39993.28125-.68084v-.90778z"/></g></svg>