<svg height="16" width="16" xmlns="http://www.w3.org/2000/svg"><path d="m3.984375 1.6601562c-.7720905.0123411-1.5331758.5102468-1.8945312 1.40625-.4129778 1.0240039-.4108278 2.5153604.2128906 4.6015626.5667012 1.8954918.6273499 3.4051492.4472656 4.4277342s-.6328144 1.473439-.7910156 1.513672c-.0791006.020116-.125416.023249-.2617188-.105469s-.3161111-.412955-.4511718-.873047c-.27012174-.920183-.36926474-2.515817-.0039063-4.8242184l-.98828125-.15625c-.38040427 2.4034634-.30360058 4.1163324.03320313 5.2636714.16840186.57367.39964527 1.013324.72265622 1.31836.323011.305036.7827487.45112 1.1972656.345703.8290342-.210834 1.3122613-1.087276 1.5273438-2.308594s.1299223-2.8712243-.4726562-4.8867185c-.5851763-1.9572865-.52594-3.2494633-.2460938-3.9433594s.6757032-.8441055 1.1347656-.7675781c.9181249.1530549 2.2253008 1.7132478 1.1484375 4.46875-.5961814 1.5255228-.7722251 2.6828985-.6542969 3.541016.058964.429058.1935889.790703.4257813 1.066406s.5811564.447266.9316406.447265c.7009685.000001 1.288867-.524408 1.7109375-1.320312s.6898974-1.9195036.6542969-3.3613281c-.0331258-1.3415954.1014682-2.0494232.2324219-2.3046875.0654768-.1276322.1011437-.1458328.1503906-.1679688.049247-.022136.1429018-.0394434.296875-.0371094.2930876.00444.4323489.072782.5410156.1699219.1086667.09714.1991206.2569517.2675782.4921875.1369149.4704717.1422925 1.1842423.2265622 1.8535156.05114.4061454.178022.7581419.472657.9824219.294632.2242801.658992.225251.947265.1660157.576546-.1184709 1.120923-.4387099 1.693359-.640625.572438-.2019153 1.098227-.2873046 1.578126-.0761719.390307.171717.819603.5953318 1.226562 1.4648437v-1.7734375c-.259826-.2611673-.531496-.4766846-.824219-.6054687-.814412-.3583033-1.641271-.1905762-2.314453.046875-.673182.2374511-1.266222.5430366-1.560547.6035156-.147162.03024-.152692.0088603-.138672.0195312.01402.010672-.05399-.043302-.08789-.3125-.071527-.5680662-.056698-1.3167368-.257813-2.0078124-.100557-.345538-.265516-.6915506-.5625-.9570313-.2969831-.2654807-.7148227-.4185589-1.191406-.4257813-.2196377-.0033284-.4684634.0107433-.7226562.125-.254193.1142568-.4822519.3371777-.6289063.6230469-.2933087.5717386-.3784207 1.3809891-.34375 2.7851563.032196 1.3039382-.2176545 2.26674-.5371094 2.8691406-.3194549.602401-.6985851.789064-.828125.789062-.06477 0-.095772-.008396-.1660156-.091796-.070244-.083403-.1586068-.261123-.1992187-.556641-.0812242-.5910357.037389-1.6193395.59375-3.0429688 1.2282222-3.1428028-.1618964-5.5259411-1.9160157-5.8183593-.1096324-.0182762-.2197795-.0271537-.3300781-.0253907z" fill="#bebebe" fill-rule="evenodd"/></svg>