<svg height="16" width="16" xmlns="http://www.w3.org/2000/svg"><g fill="#bebebe"><path d="m0 9 2.4628906 2.953125.7265625-2.953125zm11.164062.1972656-3.3124995 3.3378904-4.0136719 1.06836 1.1640625 1.396484h10.9980469z"/><g fill-rule="evenodd" transform="matrix(1.0000248 0 0 .99997876 -399.36012 -768.64578)"><path d="m403.66263 777.27842 5.84933-5.85075 2.99982 2.99981-5.82888 5.87306-4.02677 1.07184z"/><path d="m412.62129 768.66211c-.20052 0-.40103.0768-.55468.23047l-1.76953 1.76758 3.05273 3.05273 1.76953-1.76953c.3073-.3073.3073-.80208 0-1.10938l-1.94336-1.9414c-.15365-.15365-.35417-.23047-.55469-.23047z"/></g></g></svg>