<svg height="16" width="16" xmlns="http://www.w3.org/2000/svg"><path d="m8 4v2.5c0 .84027-.65973 1.5-1.5 1.5h-3.0625l1.28125-1.28125c.18815-.18817.281245-.45345.28125-.71875v-1h-1c-.265308.00003-.530578.0931-.71875.28125l-3 3-.28125.28125v.875l.28125.28125 3 3c.188182.18821.453466.28125.71875.28125h1v-1c.000038-.26531-.09314-.53057-.28125-.71875l-1.28125-1.28125h3.0625c.9273047 0 1.7696905-.3952902 2.3984375-1.0039062.64288.6698977 1.5677805 1.0039062 2.6015625 1.0039062h1.0625l-1.28125 1.28125c-.18811.18818-.281288.45344-.28125.71875v1h1c.265284 0 .530568-.09304.71875-.28125l3-3 .28125-.28125v-.875l-.28125-.28125-3-3c-.188172-.18815-.453442-.28122-.71875-.28125h-1v1c.000005.2653.0931.53058.28125.71875l1.28125 1.28125h-1.0625c-.84027 0-1.5-.65973-1.5-1.5v-2.5z" fill="#bebebe" fill-opacity=".990826"/></svg>