<svg height="16" width="16" xmlns="http://www.w3.org/2000/svg"><g fill="#bebebe" transform="translate(-40.99995 -297)"><path d="m.78125 1a.86173499.86172734 0 0 0 -.78125.8632812v7.7539063a.86173499.86172734 0 0 0 .86132812.8613285h2.07617188v-1.7226566h-1.2148438v-4.9296875l1.6738282 1.3398437c.3047862-.3524897.7365858-.5944379 1.2265625-.640625l.0234375-.0019531h.0234375c.058141-.003.1176412-.003.1757812 0l-.046875-.0019531h.5507813l-2.2460938-1.796875h5.8554688l-2.2460938 1.796875h2.7597656l.8671878-.6933594v.6933594h1.722656v-2.6582032a.86173499.86172734 0 0 0 -.861328-.8632812h-10.33984388a.86173499.86172734 0 0 0 -.08007812 0z" fill-opacity=".501961" transform="translate(40.99995 297)"/><g transform="matrix(.86164883 0 0 .86164883 8.747616 44.027214)"><path d="m43.78125 301a1.0000999 1.0000999 0 0 0 -.40625 1.78125l5 4 .625.5.625-.5 5-4a1.0004882 1.0004882 0 1 0 -1.25-1.5625l-4.375 3.5-4.375-3.5a1.0000999 1.0000999 0 0 0 -.84375-.21875z"/><path d="m42.90625 300a1.0001 1.0001 0 0 0 -.90625 1v9a1.0001 1.0001 0 0 0 1 1h12a1.0001 1.0001 0 0 0 1-1v-9a1.0001 1.0001 0 0 0 -1-1h-12a1.0001 1.0001 0 0 0 -.09375 0zm1.09375 2h10v7h-10z"/></g></g></svg>