<svg height="16" width="16" xmlns="http://www.w3.org/2000/svg"><g fill="#bebebe"><path d="m.78125 1a.86173499.86172734 0 0 0 -.78125.8632812v7.7539063a.86173499.86172734 0 0 0 .86132812.8613285h2.07617188v-1.7226566h-1.2148438v-4.9296875l1.6738282 1.3398437c.3047862-.3524897.7365858-.5944379 1.2265625-.640625l.023437-.00195h.023437c.058141-.003.1176412-.003.1757812 0l-.046875-.00195h.5507823l-2.2460938-1.7968812h5.8554688l-2.2460938 1.796875h2.7597656l.8671878-.6933594v.6933594h1.722656v-2.6582032a.86173499.86172734 0 0 0 -.861328-.8632812h-10.33984388a.86173499.86172734 0 0 0 -.08007812 0z" opacity=".35"/><g stroke-width=".861649"><path d="m5.4717288 6.3835078a.86173491.86173491 0 0 0 -.3500448 1.534812l4.3082442 3.4465952.5385305.430825.5385303-.430825 4.308244-3.4465952a.86206949.86206949 0 1 0 -1.077061-1.3463263l-3.7697133 3.0157709-3.7697137-3.0157709a.86173491.86173491 0 0 0 -.7270162-.1884857z"/><path d="m4.7177861 5.521859a.86173499.86173499 0 0 0 -.7808692.8616488v7.7548392a.86173499.86173499 0 0 0 .8616488.861649h10.3397863a.86173499.86173499 0 0 0 .861648-.861649v-7.7548392a.86173499.86173499 0 0 0 -.861648-.8616488h-10.3397863a.86173499.86173499 0 0 0 -.08078 0zm.9424284 1.7232977h8.6164885v6.0315413h-8.6164885z"/></g></g></svg>