<svg height="16" width="16" xmlns="http://www.w3.org/2000/svg"><g fill="#bebebe" transform="translate(-81.00015 -687)"><path d="m90.00016 694.00001-.00001-1c-.00003-.26531-.0931-.53058-.28124-.71876l-3.00001-2.99999-.28125-.28126h-.87499l-.28126.28126-2.99999 3c-.18821.18818-.28121.45347-.28121.71876l-.00001 1h1c.26531.00004.53059-.0931.71877-.28121l2.28124-2.28126 2.28125 2.28125c.18817.18815.45345.28125.71875.28125h1z"/><path d="m85 691v7h2v-7z"/><path d="m96.00016 694.99999-.00001 1c-.00003.26531-.0931.53058-.28124.71876l-3.00001 2.99999-.28125.28126h-.87499l-.28126-.28126-2.99999-3c-.18821-.18818-.28121-.45347-.28121-.71876l-.00001-1h1c.26531-.00004.53059.0931.71877.28121l2.28124 2.28126 2.28125-2.28125c.18817-.18815.45345-.28125.71875-.28125h1z"/><path d="m91 691v7h2v-7z"/></g></svg>