<svg height="16" width="16" xmlns="http://www.w3.org/2000/svg"><g fill="#bebebe"><path d="m2.781255 6a1.0000999 1.0000999 0 0 0 -.40625 1.78125l5 4 .625.5.625-.5 5-4a1.0004882 1.0004882 0 1 0 -1.25-1.5625l-4.375 3.5-4.375-3.5a1.0000999 1.0000999 0 0 0 -.84375-.21875z"/><path d="m1.90625 5a1.0001 1.0001 0 0 0 -.90625 1v9a1.0001 1.0001 0 0 0 1 1h12a1.0001 1.0001 0 0 0 1-1v-9a1.0001 1.0001 0 0 0 -1-1h-1.041016l-1.984375 2h2.025391v7h-10v-7h3.4140625l.4921875-2h-4.90625a1.0001 1.0001 0 0 0 -.09375 0z"/><g fill-rule="evenodd" transform="matrix(.59007401 0 0 .59007401 -230.27655 -453.56753)"><path d="m403.66263 777.27842 5.84933-5.85075 2.99982 2.99981-5.82888 5.87306-4.02677 1.07184z"/><path d="m412.62129 768.66211c-.20052 0-.40103.0768-.55468.23047l-1.76953 1.76758 3.05273 3.05273 1.76953-1.76953c.3073-.3073.3073-.80208 0-1.10938l-1.94336-1.9414c-.15365-.15365-.35417-.23047-.55469-.23047z"/></g></g></svg>