<svg height="16" width="16" xmlns="http://www.w3.org/2000/svg"><g fill="#bebebe"><path d="m1.78073 1.71918a1.0000999 1.0000318 0 0 0 -.40625 1.78113l5 3.99972.625.49997.625-.49997 5-3.99972a1.0004907 1.0004225 0 1 0 -1.25-1.5624l-4.375 3.49977-4.375-3.49977a1.0000999 1.0000318 0 0 0 -.84375-.21873z"/><path d="m.8125 1c-.45841.0875-.82073.53344-.8125 1v9c.00005.52354.47641.99995 1 1h6c0-.710984.1551192-1.386045.4257812-2h-5.4257812v-7h10v4c.710984 0 1.386045.1551192 2 .4257812v-5.4257812c-.00005-.52354-.47642-.99995-1-1h-12c-.0312-.00099-.06255-.00099-.09375 0-.0312-.00099-.06255-.00099-.09375 0z"/><path d="m12 8c-2.2091372 0-4 1.790863-4 4s1.7908628 4 4 4c2.209137 0 4-1.790863 4-4s-1.790863-4-4-4zm-1.142857 2.285714c.319046 0 .589286.27024.589286.589286v.553572c0 .319045-.27024.571428-.589286.571428s-.571429-.252383-.571429-.571428v-.553572c0-.319046.252383-.589286.571429-.589286zm2.285714 0c.319046 0 .571429.27024.571429.589286v.553572c-0 .319045-.252383.571428-.571429.571428-.319045 0-.571428-.252383-.571428-.571428v-.553572c0-.319046.252383-.589286.571428-.589286zm1.714286 3.39592c-.569463-.363943-2.295131-.524137-2.857143-.524137-.562011 0-2.17404-.0292-2.8571428.524137v-.285714c0-.389131.9966568-.802457 2.8571428-.802457s2.857143.498166 2.857143.802457z" stroke-width=".57143"/></g></svg>