<svg height="16" width="16" xmlns="http://www.w3.org/2000/svg"><g fill="#bebebe" transform="translate(-80.99995 -297)"><path d="m95.99995 297h-7.80675v7h7.80675z" fill-opacity=".333333"/><g fill-opacity=".954128" fill-rule="evenodd"><path d="m94.81435 297.99995a.50005.50005 0 1 1 0 1h-5.25976a.50005.50005 0 1 1 0-1z"/><path d="m94.81435 299.99995a.50005.50005 0 1 1 0 1h-5.25976a.50005.50005 0 1 1 0-1z"/><path d="m94.81435 301.99995a.50005.50005 0 1 1 0 1h-5.25976a.50005.50005 0 1 1 0-1z"/></g><path d="m84.99995 303v2.5c0 .84027.65973 1.5 1.5 1.5h6.0625l-1.28125-1.28125c-.18815-.18817-.281245-.45345-.28125-.71875v-1h1c.265308.00003.530578.0931.71875.28125l3 3 .28125.28125v.875l-.28125.28125-3 3c-.188182.18821-.453466.28125-.71875.28125h-1v-1c-.000038-.26531.09314-.53057.28125-.71875l1.28125-1.28125h-6.0625c-1.921152 0-3.5-1.67207-3.5-3.5v-2.5z" fill-opacity=".990826"/></g></svg>