<svg height="16" width="16" xmlns="http://www.w3.org/2000/svg"><g fill="#bebebe"><path d="m1.78073 1.71918a1.0000999 1.0000318 0 0 0 -.40625 1.78113l5 3.99972.625.49997.625-.49997 5-3.99972a1.0004907 1.0004225 0 1 0 -1.25-1.5624l-4.375 3.49977-4.375-3.49977a1.0000999 1.0000318 0 0 0 -.84375-.21873z"/><path d="m.8125 1c-.45841.0875-.82073.53344-.8125 1v9c.00005.52354.47641.99995 1 1h6c0-.710984.1551192-1.386045.4257812-2h-5.4257812v-7h10v4c.710984 0 1.386045.1551192 2 .4257812v-5.4257812c-.00005-.52354-.47642-.99995-1-1h-12c-.0312-.00099-.06255-.00099-.09375 0-.0312-.00099-.06255-.00099-.09375 0z"/><path d="m12 8a4 4 0 0 0 -4 4 4 4 0 0 0 4 4 4 4 0 0 0 4-4 4 4 0 0 0 -4-4zm-1 1.0605469h2v3.9648441h-2zm0 4.9570311h2v.990234h-2z"/></g></svg>