<svg height="16" width="16" xmlns="http://www.w3.org/2000/svg"><g fill="#bebebe"><path d="m1 0h7.80675v7h-7.80675z" opacity=".35"/><g fill-rule="evenodd"><path d="m2.1856.99995a.50005.50005 0 1 0 0 1h5.25976a.50005.50005 0 1 0 0-1z"/><path d="m2.1856 2.99995a.50005.50005 0 1 0 0 1h5.25976a.50005.50005 0 1 0 0-1z"/><path d="m2.1856 4.99995a.50005.50005 0 1 0 0 1h5.25976a.50005.50005 0 1 0 0-1z"/></g><path d="m12 6v2.5c0 .84027-.65973 1.5-1.5 1.5h-6.0625l1.28125-1.28125c.18815-.18817.281245-.45345.28125-.71875v-1h-1c-.265308.00003-.530578.0931-.71875.28125l-3 3-.28125.28125v.875l.28125.28125 3 3c.188182.18821.453466.28125.71875.28125h1v-1c.000038-.26531-.09314-.53057-.28125-.71875l-1.28125-1.28125h6.0625c1.921152 0 3.5-1.67207 3.5-3.5v-2.5z"/></g></svg>