<svg height="16" width="16" xmlns="http://www.w3.org/2000/svg"><g fill="#bebebe"><path d="m3.0800781 3.9863281a1.0000999 1.0000999 0 0 0 -.2988281.0136719 1.0000999 1.0000999 0 0 0 -.40625 1.78125l5 4 .625.5.625-.5 3.476562-2.78125h-.101562c-.552261-.0000552-.999945-.4477387-1-1v-.6816406l-3 2.4003906-4.375-3.5a1.0000999 1.0000999 0 0 0 -.5449219-.2324219z"/><path d="m1.90625 3a1.0001 1.0001 0 0 0 -.90625 1v9a1.0001 1.0001 0 0 0 1 1h12a1.0001 1.0001 0 0 0 1-1v-6h-2v5h-10v-7h6v-2h-7a1.0001 1.0001 0 0 0 -.09375 0z"/><path d="m12 0v2h-2v2h2v2h2v-2h2v-2h-2v-2z"/></g></svg>