<svg height="16.001099" width="16" xmlns="http://www.w3.org/2000/svg"><path d="m68.8752 297a1.0001 1.0001 0 0 0 -.5.25l-4.90625 4a1.0001 1.0001 0 0 0 -.0625.0312s-.32587.29728-.65625.75c-.22334.30605-.3527.8316-.5 1.3125a1.0001 1.0001 0 0 0 -.03125.0312 1.0001 1.0001 0 0 0 -.21875.5625c-.00051.0118.00036.0195 0 .0312a1.0001 1.0001 0 0 0 0 .0312 1.0001 1.0001 0 0 0 0 .15625v7.84375a1.0001 1.0001 0 0 0 1 1h12a1.0001 1.0001 0 0 0 1-1v-7.84375a1.0001 1.0001 0 0 0 0-.15625 1.0001 1.0001 0 0 0 -.21875-.65625 1.0001 1.0001 0 0 0 -.03125-.0312c-.32774-1.18787-1.125-2-1.125-2a1.0001 1.0001 0 0 0 -.0312-.0312l-4.9688-4.03115a1.0001 1.0001 0 0 0 -.65625-.25 1.0001 1.0001 0 0 0 -.0937 0zm.125 2.28125 4.3125 3.53125.0312.0312c.021.0255.18032.24952.34375.5l-4.68745 3.53125-4.6875-3.53125c.0259-.0394.0349-.0872.0625-.125.1908-.26146.31874-.41421.34375-.4375l.03125-.0312zm-5 5.09375 4.6875 3.53125.3125.21875.3125-.21875 4.6875-3.53125v6.625h-10z" fill="#bebebe" transform="translate(-60.99995 -296.9989)"/></svg>