<svg height="16" width="16" xmlns="http://www.w3.org/2000/svg"><g fill="#bebebe" transform="matrix(-1 0 0 1 36.000048 -487)"><path d="m55 610c-.177384.008-.351174.0592-.5.15625l-5 3c-.282396.17971-.4375.51173-.4375.84375s.155104.66404.4375.84375l5 3c.148826.097.322616.14825.5.15625h.15625.84375v-8h-.84375z" transform="matrix(-1 0 0 1 76.00025 -119)"/><path d="m34 491v8h2v-8z"/><path d="m28.00025 491c.177384.008.351174.0592.5.15625l5 3c.282396.17971.4375.51173.4375.84375s-.155104.66404-.4375.84375l-5 3c-.148826.097-.322616.14825-.5.15625h-.15625-.84375v-8h.84375z"/></g></svg>