<svg height="16" width="16" xmlns="http://www.w3.org/2000/svg"><g fill="#bebebe"><path d="m12-.00000003v2.00000003h-2v2h2v2h2v-2h2v-2h-2v-2.00000003z"/><path d="m7.9882812.99609375c-3.8423345 0-6.99414057 3.15184065-6.99414058 6.99414065 0 2.7804806 1.65513748 5.2031796 4.02343748 6.3339846.0449307-.060004.0884109-.121075.140625-.171875.493704-.505763 1.1348299-.710359 1.7792969-.699219-.230105-.594613-.4076531-1.21547-.4082031-1.867187-.000098-.316742.0334186-.626102.0878906-.927735-.9642624-.494049-1.6132812-1.4882807-1.6132813-2.6679686 0-1.68054 1.3038143-2.984375 2.984375-2.984375 1.1263001 0 2.0824968.592196 2.5976568 1.484375.163143-.0379358.329892-.0664759.498046-.0898438a1.0001 1.0001 0 0 1 -.083984-.4003906v-1h-1a1.0001 1.0001 0 0 1 -1-1v-2a1.0001 1.0001 0 0 1 .4609375-.8417969c-.476064-.1034235-.967549-.16210935-1.4726563-.16210935zm.015625 5.00976565c-1.0986568 0-2.0117187.8974437-2.0117187 1.9960937 0 .6928308.3644175 1.305296.9082031 1.6640625.1265829-.3183539.2868885-.6197791.4707032-.9042968-.219247-.1824426-.3652344-.447308-.3652344-.7597657 0-.55821.4398335-.9980469.9980468-.9980469.296131 0 .5528671.1285542.734375.328125.2729202-.1951102.5650529-.3633238.8730469-.5039062-.3644709-.4960232-.9480308-.8222656-1.6074219-.8222656zm6.8320318.5429687a1.0001 1.0001 0 0 1 -.636719.4316407c.27349.1486525.53591.3162098.779297.5078124-.023346-.3204177-.076769-.6320079-.142578-.9394531z" stroke-width="1.000003"/><path d="m11.765625 7.349609a4.235142 4.2350193 0 0 0 -4.236328 4.236329 4.235142 4.2350193 0 0 0 1.46875 3.203125c-.180161.253298-.316008.355245-.380859.361328-.08235.0077-.259012-.06299-.50586-.232422-.246846-.169434-.533995-.4132-.939453-.515625-.405458-.102423-.919654.03632-1.320313.458984a.42355654.42354427 0 1 0 .615235.580078c.259189-.273423.341999-.256217.498047-.216797.15605.03942.394552.202954.667968.390625.273418.187672.610683.421483 1.064454.378907.377209-.03539.708626-.288927 1.003906-.712891a4.235142 4.2350193 0 0 0 2.064453.539063 4.235142 4.2350193 0 0 0 4.234375-4.234375 4.235142 4.2350193 0 0 0 -4.234375-4.236329zm-.912109.740235a1.0182774 1.0182479 0 0 1 1.017578 1.017578 1.0182774 1.0182479 0 0 1 -1.017578 1.019531 1.0182774 1.0182479 0 0 1 -1.019532-1.019531 1.0182774 1.0182479 0 0 1 1.019532-1.017578zm2.970703.84375a1.0182865 1.018257 0 0 1 .984375.705078 1.0182865 1.018257 0 0 1 -.654297 1.28125 1.0182865 1.018257 0 0 1 -1.283203-.654297 1.0182865 1.018257 0 0 1 .654297-1.28125 1.0182865 1.018257 0 0 1 .298828-.050781zm-4.683594 1.734375a1.0184673 1.0184378 0 0 1 .300781.05273 1.0184673 1.0184378 0 0 1 .654297 1.283203 1.0184673 1.0184378 0 0 1 -1.283203.654297 1.0184673 1.0184378 0 0 1 -.654297-1.285156 1.0184673 1.0184378 0 0 1 .912109-.703125 1.0184673 1.0184378 0 0 1 .07031-.002zm2.671875.216797a.59476583.5947486 0 0 1 .002 0 .59476583.5947486 0 0 1 .574219.412109.59476583.5947486 0 0 1 -.382813.748047.59476583.5947486 0 0 1 -.75-.382813.59476583.5947486 0 0 1 .38086-.748046.59476583.5947486 0 0 1 .175781-.0293zm2.117188 1.152343a1.0183075 1.0182781 0 0 1 .853515.417969 1.0183075 1.0182781 0 0 1 -.224609 1.423828 1.0183075 1.0182781 0 0 1 -1.423828-.226562 1.0183075 1.0182781 0 0 1 .226562-1.421875 1.0183075 1.0182781 0 0 1 .56836-.19336zm-2.925782 1.072266a1.0182264 1.0181969 0 0 1 .640625.193359 1.0182264 1.0181969 0 0 1 .226563 1.421875 1.0182264 1.0181969 0 0 1 -1.423828.22461 1.0182264 1.0181969 0 0 1 -.22461-1.421875 1.0182264 1.0181969 0 0 1 .78125-.417969z"/></g></svg>