<svg height="16" width="16" xmlns="http://www.w3.org/2000/svg"><g fill="#bebebe"><path d="m7.9882812.99609375c-3.8423099 0-6.99218745 3.14988755-6.99218745 6.99218745 0 2.6092158 1.45429865 4.9072518 3.58984375 6.1152348l.9101563-3.705078.3417968-.339844c-.5109303-.5363714-.8339844-1.2535354-.8339844-2.0703128 0-1.6805399 1.303825-2.9843749 2.984375-2.984375.8182897 0 1.5374276.3234423 2.0742188.8359376l.642578-.640625c.286422-.2864585.668251-.4296876 1.039063-.4296876.370878 0 .755742.1483198 1.037109.4296876l1.158203 1.1582031c.563359.5633613.563359 1.5128105 0 2.0761719l-5.2187499 5.1738282-3.3242187.884766c.8034207.32623 1.6765979.511718 2.5917968.511718 3.8422998 0 7.0156248-3.173325 7.0156248-7.0156248s-3.173325-6.99218745-7.0156248-6.99218745zm.0175782 5.00976565c-1.09865 0-2.0136719.8974437-2.0136719 1.9960937 0 .5233403.2099332.9994848.546875 1.3554688l.7148437-.7148438c-.1506091-.1716853-.2480468-.3889461-.2480468-.640625 0-.55821.44179-.9980469 1-.9980469.2524498 0 .4710603.0985393.6425781.25l.7109375-.7109374c-.3555722-.3320503-.830567-.5371094-1.3535156-.5371094z"/><g fill-rule="evenodd" stroke-width=".596423"><path d="m6.4001547 10.908574 3.4886747-3.4895219 1.7891616 1.7891556-3.4764779 3.5028283-2.4016582.63927z"/><path d="m11.743305 5.7696086c-.119594 0-.239183.045805-.330824.1374576l-1.055388 1.0542253 1.820718 1.8207183 1.055389-1.0553884c.18328-.1832807.18328-.4783789 0-.6616597l-1.159065-1.1578955c-.09164-.0916404-.211235-.1374576-.33083-.1374576z"/></g></g></svg>