<svg height="16" width="16" xmlns="http://www.w3.org/2000/svg"><g fill="#bebebe"><path d="m7.9882812.99609375c-3.8423061 0-6.99218745 3.14989135-6.99218745 6.99218745 0 3.8422958 3.14988135 7.0156248 6.99218745 7.0156248 3.8422958 0 7.0156248-3.173329 7.0156248-7.0156248 0-.5024059-.053339-.9915748-.15625-1.4648437a1.0001 1.0001 0 0 1 -.847656.4765625h-2a1.0001 1.0001 0 0 1 -1-1v-1h-1a1.0001 1.0001 0 0 1 -1-1v-2a1.0001 1.0001 0 0 1 .4707031-.84375c-.4788335-.1044805-.9744104-.16015625-1.4824219-.16015625zm0 4.00781245c1.6805384 0 3.0078128 1.3038367 3.0078128 2.984375 0 1.6805384-1.3272744 3.0078128-3.0078128 3.0078128-1.6805483 0-2.9843749-1.3272744-2.984375-3.0078128 0-1.6805383 1.3038267-2.984375 2.984375-2.984375z"/><path d="m8.00504 6.0058c-1.09865 0-2.01317.89789-2.01317 1.99654 0 1.09864.91452 1.99653 2.01317 1.99653s1.99654-.89789 1.99654-1.99653c0-1.09865-.89789-1.99654-1.99654-1.99654zm0 .99827c.55821 0 .99827.44006.99827.99827 0 .5582-.44006.99826-.99827.99826s-.99827-.44006-.99827-.99826c0-.55821.44006-.99827.99827-.99827z"/><path d="m12 0v2h-2v2h2v2h2v-2h2v-2h-2v-2z"/></g></svg>