<svg height="16" width="16" xmlns="http://www.w3.org/2000/svg" xmlns:xlink="http://www.w3.org/1999/xlink"><linearGradient id="a" gradientUnits="userSpaceOnUse" x1="16" x2="0" y1="16" y2="0"><stop offset="0" stop-color="#bebebe"/><stop offset="1" stop-color="#bebebe" stop-opacity="0"/></linearGradient><path d="m14.285954 13.650967-.671152-3.595458 1.486122-4.4104286-1.486122-4.0269132-3.020185.8629099-5.0336416-1.62994103-3.7392766 1.67788053.7190917 3.5475187-1.67788053 4.1707317 1.62994103 4.218671 3.3078216-1.150547 3.9789737 1.582002z" fill="url(#a)" fill-rule="evenodd"/><g fill="#bebebe"><path d="m0 0h4v4h-4z"/><path d="m12 0h4v4h-4z"/><path d="m12 12h4v4h-4z"/><path d="m0 12h4v4h-4z"/><path d="m1.4335938.75-.86718755.5c1.06778955 1.8494657 1.36539605 3.0981036 1.34179685 4.0507812-.0235992.9526777-.368001 1.6559277-.7324219 2.4609376-.36442078.8050098-.74224876 1.7205344-.63476558 2.9218752.10748319 1.20134.67751628 2.641485 2.04882818 4.603515l.8203124-.574218c-1.3140374-1.880085-1.7874339-3.162245-1.8730468-4.119141-.0856129-.9568964.1935861-1.6351881.5488281-2.4199219.355242-.7847337.7929373-1.6656522.8222656-2.8496093.0293283-1.1839572-.3490968-2.6247739-1.4746093-4.5742188z" fill-opacity=".941176" fill-rule="evenodd"/><path d="m1.2871094 3.4092211-.57421878-.8203126c1.96203068-1.3713118 3.40217508-1.94134486 4.60351558-2.04882806 1.2013406-.1074832 2.1168652.2703448 2.921875.63476556.8050099.3644208 1.5082599.7088227 2.4609378.7324219.952677.0235992 2.201315-.2740074 4.050781-1.34179686l.5.86718746c-1.949445 1.1255125-3.390262 1.5039378-4.574219 1.4746094-1.1839569-.0293283-2.0648754-.4670236-2.8496091-.8222656-.7847338-.355242-1.4630255-.6344411-2.4199219-.5488281-.9568964.0856129-2.2390563.5590094-4.1191406 1.8730469z" fill-opacity=".941176" fill-rule="evenodd"/><path d="m13.410156.64453125-.820312.57421875c1.314037 1.8800843 1.787434 3.1622442 1.873047 4.1191406.08561.9568964-.193586 1.6351881-.548829 2.4199219-.355242.7847338-.792937 1.6656522-.822265 2.8496095-.02933 1.183957.349097 2.624774 1.474609 4.574219l.867188-.5c-1.06779-1.849466-1.365396-3.096151-1.341797-4.048829.023599-.9526772.368001-1.6578803.732422-2.4628901.364421-.8050099.742249-1.7205344.634765-2.921875-.107483-1.2013406-.677516-2.641485-2.048828-4.60351565z" fill-opacity=".941176" fill-rule="evenodd"/><path d="m10.683594 15.39156c-1.2013408.107484-2.1168654-.270344-2.9218752-.634765-.8050099-.364421-1.5082599-.708823-2.4609376-.732422-.9526776-.023599-2.2013155.274007-4.0507812 1.341797l-.5-.867188c1.9494449-1.125512 3.3902616-1.503937 4.5742188-1.474609 1.1839571.02933 2.0648756.467023 2.8496093.822265.7847338.355243 1.4630255.634442 2.4199219.548829.956896-.08561 2.239056-.55901 4.119141-1.873047l.574218.820312c-1.96203 1.371312-3.402175 1.941345-4.603515 2.048828z" fill-opacity=".941176" fill-rule="evenodd"/></g></svg>