<svg height="16" width="16" xmlns="http://www.w3.org/2000/svg"><g fill="#bebebe"><path d="m8 2c-1.0008783 0-1.940186.1327965-2.8222656.3671875l1.703125 1.703125c.3587862-.0415905.7276774-.0703125 1.1191406-.0703125 2.29992 0 4.000251.77953 5.519531 2h1.480469v-1.3808594c-1.64044-1.46575-4.18578-2.6191406-7-2.6191406zm-6.5878906 2.2578125c-.1379694.108561-.2796671.2132642-.4121094.328125v1.4140625h1.4804688c.1245478-.1036746.2516943-.1984753.3789062-.2949219zm6.5878906.7421875c-.0617303 0-.1204322.0066181-.1816406.0078125l2.6249996 2.625c.194622.1121306.38243.2318304.556641.3671875h2v-1c-.99478-1.2229-2.8734-2-5-2zm-4.4277344 1.4179688c-.2105385.1809232-.4080844.3707755-.5722656.5820312v1h2c.0293316-.0225541.0639123-.0385912.09375-.0605469zm2.109375 2.109375c-.240464.1324675-.4692033.2862057-.6816406.4726562v1h2.15625zm2.375 2.4726562a1.9999995 1.9999995 0 0 0 -2.0566406 2 2 2 0 0 0 4 0 1.9999995 1.9999995 0 0 0 -.0078125-.164062l-1.8300781-1.830079a1.9999995 1.9999995 0 0 0 -.1054688-.005859z" stroke-width="2"/><path d="m1.9800016 1.026713v.004a1.0001 1.000104 0 0 1 .0605-.002 1.0001 1.000104 0 0 1 .6875.302731l11.9550804 11.953178a1.0001 1.000104 0 0 1 .28711.921873v.792973h-.88672a1.0001 1.000104 0 0 1 -.81445-.300781l-11.9550804-11.953177a1.0001 1.000104 0 0 1 -.30273-.718753v-1.000004h.96875z" stroke-width="1.000002"/></g></svg>