<svg height="16" width="16" xmlns="http://www.w3.org/2000/svg"><g fill="#bebebe"><path d="m8 1c-1.1266087 0-2.1047387.6432775-2.6171875 1.5722656l1.6171875 1.6171875v-.1894531c0-.56412.43587-1 1-1s1 .43588 1 1v1h-1.1894531l4.1894531 4.1875v-4.1875h-1v-1c0-1.645-1.35499-3-3-3zm-4 5.8457031v4.1542969h3v2h-5v2h10.15625l-2-2h-1.15625v-1.15625z"/><path d="m1.980002 1.026713v.004a1.0001 1.000104 0 0 1 .0605-.002 1.0001 1.000104 0 0 1 .6875.302731l11.95508 11.953178a1.0001 1.000104 0 0 1 .28711.921873v.792973h-.88672a1.0001 1.000104 0 0 1 -.81445-.300781l-11.95508-11.953177a1.0001 1.000104 0 0 1 -.30273-.718753v-1.000004h.96875z" stroke-width="1.000002"/></g></svg>