<svg height="16" width="16" xmlns="http://www.w3.org/2000/svg"><path d="m2.140625.83203125c-.6446483 0-1.16210967.51941345-1.16210938 1.16406255.00000022.644648.51746138 1.1621093 1.16210938 1.1621093s1.1640623-.5174613 1.1640625-1.1621093c.0000003-.6446491-.5194142-1.16406255-1.1640625-1.16406255zm11.716797 0c-.644648 0-1.16211.51941345-1.16211 1.16406255.000001.644648.517462 1.1621093 1.16211 1.1621093s1.164061-.5174613 1.164062-1.1621093c0-.6446491-.519414-1.16406255-1.164062-1.16406255zm-8.7890626.84765625c-.6446483-.000001-1.1621097.5194135-1.1621094 1.1640625.0000002.508476.3269394.9272395.7792969 1.0859375.1982082-.097544.4170359-.1582031.6523437-.1582031.1159351 0 .2274596.0177987.3359375.0429687.3291559-.204684.5585936-.5528171.5585938-.9707031.0000003-.644649-.5194142-1.1640625-1.1640625-1.1640625zm5.7050786.0761719c-.64465 0-1.1621109.5194135-1.1621099 1.1640625 0 .454433.2650085.8360297.6425779 1.0273437.162621-.061.335936-.0976562.519532-.0976562.183736 0 .358607.0365662.521484.0976562.378143-.191314.642577-.5729107.642578-1.0273437 0-.644649-.519414-1.1640625-1.164062-1.1640625zm-2.773438.6523437c-.6446483-.000001-1.1621097.5194135-1.1621094 1.1640625.0000002.551966.3866448.988882.9003906 1.109375.0853083-.01523.1721118-.0253906.2617188-.0253906.088945 0 .1750111.0103756.2597656.0253906.5145588-.120207.9042967-.557125.9042969-1.109375.0000003-.644649-.5194142-1.1640625-1.1640625-1.1640625zm-5.2050781 1.4257813c-.6446485 0-1.1621096.5194135-1.1621094 1.1640625.0000003.644648.5174614 1.1621093 1.1621094 1.1621093.4809341 0 .8905054-.2872098 1.0683593-.7011718-.008219-.06332-.0195312-.1258863-.0195312-.1914063 0-.158803.032022-.30932.078125-.453125-.0909257-.552923-.5475974-.9804687-1.1269531-.9804687zm10.3691401 0c-.512593 0-.930386.3343257-1.085937.7929687.118666.214208.191406.457402.191406.71875 0 .109502-.012626.2154984-.035156.3183594.210246.294439.53807.4960937.929687.4960937.64465.0000001 1.164062-.5174613 1.164063-1.1621093 0-.644649-.519414-1.1640625-1.164063-1.1640625zm-7.4414058.3476562c-.1983753.09724-.4190838.15625-.6542968.15625-.1151818 0-.2262196-.0162256-.3339844-.0410156-.199681.124847-.3692476.2927777-.4628906.5117188.008078.0627279.0195312.1245931.0195312.1894531 0 .158802-.031904.309437-.078125.453125.0906065.552603.5456446.9785156 1.125.9785156.644648 0 1.1640623-.5174614 1.1640625-1.1621094.0000003-.507788-.3273904-.9262085-.7792969-1.0859375zm4.5312498.1347656c-.3776663.1918541-.6425786.5747919-.6425779 1.0292969 0 .644648.5174609 1.1621094 1.1621099 1.1621094.51195 0 .933286-.3318285 1.089843-.7890625-.119199-.21448-.193359-.4584121-.193359-.7207031 0-.108654.013026-.2142233.035156-.3164063-.108532-.152197-.242142-.2800144-.410156-.3652344-.162877.0609401-.337749.0976563-.521484.0976563-.183597 0-.356911-.0368062-.519532-.0976563zm-2.5136716.7226563c-.514769.120174-.902344.5605923-.9023438 1.1132813.0000001.2600969.0993468.4866334.2421875.6796874.2543943-.201069.5715043-.328125.9199219-.328125.3333363 0 .6375134.1151793.8867188.3007813.031294-.02336.0625971-.0455163.0957031-.0664063.1045466-.1744059.1816405-.3668124.1816406-.5859374.0000003-.5529761-.3906652-.9933983-.90625-1.1132813-.0841684.01476-.1695195.0273437-.2578125.0273437-.0889545 0-.1750436-.0123637-.2597656-.0273437zm-4.2929688 1.796875c-.6446486-.000001-1.1621096.5194135-1.1621094 1.1640625.0000005.644648.5174614 1.1621094 1.1621094 1.1621094.6016975 0 1.0757029-.4567547 1.1386719-1.0410156-.003329-.0405841-.0117187-.0796638-.0117187-.1210938 0-.041434.0083987-.0804937.0117187-.1210938-.063204-.584238-.5371522-1.0429687-1.1386719-1.0429687zm2.6210938 0c-.6015197-.000001-1.0737418.4587307-1.1367188 1.0429687.003329.0405941.0117188.0796638.0117188.1210938 0 .041434-.0083888.0805038-.0117188.1210938.0627421.5842609.5350213 1.0410156 1.1367188 1.0410156.2447859 0 .4593943-.090895.6464844-.21875.018682-.03181.0337744-.0654431.0546874-.0957032-.1665288-.240959-.2636717-.5332272-.2636718-.8476562-.0000002-.33225.1107982-.6359876.2949218-.8847656-.2011287-.165984-.450242-.2792969-.7324218-.2792969zm1.9316406 0c-.256724-.000001-.4820955.1003814-.6738281.2402344.1916686.139321.417265.2382812.6738281.2382812.1978703 0 .3742357-.0622175.5371094-.1484375.028304-.041918.0634171-.0784175.0957031-.1171875-.1847103-.12316-.3933227-.2128906-.6328125-.2128906zm1.7753906 0c-.1968002-.000001-.373167.0608844-.5351562.1464844-.02268.03368-.0508989.06208-.0761719.09375.2034734.255595.3320313.5731061.3320313.9238281-.0000002.314452-.1006743.6066873-.2675782.8476562.0504814.0728841.0937994.1509819.1308594.2324219.129821.04978.2680831.0820313.4160156.0820313.6446484 0 1.1640614-.5174614 1.1640624-1.1621094 0-.644649-.519414-1.1640625-1.1640624-1.1640625zm2.6601564 0c-.644648-.000001-1.16211.5194135-1.162109 1.1640625 0 .644648.517461 1.1621094 1.162109 1.1621094s1.164061-.5174614 1.164062-1.1621094c0-.644649-.519414-1.1640625-1.164062-1.1640625zm-3.5175782.484375c-.0406581.03198-.081121.0640969-.125.0917969-.1047657.175011-.1796878.3681796-.1796876.5878906 0 .133481.0333122.2578431.0742188.3769531.108014.056608.2082775.1249011.2988281.2050781.1023074-.173068.1777343-.3654512.1777344-.5820312.0000001-.260251-.1027203-.4861935-.2460937-.6796875zm-1.8828126.0664063c-.1149716.180724-.1972657.3822362-.1972656.6132812.0000001.216715.0736473.4088933.1757813.5820312.031947-.0283199.0633622-.0564912.0976562-.0820312.0731258-.152271.1210937-.319058.1210938-.5.0000001-.230873-.0821298-.4326412-.1972657-.6132812zm.453125.1640624c.045627.142965.076172.2914818.0761719.4492188 0 .096296-.0098087.18998-.0273437.28125.1464722-.04811.3005327-.0800781.4628906-.0800781.1042959 0 .2063095.0088669.3046875.0292969-.011853-.0756681-.0234374-.1515288-.0234375-.2304688 0-.138394.0251709-.2691174.0605469-.3964844-.1102616.02599-.2237811.0429688-.3417969.0429688-.1802246 0-.3516046-.0369631-.5117188-.0957032zm.5117188.9824219c-.2439958 0-.4581379.09165-.6445312.21875-.0271111.046103-.0561457.0900225-.0878907.1328125.2007988.165877.4499456.2773438.7324219.2773438.2396822 0 .4480141-.0879305.6328125-.2109375-.0854389-.102524-.1609819-.2129925-.2167969-.3359375-.1299794-.04978-.2680831-.0820313-.4160156-.0820313zm-.9648438.5996094c-.024198.02063-.0487327.0414669-.0742187.0605469-.0741349.153296-.1230469.3193941-.1230469.5019531 0 .5969115.4498555 1.0674885 1.0273438 1.1367185.0450776-.00407.0886346-.013672.1347656-.013672.0461312 0 .0896767.00956.1347656.013672.5774565-.069484 1.0292969-.540004 1.0292969-1.1367185 0-.133389-.0351869-.255959-.0761719-.375-.0702679-.036736-.1379978-.0760169-.2011718-.1230469-.2491641.185112-.5534877.296875-.8867188.296875-.3691509 0-.7038493-.1386791-.9648438-.3613281zm-1.7734374.3613281c-.4932335 0-.9066582.3052832-1.0761719.7363284.1373701.225716.2207031.488662.2207031.771484 0 .123887-.0202001.242164-.0488281.357422.0699211.090366.1508956.164239.2441406.230469.1478823-.04914.3026274-.082032.4667969-.082032.255133 0 .4925398.070386.703125.183594.3850982-.189474.654297-.575618.6542968-1.035156.0000001-.644648-.5194146-1.1621094-1.1640624-1.1621094zm5.4355472.0371094c-.644647 0-1.1621098.517461-1.1621098 1.162109-.0000005.424939.2363118.781172.5742188.984375.235612-.155353.515639-.246093.818359-.246093.197338 0 .385812.039565.558594.109375.060511-.056275.102991-.12536.150391-.19336-.02663-.11153-.042969-.226202-.042969-.345703 0-.259023.071055-.500293.1875-.712891-.164792-.4416895-.583126-.757812-1.083984-.757812zm-7.7871098.3085938c-.6446478 0-1.1621083.5174612-1.1621093 1.1621092 0 .644649.5174605 1.164063 1.1621093 1.164063.4932336 0 .9080746-.306698 1.078125-.738282-.137205-.226099-.2207031-.488508-.2207031-.771484 0-.123753.0203342-.242352.0488281-.357422-.2126275-.273791-.5309243-.4589842-.90625-.4589842zm10.1777348 0c-.396328 0-.728011.2073282-.9375.5078122.0267.11146.042968.226203.042968.345703 0 .258241-.071445.49853-.1875.710938.16379.443149.580505.761719 1.082032.761719.644648 0 1.164062-.519414 1.164062-1.164063-.000001-.644648-.519414-1.1621092-1.164062-1.1621092zm-5.2226566 1.3378902c-.5774877.068981-1.0273438.537855-1.0273438 1.134766 0 .644649.5174604 1.164062 1.1621094 1.164062.644648.000001 1.1640625-.519413 1.1640625-1.164062 0-.596713-.4518404-1.065526-1.0292969-1.134766-.0450886.00417-.0886346.013672-.1347656.013672-.0461316 0-.0896886-.009572-.1347656-.013672zm3.0624996.585938c-.12508 0-.238909.034202-.351562.070312.041784.00451.078064.023438.121094.023438.125229 0 .240627-.034003.353515-.070313-.042257-.0046-.079527-.023437-.123047-.023437zm.587891.179687c-.235508.154814-.516561.246094-.818359.246094-.198145 0-.385408-.040808-.558594-.111328-.2271285.211732-.373047.510609-.373047.847656-.000001.644649.517461 1.164063 1.162109 1.164063s1.164063-.519414 1.164063-1.164063c-.000001-.42538-.237099-.779934-.576172-.982422zm-6.9550781.025391c-.3845286.188904-.6542969.573666-.6542969 1.033203 0 .644649.5174604 1.164063 1.1621094 1.164063.644648 0 1.1640625-.519414 1.1640625-1.164063 0-.394171-.2056283-.723745-.5039063-.933594-.1477691.04909-.3029322.083985-.4667968.083985-.2549604 0-.4909472-.070271-.7011719-.183594zm-2.4199219.873047c-.644648 0-1.16210938.517461-1.16210938 1.162109-.00000099.644649.51746138 1.164063 1.16210938 1.164063s1.1640635-.519414 1.1640625-1.164063c0-.644648-.5194145-1.162109-1.1640625-1.162109zm11.716797 0c-.644648 0-1.16211.517461-1.16211 1.162109.000001.644649.517462 1.164063 1.16211 1.164063s1.164062-.519414 1.164062-1.164063c-.000001-.644648-.519414-1.162109-1.164062-1.162109z" fill="#bebebe"/></svg>