<svg height="16" width="16" xmlns="http://www.w3.org/2000/svg"><g fill="#bebebe"><path d="m0 0v1h1 1v-1zm3 0v.5.5c-.0000002 3.1824059 1.2653242 6.2340742 3.515625 8.484375 2.2503007 2.250301 5.301969 3.515625 8.484375 3.515625v1h1v-2h-.5-.5c-2.917574 0-5.7143077-1.15962-7.7773438-3.2226562-2.063036-2.0630363-3.2226563-4.8597702-3.2226562-7.7773438h1v-1zm3 0v1h2v-1zm3 0v1h2v-1zm3 0v1h2v-1zm3 0v1 1h1v-2zm-15 2v1 1h1v-2zm15 1v2h1v-2zm-15 2v2h1v-2zm15 1v2h1v-2zm-15 2v2h1v-2zm15 1v2h1v-2zm-15 2v2h1v-2zm0 3v2h1v-2zm2 1v1h1 1v-1zm3 0v1h2v-1zm3 0v1h2v-1zm3 0v1h2v-1zm3 0v1h2v-1z"/><path d="m1 15v-14h2.5l.0061 2.3134383 1.6607863 3.5983703 2.4450464 3.0909074 4.3364973 2.122116 3.05157.375168v2.5z" fill-opacity=".501961" fill-rule="evenodd"/></g></svg>