<svg height="16" width="16" xmlns="http://www.w3.org/2000/svg"><g fill="#bebebe" fill-rule="evenodd" transform="translate(-461.0002 -401)"><path d="m5.9394531 8.1210938-5.9394531 7.4414062c1.1910297.112578 6.6439382-.469522 9.4618575-3.316176l-.5715002-.380822.7014396-.840111c-.1171277-.04943-.2090765-.06823-.2578125-.06641-.10701.0044-.2358457.04389-.4785156.339844-.3542222.432025-.9936903.490078-1.4199219.128906l-1.2734375-1.076169c-.4220131-.3569151-.4744975-.988477-.1171875-1.4101558.22759-.2694.2228906-.3487437.2128906-.4023437-.0070303-.0383514-.0714752-.1888085-.3183594-.4179687z" transform="translate(461.0002 401)"/><path d="m472.06992 401.57487-4.94709 6.41652c1.4057.96997 1.34982 1.81002.68574 2.596l1.27351 1.07758c.71001-.86587 1.60296-1.01629 2.74294 0 .049-.19592 5.03665-6.21219 5.03665-6.21219z"/></g></svg>