<svg height="16" width="16" xmlns="http://www.w3.org/2000/svg"><path d="m8.3945312.54101562c-.6814527.00000006-1.2304687.55096868-1.2304687 1.23242188 0 .6814531.5490157 1.2304687 1.2304687 1.2304687.395865 0 .7357498-.192529.9589844-.4824218-.0003161-.0126604-.0039062-.0243747-.0039062-.0371094 0-.3135672.0970303-.6041084.2617187-.8457031-.0677101-.6168521-.5816192-1.09765621-1.2167969-1.09765628zm-6.1582031.19335938c-.681453-.00000045-1.2304687.5509684-1.2304687 1.2324219s.5490157 1.2304692 1.2304687 1.2304687c.681453 0 1.2324219-.5490156 1.2324219-1.2304687 0-.6814532-.5509689-1.23242185-1.2324219-1.2324219zm11.8671879.01757812c-.681454.00000005-1.230469.55096878-1.230469 1.23242188 0 .6814532.549015 1.2304687 1.230469 1.2304688.681453.0000002 1.230468-.5490153 1.230468-1.2304688s-.549015-1.23242231-1.230468-1.23242188zm-8.9511722.1875c-.6814531.00000006-1.2304688.54901558-1.2304688 1.23046878 0 .6814531.5490157 1.2304687 1.2304688 1.2304687.681453 0 1.2304697-.5490156 1.2304687-1.2304687.000001-.6814532-.5490157-1.23046872-1.2304687-1.23046878zm5.7050782.31445308c-.681453.0000001-1.232422.5490156-1.232422 1.2304688 0 .6814531.550969 1.2304687 1.232422 1.2304688.681453-.0000002 1.230469-.5490157 1.230469-1.2304688 0-.6814532-.549016-1.2304686-1.230469-1.2304688zm3.28125 2.1640626c-.681453 0-1.230469.5490156-1.230469 1.2304687 0 .6814532.549016 1.2304687 1.230469 1.2304687s1.230469-.5490155 1.230469-1.2304687c0-.6814531-.549016-1.2304688-1.230469-1.2304687zm-11.4277345.0976562c-.681454 0-1.2304695.5490156-1.2304687 1.2304688-.0000001.681453.5490147 1.2304687 1.2304687 1.2304687.409102.0000003.7532042-.2103652.9746094-.5175781-.0435597-.1406612-.0742188-.2866881-.0742188-.4414063 0-.276662.0801595-.5326509.2109375-.7558593-.1893275-.434711-.6056898-.7460941-1.1113281-.7460938zm2.4082031.2695312c-.681454.0000003-1.2304687.5509688-1.2304687 1.2324219 0 .1943044.0640391.3657153.1484375.5253907.2763542-.3294349.685787-.5429687 1.1484375-.5429688.4164495-.0000003.7951196.1691331 1.0683593.4433594.0543348-.1329206.0957032-.2723529.0957032-.4257813 0-.6814531-.5490158-1.2324218-1.2304688-1.2324219zm4.9492184.0351563c-.6814478 0-1.2324215.5490157-1.2324215 1.2304687-.0000002.1889849.0531741.3593864.1308594.515625.0721516-.0106672.143668-.0234375.21875-.0234374.069046 0 .1345531.0124369.2011719.0214843-.0048639-.03567-.0136719-.0701292-.0136719-.1074219 0-.7371471.5339846-1.3508286 1.2343751-1.4804687-.163242-.0888926-.33887-.15625-.539063-.15625zm.8125.40625c-.681453 0-1.2304684.5490157-1.2304684 1.2304687 0 .0613849.0173018.1174898.0273438.1757813.4616576.161127.8171276.538189.9511716 1.0117187.082629.0196387.163267.0449219.251953.0449219.681454 0 1.230469-.5509687 1.230469-1.2324219 0-.6814531-.549015-1.2304687-1.230469-1.2304687zm-5.6953121 1.0507813c-.681453-.0000001-1.2304688.5490156-1.2304688 1.2304687 0 .6814532.5490158 1.2324218 1.2304688 1.2324219.681453.0000004 1.2324219-.5509684 1.2324219-1.2324219s-.5509689-1.2304692-1.2324219-1.2304687zm4 .5429687c-.681454-.0000004-1.2304688.5490153-1.2304688 1.2304687 0 .3864658.1912726.7114591.4707031.9335938.1841688-.6247918.756098-1.0859379 1.4394532-1.0859375.1941016 0 .3783716.0402156.5488276.1074219-.024129-.659991-.5624646-1.1855469-1.2285151-1.1855469zm4.5742191.9589844c-.681454 0-1.230469.5490156-1.230469 1.2304687 0 .6814532.549015 1.2304687 1.230469 1.2304688.681453-.0000001 1.23242-.5490156 1.232422-1.2304688-.000003-.6814531-.550969-1.2304687-1.232422-1.2304687zm-11.8984379.1015625c-.681453 0-1.23046873.5490156-1.23046872 1.2304687-.00000001.6814532.54901572 1.2304687 1.23046872 1.2304688.681453-.0000001 1.2304688-.5490156 1.2304688-1.2304688 0-.6814531-.5490158-1.2304687-1.2304688-1.2304687zm8.0039063.2949218c-.681453-.0000004-1.2324219.5490153-1.2324219 1.2304688 0 .2502564.0929163.4701606.2207031.6640625.2416471.1093887.449671.2793567.6035156.4921875.1283163.0450499.2642866.0742188.4082032.0742188.6814536-.0000003 1.2304686-.5490156 1.2304686-1.2304688 0-.6814531-.549015-1.2304686-1.2304686-1.2304688zm-1.6289063 2.0332032c-.681454-.0000005-1.2304687.5509696-1.2304687 1.2324216 0 .681454.5490157 1.230469 1.2304687 1.230469.3674981 0 .6860149-.165803.9082031-.421875.0156996-.322751.1320895-.616856.3203126-.855469-.0251392-.6591498-.563129-1.1855466-1.2285157-1.1855466zm-3.6601562.4414062c-.681453.0000001-1.2304688.5490154-1.2304688 1.2304684s.5490158 1.230469 1.2304688 1.230469 1.2304687-.549016 1.2304687-1.230469-.5490157-1.2304683-1.2304687-1.2304684zm9.2167971.1777344c-.681453 0-1.230469.549016-1.230469 1.230469s.549016 1.23047 1.230469 1.230468c.681453 0 1.230466-.549015 1.230469-1.230468-.000004-.681453-.549016-1.230469-1.230469-1.230469zm-3.148438.263672c-.6814525 0-1.2304685.549015-1.2304685 1.230469.000001.681453.549016 1.230468 1.2304685 1.230468.681453 0 1.230469-.549015 1.230469-1.230468 0-.681454-.549016-1.230469-1.230469-1.230469zm-8.0898435.054687c-.681454 0-1.2304698.549016-1.2304687 1.230469-.0000001.681453.5490147 1.232422 1.2304687 1.232422.4445677 0 .8177063-.24472 1.0332031-.597656-.3160943-.276667-.5195312-.679131-.5195312-1.13086 0-.189122.0395509-.368158.1035156-.535156-.1823606-.114763-.3848993-.199219-.6171875-.199219zm8.8925785 2.447266c-.233114.147868-.507046.236328-.802735.236328-.068383 0-.133213-.012607-.199219-.021484-.294851.222025-.4941401.559725-.4941401.958984 0 .681453.5490161 1.232422 1.2304691 1.232422s1.230468-.550968 1.230468-1.232422c0-.586743-.416441-1.050267-.964843-1.173828zm-3.2070316.019531c-.681453 0-1.2324209.549016-1.2324219 1.230469.000001.681453.5509689 1.230469 1.2324219 1.230469s1.2304687-.549016 1.2304687-1.230469-.5490157-1.230469-1.2304687-1.230469zm-5.9550782.251953c-.6814528 0-1.2304687.549016-1.2304687 1.230469-.000001.681454.5490147 1.232422 1.2304687 1.232422.6814543 0 1.2304688-.550968 1.2304688-1.232422 0-.681453-.5490158-1.230469-1.2304688-1.230469zm11.8164058 0c-.681452 0-1.230468.549016-1.230468 1.230469-.000001.681454.549016 1.232422 1.230468 1.232422.681455 0 1.23047-.550968 1.230469-1.232422 0-.681453-.549012-1.230469-1.230469-1.230469zm-8.6406245.13086c-.681454 0-1.2304688.549017-1.2304687 1.230468 0 .681455.5490147 1.232422 1.2304687 1.232422.681453 0 1.2324219-.550967 1.2324219-1.232422 0-.681452-.5509689-1.230468-1.2324219-1.230468z" fill="#bebebe"/></svg>