<svg height="16" width="16" xmlns="http://www.w3.org/2000/svg"><path d="m0 0v1h1v1h-1v2h1v1h-1v2h1v1h-1v2h1v1h-1v2h1v1h-1v2h1v-1l3.375-3.375v-5.0566406c-.8927796-1.7029172-1.375-3.6102276-1.375-5.5683594h-1v-1zm3 1h1c0 1.1575311.1899998 2.2937837.5390625 3.375h7.0859375l3.375-3.375h-1v-1h-2v1h-1v-1h-2v1h-1v-1h-2v1h-1v-1h-2v.5zm12 0v1h1v-2h-1zm-3.375 3.375-4.4023438 4.4023438c1.244538 1.2445382 2.7583389 2.1528392 4.4023438 2.6835942zm0 7.085938v.164062h-2.1933594c1.7029174.89278 3.6102274 1.375 5.5683594 1.375v1h1v-2h-.5-.5c-1.157531 0-2.293784-.19-3.375-.539062zm-2.1933594.164062c-1.0647074-.558189-2.050323-1.274932-2.9160156-2.140625l-2.140625 2.140625zm-2.9160156-2.140625.7070312-.7070312c-1.2445379-1.2445382-2.1528387-2.758339-2.6835937-4.4023438h-.1640625v2.1933594c.558189 1.0647074 1.274932 2.0503231 2.140625 2.9160156zm8.484375-6.484375v2h1v-2zm0 3v2h1v-2zm0 3v2h1v-2zm-13 6v1h2v-1zm3 0v1h2v-1zm3 0v1h2v-1zm3 0v1h2v-1zm3 0v1h2v-1z" fill="#bebebe"/></svg>