<svg height="16" width="16" xmlns="http://www.w3.org/2000/svg"><g fill="#bebebe" transform="translate(-261.00015 -667)"><path d="m268 670v10h2v-10z"/><path d="m265.0002 677v1c0 .26528.093.53057.28125.71875l3.71875 3.71875s2.47917-2.47917 3.71875-3.71875c.18814-.18817.28122-.45344.28125-.71875v-1h-1c-.2653 0-.53058.0931-.71875.28125l-2.28125 2.28125-2.28125-2.28125c-.18818-.18811-.45344-.28129-.71875-.28125z"/><path d="m265.00041 672.99999v-1c0-.26528.093-.53057.28125-.71875l3.71875-3.71875s2.47917 2.47917 3.71875 3.71875c.18814.18817.28122.45344.28125.71875v1h-1c-.2653 0-.53058-.0931-.71875-.28125l-2.28125-2.28125-2.28125 2.28125c-.18818.18811-.45344.28129-.71875.28125z"/></g></svg>