<svg height="16" width="16" xmlns="http://www.w3.org/2000/svg"><g fill="#bebebe" transform="translate(-241.00015 -667)"><path d="m244 674v2h10v-2z"/><path d="m251.0002 671v1c0 .25689.12983.52846.3125.71875l2.28125 2.28125-2.28125 2.28125c-.18267.19029-.3125.46186-.3125.71875v1h1c.30945 0 .55232-.0903.75-.28125l3.65625-3.71875-3.65625-3.71875c-.19768-.19095-.44055-.28125-.75-.28125z"/><path d="m247.0002 671v1c0 .25689-.12983.52846-.3125.71875l-2.28125 2.28125 2.28125 2.28125c.18267.19029.3125.46186.3125.71875v1h-1c-.30945 0-.55232-.0903-.75-.28125l-3.65625-3.71875 3.65625-3.71875c.19768-.19095.44055-.28125.75-.28125z"/></g></svg>