<svg height="16" width="16" xmlns="http://www.w3.org/2000/svg"><g fill="#bebebe"><path d="m5.0356571 0c.1456 1.5212571 1.4049143 2.7142857 2.9643429 2.7142857 1.559429 0 2.818743-1.1930286 2.964229-2.7142857z" stroke-width=".15849"/><ellipse cx="6.856984" cy="7.319038" opacity=".5" rx="2.798219" ry="2.747711" stroke-width=".345847"/><g stroke-width=".15849"><path d="m8 12.821371c-1.6589714 0-3 1.3768-3 3.035772v.142857h6c0-.05143 0-.09143 0-.142857 0-1.658972-1.341029-3.035772-3-3.035772z"/><path d="m16 4.7857143c-1.623771.037714-2.928571 1.3669714-2.928571 3 0 1.6329143 1.3048 2.9618287 2.928571 2.9999997z"/><path d="m0 4.7857143v5.9999997c1.6257143-.03886 2.9285714-1.3651426 2.9285714-2.9999997 0-1.6347429-1.3032-2.9613714-2.9285714-3z"/><path d="m13.107086 0c.143314 1.4978286 1.366743 2.6782857 2.892914 2.7142857v-2.7142857z"/><path d="m0 0v2.7142857c1.5297143-.0365714 2.7516571-1.2131428 2.8928-2.7142857z"/><path d="m16 12.857143c-1.623429.03886-2.928571 1.367314-2.928571 3v.142857h2.928571z"/><path d="m0 12.821371v3.178629h2.9285714c0-.05143 0-.09143 0-.142857 0-1.634972-1.3029714-2.996572-2.9285714-3.035772z"/></g><circle cx="8.776858" cy="8.587337" r="2.651893" stroke-width=".33076"/></g></svg>