<svg height="16" width="16" xmlns="http://www.w3.org/2000/svg"><g fill="#bebebe"><path d="m3.171638 1.7571443 11.071068 11.0710677-1.414214 1.414214-11.071068-11.0710681z"/><path d="m13.983534 8.3266799.707107.7071068c.187581.1875812.309408.4409305.309359.7071067v5.2591066s-3.506076 0-5.2591067 0c-.2660913-.000021-.5194831-.121778-.7071068-.309359l-.7071068-.707107.7071068-.707107c.1875955-.187595.4410084-.309345.7071068-.309359h3.2261747v-3.2261746c.000049-.2660772.121728-.5195325.309359-.7071067z"/><path d="m7.673 2.0161457-.707073-.7071068c-.187572-.1875813-.440909-.30940869-.707073-.30935919h-5.25885402v5.25910669c.00002202.2660913.12177202.5194831.30934502.7071068l.707072.7071068.707073-.7071068c.187587-.1875955.30933-.4410084.309344-.7071068v-3.2261747h3.22602c.266065-.0000495.519508-.1217284.707073-.3093592z" stroke-width=".999976"/></g></svg>