<svg height="16" width="16" xmlns="http://www.w3.org/2000/svg"><g fill="#bebebe"><path d="m12.828362 1.7571443-11.0710678 11.0710677 1.4142135 1.414214 11.0710683-11.0710681z"/><path d="m2.016466 8.3266799-.7071068.7071068c-.1875813.1875812-.30940868.4409305-.3093592.7071067v5.2591066h5.2591067c.2660913-.000021.5194831-.121778.7071068-.309359l.7071068-.707107-.7071068-.707107c-.1875955-.187595-.4410084-.309345-.7071068-.309359h-3.2261747v-3.2261746c-.0000495-.2660772-.1217284-.5195325-.3093592-.7071067z"/><path d="m8.327 2.0161457.707073-.7071068c.187572-.1875813.440909-.30940869.707073-.30935919h5.258854v5.25910669c-.000022.2660913-.121772.5194831-.309345.7071068l-.707072.7071068-.707073-.7071068c-.187587-.1875955-.30933-.4410084-.309344-.7071068v-3.2261747h-3.22602c-.266065-.0000495-.519508-.1217284-.707073-.3093592z" stroke-width=".999976"/></g></svg>