<svg height="16" width="16" xmlns="http://www.w3.org/2000/svg"><g fill="#bebebe"><path d="m8.0917969 1.3085938c-.6500243-.000002-1.1738295.5238041-1.1738281 1.1738281-.0000002.065964.026737.1225979.037109.1855469.2755352-.3654431.7097931-.6054698 1.2011722-.6054688.4327395.000003.822294.1850636 1.0976562.4785156.00106-.020559.011719-.037764.011719-.058594.0000013-.65002-.523808-1.1738242-1.1738281-1.1738281z"/><path d="m11.03125 1.3417969c-.650024-.000001-1.1738294.5238041-1.1738281 1.1738281-.0000004.179717.047465.3440758.1191406.4960938.2756065-.296431.6663115-.484376 1.1015625-.484375.402487.0000029.768247.1596397 1.039063.4179687.05253-.133656.08594-.2769305.08594-.4296875.000001-.65002-.521855-1.1738241-1.171875-1.1738281z"/><path d="m5.1308594 1.3847656c-.6500243-.000002-1.1738292.5238032-1.1738282 1.1738282-.0000003.1797159.047465.3442917.1191407.4960937.275513-.295262.6653421-.4824229 1.0996093-.4824219.4029294.000002.7681569.1610889 1.0390626.4199219.053497-.134538.087891-.2793678.087891-.4335937.0000012-.6500201-.5218549-1.1738242-1.171875-1.1738282z"/><path d="m13.966797 2.0078125c-.650024 0-1.17383.5238031-1.173828 1.1738281-.000002.510485.32771.9334801.78125 1.0957032.129097-.036152.261941-.062501.402343-.0625.137386.000001.26792.023927.394532.058594.447562-.165343.769532-.5855889.769531-1.0917969.000001-.65002-.523808-1.1738221-1.173828-1.1738281z"/><path d="m2.1699219 2.0175781c-.6500243-.000001-1.17382941.5238041-1.17382815 1.1738281-.00000086.4439081.25524405.8141189.61718745 1.0136719.172647-.069084.3597643-.109375.5566407-.109375.1968751.000002.3839939.040291.5566406.109375.3619434-.199555.6171884-.5697669.6171875-1.0136719.0000013-.6500199-.523808-1.1738231-1.1738281-1.1738281z"/><path d="m8.15625 6.84375c-.6500243-.000001-1.1738294.5238041-1.1738281 1.1738281-.0000013.650024.5238038 1.1738301 1.1738281 1.1738281.6500201-.000004 1.1718763-.5238081 1.171875-1.1738281.0000013-.65002-.5218549-1.1738231-1.171875-1.1738281z"/><path d="m2.1875 7.109375c-.00602.00007-.011548.00195-.017578.00195-.00265 0-.00516.000014-.00781 0-.6422298.0089341-1.1582068.525509-1.1582058 1.169925-.0000012.650024.5238039 1.1738291 1.1738282 1.1738281.6500201-.000004 1.1718762-.5238081 1.171875-1.1738281.0000012-.646548-.516934-1.166315-1.1621094-1.171875z"/><path d="m13.884766 7.2207031c-.600341.052809-1.072267.5396579-1.072266 1.1542969-.000001.650024.521847 1.1738291 1.171875 1.1738281.65002-.000004 1.173829-.5238081 1.173828-1.1738281.000001-.616638-.476733-1.1042499-1.080078-1.1542969-.03423.00234-.06675.00976-.101563.00977-.0315 0-.06077-.00785-.0918-.00977z"/><path d="m11.072266 7.9394531c-.650025-.000001-1.1738298.5238041-1.1738285 1.1738281-.0000013.650025.5238035 1.1718768 1.1738285 1.1718748.65002-.000004 1.171876-.5218548 1.171875-1.1718748.000001-.6500199-.521855-1.1738231-1.171875-1.1738281z"/><path d="m5.1679688 7.9941406c-.6500243-.000002-1.1738294.5238032-1.1738282 1.1738282-.0000012.650024.5238037 1.1738292 1.1738282 1.1738282.6500199-.000005 1.1738293-.5238083 1.1738281-1.1738282.0000012-.6500201-.5238081-1.1738242-1.1738281-1.1738282z"/><path d="m13.972656 9.9316406c-.650024-.000002-1.173829.5218504-1.173828 1.1718754-.000001.650024.523804 1.173829 1.173828 1.173828.65002-.000005 1.17383-.523808 1.173828-1.173828.000002-.65002-.523808-1.1718714-1.173828-1.1718754z"/><path d="m2.1738281 9.9648438c-.6500243-.000002-1.17382936.5238042-1.1738281 1.1738282-.00000126.650024.5238038 1.173829 1.1738281 1.173828.6500201-.000005 1.1718763-.523808 1.171875-1.173828.0000013-.65002-.5218549-1.1738242-1.171875-1.1738282z"/><path d="m8.15625 11.521484c-.6500243-.000001-1.1738294.523804-1.1738281 1.173828-.0000013.650024.5238038 1.17383 1.1738281 1.173829.6500201-.000005 1.1718763-.523809 1.171875-1.173829.0000013-.650021-.5218549-1.173823-1.171875-1.173828z"/><path d="m5.1679688 11.742188c-.6500244-.000003-1.1738294.523803-1.1738282 1.173828-.0000012.650024.5238038 1.173829 1.1738282 1.173828.65002-.000005 1.1738293-.523808 1.1738281-1.173828.0000012-.650021-.5238082-1.173824-1.1738281-1.173828z"/><path d="m11.072266 11.90625c-.650025-.000001-1.1738298.523804-1.1738285 1.173828-.0000013.650024.5238035 1.17383 1.1738285 1.173828.65002-.000004 1.171876-.523808 1.171875-1.173828.000001-.65002-.521855-1.173823-1.171875-1.173828z"/><path d="m13.972656 12.695312c-.650024-.000002-1.173829.523804-1.173828 1.173829-.000001.650024.523804 1.173829 1.173828 1.173828.65002-.000005 1.17383-.523808 1.173828-1.173828.000002-.650021-.523808-1.173824-1.173828-1.173829z"/><path d="m2.1738281 12.730469c-.6500243-.000002-1.17382936.52185-1.1738281 1.171875-.00000126.650024.5238038 1.173825 1.1738281 1.173828.6500201-.000005 1.1718763-.523808 1.171875-1.173828.0000013-.650021-.5218549-1.171871-1.171875-1.171875z"/><path d="m2.1795938 4.429297c-.00602.00007-.011548.002-.017578.002-.00265 0-.00516.000014-.00781 0-.6422298.0089-1.1582068.525509-1.1582058 1.169925-.0000012.650024.5238039 1.173829 1.1738282 1.173828.6500201-.000004 1.1718762-.523808 1.171875-1.173828.0000012-.646548-.516934-1.166315-1.1621094-1.171875z"/><path d="m5.1757812 2.9082031c-.00602.00007-.0115481.0019531-.0175781.0019531-.00265 0-.0051625.0000141-.0078125 0-.6422298.0089001-1.1582041.5255059-1.1582031 1.1699219-.0000004.2397485.0883738.4493063.2109375.6347657.257525-.2132909.582298-.3485146.9433594-.3535157.003421.0000181.0063556 0 .0097656 0 .007775 0 .0156775-.0018628.0234375-.0019531.3634896.0031325.6906636.1369512.9492187.3515625.1209385-.1848156.2089849-.3924921.2089844-.6308594.0000012-.646548-.516934-1.166315-1.1621094-1.171875z"/><path d="m8.15625 2.3964844c-.00602.00007-.0115481.0019531-.0175781.0019531-.00265 0-.0051625.000014-.0078125 0-.6422298.0089-1.1582042.5255059-1.1582032 1.1699219-.0000004.2178483.075035.4094554.1777344.5839844.2673839-.2558769.6292678-.4143791 1.0292969-.4199219.003419.000018.0063456 0 .0097656 0 .007774 0 .0137244-.0038161.0214844-.0039063.3719344.0032053.7077299.1435419.96875.3671875.0817735-.1603907.1386722-.334259.1386719-.5273437.0000012-.646548-.516934-1.166315-1.1621094-1.171875z"/><path d="m11.078125 2.8613281c-.006.00007-.011548.0019531-.017578.0019531-.0026 0-.005213.0000141-.007813 0-.64223.0089001-1.1582038.5255059-1.1582028 1.1699219-.0000003.2286011.0810849.4292887.1933598.609375.26457-.2417712.61269-.3950232 1-.4003906.00336.0000179.006465 0 .009765 0 .00777 0 .015738-.0018629.023438-.0019531.366262.0031564.695782.1397545.955078.3574218.095113-.1698867.164063-.3550978.164062-.5644531.000001-.646548-.516933-1.166315-1.162109-1.171875z"/><path d="m13.988586 4.531247c-.006.00007-.01155.002-.01758.002-.0026 0-.0052.000014-.0078 0-.64223.0089-1.158207.525509-1.158206 1.169925-.000001.650024.523804 1.173829 1.173829 1.173828.65002-.000004 1.171876-.523808 1.171875-1.173828.000001-.646548-.516934-1.166315-1.16211-1.171875z"/><path d="m5.2145938 4.736247c-.00602.00007-.011548.002-.017578.002-.00265 0-.00516.000014-.00781 0-.6422298.0089-1.1582068.525509-1.1582058 1.169925-.0000012.650024.5238039 1.173829 1.1738282 1.173828.6500201-.000004 1.1718762-.523808 1.171875-1.173828.0000012-.646548-.516934-1.166315-1.1621094-1.171875z"/><path d="m8.2085938 4.068247c-.00602.00007-.011548.002-.017578.002-.00265 0-.00516.000014-.00781 0-.6422298.0089-1.1582068.525509-1.1582058 1.169925-.0000012.650024.5238039 1.173829 1.1738282 1.173828.6500201-.000004 1.1718762-.523808 1.171875-1.173828.0000012-.646548-.516934-1.166315-1.1621094-1.171875z"/><path d="m11.119586 4.580247c-.006.00007-.01155.002-.01758.002-.0026 0-.0052.000014-.0078 0-.64223.0089-1.158207.525509-1.158206 1.169925-.0000012.650024.523804 1.173829 1.173828 1.173828.65002-.000004 1.171876-.523808 1.171875-1.173828.000001-.646548-.516934-1.166315-1.162109-1.171875z"/></g></svg>