<svg height="16" width="16" xmlns="http://www.w3.org/2000/svg"><g fill="#bebebe"><ellipse cx="13.876471" cy="1.979006" rx="1.221629" ry="1.256063"/><ellipse cx="13.876471" cy="7.979005" rx="1.221629" ry="1.256063"/><ellipse cx="13.876471" cy="13.979005" rx="1.221629" ry="1.256063"/><ellipse cx="7.876471" cy="1.979006" rx="1.221629" ry="1.256063"/><ellipse cx="2.079861" cy="1.979006" rx="1.221629" ry="1.256063"/><ellipse cx="2.079861" cy="7.979005" rx="1.221629" ry="1.256063"/><ellipse cx="2.079861" cy="13.979005" rx="1.221629" ry="1.256063"/><ellipse cx="7.876471" cy="13.979005" rx="1.221629" ry="1.256063"/><ellipse cx="13.876471" cy="5.063749" rx="1.221629" ry="1.256063"/><ellipse cx="13.876471" cy="11.063751" rx="1.221629" ry="1.256063"/><ellipse cx="2.079861" cy="5.063749" rx="1.221629" ry="1.256063"/><ellipse cx="2.079861" cy="11.063751" rx="1.221629" ry="1.256063"/><ellipse cx="10.893421" cy="1.979006" rx="1.221629" ry="1.256063"/><ellipse cx="5.096811" cy="1.979006" rx="1.221629" ry="1.256063"/><ellipse cx="5.096811" cy="13.979005" rx="1.221629" ry="1.256063"/><ellipse cx="10.893421" cy="13.979005" rx="1.221629" ry="1.256063"/><ellipse cx="11.010726" cy="4.894159" rx=".628089" ry=".645793"/><ellipse cx="11.010726" cy="7.979005" rx=".628089" ry=".645793"/><ellipse cx="11.010726" cy="11.06385" rx=".628089" ry=".645793"/><ellipse cx="7.92588" cy="4.894159" rx=".628089" ry=".645793"/><ellipse cx="4.945606" cy="4.894159" rx=".628089" ry=".645793"/><ellipse cx="4.945606" cy="7.979005" rx=".628089" ry=".645793"/><ellipse cx="4.945606" cy="11.06385" rx=".628089" ry=".645793"/><ellipse cx="7.92588" cy="11.06385" rx=".628089" ry=".645793"/><circle cx="7.957948" cy="7.994113" r=".359546"/></g></svg>