<svg height="16" width="16" xmlns="http://www.w3.org/2000/svg" xmlns:xlink="http://www.w3.org/1999/xlink"><linearGradient id="a"><stop offset="0" stop-color="#bebebe"/><stop offset=".41" stop-color="#bebebe" stop-opacity=".676667"/><stop offset="1" stop-color="#bebebe" stop-opacity="0"/></linearGradient><linearGradient id="b"><stop offset="0" stop-color="#bebebe"/><stop offset=".5" stop-color="#bebebe" stop-opacity=".75902"/><stop offset="1" stop-color="#bebebe" stop-opacity="0"/></linearGradient><radialGradient id="c" cx="4.75" cy="4.75" gradientUnits="userSpaceOnUse" r="1.25" xlink:href="#b"/><radialGradient id="d" cx="4.75" cy="11.25" gradientUnits="userSpaceOnUse" r="1.25" xlink:href="#b"/><radialGradient id="e" cx="11.25" cy="4.75" gradientUnits="userSpaceOnUse" r="1.25" xlink:href="#b"/><radialGradient id="f" cx="11.25" cy="11.25" gradientUnits="userSpaceOnUse" r="1.25" xlink:href="#b"/><radialGradient id="g" cx="8" cy="4.75" gradientUnits="userSpaceOnUse" r="1" xlink:href="#a"/><radialGradient id="h" cx="8" cy="11.25" gradientUnits="userSpaceOnUse" r="1" xlink:href="#a"/><radialGradient id="i" cx="11.25" cy="8" gradientUnits="userSpaceOnUse" r="1" xlink:href="#a"/><radialGradient id="j" cx="4.75" cy="8" gradientUnits="userSpaceOnUse" r="1" xlink:href="#a"/><radialGradient id="k" cx="8" cy="8" gradientUnits="userSpaceOnUse" r="1.682"><stop offset="0" stop-color="#bebebe" stop-opacity=".642202"/><stop offset="1" stop-color="#bebebe" stop-opacity="0"/></radialGradient><g fill="#bebebe"><circle cx="1.5" cy="1.5" r="1.25" stroke-width=".155908"/><circle cx="4.75" cy="1.5" r="1" stroke-width=".124726"/><circle cx="-14.5" cy="1.5" r="1.25" stroke-width=".155908" transform="scale(-1 1)"/><circle cx="-11.25" cy="1.5" r="1" stroke-width=".124726" transform="scale(-1 1)"/><circle cx="-8" cy="1.5" r="1.25" stroke-width=".155908" transform="scale(-1 1)"/><circle cx="1.5" cy="4.75" r="1" stroke-width=".124726"/><circle cx="-1.5" cy="14.5" r="1.25" stroke-width=".155908" transform="scale(-1 1)"/><circle cx="-1.5" cy="11.25" r="1" stroke-width=".124726" transform="scale(-1 1)"/><circle cx="-1.5" cy="8" r="1.25" stroke-width=".155908" transform="scale(-1 1)"/><circle cx="14.5" cy="4.75" r="1" stroke-width=".124726"/><circle cx="-14.5" cy="14.5" r="1.25" stroke-width=".155908" transform="scale(-1 1)"/><circle cx="-14.5" cy="11.25" r="1" stroke-width=".124726" transform="scale(-1 1)"/><circle cx="-14.5" cy="8" r="1.25" stroke-width=".155908" transform="scale(-1 1)"/><circle cx="4.75" cy="14.5" r="1" stroke-width=".124726"/><circle cx="-11.25" cy="14.5" r="1" stroke-width=".124726" transform="scale(-1 1)"/><circle cx="-8" cy="14.5" r="1.25" stroke-width=".155908" transform="scale(-1 1)"/></g><circle cx="4.75" cy="4.75" fill="url(#c)" opacity=".761" r="1.25" stroke-width=".155908"/><circle cx="8" cy="4.75" fill="url(#g)" opacity=".678" r="1" stroke-width=".124726"/><circle cx="8" cy="8" fill="url(#k)" opacity=".56" r="1.682" stroke-width=".209789"/><circle cx="4.75" cy="11.25" fill="url(#d)" opacity=".761" r="1.25" stroke-width=".155908"/><circle cx="11.25" cy="4.75" fill="url(#e)" opacity=".761" r="1.25" stroke-width=".155908"/><circle cx="11.25" cy="11.25" fill="url(#f)" opacity=".761" r="1.25" stroke-width=".155908"/><circle cx="8" cy="11.25" fill="url(#h)" opacity=".678" r="1" stroke-width=".124726"/><circle cx="11.25" cy="8" fill="url(#i)" opacity=".678" r="1" stroke-width=".124726"/><circle cx="4.75" cy="8" fill="url(#j)" opacity=".678" r="1" stroke-width=".124726"/></svg>