<svg height="16" width="16" xmlns="http://www.w3.org/2000/svg" xmlns:xlink="http://www.w3.org/1999/xlink"><use fill="#bebebe" height="1250" transform="matrix(.99277526 .11998527 -.11999215 .99277526 10.362069 -.127029)" width="1250" xlink:href="#a"/><use fill="#bebebe" height="1250" transform="matrix(.99308429 .11740015 -.11740689 .99308429 13.743315 3.046894)" width="1250" xlink:href="#a"/><use fill="#bebebe" height="1250" transform="matrix(.97078977 .23992483 -.2399386 .97078977 13.969343 6.112912)" width="1250" xlink:href="#a"/><use fill="#bebebe" height="1250" transform="matrix(.98985891 .14204996 -.14205812 .9898589 3.629607 -.147685)" width="1250" xlink:href="#a"/><use fill="#bebebe" height="1250" transform="translate(13.543589 -.000004)" width="1250" xlink:href="#a"/><use fill="#bebebe" height="1250" transform="matrix(.95201323 .30604811 -.30606567 .95201323 .555646 6.067215)" width="1250" xlink:href="#a"/><use fill="#bebebe" height="1250" transform="matrix(.98932622 .14571344 -.1457218 .98932623 .2504 9.363039)" width="1250" xlink:href="#a"/><use fill="#bebebe" height="1250" transform="matrix(.96470281 .26333347 -.26334859 .9647028 7.242944 -.246853)" width="1250" xlink:href="#a"/><use fill="#bebebe" height="1250" transform="matrix(.98660743 .16310814 -.1631175 .98660742 .281983 3.004531)" width="1250" xlink:href="#a"/><use fill="#bebebe" height="1250" transform="matrix(.70869099 .70549877 -.70553927 .70869099 4.875574 2.831274)" width="1250" xlink:href="#a"/><use fill="#bebebe" height="1250" transform="matrix(.74047789 .67206144 -.67210001 .74047789 4.784124 9.160754)" width="1250" xlink:href="#a"/><use fill="#bebebe" height="1250" transform="matrix(.45062141 .89268954 -.89274078 .45062141 8.865739 3.03633)" width="1250" xlink:href="#a"/><use fill="#bebebe" height="1250" transform="matrix(.75216331 .65895783 -.65899565 .75216332 11.521118 2.813971)" width="1250" xlink:href="#a"/><use fill="#bebebe" height="1250" transform="matrix(.42202452 .9065584 -.90661044 .42202452 5.535658 6.238297)" width="1250" xlink:href="#a"/><use fill="#bebebe" height="1250" transform="matrix(.5013395 .86522583 -.8652755 .5013395 8.762513 9.328154)" width="1250" xlink:href="#a"/><use fill="#bebebe" height="1250" transform="matrix(.03141076 .99947788 -.99953524 .03141076 9.525273 6.769147)" width="1250" xlink:href="#a"/><use fill="#bebebe" height="1250" transform="matrix(.49416251 .8693446 -.8693945 .49416251 12.16347 6.16379)" width="1250" xlink:href="#a"/><use fill="#bebebe" height="1250" transform="matrix(.78023417 .62546958 -.62550548 .78023416 11.433635 9.149738)" width="1250" xlink:href="#a"/><use fill="#bebebe" height="1250" transform="matrix(.99577433 .09183135 -.09183663 .99577434 10.312626 12.586268)" width="1250" xlink:href="#a"/><use fill="#bebebe" height="1250" transform="matrix(.99468363 .10297505 -.10298095 .99468364 13.717944 9.403777)" width="1250" xlink:href="#a"/><use fill="#bebebe" height="1250" transform="translate(0 12.685527)" width="1250" xlink:href="#a"/><use fill="#bebebe" height="1250" transform="matrix(.99382273 .11097601 -.11098238 .99382273 3.574368 12.567168)" width="1250" xlink:href="#a"/><use fill="#bebebe" height="1250" transform="matrix(.97576267 .21882521 -.21883777 .97576267 7.157384 12.471963)" width="1250" xlink:href="#a"/><use fill="#bebebe" height="1250" transform="translate(13.543589 12.685527)" width="1250" xlink:href="#a"/><path id="a" d="m.648116.115775h1.257989v3.03606h-1.257989z" fill="#bebebe" stroke-width=".33442"/></svg>