<svg height="16" width="16" xmlns="http://www.w3.org/2000/svg"><g fill="#bebebe"><path d="m14.421875 6.5a7 7 0 0 1 .07813 1 7 7 0 0 1 -7 7 7 7 0 0 1 -1-.08008v1.58008h9.499995v-9.5z" opacity=".75"/><path d="m13.234375 3.5a7 7 0 0 1 1.09375 2.5h.671875v.5h1v-3zm-9.734375 9.742188v2.757812h3v-1h-.5v-.666016a7 7 0 0 1 -2.5-1.091796z" opacity=".5"/><path d="m12.851562 3a7 7 0 0 1 .701172 1h2.447266v-1zm-9.851562 9.861328v3.138672h1v-2.445312a7 7 0 0 1 -1-.69336z" fill-rule="evenodd"/><circle cx="7.5" cy="7.5" fill-opacity=".501961" r="7"/></g><circle cx="7.5" cy="7.5" fill="none" r="7" stroke="#bebebe" stroke-linecap="square"/></svg>