<svg height="16" width="16" xmlns="http://www.w3.org/2000/svg"><g fill="#bebebe"><path d="m8 .5a7.5 7.5 0 0 0 -.0527344.00195312 7.5 7.5 0 0 1 .0917969 0 7.5 7.5 0 0 0 -.0390625-.00195312zm-.3046875.01171875a7.5 7.5 0 0 0 -.4003906.02929687 7.5 7.5 0 0 1 .4003906-.02929687zm.7714844.01171875a7.5 7.5 0 0 1 .3652343.02734375 7.5 7.5 0 0 0 -.3652343-.02734375zm-1.5878907.06640625a7.5 7.5 0 0 0 -.3203124.05664063 7.5 7.5 0 0 1 .3203124-.05664063zm2.3769532.02539063a7.5 7.5 0 0 1 .2988281.05078124 7.5 7.5 0 0 0 -.2988281-.05078124zm-3.1132813.125a7.5 7.5 0 0 0 -.3144531.08789062 7.5 7.5 0 0 1 .3144531-.08789062zm3.8593749.04101562a7.5 7.5 0 0 1 .28125.078125 7.5 7.5 0 0 0 -.28125-.078125zm-4.5703124.1796875a7.5 7.5 0 0 0 -.3046875.1191406 7.5 7.5 0 0 1 .3046875-.1191406zm5.2500004.0449219a7.5 7.5 0 0 1 .3125.1210937 7.5 7.5 0 0 0 -.3125-.1210937zm-5.9453129.2480468a7.5 7.5 0 0 0 -.2890625.1484376 7.5 7.5 0 0 1 .2890625-.1484376zm6.6191409.0488282a7.5 7.5 0 0 1 .308593.15625 7.5 7.5 0 0 0 -.308593-.15625zm.390625.2070312-3.746094 6.4902344h7.5a7.5 7.5 0 0 0 -3.753906-6.4902344zm-3.746094 6.4902344-3.7460938 6.490234a7.5 7.5 0 0 0 3.7460938 1.009766 7.5 7.5 0 0 0 3.744141-1.013672zm0 0-3.7441406-6.4863281a7.5 7.5 0 0 0 -3.7558594 6.4863281zm-7.5 0a7.5 7.5 0 0 0 .03125.6269531 7.5 7.5 0 0 1 -.03125-.6269531zm14.972656.5527344a7.5 7.5 0 0 1 -.037109.3789062 7.5 7.5 0 0 0 .037109-.3789062zm-14.89062475.4882812a7.5 7.5 0 0 0 .04882813.3261719 7.5 7.5 0 0 1 -.04882813-.3261719zm14.79687475.2539063a7.5 7.5 0 0 1 -.070312.359375 7.5 7.5 0 0 0 .070312-.359375zm-14.65429662.4941406a7.5 7.5 0 0 0 .078125.3027345 7.5 7.5 0 0 1 -.078125-.3027345zm14.48437462.2499995a7.5 7.5 0 0 1 -.099609.328126 7.5 7.5 0 0 0 .099609-.328126zm-14.27343712.457032a7.5 7.5 0 0 0 .11523432.314453 7.5 7.5 0 0 1 -.11523432-.314453zm14.03710912.248047a7.5 7.5 0 0 1 -.142578.33789 7.5 7.5 0 0 0 .142578-.33789zm-13.7597654.425781a7.5 7.5 0 0 0 .15625.322266 7.5 7.5 0 0 1 -.15625-.322266zm13.4589844.240234a7.5 7.5 0 0 1 -.185547.341797 7.5 7.5 0 0 0 .185547-.341797zm-13.1035156.431641a7.5 7.5 0 0 0 .1777344.289062 7.5 7.5 0 0 1 -.1777344-.289062zm12.7226566.226562a7.5 7.5 0 0 1 -.205078.300782 7.5 7.5 0 0 0 .205078-.300782zm-12.3085941.394532a7.5 7.5 0 0 0 .2128906.279297 7.5 7.5 0 0 1 -.2128906-.279297zm11.8710941.214843a7.5 7.5 0 0 1 -.234375.28125 7.5 7.5 0 0 0 .234375-.28125zm-11.3945316.365235a7.5 7.5 0 0 0 .2285156.246093 7.5 7.5 0 0 1 -.2285156-.246093zm10.8984376.197265a7.5 7.5 0 0 1 -.267578.257813 7.5 7.5 0 0 0 .267578-.257813zm-10.3671876.330078a7.5 7.5 0 0 0 .2636718.230469 7.5 7.5 0 0 1 -.2636718-.230469zm9.8203126.173829a7.5 7.5 0 0 1 -.285156.228515 7.5 7.5 0 0 0 .285156-.228515zm-9.2460939.292968a7.5 7.5 0 0 0 .2890625.205079 7.5 7.5 0 0 1 -.2890625-.205079zm8.6347659.169922a7.5 7.5 0 0 1 -.285157.183594 7.5 7.5 0 0 0 .285157-.183594z" fill-opacity=".501961"/><path d="m8 .0000005c-4.412355 0-8 3.5876443-8 8 0 4.4123555 3.587645 7.9999995 8 7.9999995 4.412356 0 8-3.587644 8-7.9999995 0-4.4123557-3.587644-8-8-8zm0 1c3.871916 0 7 3.1280844 7 7 0 3.8719155-3.128084 6.9999995-7 6.9999995-3.871915 0-7-3.128084-7-6.9999995 0-3.8719156 3.128085-7 7-7z"/></g></svg>