<svg height="16" width="16" xmlns="http://www.w3.org/2000/svg"><g fill="#bebebe"><path d="m14.029297 10a7 7 0 0 1 -4.029297 4.035156v1.964844h6v-6z" opacity=".75"/><path d="m13.234375 3.5a7 7 0 0 1 1.09375 2.5h.671875v1h-.517578a7 7 0 0 1 .017578.5 7 7 0 0 1 -.294922 2h1.794922v-6zm-9.734375 9.742188v2.757812h6v-1.798828a7 7 0 0 1 -2 .298828 7 7 0 0 1 -.5-.025391v.525391h-1v-.666016a7 7 0 0 1 -2.5-1.091796z" opacity=".5"/><path d="m12.851562 3a7 7 0 0 1 .701172 1h2.447266v-1zm-9.851562 9.861328v3.138672h1v-2.445312a7 7 0 0 1 -1-.69336z" fill-rule="evenodd"/><path d="m14.333984 9a7 7 0 0 1 -.304687 1h1.970703v-1zm-4.333984 5.035156a7 7 0 0 1 -1 .292969v1.671875h1z" fill-rule="evenodd"/><circle cx="7.5" cy="7.5" fill-opacity=".501961" r="7"/><path d="m7.5 0c-4.136213 0-7.5 3.363787-7.5 7.5s3.363787 7.5 7.5 7.5 7.5-3.363787 7.5-7.5-3.363787-7.5-7.5-7.5zm0 1c3.595773 0 6.5 2.904227 6.5 6.5s-2.904227 6.5-6.5 6.5-6.5-2.904227-6.5-6.5 2.904227-6.5 6.5-6.5z"/></g></svg>