<svg height="16" width="16" xmlns="http://www.w3.org/2000/svg"><path d="m-17.025391-12.542969h-7.050781v-.957031q0-1.601563.644531-2.832031.644532-1.25 2.714844-3.164063l1.25-1.132812q1.113281-1.015625 1.621094-1.914063.527344-.898437.527344-1.796875 0-1.367187-.9375-2.128906-.9375-.78125-2.617188-.78125-1.582031 0-3.417969.664063-1.835937.644531-3.828125 1.933593v-6.132812q2.363282-.820313 4.316407-1.210938 1.953125-.390625 3.769531-.390625 4.765625 0 7.265625 1.953125 2.5 1.933594 2.5 5.664063 0 1.914062-.761719 3.4375-.761719 1.503906-2.597656 3.242187l-1.25 1.113282q-1.328125 1.210937-1.738281 1.953124-.410157.722657-.410157 1.601563zm-7.050781 2.8906252h7.050781v6.953125h-7.050781z" fill="#bebebe" transform="matrix(.5052779 0 0 .50526316 18.164981 16.363816)"/></svg>