<svg height="16" width="16" xmlns="http://www.w3.org/2000/svg"><path d="m6.5 6.5h9.5v9.5h-9.5z" fill="#bebebe" opacity=".75"/><path d="m3.5 3.5v.1660156 5.8339844 6.5h3v-1h-.5v-1h.5v-1h-.5v-1h.5v-1h-.5v-1h.5v-1h-.5v-1h.5v-1h-.5v-1h1v.5h1v-.5h1v.5h1v-.5h1v.5h1v-.5h1v.5h1v-.5h1v.5h1v-3z" fill="#bebebe" opacity=".5"/><path d="m3.5 16v-12.5h12.499997" fill="none" stroke="#bebebe"/><g fill="#bebebe"><path d="m7.5.5a7 7 0 0 0 -7 7 7 7 0 0 0 2.5 5.361328v-9.861328h9.851563a7 7 0 0 0 -5.351563-2.5z" fill-opacity=".501961"/><path d="m7.5 0c-4.136213 0-7.5 3.3637867-7.5 7.5 0 2.4468291 1.182161 4.616565 3 5.986328v-1.298828c-1.231148-1.182049-2-2.841787-2-4.6875 0-3.5957732 2.904227-6.5 6.5-6.5 1.845713 0 3.505451.7688524 4.6875 2h1.298828c-1.369762-1.8178389-3.539499-3-5.986328-3z"/></g></svg>