<svg height="16" width="16" xmlns="http://www.w3.org/2000/svg"><g fill="#bebebe"><path d="m13.234375 3.5a7 7 0 0 1 1.09375 2.5h.671875v.5h1v-3zm-9.734375 9.742188v2.757812h3v-1h-.5v-.666016a7 7 0 0 1 -2.5-1.091796z" opacity=".5"/><path d="m12.851562 3a7 7 0 0 1 .701172 1h2.447266v-1zm-9.851562 9.861328v3.138672h1v-2.445312a7 7 0 0 1 -1-.69336z" fill-rule="evenodd"/><path d="m7.5.5a7 7 0 0 0 -7 7 7 7 0 0 0 6 6.919922v-7.919922h7.921875a7 7 0 0 0 -6.921875-6z" fill-opacity=".501961"/><path d="m7.5 0c-4.1362133 0-7.5 3.3637867-7.5 7.5 0 3.796305 2.8362775 6.934415 6.5 7.425781v-1.009765c-3.1182406-.480411-5.5-3.161098-5.5-6.416016 0-3.5957732 2.9042268-6.5 6.5-6.5 3.254918 0 5.935605 2.3817594 6.416016 5.5h1.009765c-.491366-3.6637225-3.629476-6.5-7.425781-6.5z"/><path d="m6.499998 6.5h9.5v9.5h-9.5z" opacity=".75"/></g></svg>