<svg height="16" width="16" xmlns="http://www.w3.org/2000/svg"><path d="m10 10h6v6h-6z" fill="#bebebe" opacity=".75"/><path d="m3.5 3.5v.1660156 5.8339844 6.5h6v-6.5h6.5v-6zm2.5 2.5h1v1h-1zm2 0h1v1h-1zm2 0h1v1h-1zm2 0h1v1h-1zm2 0h1v1h-1zm-8 2h1v1h-1zm0 2h1v1h-1zm0 2h1v1h-1zm0 2h1v1h-1z" fill="#bebebe" opacity=".5"/><path d="m3.5 16v-12.5000005l12.499997.0000005" fill="none" stroke="#bebebe"/><path d="m9.5 16.000001v-6.500001h6.499997" fill="none" stroke="#bebebe"/><g fill="#bebebe"><path d="m7.5.5a7 7 0 0 0 -7 7 7 7 0 0 0 3 5.742188v-3.742188-5.8339844-.1660156h9.734375a7 7 0 0 0 -5.734375-3z" opacity=".5"/><path d="m7.5 0c-4.136213 0-7.5 3.3637867-7.5 7.5 0 2.665173 1.400049 5.003475 3.5 6.333984v-1.214843c-1.520277-1.18866-2.5-3.0351628-2.5-5.119141 0-3.5957732 2.904227-6.5 6.5-6.5 2.083978 0 3.930481.9797234 5.119141 2.5h1.214843c-1.330509-2.0999508-3.668811-3.5-6.333984-3.5zm6.185547 9.5c-.638882 1.983589-2.201958 3.546665-4.185547 4.185547v1.035156c2.52889-.701265 4.519438-2.691813 5.220703-5.220703z"/></g></svg>