<svg height="16" width="16" xmlns="http://www.w3.org/2000/svg"><path d="m13.5625 1a1.5 1.5 0 0 0 -1.478516 1.2597656c-1.253084.3378746-2.4624364.8120407-3.5800778 1.4375-.1790035-.7111875-.0556238-1.5662057.4199219-2.5839844-1.3554418.8202313-2.1215484 2.1851373-1.8046875 3.4785157-1.1844247.8621316-2.2273612 1.9171892-3.0625 3.1738281-.6937959-.7816024-1.0607514-1.9634734-1.0742187-3.5566406-1.187984 1.7858451-1.2547728 3.9900878.0664062 5.4121094-.3282299.7493922-.596235 1.5500802-.7871093 2.4101562a1.5 1.5 0 0 0 -1.1992188 1.46875 1.5 1.5 0 0 0 1.5 1.5 1.5 1.5 0 0 0 1.5-1.5 1.5 1.5 0 0 0 -.8007812-1.326172c.1648891-.729732.3845792-1.414646.6542968-2.054687 1.256306.419068 2.5469584.10094 4.0859375-1.2812504-1.3096678.1719342-2.3693682.0194109-3.1757812-.4472656.7625866-1.179343 1.7247704-2.1619209 2.8242187-2.9648438.7712295.6656075 1.8114378.8332024 3.3828124.3378907-.959814-.2571787-1.6547983-.6514407-2.0898436-1.1738281 1.032263-.5753271 2.1556236-1.0124594 3.3281246-1.3300782a1.5 1.5 0 0 0 1.291016.7402344 1.5 1.5 0 0 0 1.5-1.5 1.5 1.5 0 0 0 -1.5-1.5zm.4375 8v6h1v-6zm-4 .0546875.052734 6.0644535 3.902344-3.164063z" fill="#bebebe"/></svg>