<svg height="16" width="16" xmlns="http://www.w3.org/2000/svg"><g fill="#bebebe"><path d="m10 1a5 5 0 0 0 -4.898438 4h5.898438v5.894531a5 5 0 0 0 4-4.894531 5 5 0 0 0 -5-5zm-5 5a5 5 0 0 0 .021484.4414062 5 5 0 0 1 -.021484-.4414062zm.046875.6503906a5 5 0 0 0 .042969.2753906 5 5 0 0 1 -.042969-.2753906zm.095703.5117188a5 5 0 0 0 .060547.2421875 5 5 0 0 1 -.060547-.2421875zm.144531.4921875a5 5 0 0 0 .080079.2207031 5 5 0 0 1 -.080079-.2207031zm.199219.4824219a5 5 0 0 0 .085938.1777343 5 5 0 0 1 -.085938-.1777343zm.230469.4316406a5 5 0 0 0 .115234.1875 5 5 0 0 1 -.115234-.1875zm.273437.4082031a5 5 0 0 0 .136719.1796875 5 5 0 0 1 -.136719-.1796875zm.310547.3789063a5 5 0 0 0 .166016.1777343 5 5 0 0 1 -.166016-.1777343zm.34375.34375a5 5 0 0 0 .199219.1738281 5 5 0 0 1 -.199219-.1738281zm.378907.3105472a5 5 0 0 0 .220703.158203 5 5 0 0 1 -.220703-.158203zm.408203.273437a5 5 0 0 0 .253906.144531 5 5 0 0 1 -.253906-.144531zm.43164.230469a5 5 0 0 0 .261719.11914 5 5 0 0 1 -.261719-.11914zm.482422.199219a5 5 0 0 0 .25.08398 5 5 0 0 1 -.25-.08398zm.492188.144531a5 5 0 0 0 .236328.05273 5 5 0 0 1 -.236328-.05273zm2.144531.04102a5 5 0 0 1 -.414063.06445 5 5 0 0 0 .414063-.06445zm-1.632813.05469a5 5 0 0 0 .208985.02539 5 5 0 0 1 -.208985-.02539zm1.117188.02148a5 5 0 0 1 -.466797.025388 5 5 0 0 0 .466797-.02539z" opacity=".35"/><path d="m1 5v10h10v-3.595703c-.324715.060008-.658239.095703-1 .095703-3.031644 0-5.5-2.4683562-5.5-5.5 0-.3417615.0356948-.6752847.0957031-1zm4.6210938 0c-.0731192.3226939-.1210938.6547062-.1210938 1 0 2.4912037 2.008796 4.5 4.5 4.5.345294 0 .677306-.047975 1-.121094v-5.378906z"/></g></svg>