<svg height="16" width="16" xmlns="http://www.w3.org/2000/svg"><g fill="#bebebe"><path d="m5.1015625 5a5 5 0 0 0 -.1015625 1 5 5 0 0 0 5 5 5 5 0 0 0 1-.105469v-5.894531z" opacity=".35"/><path d="m10 1a5 5 0 0 0 -4.8984375 4h5.8984375v5.894531a5 5 0 0 0 4-4.894531 5 5 0 0 0 -5-5zm-5 5a5 5 0 0 0 .0214844.441406 5 5 0 0 1 -.0214844-.441406zm.046875.650391a5 5 0 0 0 .042969.27539 5 5 0 0 1 -.042969-.27539zm.095703.511718a5 5 0 0 0 .060547.242188 5 5 0 0 1 -.0605469-.242188zm.1445314.492188a5 5 0 0 0 .0800781.220703 5 5 0 0 1 -.0800781-.220703zm.1992187.482422a5 5 0 0 0 .085937.177734 5 5 0 0 1 -.085937-.177734zm.2304688.43164a5 5 0 0 0 .1152343.1875 5 5 0 0 1 -.1152343-.1875zm.2734375.408203a5 5 0 0 0 .1367187.179688 5 5 0 0 1 -.1367187-.179688zm.3105468.378907a5 5 0 0 0 .1660157.177734 5 5 0 0 1 -.1660157-.177734zm.34375.34375a5 5 0 0 0 .1992188.173828 5 5 0 0 1 -.1992188-.173828zm.3789063.310547a5 5 0 0 0 .2207031.158203 5 5 0 0 1 -.2207031-.158203zm.4082031.273437a5 5 0 0 0 .2539063.144531 5 5 0 0 1 -.2539063-.144531zm.4316406.230469a5 5 0 0 0 .2617188.119141 5 5 0 0 1 -.2617188-.119141zm.4824219.199219a5 5 0 0 0 .25.08398 5 5 0 0 1 -.25-.08398zm.4921875.144531a5 5 0 0 0 .2363282.05273 5 5 0 0 1 -.2363282-.05273zm2.1445314.04102a5 5 0 0 1 -.414063.06445 5 5 0 0 0 .414063-.06445zm-1.6328126.05469a5 5 0 0 0 .2089844.02539 5 5 0 0 1 -.2089844-.02539zm1.1171876.02148a5 5 0 0 1 -.466797.025388 5 5 0 0 0 .466797-.02539z"/><path d="m1 5v10h10v-4.105469a5 5 0 0 1 -1 .105469 5 5 0 0 1 -5-5 5 5 0 0 1 .101562-1z"/></g></svg>