<svg height="16" width="16" xmlns="http://www.w3.org/2000/svg"><g fill="#bebebe"><path d="m10 1a5 5 0 0 0 -4.9003906 4.0058594.50005.50005 0 0 1 .4238281.5449218c-.01514.1495245-.0233395.2989313-.0234375.4492188 0 2.4912037 2.008796 4.5 4.5 4.5.14904-.001385.297144-.009231.445312-.025391a.50005.50005 0 0 1 .548829.419922 5 5 0 0 0 4.005859-4.894531 5 5 0 0 0 -5-5z" opacity=".35"/><path d="m2 6v8h8v-2.5c-3.031644 0-5.5-2.4683562-5.5-5.5z" opacity=".35"/><path d="m1.5 5a.50005.50005 0 0 0 -.5.5v9a.50005.50005 0 0 0 .5.5h9a.50005.50005 0 0 0 .5-.5v-3.529297a.50005.50005 0 0 0 -.554688-.496094c-.148169.01616-.296272.024006-.445312.025391-2.491204 0-4.5-2.0087963-4.5-4.5.000098-.1502875.0083-.2996944.02344-.4492188a.50005.50005 0 0 0 -.498049-.5507812zm.5 1h2.5c0 3.0316438 2.468356 5.5 5.5 5.5v2.5h-8z"/></g></svg>