<svg height="16" width="16" xmlns="http://www.w3.org/2000/svg"><path d="m8 4c-.6913772 0-1.8923366 2.3093604-2.4795168 2.461991-.5871801.1526306-.5605808-1.8514685-1.0468405-1.6033874-.4862596.248081-1.2041281-1.0016577-1.5927438-.7153064-.3886158.2863513-.4479787 2.1087926-.742227 2.376234-.2942484.2674414.0524351.9936913-.1610812 1.1826306-1.497182-1.2578829-.8058045 1.1326299-1.11254663 1.7794507-.13384135.0552185-.73014553-1.4816125-.86504407-1.4816125v4c.59290045 0 1.158513 1.275668 1.6425428 1.112137.4840296-.163531-.4018534-5.9175459 1.2780432-2.023065.1854686.429969 1.0222558.707327 1.3377697.427516s.3158532-1.8035606.5717224-2.0361192.4555855-1.4101172.6818805-1.5925159c.2262951-.1823987.479169.6303626.7163535.5034436.2371844-.1269189.7399295 1.8064815 1.0284669 1.7403625s.3628671-2.131759.743221-2.131759 1.1946303-.843765 1.4676103-.782107.00466 1.028738.2198318 1.1504276c.2151683.1216895.038821 3.4292384.2457399 3.6093334.206919.180095.797103-2.7672633 1.045334-2.5303887s1.344584-.6726423 1.66926-.3889093c.324677.283733-.817036 2.751364.289199 2.020589.976496-.64507 1.274399-1.2597051 1.252839 1.999182-.003539.534938 1.193766-1.078127 1.810186-1.078127v-4c-.215964 0-.583746 1.7253272-.749923 1.6718728-.166178-.0534545-.13075-1.8856907-.290295-2.0008175-.159545-.1151269-.639061.6118556-.835127.4268384-.196066-.1850171.078819-2.3757839-.196921-2.6389093-.27574-.2631253-1.068281 1.4770162-1.442074 1.1883614s-.516338-1.512356-.992088-1.7656665-1.128454.8387697-1.7100653.6816775-1.0921294-1.5633568-1.7835067-1.5633568z" fill="#bebebe" fill-rule="evenodd"/></svg>