<svg height="16" width="16" xmlns="http://www.w3.org/2000/svg"><g fill="#bebebe"><path d="m1 0v2h2v-2z"/><path d="m3 2v2h2v-2z" stroke-width="2"/><path d="m5 0v2h5v1h2v-2h-2v-1z" stroke-width="1.414214"/><path d="m1 4v2h-1v4h1v2h2v-2h-1v-4h1v-2z" stroke-width="1.414214"/><path d="m3 12v2h2v-2z"/><path d="m5 14v2h2v-2z"/><path d="m12 3v2h1v3h1v2h-1v2h2v-2h1v-2h-1v-3h-1v-2z"/><path d="m13 12h-2v2h2z"/><path d="m11 14h-2v2h2z"/><path d="m7 5h-2v2h2z" stroke-width="2"/><path d="m9 5v2h2v-2z" stroke-width="1.414214"/><g stroke-width="2"><path d="m6 8v1h-2v2h2v-1h2v-2z"/><path d="m8 10v2h2v-2z"/><path d="m10 8v2h2v-2z"/></g></g></svg>