<svg height="16" width="16" xmlns="http://www.w3.org/2000/svg"><g fill="#bebebe"><path d="m3 2v1 3.28125c-.29454-.17076-.63503-.28125-1-.28125-1.10457 0-2 .89543-2 2s.89543 2 2 2c.0663484 0 .1286689-.0132184.1933594-.0195312.3046939-.8271343.959975-1.4824154 1.7871094-1.7871094.0063128-.0646905.0195312-.127011.0195312-.1933594v-5h4v1h1v-1-1h-1-4zm5 5v1.8339844c.2850285-.2621345.6166525-.4751731.9785156-.6230469.0074979-.0703967.0214844-.1385513.0214844-.2109375v-1z"/><path d="m6 5v1 3.28125c-.29454-.17076-.63503-.28125-1-.28125-1.10457 0-2 .89543-2 2s.89543 2 2 2c.0663484 0 .1286689-.013218.1933594-.019531.3046939-.827135.959975-1.482416 1.7871094-1.78711.0063128-.06469.0195312-.127011.0195312-.193359v-5h4v1h1v-1-1h-1-4zm5 5v1.833984c.285029-.262134.616652-.475173.978516-.623046.007498-.070397.021484-.138552.021484-.210938v-1z"/><path d="m9 8v1 3.28125c-.29454-.17076-.63503-.28125-1-.28125-1.10457 0-2 .89543-2 2s.89543 2 2 2 2-.89543 2-2v-5h4v3.28125c-.29454-.17076-.63503-.28125-1-.28125-1.10457 0-2 .89543-2 2s.89543 2 2 2 2-.89543 2-2v-5-1h-1-4z"/><path d="m10 2.0000001v1.9999999h6v-1.9999999z"/></g></svg>