<svg height="16" width="16" xmlns="http://www.w3.org/2000/svg"><g fill="#bebebe" transform="translate(-261.0002 -747)"><path d="m266.6875 749-.3125.28125-3.09375 3.0625-.28125.3125v.40625 3.8125.40625l.28125.3125 3.09375 3.125.3125.28125h.40625 3.8125.40625l.3125-.28125 3.09375-3.125.28125-.3125v-.40625-3.8125-.40625l-.28125-.3125-3.09375-3.0625-.3125-.28125h-.40625-3.8125zm.84375 2h2.96875l2.5 2.5v2.96875l-2.53125 2.53125h-2.9375l-2.53125-2.53125v-2.96875z"/><path d="m267.85645 752-1.85625 1.83921v2.2892l1.85625 1.87159h2.28921l1.85454-1.87159v-2.2892l-1.85454-1.83921z"/></g></svg>