<svg height="16" width="16" xmlns="http://www.w3.org/2000/svg"><g fill="#bebebe"><path d="m1 .9999998 3 3h11l-3-3z" opacity=".35"/><path d="m1 12 3 3h11l-3-3z"/><path d="m7 5.0000198h2v2.99998h2l-3 3.0000202-3-3.0000202h2z"/><g transform="scale(1 -1)"><path d="m1-2.00002h1v1h-1z"/><path d="m2-1.000017h1v1h-1z"/><path d="m4-5.000017h1v1.000003h-1z"/><path d="m4-1.000017h1v1h-1z"/><path d="m6-1.000017h1v1.000003h-1z"/><path d="m8-1.000017h1v1.000003h-1z"/><path d="m10-1.000017h1v1.000003h-1z"/><path d="m12-1.000017h1v1.000003h-1z"/><path d="m14-1.000017h1v1.000003h-1z"/><path d="m14-3.000017h1v1.000003h-1z"/><path d="m14-5.000017h1v1.000003h-1z"/><path d="m10-5.000017h1v1.000003h-1z"/><path d="m12-5.000017h1v1.000003h-1z"/><path d="m2-5.000017h1v1h-1z"/><path d="m1-4.00002h1v1h-1z"/></g></g></svg>