<svg height="16" width="16" xmlns="http://www.w3.org/2000/svg"><g fill="#bebebe"><path d="m15 15.00002-3-3h-11l3 3z" opacity=".35"/><path d="m15 4.00002-3-3h-11l3 3z"/><path d="m9 11h-2v-2.99998h-2l3-3.00002 3 3.00002h-2z"/><g transform="scale(-1 1)"><path d="m-15 14h1v1h-1z"/><path d="m-14 15.000003h1v1h-1z"/><path d="m-12 11.000003h1v1.000003h-1z"/><path d="m-12 15.000003h1v1h-1z"/><path d="m-10 15.000003h1v1.000003h-1z"/><path d="m-8 15.000003h1v1.000003h-1z"/><path d="m-6 15.000003h1v1.000003h-1z"/><path d="m-4 15.000003h1v1.000003h-1z"/><path d="m-2 15.000003h1v1.000003h-1z"/><path d="m-2 13.000003h1v1.000003h-1z"/><path d="m-2 11.000003h1v1.000003h-1z"/><path d="m-6 11.000003h1v1.000003h-1z"/><path d="m-4 11.000003h1v1.000003h-1z"/><path d="m-14 11.000003h1v1h-1z"/><path d="m-15 12h1v1h-1z"/></g></g></svg>