<svg height="16" width="16" xmlns="http://www.w3.org/2000/svg"><path d="m12.37819 1a2.6078431 2.6078431 0 0 0 -2.60785 2.60784 2.6078431 2.6078431 0 0 0 .0309.38775l-4.38014 2.1223a2.6078431 2.6078431 0 0 0 -1.79976-.72573 2.6078431 2.6078431 0 0 0 -2.60784 2.60784 2.6078431 2.6078431 0 0 0 2.60784 2.60784 2.6078431 2.6078431 0 0 0 1.81005-.73088l4.36128 2.19951a2.6078431 2.6078431 0 0 0 -.0223.31569 2.6078431 2.6078431 0 0 0 2.60785 2.60784 2.6078431 2.6078431 0 0 0 2.60784-2.60784 2.6078431 2.6078431 0 0 0 -2.60784-2.60785 2.6078431 2.6078431 0 0 0 -1.77917.70343l-4.38358-2.21666a2.6078431 2.6078431 0 0 0 .0137-.27108 2.6078431 2.6078431 0 0 0 -.0223-.31054l4.42133-2.15147a2.6078431 2.6078431 0 0 0 1.75.6777 2.6078431 2.6078431 0 0 0 2.60784-2.60785 2.6078431 2.6078431 0 0 0 -2.60784-2.60784z" fill="#bebebe"/></svg>