<svg height="16" viewBox="0 0 15.999999 16" width="16" xmlns="http://www.w3.org/2000/svg"><g fill="#bebebe" transform="translate(-103.30274 -616.18813)"><path d="m103.30274 616.18813v16l6.03516-6.03516c.0194-2.19722 1.80883-3.99609 3.99609-3.99609l2.96875-2.96875h-11v-2h12v1l2-2z"/><path d="m16 0-2 2v1h-1l-2.96875 2.96875c2.19923 0 4 1.81765 4 4.03125 0 .87-.27881 1.68245-.75 2.34375l2.53125 2.4375c.0931.095.15805.21399.1875.34375zm-5.96875 7.4375c-1.41397 0-2.53125 1.1393-2.53125 2.5625s1.11728 2.5625 2.53125 2.5625c1.41396 0 2.53125-1.1393 2.53125-2.5625s-1.11729-2.5625-2.53125-2.5625zm-3.9960938 2.5273438-6.0351562 6.0351562h15.125c-.11855-.0346-.2262-.0992-.3125-.1875l-2.59375-2.4375c-.63147.4213-1.3783.65625-2.1875.65625-2.19923 0-4-1.81765-4-4.03125 0-.0120447.0037998-.0231352.0039062-.0351562zm9.9648438 5.5664062c-.0823.23881-.28405.41678-.53125.46875h.53125z" fill-opacity=".501961" fill-rule="evenodd" transform="translate(103.30274 616.18813)"/></g></svg>