<svg height="16" width="16" xmlns="http://www.w3.org/2000/svg"><path d="m3.9238281 2.4589844h1.7519531v-1.75390628h-1.7519531zm3.5058594 0h1.7519531v-1.75390628h-1.7519531zm3.5039065 0h1.111328v-.2363282h.876953v-.640625-.87695308h-.876953-1.111328zm-7.886719 2.484375h1.7539062v-1.7519532h-1.7539062zm8.123047.7832031h1.751953v-1.7519531h-1.751953zm-8.123047 2.7207031h1.7539062v-1.7519531h-1.7539062zm8.123047.7851563h1.751953v-1.7519531h-1.751953zm-8.123047 2.7207031h1.7539062v-1.751953h-1.7539062zm8.123047.783203h1.751953v-1.751953h-1.751953zm-7.2460939.96875h-.8769531v.712891.876953h.8769531 1.0410157v-1.753906h-1.0410157zm2.7929688 1.589844h1.7519531v-1.753906h-1.7519531zm3.5039061 0h1.753906v-1.753906h-1.753906z" fill="#bebebe"/></svg>