<svg height="16" width="16" xmlns="http://www.w3.org/2000/svg"><g fill="#bebebe"><path d="m0 15h1v1h-1z"/><path d="m0 12h1v1h-1z"/><path d="m0 9h1v1h-1z"/><path d="m0 6h1v1h-1z"/><path d="m0 3h1v1h-1z"/><path d="m0 0h1v1h-1z"/><path d="m3 15h1v1h-1z"/><path d="m3 12h1v1h-1z"/><path d="m3 9h1v1h-1z"/><path d="m3 6h1v1h-1z"/><path d="m3 3h1v1h-1z"/><path d="m3 0h1v1h-1z"/><path d="m6 15h1v1h-1z"/><path d="m6 12h1v1h-1z"/><path d="m6 9h1v1h-1z"/><path d="m6 6h1v1h-1z"/><path d="m6 3h1v1h-1z"/><path d="m6 0h1v1h-1z"/><path d="m9 15h1v1h-1z"/><path d="m9 12h1v1h-1z"/><path d="m9 9h1v1h-1z"/><path d="m9 6h1v1h-1z"/><path d="m9 3h1v1h-1z"/><path d="m9 0h1v1h-1z"/><path d="m12 15h1v1h-1z"/><path d="m12 12h1v1h-1z"/><path d="m12 9h1v1h-1z"/><path d="m12 6h1v1h-1z"/><path d="m12 3h1v1h-1z"/><path d="m12 0h1v1h-1z"/><path d="m15 15h1v1h-1z"/><path d="m15 12h1v1h-1z"/><path d="m15 9h1v1h-1z"/><path d="m15 6h1v1h-1z"/><path d="m15 3h1v1h-1z"/><path d="m15 0h1v1h-1z"/></g></svg>