<svg height="16" width="16" xmlns="http://www.w3.org/2000/svg"><g fill="#bebebe"><path d="m12 0h4v3.99219h-4z"/><path d="m0 12h4v3.999997h-4z"/><path d="m10.3437 2.0753177c-2.8267997.3559-4.9438997 1.7885-6.3124997 3.5937-1.8247 2.407-2.3899 5.4513003-1.8125 7.7813003l.0625.3437.375.0625c6.6954 1.1257 12.3020997-4.5670003 11.1874997-11.3125003l-.0625-.375-.375-.0625c-1.1005-.1387-2.1202-.1498-3.0625-.0312zm.125 1.0625c.7268-.0878 1.5257-.0474 2.375.0313.6789 5.7343-3.9159997 10.3400003-9.5936997 9.6562003-.3532-1.9263.094-4.5117003 1.625-6.5312003 1.2158-1.6038 3.0406-2.8479 5.5936997-3.1563z" stroke-width="1.064862"/></g></svg>