<svg height="16" width="16" xmlns="http://www.w3.org/2000/svg"><g fill="#bebebe"><path d="m6 0v3h2c2.241167 0 4.097082 1.4541196 4.740234 3.4707031.427743-.5596751 1.002106-.9707031 1.759766-.9707031.430391 0 .83188.1205354 1.1875.3164062-.956837-3.3467058-4.044027-5.81640614-7.6875-5.8164062zm-3 5-2 2 2 2-2 2h2l1.5097656-1.5097656c-.3156184-.4185613-.5097656-.9320203-.5097656-1.4902344l-1-1 2-2zm9.740234 4.5292969c-.643152 2.0165831-2.499067 3.4707031-4.740234 3.4707031h-2v3h2c3.643473 0 6.730663-2.4697 7.6875-5.816406-.35562.195871-.757109.316406-1.1875.316406-.75766 0-1.332023-.411028-1.759766-.9707031z"/><circle cx="3" cy="1.5" r="1.5"/><circle cx="3" cy="14.5" r="1.5"/><path d="m6.5 6.5a1.5 1.5 0 0 0 -1.5 1.5 1.5 1.5 0 0 0 1.5 1.5 1.5 1.5 0 0 0 1.5-1.5 1.5 1.5 0 0 0 -1.5-1.5zm4 0a1.5 1.5 0 0 0 -1.5 1.5 1.5 1.5 0 0 0 1.5 1.5 1.5 1.5 0 0 0 1.5-1.5 1.5 1.5 0 0 0 -1.5-1.5zm4 0a1.5 1.5 0 0 0 -1.5 1.5 1.5 1.5 0 0 0 1.5 1.5 1.5 1.5 0 0 0 1.5-1.5 1.5 1.5 0 0 0 -1.5-1.5z"/><path d="m6.5 6.5a1.5 1.5 0 0 0 -1.5 1.5 1.5 1.5 0 0 0 1.5 1.5 1.5 1.5 0 0 0 1.5-1.5 1.5 1.5 0 0 0 -1.5-1.5zm4 0a1.5 1.5 0 0 0 -1.5 1.5 1.5 1.5 0 0 0 1.5 1.5 1.5 1.5 0 0 0 1.5-1.5 1.5 1.5 0 0 0 -1.5-1.5zm4 0a1.5 1.5 0 0 0 -1.5 1.5 1.5 1.5 0 0 0 1.5 1.5 1.5 1.5 0 0 0 1.5-1.5 1.5 1.5 0 0 0 -1.5-1.5z"/></g></svg>