<svg height="16" width="16" xmlns="http://www.w3.org/2000/svg"><g fill="#bebebe"><path d="m1.5.03320313a.50005.50005 0 0 0 -.078125.99218747c3.8311272.69375 6.1153915 1.8136802 7.3945312 3.0292969 1.2791398 1.2156167 1.6048548 2.5179037 1.5117188 3.8007813-.06735.9276954-.379691 1.8272024-.7480469 2.6035152l.7539059.753907c.471157-.86932.894832-1.9441641.992188-3.2851566.110038-1.5156869-.335074-3.1881289-1.8203126-4.5996094-1.4852387-1.4114805-3.9593522-2.57239536-7.90625-3.28710937a.50005.50005 0 0 0 -.0996094-.0078125zm13.980469 7.12109377a.50005.50005 0 0 0 -.488281.5097656c.006399 1.1644957-.376012 2.0101739-.962891 2.6835935-.586879.67342-1.395755 1.163051-2.226563 1.507813-.231641.096124-.422996.162381-.605468.220703l.78125.78125c.069479-.027008.137391-.049226.207031-.078125.926617-.38452 1.871733-.942423 2.597656-1.775391.725924-.832967 1.216634-1.9517281 1.208985-3.3457029a.50005.50005 0 0 0 -.511719-.5039062z" fill-rule="evenodd"/><path d="m12.822797 1.620485h4v4h-4z" transform="matrix(.70710678 .70710678 -.70710678 .70710678 0 0)"/></g></svg>