<svg height="16" width="16" xmlns="http://www.w3.org/2000/svg"><path d="m11.994141 0-.710938 1.2304688-1.214844-.70117192-.4999996.86523432 1.2167966.703125-.7910154 1.3691407-1.2363281-.7128907-.5.8652344 1.2363281.7128906-.4882812.8457032a3 3 0 0 0 -1.0058594-.1777344 3 3 0 0 0 -3 3 3 3 0 0 0 1.0566406 2.285156l-.5273437.916016-1.2910157-.746094-.5.867188 1.2910157.74414-.7910157 1.369141-1.3105468-.755859-.5.867187 1.3105468.755859-.9804687 1.697266h1.1542969l.6914062-1.197266 1.1308594.652344.5-.865234-1.1308594-.652344.7910156-1.371094 1.1503907.664063.5-.865235-1.1503907-.664062.5234376-.90625a3 3 0 0 0 1.0820312.205078 3 3 0 0 0 3-3 3 3 0 0 0 -1.1191406-2.3359375l.4785156-.8300781 1.205078.6953125.5-.8671875-1.205078-.6953125.791016-1.3691407 1.224609.7070313.5-.8671875-1.224609-.7070312 1-1.7304688z" fill="#bebebe"/></svg>