<svg height="16.000013" viewBox="0 0 16 16.000013" width="16" xmlns="http://www.w3.org/2000/svg"><g fill="#bebebe" transform="translate(-103.60704 -579.42031)"><path d="m8 5v5h-5v1h5v5h1v-5h5v-1h-5v-5z" transform="translate(103.60704 579.42031)"/><path d="m104.60704 579.42031v5h5l-1.8125-1.8125v-.031c.3708-.7289 1.2553-1.2813 2.375-1.2813 1.4929 0 2.5625 1.0047 2.5625 2.0625-.089.5418.3884 1.1043.9375 1.1043s1.0266-.5625.9375-1.1043c0-2.2558-2.0644-3.9375-4.4375-3.9375-1.5399 0-2.9498.6989-3.75 1.8125z"/><path d="m113.60704 586.42029h2v1.999997h-2z"/><path d="m113.60704 591.42029h2v2h-2z"/><path d="m108.60704 591.42029h2v2h-2z"/><path d="m108.60704 586.42029h2v2h-2z"/></g></svg>