<svg height="16" width="16" xmlns="http://www.w3.org/2000/svg"><g fill="#bebebe"><path d="m15 15v-2h-1v1h-1v1z"/><path d="m15 1v2h-1v-1h-1v-1z"/><g transform="rotate(-90)"><path d="m-12 14h2v1h-2z"/><path d="m-6 14h2v1h-2z"/><path d="m-9 14h2v1h-2z"/></g><path d="m4 14h2v1h-2z"/><path d="m10 14h2v1h-2z"/><path d="m7 14h2v1h-2z"/><path d="m4 1h2v1h-2z"/><path d="m10 1h2v1h-2z"/><path d="m7 1h2v1h-2z"/><path d="m1 15v-2h1v1h1v1z"/><path d="m1 1v2h1v-1h1v-1z"/><path d="m-12-2h2v1h-2z" transform="matrix(0 -1 -1 0 0 0)"/><path d="m-6-2h2v1h-2z" transform="matrix(0 -1 -1 0 0 0)"/><path d="m-9-2h2v1h-2z" transform="matrix(0 -1 -1 0 0 0)"/><circle cx="8" cy="8" r="2.5"/></g></svg>