<svg height="16" width="16" xmlns="http://www.w3.org/2000/svg"><path d="m329.0002 827.6875c-1.00052-.004-1.56313 3.54025-2.375 4.125-.81155.58452-4.34351-.0125-4.65625.9375-.31286.95036 2.88225 2.57842 3.1875 3.53125.30513.95245-1.3381 4.12776-.53125 4.71875.80717.59122 3.34323-1.94163 4.34375-1.9375 1.00013.004 3.5011 2.58473 4.3125 2 .81172-.58496-.81311-3.79972-.5-4.75.31298-.9499 3.52413-2.54763 3.21875-3.5-.3055-.95275-3.84924-.37732-4.65625-.96875-.8067-.5912-1.34362-4.15238-2.34375-4.15625zm-1 4.3125h2v2h2v2h-2v2h-2v-2h-2v-2h2z" fill="#bebebe" transform="translate(-321.0002 -827)"/></svg>