<svg height="16" width="16" xmlns="http://www.w3.org/2000/svg"><g fill="#bebebe"><path d="m8 1.6875c-1.00052-.004-1.56313 3.54025-2.375 4.125-.81155.58452-4.34351-.0125-4.65625.9375-.31286.95036 2.88225 2.5784198 3.1875 3.53125.30513.95245-1.3381 4.12776-.53125 4.71875.80717.59122 3.34323-1.94163 4.34375-1.9375 1.00013.004 3.5011 2.58473 4.3125 2 .81172-.58496-.81311-3.79972-.5-4.75.29324-.8899902 3.130757-2.3487442 3.236328-3.3125h-.017578-.71875-3.28125v-.9472656c-.274186-.0464454-.516006-.1062042-.65625-.2089844-.191663-.1404624-.3680265-.4555272-.5390625-.84375h-.8046875v-2.0722656c-.2920495-.6940398-.6108856-1.2387287-1-1.2402344z"/><path d="m12 .000279h2v2h2v2h-2v2h-2v-2h-2v-2h2z"/></g></svg>