<svg height="16" width="16" xmlns="http://www.w3.org/2000/svg"><path d="m14 0-1 1c1 0 2 1 2 2l1-1c0-1-.751851-2-2-2zm-2 2-6.9977714 7-.00229 2h2l7.0000004-7c0-1-1-2-2-2zm-10.9062514.1160686c-.5686857.0000457-1.0937029.5028571-1.0937486 1.0625028v9.7276796.25.781246c.0000457.559657.5250629 1.062457 1.0937486 1.062503h4.3437485 1.1250058 5.3437481c.557543-.000046 1.073978-.484674 1.093749-1.031246.000389-.01143 0-.02034 0-.0312v-6.9374969l-2 2v3.9999999h-9v-8.8839313h5.9151771l1.9955429-2z" fill="#bebebe" fill-rule="evenodd" stroke-width="1.142857"/></svg>