<svg height="16" width="16" xmlns="http://www.w3.org/2000/svg"><g fill="#bebebe"><path d="m6 16s-1.1865223-10.1971703 9.999949-10l.000051-5.5c-9.2881356.7457627-15.90754993 2.4152542-15.5 15.5z" fill-opacity=".501961" fill-rule="evenodd"/><path d="m15.986328 0c-5.57554.1454481-9.6882381 1.2944293-12.3652342 3.8925781-2.67699619 2.5981489-3.81886009 6.5746929-3.6210938 12.1249999l1-.03516c-.1923351-5.397877.9024103-9.0281949 3.3164062-11.3710899 2.413996-2.3428949 6.2466728-3.4691395 11.6972658-3.6113281z" fill-rule="evenodd"/><path d="m16 5.5c-3.53691 0-6.1927328.8475533-7.9492188 2.6308594-1.7564859 1.7833061-2.5507812 4.4347296-2.5507812 7.8691406h1c0-3.281314.7490365-5.630206 2.2636719-7.1679688 1.5146351-1.5377626 3.8577231-2.3320312 7.2363281-2.3320312z" fill-rule="evenodd"/><g stroke-width="1.333333"><path d="m4 10h4v4h-4z"/><path d="m10 5h4v4h-4z"/><path d="m6 0h4v4h-4z"/><path d="m0 5h4v4h-4z"/></g></g></svg>