<svg height="16" width="16" xmlns="http://www.w3.org/2000/svg"><g fill="#bebebe"><path d="m11.499924 5.2203394c.837541.6735025 1.560433 1.4946384 1.980008 2.8599468-.923327.6826533-1.53338 1.918229-1.697207 3.1741198h.628557c.05833-.271431.121589-.576354.251424-.879967 1.2014-2.8066468 4.660282-.231809 2.797135 1.194341-.05632-1.274897-.96446-1.7157852-1.759964-.534315-.04928.07342-.08649.149644-.125712.219941h.534325a.39499709.4086075 0 0 1 0 .817215h-.785748c.01408.573841.461815.942723.91146.942723-.503852 1.340866-1.879943.707393-1.917153-.942723h-.565702c.02615.950266.326146 1.840495.974315 2.419862-.302513.585199-.512702 1.263034-1.225738 1.508517-.558864-.203343-1.003883-.782518-1.22574-1.508517.647768-.600285.931876-1.485587.942938-2.419862h-.59718c-.03721 1.650116-1.4133011 2.283589-1.9170529.942723.4498468 0 .8972795-.368882.9113598-.942723h-.785648a.39499709.4086075 0 1 1 0-.817215h.5342245c-.0392245-.070397-.0764332-.146527-.1257117-.219941-.7953026-1.1814702-1.7036446-.740582-1.7599636.534315-1.8631472-1.42615 1.5958345-4.0009878 2.7970339-1.194341.130036.303613.193195.608536.251424.879967h.628559c-.184043-1.223708-.809081-2.4371595-1.6656299-3.1741198.3557134-1.1096655.9830649-2.0981454 2.0113869-2.8599468z" opacity=".5" stroke-width="1.005686"/><path d="m7 0v8.6796875c.0704898-.0509049.1366184-.1075674.2109375-.1523437.318037-.191614.7486659-.1137129 1.1386719-.1679688l.1875-.5839844c.1197657-.3736151.2803878-.7368823.4628906-1.0917968v-6.6835938zm-3 6-4 4 4 4v-3h2.015625c-.0619968-.275788-.0901731-.553801-.0371094-.814453.0969821-.4763828.3391757-.8664456.6503906-1.185547h-2.6289062z" fill-rule="evenodd"/></g></svg>