<svg height="16" width="16" xmlns="http://www.w3.org/2000/svg"><path d="m8.0466406.0000001c1.2431428.999664 2.3161154 2.218457 2.9388814 4.2449525-1.3704734 1.0132464-2.275961 2.8471827-2.5191262 4.7112725h.9329543c.086579-.4028797.1804709-.8554693.3731817-1.3061154 1.7832112-4.1658401 6.9171482-.3440686 4.1517222 1.7727338-.08359-1.8923011-1.431525-2.5467008-2.612273-.7930726-.07314.1089703-.128374.2221144-.186591.3264542h.793086a.58628469.60648631 0 0 1 0 1.2129729h-1.166267c.0209.851739.68546 1.399262 1.352858 1.399262-.747856 1.990217-2.7903549 1.049967-2.8455853-1.399262h-.8396593c.03881 1.410458.4840914 2.731805 1.4461543 3.591745-.4490128.868598-.7609922 1.874693-1.8193361 2.239057-.8295084-.301818-1.4900398-1.161474-1.8193361-2.239057.961466-.890989 1.3831612-2.205022 1.399581-3.591745h-.8863809c-.055229 2.449229-2.0977299 3.389479-2.8454363 1.399262.6676964 0 1.3318107-.547523 1.3527095-1.399262h-1.1661186a.58628469.60648631 0 1 1 0-1.2129729h.7929369c-.0582193-.1044891-.1134477-.2174869-.1865909-.3264542-1.1804494-1.7536282-2.5286799-1.0992285-2.612273.7930726-2.7654262-2.1168024 2.3686598-5.9385739 4.1515723-1.7727338.1930098.4506461.2867538.9032357.3731818 1.3061154h.9329552c-.2731698-1.8163219-1.2008992-3.6174194-2.4722546-4.7112725.527977-1.6470507 1.4591403-3.1142285 2.9854537-4.2449525z" fill="#bebebe" stroke-width="1.492716"/></svg>