<svg height="16" width="16" xmlns="http://www.w3.org/2000/svg"><g fill="#bebebe"><circle cx="8" cy="8" opacity=".35" r="5" stroke-width=".833333"/><path d="m7.9999999 1a6.9999999 6.9999999 0 0 0 -6.9999999 6.9999999 6.9999999 6.9999999 0 0 0 6.9999999 7.0000001 6.9999999 6.9999999 0 0 0 7.0000001-7.0000001 6.9999999 6.9999999 0 0 0 -7.0000001-6.9999999zm0 2.6249999a4.375 4.375 0 0 1 4.3750001 4.375 4.375 4.375 0 0 1 -4.3750001 4.3750001 4.375 4.375 0 0 1 -4.375-4.3750001 4.375 4.375 0 0 1 4.375-4.375z" stroke-width=".875"/><g fill-rule="evenodd"><path d="m4 0h-4v4z"/><path d="m4 16h-4v-4z"/><path d="m12 0h4v4z"/><path d="m12 16h4v-4z"/></g></g></svg>