<svg height="16" width="16" xmlns="http://www.w3.org/2000/svg"><g fill="#bebebe" transform="translate(-63.0002 -649)"><path d="m75.262033 649c1.7728 0 3.2 1.4272 3.2 3.2v6.4c0 1.7728-1.4272 3.2-3.2 3.2h-8.533333c-1.7728 0-3.2-1.4272-3.2-3.2v-6.4c0-1.7728 1.4272-3.2 3.2-3.2zm0 2.13333h-8.533333c-.590933 0-1.066667.47574-1.066667 1.06667v6.4c0 .59093.475734 1.06667 1.066667 1.06667h8.533333c.590934 0 1.066667-.47574 1.066667-1.06667v-6.4c0-.59093-.475733-1.06667-1.066667-1.06667z"/><path d="m70.995367 662.86667c-5.333334 0-5.333334 1.06666-5.333334 1.06666 0 1.06667 1.066667 1.06667 1.066667 1.06667h8.533333c1.066667 0 1.066667-1.06667 1.066667-1.06667s0-1.06666-5.333333-1.06666z"/><path d="m70.440528 651.97634c-.846458 0-1.543982.69753-1.543982 1.54398v1.54399h-.514663c-.285118 0-.514651.22954-.514651.51465v.27342 2.81454h2.573296 1.029318 2.573298v-2.81454-.27342c0-.28511-.229535-.51465-.514653-.51465h-.514665v-1.54399c0-.84645-.697522-1.54398-1.54398-1.54398zm0 1.02932h1.029318c.294033 0 .514657.22065.514657.51466v1.54399h-2.058634v-1.54399c0-.29401.220626-.51466.514659-.51466z"/></g></svg>