<svg height="16.02426" width="16" xmlns="http://www.w3.org/2000/svg"><g fill="#bebebe" transform="translate(-100 -685.97574)"><path d="m102.56836 686.49918c-1.14621 0-2.06836.72183-2.06836 1.61718v6.54688 5.2207c0 .89536.92215 1.61524 2.06836 1.61524h10.86328c1.14621 0 2.06836-.71988 2.06836-1.61524v-5.2207-6.54688c0-.89535-.92215-1.61718-2.06836-1.61718zm1.43164 1h8v4.04687 3 .11719 5.83594h-8v-2.09375h-.26758c-.42027.006-.86771-.18471-1.13867-.48633-.27096-.30161-.38281-.66621-.38281-1.01563 0-.34943.11167-.71202.38281-1.01367.27114-.30164.72036-.49037 1.14063-.48437h.26562v-.74219-1.03711-1.98437z"/><path d="m6.0625 4.8046875c-.1657444-.0002112-.3208241.081718-.4140625.21875l-.9375 1.375c-.3749999.5520831.4531251 1.1145831.828125.5625l.7871094-1.15625h1.1308593l-1.046875 1.8125c-.043679.076067-.066581.1622847-.066406.25v2.5625005h-2.625c-.6761613-.0096-.6761613 1.009563 0 1h3.125c.2761309-.000028.4999724-.223869.5-.5v-2.6093755l2.6601558 4.6093755c.333333.578125 1.200521.07813.867188-.5l-2.394952-4.1703806 1.086358-1.7163386.880859.8808593c.09376.093768.220916.146459.353516.1464844h1.328125c.676161.00956.676161-1.0095626 0-1h-1.121094l-1.6191404-1.6191406c-.0937559-.0937681-.2209161-.1464589-.3535156-.1464844z" fill-rule="evenodd" transform="translate(100 685.97574)"/><circle cx="109.28124" cy="689.5" r="1.015625"/></g></svg>