<svg height="16" width="16" xmlns="http://www.w3.org/2000/svg"><g fill="#bebebe" transform="translate(-61.000198 -687)"><path d="m72.375 687.25c-.239942.43525-.467624 1.00577-.71875 1.4375-.09387-.007-.185709-.0313-.28125-.0313-.332255 0-.660088.0487-.96875.125-.305025-.3828-.630342-.89813-.9375-1.28125-.284596.10504-.552268.22648-.8125.375.09593.48262.276896 1.07105.375 1.5625-.343004.24882-.626184.532-.875.875-.491453-.0981-1.079882-.27907-1.5625-.375-.148521.26023-.269963.5279-.375.8125.383118.30716.898446.63248 1.28125.9375-.07635.30866-.125.6365-.125.96875 0 .0955.02466.18738.03125.28125-.431735.25113-1.00225.47881-1.4375.71875.05124.27476.128303.55374.21875.8125.491399-.01 1.099493-.0946 1.59375-.0937.187125.39176.420532.75381.71875 1.0625-.172042.46783-.448123 1.0086-.625 1.46875.212898.1757.449497.32623.6875.46875.369206-.32011.775422-.77147 1.15625-1.09375.378045.17256.788621.26529 1.21875.3125.164542.47676.304284 1.08808.46875 1.5625.30154-.002.586801-.0141.875-.0625.08055-.49291.110368-1.11855.1875-1.625.410087-.11684.811342-.26698 1.15625-.5.424331.26446.898868.62889 1.3125.875.223737-.19067.43433-.40126.625-.625-.246108-.41363-.610541-.88817-.875-1.3125.233016-.34491.383162-.74616.5-1.15625.506449-.0771 1.132085-.10695 1.625-.1875.04835-.2882.06081-.57346.0625-.875-.474423-.16447-1.085738-.30421-1.5625-.46875-.047208-.43013-.139945-.8407-.3125-1.21875.32228-.38083.773639-.78704 1.09375-1.15625-.142521-.238-.293051-.4746-.46875-.6875-.460149.17688-1.000924.45296-1.46875.625-.308689-.29822-.670736-.53162-1.0625-.71875-.000887-.49426.08396-1.10235.09375-1.59375-.258762-.0904-.537737-.16751-.8125-.21875zm-1 3.40625c1.104569 0 2 .89543 2 2s-.895431 2-2 2-2-.89543-2-2 .895431-2 2-2z"/><path d="m64.6875 694.75c-.230139.0471-.443908.13096-.65625.21875-.01671.62433.08693 1.44177-.15625 1.65625-.238965.21077-1.038358.0343-1.65625-.0313-.131388.23649-.235259.48523-.3125.75.478093.39586 1.140508.83901 1.15625 1.15625.01594.32119-.626418.80489-1.0625 1.25.103387.25783.250144.49354.40625.71875.608323-.12641 1.366392-.37354 1.625-.1875.263308.18942.265212 1.00535.34375 1.625.249548.075.512509.1045.78125.125.281352-.55462.567413-1.3198.875-1.40625.315752-.0887.963545.45813 1.5.78125.21871-.1516.412931-.33706.59375-.53125-.253838-.57232-.721084-1.29192-.59375-1.59375.127453-.30211.975404-.46963 1.5625-.6875.0044-.0735.03125-.14414.03125-.21875 0-.19137-.0344-.37899-.0625-.5625-.606097-.16082-1.467207-.2413-1.625-.53125-.156736-.28801.241786-1.0614.4375-1.65625-.201161-.17858-.419409-.33716-.65625-.46875-.500893.37513-1.084329.99436-1.40625.9375-.316887-.056-.662888-.81955-1-1.34375-.04019.007-.08527-.008-.125 0zm.625 1.875c.931981 0 1.6875.75552 1.6875 1.6875s-.755519 1.6875-1.6875 1.6875-1.6875-.75552-1.6875-1.6875.755519-1.6875 1.6875-1.6875z"/></g></svg>