<svg height="16.02426" width="16" xmlns="http://www.w3.org/2000/svg"><g fill="#bebebe" transform="translate(-100 -685.97574)"><path d="m104.84002 687.83971a.99998337 1.0001916 0 0 0 -.34813.13393c-1.05343.60963-1.93145 1.46594-2.54405 2.5178-1.93955 3.33027-.81232 7.64908 2.51727 9.58903 3.32959 1.93996 7.64749.81248 9.58705-2.51779 1.93955-3.33027.81232-7.64908-2.51727-9.58904a1.008151 1.0083609 0 1 0 -1.01762 1.74103c2.39572 1.39584 3.18978 4.43396 1.79422 6.83018-1.39555 2.39622-4.43303 3.19044-6.82876 1.7946-2.38544-1.38986-3.19179-4.41196-1.821-6.8034l.0268-.0268c.43759-.75136 1.06851-1.3859 1.821-1.82137a.99998337 1.0001916 0 0 0 -.66949-1.84818z"/><path d="m107.78125 686.02726a1.0001 1.0000748 0 0 0 -.78125.99997v4.99988a1.0001 1.0000748 0 1 0 2 0v-4.99988a1.0001 1.0000748 0 0 0 -1.21875-.99997z"/></g></svg>