<svg height="16" width="16.000004" xmlns="http://www.w3.org/2000/svg"><g fill="#bebebe" transform="translate(-120.0002 -806)"><path d="m123.0002 808s-2 0-2 2v8h-1v2h3v-10h10v10h3v-2h-1v-8s0-2-2-2z"/><path d="m45 764h1c.01037-.00012.02079-.00046.03125 0 .254951.0112.50987.12858.6875.3125l2.28125 2.28125 2.3125-2.28125c.265625-.2305.446672-.3055.6875-.3125h1v1c0 .28647-.03434.55065-.25.75l-2.28125 2.28125 2.25 2.25c.188188.18817.281242.45345.28125.71875v1h-1c-.265301-.00001-.530586-.0931-.71875-.28125l-2.28125-2.28125-2.28125 2.28125c-.188164.18819-.45346.28125-.71875.28125h-1v-1c-.000003-.26529.09306-.53058.28125-.71875l2.28125-2.25-2.28125-2.28125c-.210742-.19463-.30316-.46925-.28125-.75z" transform="matrix(.75664163 0 0 .75693915 91.050953 233.795826)"/></g></svg>