<svg height="16" width="16" xmlns="http://www.w3.org/2000/svg"><g fill="#bebebe" fill-rule="evenodd"><path d="m14.560547 3.7402344c.251443.6430155.121406 1.4117967-.390625 1.9238281l-1.171875 1.1621094 1.001953 1.0019531 1.769531-1.7695312c.307308-.3073.307308-.8020751 0-1.109375zm-2.341797 3.8574218-6.671875 6.6132818-2.0625.548828-.1777344.726562 4.0253906-1.072266 5.8300778-5.8730464z" stroke-width="1.000012"/><path d="m2.0065 10.29269 5.84933-5.85075 2.99982 2.99981-5.82888 5.87306-4.02677 1.07184z"/><path d="m10.96516 1.67638c-.20052 0-.40103.0768-.55468.23047l-1.76953 1.76758 3.05273 3.05273 1.76953-1.76953c.3073-.3073.3073-.80208 0-1.10938l-1.94336-1.9414c-.15365-.15365-.35417-.23047-.55469-.23047z"/></g></svg>