<svg height="16" width="16" xmlns="http://www.w3.org/2000/svg"><g fill="#bebebe" fill-opacity=".501961"><path d="m4 4h1c.01037-.00012.02079-.00046.03125 0 .254951.0112.50987.12858.6875.3125l2.28125 2.28125 2.3125-2.28125c.265625-.2305.446672-.3055.6875-.3125h1v1c0 .28647-.03434.55065-.25.75l-2.28125 2.28125 2.25 2.25c.188188.18817.281242.45345.28125.71875v1h-1c-.265301-.00001-.530586-.0931-.71875-.28125l-2.28125-2.28125-2.28125 2.28125c-.188164.18819-.45346.28125-.71875.28125h-1v-1c-.000003-.26529.09306-.53058.28125-.71875l2.28125-2.25-2.28125-2.28125c-.210742-.19463-.30316-.46925-.28125-.75z"/><path d="m11.753906 1.5097656c-.20052 0-.401037.0768008-.554687.2304688l-1.7695315 1.7675781.1367187.1367187.0664063-.0664062.0234375-.0214844c.354409-.307544.880825-.5440366 1.314453-.5566406h.015625 2.013672v2c0 .3663853-.070131 1.0220201-.570312 1.484375l-.011719.0117188.064453.0644531 1.769531-1.7695313c.3073-.3073.3073-.802075 0-1.109375l-1.943359-1.9414062c-.15365-.15365-.354168-.2304698-.554688-.2304688zm-3.1093748 2.765625-.7753906.7734375.1347656.1347657.7792969-.7695313zm2.9980468 2.9960938-.759766.7597656.00586.0058594.755859-.7617188zm-6.6249999.6289062-2.2226562 2.2246094-1.0058594 4.09375 4.0273437-1.070312 2.2324219-2.248047-.0488281-.048829-1.5742188 1.574219c-.403915.403971-.9266342.574219-1.4257812.574219h-2v-2c-.000006-.499162.1703257-1.0218751.5742188-1.4257812l.0019531-.0019532 1.5664062-1.546875z" fill-rule="evenodd"/></g></svg>