<svg height="16" width="16" xmlns="http://www.w3.org/2000/svg"><g fill="#bebebe" fill-opacity=".501961"><path d="m4 4h1c.01037-.00012.02079-.00046.03125 0 .254951.0112.50987.12858.6875.3125l2.28125 2.28125 2.3125-2.28125c.265625-.2305.446672-.3055.6875-.3125h1v1c0 .28647-.03434.55065-.25.75l-2.28125 2.28125 2.25 2.25c.188188.18817.281242.45345.28125.71875v1h-1c-.265301-.00001-.530586-.0931-.71875-.28125l-2.28125-2.28125-2.28125 2.28125c-.188164.18819-.45346.28125-.71875.28125h-1v-1c-.000003-.26529.09306-.53058.28125-.71875l2.28125-2.25-2.28125-2.28125c-.210742-.19463-.30316-.46925-.28125-.75z"/><path d="m11.753906 1.5097656c-.20052 0-.401037.0767988-.554687.2304688l-1.7695315 1.7675781.4902344.4902344.0527343-.0527344.0117188-.0097656c.310017-.269022.664723-.4257469 1.001953-.4355469h.00586 1.507812v1.5c0 .326428-.052235.7863345-.410156 1.1171875l-.025391.0253906.417969.4179688 1.769531-1.7695313c.3073-.3073.3073-.802075 0-1.109375l-1.943359-1.9414062c-.15365-.15365-.354168-.2304688-.554688-.2304688zm-3.1093748 2.765625-1.1289062 1.1269532.4863281.4863281 1.1367188-1.1191407zm2.6445308 2.6425782-1.113281 1.1132812.361328.3613281 1.107422-1.1171875zm-5.9179682.6289062-2.5761719 2.578125-1.0058594 4.09375 4.0273437-1.070312 2.5839844-2.603516-.4003906-.400391-1.9277344 1.927735c-.2960397.29608-.690047.427734-1.0722656.427734h-1.5v-1.5c-.0000043-.382226.1316664-.776278.4277344-1.0722656l.0019531-.0019532 1.9238281-1.8964843z" fill-rule="evenodd"/></g></svg>