<svg height="16" width="16" xmlns="http://www.w3.org/2000/svg"><g fill="#bebebe" transform="translate(-400.984 -766.98573)"><path d="m11.636719 1.6757812c-.20052 0-.401038.0767988-.554688.2304688l-.376953.3769531c1.193492.8238495 2.226224 1.8639178 3.035156 3.0683594l.394532-.3945313c.3073-.3073.3073-.802075 0-1.109375l-1.94336-1.9414062c-.15365-.15365-.354167-.2304688-.554687-.2304688zm-3.1132815 2.7695313-.7304687.7304687c1.2632324.6954569 2.3068462 1.7434127 2.9941402 3.0117188l.728516-.734375c-.011547-.019677-.023456-.0390187-.035156-.0585938l-2.9375002-2.9375c-.0065251-.0039002-.0129949-.0078355-.0195313-.0117187zm-3.0214844 3.0214844-.8398437.8417969c.169907-.0368075.3448984-.0585938.5253906-.0585938 1.37478 0 2.49999 1.12521 2.5 2.5-.0000017.23064-.0423583.449652-.1015625.662109l.9042969-.910156c-.4204266-1.4555715-1.5421814-2.5930521-2.9882813-3.0351561zm-2.7558593 2.7578121-.0683594.06836-1.0058594 4.09375 4.0273438-1.072266.1699218-.171875c-.2183124.062787-.4438673.107422-.6816406.107422-1.37479 0-2.5-1.12521-2.5-2.5 0-.180492.0217863-.355484.0585938-.525391z" fill-rule="evenodd" transform="translate(400.984 766.98573)"/><path d="m404.1715 767.73573v1c0 .55016.45347 1 1 1 4.97056 0 9 4.02944 9 9 0 .55016.45347 1 1 1h1v-1c0-6.07513-4.92487-11-11-11zm0 4v1c0 .55016.45347 1 1 1 2.76143 0 5 2.23857 5 5 0 .55016.45347 1 1 1h1v-1c0-3.866-3.134-7-7-7zm2 4a2.0000014 2.000001 0 0 0 -2 2 2.0000014 2.000001 0 0 0 2 2 2.0000014 2.000001 0 0 0 2-2 2.0000014 2.000001 0 0 0 -2-2z"/></g></svg>