<svg height="16" width="16" xmlns="http://www.w3.org/2000/svg"><g fill="#bebebe" fill-rule="evenodd" transform="translate(-400.984 -766.98573)"><g transform="translate(-.67213)"><path d="m403.66263 777.27842 5.84933-5.85075 2.99982 2.99981-5.82888 5.87306-4.02677 1.07184z"/><path d="m412.62129 768.66211c-.20052 0-.40103.0768-.55468.23047l-1.76953 1.76758 3.05273 3.05273 1.76953-1.76953c.3073-.3073.3073-.80208 0-1.10938l-1.94336-1.9414c-.15365-.15365-.35417-.23047-.55469-.23047z"/></g><path d="m12.964844 1.6757812c-.193744 0-.385643.0752935-.53711.21875l1.494141 1.4941407c.55398.55398.55398 1.4733737 0 2.0273437l-.769531.7695313.541015.5410156 1.769532-1.7695313c.3073-.3073.3073-.802075 0-1.109375l-1.94336-1.9414062c-.15365-.15365-.354167-.2304688-.554687-.2304688zm-.587891 5.2871094-.683594.6835938-.0625-.0625-6.0800778 6.1230466 1.4765626-.392578 5.8281252-5.8730468z" transform="translate(400.984 766.98573)"/></g></svg>