<svg height="16" width="16" xmlns="http://www.w3.org/2000/svg"><g fill="#bebebe"><path d="m2 2v3l1-1h2v6l-1 1h4l-1-1v-6h2l1 1v-3z"/><path d="m0 0v1h2v-1z"/><path d="m15 3v2h1v-2z"/><path d="m15 0v2h1v-2z"/><path d="m9.9463802 9.9444868h.7567038c.0078-.0000908.01573-.0003482.02364 0 .192922.00848.38582.097327.520233.2365432l1.726229 1.726768 1.749876-1.726768c.201-.174474.337998-.2312446.520234-.2365432h.756704v.7569392c0 .21684-.02598.416809-.189175.567704l-1.72623 1.726768 1.702583 1.703113c.142402.142433.212816.343234.212822.54405v.756939h-.756702c-.200755-.000008-.401497-.07047-.543881-.212889l-1.726229-1.726768-1.726229 1.726768c-.142385.142448-.343135.212889-.54388.212889h-.7567038v-.756939c-.000002-.200808.07042-.401617.2128238-.54405l1.726229-1.703113-1.726229-1.726768c-.1594642-.147323-.2293978-.355193-.2128188-.567704z" stroke-width=".756821"/><path d="m3 0v1h2v-1z"/><path d="m6 0v1h2v-1z"/><path d="m9 0v1h2v-1z"/><path d="m12 0v1h2v-1z"/><path d="m15 6v2h1v-2z"/><path d="m0 5v2h1v-2z"/><path d="m0 2v2h1v-2z"/><path d="m0 8v2h1v-2z"/><path d="m0 11v2h1v-2z"/><path d="m0 14v2h1v-2z"/><path d="m2 15v1h2v-1z"/><path d="m5 15v1h2v-1z"/><path d="m8 15v1h1v-1z" stroke-width=".707107"/></g></svg>