<svg height="16" width="16" xmlns="http://www.w3.org/2000/svg"><g fill="none" stroke="#bebebe"><path d="m6.7662284 15.507459c0-4.85624 3.8849916-8.7412308 8.7412316-8.7412308" stroke-linecap="round" stroke-linejoin="round" stroke-miterlimit="0" stroke-width=".971248"/><path d="m1.9885903 3.5566753c2.4084327 2.5395731 3.4406189 3.6279624 4.1287433 4.3535555.3440621.3627965.6881241.725593 1.0509207.3815309.6114571-.5798824 1.4511862-1.3762485 1.8139825-1.7203106s.7255926-.688124-.6506561-2.1393099c-1.3762484-1.4511859-1.7390447-1.107124-2.1018411-.7630618-.3627965.3440621-.7255929.6881241-2.1767787 2.0643726" stroke-linecap="square"/><path d="m14.369891 1.8939105c-.156537-.96293759-.652471-.89929699-1.148404-.8356564-.448423.057544-1.4878.1909219-1.983733.2545625-.495934.063641-.991867.1272812-.737305 2.1110145.254563 1.9837333.750496 1.9200927 1.246429 1.8564521.495934-.063641 1.983734-.2545624 2.974722-.3886875" stroke-linecap="square"/><g stroke-linecap="square" transform="matrix(.17700873 -.98420928 .98420928 .17700873 -.564686 34.10681)"><path d="m23.901342-2.3469239c-.008 2.01618001 0 3.00811021 0 3.5081102 0 .51492.5.50406 1 .50812"/><path d="m23.901342-2.3388139c-.5 0-3 0-3 0-.5 0-1 0-1 2.00000001 0 2.00000019.4884 2.01814019 1 2.00000019.4884-.01731 2 0 3 .0098"/></g></g><path d="m9.9463802 9.9444873h.7567038c.0078-.000091.01573-.000348.02364 0 .192922.0085.38582.09733.520233.2365427l1.726229 1.726768 1.749876-1.726768c.201-.174474.337998-.2312437.520234-.2365427h.756704v.7569387c0 .21684-.02598.416809-.189175.567704l-1.72623 1.726768 1.702583 1.703113c.142402.142433.212816.343234.212822.54405v.756939h-.756702c-.200755-.000008-.401497-.07047-.543881-.212889l-1.726229-1.726768-1.726229 1.726768c-.142385.142448-.343135.212889-.54388.212889h-.7567038v-.756939c-.000002-.200808.07042-.401617.2128238-.54405l1.726229-1.703113-1.726229-1.726768c-.1594638-.147323-.2293978-.355193-.2128188-.567704z" fill="#bebebe" stroke-width=".756821"/></svg>