<svg height="16" width="16" xmlns="http://www.w3.org/2000/svg"><g fill="#bebebe"><path d="m1 1v3l1-1h2v5l-1 1h4l-1-1v-5h2l1 1v-3z"/><path d="m1 5.999983h1v8.000003h-1z"/><path d="m8 5.999983h1v8.000003h-1z"/><path d="m3 12.999983h4v1h-4z" opacity=".35"/><path d="m9.9463802 9.944487h.7567038c.0078-.000091.01573-.000348.02364 0 .192922.0085.38582.09733.520233.236543l1.726229 1.726768 1.749876-1.726768c.201-.174474.337998-.231245.520234-.236543h.756704v.756939c0 .21684-.02598.416809-.189175.567704l-1.72623 1.726768 1.702583 1.703113c.142402.142433.212816.343234.212822.54405v.756939h-.756702c-.200755-.000008-.401497-.07047-.543881-.212889l-1.726229-1.726768-1.726229 1.726768c-.142385.142448-.343135.212889-.54388.212889h-.7567038v-.756939c-.000002-.200808.07042-.401617.2128238-.54405l1.726229-1.703113-1.726229-1.726768c-.1594637-.147323-.2293978-.355193-.2128188-.567704z" stroke-width=".756821"/></g></svg>