<svg height="16" width="16.000002" xmlns="http://www.w3.org/2000/svg"><path d="m6.99997 11.99999-.00001 1c-.00003.26531-.0931.53058-.28124.71875l-2.00001 2-.28125.28126h-.87499l-.28126-.28126-1.99999-2c-.18821-.18818-.28121-.45347-.28121-.71876l-.00001-1h1c.26531-.00004.53059.0931.71877.28121l1.28124 1.28126 1.28125-1.28125c.18817-.18815.45345-.28125.71875-.28125h1z" fill="#bebebe"/><path d="m2.99996.9373h2v13.0625h-2z" fill="#bebebe"/><g fill="none" stroke="#bebebe"><path d="m10.237262 1.1909168-.08532 6.2930016m2.243781-4.695088v3.105833l-1.298171-1.307899-2.3973247.02338c-.4995181-.02338-.9990389-.522937-.9990389-1.022458v-.198888m6.5202726 1.197966.771351-.49952m-2.000821-2.8963276h1.001779v6.2930016l-.981079-.02068" stroke-linecap="square" stroke-linejoin="round" stroke-width=".999541"/><path d="m14 10.609608v2.649031c0 .712671-.440843 1.741361-1.729425 1.741361h-3.7705749v-2.949968c0-2.2686602 2.9999999-2.1909152 2.9999999 0v2.949968"/></g></svg>