<svg height="16" width="16.000002" xmlns="http://www.w3.org/2000/svg"><path d="m6.99997 11.99999-.00001 1c-.00003.26531-.0931.53058-.28124.71875l-2.00001 2-.28125.28126h-.87499l-.28126-.28126-1.99999-2c-.18821-.18818-.28121-.45347-.28121-.71876l-.00001-1h1c.26531-.00004.53059.0931.71877.28121l1.28124 1.28126 1.28125-1.28125c.18817-.18815.45345-.28125.71875-.28125h1z" fill="#bebebe"/><path d="m2.99996.9373h2v13.0625h-2z" fill="#bebebe"/><g fill="none" stroke="#bebebe"><path d="m8.2004994 5.4471558 6.2930016.085317m-4.695088-2.2437808h3.105833l-1.307899 1.2981704.02338 2.3973251c-.02338.4995211-.522937.9990419-1.022458.9990419h-.198888m1.197966-6.5202731-.49952-.77135056m-2.8963276 2.00082126v-1.0017792h6.2930016l-.02068.9810791" stroke-linecap="square" stroke-linejoin="round" stroke-width=".999541"/><path d="m9.1707883 9.9999814h2.6488147c.712612 0 1.741218.4408456 1.741218 1.7294366v3.770601h-2.949727c-2.2684742 0-2.1907355-3.000021 0-3.000021h2.949727" stroke-width=".999963"/></g></svg>