<svg height="16" width="16" xmlns="http://www.w3.org/2000/svg"><g fill="#bebebe"><path d="m2.5031 4.0104-2.5031 6.9896h1.5019c.744-1.997-.002.001.7423-1.9955l2.5586.018.7041 1.9775h1.5018l-2.5031-6.9896zm1.0013 1.4978 1.0123 2.4963h-2.0025z"/><path d="m7 2v10.146484h-7v.853516h7 1v-.853516-10.146484z" opacity=".35"/><path d="m10.000359 10.000292h.749955c.0078-.00009.01559-.0003446.02344 0 .191201.0084.382379.09643.515594.234368l1.710835 1.710888 1.734271-1.710888c.199207-.172869.334983-.229118.515594-.234368h.749952v.749978c0 .214847-.02575.412976-.187489.562484l-1.710835 1.710888 1.687399 1.68745c.141133.141124.210919.340078.210925.539047v.749978h-.749955c-.198964-.000007-.397916-.06982-.539031-.210931l-1.710834-1.710888-1.710835 1.710888c-.141115.141138-.340075.210931-.539031.210931h-.749955v-.749978c-.000002-.198962.06979-.397923.210925-.539047l1.710835-1.68745-1.710835-1.710888c-.158047-.145968-.2273564-.351927-.210925-.562484z" stroke-width=".749967"/></g></svg>