<svg height="16" width="16" xmlns="http://www.w3.org/2000/svg" xmlns:xlink="http://www.w3.org/1999/xlink"><g fill="#bebebe"><g fill-rule="evenodd"><path d="m10.999922 5.0003266v-1.3332938c-.337942-1.0366358-2.0000533-.6666468-2.0000533 0v1.3332938z" stroke-width=".666666"/><path d="m14 9.0002081-1.000025-.9999703h-6.0001592l-1.0000275.9999703v6.9997919h8.0002117z" stroke-width=".666666"/><path d="m12.999975 7.0002671-1.333369-.9999703h-3.3334216l-1.3333686.9999703z" stroke-width=".471404"/></g><g transform="matrix(1.0000265 0 0 .99997028 -.062872 -.187019)"><circle id="a" cx="7.84371" cy="4.296035" fill="#bebebe" r=".268804" stroke-width=".066667"/><use id="b" fill="#bebebe" height="1052.3621" transform="matrix(1.058646 0 0 1.058646 -.970372 .50079)" width="744.09448" xlink:href="#a"/><use id="c" fill="#bebebe" height="1052.3621" transform="translate(.000001 -1.472143)" width="744.09448" xlink:href="#b"/><use id="d" fill="#bebebe" height="1052.3621" transform="matrix(1.376269 0 0 1.376269 -3.684019 -1.32421)" width="744.09448" xlink:href="#b"/><use id="e" fill="#bebebe" height="1052.3621" transform="matrix(1.376269 0 0 1.376269 -3.905219 -1.946277)" width="744.09448" xlink:href="#c"/><circle id="f" cx="5.771512" cy="4.296045" fill="#bebebe" r=".391642" stroke-width=".097132"/><use id="g" fill="#bebebe" height="1052.3621" transform="matrix(1.50123 0 0 1.50123 -4.514919 -2.158343)" width="744.09448" xlink:href="#d"/><use id="h" fill="#bebebe" height="1052.3621" transform="matrix(1.50123 0 0 1.50123 -4.598119 -2.109277)" width="744.09448" xlink:href="#e"/><use id="i" fill="#bebebe" height="1052.3621" transform="matrix(1.50123 0 0 1.50123 -4.433319 -2.15301)" width="744.09448" xlink:href="#f"/><use fill="#bebebe" height="1052.3621" transform="matrix(1.485643 0 0 1.485643 -4.528439 -1.926077)" width="744.09448" xlink:href="#g"/><use fill="#bebebe" height="1052.3621" transform="matrix(1.485643 0 0 1.485643 -4.391439 -1.884477)" width="744.09448" xlink:href="#h"/><use fill="#bebebe" height="1052.3621" transform="matrix(1.485643 0 0 1.485643 -4.359506 -2.086143)" width="744.09448" xlink:href="#i"/><use id="j" fill="#bebebe" height="1052.3621" transform="translate(-2.823879 -.868877)" width="744.09448" xlink:href="#a"/><use fill="#bebebe" height="1052.3621" transform="translate(.298681 1.792057)" width="744.09448" xlink:href="#j"/><use id="k" fill="#bebebe" height="1052.3621" transform="translate(-3.149706 -.00001)" width="744.09448" xlink:href="#e"/><g fill="#bebebe"><use height="1052.3621" transform="translate(.461594 2.74239)" width="744.09448" xlink:href="#k"/><use height="1052.3621" transform="translate(-.489892 -.696143)" width="744.09448" xlink:href="#b"/></g></g></g></svg>