<svg height="16" width="16" xmlns="http://www.w3.org/2000/svg"><g fill="#bebebe" transform="translate(-261.0002 -827)"><path d="m264 830v2h1.90625c-.0552 0 .0937.17104.0937.0937v.9375h-1c-1.71588 0-3.03787 1.10986-3.0625 2.46875-.0123.67944.3195 1.35323.875 1.8125s1.30959.71875 2.1875.71875h2 1v-1-4.9375c.00005-1.17114-.89686-2.0937-2.0937-2.0937zm1 5.03125h1v1h-1c-.51941 0-.78011-.14571-.90625-.25s-.15755-.17804-.15625-.25c.003-.14393.0927-.5 1.0625-.5z"/><path d="m269 829v8.03125 1h1 2c.93855 0 1.78249-.3823 2.3125-.96875s.75988-1.33268.75-2.0625c-.01-.72982-.28566-1.45407-.8125-2.03125s-1.32895-.96875-2.25-.96875h-1v-3zm2 5h1c.42179 0 .61965.13545.78125.3125s.27751.44294.28125.71875c.004.27581-.0984.51973-.25.6875-.15163.16777-.35374.3125-.8125.3125h-1z"/><path d="m264 838.28125-.34375.375-2 2a.50005.50005 0 1 0 .6875.6875l1.65625-1.65625 1.65625 1.65625.34375.375.34375-.375 1.65625-1.65625 1.65625 1.65625.34375.375.34375-.375 1.65625-1.65625 1.65625 1.65625.34375.375.34375-.375 2-2a.50005.50005 0 1 0 -.6875-.6875l-1.65625 1.65625-1.65625-1.65625-.34375-.375-.34375.375-1.65625 1.65625-1.65625-1.65625-.34375-.375-.34375.375-1.65625 1.65625-1.65625-1.65625z"/></g></svg>