<svg height="16" width="16" xmlns="http://www.w3.org/2000/svg"><path d="m12 1c-1.647971 0-3 1.3520293-3 3v1.25.25h-2v-.25-1.25c0-1.2112328-.732529-2.3079657-1.851563-2.7714844-.559516-.23175929-1.16397-.28338246-1.734375-.1699218-.570404.1134605-1.10692.3920771-1.535156.8203124-.856471.856471-1.113909 2.1504981-.65039 3.2695313.463518 1.1190332 1.560251 1.8515625 2.771484 1.8515625h1.25.25v2h-1.5c-1.211233 0-2.307966.73253-2.771484 1.851562-.463519 1.119035-.206081 2.413061.65039 3.269532s2.150498 1.113909 3.269531.65039c1.119034-.463518 1.851563-1.560251 1.851563-2.771484v-1.25-.25h2v.25 1.25c0 1.211233.73253 2.307966 1.851562 2.771484 1.119035.463519 2.413061.206081 3.269532-.65039s1.113909-2.150498.65039-3.269532c-.463518-1.1190321-1.560251-1.8515621-2.771484-1.851562h-1.25-.25v-2h.25 1.25c1.647971 0 3-1.3520292 3-3s-1.352029-3-3-3zm0 1.5c.837311 0 1.5.6626894 1.5 1.5s-.662689 1.5-1.5 1.5h-1.25-.25v-.25-1.25c0-.8373106.662689-1.5 1.5-1.5zm-7.857422.00586c.145992.013977.291015.049173.431641.1074218.562501.2329953.925781.7778709.925781 1.3867182v1.25.25h-.25-1.25c-.608847 0-1.153723-.3632798-1.386719-.9257812-.232996-.5625017-.104348-1.2042456.326172-1.6347657.32289-.3228901.765149-.475526 1.203125-.4335931zm2.857422 4.49414h2v2h-2zm-3 3.5h1.5v.25 1.25c0 .608847-.36328 1.153723-.925781 1.386719-.562502.232995-1.204246.104348-1.634766-.326172s-.559168-1.072264-.326172-1.634766c.232996-.562501.777872-.925781 1.386719-.925781zm6.5 0h.25 1.25c.608847 0 1.153723.36328 1.386719.925781.232995.562502.104348 1.204246-.326172 1.634766s-1.072264.559167-1.634766.326172c-.562501-.232996-.925781-.777872-.925781-1.386719v-1.25z" fill="#bebebe"/></svg>