<svg height="15.99215" viewBox="0 0 15.999945 15.99215" width="15.999946" xmlns="http://www.w3.org/2000/svg"><path d="m8 0c-.8286295-.0002909-1.4997369.67123632-1.5 1.5.0003167.8286666.6714083 1.5002909 1.5 1.5.8279288-.0006788 1.4996838-.6720121 1.5-1.5-.0002627-.82808492-.6720334-1.49932125-1.5-1.5zm-1.9980469 3-5.80078122 12.871094 4.05273432-5.650391c1.2715652 1.104159 3.0718342 1.779297 4.7460938 1.779297 1.145757 0 2.366635-.254348 3.513672-.708984l3.285156 4.580078-2.273437-5.044922c.936349-.498842 1.784415-1.1394311 2.4375-1.9160158l-1.962891-.9101562c-.461848.3657532-.894726.6775242-1.322266.9433594l-2.677734-5.9433594c-.3852663.5186136-1.3078725.9995449-2 1-.7535144-.0008726-1.6323279-.4057796-1.9980469-1zm1.9980469 2 3.310547 4.6132812c-.695333.2516152-1.4331532.3867188-2.310547.3867188-1.3101128 0-2.5940712-.5913141-3.6640625-1.2871094z" fill="#bebebe"/></svg>