<svg height="16" viewBox="0 0 15.999999 16" width="16" xmlns="http://www.w3.org/2000/svg"><g fill="#bebebe"><path d="m8 3.15625-1.9589844 1.4375c-.9479658.0636306-4.192413 1.2893817-4.5800781 2.2890625-.67489396 1.7405-.33907 3.9236345-.21875 6.0527345.051622.9135.5008037 1.245515 1.0644531 1.228515.536533-.0163.9408844-.521715.9277344-1.228515-.037938-2.038821-.0263893-5.49885-.0253906-5.8183595l1.0722656 1.5703125 1.0625 1.5625 2.78125 4.15625c.38364.5682 1.0736.76981 1.53125.4375l4.96875-3.59375c.45762-.33233.50866-1.05678.125-1.625l-2.75-4.0625v1.4375c0 1.104569-.895431 2-2 2s-2-.895431-2-2z"/><rect height="8" rx="1" width="1.997469" x="9.002531"/></g></svg>