<svg height="16" width="16" xmlns="http://www.w3.org/2000/svg"><g fill="#bebebe"><path d="m14.642578 1.3574219c-3.486919 0-5.4854406.1232544-6.955078.5742187-1.1674868.3582482-1.9780129.9403249-2.8632812 1.7695313a1.0001 1.0001 0 0 1 .3886718.1523437l.2441406.1621094c.7630961-.6954615 1.4397179-1.1466411 2.4257813-1.4492188 1.3378072-.4105115 3.2892485-.5429687 6.7597655-.5429687zm-10.9648436 3.5214843c-.833776.9551392-1.4212918 1.9834982-1.78125 3.3300782-.4220053 1.5786942-.5644531 3.5813066-.5644532 6.4589846h.6640626c0-2.855291.1478455-4.8089797.5429687-6.2871096.3096539-1.1583948.7715054-2.0276499 1.4472656-2.8496094l-.1992187-.3554688a1.0001 1.0001 0 0 1 -.109375-.296875z"/><path d="m2 2v5h2.8125l-1.0253906-1.8242188a1.0001 1.0001 0 0 1 .859375-1.4902343 1.0001 1.0001 0 0 1 .5664062.1679687l1.7871094 1.1914063v-3.0449219z"/><path d="m12 0h4v4h-4z"/><path d="m0 11.999996h4v4h-4z"/><path d="m4.659158 4.6849005 5.990346 10.6495035 3.993564-3.993564z" fill-rule="evenodd"/></g></svg>