<svg height="16" width="16" xmlns="http://www.w3.org/2000/svg"><g fill="#bebebe" transform="translate(-281 -448)"><path d="m284.03145 449c-1.66919 0-3.03125 1.36206-3.03125 3.03125v7.9375c0 1.66919 1.36206 3.03125 3.03125 3.03125h8.9375c1.66919 0 3.03125-1.36206 3.03125-3.03125v-7.9375c0-1.66919-1.36206-3.03125-3.03125-3.03125zm0 2h8.9375c.59578 0 1.03125.43547 1.03125 1.03125v5.96875h-11v-5.96875c0-.59578.43547-1.03125 1.03125-1.03125zm-1.03125 8h5v2h-3.96875c-.59578 0-1.03125-.43547-1.03125-1.03125zm6 0h5v.96875c0 .59578-.43547 1.03125-1.03125 1.03125h-3.96875z"/><path d="m283.00018 451h11.000002v7h-11.000002z" opacity=".35"/></g></svg>