<svg height="16" width="16" xmlns="http://www.w3.org/2000/svg"><g fill="#bebebe" transform="translate(-281 -448)"><path d="m3.03125 1c-1.66919 0-3.03125 1.36206-3.03125 3.03125v7.9375c0 1.66919 1.36206 3.03125 3.03125 3.03125h6.9394531v-2h-1.9707031v-2h1.9707031v-1h-7.9707031v-5.96875c0-.59578.43547-1.03125 1.03125-1.03125h8.9375c.59578 0 1.03125.43547 1.03125 1.03125v5.9628906h2v-5.9628906c0-1.66919-1.36206-3.03125-3.03125-3.03125zm-1.03125 10h5v2h-3.96875c-.59578 0-1.03125-.43547-1.03125-1.03125z" transform="translate(281 448)"/><path d="m2 3v7h7.9707031v-.0058594h3.0292969v-6.9941406z" opacity=".35" transform="translate(281 448)"/><path d="m292 459h1.375l1.125 1.09375 1.09375-1.09375h1.40625v1.46875l-1.09375 1.0625 1.09375 1.0625v1.40625h-1.4375l-1.0625-1.0625-1.0625 1.0625h-1.4375v-1.40625l1.0625-1.0625-1.0625-1.0625z"/></g></svg>