<svg height="16" width="16" xmlns="http://www.w3.org/2000/svg"><g fill="#bebebe"><path d="m2.6875 1-.6875.6875v.140625l1.34375 1.34375 1.4140625-1.4140625-.7578125-.7578125zm2.0703125.7578125 1.4140625 1.4140625 1.4140625-1.4140625-.7578125-.7578125h-1.3125zm2.828125 0 1.4140625 1.4140625 1.414062-1.4140625-.757812-.7578125h-1.3125zm2.8281245 0 1.414063 1.4140625 1.414063-1.4140625-.757813-.7578125h-1.3125zm2.828126 0 .757812.7578125v-1.515625zm-1.414063 1.4140625-1.414063 1.4140625 1.414063 1.4140625 1.414063-1.4140625zm1.414063 1.4140625.757812.7578125v-1.515625zm-1.414063 1.4140625-1.414063 1.4140625.585938.5859375h1.65625l.585938-.5859375zm1.414063 1.4140625.585937.5859375h.171875v-1.34375zm-2.828126 0-1.414062-1.4140625v2h.828125zm-1.414062-1.4140625 1.414062-1.4140625-1.414062-1.4140625-1.4140625 1.4140625zm-1.4140625-1.4140625-1.4140625-1.4140625-1.4140625 1.4140625 1.4140625 1.4140625zm-2.828125 0-1.4140625-1.4140625-1.34375 1.34375v.140625l1.34375 1.34375z" stroke-width="2.783544"/><path d="m5 12v2h2v-2z" stroke-width="1.391772"/><path d="m8 14v-2h3v-2l2.9883 3-2.9883 3v-2z"/><path d="m2 12v2h2v-2z" stroke-width="1.391772"/></g></svg>