<svg height="16" width="16" xmlns="http://www.w3.org/2000/svg"><g fill="#bebebe"><path d="m5 12v2h2v-2z" stroke-width="1.391772"/><path d="m8 14v-2h3v-2l2.9883 3-2.9883 3v-2z"/><path d="m2 12v2h2v-2z" stroke-width="1.391772"/><path d="m2.454598 5.0022c-.2612.0228-.4772.2723-.4527.5231.0245.2509.2849.4575.5461.4333l3.889752.0313c1.178296.00948 1.4357.046 1.865201.4401.429399.3941.653499 1.0316.653499 2.0621-.004.2526.2348.485.4979.485.263001 0 .501601-.2324.497901-.485 0-1.1691-.273901-2.1155-.964702-2.7495-.690798-.634-1.238609-.6985502-2.549701-.7091l-3.88985-.0313c-.0311-.003-.0623-.003-.0933 0z"/><path d="m2.91104 1.0044c-1.333924.12451-1.146424 2.12451.1875 2h4.50046c1.5595 0 2.6551.4219 3.375 1.0937.7199.6719 1.125 1.6285 1.125 2.9063-.01912 1.3523227 2.019125 1.3523227 2 0 0-1.7222-.5949-3.2969-1.75-4.375-1.1551-1.0782-2.8095-1.625-4.75-1.625h-4.50046c-.06236-.005872-.125138-.005872-.1875 0z" stroke-width="2"/></g></svg>