<svg height="16" width="16" xmlns="http://www.w3.org/2000/svg"><g fill="#bebebe"><circle cx="8" cy="8" r="1"/><g fill-rule="evenodd"><path d="m4.2441406 5.75a.250025.250025 0 0 0 -.125.037109l-3.24999998 2a.250025.250025 0 0 0 0 .4257812l3.24999998 2.0000008a.250025.250025 0 0 0 .3613282-.117188l.4726562-1.1347655.6953125-.5097656a.250025.250025 0 0 0 .1015625-.2011719v-.5a.250025.250025 0 0 0 -.1015625-.2011719l-.6953125-.5097656-.4726562-1.1347656a.250025.250025 0 0 0 -.2363282-.1542969z"/><path d="m11.755859 5.7499998a.250025.250025 0 0 1 .125.03711l3.25 1.999999a.250025.250025 0 0 1 0 .425781l-3.25 2.0000012a.250025.250025 0 0 1 -.361328-.117188l-.472656-1.1347662-.695312-.509765a.250025.250025 0 0 1 -.101563-.201172v-.5a.250025.250025 0 0 1 .101563-.201172l.695312-.509766.472656-1.134765a.250025.250025 0 0 1 .236328-.154297z"/><path d="m10.249796 4.2439376a.250025.250025 0 0 0 -.03711-.125l-1.9999986-3.25000003a.250025.250025 0 0 0 -.4257812 0l-2.0000008 3.25000003a.250025.250025 0 0 0 .117188.3613282l1.1347655.4726562.5097656.6953125a.250025.250025 0 0 0 .2011719.1015625h.5a.250025.250025 0 0 0 .2011719-.1015625l.5097656-.6953125 1.1347661-.4726562a.250025.250025 0 0 0 .154296-.2363282z"/><path d="m10.249797 11.755656a.250025.250025 0 0 1 -.03711.125l-1.9999994 3.25a.250025.250025 0 0 1 -.425781 0l-2.0000012-3.25a.250025.250025 0 0 1 .117188-.361328l1.1347662-.472656.509765-.695312a.250025.250025 0 0 1 .201172-.101563h.5a.250025.250025 0 0 1 .201172.101563l.509766.695312 1.1347654.472656a.250025.250025 0 0 1 .154297.236328z"/></g></g></svg>