<svg height="16" width="16" xmlns="http://www.w3.org/2000/svg"><g fill="#bebebe" transform="translate(-261.0002 -727)"><path d="m266.0002 728a3 3 0 0 0 -3 3 3 3 0 0 0 2.125 2.86719c-.0738-.27803-.125-.56399-.125-.86719 0-1.95736 1.43319-3.59199 3.29883-3.92773a3 3 0 0 0 -2.29883-1.07227zm-2.55859 6.08594c-1.10938.36328-2.43603 1.28775-2.4375 2.90234l-.00391 3.01172c-.00072.554.446 1 1 1h1.00195l.002-2.01172c.00098-1.08101.47411-1.99511 1.08984-2.62109.52529-.53404 1.14603-.81911 1.73828-1.05078-.0813-.11068-.15213-.22881-.22461-.34571-.83796-.0684-1.55563-.34523-2.16601-.88476z"/><path d="m271.0002 729v2h6v-2z"/><path d="m269.0002 730a3 3 0 0 0 -3 3 3 3 0 0 0 3 3 3 3 0 0 0 3-3 3 3 0 0 0 -3-3zm-2.55859 6.08594c-1.10938.36328-2.43603 1.28775-2.4375 2.90234l-.00391 3.01172c-.00072.554.446 1 1 1h8c.554 0 1-.446 1-1v-3c0-1.38672-1.10231-2.5558-2.44531-2.90625-.70541.62353-1.53918.90625-2.55469.90625s-1.85318-.29053-2.55859-.91406z"/></g></svg>