<svg height="16" width="16" xmlns="http://www.w3.org/2000/svg"><g fill="#bebebe" transform="translate(-461.0002 -401)"><path d="m472.00021 409a3 3 0 0 1 -3 3 3 3 0 0 1 -3-3 3 3 0 0 1 3-3 3 3 0 0 1 3 3z"/><g transform="translate(461.0002 401)"><path d="m8 0a8 8 0 0 0 -6.3476562 3.1308594 8 8 0 0 0 -1.3789063 6.9394526l3.8652344-1.0351558a4 4 0 0 1 -.1386719-1.0351562 4 4 0 0 1 4-4z" fill-opacity=".501961"/><path d="m13.65625 2.34375-2.830078 2.8300781a4 4 0 0 1 1.173828 2.8261719 4 4 0 0 1 -4 4 4 4 0 0 1 -4-4h-4a8 8 0 0 0 5.9296875 7.726562 8 8 0 0 0 8.9980465-3.726562 8 8 0 0 0 -1.271484-9.65625z"/></g></g></svg>