<svg height="16" width="16" xmlns="http://www.w3.org/2000/svg"><g fill="#bebebe" transform="translate(-181 -867.00012)"><path d="m181 868v1 11 1h1 5c.1754 0 .52538.15166.8125.34375s.46875.375.46875.375l.71875.71875.71875-.75s.8963-.6875 1.28125-.6875h5 1v-1-11-1h-1-5c-.87652 0-1.56017.34756-2.03125.6875-.0301-.0207-.031-.0105-.0625-.0312-.46068-.30376-1.07814-.6563-1.90625-.6563h-5zm2 2h4c.13821 0 .51476.14746.8125.34375s.5.375.5.375l.71875.6875.6875-.71875s.89975-.6875 1.28125-.6875h4v9h-4c-.87693 0-1.56008.34735-2.03125.6875-.0196-.0135-.011-.0177-.0312-.0312-.4603-.30796-1.10243-.6563-1.93755-.6563h-4z"/><g transform="scale(-1 1)"><rect height="2" opacity=".35" rx=".375" width="3.000014" x="-187.00021" y="871.99976"/><rect height="2.000214" opacity=".35" rx=".375" width="3.000013" x="-187.00021" y="874.99976"/><rect height="2.000214" opacity=".35" rx=".375" width="3.000014" x="-194.00021" y="871.99976"/><rect height="2.000214" opacity=".35" rx=".375" width="3.000013" x="-194.00021" y="874.99976"/></g></g></svg>