<svg height="16" width="16" xmlns="http://www.w3.org/2000/svg"><path d="m2.9511719 0c-1.62608 0-2.9511719 1.3250919-2.9511719 2.9511719v10.0976561c0 1.62608 1.3250919 2.951172 2.9511719 2.951172h10.0976561c1.62608 0 2.951172-1.325092 2.951172-2.951172v-10.0976561c0-1.62608-1.325092-2.9511719-2.951172-2.9511719zm-1.9511719 4h14v2h-14zm0 3h14v2h-14zm0 3h14v2h-14zm0 3h14v.04883c0 1.089238-.861932 1.95117-1.951172 1.95117h-10.0976561c-1.08924 0-1.9511719-.861932-1.9511719-1.951172z" fill="#bebebe"/></svg>