<svg height="16" width="16" xmlns="http://www.w3.org/2000/svg"><g fill="#bebebe" transform="translate(-360.00021 -786)"><path d="m368.24053 787.50014c-.41498.005-.74671.34675-.74023.76172v11.47746c-.0143 1.01424 1.51434 1.01424 1.5 0v-11.47746c.007-.42262-.33713-.76723-.75977-.76172z" fill-rule="evenodd"/><path d="m361.76089 797.7499c-1.01424-.0143-1.01424 1.51434 0 1.5h3.47798c1.01424.0143 1.01424-1.51434 0-1.5z" fill-rule="evenodd"/><path d="m371.25 788.75a.750075.750075 0 0 0 -.75.75v3a.750075.750075 0 0 0 .75.75h3a.750075.750075 0 0 0 .75-.75v-3a.750075.750075 0 0 0 -.75-.75zm.75 1.5h1.5v1.5h-1.5z"/><path d="m371.25 794.75a.750075.750075 0 0 0 -.75.75v3a.750075.750075 0 0 0 .75.75h3a.750075.750075 0 0 0 .75-.75v-3a.750075.750075 0 0 0 -.75-.75zm.75 1.5h1.5v1.5h-1.5z"/><g fill-rule="evenodd"><path d="m361.76089 794.7499c-1.01424-.0143-1.01424 1.51434 0 1.5h3.47798c1.01424.0143 1.01424-1.51434 0-1.5z"/><path d="m361.76089 791.7499c-1.01424-.0143-1.01424 1.51434 0 1.5h3.47798c1.01424.0143 1.01424-1.51434 0-1.5z"/><path d="m361.76089 788.7499c-1.01424-.0143-1.01424 1.51434 0 1.5h3.47798c1.01424.0143 1.01424-1.51434 0-1.5z"/></g></g></svg>