<svg height="16.00001" viewBox="0 0 16.028591 16.00001" width="16.028591" xmlns="http://www.w3.org/2000/svg"><g fill="#bebebe" transform="translate(-40.971608 -1007)"><path d="m43.120538 1007c-.9012 0-2.14893.6913-2.14893 1.5746v12.7958c0 .8833 1.24773 1.6103 2.14893 1.6104l4.492178-2.9445c.70245-.4555 1.44189-.7271 1.44189-1.6105v-6.9066c0-.8834-.93834-1.22-1.44189-1.6104zm0 1.4367 4.790049 2.925c.06616.038.09803.077.09803.1575v6.9066c0 .065-.04025.1113-.08631.1379l-4.801768 2.9445c-.093-.0001-.141-.042-.141-.138v-12.7956c-.00015-.096.0525-.1367.141-.1379z"/><path d="m54.85127 1007c.9012 0 2.14893.6913 2.14893 1.5746v12.7958c0 .8833-1.24773 1.6103-2.14893 1.6104l-4.351553-2.9445c-.70245-.4555-1.44189-.7271-1.44189-1.6105v-6.9066c0-.8834.93834-1.22 1.44189-1.6104zm0 1.4367-4.727549 2.925c-.06616.038-.09803.077-.09803.1575v6.9066c0 .065.04025.1113.08631.1379l4.739268 2.9445c.093-.0001.141-.042.141-.138v-12.7956c.00015-.096-.0525-.1367-.140999-.1379z" opacity=".5"/></g></svg>