<svg height="16" width="16" xmlns="http://www.w3.org/2000/svg"><path d="m2.9511719 0c-1.62608 0-2.9511719 1.3250919-2.9511719 2.9511719v10.0976561c0 1.62608 1.3250919 2.951172 2.9511719 2.951172h10.0976561c1.62608 0 2.951172-1.325092 2.951172-2.951172v-10.0976561c0-1.62608-1.325092-2.9511719-2.951172-2.9511719zm0 1h4.0488281v3h-6v-1.0488281c0-1.08924.8619319-1.9511719 1.9511719-1.9511719zm5.0488281 0h5.048828c1.08924 0 1.951172.8619319 1.951172 1.9511719v1.0488281h-7zm-7 4h6v3h-6zm7 0h7v3h-7zm-7 4h6v6h-4.0488281c-1.08924 0-1.9511719-.861932-1.9511719-1.951172zm7 0h7v3h-7zm0 4h7v.048828c0 1.08924-.861932 1.951172-1.951172 1.951172h-5.048828z" fill="#bebebe"/></svg>