<svg height="16" width="16" xmlns="http://www.w3.org/2000/svg"><path d="m253.90645 628.96875a1.0001 1.0001 0 0 0 -.125.0312 1.0001 1.0001 0 0 0 -.78125 1v1.6875c-.38225-.57796-.84927-1.08223-1.40625-1.5-1.15563-.86677-2.53199-1.25227-3.875-1.1875-.19186.009-.37223.0353-.5625.0625-1.52218.21741-2.97815 1.02304-3.96875 2.34375-1.98119 2.64144-1.42267 6.42505 1.21875 8.40625 2.64147 1.98122 6.42504 1.42267 8.40625-1.21875a1.0063276 1.0063276 0 0 0 .1875-.5937 1.0063276 1.0063276 0 0 0 0-.15625v-.84375h-.8125-.0937a1.0063276 1.0063276 0 0 0 -.0937 0 1.0063276 1.0063276 0 0 0 -.8125.40625c-1.33265 1.77674-3.81702 2.11387-5.59375.78125-1.77674-1.33264-2.1139-3.81699-.78125-5.59375 1.33265-1.77674 3.817-2.11389 5.59375-.78125.42946.32212.76954.73295 1.03125 1.1875h-1.4375a1.0001 1.0001 0 0 0 -1 1 1.0001 1.0001 0 0 0 0 .21875v.78125h.84375.15625 4 1v-1-4a1.0001 1.0001 0 0 0 0-.1875v-.8125h-.8125a1.0001 1.0001 0 0 0 -.28125-.0312z" fill="#bebebe" transform="translate(-241.0002 -627)"/></svg>