<svg height="16" width="16" xmlns="http://www.w3.org/2000/svg"><g fill="#bebebe" transform="translate(-461.0002 -401)"><path d="m463.95117 401c-1.62608 0-2.95117 1.32509-2.95117 2.95117v10.09766c0 1.62608 1.32509 2.95117 2.95117 2.95117h10.09766c1.62608 0 2.95117-1.32509 2.95117-2.95117v-10.09766c0-1.62608-1.32509-2.95117-2.95117-2.95117zm0 1h10.09766c1.08924 0 1.95117.86193 1.95117 1.95117v10.09766c0 1.08924-.86193 1.95117-1.95117 1.95117h-10.09766c-1.08924 0-1.95117-.86193-1.95117-1.95117v-10.09766c0-1.08924.86193-1.95117 1.95117-1.95117z"/><path d="m3.0136719 2a1 1 0 0 0 -.0136719 2v9.492188a.5.5 0 0 0 1 0v-9.492188h2v9.492188a.5.5 0 0 0 1 0v-9.492188h2v9.492188a.5.5 0 0 0 1 0v-9.492188h2v9.492188a.5.5 0 0 0 1 0v-9.492188a1 1 0 0 0 -.013672-2h-.49414-3.0000005-3-3z" fill-rule="evenodd" transform="translate(461.0002 401)"/></g></svg>