<svg height="16" width="16" xmlns="http://www.w3.org/2000/svg"><path d="m2.9511719 0c-1.62608 0-2.9511719 1.3250919-2.9511719 2.9511719v10.0976561c0 1.62608 1.3250919 2.951172 2.9511719 2.951172h10.0976561c1.62608 0 2.951172-1.325092 2.951172-2.951172v-10.0976561c0-1.62608-1.325092-2.9511719-2.951172-2.9511719zm-1.9511719 4h3v2h-3zm4 0h10v2h-10zm-4 3h3v2h-3zm4 0h10v2h-10zm-4 3h3v2h-3zm4 0h10v2h-10zm-4 3h3v2h-1.0488281c-1.08924 0-1.9511719-.861932-1.9511719-1.951172zm4 0h10v.048828c0 1.089238-.861932 1.951172-1.951172 1.951172h-8.048828z" fill="#bebebe"/></svg>