<svg height="16" width="16" xmlns="http://www.w3.org/2000/svg"><g transform="translate(-41.0002 -767)"><path d="m42.78125 776a1.0001 1.0001 0 0 0 -.78125 1v4a1.0001 1.0001 0 0 0 1 1h4a1.0001 1.0001 0 1 0 0-2h-3v-3a1.0001 1.0001 0 0 0 -1.21875-1z" fill="#bebebe"/><path d="m47.375 775.5a1.0001 1.0001 0 0 0 -.59375.28125l-4.5 4.5a1.016466 1.016466 0 1 0 1.4375 1.4375l4.5-4.5a1.0001 1.0001 0 0 0 -.84375-1.71875z" fill="#bebebe"/><path d="m42.000198 781h1v1h-1z" fill="#bdbdbd"/><path d="m50.90625 768a1.001098 1.001098 0 1 0 .09375 2h3v3a1.0001 1.0001 0 1 0 2 0v-4a1.0001 1.0001 0 0 0 -1-1h-4a1.0001 1.0001 0 0 0 -.09375 0z" fill="#bebebe"/><path d="m55.000198 768h1v1h-1z" fill="#bdbdbd"/><g fill="#bebebe"><path d="m54.78125 768a1.0001 1.0001 0 0 0 -.5.28125l-4.5 4.46875a1.016466 1.016466 0 1 0 1.4375 1.4375l4.5-4.46875a1.0001 1.0001 0 0 0 -.9375-1.71875z"/><path d="m42.000198 776h1v1h-1z"/><path d="m47.000198 781h1v1h-1z"/><path d="m55.000198 773h1v1h-1z"/><path d="m50.000198 768h1v1h-1z"/></g></g></svg>