<svg height="16" width="16" xmlns="http://www.w3.org/2000/svg"><g fill="#bebebe" transform="translate(-461.0002 -401)"><path d="m461.00021 401c1.108 0 2 1.11333 2 2.49625v11.0075c0 1.38292-.892 2.49625-2 2.49625z"/><path d="m477.00021 401v16c-1.108 0-2-1.11333-2-2.49625v-11.0075c0-1.38292.892-2.49625 2-2.49625z"/><path d="m465.42364 404h7.15315c.78858 0 1.42342.63485 1.42342 1.42343v7.15314c0 .78858-.63484 1.42343-1.42342 1.42343h-7.15315c-.78858 0-1.42343-.63485-1.42343-1.42343v-7.15314c0-.78858.63485-1.42343 1.42343-1.42343z"/></g></svg>