<svg height="16" width="16" xmlns="http://www.w3.org/2000/svg"><path d="m8.088507.041c-.6886029 3.5709752-2.0886148 3.9690588-4.9037475 1.1302357 1.8365582 3.6097361 1.0004897 4.8551541-3.15387948 4.1936065 3.57444278 1.7732887 3.71338718 3.2477768.25527485 5.1220888 3.88488993-.4889589 4.63647373.781582 2.79567133 4.269777 2.8586808-2.798838 4.2518911-2.379381 4.8872781 1.202292.7766606-3.669815 2.2142357-3.936807 4.8975727-1.128176-1.823803-3.752129-.866925-4.9050919 3.131234-4.197725a8.4320459 8.4322463 0 0 0 .0021-.0082c-3.618741-1.8846804-3.616647-3.3572017-.26561-5.1035943-3.729583.5309326-4.592141-.6577632-2.768908-4.2738965-2.722022 2.7633657-4.1555921 2.4724262-4.876986-1.2064082zm-8.05762698 5.3238422-.02470402-.0185283a8.4320459 8.4322463 0 0 0 -.006176.0185284zm7.99380828-1.2764044a3.8844255 3.8845178 0 0 1 3.8847067 3.8847991 3.8844255 3.8845178 0 0 1 -3.8847067 3.8847991 3.8844255 3.8845178 0 0 1 -3.8847067-3.8847991 3.8844255 3.8845178 0 0 1 3.8847067-3.8847991z" fill="#bebebe"/></svg>