<svg height="16" width="16" xmlns="http://www.w3.org/2000/svg"><g fill="#bebebe" transform="translate(-81 -447)"><path d="m10.345703 6.0683594-3.6386718 3.6386718a1.0001 1.0001 0 0 1 -.7226562.2929688 1.0001 1.0001 0 0 1 -.6914062-.2929688l-3.6328126-3.6328124c-.3686977.1469983-.6289062.5033562-.6289062.9257812v7c0 .554.4461108 1 1 1h7.96875c.553889 0 1-.446 1-1v-7c0-.4314808-.272973-.7908735-.654297-.9316406z" transform="translate(81 447)"/><path d="m92 457.4693 3.469295-3.4693h.530905v7h-.5z"/><path d="m86 446.99988h2v5h3l-4 4-4-4h3z" fill-rule="evenodd"/></g></svg>