<svg height="16" width="16" xmlns="http://www.w3.org/2000/svg"><g fill="#bebebe"><path d="m15 4.2285156v8.8789064c0 .41924-.336609.757812-.755859.757812h-8.501953-2.628907-1.357422c-.41925 0-.755859-.338572-.755859-.757812v-8.8789064h5.2695312 2.2949219zm-8.7792969.7714844a.66507327.66507327 0 0 0 -.203125.029297c-.03497-.01243-.07199-.021484-.1113281-.021484-.184207 0-.330078.1478243-.330078.3320313 0 .03216.00715.062417.015625.091797a.66507327.66507327 0 0 0 .169922.7207025l2.847656 2.8457031-2.847656 2.8476561a.67595688.67595688 0 0 0 -.16211.6875c-.01491.03785-.023437.07977-.023437.123047 0 .184207.145872.332031.330078.332031.04157 0 .08056-.0096.1171875-.02344a.67595688.67595688 0 0 0 .6933594-.16406l3.3261721-3.3242185.457031-.4785156-.457031-.4785157-3.3261721-3.3242187a.66507327.66507327 0 0 0 -.3925781-.1875.66507327.66507327 0 0 0 -.1035157-.0078125z"/><path d="m1.7558594 2.1347656c-.41925 0-.7558594.3385725-.7558594.7578125v1.3359375h6.4316406 2.2988282 5.2695312v-1.3359375c0-.41924-.336609-.7578125-.755859-.7578125h-2.185547-2.2968752z" fill-opacity=".501961"/></g></svg>