<svg height="16" width="16" xmlns="http://www.w3.org/2000/svg"><g fill="#bebebe"><path d="m0 2.0585938v8.7324222c0 .412279.33186192.74414.74414062.74414h1.97656248v-4.4999998-2-1.3144531c0-.776695.5362602-1.4431428 1.25-1.6621093z"/><path d="m.74414062 0c-.41227869 0-.74414062.33186162-.74414062.74414062v1.31445318h3.9707031c.1582567-.0485512.3219253-.0820313.4941407-.0820313h7.8144532v-1.23242188c0-.412279-.331862-.74414062-.744141-.74414062z" fill-opacity=".501961"/><path d="m3.721001 5.035437v8.732422c0 .412279.331862.744141.744141.744141h10.791015c.412279 0 .744141-.331862.744141-.744141v-8.732422z"/><path d="m3.721 5.034735v-1.31361c0-.412279.331907-.744185.744185-.744185h10.790688c.412279 0 .744186.331906.744186.744185v1.31361" fill-opacity=".501961"/></g></svg>