<svg height="16" width="16" xmlns="http://www.w3.org/2000/svg"><g fill="#bebebe"><path d="m1 4.2285156v8.8789064c0 .41924.3366094.757812.7558594.757812h8.5019526 2.628907 1.357422c.41925 0 .755859-.338572.755859-.757812v-8.8789064h-5.2695312-2.2949219zm8.7792969.7714844a.66507327.66507327 0 0 1 .203125.0292969c.0349701-.01243.0719901-.0214844.1113281-.0214844.184207 0 .330078.1478243.330078.3320313 0 .03216-.007145.0624168-.015625.0917968a.66507327.66507327 0 0 1 -.169922.7207032l-2.847656 2.8457031 2.847656 2.8476561a.67595688.67595688 0 0 1 .16211.6875c.01491.03785.023437.079772.023437.123047 0 .184207-.145872.332031-.330078.332031-.04157 0-.08056-.009597-.1171875-.023437a.67595688.67595688 0 0 1 -.6933594-.164063l-3.3261719-3.3242185-.4570312-.4785156.4570312-.4785157 3.3261719-3.3242187a.66507327.66507327 0 0 1 .3925781-.1875.66507327.66507327 0 0 1 .1035157-.0078125z"/><path d="m1.7558594 2.1347656c-.41925 0-.7558594.3385725-.7558594.7578125v1.3359375h6.4316406 2.2988282 5.2695312v-1.3359375c0-.41924-.336609-.7578125-.755859-.7578125h-2.185547-2.2968752z" fill-opacity=".501961"/></g></svg>