<svg height="16" width="15.981825" xmlns="http://www.w3.org/2000/svg"><path d="m12.78125 2c.66976 0 1.21875.5248 1.21875 1.1875v9.625c0 .6627-.54899 1.1875-1.21875 1.1875h-9.5625c-.66976 0-1.21875-.5248-1.21875-1.1875v-9.625c0-.6627.54899-1.1875 1.21875-1.1875zm-7.037109 1a.83140943.83140943 0 0 0 -.253907.037109c-.04371-.015538-.089499-.027344-.138672-.027344-.230277 0-.414062.1857383-.414062.4160156 0 .040206.010929.07656.021484.1132813a.83140943.83140943 0 0 0 .210938.9003912l3.5605468 3.5585938-3.5605468 3.5585941a.84501505.84501505 0 0 0 -.203125.861328c-.018641.04732-.029297.09825-.029297.152343 0 .230278.183786.416016.414062.416016.051972 0 .100702-.01203.146485-.0293a.84501505.84501505 0 0 0 .8671874-.205075l4.1582036-4.1562499.570312-.5976562-.570312-.5976563-4.1582036-4.15625a.83140943.83140943 0 0 0 -.4921874-.234375.83140943.83140943 0 0 0 -.128906-.0097656z" fill="#bebebe"/></svg>