<svg height="16" width="15.981825" xmlns="http://www.w3.org/2000/svg"><path d="m3.21875 2c-.66976 0-1.21875.5248-1.21875 1.1875v9.625c0 .6627.54899 1.1875 1.21875 1.1875h9.5625c.66976 0 1.21875-.5248 1.21875-1.1875v-9.625c0-.6627-.54899-1.1875-1.21875-1.1875zm7.037109 1a.83140943.83140943 0 0 1 .253907.0371094c.04371-.0155382.089499-.0273438.138672-.0273438.230277 0 .414062.1857383.414062.4160156 0 .040206-.010929.0765602-.021484.1132813a.83140943.83140943 0 0 1 -.210938.9003906l-3.5605468 3.5585938 3.5605468 3.5585941a.84501505.84501505 0 0 1 .203125.861328c.018641.04732.029297.098248.029297.152343 0 .230278-.183786.416016-.414062.416016-.051972 0-.100702-.012026-.146485-.029297a.84501505.84501505 0 0 1 -.8671874-.205078l-4.1582031-4.1562499-.5703125-.5976562.5703125-.5976563 4.1582031-4.15625a.83140943.83140943 0 0 1 .4921874-.234375.83140943.83140943 0 0 1 .128906-.0097656z" fill="#bebebe"/></svg>