<svg height="16" width="15.981825" xmlns="http://www.w3.org/2000/svg"><g fill="#bebebe"><path d="m3.21875 2c-.66976 0-1.21875.5248-1.21875 1.1875v9.625c0 .6627.54899 1.1875 1.21875 1.1875h9.5625c.66976 0 1.21875-.5248 1.21875-1.1875v-9.625c0-.6627-.54899-1.1875-1.21875-1.1875zm.78125 1h8v10h-8zm1 1v8h6v-8zm3.5 2a1.5 1.5 0 0 1 1.5 1.5 1.5 1.5 0 0 1 -1 1.4121094v2.0878906h-3v-3h1.0878906a1.5 1.5 0 0 1 -.0878906-.5 1.5 1.5 0 0 1 1.5-1.5z"/><path d="m4 3v10h8v-10zm1 1h6v8h-6z" opacity=".7"/></g></svg>