<svg height="16" width="16" xmlns="http://www.w3.org/2000/svg"><path d="m449.0004 520.00002c-3.86599 0-7 3.13401-7 7s3.13401 7 7 7 7-3.13401 7-7-3.13401-7-7-7zm-2 4c.55833 0 1.03125.47292 1.03125 1.03125v.96875c0 .55833-.47292 1-1.03125 1s-1-.44167-1-1v-.96875c0-.55833.44167-1.03125 1-1.03125zm4 0c.55833 0 1 .47292 1 1.03125v.96875c0 .55833-.44167 1-1 1s-1-.44167-1-1v-.96875c0-.55833.44167-1.03125 1-1.03125zm-7 4.06981c.99656.6369 4.01648.91724 5 .91724s3.80457.0511 5-.91724v.5c0 .68098-1.74415 1.4043-5 1.4043s-5-.87179-5-1.4043z" fill="#bebebe" transform="translate(-441.0002 -519)"/></svg>
