<svg height="16" width="16" xmlns="http://www.w3.org/2000/svg"><path d="m469.0002 540c-3.86599 0-7 3.13401-7 7s3.13401 7 7 7 7-3.13401 7-7-3.13401-7-7-7zm-5.78125 4.03125c3.91256-.0377 7.97164-.00016 11.5625 0 0 1.642-1.24971 2.96875-2.78125 2.96875-1.27537 0-2.33255-.93056-2.65625-2.1875h-.6875c-.3237 1.25699-1.38088 2.1875-2.65625 2.1875-1.53154 0-2.78125-1.3268-2.78125-2.96875zm.78125 4.03125c.71531 1.0744 2.23523 1.9375 5 1.9375 2.45227 0 4.21082-.75041 5-1.9375v.5c0 .68098-.8379 2.40625-5 2.40625-3.88085 0-5-1.87374-5-2.40625z" fill="#bebebe" transform="translate(-461 -538.99998)"/></svg>
