<svg height="16" width="16" xmlns="http://www.w3.org/2000/svg"><path d="m489.00019 539.96875c-3.86599 0-7 3.13401-7 7s3.13401 7 7 7 7-3.13401 7-7-3.13401-7-7-7zm-2.46875 3.71875c.73437 0 1.46875.44603 1.46875 1.3125-1.5-.33848-3.125 1.73294-3 0 .0625-.86647.79688-1.3125 1.53125-1.3125zm4.9375 0c.73437 0 1.46875.44603 1.53125 1.3125.125 1.73294-1.5-.33848-3 0 0-.86647.73438-1.3125 1.46875-1.3125zm-7.46875 4.3125c2 1.30345 7.98706 1.30345 10.03125 0l-.0312.53125c-.0364.42971-.99999 3.375-5 3.40625-3.99999.0312-5-2.78-5-3.3125v-.625z" fill="#babdb6" transform="translate(-481.0002 -538.96875)"/></svg>