<svg height="16" width="16" xmlns="http://www.w3.org/2000/svg"><path d="m549.00022 640c-3.86599 0-7 3.13401-7 7s3.13401 7 7 7 7-3.13401 7-7-3.13401-7-7-7zm-2 4c.55833 0 1.03125.47292 1.03125 1.03125v.96875c0 .55833-.47292 1-1.03125 1s-1-.44167-1-1v-.96875c0-.55833.44167-1.03125 1-1.03125zm4 0c.55833 0 1 .47292 1 1.03125v.96875c0 .55833-.44167 1-1 1s-1-.44167-1-1v-.96875c0-.55833.44167-1.03125 1-1.03125zm-2 4.59375c1.05921 0 1.92914.9211 1.9375 2.03125 0 1.11641-.87235 2.03125-1.9375 2.03125s-1.9375-.91484-1.9375-2.03125.87235-2.03125 1.9375-2.03125z" fill="#babdb6" transform="translate(-541.0002 -639)"/></svg>