<svg height="16" width="16" xmlns="http://www.w3.org/2000/svg"><path d="m670.00022 540c-3.86599 0-7 3.13401-7 7s3.13401 7 7 7 7-3.13401 7-7-3.13401-7-7-7zm-2.46875 5.17678c.73437 0 1.46875.44603 1.46875 1.3125-1.5-.33848-3.125 1.73294-3 0 .0625-.86647.79688-1.3125 1.53125-1.3125zm4.9375 0c.73437 0 1.46875.44603 1.53125 1.3125.125 1.73294-1.5-.33848-3 0 0-.86647.73438-1.3125 1.46875-1.3125zm-5.99908 2.55805c.41493 0 .75.33507.75.75s-.33507.75-.75.75-.75-.33507-.75-.75.33507-.75.75-.75zm7.01647 0c.41493 0 .75.33507.75.75s-.33507.75-.75.75-.75-.33507-.75-.75.33507-.75.75-.75zm-4.09015 2.26249h1.17187c.20621 0 .54688.223.54688.5s-.34067.51562-.54688.51562h-1.17187c-.20621 0-.48438-.23862-.48438-.51562s.27817-.5.48438-.5z" fill="#babdb6" transform="translate(-662.0002 -539)"/></svg>