<svg height="16" width="16" xmlns="http://www.w3.org/2000/svg"><path d="m569.0002 520c-3.86599 0-7 3.13401-7 7s3.13401 7 7 7 7-3.13401 7-7-3.13401-7-7-7zm-2 4c.55833 0 1.03125.47292 1.03125 1.03125v.96875c0 .55833-.47292 1-1.03125 1s-1-.44167-1-1v-.96875c0-.55833.44167-1.03125 1-1.03125zm3.4375 1h.90625c.5224 0 .96875.21617.96875.5 0 .28382-.44635.5-.96875.5h-.90625c-.52241 0-.9375-.21618-.9375-.5 0-.28383.41509-.5.9375-.5zm-6.4375 3.0625c.71531 1.0744 2.23523 1.9375 5 1.9375 2.45227 0 4.21082-.75041 5-1.9375v.5c0 .68098-.8379 2.40625-5 2.40625-3.88085 0-5-1.87374-5-2.40625z" fill="#bebebe" transform="translate(-561 -518.99998)"/></svg>
