<svg height="16" width="16" xmlns="http://www.w3.org/2000/svg"><path d="m529.0002 540c-3.86599 0-7 3.13401-7 7s3.13401 7 7 7 7-3.13401 7-7-3.13401-7-7-7zm-2 4c.55833 0 1.03125.47292 1.03125 1.03125v.96875c0 .55833-.47292 1-1.03125 1s-1-.44167-1-1v-.96875c0-.55833.44167-1.03125 1-1.03125zm4 0c.55833 0 1 .47292 1 1.03125v.96875c0 .55833-.44167 1-1 1s-1-.44167-1-1v-.96875c0-.55833.44167-1.03125 1-1.03125zm-6 4 4 1 4-1c.0825.59047-.16081 1.05401-.67132 1.16783l-1.32868.33217 1.30883.32721c.71468.1915.69117.74919.69117 1.17279l-4-1-4 1c-.0655-.63125.0374-.98324.52023-1.13006l1.47977-.36994-1.50413-.33502c-.47451-.12796-.57901-.68121-.49587-1.16498z" fill="#babdb6" transform="translate(-521.00018 -539)"/></svg>