<svg height="16" width="16" xmlns="http://www.w3.org/2000/svg"><path d="m469.0002 680c-2.79099 0-5.18831 1.63698-6.3125 4h2.5625c.35037-.58405.99227-.96875 1.71875-.96875.56579 0 1.07266.24358 1.4375.625.20065-.13245.41238-.15625.5625-.15625.16562 0 .39413.0219.59375.15625.36484-.38142.87171-.625 1.4375-.625.72648 0 1.36838.3847 1.71875.96875h2.59375c-1.12419-2.36302-3.52151-4-6.3125-4zm-2.03125 4.03125c-.56265 0-1 .43735-1 1v.96875c0 .56265.43735 1 1 1s1-.43735 1-1v-.96875c0-.56265-.43735-1-1-1zm4.03125 0c-.56265 0-1 .43735-1 1v.96875c0 .56265.43735 1 1 1s1-.43735 1-1v-.96875c0-.56265-.43735-1-1-1zm-2.03125.78125c.001.009-.0322.0218-.0312.0312.006.0624.0312.12364.0312.1875v.96875c0 1.09935-.90065 2-2 2s-2-.90065-2-2v-.96875c0-.0105-.00016-.0208 0-.0312h-2.6875c-.18662.63065-.28125 1.30883-.28125 2 0 3.86599 3.13401 7 7 7s7-3.13401 7-7c0-.69117-.0946-1.36935-.28125-2h-2.71875c.00016.0105 0 .0207 0 .0312v.9688c0 1.09935-.90065 2-2 2s-2-.90065-2-2v-.96875c0-.042-.003-.0836 0-.125-.001-.0208-.001-.0417 0-.0625-.0109-.01-.0213-.0204-.0312-.0312zm-4.96875 4.25c.99656.6369 4.01648.9375 5 .9375s3.80457.0308 5-.9375v.5c0 .68098-1.74415 1.40625-5 1.40625s-5-.87374-5-1.40625z" fill="#babdb6" transform="translate(-461.0002 -679)"/></svg>