<svg height="16" width="16" xmlns="http://www.w3.org/2000/svg"><path d="m670.0002 520c-3.86599 0-7 3.13401-7 7s3.13401 7 7 7 7-3.13401 7-7-3.13401-7-7-7zm-3.6875 3.6875c.0418.003.0839.007.125.0312l1.125.65625 1.15625-.65625c.16541-.0917.34038-.0211.40625.15625.0659.17731-.0221.40825-.1875.5l-.71875.40625.71875.40625c.16421.0939.22441.29229.15625.46875-.0683.17645-.24204.21885-.40625.125l-1.125-.625-1.15625.625c-.16541.0918-.34036.0523-.40625-.125-.0659-.17731.0221-.40825.1875-.5l.6875-.40625-.6875-.375c-.16421-.0939-.25566-.32355-.1875-.5.0512-.13233.1874-.20014.3125-.1875zm5.15625 0c.0418.003.0839.007.125.0312l1.125.65625 1.15625-.65625c.16541-.0917.34038-.0211.40625.15625.0659.17731-.0221.40825-.1875.5l-.71875.40625.71875.40625c.16421.0939.25566.29229.1875.46875-.0683.17645-.27329.21885-.4375.125l-1.125-.65625-1.15625.65625c-.16541.0918-.34036.0523-.40625-.125-.0659-.17731.0221-.40825.1875-.5l.71875-.40625-.71875-.40625c-.16421-.0939-.25566-.2923-.1875-.46875.0512-.13233.1874-.20014.3125-.1875zm-4.34375 4.34375c.60381-.0539 1.26781.0911 1.875.53125.34921.22009.41248.27376 1 .34375.15925.0555.60706-.041 1-.34375.28067-.20469.56128-.29566.84375-.375 1.30927-.36774 2.57407.4362 3.15625 1.25v.5c-.51128-.28582-1.06053-.59799-1.625-.78125l.46875.9375c.32788.64742.13224 1.39897-.4375 1.6875-.56975.28853-1.29712-.009-1.625-.65625l-.59375-1.15625c-.051-.1008-.0675-.20871-.0937-.3125-.0265.0104-.0709.0278-.0937.0312-.54153.31352-1.55932.19637-2 0-.91691-.43721-.90913-.66739-1.53125-.6875-.85242.0189-1.84336.39879-2.46875.9375v-.5c.26351-.67866 1.11865-1.3165 2.125-1.40625z" fill="#bebebe" transform="translate(-662.00018 -519)"/></svg>
