<svg height="16" width="16" xmlns="http://www.w3.org/2000/svg"><path d="m550.00019 539.96875c-3.86599 0-7 3.13401-7 7s3.13401 7 7 7 7-3.13401 7-7-3.13401-7-7-7zm-2 4c.55833 0 1.03125.47292 1.03125 1.03125v.96875c0 .55833-.47292 1-1.03125 1s-1-.44167-1-1v-.96875c0-.55833.44167-1.03125 1-1.03125zm4 0c.55833 0 1 .47292 1 1.03125v.96875c0 .55833-.44167 1-1 1s-1-.44167-1-1v-.96875c0-.55833.44167-1.03125 1-1.03125zm-5.40637 3.8125c.0644-.009-.27909.0131-.21225.0312 4.48078-.0312 1.44996 2.58157 6.58725 2.64342.26734.0725.41625.35766.34375.625-.0725.26736-.3264.41625-.59375.34375-4.94757-.0138-2.90625-2.70587-6.1875-2.64337-.26734-.0725-.41625-.35766-.34375-.625.0544-.20051.21312-.34894.40625-.375z" fill="#babdb6" transform="translate(-542.00019 -538.9688)"/></svg>