<svg height="16" width="16" xmlns="http://www.w3.org/2000/svg"><path d="m449.0002 540c-1.65216 0-3.17769.57397-4.375 1.53125-1.13384-.44386-2.09344-.94913-2.6875-1.46875l-.0937.59375c-.0334.27084.10323 1.51302 1.15625 2.75-.63172 1.05171-1 2.27758-1 3.59375 0 3.86599 3.13401 7 7 7s7-3.13401 7-7c0-1.29065-.35953-2.49314-.96875-3.53125 1.011-1.21813 1.18917-2.38943 1.15625-2.65625l-.0937-.59375c-.57868.50616-1.49864.97101-2.59375 1.40625-.006-.005-.0256.005-.0312 0-1.21509-1.01518-2.76196-1.625-4.4689-1.625zm-2 4c.55833 0 1.03125.47292 1.03125 1.03125v.96875c0 .55833-.47292 1-1.03125 1s-1-.44167-1-1v-.96875c0-.55833.44167-1.03125 1-1.03125zm4 0c.55833 0 1 .47292 1 1.03125v.96875c0 .55833-.44167 1-1 1s-1-.44167-1-1v-.96875c0-.55833.44167-1.03125 1-1.03125zm2 4.97812c-.0291.34377-.92509 3.00323-4 3.00938-2.7886.006-4-2.55838-4-2.98438z" fill="#babdb6" transform="translate(-441.00021 -539)"/></svg>