<svg height="16" width="16" xmlns="http://www.w3.org/2000/svg"><path d="m609.0002 520c-3.86599 0-7 3.13401-7 7s3.13401 7 7 7 7-3.13401 7-7-3.13401-7-7-7zm-2 4c.55833 0 1.03125.47292 1.03125 1.03125v.96875c0 .55833-.47292 1-1.03125 1s-1-.44167-1-1v-.96875c0-.55833.44167-1.03125 1-1.03125zm4 0c.55833 0 1 .47292 1 1.03125v.96875c0 .55833-.44167 1-1 1s-1-.44167-1-1v-.96875c0-.55833.44167-1.03125 1-1.03125zm3 5.94286c-.76555-.42797-1.6121-.92076-2.47566-.93995-.65285.0193-1.23894.6539-1.52434.69709-.54153.31352-1.55932.19637-2 0-.91691-.43721-.92121-.68027-1.54333-.70038-.85242.0189-1.83128.40453-2.45667.94324v-.5c.42161-1.08586 2.38082-2.04455 4-.87083.34921.22009.42727.26657 1.01479.33656.15925.0555.59227-.0338.98521-.33659 1.5816-1.15342 3.29222-.11851 4 .87086z" fill="#bebebe" transform="translate(-601.00018 -519)"/></svg>
