<svg height="16" width="16" xmlns="http://www.w3.org/2000/svg"><path d="m629.0002 520c-3.86599 0-7 3.13401-7 7s3.13401 7 7 7 7-3.13401 7-7-3.13401-7-7-7zm-2 4c.55833 0 1.03125.40972 1.03125.875v.78125c0 .46528-.47292.84375-1.03125.84375s-1-.37847-1-.84375v-.78125c0-.46528.44167-.875 1-.875zm4 0c.55833 0 1 .37848 1 .84375v.8125c0 .46527-.44167.84375-1 .84375s-1-.37848-1-.84375v-.8125c0-.46527.44167-.84375 1-.84375zm1.75 2.28125c1.20777.44874 2.04627.93632 2.21875 1.5625.17247.62616-.30586 1.24159-.9375 1.25-.51878.007-.7686-.2154-.9375-.875-.16672-.66017.0828-1.29237-.34375-1.9375zm-3.78125 2.6875c2.58832 0 3.96875.98014 3.96875 1.5625v.53125c-.79224-.69651-3.18687-1-3.96875-1-.78187 0-3.01841-.059-3.96875 1v-.53125c0-.74472 1.38044-1.5625 3.96875-1.5625z" fill="#babdb6" transform="translate(-621.00019 -519)"/></svg>