<svg height="16" width="16" xmlns="http://www.w3.org/2000/svg"><path d="m589.00018 540c-3.86599 0-7 3.13401-7 7s3.13401 7 7 7 7-3.13401 7-7-3.13401-7-7-7zm-2 4c.55833 0 1.03125.47292 1.03125 1.03125v.96875c0 .55833-.47292 1-1.03125 1s-1-.44167-1-1v-.96875c0-.55833.44167-1.03125 1-1.03125zm4 0c.55833 0 1 .47292 1 1.03125v.96875c0 .55833-.44167 1-1 1s-1-.44167-1-1v-.96875c0-.55833.44167-1.03125 1-1.03125zm-7 4.0625c.99656.6369 4.01648.9375 5 .9375.49176 0 1.42862.0145 2.40625-.0937.97763-.10827 1.99604-.35958 2.59375-.84375v.5c0 .44149-.75339.91906-2.15625 1.1875l.25.53125c.27902.60331.0833 1.27559-.4375 1.53125l-.25.125c-.52084.25561-1.17494-.0293-1.46875-.625l-.625-1.28125c-.0171-.0347-.0191-.0351-.0312-.0625-.0961.001-.18233 0-.28125 0-3.25585 0-5-.87374-5-1.40625v-.5z" fill="#bebebe" transform="translate(-581.00018 -539)"/></svg>
