<svg height="16" width="16" xmlns="http://www.w3.org/2000/svg"><path d="m469.0002 520c-3.86599 0-7 3.13401-7 7s3.13401 7 7 7 7-3.13401 7-7-3.13401-7-7-7zm-4 4.125s.47388.83875 1.25.84375h1.75v1.03125c0 .55616-.66683 1-1.5 1-.83315 0-1.5-.44384-1.5-1zm8 0v1.875c0 .55616-.66685 1-1.5 1-.83317 0-1.5-.44384-1.5-1v-1.03125h1.71875c.77612-.005 1.28125-.84375 1.28125-.84375zm-3.96875 3.875c3.25585 0 3 .38381 3 .76164v.26609h-6.03125v-.28818c0-.34953-.2246-.73955 3.03125-.73955z" fill="#babdb6" transform="translate(-461.0002 -519)"/></svg>