<svg height="16" width="16" xmlns="http://www.w3.org/2000/svg"><path d="m609.0002 520c-3.86599 0-7 3.13401-7 7s3.13401 7 7 7 7-3.13401 7-7-3.13401-7-7-7zm-2 4c.55833 0 1.03125.47292 1.03125 1.03125v.96875c0 .55833-.47292 1-1.03125 1s-1-.44167-1-1v-.96875c0-.55833.44167-1.03125 1-1.03125zm4 0c.55833 0 1 .47292 1 1.03125v.96875c0 .55833-.44167 1-1 1s-1-.44167-1-1v-.96875c0-.55833.44167-1.03125 1-1.03125zm-6.5 5h9c.277 0 .5.223.5.5s-.223.5-.5.5h-9c-.277 0-.5-.223-.5-.5s.223-.5.5-.5z" fill="#babdb6" transform="translate(-601.0002 -519)"/></svg>