<svg height="16" width="16" xmlns="http://www.w3.org/2000/svg"><g fill="#bebebe" transform="translate(-621.000194 -537)"><path d="m388 321c-3.86599 0-7 3.13401-7 7s3.13401 7 7 7 7-3.13401 7-7-3.13401-7-7-7zm-2.46875 4c.73437 0 1.46875.22506 1.46875 1.09153-2.56066-.60365-2.41789 1.68874-3 .22097-.32026-.80753.79688-1.3125 1.53125-1.3125zm4.9375 0c.73437 0 1.70462.46125 1.53125 1.3125-.31694 1.55616-.52773-.9572-3-.22097 0-.86647.73438-1.09153 1.46875-1.09153zm-3.46875 3c.41039-.01.74927.13366 1.03125.34375.28192-.21009.65216-.3567 1.0625-.34375.63161.0199.90651.7599.9062 1.18745-.00055.77497.47532.76512 1 .82812-.63413.15122-.98711 1.22486-.98438 1.76563.005.97211-.93028 1.2559-2.01562 1.25-1.08536-.004-1.98715-.25121-1.98437-1.23437.001-.40742-.35236-1.59059-1.03125-1.76563.67889-.0931 1.01562-.24993 1.01562-.85938 0-.80891.52875-1.16033 1.00005-1.17182z" transform="translate(241.0002 217)"/><path d="m630.00013 547.27423c-.16971.0801-.32084.16013-.322.27191-.0182.26976-.37424.48105-.67205.47943-.29781-.00078-.5939-.20967-.59392-.47943.00078-.11178-.11135-.18959-.27191-.27191.5291-.39533 1.25299-.33834 1.85988 0z"/></g></svg>
