<svg height="16" width="16" xmlns="http://www.w3.org/2000/svg"><g opacity=".5" transform="translate(-501.0002 -195)"><path d="m516.02734 199.50586a1.0001 1.0001 0 0 0 -.9414.5918c-.22459.50401-.55038.89813-.85938 1.3125-2.79139-1.52067-5.4414-1.75861-7.63672-1.0293-2.3237.77196-4.0726 2.48347-5.25781 4.36133-.003.003-.006.005-.01.008l.002.002c-.0498.079-.134.14107-.18164.22071a1.0001 1.0001 0 0 0 1.53515 1.24804c1.97221-1.81844 3.80558-2.65586 5.4043-2.80859 1.094-.10451 2.07503.2008 3.00977.68164-.24332.14519-.44015.29578-.70508.43945a1.0001 1.0001 0 0 0 .48828 1.87891l4.86133-.0527a1.0001 1.0001 0 0 0 .98828-.94336l.27344-4.85547a1.0001 1.0001 0 0 0 -.97071-1.05469zm-2.22461 3.94922c.0791.0486.13883.0385.21875.0898a1.0001 1.0001 0 0 0 .79688.12305l-.0391.70117-.81641.01a1.0001 1.0001 0 0 0 -.16016-.92383z" opacity="1"/><path d="m516.0002 200.50444c-.37391.83913-.85493 1.55706-1.4392 2.19862-5.83451-3.7461-10.39304-.84128-12.5608 2.78244 4.17462-3.84916 8.12128-3.8602 11.01265-1.41805-.64178.47066-1.35261.91252-2.14984 1.34487l4.86236-.0536z" fill="#bebebe"/></g></svg>