<svg height="16" width="16.000013" xmlns="http://www.w3.org/2000/svg"><g transform="translate(-501.0002 -381)"><path d="m509 381.875c-3.20829 0-5.92474 2.15922-6.80859 5.08594a1.0001 1.0001 0 0 0 .29882 1.03906h-.48632a1.0001 1.0001 0 0 0 -1 1v.875 3.5l.004-.0918c-.0106.11548-.0106.23222 0 .34766l-.004-.0918v.71094a1.0001 1.0001 0 0 0 1 1h.71093l-.25-.0312c.17081.0439.34911.0625.5293.0566a1.0001 1.0001 0 0 0 .15234-.0156c.0445-.008.0942-.0223.14258-.0352.00059-.00013.001.00013.002 0 .58367-.13122.95426-.5414 1.19336-1.03516 1.24497 1.10333 2.72552 1.93555 4.51562 1.93555 3.20828 0 5.92474-2.15921 6.80859-5.08594a1.0001 1.0001 0 0 0 -.26562-1.01172h.45312a1.0001 1.0001 0 0 0 1-1v-.875-3.5l-.004.0918c.0106-.11547.0106-.23222 0-.34766l.004.0918v-.71094a1.0001 1.0001 0 0 0 -1-1h-.71093l.25.0312c-.17081-.0439-.34796-.0642-.52735-.0586a1.0001 1.0001 0 0 0 -.15429.0176c-.0437.008-.0945.0224-.14258.0351-.002.00035-.002.002-.004.002-.57442.12999-.94242.52882-1.18359 1.01172-1.18148-1.04989-2.57136-1.83807-4.25586-1.9043a1.0001 1.0001 0 0 0 -.006-.002 1.0001 1.0001 0 0 0 -.26153-.03505zm0 3.75c.83588 0 1.53409.35866 2.12109.85352-.76736.22917-1.36232.80232-1.36914 1.66015-.006.10492-.0115.20972 0 .31445l-.006-.10937v.68359a1.0001 1.0001 0 0 0 1 1h1.58399a1.0001 1.0001 0 0 0 -.22656.32032c-.52107 1.18913-1.70558 2.02734-3.10352 2.02734-.82671 0-1.51926-.34878-2.10352-.83398.75703-.2349 1.34481-.8017 1.35157-1.65235.006-.10492.0115-.20973 0-.31445l.006.10937v-.68359a1.0001 1.0001 0 0 0 -1-1h-1.61329a1.0001 1.0001 0 0 0 .25586-.34766c.52107-1.18912 1.70557-2.02734 3.10352-2.02734zm5.99609.95312v1.44922h-.64062a1.0001 1.0001 0 0 0 .28125-1.1914 1.0001 1.0001 0 0 0 .35937-.25782zm-8.74218 3.10547a1.0001 1.0001 0 0 0 .002.0664h-.002zm-3.25.31641h1.32421a1.0001 1.0001 0 0 0 -.27148 1.13086 1.0001 1.0001 0 0 0 -1.05273.29102z"/><path d="m509.00002 382.87541c-2.75886 0-5.09167 1.85986-5.85113 4.37467h1.83189c.67668-1.54426 2.22075-2.6248 4.01924-2.6248 1.79848 0 3.34255 1.08054 4.01923 2.6248h.70918c-.19883.0251-.46591.0274-.84931.0274h-1.25772c-.45809.00004-.87489.41683-.87493.87493-.007.0635-.007.12786 0 .19139v.68355h5.24961v-.87494-3.49974c.005-.0545.005-.10952 0-.16405v-.71088h-.71089c-.0801-.0206-.1633-.03-.24607-.0274-.037.007-.0736.0159-.10937.0274-.39123.0876-.69319.47412-.68354.87493v1.26456c-1.06438-1.80641-3.00682-3.04177-5.24619-3.04177zm-6.99607 6.12454v.87494 3.49974c-.005.0545-.005.10952 0 .16405v.71088h.71089c.0801.0206.1633.03.24607.0273.037-.007.0736-.0159.10937-.0273.39123-.0876.69319-.47412.68354-.87493v-1.2919c1.06439 1.80641 3.00682 3.04177 5.2462 3.04177 2.75885 0 5.09166-1.85986 5.85112-4.37468h-1.83189c-.67668 1.54427-2.22075 2.62481-4.01923 2.62481-1.79712 0-3.34005-1.079-4.01753-2.62139.0548-.00009.0785-.003.13842-.003h1.25772c.4581-.00004.87489-.41683.87493-.87493.007-.0635.007-.12785 0-.19139v-.68355z" fill="#bebebe"/></g></svg>