<svg height="16" width="16.0002" xmlns="http://www.w3.org/2000/svg"><g transform="translate(-602 -381.99998)"><path d="m603 383.74998a1.0001 1.0001 0 0 0 -1 1v7.875a1.0001 1.0001 0 0 0 1 1h2.5v1.625a1.0001 1.0001 0 0 0 1 1h10.5a1.0001 1.0001 0 0 0 1-1v-7.875a1.0001 1.0001 0 0 0 -1-1h-2.5v-1.625a1.0001 1.0001 0 0 0 -1-1zm1 2h.0898a1.0001 1.0001 0 0 0 -.0898.08984zm8.41016 0h.08984v.0898a1.0001 1.0001 0 0 0 -.0898-.0898zm-6.66016 1.75h5v2.375h-5zm10.16016.875h.08984v.0898a1.0001 1.0001 0 0 0 -.0898-.0898zm-11.91016 3.16016a1.0001 1.0001 0 0 0 .0898.0898h-.0898zm8.5 0v.0898h-.0898a1.0001 1.0001 0 0 0 .0898-.0898zm3.5 2.625v.0898h-.0898a1.0001 1.0001 0 0 0 .0898-.0898z"/><g fill="#bebebe"><path d="m1 2.75v7.875h10.5v-7.875zm1.75 1.75h7v4.375h-7zm9.625.875v1.75h.875v4.375h-8.75v1.75h10.5v-7.875z" transform="translate(602 381.99998)"/><path d="m605.62514 389.12506c2.03063.87499 2.66402-1.45216 5.24994 0v.87499h-5.24994z" opacity=".35"/></g></g></svg>