<svg height="16" width="16" xmlns="http://www.w3.org/2000/svg"><g transform="translate(-461.0002 -401)"><path d="m473.31055 402.21875a1.0001 1.0001 0 0 0 -.69141.29297l-5.50586 5.50586-1.73242-1.73047a1.0001 1.0001 0 0 0 -1.41406 0l-2.67383 2.67383a1.0001 1.0001 0 0 0 0 1.41406l3.77539 3.77539 1.33789 1.33789a1.0001 1.0001 0 0 0 1.41406 0l1.33594-1.33789 7.55078-7.55078a1.0001 1.0001 0 0 0 0-1.41406l-2.67383-2.67383a1.0001 1.0001 0 0 0 -.72265-.29297zm.0156 2.41406 1.25977 1.25977-6.84375 6.84375-.62891.63086-.63086-.63086-3.06836-3.06836 1.25977-1.25977 1.73242 1.73242a1.0001 1.0001 0 0 0 1.41406 0z"/><path d="m473.32604 403.2192-6.21348 6.21349-2.4382-2.43821-2.67416 2.67416 3.77528 3.77528 1.33708 1.33708 1.33708-1.33708 7.55056-7.55056z" fill="#bebebe"/></g></svg>