<svg height="16" width="16" xmlns="http://www.w3.org/2000/svg"><g fill-rule="evenodd" transform="translate(-482 -381.99998)"><path d="m490.03516 382c-4.38328 0-7.94141 3.59972-7.94141 8s3.55813 8 7.94141 8c4.38326 0 7.9707-3.59468 7.9707-8 0-.48503-.0668-.91799-.12891-1.29883a1.0001 1.0001 0 0 0 -1.65429-.58398l-5.72852 5.13281-2.66992-2.67188.67383-.6621 1.22851 1.3125a1.0001 1.0001 0 0 0 1.42383.0371l5.06055-4.86132a1.0001 1.0001 0 0 0 .0976-1.33399c-1.45503-1.872-3.73535-3.07031-6.27338-3.07031zm0 2c1.58443 0 2.93289.71513 3.99804 1.72461l-3.53906 3.39648-1.23633-1.32031a1.0001 1.0001 0 0 0 -1.42969-.0293l-2.125 2.08594a1.0001 1.0001 0 0 0 -.008 1.41992l4.05469 4.05469a1.0001 1.0001 0 0 0 1.37305.0391l4.63867-4.15625c-.57449 2.71677-2.8598 4.78516-5.72656 4.78516-3.29445 0-5.94141-2.67008-5.94141-6s2.64696-6 5.94141-6z"/><path d="m490.03562 383c-3.83886 0-6.94167 3.1349-6.94167 7s3.10281 7 6.94167 7c3.83885 0 6.97083-3.1349 6.97083-7 0-.38885-.0561-.76591-.11667-1.1375l-6.43347 5.76353-4.05327-4.05506 2.12561-2.08587 1.92855 2.05936 5.06175-4.86113c-1.27228-1.63682-3.25894-2.68333-5.48333-2.68333z" fill="#bebebe"/></g></svg>