<svg height="16" width="16" xmlns="http://www.w3.org/2000/svg"><g transform="translate(-462 -381.99998)"><path d="m470 382c-4.40643 0-8 3.59357-8 8s3.59357 8 8 8 8-3.59357 8-8-3.59357-8-8-8zm.51367 2.10352c1.74656.15459 3.21781 1.03302 4.20899 2.35546-.21002-.12718-.42302-.26199-.68164-.26953h-.002-.002c-.28644-.007-.56898.069-.81445.2168l-1.71875.99219v-1.99414c.008-.62675-.43933-1.07086-.99024-1.30078zm-1.05469.006c-.53793.23643-.97046.67912-.96289 1.29492v1.99023l-1.73437-1 .0176.0117c-.2153-.13034-.45952-.20553-.71094-.2168h-.002-.002c-.28942-.012-.54097.11669-.77734.25586.98601-1.30787 2.44315-2.17471 4.17187-2.33593zm-4.88867 3.40429c-.0578.55372.15163 1.18662.70117 1.49219l1.72071.99414-1.73633 1.00195c-.36086.20961-.64402.59691-.72461.99024-.0442.21548.0552.38842.0977.58203-.37694-.78644-.62895-1.64062-.62895-2.57436 0-.89546.22199-1.72478.57031-2.48633zm10.86914.0137c.34388.75738.56055 1.5831.56055 2.47249 0 .93217-.25124 1.78502-.62695 2.57031.0417-.19309.14215-.36528.0977-.58008-.0818-.39476-.36722-.78195-.73047-.99023l-1.73242-1 1.72071-.99414c.54459-.30346.76436-.92921.71093-1.47852zm-3.93554 5.07618 1.73242 1.00195c.36205.21036.83992.26337 1.22265.13672.13086-.0433.17877-.16382.28516-.23438-.96605 1.30642-2.39964 2.17531-4.10547 2.36328.12326-.0583.26066-.0405.3711-.13867.30066-.26726.49414-.70703.49414-1.125zm-3.00782.002v2.00195c0 .41797.19153.85774.49219 1.125.10974.0976.24672.0805.36914.13867-1.70571-.18907-3.13826-1.05986-4.10351-2.36718.10646.071.15412.19265.28515.23632.3809.12696.8587.0748 1.22071-.13281z"/><path d="m8 1c-3.86599 0-7 3.13401-7 7s3.13401 7 7 7 7-3.13401 7-7-3.13401-7-7-7zm-.0078125 1.8828125a.50363148.50363148 0 0 1 .5117187.5097656v3.7363281l3.2343748-1.8671874a.50363148.50363148 0 0 1 .273438-.0722657.50363148.50363148 0 0 1 .230469.9433594l-3.2363286 1.8671875 3.2363286 1.8671875a.50366827.50366827 0 1 1 -.503907.8730465l-3.2343748-1.8671871v3.7343751a.50363148.50363148 0 1 1 -1.0078124 0v-3.7343751l-3.234375 1.8671871a.50366827.50366827 0 0 1 -.5039063-.8730465l3.234375-1.8671875-3.234375-1.8671875a.50363148.50363148 0 0 1 .265625-.9433594.50363148.50363148 0 0 1 .2382813.0722657l3.234375 1.8652343v-3.734375a.50363148.50363148 0 0 1 .4960937-.5097656z" fill="#bebebe" transform="translate(462 381.99998)"/></g></svg>