<svg height="16" width="16" xmlns="http://www.w3.org/2000/svg"><g transform="translate(-521.0002 -381)"><path d="m533.37891 381c-1.89287-.00001-3.42111 1.49887-3.55664 3.35938l-3.34961 1.62304c-.56196-.34528-1.18053-.58846-1.84961-.58984a1.0001 1.0001 0 0 0 -.002 0c-1.98071 0-3.60742 1.62671-3.60742 3.60742s1.62671 3.60742 3.60742 3.60742c.67089-.00011 1.29197-.24204 1.85547-.58789l3.36133 1.69531c.17277 1.82416 1.67446 3.28516 3.54102 3.28516 1.98071 0 3.60742-1.62671 3.60742-3.60742 0-1.98072-1.62671-3.60742-3.60742-3.60742a1.0001 1.0001 0 0 0 -.002 0c-.65458.0006-1.26023.23362-1.81445.56445l-2.6875-1.35938 2.88281-1.40234c.51955.27905 1.02069.62611 1.61914.62695a1.0001 1.0001 0 0 0 .002 0c1.98071 0 3.60742-1.6267 3.60742-3.60742 0-1.98071-1.62671-3.60742-3.60742-3.60742zm0 2c.89983 0 1.60742.70759 1.60742 1.60742s-.70759 1.60742-1.60742 1.60742c-.39932-.00056-.78258-.14749-1.07813-.41601a1.0001 1.0001 0 0 0 -.66211-.25977 1.0001 1.0001 0 0 0 .15039-.69726c-.0121-.0778-.017-.15564-.0176-.23438.00001-.89983.70759-1.60742 1.60743-1.60742zm-8.75977 4.39258c.41399.00085.81059.1607 1.10938.44726a1.0001 1.0001 0 0 0 .66015.27539 1.0001 1.0001 0 0 0 -.17383.70508c.008.0635.0129.12737.0137.19141-.00024.0525-.002.10398-.008.15625a1.0001 1.0001 0 0 0 .20118.70898 1.0001 1.0001 0 0 0 -.6836.2793c-.29987.28925-.70055.4511-1.11719.45117-.89983 0-1.60742-.70759-1.60742-1.60742 0-.89917.70658-1.60638 1.60547-1.60742zm8.75977 4.39258c.89983 0 1.60742.70759 1.60742 1.60742s-.70759 1.60742-1.60742 1.60742c-.89918 0-1.60639-.70658-1.60743-1.60547 0-.00066 0-.001 0-.002.00098-.0618.006-.12422.0137-.18555a1.0001 1.0001 0 0 0 -.18555-.7207 1.0001 1.0001 0 0 0 .68359-.26758c.29772-.27852.68802-.43322 1.09571-.43359z"/><path d="m533.37839 382a2.6078431 2.6078431 0 0 0 -2.60785 2.60784 2.6078431 2.6078431 0 0 0 .0309.38775l-4.38014 2.1223a2.6078431 2.6078431 0 0 0 -1.79976-.72573 2.6078431 2.6078431 0 0 0 -2.60784 2.60784 2.6078431 2.6078431 0 0 0 2.60784 2.60784 2.6078431 2.6078431 0 0 0 1.81005-.73088l4.36128 2.19951a2.6078431 2.6078431 0 0 0 -.0223.31569 2.6078431 2.6078431 0 0 0 2.60785 2.60784 2.6078431 2.6078431 0 0 0 2.60784-2.60784 2.6078431 2.6078431 0 0 0 -2.60784-2.60785 2.6078431 2.6078431 0 0 0 -1.77917.70343l-4.38358-2.21666a2.6078431 2.6078431 0 0 0 .0137-.27108 2.6078431 2.6078431 0 0 0 -.0223-.31054l4.42133-2.15147a2.6078431 2.6078431 0 0 0 1.75.6777 2.6078431 2.6078431 0 0 0 2.60784-2.60785 2.6078431 2.6078431 0 0 0 -2.60784-2.60784z" fill="#bebebe"/></g></svg>