<svg height="16" width="16" xmlns="http://www.w3.org/2000/svg"><g transform="translate(-441.00021 -381)"><path d="m445.76953 382.00977c-2.62047 0-4.76953 2.13875-4.76953 4.75585 0 1.21912.51498 2.3 1.27539 3.14258a1.0001 1.0001 0 0 0 .2207.31641l.01.008 5.71484 5.48828a1.0001 1.0001 0 0 0 1.375.0117l5.89844-5.49609a1.0001 1.0001 0 0 0 0-.002 1.0001 1.0001 0 0 0 .23047-.32227 1.0001 1.0001 0 0 0 .002-.006c.66439-.73693 1.0822-1.66933 1.18164-2.71094a1.0001 1.0001 0 0 0 .0918-.42969 1.0001 1.0001 0 0 0 -.084-.4121c-.22135-2.41605-2.2112-4.34375-4.68555-4.34375-1.29418 0-2.36838.62496-3.23047 1.46679-.86216-.84184-1.93629-1.46679-3.23047-1.46679zm0 2c1.01641 0 1.89123.53724 2.375 1.33789a1.0001 1.0001 0 0 0 1.71094 0c.48382-.80072 1.3586-1.33789 2.375-1.33789 1.54319 0 2.76953 1.22306 2.76953 2.75585 0 .79734-.33412 1.50327-.87305 2.00782a1.0001 1.0001 0 0 0 -.0176.0176l-5.18555 4.83203-5.01953-4.81641-.0234-.0234a1.0001 1.0001 0 0 0 -.008-.01c-.53884-.5046-.87287-1.21061-.87287-2.00764 0-1.53279 1.22634-2.75585 2.76953-2.75585z"/><path d="m456.0002 386.76617c0-2.07495-1.68742-3.75698-3.76925-3.75698-1.37132 0-2.57123.73006-3.23065 1.8214-.65942-1.09135-1.85953-1.8214-3.23085-1.8214-2.08183 0-3.76925 1.68203-3.76925 3.75698 0 1.07968.45777 2.05239 1.18953 2.73766h-.001l5.72506 5.49617 5.89867-5.49617h-.002c.73186-.68517 1.18933-1.65788 1.18933-2.73766" fill="#bebebe"/></g></svg>