<svg height="16" width="16" xmlns="http://www.w3.org/2000/svg"><g fill-rule="evenodd" transform="translate(-181.0002 -237)"><path d="m183.40039 237a1.0001 1.0001 0 0 0 -.69336.29297l-1.41406 1.41406a1.0001 1.0001 0 0 0 0 1.41406l4.87891 4.87891-4.87891 4.87891a1.0001 1.0001 0 0 0 0 1.41406l1.41406 1.41406a1.0001 1.0001 0 0 0 1.41406 0l4.87891-4.87891 4.87891 4.87891a1.0001 1.0001 0 0 0 1.41406 0l1.41406-1.41406a1.0001 1.0001 0 0 0 0-1.41406l-4.87891-4.87891 4.87891-4.87891a1.0001 1.0001 0 0 0 0-1.41406l-1.41406-1.41406a1.0001 1.0001 0 0 0 -1.41406 0l-4.87891 4.87891-4.87891-4.87891a1.0001 1.0001 0 0 0 -.7207-.29297zm4.89258 7.29297a1.0001 1.0001 0 0 0 1.41406 0 1.0001 1.0001 0 0 0 0 1.41406 1.0001 1.0001 0 0 0 -1.41406 0 1.0001 1.0001 0 0 0 0-1.41406z"/><path d="m183.41427 238-1.41407 1.41406 5.58594 5.58594-5.58594 5.58594 1.41407 1.41406 5.58593-5.58594 5.58594 5.58594 1.41406-1.41406-5.58593-5.58594 5.58593-5.58594-1.41406-1.41406-5.58594 5.58594z" fill="#cd656c"/></g></svg>