<svg height="16" width="16" xmlns="http://www.w3.org/2000/svg"><g transform="translate(-441.0002 -400.99999)"><path d="m449 401c-.25479 0-.505.0127-.74805.0352a1.0001 1.0001 0 0 0 -.88867.80468l-.25976 1.33985-.97266-.9336a1.0001 1.0001 0 0 0 -1.20313-.13867c-.48005.28424-.86722.61489-1.21679.92578a1.0001 1.0001 0 0 0 -.23828 1.17774l.56836 1.19336-1.31446-.17578a1.0001 1.0001 0 0 0 -1.04883.59179c-.20774.47784-.35785.96793-.46679 1.46485a1.0001 1.0001 0 0 0 .5 1.09375l1.14453.62109-1.14453.62109a1.0001 1.0001 0 0 0 -.5 1.09375c.10892.497.25906.98705.46679 1.46485a1.0001 1.0001 0 0 0 1.04883.59179l1.31446-.17578-.56836 1.19336a1.0001 1.0001 0 0 0 .23828 1.17774c.34957.31089.73674.64154 1.21679.92578a1.0001 1.0001 0 0 0 1.20313-.14063l.97266-.93164.25976 1.33985a1.0001 1.0001 0 0 0 .88867.80468c.24366.02258.49356.03512.74805.03512.25479 0 .505-.0127.74805-.0352a1.0001 1.0001 0 0 0 .89062-.80468l.25977-1.33985.97265.93164a1.0001 1.0001 0 0 0 1.20118.14063c.48005-.28424.86722-.61489 1.21679-.92578a1.0001 1.0001 0 0 0 .24024-1.17774l-.56836-1.19336 1.3125.17578a1.0001 1.0001 0 0 0 1.05078-.59179c.20775-.47784.3559-.96793.46484-1.46485a1.0001 1.0001 0 0 0 -.5-1.09375l-1.14453-.62105 1.14453-.62109a1.0001 1.0001 0 0 0 .5-1.09375c-.10892-.497-.25711-.98705-.46484-1.46485a1.0001 1.0001 0 0 0 -1.05078-.59179l-1.3125.17578.56836-1.19336a1.0001 1.0001 0 0 0 -.24024-1.17774c-.34957-.31089-.73674-.64154-1.21679-.92578a1.0001 1.0001 0 0 0 -1.20118.13867l-.97265.9336-.25977-1.33985a1.0001 1.0001 0 0 0 -.88867-.80468c-.24366-.02262-.49551-.03516-.75-.03516zm0 2.89844.082.41797a1.0001 1.0001 0 0 0 .76758.78515c.2195.0481.41769.12.61133.19532-.45479-.18112-.94412-.29688-1.46091-.29688-.51821 0-1.00704.11676-1.46289.29883.19435-.0758.39488-.14898.61523-.19727a1.0001 1.0001 0 0 0 .76758-.78515zm-2.97852 1.01367.25586.24609a1.0001 1.0001 0 0 0 1.09961.19141c.0129-.006.0299-.008.043-.0137-1.41667.61771-2.41995 2.02871-2.41995 3.66409s1.00328 3.04638 2.41992 3.66406c-.0131-.006-.0301-.008-.043-.0137a1.0001 1.0001 0 0 0 -1.09961.18945l-.2539.24414.16211-.34179a1.0001 1.0001 0 0 0 -.15821-1.09571c-.18026-.20179-.34335-.42247-.47656-.65039a1.0001 1.0001 0 0 0 -.99609-.48632l-.38281.0508.33593-.18164a1.0001 1.0001 0 0 0 .51953-.98047c-.01621-.16061-.02731-.28068-.02731-.39843 0-.11814.0111-.23858.0273-.39844a1.0001 1.0001 0 0 0 -.51953-.98047l-.33593-.18164.38281.0508a1.0001 1.0001 0 0 0 .99609-.48632c.13321-.22792.2963-.4486.47656-.65039a1.0001 1.0001 0 0 0 .15821-1.09571zm5.95899 0-.16406.3457a1.0001 1.0001 0 0 0 .15625 1.09571c.18026.20179.34335.42247.47656.65039a1.0001 1.0001 0 0 0 .99609.48632l.38281-.0508-.33593.18164a1.0001 1.0001 0 0 0 -.51758.98047c.01624.16064.02539.28071.02539.39846 0 .11814-.009.23858-.0254.39844a1.0001 1.0001 0 0 0 .51758.98047l.33593.18164-.38281-.0508a1.0001 1.0001 0 0 0 -.99609.48632c-.13321.22792-.2963.4486-.47656.65039a1.0001 1.0001 0 0 0 -.15625 1.09571l.16211.34179-.25391-.24414a1.0001 1.0001 0 0 0 -1.10156-.18945c-.0124.006-.0285.008-.041.0137 1.41661-.6177 2.41796-2.0287 2.41796-3.66407s-1.00135-3.04637-2.41797-3.66406c.0125.005.0287.008.041.0137a1.0001 1.0001 0 0 0 1.10156-.19141zm-2.98047 2.08789c1.11641 0 2 .88359 2 2s-.88359 2-2 2-2-.88359-2-2 .88359-2 2-2zm-1.46289 5.70117c.45585.18207.94468.29883 1.46289.29883.51679 0 1.00612-.11576 1.46094-.29688-.19366.0753-.39195.14724-.61133.19532a1.0001 1.0001 0 0 0 -.76758.78515l-.082.41797-.0801-.41797a1.0001 1.0001 0 0 0 -.76758-.78515c-.22047-.0483-.4209-.1215-.61523-.19727z"/><path d="m449.0004 402.00002c-.22065 0-.44081.0113-.65625.0312l-.40625 2.09375c-.33446.0733-.66305.17589-.96875.3125l-1.53125-1.46875c-.38863.23011-.72695.51408-1.0625.8125l.90625 1.90625c-.22242.24899-.42425.5225-.59375.8125l-2.09375-.28125c-.17772.40877-.30872.83637-.40625 1.28125l1.84375 1c-.0171.16809-.0312.3274-.0312.5s.0142.33191.0312.5l-1.84375 1c.0975.44488.22853.87248.40625 1.28125l2.09375-.28125c.1695.29.37133.56351.59375.8125l-.90625 1.90625c.33555.29842.67387.58239 1.0625.8125l1.53125-1.46875c.3057.13661.63429.23916.96875.3125l.40625 2.09375c.21544.02.4356.0312.65625.0312s.44081-.0113.65625-.0312l.40625-2.09375c.33446-.0733.66305-.17589.96875-.3125l1.53125 1.46875c.38863-.23011.72695-.51408 1.0625-.8125l-.90625-1.90625c.22242-.24899.42425-.5225.59375-.8125l2.09375.28125c.17772-.40877.30872-.83637.40625-1.28125l-1.84375-1c.0171-.16809.0312-.3274.0312-.5s-.0142-.33191-.0312-.5l1.84375-1c-.0975-.44488-.22853-.87248-.40625-1.28125l-2.09375.28125c-.1695-.29-.37133-.56351-.59375-.8125l.90625-1.90625c-.33555-.29842-.67387-.58239-1.0625-.8125l-1.53125 1.46875c-.3057-.13661-.63429-.23916-.96875-.3125l-.40625-2.09375c-.21544-.02-.4356-.0312-.65625-.0312zm0 4c1.65685 0 3 1.34315 3 3s-1.34315 3-3 3-3-1.34315-3-3 1.34315-3 3-3z" fill="#bebebe"/></g></svg>