<svg height="16.000019" width="16.000004" xmlns="http://www.w3.org/2000/svg"><g transform="translate(-542 -381.99998)"><path d="m545.1875 382c-1.51015 0-2.75 1.23984-2.75 2.75v7.875c0 1.51016 1.23985 2.75 2.75 2.75h.80273c.0764 1.4436 1.23583 2.625 2.69727 2.625h6.125c1.51015 0 2.75-1.23985 2.75-2.75v-7.875c0-1.51015-1.23985-2.75-2.75-2.75h-.80273c-.07643-1.4436-1.23583-2.625-2.69727-2.625zm5.125 7.11914v.88672c-.11251-.02939-.19227-.13086-.3125-.13086h-.44336c.0294-.11251.13086-.19227.13086-.3125s-.10147-.19999-.13086-.3125h.44336c.12023 0 .19999-.10147.3125-.13086zm3.5 4.10547v1.02539h-.42773c.2293-.29425.33267-.65466.42773-1.02539z"/><path d="m3.1875 1c-.95435 0-1.75.79564-1.75 1.75v7.875c0 .95436.79565 1.75 1.75 1.75h6.125c.95435 0 1.75-.79564 1.75-1.75v-7.875c0-.95436-.79565-1.75-1.75-1.75zm0 1.75h6.125v7.875h-6.125zm1.3125.875c-.2423719 0-.4375.195125-.4375.4375s.1951281.4375.4375.4375h2.625c.2423719 0 .4375-.195125.4375-.4375s-.1951281-.4375-.4375-.4375zm7.4375 0v1.75h.875v7.875h-2.625-3.5-1.75c0 .95436.79565 1.75 1.75 1.75h6.125c.95436 0 1.75-.79564 1.75-1.75v-7.875c0-.95436-.79564-1.75-1.75-1.75zm-7.4375 1.75c-.2423719 0-.4375.195125-.4375.4375s.1951281.4375.4375.4375h3.5c.2423719 0 .4375-.195125.4375-.4375s-.1951281-.4375-.4375-.4375zm0 1.75c-.2423719 0-.4375.195125-.4375.4375s.1951281.4375.4375.4375h1.75c.2423719 0 .4375-.195125.4375-.4375s-.1951281-.4375-.4375-.4375zm0 1.75c-.2423719 0-.4375.195125-.4375.4375s.1951281.4375.4375.4375h3.5c.2423719 0 .4375-.195125.4375-.4375s-.1951281-.4375-.4375-.4375z" fill="#bebebe" transform="translate(542 381.99998)"/></g></svg>