<svg height="16" width="16" xmlns="http://www.w3.org/2000/svg"><g transform="translate(-561 -381)"><path d="m563.00195 383.99023c-1.0916 0-2.00195.91021-2.00195 2.00196v7.01562c0 1.09175.91035 2.00196 2.00195 2.00196h7.98633c1.09161 0 2.00195-.91022 2.00195-2.00196v-1.10937l1.79688 1.8125a1.0001 1.0001 0 0 0 .71094.29687h.50195a1.0001 1.0001 0 0 0 1-1v-7.01562a1.0001 1.0001 0 0 0 -1-1h-.53125a1.0001 1.0001 0 0 0 -.70703.29297l-1.77149 1.76953v-1.0625c0-1.09175-.91034-2.00196-2.00195-2.00196zm0 2h7.98633s.002.002.002.002v3.47656a1.0001 1.0001 0 0 0 0 .0137v3.52539s-.002.002-.002.002h-7.98633s-.002-.002-.002-.002v-7.01562s.002-.002.002-.002zm11.99805 1.88477v3.21094l-1.59961-1.61328z"/><path d="m2.0019531 3.9902344c-.5551204 0-1.0019531.4467217-1.0019531 1.0019531v7.0156245c0 .555232.4468327 1.001954 1.0019531 1.001954h7.9863281c.5551208 0 1.0019528-.446722 1.0019528-1.001954v-3.539062-3.4765625c0-.5552314-.446832-1.0019531-1.0019528-1.0019531zm8.9882809 4.4785156 3.507813 3.539062h.501953v-7.0156245h-.53125z" fill="#bebebe" transform="translate(561 381)"/></g></svg>