<svg height="16" width="16" xmlns="http://www.w3.org/2000/svg"><g fill-rule="evenodd" transform="translate(-283.02908 -629.02581)"><path d="m295.86523 629.46289-.29296.29297-1.5586 1.55859h-9.02734c-1.087.00009-1.95694.81463-1.95703 1.92969v8.51172.21875.68359c.00009 1.11506.87005 1.9296 1.95703 1.92969h3.80078.98437 4.67579c1.06728-.00009 1.91776-.77965 1.95703-1.86523v-.002c.002-.0503 0-.0769 0-.0625v-7.40625l.875-.875 1.75-1.75v-.41406c0-1.37623-1.12375-2.75-2.75-2.75zm-1.69921 2.875h.36328v.875zm.63671 1.01563c.0817.0417.14601.0366.22266.11328.0766.0766.0716.14097.11328.22265l-5.39844 5.39844h-.33398v-.33594zm-8.02343 1.71093h3.48632l-2.85937 2.85938-.004 2.91406h-.62304zm5.875 3.9375v1.83594h-1.83594z"/><path d="m296.27908 630.46331-.875.875c.875 0 1.75.875 1.75 1.75l.875-.875c0-.875-.65787-1.75-1.75-1.75zm-1.75 1.75-6.12305 6.125-.002 1.75h1.75l6.125-6.125c0-.875-.875-1.75-1.75-1.75zm-9.54297.10156c-.4976.00004-.95699.44-.95703.92969v8.51172.21875.68359c.00004.4897.45943.92965.95703.92969h3.80078.98438 4.67578c.48785-.00004.93973-.42409.95703-.90234.00034-.01 0-.0178 0-.0273v-6.07031l-1.75 1.75v3.5h-7.875v-7.77344h5.17578l1.7461-1.75z" fill="#bebebe"/></g></svg>