<svg height="16" width="16" xmlns="http://www.w3.org/2000/svg"><g transform="translate(-582 -381.99998)"><path d="m587.66406 382.94141a1.0001 1.0001 0 0 0 -1 1v1.86523 2.83594c-.13897-.0145-.25121-.0918-.39453-.0918-2.32986 0-4.26953 1.8969-4.26953 4.23828s1.92815 4.26953 4.26953 4.26953c1.6289 0 3.01195-.96423 3.73047-2.32031.71852 1.35608 2.10352 2.32031 3.73242 2.32031 2.31016 0 4.20726-1.87908 4.25977-4.17578-.003.14041.008.10778.008-.0937 0-.21634-.008-.23895-.008-.0703v-6.91211-1.86523a1.0001 1.0001 0 0 0 -1-1h-1.86524-5.59765zm1 2h.36719a1.0001 1.0001 0 0 0 -.36719.36914zm6.96094 0h.36719v.36718a1.0001 1.0001 0 0 0 -.36719-.36718zm-5.0957 1.86523h3.59765v1.83594c-.13897-.0145-.25121-.0918-.39453-.0918-1.28835 0-2.41565.61304-3.20312 1.52734zm-2 3.56836v1.91797c-.15941-.67733-.599-1.15791-1.19922-1.47656-.038-.0202-.0801-.0268-.11914-.0449.008.004.0173.002.0254.006a1.0001 1.0001 0 0 0 .0937.0391 1.0001 1.0001 0 0 0 1.19922-.44141zm7.46289 0v1.92188c-.15844-.67902-.59801-1.16109-1.19922-1.48047-.0385-.0204-.0815-.0265-.12109-.0449.009.004.0186.002.0273.006a1.0001 1.0001 0 0 0 .0937.0391 1.0001 1.0001 0 0 0 1.19922-.44141zm-9.72266 2.03516c.25374 0 .37003.12222.39453.33203v.0684c-.0133.23413-.15449.38867-.39453.38867-.25111 0-.41015-.1575-.41015-.41016s.1327-.3789.41015-.3789zm7.46094 0c.25375 0 .37199.1222.39648.33203v.0762c-.0172.22967-.15949.38086-.39648.38086-.25111 0-.4082-.1575-.4082-.41016s.13075-.3789.4082-.3789z"/><path d="m587.66424 383.9419v1.86569 4.06663c-.42568-.20132-.8955-.32249-1.39563-.32249-1.79214 0-3.26861 1.4455-3.26861 3.23764s1.47647 3.26861 3.26861 3.26861 3.26861-1.47647 3.26861-3.26861c0-.0243-.007-.0469-.007-.0711v-6.91072h5.59709v4.06663c-.42568-.20132-.8955-.32249-1.39563-.32249-1.79214 0-3.26861 1.4455-3.26861 3.23764s1.47647 3.26861 3.26861 3.26861c1.76726 0 3.22112-1.43917 3.26132-3.19755.00054-.0241.007-.0468.007-.0711s-.007-.0469-.007-.0711v-6.91072-1.86569h-1.86569-5.59709zm-1.39563 7.46824c.73485 0 1.32405.52584 1.39563 1.23712v.17126h.0109c-.0157.76977-.63272 1.38105-1.40656 1.38105-.78384 0-1.40838-.62636-1.40838-1.4102s.62454-1.37923 1.40838-1.37923zm7.46278 0c.73485 0 1.32405.52584 1.39563 1.23712v.21499h.007c-.0381.74865-.64402 1.33732-1.40291 1.33732-.78384 0-1.40838-.62636-1.40838-1.4102s.62454-1.37923 1.40838-1.37923z" fill="#bebebe"/></g></svg>