<svg height="16" width="16.000013" xmlns="http://www.w3.org/2000/svg"><g transform="translate(-561.00018 -461)"><path d="m572.70074 462.75437c-.42242.002-.83971.15436-1.16127.38254-.00067.00067-.001.001-.002.002-.20149.14381-.98034.49635-2.53724.49769h-.002c-1.55479.002-2.32913-.35194-2.53335-.49769-.001-.00067-.003-.001-.004-.002-.30256-.21472-.73764-.37613-1.14956-.37473h-.002c-.386.002-.7837.10351-1.16519.30642-1.47953.77937-2.21852 2.56029-2.70509 4.73684-.20886.93097-.3438 1.98848-.40206 2.96273-.0582.97425-.064 1.81499.10735 2.51968l.002.002c.12418.50391.30581.97324.68311 1.35645.3773.38322.94905.57966 1.45208.57966.005.00004.0104.00004.0156 0 .82072-.0141 1.50095-.41513 2.10396-.93878.603-.52364 1.1352-1.20949 1.55357-1.99662l-.0605.1015c.19501-.28082 1.11216-.66746 2.07274-.63627.0228.00078.0456.00078.0684 0 .95726-.0335 1.87508.35446 2.07078.63627l-.0605-.1015c.41837.78713.95056 1.47298 1.55357 1.99662.60301.52365 1.28323.92472 2.10397.93878.006.00005.0117.00005.0176 0 .50303 0 1.07283-.19645 1.45013-.57966s.55893-.85253.68311-1.35645l.002-.002c.17136-.7047.16561-1.54544.10734-2.51968-.0583-.97425-.19321-2.03177-.40205-2.96273-.48657-2.17656-1.22556-3.95747-2.7051-4.73684-.3492-.18591-.73513-.31619-1.15543-.31423z"/><path d="m572.70464 463.75425c-.21064.00098-.40532.0688-.58748.1981-.46096.329-1.42154.68166-3.11671.68312-1.69518.002-2.65574-.35412-3.11671-.68312-.18215-.12925-.3568-.19225-.5687-.19127-.2119.00087-.45624.0581-.70531.19127-.90707.47782-1.74097 2.04255-2.1945 4.07136-.38663 1.72333-.52935 4.0799-.29887 5.02773.20075.81465.5476 1.17496 1.16471 1.17496.9145-.0157 2.0636-1.03375 2.79223-2.40456.52699-.75886 1.74931-1.10391 2.92715-1.06566 1.17783-.0412 2.40015.3068 2.92714 1.06566.72863 1.37081 1.87774 2.38889 2.79224 2.40456.6171 0 .96397-.36031 1.16471-1.17496.23049-.94783.0877-3.3044-.29886-5.02773-.45354-2.02881-1.28744-3.59354-2.19451-4.07136-.24907-.13316-.47588-.19908-.68653-.1981zm-7.44766 1.91955h1.37306v1.3833h1.37306v1.38502h-1.37306v1.38502h-1.37306v-1.38502h-1.37306v-1.38502h1.37306zm6.80041 0c.3792 0 .68653.30935.68653.69165 0 .38232-.30733.69165-.68653.69165-.37919 0-.68653-.30933-.68653-.69165 0-.3823.30734-.69165.68653-.69165zm-1.37306 1.3833c.37918 0 .68653.31107.68653.69337 0 .38229-.30735.69165-.68653.69165-.3792 0-.68654-.30936-.68654-.69165 0-.3823.30734-.69337.68654-.69337zm2.74612 0c.37918 0 .68653.31107.68653.69337 0 .38229-.30735.69165-.68653.69165-.3792 0-.68653-.30936-.68653-.69165 0-.3823.30733-.69337.68653-.69337zm-1.37306 1.38502c.3792 0 .68653.30934.68653.69166 0 .38229-.30733.69336-.68653.69336-.37919 0-.68653-.31107-.68653-.69336 0-.38232.30734-.69166.68653-.69166z" fill="#bebebe"/></g></svg>