<svg height="16" width="16" xmlns="http://www.w3.org/2000/svg"><g transform="translate(-161 -277)"><path d="m168.6641 280.3147c-.91221.21632-1.57294.76865-1.99414 1.58399-.1493-.0242-.25293-.0859-.41992-.0859-1.64402 0-2.98796 1.13657-3.42578 2.64648-.0267-.00075-.0474-.0215-.0742-.0215-1.50694 0-2.75 1.24306-2.75 2.75s1.24306 2.75 2.75 2.75h10.9375c1.26531 0 2.3125-1.04719 2.3125-2.3125 0-1.10302-.85218-1.91443-1.89453-2.13672-.14095-1.00781-.74945-1.75358-1.60742-2.22656.00001-.004.002-.008.002-.0117-.60683-2.24172-1.91202-3.31906-3.83601-2.93559zm.6484 1.7478c.66768 0 1.1875.51982 1.1875 1.1875 0 .0991-.0104.18603-.0293.26758-.12834.55726.23588 1.10848.79883 1.20898.56676.10146.98047.5572.98047 1.14844 0 .0655-.0123.15454-.0488.29492-.20864.80163.59188 1.49487 1.35547 1.17383.0455-.0192.10783-.0312.13086-.0312.18445 0 .3125.12805.3125.3125s-.12805.3125-.3125.3125h-10.93753c-.42606 0-.75-.32394-.75-.75s.32394-.75.75-.75c.14628 0 .28312.0404.38867.10352.7037.42186 1.588-.1364 1.50977-.95313-.0171-.17647-.0234-.2135-.0234-.15039 0-.90929.71571-1.625 1.625-1.625.14867 0 .3147.04.55273.12891.60938.22767 1.27049-.17784 1.34375-.82422.0686-.60099.54798-1.05469 1.16602-1.05469z"/><path d="m169.3125 281.0625c-1.12332 0-2.03576.85138-2.16016 1.94141-.28591-.10682-.57917-.19141-.90234-.19141-1.44974 0-2.625 1.17526-2.625 2.625 0 .0859.0192.16231.0273.24609-.26223-.15683-.57449-.24609-.9023-.24609-.9665 0-1.75.7835-1.75 1.75s.7835 1.75 1.75 1.75h10.9375c.72488 0 1.3125-.58762 1.3125-1.3125s-.58762-1.3125-1.3125-1.3125c-.18122 0-.3625.043-.51953.10937.046-.17669.082-.35575.082-.54687 0-1.07569-.78168-1.94967-1.80469-2.13281.0367-.15869.0547-.32238.0547-.49219 0-1.20812-.97938-2.1875-2.1875-2.1875z" fill="#bebebe"/></g></svg>