<svg height="16" width="16" xmlns="http://www.w3.org/2000/svg"><path d="m374.1907 963.17812c-4.40643 0-8 3.59357-8 8s3.59357 8 8 8 8-3.59357 8-8-3.59357-8-8-8zm-.4375 2.02344c-.002.00054-.003.003-.006.004-.0265.007-.0539.0111-.0801.0195zm-.14844.0937c-.83094.26927-1.4354 1.02016-1.41406 1.90625v4.96289c-.008.58921.24305 1.16204.63867 1.51758.0239.0215.0575.0112.082.0312-.42398.36858-.7207.86778-.7207 1.46484 0 1.09272.90727 2 2 2s2-.90728 2-2c0-.59706-.29673-1.09626-.7207-1.46484.0245-.02.0581-.01.082-.0312.39562-.35554.647-.92837.63867-1.51758v-4.95117c.0274-.77044-.46624-1.32337-1.09375-1.67969v-.17383c2.87259.45059 5.09375 2.81477 5.09375 5.81836 0 3.32555-2.67445 6-6 6s-6-2.67445-6-6c0-3.1174 2.38049-5.57641 5.41406-5.88281z" transform="translate(-366.1907 -963.1781)"/><path d="m70 823c-3.86599 0-7 3.13401-7 7s3.13401 7 7 7 7-3.13401 7-7-3.13401-7-7-7zm-.09375 1.96875a1.0001 1.0001 0 0 1 1.09375 1.03125v5a1.0001 1.0001 0 1 1 -2 0v-5a1.0001 1.0001 0 0 1 .78125-1 1.0001 1.0001 0 0 1 .125-.0313zm.09375 8.03125c.552285 0 1 .44772 1 1s-.447715 1-1 1-1-.44772-1-1 .447715-1 1-1z" fill="#bebebe" transform="translate(-62 -821.99998)"/></svg>