<svg height="16" width="16" xmlns="http://www.w3.org/2000/svg"><g transform="translate(-223 -649)"><path d="m231 649c-4.40357 0-8 3.59642-8 8 0 4.40357 3.59643 8 8 8 4.40358 0 8-3.59643 8-8 0-4.40358-3.59642-8-8-8zm0 3.8457c2.31253 0 4.1543 1.84178 4.1543 4.1543s-1.84177 4.1543-4.1543 4.1543c-2.31252 0-4.1543-1.84178-4.1543-4.1543s1.84178-4.1543 4.1543-4.1543z"/><path d="m230.04688 653.06055c-.32977.0884-.64463.28585-.86133.61914-.2167.33328-.2819.80535-.16993 1.19922l.55665 2.07812-1.68165 3.02344.0352-.0586c-.28116.43221-.31334.9845-.0859 1.44726a1.0001 1.0001 0 0 0 .0332.0586c.54607.94373 2.02468.93125 2.55273-.0234h.002l2.00977-3.52344a1.0001 1.0001 0 0 0 .0957-.22656c.0118-.0422.0175-.0859.0254-.12891.0104-.0453.0212-.0906.0273-.13672.004-.0212.0108-.0412.0137-.0625a1.0001 1.0001 0 0 0 .008-.11523 1.0001 1.0001 0 0 0 -.008-.27735c-.0154-.0906-.0383-.17953-.0703-.26562l.0273.0898-.0371-.14062-.66992-2.49805c-.1-.39708-.39178-.77284-.74609-.95312-.35431-.18029-.72688-.19383-1.05664-.10547zm-2.17383 8.36914a1.0001 1.0001 0 0 0 .3789.37304z"/><g fill="#cd656c"><path d="m231 650c-3.86183 0-7 3.13816-7 7 0 3.86183 3.13817 7 7 7 3.86184 0 7-3.13817 7-7 0-3.86184-3.13816-7-7-7zm0 1.84497c2.85121 0 5.15504 2.30383 5.15504 5.15503s-2.30383 5.15503-5.15504 5.15503c-2.8512 0-5.15504-2.30383-5.15504-5.15503s2.30384-5.15503 5.15504-5.15503z"/><path d="m228.73722 660.92808a.46754837.46754804 75 0 0 .81495-.007l2.01719-3.53522a.46754837.46754804 75 0 0 .0131-.064.46754837.46754804 75 0 0 .0131-.064.46754837.46754804 75 0 0 .0131-.064.46754837.46754804 75 0 0 -.008-.0282.46754837.46754804 75 0 0 .0131-.064.46754837.46754804 75 0 0 -.0227-.0846l-.0378-.14112-.67305-2.51186a.46754837.46754804 75 1 0 -.90313.24199l.66549 2.48365-1.87812 3.37695a.46754837.46754804 75 0 0 -.0277.46115z"/></g></g></svg>