<svg height="16" width="16" xmlns="http://www.w3.org/2000/svg"><g transform="translate(-181.0002 -237)"><path d="m187.92383 237c-2.32058 0-4.23047 1.90989-4.23047 4.23047v2.23047h-.0781c-1.13332 0-2.07617.94481-2.07617 2.07812v.57227 5.88867a1.0001 1.0001 0 0 0 1 1h5.38477 2.15429 5.38282a1.0001 1.0001 0 0 0 1-1v-5.88867-.57227c0-1.13331-.94285-2.07812-2.07617-2.07812h-.0762v-2.23047c0-2.32058-1.90988-4.23047-4.23047-4.23047zm0 2h2.15429c1.22186 0 2.23047 1.00862 2.23047 2.23047v3.23047a1.0001 1.0001 0 0 0 1 1h1.07618c.0599 0 .0762.0182.0762.0781v.57229 4.88867h-4.38282-2.15429-4.38477v-4.88867-.57227c0-.0599.0163-.0781.0762-.0781h1.07813a1.0001 1.0001 0 0 0 1-1v-3.23047c0-1.22185 1.00862-2.23047 2.23047-2.23047zm0 .1543c-1.11553 0-2.07813.96068-2.07813 2.07617v3.23047a1.0001 1.0001 0 0 0 1 1h4.3086a1.0001 1.0001 0 0 0 1-1v-3.23047c0-1.11548-.96065-2.07617-2.07618-2.07617zm0 2h2.15429c.11502 0 .0762-.0388.0762.0762v2.23047h-2.3086v-2.23047c0-.11499-.0369-.0762.0781-.0762z"/><path d="m187.92331 238c-1.77121 0-3.23077 1.45956-3.23077 3.23077v3.23078h-1.07693c-.59661 0-1.07691.48031-1.07691 1.07692v.57212 5.88941h5.38461 2.15384 5.38462v-5.88941-.57212c0-.59661-.4803-1.07692-1.07691-1.07692h-1.07693v-3.23078c0-1.77121-1.45956-3.23077-3.23078-3.23077zm0 2.15384h2.15384c.61527 0 1.07692.46169 1.07692 1.07693v3.23078h-4.30768v-3.23078c0-.61524.46166-1.07693 1.07692-1.07693z" fill="#cd656c"/></g></svg>