<svg height="16" width="16" xmlns="http://www.w3.org/2000/svg"><g transform="translate(-40.99995 -297)"><path d="m42.99995 298.50195.04687.002c-.06246-.003-.125041-.003-.1875 0a1.0001 1.0001 0 0 0 -.04687.002c-1.021847.0963-1.817029.97359-1.8125 2v8.99405c0 1.0927.907348 1.99989 2 2h12c1.092652-.00011 2-.9073 2-2v-8.99805c0-1.0927-.907348-1.99989-2-2zm0 2h2.566406a1.0001 1.0001 0 0 0 -.642578 1.73633l-.298828-.23828a1.0001 1.0001 0 0 0 -1.625.78125zm9.466797 0h2.533203v2.2793a1.0001 1.0001 0 0 0 -1.625-.78125l-.333984.26562a1.0001 1.0001 0 0 0 -.574219-1.76367zm-4.013672 1.99805h1.09375l-.546875.4375zm-3.453125 2.36328 2.75 2.19922.546875.4375h-3.296875zm8 0v2.63672h-3.296875l.546875-.4375zm-4.625.13672a1.0001 1.0001 0 0 0 1.25 0l-.625.5zm-5.375 3.5a1.0001 1.0001 0 0 0 1 1h-1zm12 0v1h-1a1.0001 1.0001 0 0 0 1-1z"/><path d="m1.90625 2.5019531a1.0001 1.0000001 0 0 0 -.90625 1v8.9980469a1.0001 1.0000001 0 0 0 1 1h12a1.0001 1.0000001 0 0 0 1-1v-8.9980469a1.0001 1.0000001 0 0 0 -1-1h-12a1.0001 1.0000001 0 0 0 -.09375 0zm2.6933594 1.9980469h6.8007816l-3.400391 2.71875zm-1.5996094 1.28125 4.375 3.5.625.5.625-.5 4.375-3.5v5.71875h-10z" fill="#bebebe" transform="translate(40.99995 297)"/></g></svg>