<svg height="16" width="16" xmlns="http://www.w3.org/2000/svg"><g fill-rule="evenodd" transform="translate(-462 -381.99998)"><path d="m469.96875 382c-1.0901.017-1.98172.9353-1.9668 2.02539v3.97656h-3.97461c-.58864-.008-1.16228.24339-1.51757.63867-.35529.39529-.50977.88419-.50977 1.35938s.15448.96409.50977 1.35938c.35529.39528.92893.64716 1.51757.63867h3.97461v3.97656c-.008.58848.24346 1.16045.63867 1.51562.39522.35518.88426.50977 1.35938.50977s.96416-.15459 1.35938-.50977c.39521-.35517.64695-.92714.63867-1.51562v-3.97656h3.97461c.58864.008 1.16228-.24339 1.51757-.63867.35529-.39529.50977-.88419.50977-1.35938s-.15448-.96409-.50977-1.35938c-.35529-.39528-.92893-.64716-1.51757-.63867h-3.97461v-3.97656c.0152-1.11336-.91593-2.04279-2.0293-2.02539zm.03125 7.04688a1.0001 1.0001 0 0 0 .92773.95312 1.0001 1.0001 0 0 0 -.92773.92773 1.0001 1.0001 0 0 0 -.95312-.92773 1.0001 1.0001 0 0 0 .95312-.95312z"/><path d="m469.98441 383.00015a.99802875.99810389 0 0 0 -.98233 1.01165v4.99002h-4.98965a.99802875.99810389 0 1 0 0 1.996h4.98965v4.99002a.99802875.99810389 0 1 0 1.99586 0v-4.99002h4.98963a.99802875.99810389 0 1 0 0-1.996h-4.98963v-4.99002a.99802875.99810389 0 0 0 -1.01353-1.01165z" fill="#bebebe"/></g></svg>