<?xml version="1.0" encoding="UTF-8" standalone="no"?>
<svg
   xmlns:dc="http://purl.org/dc/elements/1.1/"
   xmlns:cc="http://creativecommons.org/ns#"
   xmlns:rdf="http://www.w3.org/1999/02/22-rdf-syntax-ns#"
   xmlns:svg="http://www.w3.org/2000/svg"
   xmlns="http://www.w3.org/2000/svg"
   xmlns:sodipodi="http://sodipodi.sourceforge.net/DTD/sodipodi-0.dtd"
   xmlns:inkscape="http://www.inkscape.org/namespaces/inkscape"
   height="16"
   width="16"
   version="1.1"
   id="svg8"
   sodipodi:docname="emblem-note.svg"
   inkscape:version="0.92.2 2405546, 2018-03-11">
  <metadata
     id="metadata14">
    <rdf:RDF>
      <cc:Work
         rdf:about="">
        <dc:format>image/svg+xml</dc:format>
        <dc:type
           rdf:resource="http://purl.org/dc/dcmitype/StillImage" />
      </cc:Work>
    </rdf:RDF>
  </metadata>
  <defs
     id="defs12" />
  <sodipodi:namedview
     pagecolor="#ffffff"
     bordercolor="#666666"
     borderopacity="1"
     objecttolerance="10"
     gridtolerance="10"
     guidetolerance="10"
     inkscape:pageopacity="0"
     inkscape:pageshadow="2"
     inkscape:window-width="1920"
     inkscape:window-height="1138"
     id="namedview10"
     showgrid="false"
     showguides="false"
     inkscape:zoom="20.85965"
     inkscape:cx="17.736612"
     inkscape:cy="2.7537243"
     inkscape:window-x="1920"
     inkscape:window-y="38"
     inkscape:window-maximized="0"
     inkscape:current-layer="svg8" />
  <g
     fill-rule="evenodd"
     transform="translate(-283.02908 -629.02581)"
     id="g6">
    <path
       d="m 295.86523,629.46289 -0.29296,0.29297 -1.5586,1.55859 h -9.02734 c -1.087,9e-5 -1.95694,0.81463 -1.95703,1.92969 v 8.51172 0.21875 0.68359 c 9e-5,1.11506 0.87005,1.9296 1.95703,1.92969 h 3.80078 0.98437 4.67579 c 1.06728,-9e-5 1.91776,-0.77965 1.95703,-1.86523 v -0.002 c 0.002,-0.0503 0,-0.0769 0,-0.0625 v -7.40625 l 0.875,-0.875 1.75,-1.75 v -0.41406 c 0,-1.37623 -1.12375,-2.75 -2.75,-2.75 z m -1.20783,3.34241 -0.1281,-0.46741 v 0.875 z m 0.14533,0.54822 c 0.0817,0.0417 0.14601,0.0366 0.22266,0.11328 0.0766,0.0766 0.0716,0.14097 0.11328,0.22265 l -5.39844,5.39844 h -0.33398 v -0.33594 z m -8.02343,1.71093 h 3.48632 l -2.85937,2.85938 -0.004,2.91406 h -0.62304 z m 5.875,3.9375 v 1.83594 h -1.83594 z"
       id="path2"
       inkscape:connector-curvature="0"
       sodipodi:nodetypes="ccccccccccccccccccsccccccccccccccccccccccc" />
    <path
       d="m296.27908 630.46331-.875.875c.875 0 1.75.875 1.75 1.75l.875-.875c0-.875-.65787-1.75-1.75-1.75zm-1.75 1.75-6.12305 6.125-.002 1.75h1.75l6.125-6.125c0-.875-.875-1.75-1.75-1.75zm-9.54297.10156c-.4976.00004-.95699.44-.95703.92969v8.51172.21875.68359c.00004.4897.45943.92965.95703.92969h3.80078.98438 4.67578c.48785-.00004.93973-.42409.95703-.90234.00034-.01 0-.0178 0-.0273v-6.07031l-1.75 1.75v3.5h-7.875v-7.77344h5.17578l1.7461-1.75z"
       fill="#bebebe"
       id="path4" />
  </g>
</svg>
