<svg height="16" width="16" xmlns="http://www.w3.org/2000/svg"><g transform="translate(-323 -649.00012)"><path d="m329.25781 649c-.10751-.00032-.21407.011-.32031.0273-.53403.0726-1.02087.34923-1.35352.77344h-.002l-3.00781 3.71094a1.0001 1.0001 0 0 0 -.006.006c-.29384.36778-.45347.82418-.45313 1.29492v1.07227 7.04101c0 1.15108.96418 2.07422 2.07422 2.07422h8.5918c1.12907 0 2.07031-.83725 2.07031-2.00586v-6.76367l-.0312.24805c.0447-.17462.0662-.35492.0645-.53516v-1.04688c.0177-1.00226-.7009-1.88437-1.68555-2.07226a1.0001 1.0001 0 0 0 -.0234-.004l-3.2207-.53711.0898.0195c-.19208-.0505-.38956-.0664-.58789-.0605-.28477-.002-.47796.20156-.73242.30273l.0957-.11719-.0312.0352c.57481-.63729.66166-1.54037.35742-2.22851-.30423-.68815-1.0285-1.23063-1.88671-1.23438a1.0001 1.0001 0 0 0 -.002 0zm-.008 2h.002c.0648.00063.0493.0107.0645.0449.0154.0349.0349.0264-.0117.0781a1.0001 1.0001 0 0 0 -.0293.0351l-2.78516 3.38868a1.0001 1.0001 0 0 0 -.22851.63476v.23438a1.0001 1.0001 0 0 0 1 1h4.35351a1.0001 1.0001 0 0 0 .17188-1.98438l-.19336-.0352a1.0001 1.0001 0 0 0 -.15625-.0137c-.10826-.002-.0629-.005-.0586 0 .004.005-.0164-.0279-.0156-.0742.00072-.0463.0221-.0791.0176-.0742-.004.005-.0497-.002.0586 0a1.0001 1.0001 0 0 0 .0742 0c.008-.00046.0159-.00003.0234.002a1.0001 1.0001 0 0 0 .0898.0195l3.19922.5332c.0393.009.0593.0309.0586.0723a1.0001 1.0001 0 0 0 0 .0176v1.07421a1.0001 1.0001 0 0 0 0 .01c.00006.006-.00037.0133-.002.0195a1.0001 1.0001 0 0 0 -.0312.24805v6.76367c0-.11181-.0755.006-.0703.006h-8.5918c-.0474 0-.0742-.0007-.0742-.0742v-7.04101-1.07227a1.0001 1.0001 0 0 0 0-.002c-.00001-.0163.006-.0301.0156-.043.00039-.00052-.00041-.001 0-.002l3.01562-3.71874a1.0001 1.0001 0 0 0 .01-.0137c.0121-.0154.0294-.0248.0488-.0273a1.0001 1.0001 0 0 0 .0332-.004c.004-.00058.008-.002.0117-.002zm.17383 3.125c-.005.0536-.0578.0989-.0586.15234-.00075.0483.0465.0902.0488.13868h-.22851z"/><path d="m329.25448 650.00013a1.0736429 1.0736429 0 0 0 -.18032.0147 1.0736429 1.0736429 0 0 0 -.70451.40257l-3.01931 3.72383a1.0736429 1.0736429 0 0 0 -.23484.67094v1.07353 7.04089c0 .6123.49484 1.07353 1.07354 1.07353h8.59247c.56192 0 1.06935-.47804 1.06935-1.00644v-6.76411a1.0736429 1.0736429 0 0 0 .0335-.27677v-1.07354a1.0736429 1.0736429 0 0 0 -.87224-1.07353l-3.22061-.53677a1.0736429 1.0736429 0 0 0 -.33548-.0335 1.0736667 1.0736667 0 1 0 -.0335 2.14707l.1929.0335h-4.35285v-.23483l2.78448-3.38835a1.0736429 1.0736429 0 0 0 -.79257-1.79272z" fill="#bebebe"/></g></svg>