<svg height="16" width="16" xmlns="http://www.w3.org/2000/svg"><g fill-rule="evenodd" transform="translate(-462 -381.99998)"><path d="m469.96875 382c-1.0901.017-1.98367.9353-1.96875 2.02539v3.97459h-3.97266c-.58864-.008-1.16228.24536-1.51757.64064-.35529.39529-.50977.88419-.50977 1.35938s.15448.96409.50977 1.35938c.35529.39528.92893.64909 1.51757.6406h3.97266v3.97463c-.008.58848.24541 1.16045.64062 1.51562.39522.35518.88426.50977 1.35938.50977s.96416-.15459 1.35938-.50977c.39521-.35517.6489-.92714.64062-1.51562v-3.97463h3.97266c.58864.008 1.16228-.24532 1.51757-.6406.35529-.39529.50977-.88419.50977-1.35938s-.15448-.96409-.50977-1.35938c-.35529-.39528-.92893-.64913-1.51757-.64064h-3.97266v-3.97459c.0152-1.11336-.91788-2.04279-2.03125-2.02539zm.03125 7.04688c.0226.50711.42142.91689.92773.95312-.49722.0349-.89288.43051-.92773.92773-.0362-.50631-.44601-.90518-.95312-.92773.51624-.0237.92939-.43688.95312-.95312z"/><path d="m469.98441 383.00015c-.55037.009-.99195.46122-.98441 1.01165v4.98818h-4.98757c-1.3499-.0195-1.3499 2.01948 0 2h4.98757v4.98786c-.019 1.34952 2.01898 1.34952 2 0v-4.98786h4.98757c1.3499.0195 1.3499-2.01948 0-2h-4.98757v-4.98818c.008-.56265-.453-1.02044-1.01559-1.01165z" fill="#bebebe"/></g></svg>