<svg height="16" width="16" xmlns="http://www.w3.org/2000/svg"><g transform="translate(-501.0002 -195)"><path d="m503.00111 202.00218a.99985585.99985585 0 0 0 -.99976.99975v.99976c-.0003.005-.00035.0216.002.0742.0234.53168.2403 1.00099.61509 1.36296l5.20185 5.26433a.99985585.99985585 0 0 0 .71467.29681l.96847-.004a.99985585.99985585 0 0 0 .70686-.29681l5.21356-5.27214c.40377-.40381.57408-.92641.57408-1.42543v-.99976a.99985585.99985585 0 0 0 -.99975-.99975h-1.70662c-.49913 0-1.02168.17036-1.42543.57407a.99985585.99985585 0 0 0 -.0254.0254l-2.83525 3.05394-2.86063-3.05394c-.41365-.44553-1.01112-.64021-1.55821-.59751l.0781-.002zm10.27874 1.98779c-.0275.0275-.0196.0117.0117.0117h.70688c0 .0314-.0158.0392.0117.0117a.99985585.99985585 0 0 0 -.004.004l-3.95412 3.99902.043-.59556zm-8.56432.01 3.2082 3.4269.0488.58579-3.94825-3.99511a.99985585.99985585 0 0 0 -.0137-.0156h.65218a.99985585.99985585 0 0 0 .0527-.002z"/><path d="m508.49976 200.99851c-.8135 0-1.49963.68613-1.49963 1.49964v.99975c0 .8135.68613 1.49964 1.49963 1.49964h.99976c.8135 0 1.49963-.68614 1.49963-1.49964v-.99975c0-.81351-.68613-1.49964-1.49963-1.49964z"/><path d="m508.99964 194.99998c-1.09043 0-1.99951.90907-1.99951 1.99951 0 1.09043.90908 1.99951 1.99951 1.99951s1.99951-.90908 1.99951-1.99951c0-1.09044-.90908-1.99951-1.99951-1.99951z"/><path d="m508.68722 197.99924c-.91736 0-1.68709.76974-1.68709 1.68709v.62485c0 .91736.76973 1.68709 1.68709 1.68709h.62484c.91736 0 1.68709-.76973 1.68709-1.68709v-.62485c0-.91735-.76973-1.68709-1.68709-1.68709z"/><g fill="#bebebe"><path d="m503.00131 203.00117v.99976c-.00012.0104-.00046.0208 0 .0313.0112.25489.12854.50975.31242.68733l5.21748 5.27996.96851-.003 5.21747-5.27677c.18815-.18816.28119-.4534.28119-.71862v-.99976h-1.70669c-.26522 0-.53045.0931-.71857.28118l-3.44943 3.7147-.10822 1.49963-.12386-1.49963-3.47798-3.7147c-.19459-.21068-.46914-.30308-.74982-.28118z"/><rect height="1.999512" rx=".499878" width="1.999512" x="508.00009" y="201.99828"/><rect height="1.999512" rx=".999756" width="1.999512" x="508.00009" y="195.99974"/><rect height="1.999512" rx=".687332" width="1.999512" x="508.00009" y="198.99901"/></g></g></svg>