<svg height="16" width="16" xmlns="http://www.w3.org/2000/svg"><g fill="#bebebe" fill-rule="evenodd"><path d="m7.248047.50585938c-.419305-.0239413-.850587-.016571-1.289063.0234375-.164431.0149994-.325844.0193077-.486328.0429687-3.263442.48112912-5.678689 2.72949242-5.458984 5.16406252.142072 1.5764329 1.351739 2.8740042 3.082031 3.5585938l-.722656 2.8144531 2.951172-2.1347656c.001-.092929-.0026-.1852931.0059-.2792969.121497-1.3400875.983708-2.4430036 2.123047-3.1230469 1.139878-.6803649 2.583046-.9949225 4.111328-.8554687.06667.00608.192245.015796.318359.029297a1.0001 1.0001 0 0 1 .0078 0c.03917.0043.05279.00316.09766.00977a1.0001 1.0001 0 0 0 .002 0c.20925.030849.405943.085917.607422.1328125.126537-.4244527.180998-.8648737.140625-1.3125-.2015-2.2349128-2.555177-3.90272816-5.490313-4.07031702z"/><path d="m11.843541 6.7456492c2.478591.3654147 4.312689 2.0731306 4.145936 3.9221348-.107908 1.197291-1.026882 2.182783-2.341078 2.702756l.548549 2.13746-2.426787-1.755079-.01678-.0016c-.299482.01431-.600355.01906-.912565-.0094-2.6642701-.243034-4.6900567-2.015839-4.5150043-3.955766.1748349-1.9399268 2.484361-3.3172458 5.1484353-3.0741524.124888.011396.2472.015703.369101.033674z"/></g></svg>