<svg height="16" width="16" xmlns="http://www.w3.org/2000/svg"><g fill="#bebebe" fill-rule="evenodd"><path d="m3 1h2v6h-2z"/><path d="m3-7h2v6h-2z" transform="rotate(90)"/><path d="m-6.82352-14.813708h2.333333v7h-2.333333z" transform="matrix(-.70710678 .70710678 -.70710678 -.70710678 0 0)"/><path d="m-12.480372 2.156854h2.333333v7h-2.333333z" transform="matrix(-.70710678 -.70710678 .70710678 -.70710678 0 0)"/><path d="m11-7h2v6h-2z" transform="rotate(90)"/><circle cx="4" cy="9.5" r="1"/><circle cx="4" cy="14.5" r="1"/><path d="m15.970563-3.5h2v7h-2z" transform="matrix(.70710678 .70710678 -.70710678 .70710678 0 0)"/><g transform="matrix(.70710678 -.70710678 .70710678 .70710678 0 0)"><circle cy="14.470563" r="1"/><circle cy="19.470562" r="1"/></g></g></svg>