<svg height="16" width="16" xmlns="http://www.w3.org/2000/svg"><path d="m.282071 1.0002535c-.04107.00169-.0768.01134-.102762.032226-.313935.2528821-.12017.4780831-.12017.4780831-.000001 0 .517642.5170194.577356.8952062.05972.3781868.08011.8561442.776774 1.1547113.69666.2985686.636572.6566015.636572.6566015s-.159235.438149.696659.4580532c.457769-.00261.915496-.00383 1.37329-.00429.17171.3190643.641446.4780815.293467.4780815-.379434 0-.450217.3317831-.450217.3317831h-1.461242s-.07228-.01134-.07228-.083607c0-.072298-.134973-.072283-.134973-.072283s-.235545-.018205-.235545.099268v1.2740152s-.035997.2708262.27125.2708262h2.05166v1.2113146s-.334251.026541-.505948.1349726c-.171698.108447-.180604.1543174-.09927.3169787.08132.1626612.379679.7314156.379679 1.0928841v5.3050572s-.02761.465019.564293.465019c.682332 0 .654858-.429316.65486-.429315v-8.07863h5.248452v8.07863s-.02748.429315.65486.429315c.591904 0 .565164-.465018.565164-.465019v-5.3050574c0-.3614685.29835-.9302229.37968-1.0928841.08132-.1626598.07242-.2085394-.09927-.3169787-.171696-.108447-.506818-.1349726-.506818-.1349726v-1.2113146h2.05166c.307249 0 .270826-.2708262.270826-.2708262v-1.2740152c0-.1174728-.234251-.099268-.234251-.099268s-.135846-.0000154-.135846.072283c0 .072298-.07228.083592-.07228.083592h-1.461242s-.07078-.3317831-.450215-.3317831c-.343476 0 .109581-.1550438.286501-.4658914.460112-.00153.920169-.00383 1.380255-.00782.855895-.019906.696658-.4580533.696658-.4580533s-.05921-.3580328.637442-.6566014c.69666-.2985686.71619-.776526.775904-1.1547113.05972-.3781868.577356-.8952078.577356-.8952078.000001 0 .194633-.225201-.119296-.4780815-.138421-.1114964-.557328.099268-.557328.099268-2.957069 1.6630237-12.041853 1.6453568-14.527077 0 0 0-.276621-.1390641-.45457-.1314941zm5.521892 3.6713922c.492808.00118.985841.0026 1.478658.00429v.9474561h-1.179094s-.212728-.4745984-.59216-.4745984c-.347605 0 .12043-.1588349.292596-.4772112zm2.913776.00965c.494979.00169.989784.00291 1.484754.00352.177732.3097121.629349.4641491.286501.4641491-.379433 0-.593031.4745984-.593031.4745984h-1.178224z" fill="#bebebe"/></svg>