<svg height="16" width="16" xmlns="http://www.w3.org/2000/svg"><g fill="#bebebe"><path d="m9.7363281 6.2832031c-.16579-.002-.3360219.0039063-.5136719.0039063-3.65699.0702-7.6459162.3265062-9.2226562 3.0664062 2.16187 2.1186604 3.2633919 2.5408644 12.888672 2.6464844 2.28608-.0241 1.906888-.374653 1.486328-.970703l-.800781-1.001953c-.042959.05997-.08896.118113-.140625.169922-.110519.110938-.257082.220745-.4375.296875-.177038.074765-.353212.109375-.53711.109375h-.607422-2.6464839c-.748962 0-1.375-.6343008-1.375-1.3769535v-.6074219c0-.742637.632282-1.375 1.375-1.375h1.2695309v-.8261718c-.231346-.0987336-.4765924-.1319049-.7382809-.1347657z"/><path d="m11.8525 4c-.2082 0-.37704.16693-.37704.37509v.60757 3.26056h-2.27009c-.2082 0-.37509.16693-.37509.3751v.60757c0 .20816.16689.37704.37509.37704h2.64713.60562c.0521 0 .10348-.0103.14847-.0293.0455-.0192.0849-.0476.11917-.082.0679-.0679.1094-.16161.1094-.26569v-.60757-3.26057h2.78975c.2082 0 .37509-.16692.37509-.37509v-.60757c0-.20816-.16689-.37509-.37509-.37509z"/></g></svg>