<svg height="16" width="16" xmlns="http://www.w3.org/2000/svg"><path d="m449.00026 401.00034c-.25218 0-.50379.0129-.74999.0357l-.46428 2.39281c-.38223.0838-.75775.20103-1.10712.35714l-1.74997-1.67854c-.44413.26298-.83077.58751-1.21426.92857l1.03571 2.17852c-.2542.28455-.48486.59713-.67857.92855l-2.3928-.32142c-.2031.46715-.35282.95582-.46428 1.46425l2.1071 1.14283c-.0195.19208-.0357.37416-.0357.57141 0 .19727.0162.37935.0357.57143l-2.1071 1.14282c.11143.50844.26118.99711.46428 1.46426l2.3928-.32142c.19371.33142.42437.644.67857.92855l-1.03571 2.17852c.38349.34106.77013.66559 1.21426.92857l1.74997-1.67854c.34937.1561.72489.27332 1.10712.35714l.46428 2.3928c.2462.0228.49781.0357.74999.0357.25216 0 .50377-.0129.74999-.0357l.46427-2.3928c.38223-.0838.75775-.20104 1.10712-.35714l1.74996 1.67854c.44415-.26298.83079-.58751 1.21427-.92857l-1.0357-2.17852c.25418-.28455.48484-.59713.67855-.92855l2.39283.32142c.20308-.46715.35281-.95582.46426-1.46426l-2.10709-1.14282c.0195-.19208.0357-.37416.0357-.57143 0-.19725-.0162-.37933-.0357-.57141l2.10709-1.14283c-.11142-.50843-.26118-.9971-.46426-1.46425l-2.39283.32142c-.19371-.33142-.42437-.644-.67855-.92855l1.0357-2.17852c-.38348-.34106-.77012-.66559-1.21427-.92857l-1.74996 1.67854c-.34937-.15611-.72489-.27332-1.10712-.35714l-.46427-2.39281c-.24622-.0228-.49783-.0357-.74999-.0357zm0 4.57133c1.8935 0 3.4285 1.535 3.4285 3.4285s-1.535 3.4285-3.4285 3.4285c-1.89352 0-3.42851-1.535-3.42851-3.4285s1.53499-3.4285 3.42851-3.4285z" fill="#bebebe" transform="translate(-441.0002 -400.99999)"/></svg>