<svg height="16.000193" width="16" xmlns="http://www.w3.org/2000/svg"><g fill="#bebebe" transform="translate(-522.0002 -462)"><path d="m529.99708 470c-3.99844 0-5.99766 3-5.99766 6h-1.74932c-.2499 0-.2499.15712-.2499.25v1.5c0 .25.13814.25.2499.25h15.49396c.19535.006.2499-.12948.2499-.25v-1.5c.0212-.14605 0-.25-.2499-.25h-1.74932c0-3-1.99922-6-5.99766-6zm0 3c2.3501 0 2.99883 1.76177 2.99883 3h-5.99766c0-1.19769.70253-3 2.99883-3z" fill-rule="evenodd"/><path d="m536.98911 462.59983c-.28315-.24009-.6238-.41924-.96653-.5613l-.0217 2.23198c-.005.45867-.4519.72949-1.00572.72949h-.99961c-.55376-.007-1.00306-.30935-.9986-.76802l.0217-2.23198c-.34541.13322-.68945.3036-.9772.53638-1.37728 1.11412-1.39514 2.94888-.0399 4.09805.28315.24009.6238.41924.96652.56131.0278.0113.0278 2.05426.0278 2.05426 1.48949.75 2.35093 1.75 2.99883 2.75v-4.74827c.3454-.13322.66671-.32107.95447-.55384 1.37727-1.11412 1.39514-2.94889.0399-4.09806z"/></g></svg>