<svg height="16" width="16" xmlns="http://www.w3.org/2000/svg"><g fill="#bebebe"><circle cx="8" cy="8" opacity=".25" r="7.5"/><g stroke-linejoin="round"><path d="m8 .5a7.5 7.5 0 0 0 -7.5 7.5 7.5 7.5 0 0 0 7.5 7.5 3.75 3.75 0 0 1 -3.75-3.75 3.75 3.75 0 0 1 3.75-3.75 3.75 3.75 0 0 0 3.75-3.75 3.75 3.75 0 0 0 -3.75-3.75zm0 2.5a1.25 1.25 0 0 1 1.25 1.25 1.25 1.25 0 0 1 -1.25 1.25 1.25 1.25 0 0 1 -1.25-1.25 1.25 1.25 0 0 1 1.25-1.25z" stroke-width=".225754"/><circle cx="8" cy="11.75" fill-opacity=".470588" r="1.25" stroke-width=".037667"/></g></g></svg>