<svg height="16" width="16.000013" xmlns="http://www.w3.org/2000/svg"><path d="m12.236328 2.0117188c-.240906.00112-.46355.0787474-.671875.2265624-.52719.3762601-1.625753.7795801-3.564453.78125-1.93871.0020001-3.0372631-.4049899-3.5644531-.78125-.20832-.14782-.4080507-.21987-.6503907-.21875-.24234.001-.5217906.0664-.8066406.21875-1.03738.54647-1.9910756 2.3359801-2.5097656 4.65625-.44216 1.97089-.60539687 4.6660098-.34179688 5.7499998.22958001.93169.62627126 1.34375 1.33203128 1.34375 1.04588-.0179 2.3600593-1.18225 3.1933594-2.75.6027-.86787 2.0006062-1.2624797 3.3476562-1.21875 1.34704-.0470998 2.744956.35088 3.347656 1.21875.8333 1.56775 2.14748 2.73208 3.19336 2.75.70576 0 1.102451-.41206 1.332031-1.34375.2636-1.08399.100363-3.7791098-.341797-5.7499998-.51869-2.3202699-1.472386-4.10978-2.509766-4.65625-.28485-.152295-.54425-.2276825-.785156-.2265624zm-8.517578 2.1953124h1.5703125v1.5820313h1.5703125v1.5839844h-1.5703125v1.5839843h-1.5703125v-1.5839843h-1.5703125v-1.5839844h1.5703125zm7.777344 0c.43368 0 .785156.3537957.785156.7910157 0 .43724-.351476.7910156-.785156.7910156-.43366 0-.785156-.3537756-.785156-.7910156 0-.43722.351496-.7910157.785156-.7910157zm-1.5703128 1.5820313c.4336598 0 .7851568.3557488.7851568.7929687 0 .4372201-.351497.7910157-.7851568.7910157-.43367 0-.7851562-.3537957-.7851562-.7910157s.3514862-.7929687.7851562-.7929687zm3.1406248 0c.43365 0 .785156.3557488.785156.7929687 0 .4372201-.351506.7910157-.785156.7910157-.43368 0-.785156-.3537957-.785156-.7910157s.351476-.7929687.785156-.7929687zm-1.570312 1.5839844c.43368 0 .785156.3537756.785156.7910156 0 .43722-.351476.7929687-.785156.7929687-.43366 0-.785156-.3557487-.785156-.7929687 0-.43724.351496-.7910156.785156-.7910156z" fill="#bebebe"/></svg>