<svg height="16" width="16" xmlns="http://www.w3.org/2000/svg"><g fill="#bebebe"><g stroke-width=".041437"><path d="m.52325065 2.5436126c0-.2051969-.52325065-.6242096-.52325065-.7696126h1.7963226c0 .1197534-.4998809.5644986-.4998809.7696126-.078106 0-.77319105 0-.77319105 0z"/><path d="m.52325065 3.4522468c0-.2051968-.52325065-.6241681-.52325065-.7696125h1.7963226c0 .1197534-.4998809.5644157-.4998809.7696125-.078106 0-.77319105 0-.77319105 0z"/><path d="m2.6667634 2.5436126c0-.2051969-.5232506-.6242096-.5232506-.7696126h1.7963226c0 .1197534-.4998809.5644986-.4998809.7696126-.078106 0-.7731911 0-.7731911 0z"/><path d="m2.6667634 3.4522468c0-.2051968-.5232506-.6241681-.5232506-.7696125h1.7963226c0 .1197534-.4998809.5644157-.4998809.7696125-.078106 0-.7731911 0-.7731911 0z"/><path d="m4.8809242 2.5436126c0-.2051969-.5232921-.6242096-.5232921-.7696126h1.7963641c0 .1197534-.4998809.5644986-.4998809.7696126-.078106 0-.7731911 0-.7731911 0z"/><path d="m4.8809242 3.4522468c0-.2051968-.5232921-.6241681-.5232921-.7696125h1.7963641c0 .1197534-.4998809.5644157-.4998809.7696125-.078106 0-.7731911 0-.7731911 0z"/><path d="m10.369296 2.5436126c0-.2051969-.5233331-.6242096-.5233331-.7696126h1.7964051c0 .1197534-.49988.5644986-.49988.7696126-.07811 0-.773192 0-.773192 0z"/><path d="m10.369296 3.4522468c0-.2051968-.5233331-.6241681-.5233331-.7696125h1.7964051c0 .1197534-.49988.5644157-.49988.7696125-.07811 0-.773192 0-.773192 0z"/><path d="m7.6604757 2.5436126c0-.2051969-.5233335-.6242096-.5233335-.7696126h1.7964055c0 .1197534-.4998809.5644986-.4998809.7696126-.078065 0-.7731911 0-.7731911 0z"/><path d="m7.6604757 3.4522468c0-.2051968-.5233335-.6241681-.5233335-.7696125h1.7964055c0 .1197534-.4998809.5644157-.4998809.7696125-.078065 0-.7731911 0-.7731911 0z"/><path d="m12.583457 2.5436126c0-.2051969-.523333-.6242096-.523333-.7696126h1.796405c0 .1197534-.499881.5644986-.499881.7696126-.07811 0-.773191 0-.773191 0z"/><path d="m12.583457 3.4522468c0-.2051968-.523333-.6241681-.523333-.7696125h1.796405c0 .1197534-.499881.5644157-.499881.7696125-.07811 0-.773191 0-.773191 0z"/><path d="m14.726929 2.5436126c0-.2051969-.523334-.6242096-.523334-.7696126h1.796406c0 .1197534-.499881.5644986-.499881.7696126-.07811 0-.773191 0-.773191 0z"/><path d="m14.726929 3.4522468c0-.2051968-.523334-.6241681-.523334-.7696125h1.796406c0 .1197534-.499881.5644157-.499881.7696125-.07811 0-.773191 0-.773191 0z"/></g><path d="m.53320312 3.5722656c0 4.1265007 3.35210448 7.4804684 7.47851568 7.4804684 4.1263322 0 7.4804692-3.3539549 7.4804692-7.4804684h-.732422c0 3.7312921-3.016926 6.7480464-6.7480472 6.7480474-3.731208 0-6.7480469-3.0167425-6.7480469-6.7480474z"/><path d="m2.6757813 3.5722656c0 2.9426818 2.393382 5.3359375 5.3359375 5.3359375 2.9425972 0 5.3359372-2.3932941 5.3359372-5.3359375h-.730468c0 2.5474448-2.058084 4.6054688-4.6054692 4.6054688-2.5473445 0-4.6035157-2.0579797-4.6035157-4.6054688z"/><path d="m4.890625 3.5722656c0 1.7197455 1.4013508 3.1230469 3.1210938 3.1230469 1.7197429 0 3.1230472-1.4032947 3.1230472-3.1230469h-.732422c0 1.3245508-1.0660867 2.390625-2.3906252 2.390625-1.3245386 0-2.390625-1.0660675-2.3906251-2.390625z"/><path d="m7.6464844 3.5722656v11.0859374h.7324219v-11.0859374z"/><path d="m99.716 307.414 93.626-20.59 93.104 20.59v11.768h-186.73z" transform="matrix(.04143575 0 0 .04143717 0 1.774)"/></g></svg>