<svg height="16" width="16" xmlns="http://www.w3.org/2000/svg"><g fill="#bebebe" fill-rule="evenodd"><path d="m3.288423 5.4273349s1.3954561.7411559 1.6838982 2.1768868c-.3049476.2816461-.5434319 1.0207373-.3418446 1.1371234.1226745.070823.2174173.02819.3976384-.172691.016582 1.4159688.1773462 1.8700309 1.7360747 2.1853289.000001.173854.1337055.217934.2060562.216024.1807928.830169-.031704 1.165979-.3626675 1.301453-.330967.135475-.6535404.58365-.6535404.895614s-.00321.975261-.2017947 1.254823c-.1986095.279562-.4756087.340411-.5837563.585285 0 .831987 1.3093547 1.008379 2.9074919.991782 1.5981362-.0166 2.7555341-.189351 2.7555341-.991782-.108148-.244874-.385147-.305723-.583757-.585285-.198612-.279562-.201794-.942859-.201794-1.254823s-.3225737-.760139-.6535407-.895614c-.330967-.135474-.5434603-.471284-.3626675-1.301453.072355.0019.2060552-.04217.2060561-.216024 1.5587281-.315298 1.7194971-.7693601 1.7360751-2.1853289.180221.2008825.274964.2435175.397638.172691.201588-.1163861-.0369-.8554773-.341844-1.1371234.288442-1.4357309 1.683898-2.1768868 1.683898-2.1768868s-1.185031-.4273349-4.6117681-.4273349c-3.4267368 0-4.8113859.4273349-4.8113859.4273349z"/><path d="m8.5859375 0c-.1865128.14642685-.4439989.1410591-.6367187 1.0957031 0 0 .0115898-.26231148-.09375-.39648435.0058999.2951847-.1796875.54296875-.1796876.54296875-.0826899-.0780799-.0843993-.1931191-.0371093-.296875l-.15625.1914063c-.07215-.25222278.0374875-.53209333.0859375-.81250005-.2293268.18064682-.3181549.3315485-.3574219.81250005 0 0-.0290616.0364938-.1484375-.24804692-.0337.07086992-.1615571.27819882-.0507812.44726562.1068058.1630148-.0302832.4010857-.0957032.5253906-.0385099.07317-.0581918-.1158448-.0136718-.2753906 0 0-.271091.1850404-.1875.546875.0491499.2127488.0114005.5399335-.0371094.6933594 0 0-.1093847-.078428-.1660156-.3085938-.07591.3790976.1982269.834342.0644531 1.0585938-.1124609.1885208-.0644531-.1328125-.0644531-.1328125s-.1025245.1196495-.25.6074218c.5464896-.0296129 1.1443934-.0507812 1.8378906-.0507812.7236485 0 1.3323918.0208306 1.8769531.0507812.1308125-.1114928.2539065-.3093698.2539065-.6699218-.218934.1433258-.3651587-.0138108-.228516-.2578125.200138-.3573907.271207-.4361303.082031-.8574219-.1730775.5848094-.5407805.7872816-.8378902 1.1289062 0 0 .409568-.4347705.3457031-.7539062-.1436149.2448728-.3515625.2910156-.3515625.2910156s.6026564-.3133141.4160156-.9296875c-.1135199.3896356-.1931405.3657274-.3183594.4882813 0-.6611674.3062035-.4118523.3046875-1.0566406-.2769967.3045786-.3161295.1679546-.1972656.0585937.1376069-.1266009.1267292-.3651852.1132813-.4550781-.4711906.6283603-1.1407562.1183803-.0195313-.54687502-.3969436-.03996997-.8096889.14775137-.8574219.62304682l-.0703125-.17968745c-.0980699.11827585-.128512.20712485-.1875.30859375-.1722068-.55598042.0851455-.8424239.1621094-1.2421875zm-2.859375 1.6210938s.2012818 1.0389136-.1542969 1.5800781c-.0260399.0396299-.1642113.2346657-.0683594-.1230469-.0579589.1003911-.4766994.5741589-.2792968 1.046875.2821112-.0262288.592785-.048811.9316406-.0683594.0947754-.2808966.2483087-.5487774.1113281-.8671875-.0881199.2325918-.2888464.3658688-.4414062.5410157.2235278-.7256493.4411132-.5173713.3183593-1.1660157-.0448699.1507889-.1048368.2787865-.1992187.3496094.1044069-.8473052-.0005132-.9149711-.21875-1.2929687zm4.8964845 1.3027343s-.320556.291256-.261719.4960938c.045428.158146.154467.4494359.044922.6542969.165814.0117483.308959.0255125.457031.0390624.073458-.1324247.136359-.3708724.148438-.6035156-.09358.1668019-.146085.233104-.3125.3417969 0 0 .197927-.2356475.222656-.3808594.02473-.1452108-.175781-.3867187-.175781-.3867187s-.017705.1138097.046875.2890625c.06458.1752518-.227791.1736892-.283203.0058593-.05541-.1678218.113281-.4550781.113281-.4550781z"/></g></svg>