<svg height="16" width="16" xmlns="http://www.w3.org/2000/svg"><g fill="#bebebe" transform="translate(-482.00018 -461.99942)"><rect height="16" rx="2.933709" ry="2.986" width="6" x="482.00018" y="461.99942"/><path d="m487.40645 461.99942c.87799.71298 1.46875 1.79213 1.46875 3v1h2.125c-.0742-1.09265 1.2487-2 2-2 .68073 0 1 .0117 1 1v1h1.21875c1.22869-.60001 1.78125-1.96908 1.78125-2.6875 0-.73589-2.38538-1.3125-3.6875-1.3125z"/><path d="m489.0002 467v4.3125c2.76625 2.66159 6.12501 2.40625 6.12501 2.40625s.35286-1.5209-1.90624-4.03125l-2.37501-2.6875h-.625-1.15625c-.0213.002-.0412-.002-.0625 0zm2.97505 2.53185 1.68345 1.73676c-1.799.16548-2.15075-.85626-1.68345-1.73676z"/></g></svg>