<svg height="16" width="16" xmlns="http://www.w3.org/2000/svg"><g fill="#bebebe" transform="matrix(.04288613 0 0 .04288613 1.502751 -.031736)"><path d="m114.877 309.764c18.046-10.995 38.956-15.966 70.434-36.418 26.38-17.141 48.25-29.316 75.218-78.287 41.117-74.668-23.026-123.665-23.026-123.665s67.425 23.7 65.455 90.145-31.994 95.986-46.376 111.807c-15.2 16.719-24.046 45.267-22.37 46.384l-40.131-33.082c-26.402 15.391-53.042 24.996-79.204 40.864 0 0 6.925 15.211-7.713 20.605-9.158 3.375-13.96 1.322-16.434-3.88-2.828-5.943-.89-19.22 24.147-34.473z"/><path d="m188.123 309.764c-18.046-10.995-38.956-15.966-70.434-36.418-26.381-17.141-48.251-29.316-75.218-78.287-41.117-74.668 23.026-123.665 23.026-123.665s-67.425 23.7-65.455 90.145 31.994 95.986 46.376 111.807c15.2 16.719 24.046 45.267 22.37 46.384l40.131-33.082c26.402 15.391 53.042 24.996 79.204 40.864 0 0-6.925 15.211 7.713 20.605 9.158 3.375 13.959 1.322 16.434-3.88 2.828-5.943.889-19.22-24.147-34.473z"/><path d="m151.5 44.183c-52.403 0-94.948 42.544-94.948 94.948 0 52.403 42.545 94.948 94.948 94.948s94.948-42.545 94.948-94.948c0-52.404-42.545-94.948-94.948-94.948zm0 18.178c42.37 0 76.77 34.399 76.77 76.77 0 42.37-34.4 76.77-76.77 76.77s-76.77-34.4-76.77-76.77c0-42.371 34.4-76.77 76.77-76.77z"/><path d="m139.943 260.95c-10.099-7.418-22.722-13.943-36.098-20.462 36.481-62.959 34.407-129.809 1.226-198.015 18.653-10.856 34.115-24.755 46.352-41.733l.287.398c12.191 16.797 27.559 30.564 46.065 41.336-33.181 68.206-35.255 135.056 1.226 198.015-13.376 6.52-26 13.043-36.098 20.462v78.12c5.162 3.456 8.54 9.179 8.54 15.648 0 10.543-8.971 19.102-20.02 19.102s-20.02-8.56-20.02-19.102c0-6.47 3.378-12.192 8.54-15.648v-78.12z"/></g></svg>