<svg height="16.000008" width="16.000002" xmlns="http://www.w3.org/2000/svg"><g fill="#bebebe"><path d="m7.8925781.49804688c-2.10985.0296-4.9461975.80278002-4.8984375 3.28125002.0499 2.58608 2.9172607 1.6597668 3.1503906 2.7167969.0353001-.045.0885301-.080167.125-.1230469.1974401-.2135.39625-.38779.59375-.59375.31248-.35256.6360669-.67917.9667969-1.03125 1.10674-1.17814 1.1530319-1.25034 3.7949219-3.25-1.03459-.62096008-2.257855-.96583003-3.296875-1.00000002-.1332-.00500001-.2948869-.00200001-.4355469 0zm-1.9042969 1.53125002c.8269201 0 1.4980469.67171 1.4980469 1.5s-.6711267 1.5-1.4980469 1.5c-.8269298 0-1.4960937-.67171-1.4960937-1.5s.6691637-1.5 1.4960937-1.5z"/><path d="m13.257812 2.6914062c-1.418279 2.2333702-2.36637 3.5543974-3.3691401 4.5859376-.63925.65758-1.1640969 1.3118699-1.6230469 1.78125-.83899.8902299-1.9376106 1.9413002-3.1503906 3.0937502.0633 1.46884.8109606 2.7469 3.2441406 3.21875 3.89808.75593 8.026978-1.82544 7.611328-7.0625002-.17842-2.2479603-1.404941-4.2799074-2.712891-5.6171876zm.341797 3.8046876c.5488 0 .998047.4478097.998047 1 0 .5521798-.449247.9999998-.998047 1-.54879-.0000002-.998044-.4478202-.998047-1 .000002-.5521903.449257-1.0000002.998047-1zm-.623047 3c.548793 0 .998047.4478094.998047 1.0000002 0 .55218-.449255 1-.998047 1-.548797 0-.998046-.44782-.998046-1 0-.552191.449249-1.0000004.998046-1.0000002zm-4.9902339 2.0000002c.54879 0 .9980469.44782.9980469 1 0 .55219-.4492569 1-.9980469 1-.5488 0-.9980469-.44781-.9980469-1 0-.55218.4492469-1 .9980469-1zm2.9941409 0c.5488 0 .998047.44782.998047 1 0 .55219-.449247 1-.998047 1s-.9980471-.44781-.9980471-1c0-.55218.4492471-1 .9980471-1z"/><path d="m0 13.9945c1.55209.0006 1.39367-1.78749 2.14726-2.28535.87328-.57692 1.63857.13795 1.79136.72627.19279.74234-.11685 1.63129-1.12998 1.8846-1.07336.26836-2.66168.27633-2.80864-.32552z"/><path d="m14.03703.49809c-1.79965 1.2988-4.20634 3.30184-6.11488 5.3335-.17324.18442-.34065.36235-.50432.54703-.10346.10788-.21177.19588-.3152.30771-.0653.0767-.12585.16279-.18912.23932-1.87306 2.07016-3.71972 4.68066-4.91712 6.6327 2.97729-2.29737 4.91603-4.16475 6.1464-5.47026.2404-.24587.52929-.56636.85103-.92311 1.20361-1.33456 2.92519-3.43748 5.04321-6.66689z"/></g></svg>