<svg height="16" width="16" xmlns="http://www.w3.org/2000/svg"><g fill="#bebebe" transform="translate(-161.6115 -277)"><path d="m175.16928 280.00185-4.56769 5.15373 6.88116-.38411c-.10463-1.83466-.93748-3.5516-2.31347-4.76962z"/><path d="m169.15113 279.22344c-.16609-.005-.33227-.003-.49825.004-.0315.00053-.0629.001-.0944.002h-.007c-.12622.0112-.25211.0258-.37752.0439-.008.00073-.0161.001-.0242.002-.0932.0101-.18608.0215-.27875.0351-.10586.0194-.21124.0415-.31607.0659l-.0112.002c-.12292.0245-.24514.0523-.36655.0834-.0492.0148-.0982.0302-.14706.0461-.0212.007-.0425.013-.0636.0198-.14943.0447-.29732.0945-.44338.14926-.07.0289-.13951.0589-.20852.09-.14104.0575-.28012.1198-.41704.18657-.11595.0611-.23013.12553-.34241.19315-.0799.043-.15893.0878-.23706.13391l-.009.007c-.12264.0802-.24268.16447-.35996.25242-.0682.0471-.1355.0954-.20194.14487-.0836.0683-.16555.13856-.24584.21071-.0989.0822-.19554.16706-.28973.25461-.0333.0333-.0662.067-.0988.10092-.0214.0225-.0426.0452-.0636.068-.10451.10575-.20548.2148-.30291.32705l-.002.005c-.0539.0671-.10665.1351-.15803.20413-.2042.25714-.38979.52854-.55532.81212l-.004.009c-.0632.11103-.12314.22371-.17999.33803-.0459.0905-.0898.18196-.13169.27437-.0473.10564-.0919.21252-.1339.32045l-.002.007c-.0414.10507-.0801.21124-.11632.31827v.002c-.0365.11182-.0701.2245-.10092.33802-.0314.11126-.0599.22319-.0856.33583-.022.0998-.0417.20005-.0592.30071v.002c-.0234.12819-.0432.25701-.0592.38631-.00075.006-.001.0101-.002.0154-.0101.0935-.018.18715-.0242.28095-.00076.008-.001.0161-.002.0242-.009.11471-.0146.22961-.0175.34461v.0132c-.002.13829-.001.27665.004.41485.00078.0578.002.11562.004.1734l.002.0131c.007.0645.0137.12888.0219.19317.0139.16307.0337.3256.0592.48727.0173.0897.0363.17891.0571.26778.004.0249.0101.0498.0154.0746.0199.097.0418.19363.0658.28973.0424.15231.0899.30312.14268.45216.0229.072.0471.1438.0724.2151.0441.10946.0909.21779.14047.32485.0455.10946.0938.21783.14487.32485l.002.002c.0417.0783.0848.15595.1295.23266.0659.1228.13537.24358.20852.36216.0553.0839.11238.16662.1712.24804.006.008.0101.0146.0154.0219.0656.0969.13368.19198.20413.28535.0297.0369.0597.0734.09.10968.0964.11668.19676.23015.3007.34022.0743.0794.15037.15692.22828.23267.005.004.009.009.0131.0131.0738.0719.14915.14217.22608.21071l.007.005c.0971.0854.1967.16817.29851.24803l.004.005c.0756.0601.15242.11868.23047.17559l.009.007c.10339.0732.20881.14339.31608.21071.0859.0553.17295.10879.26119.16023.0961.055.19336.10766.29193.15803.007.003.0131.008.0198.0112.10834.0555.21811.10822.32924.15803.006.002.0101.005.0154.007.0871.0376.17487.0735.26339.10755.11732.0464.2359.0896.35558.1295.10823.0356.21724.0686.32704.0988.1025.0288.20573.0551.30949.079.12513.0284.25101.0533.37753.0746l.0112.002c.0926.0158.18557.0297.27875.0417.13277.0163.26599.0288.39948.0373.10744.008.215.0128.32266.0154.14195.003.28396.001.42582-.005 3.63198-.15304 6.52111-3.0998 6.60239-6.73409.00001-.006.00001-.0117 0-.0175.002-.13976.001-.27957-.004-.41924-.00053-.0321-.001-.0644-.002-.0965l-6.88115.3841 2.09397-6.56287c-.62872-.19995-1.28291-.3086-1.94251-.32266z"/><path d="m172.79513 277c.0308.0112.0615.0217.0922.0329-.0307-.0112-.0614-.0221-.0922-.0329zm.0922.0329c-.0314-.0101-.0628-.0192-.0944-.0285l-2.09178 6.5585 4.56768-5.15373c-.35031-.31004-.73126-.58362-1.13698-.81652h-.002c-.0393-.0224-.0788-.0443-.11853-.0659-.15631-.0866-.31592-.16721-.47849-.24146-.006-.002-.0101-.004-.0154-.007-.0481-.021-.0963-.0416-.14486-.0615h-.002c-.1586-.0674-.31967-.12897-.48289-.18437z"/></g></svg>