<svg height="16" width="16" xmlns="http://www.w3.org/2000/svg"><g fill="#bebebe" transform="translate(-441.0002 -400.99999)"><path d="m450.73695 407.28375c-.16579-.002-.33615.004-.5138.004-3.65699.0702-7.64621.3253-9.22295 3.0652 2.16187 2.11866 3.26263 2.54151 12.88791 2.64713 2.28608-.0241 1.90725-.37489 1.48669-.97094l-1.05885-1.32454c-.0496.22395-.23975.3946-.47863.39462h-.29304-1.05885-2.6569c-.2762-.00003-.50009-.22392-.50012-.50012v-1.35384c.00003-.2762.22392-.5001.50012-.50012h2.15677v-.94946c-.36843-.43372-.78458-.50677-1.24835-.51184z"/><path d="m452.8527 404.99999c-.2082 0-.37704.16693-.37704.37509v.60757 3.26056h-2.27009c-.2082 0-.37509.16693-.37509.3751v.60757c0 .20816.16689.37704.37509.37704h2.64713.60562c.0521 0 .10348-.0103.14847-.0293.0455-.0192.0849-.0476.11917-.082.0679-.0679.1094-.16161.1094-.26569v-.60757-3.26057h2.78975c.2082 0 .37509-.16692.37509-.37509v-.60757c0-.20816-.16689-.37509-.37509-.37509z"/></g></svg>