<svg height="16" width="16" xmlns="http://www.w3.org/2000/svg"><g fill="#bebebe" stroke-width="1.0001" transform="matrix(.21712151 0 0 .21712049 104.98508 35.265029)"><path d="m-447.14-153.6c-15.221.28952-27.484 12.732-27.484 28.021 0 15.471 12.559 28.029 28.029 28.029 7.2331 0 13.828-2.7474 18.802-7.2512-3.5065 2.0156-7.5741 3.1667-11.906 3.1667-13.211 0-23.928-10.718-23.928-23.928 0-13.211 10.718-23.928 23.928-23.928 4.3666 0 8.4635 1.1709 11.989 3.2163-4.983-4.5486-11.611-7.3256-18.885-7.3256-.1813 0-.36522-.003-.5457 0z"/><path d="m-409.84-125.56-24.118 7.8365 14.90654-20.516v25.359l-14.90654-20.516z"/></g></svg>