<svg height="16" width="16" xmlns="http://www.w3.org/2000/svg"><path d="m7.9999995-.00000001c-4.4183847-.000258-8.00025749 3.58189601-7.99999949 8.00062801.000435 4.418242 3.58210479 7.99963 7.99999949 7.999372 4.4178945.000258 7.9995655-3.58113 8.0000005-7.999372.000259-4.418732-3.581615-8.00088701-8.0000005-8.00062801zm-4.007442 3.60461451c0-.340646.1853308-.604136.5960101-.604136h.874908c.3844664 0 .5365243.2090816.5365243.594743v6.7102135c0 .927312.7848747 1.694301 1.6947564 1.694301h1.6671124c.4982668 0 .6380406-.221242.6380406-.629627v-7.7661275c0-.403552.1620937-.60347.5875787-.60347h.754087c.480883 0 .658101.25506.658101.63451v9.8455445c-6.0254624 1.614645-7.9865675-.387-7.9917056-2.759401z" fill="#bebebe"/></svg>