<svg height="16" width="16" xmlns="http://www.w3.org/2000/svg"><path d="m7.0002602 0v1.8603139l-1.3843034-.7992613-.7998523 1.3857804 2.1841557 1.260794v2.888569l-2.4976558-1.441921v-2.5221789h-1.6000006v1.5985229l-1.6109325-.9301572-.8001483 1.3854852 1.6268886.939316-1.41562352.817286.79985222 1.385484 2.2154768-1.279113 2.4899729 1.437488-2.5174519 1.453444-2.1841558-1.261089-.79985322 1.385485 1.38430342.799261-1.6109325.930157.7998523 1.385484 1.6265935-.939021.000302 1.634571h1.5997056v-2.558227l2.4938138-1.439852v2.915752l-2.1841557 1.26109.7998523 1.385484 1.3843034-.799261v1.860314h1.5999926v-1.878338l1.4156252.817285.799853-1.385484-2.2154782-1.279114v-2.906888l2.5210002 1.455512v2.558227l1.599999.000295v-1.63457l1.62689.939021.799851-1.385484-1.610932-.930157 1.384303-.799262-.800148-1.385484-2.184157 1.261089-2.528975-1.46024 2.501496-1.444284 2.215478 1.279113.800148-1.385484-1.415624-.817286 1.626593-.939316-.799852-1.3854852-1.611229.9301572v-1.5985229l-1.6.0003026.000302 2.5218833-2.5251352 1.457877v-2.8794093l2.2154782-1.2791136-.799854-1.3857803-1.4156242.8172853v-1.878338z" fill="#bebebe"/></svg>