<svg height="16" width="16.000259" xmlns="http://www.w3.org/2000/svg"><g fill="#bebebe"><path d="m7.75 1c-.9522 0-1.75.7978-1.75 1.75v.25h2 .25 5.75v1.5898438c.129064.0313929.257371.0644658.369141.1035156l1.4375.5019531.193359.5546875v-3c0-.9522-.7978-1.75-1.75-1.75zm-6 3c-.9522 0-1.75.7978-1.75 1.75v4.5c0 .9522.7978 1.75 1.75 1.75h.125l-.78125 1.5625-.71875 1.4375h1.625 2.9570312l-.2089843-.550781c-.123203-.324881-.2207031-.707249-.2207031-1.136719 0-1.747073 1.4348146-3.1875 3.1816406-3.1875.142528 0 .2384395.049409.3671875.068359l1.9238281-1.9257809v-2.5175781c0-.9522-.7978-1.75-1.75-1.75zm.25 2h6v4h-6zm12.845703 4.4375c-.449127.271437-.963081.4375-1.527344.4375-.144671 0-.244254-.048909-.375-.068359l-1.019531 1.019531.001953.001953-.171875.171875h3.871094z"/><path d="m15.49972 7.68766c0-.25241-.0573-.49785-.13581-.72346l-1.18888 1.19136c-.24416.24485-.63237.24485-.87655 0l-.44815-.44815c-.24416-.24484-.24416-.63416 0-.87901l1.18889-1.19135c-.22497-.0786-.46925-.13704-.72098-.13704-1.20483 0-2.1815.97951-2.1815 2.18765 0 .25242.0573.49662.13581.72222l-2.84816 2.85062c-.22367-.0778-.46609-.1358-.71604-.1358-1.20484 0-2.18149.97951-2.18149 2.18766 0 .27399.0639.53977.15556.78148l1.26666-1.26914c.24417-.24484.65212-.24484.8963 0l.4284.42963c.12209.12242.19506.28838.19506.44814 0 .15977-.073.32696-.19506.44939l-1.22716 1.23086c.20833.0662.43151.11729.66173.11729 1.20483 0 2.18148-.97951 2.18148-2.18765 0-.25242-.0573-.49663-.13581-.72222l.75927-.76173-.003-.003 2.08643-2.08765c.22497.0787.46926.13704.72099.13704 1.20484 0 2.18148-.97951 2.18148-2.18766z"/></g></svg>