<svg height="16.000031" width="16.000202" xmlns="http://www.w3.org/2000/svg"><g fill="#bebebe" transform="translate(-102.0002 -648.99997)"><g transform="matrix(1.3000026 0 0 1.3000026 -50.133799 -206.83318)"><path d="m2.2226562 6.0859375c-1.009543.3632857-2.21742395 1.2877535-2.21874995 2.9023437l-.00390625 3.0117188c-.000676.553996.40601524 1 .91015625 1h4.22656255c.3687184-1.350196 1.5988092-2.361328 3.0585937-2.361328.14227 0 .2386475.049459.3671875.068359l.5371094-.537109v-1.169922c0-1.3867128-1.002464-2.5557953-2.2246094-2.90625-.6419153.6235332-1.4000989.90625-2.3242188.90625-.9241198 0-1.6861967-.2905293-2.328125-.9140625z" transform="matrix(.76922923 0 0 .76922923 117.02592 658.33188)"/><circle cx="120.52623" cy="660.63959" r="2.307687"/></g><path d="m117.98663 657.20123c0-.25241-.0573-.49785-.13581-.72346l-1.18888 1.19136c-.24416.24485-.63237.24485-.87655 0l-.44815-.44815c-.24416-.24484-.24416-.63416 0-.87901l1.18889-1.19135c-.22497-.0786-.46925-.13704-.72098-.13704-1.20483 0-2.1815.97951-2.1815 2.18765 0 .25242.0573.49662.13581.72222l-2.84816 2.85062c-.22367-.0778-.46609-.1358-.71604-.1358-1.20484 0-2.18149.97951-2.18149 2.18766 0 .27399.0639.53977.15556.78148l1.26666-1.26914c.24417-.24484.65212-.24484.8963 0l.4284.42963c.12209.12242.19506.28838.19506.44814 0 .15977-.073.32696-.19506.44939l-1.22716 1.23086c.20833.0662.43151.11729.66173.11729 1.20483 0 2.18148-.97951 2.18148-2.18765 0-.25242-.0573-.49663-.13581-.72222l.75927-.76173-.003-.003 2.08643-2.08765c.22497.0787.46926.13704.72099.13704 1.20484 0 2.18148-.97951 2.18148-2.18766z"/></g></svg>