<svg height="16" width="16.000259" xmlns="http://www.w3.org/2000/svg"><g fill="#bebebe" transform="translate(-442.0002 -216)"><path d="m7.75 1c-.9522 0-1.75.7978-1.75 1.75v.25h2 .25 5.75v2.1074219c.068158.0193192.141651.0344848.205078.0566406.34803.12199.44878.5659019.1875.8261719l-.392578.3945312v.6152344h-.613281l-.181641.1816406c-.057.0572-.057.114675 0 .171875l.447266.4492188c.05708.0572.112822.0572.169922 0l1.1875-1.1914063c.2609-.26116.705132-.1592868.826172.1894531.069312.1992376.116577.4263167.140624.6660157.009393-.0720525.023438-.1425627.023438-.2167969v-4.5c0-.9522-.7978-1.75-1.75-1.75zm-6 3c-.9522 0-1.75.7978-1.75 1.75v4.5c0 .9522.7978 1.75 1.75 1.75h.125l-.78125 1.5625-.71875 1.4375h1.625 4.7226562l1.1972657-1.201172c.0317-.0318.0488281-.088703.0488281-.095703 0-.0075-.0159281-.062703-.0488281-.095703l-.4277344-.429688c-.04756-.0477-.1419531-.0477-.1894531 0l-1.265625 1.269532c-.25647.25785-.6936456.164388-.8222656-.175782-.1074-.28329-.1875-.607254-.1875-.958984 0-1.47761 1.2058106-2.6875 2.6816406-2.6875.20108 0 .3653356.059262.5410156.101562l1.75-1.7499995v-3.2265625c0-.9522-.7978-1.75-1.75-1.75zm.25 2h6v4h-6zm12.623047 3.9941406c-.375638.2393634-.816505.3808594-1.304688.3808594-.20297 0-.369325-.060516-.546875-.103516l-1.722656 1.728516h4.576172z" transform="translate(442.0002 216)"/><path d="m457.49992 223.68766c0-.25241-.0573-.49785-.13581-.72346l-1.18888 1.19136c-.24416.24485-.63237.24485-.87655 0l-.44815-.44815c-.24416-.24484-.24416-.63416 0-.87901l1.18889-1.19135c-.22497-.0786-.46925-.13704-.72098-.13704-1.20483 0-2.1815.97951-2.1815 2.18765 0 .25242.0573.49662.13581.72222l-2.84816 2.85062c-.22367-.0778-.46609-.1358-.71604-.1358-1.20484 0-2.18149.97951-2.18149 2.18766 0 .27399.0639.53977.15556.78148l1.26666-1.26914c.24417-.24484.65212-.24484.8963 0l.4284.42963c.12209.12242.19506.28838.19506.44814 0 .15977-.073.32696-.19506.44939l-1.22716 1.23086c.20833.0662.43151.11729.66173.11729 1.20483 0 2.18148-.97951 2.18148-2.18765 0-.25242-.0573-.49663-.13581-.72222l.75927-.76173-.003-.003 2.08643-2.08765c.22497.0787.46926.13704.72099.13704 1.20484 0 2.18148-.97951 2.18148-2.18766z"/></g></svg>