<svg height="16" width="16" xmlns="http://www.w3.org/2000/svg"><g fill="#bebebe" transform="translate(-441.0002 -400.99999)"><path d="m3.1914062 2.34375c-.8309998 0-1.3717098.67896-1.5 1.5l-1.33789058 8.556641c-.12829998.82104.66899998 1.5 1.49999998 1.5h12.5351564c.831 0 1.65191-.683 1.5-1.5l-1.591797-8.556641c-.15191-.817-.669-1.5-1.5-1.5zm.2792969 1.9628906h2.6738281c.2763801 0 .5393144.1265506.7089844.3066406.16966.18008.2603688.4023294.2929688.6308594l.2226562 1.546875c.0448.31382-.0923062.6083156-.2851562.7910156-.19284.18271-.44237.2871094-.71875.2871094h-.7285156l-.3125 2.5625004c-.0342.27947-.2262525.507812-.5078126.507812h-.7519531c-.28157 0-.5419725-.228332-.5078125-.507812l.3125-2.5625004h-.6191406c-.27638 0-.52635-.1039094-.71875-.2871094-.1924-.1831998-.3279031-.4783256-.2832031-.7910156l.2207031-1.546875c.0326-.22855.1232987-.4507793.2929688-.6308594.1696698-.1800899.4326143-.3066406.7089843-.3066406zm7.1796879 0h.751953c.28156 0 .473612.2283425.507812.5078125l.3125 2.5625h.728516c.27639 0 .52591.1044094.71875.2871094.19285.18271.329956.4771956.285156.7910156l-.222656 1.5468749c-.0326.22853-.123309.45078-.292969.630859-.16967.180091-.432604.306641-.708984.306641h-2.673828c-.2763704 0-.5393148-.12655-.7089848-.306641-.16967-.18008-.2603687-.402309-.2929687-.630859l-.2207031-1.5468749c-.0447-.31269.0908031-.6078056.2832031-.7910156.1924-.1832.44237-.2871094.71875-.2871094h.6191405l-.3125-2.5625c-.03416-.27948.226243-.5078125.507813-.5078125z" transform="translate(441.0002 400.99999)"/><path d="m444.72551 406.04931c-.22814 0-.37922.18562-.41147.41148l-.17883 1.25341c-.0323.22585.18333.41147.41147.41147h2.52424c.22815 0 .44531-.18562.41306-.41147l-.18042-1.25341c-.0322-.22586-.18333-.41148-.41147-.41148z"/><path d="m451.31131 411.19599c-.22814 0-.37922-.18562-.41147-.41148l-.17883-1.25341c-.0323-.22585.18333-.41147.41147-.41147h2.52424c.22815 0 .44531.18562.41306.41147l-.18042 1.25341c-.0322.22586-.18333.41148-.41147.41148z"/></g></svg>