<svg height="16" width="16.000004" xmlns="http://www.w3.org/2000/svg"><g fill="#bebebe" transform="translate(-462.0002 -462)"><path d="m463.96895 462c-1.0912 0-1.96875.87755-1.96875 1.96875v12.0625c0 1.0912.87755 1.96875 1.96875 1.96875h12.03125c.554 0 1-.446 1-1v-11c0-.554-.446-1-1-1h-12c-.554 0-1-.446-1-1s.446-1 1-1h12c0-.55856-.44144-1-1-1zm6.03125 4.0625c2.72669 0 4.9375 2.20786 4.9375 4.9375s-2.21081 4.9375-4.9375 4.9375-4.9375-2.20786-4.9375-4.9375 2.21081-4.9375 4.9375-4.9375zm0 1c-.63685 0-1.21995.17421-1.75.4375l.71875 1.5c.31325-.1625.65582-.28125 1.03125-.28125s.718.11875 1.03125.28125l.71875-1.5c-.53005-.26329-1.11315-.4375-1.75-.4375zm-3.5 2.1875c-.26373.53017-.4375 1.11182-.4375 1.75 0 .64816.16599 1.24503.4375 1.78125l1.5-.75c-.16256-.31326-.28125-.65563-.28125-1.03125 0-.36123.0989-.69568.25-1zm7.03125 0-1.5.75c.1511.30432.25.63877.25 1 0 .37562-.11869.71799-.28125 1.03125l1.5.75c.27151-.53622.4375-1.13309.4375-1.78125 0-.6332-.14638-1.22289-.40625-1.75zm-3.53125.46875c-.71682 0-1.28125.56221-1.28125 1.28125s.56443 1.28125 1.28125 1.28125 1.28125-.56221 1.28125-1.28125-.56443-1.28125-1.28125-1.28125zm1.03125 3.28125c-.31325.1625-.65582.28125-1.03125.28125-.36105 0-.6957-.099-1-.25l-.75 1.5c.52698.25944 1.11813.40625 1.75.40625.63685 0 1.21995-.17421 1.75-.4375z"/><path d="m470.00019 467.03125c-.64211 0-1.24505.13662-1.78125.40625l.74229 1.53246c.39027-.17861.54899-.21178 1.0422-.24611.54638-.002.71942.13487 1.02655.23344l.72021-1.51979c-.53621-.26958-1.10789-.40625-1.75-.40625zm-3.5625 2.21875c-.26553.53901-.4375 1.13563-.4375 1.78125 0 .65895.19284 1.26532.46875 1.8125l1.52678-.77591c-.15799-.27948-.23673-.49585-.27949-1.05679.0432-.4966.0616-.47071.23058-.98785zm7.125 0-1.49679.74459c.15043.37094.19879.4814.22336 1.00931-.006.22936.0148.52961-.26718 1.08514l1.50931.75466c.27592-.54718.4375-1.15355.4375-1.8125 0-.64562-.14071-1.24223-.40625-1.78125zm-3.53488 4.03948c-.47463-.0401-.61731-.0296-1.01202-.23332l-.79685 1.56879c.5362.26963 1.13914.4375 1.78125.4375s1.21381-.16787 1.75-.4375l-.74598-1.56656c-.39575.19501-.43347.17321-.9764.23109z"/><path d="m231.125 273.96875a3.5 3.90625 0 1 1 -7 0 3.5 3.90625 0 1 1 7 0z" transform="matrix(.36662946 0 0 .3275 386.55368 381.28364)"/></g></svg>