<svg height="16.000031" width="16.000202" xmlns="http://www.w3.org/2000/svg"><g fill="#bebebe" transform="translate(17.479198 7.046978)"><path d="m-7.1543757 1.0473164c-.641924.6235323-1.4006565.9062565-2.324772.9062565-.9241153 0-1.6863963-.2905372-2.3283193-.9140695-1.009539.3632852-2.216792 1.2877547-2.218129 2.9023425l-.0035 3.0117117c-.000669.5539953.405846 1.0000125.909986 1.0000125h7.2800118c.5041413 0 .9100015-.4460172.9100015-1.0000125v-2.9999987c0-1.3867107-1.0031033-2.5557883-2.2252352-2.9062425z" stroke-width="1.3"/><path d="m-6.4791211-2.0464351a2.999985 2.9999947 0 1 1 -5.9999699 0 2.999985 2.9999947 0 1 1 5.9999699 0z" stroke-width="1.2"/></g></svg>