<svg height="16" width="16" xmlns="http://www.w3.org/2000/svg"><path d="m50.03125 398c-.542165 0-1 .32904-1 .9375v14.125c0 .58636.376673.9375 1 .9375h13.03125c.520068 0 .9375-.35114.9375-.9375v-14.125c0-.54217-.395335-.9375-.9375-.9375zm.96875 2.03125h11.03125v2.96875h-11.03125zm.1875 3.96875h1.625c.1108 0 .1875.0767.1875.1875v1.625c0 .1108-.0767.1875-.1875.1875h-1.625c-.1108 0-.1875-.0767-.1875-.1875v-1.625c0-.1108.0767-.1875.1875-.1875zm3 0h1.625c.1108 0 .1875.0767.1875.1875v1.625c0 .1108-.0767.1875-.1875.1875h-1.625c-.1108 0-.1875-.0767-.1875-.1875v-1.625c0-.1108.0767-.1875.1875-.1875zm3 0h1.625c.1108 0 .1875.0767.1875.1875v1.625c0 .1108-.0767.1875-.1875.1875h-1.625c-.1108 0-.1875-.0767-.1875-.1875v-1.625c0-.1108.0767-.1875.1875-.1875zm3 0h1.625c.1108 0 .1875.0767.1875.1875v1.625c0 .1108-.0767.1875-.1875.1875h-1.625c-.1108 0-.1875-.0767-.1875-.1875v-1.625c0-.1108.0767-.1875.1875-.1875zm-9 3h1.625c.1108 0 .1875.0767.1875.1875v1.625c0 .1108-.0767.1875-.1875.1875h-1.625c-.1108 0-.1875-.0767-.1875-.1875v-1.625c0-.1108.0767-.1875.1875-.1875zm3 0h1.625c.1108 0 .1875.0767.1875.1875v1.625c0 .1108-.0767.1875-.1875.1875h-1.625c-.1108 0-.1875-.0767-.1875-.1875v-1.625c0-.1108.0767-.1875.1875-.1875zm3 0h1.625c.1108 0 .1875.0767.1875.1875v1.625c0 .1108-.0767.1875-.1875.1875h-1.625c-.1108 0-.1875-.0767-.1875-.1875v-1.625c0-.1108.0767-.1875.1875-.1875zm3 0h1.625c.1108 0 .1875.0767.1875.1875v1.625c0 .1108-.0767.1875-.1875.1875h-1.625c-.1108 0-.1875-.0767-.1875-.1875v-1.625c0-.1108.0767-.1875.1875-.1875zm-9 3h1.625c.1108 0 .1875.0767.1875.1875v1.625c0 .1108-.0767.1875-.1875.1875h-1.625c-.1108 0-.1875-.0767-.1875-.1875v-1.625c0-.1108.0767-.1875.1875-.1875zm3 0h1.625c.1108 0 .1875.0767.1875.1875v1.625c0 .1108-.0767.1875-.1875.1875h-1.625c-.1108 0-.1875-.0767-.1875-.1875v-1.625c0-.1108.0767-.1875.1875-.1875zm3 0h1.625c.1108 0 .1875.0767.1875.1875v1.625c0 .1108-.0767.1875-.1875.1875h-1.625c-.1108 0-.1875-.0767-.1875-.1875v-1.625c0-.1108.0767-.1875.1875-.1875zm3 0h1.625c.1108 0 .1875.0767.1875.1875v1.625c0 .1108-.0767.1875-.1875.1875h-1.625c-.1108 0-.1875-.0767-.1875-.1875v-1.625c0-.1108.0767-.1875.1875-.1875z" fill="#bebebe" transform="translate(-48 -398)"/></svg>