<svg height="16" width="16" xmlns="http://www.w3.org/2000/svg"><g fill="#bebebe" transform="translate(-283.02908 -629.02581)"><path d="m288.03089 639.02581 6.99819-7c1 0 2 1 2 2l-7 7h-2z" fill-rule="evenodd"/><path d="m296.02908 631.02581c1 0 2 1 2 2l1-1c0-1-.75185-2-2-2z"/><path d="m284.12283 629.02581c-.56869.00005-1.0937.50285-1.09375 1.0625v12.84375.25.78125c.00005.55965.52506 1.06245 1.09375 1.0625h4.34375 1.125 5.34375c.55754-.00005 1.07398-.48468 1.09375-1.03125.00039-.0109 0-.0204 0-.0312v-6.93755l-2 2v4h-9v-12h5l2 2 1.53125-1.53125-2.1875-2.125c-.20046-.20837-.48969-.3416-.78125-.34375z"/></g></svg>