<svg height="16" width="16" xmlns="http://www.w3.org/2000/svg"><path d="m54.135441 10.855112-41.05903 42.04245c-15.546623 15.541759 10.065442 14.246612 19.333621 20.124585 4.285287 2.789547-13.752782 6.376107-10.065442 10.062293 3.587682 3.686186 21.625751 7.073493 25.213434 10.660053 3.587682 3.686186-7.275023 7.571627-3.68734 11.257817 3.488024 3.68618 11.859283.19925 13.35415 8.56789 1.096236 6.17685 15.347308 3.08842 21.725409-2.19179 3.986314-3.38731-6.876391-3.38731-3.288708-7.07349 8.969205-9.066027 16.941832-4.08469 20.230541-12.453334 1.793841-4.4832-13.553466-7.671253-9.467495-10.560426 9.766469-6.874239 45.643289-10.361173 29.100089-26.899198l-42.553897-43.53685c-5.281866-4.9813335-13.952098-4.9813335-18.835332 0zm47.138159 80.996474c0 2.09216 16.24423 3.28768 15.34731-.498133-1.29556-6.376106-13.55347-5.877973-15.34731.498133zm-69.262199 11.058564c3.68734 3.18805 9.268179-.69739 11.06202-5.180591-3.587682-4.682453-16.842175.29888-11.06202 5.180591zm67.269042-6.674991c-4.584261 4.184321.797267 8.567891 5.281867 5.678721 1.19589-.79701-.0997-4.682454-5.281867-5.678721z" fill="none" stroke-width=".996422"/><path d="m4.4985459 11.228489c-.83736-1.9929454-1.019982-3.7676454-1.307993-5.5774754 1.561675 1.610372 2.549621 2.974859 3.694915 4.4067794.228433-3.6451254.671406-5.8957494 1.152542-7.8983044 1.585654 3.086847 1.861367 5.091568 2.0000001 6.983051 2.466221-2.624441 4.197042-2.821853 5.288138-2.881356-1.084746 1.278935-2.169491 2.185723-3.254237 4.8995094 1.311545-.585567 2.545284-.859905 3.79661-1.2045946-1.335153 1.9854286-2.833911 2.9480136-4.539964 3.8825606-1.9071541.09664-3.6472381.293523-6.1578611.02808-3.215016-1.866317-3.722507-2.808058-4.90943786-3.9585806 1.36409886.3756686 2.69042486.7009736 4.23728786 1.3203306z" fill="#bebebe" fill-rule="evenodd"/></svg>