<svg height="16" width="16" xmlns="http://www.w3.org/2000/svg"><path d="m8 0c-3.53464 0-6.4 2.0754864-6.4 6.1914064 0 4.1159236 3.398436 9.8085936 6.4 9.8085936 2.825684 0 6.4-5.69267 6.4-9.8085936 0-4.11592-2.865356-6.1914064-6.4-6.1914064zm3.939062 8.0023436c.264697-.00925.530442.012976.790626.067969.21994 1.040724-.07459 2.1683344-.882813 2.9765624-.808224.808224-1.935835 1.102781-2.976563.882813-.219968-1.040756.07458-2.168367.882813-2.976563.606171-.6061708 1.391849-.923022 2.185937-.9507814zm-7.878124.055469c.794088.02738 1.579769.33975 2.185937.9375.808227.797 1.102777 1.9088884.882813 2.9351564-1.040728.216888-2.168335-.07331-2.976563-.870313-.8082278-.797028-1.1027526-1.908884-.8828126-2.935156.260182-.054222.5259296-.0763136.7906256-.0671874z" fill="#bebebe" stroke-width=".4"/></svg>