<svg height="16" width="16" xmlns="http://www.w3.org/2000/svg"><path d="m8 0a7.579 7.579 0 0 0 -7.578125 7.578125 7.579 7.579 0 0 0 2.0800781 5.203125l2.6757813-4.6367188c-.1706607-.1833098-.2825446-.4145273-.2832032-.6679687v-2.0625c.0000001-.7791637.5647749-1.3244931 1.2636719-1.5664063v-.4726562-.0058594c.000055-.5522619.447738-.9999448 1-1h1.6835938c.552262.0000552.999945.4477381 1 1v.0058594.4785156c.6919701.2469966 1.2513251.792067 1.2636721 1.5507813.000051.005859.000051.0117181 0 .0175781v2.0546875c-.000668.2533033-.110336.4864411-.28125.6699219l.226562.3945312c.378658-.4020556.579489-.6347478.580078-1.8046875a1.0001 1.0001 0 0 1 1.011719-1c.367437.0040322.826596-.0004337 1.273438.0039063a1.0001 1.0001 0 0 1 .990234 1c0 1.8071026-.745122 3.4828996-1.955078 4.6601566-.054668.053495-.114112.084845-.169922.134765l.720703 1.25a7.579 7.579 0 0 0 2.076172-5.207031 7.579 7.579 0 0 0 -7.578125-7.578125zm-1.7070312 12.738281-1.0859376 1.882813a7.579 7.579 0 0 0 2.7929688.537109 7.579 7.579 0 0 0 2.792969-.539062l-.964844-1.669922c-.524616.113974-1.0485035.261719-1.5703125.261719-.705168-.000001-1.3274327-.261407-1.9648437-.472657z" fill="#bebebe" fill-rule="evenodd"/><path d="m54.135441 10.855112-41.05903 42.04245c-15.546623 15.541759 10.065442 14.246612 19.333621 20.124585 4.285287 2.789547-13.752782 6.376107-10.065442 10.062293 3.587682 3.686186 21.625751 7.073493 25.213434 10.660053 3.587682 3.686186-7.275023 7.571627-3.68734 11.257817 3.488024 3.68618 11.859283.19925 13.35415 8.56789 1.096236 6.17685 15.347308 3.08842 21.725409-2.19179 3.986314-3.38731-6.876391-3.38731-3.288708-7.07349 8.969205-9.066027 16.941832-4.08469 20.230541-12.453334 1.793841-4.4832-13.553466-7.671253-9.467495-10.560426 9.766469-6.874239 45.643289-10.361173 29.100089-26.899198l-42.553897-43.53685c-5.281866-4.9813335-13.952098-4.9813335-18.835332 0zm47.138159 80.996474c0 2.09216 16.24423 3.28768 15.34731-.498133-1.29556-6.376106-13.55347-5.877973-15.34731.498133zm-69.262199 11.058564c3.68734 3.18805 9.268179-.69739 11.06202-5.180591-3.587682-4.682453-16.842175.29888-11.06202 5.180591zm67.269042-6.674991c-4.584261 4.184321.797267 8.567891 5.281867 5.678721 1.19589-.79701-.0997-4.682454-5.281867-5.678721z" fill="none" stroke-width=".996422"/><g fill="#bebebe"><path d="m7.1582031 3.3691406v.0058594 1.2558594h-.4765625c-.431324 0-.7871094.3568047-.7871094.7832031v2.0625h.0078126c-.0069.067705.0340308.140558.1230468.2285156l.3710938.328125-3.7851563 6.5566409-.0859375 1.410156 1.1796875-.777344 2.0800781-3.605468c.7418424.380498 1.5813896.59375 2.4726563.59375.960061 0 2.0756605-.238831 2.8574215-.677735.418315-.233136.802648-.520432 1.138672-.849609 1.01492-.9874916 1.652344-2.4141441 1.652344-3.9433596-.433034-.00421-.891396.0003037-1.275391-.0039063-.000848 1.6840948-.501516 2.0862553-1.111328 2.7988281-.315447.3634513-.686159.6711608-1.111328.9042968-.5760379.322314-1.45187.5-2.158203.5-.6579479 0-1.2761553-.164426-1.8183594-.441406l.9296875-1.6113282.2441407.2148437c.1095439.1082943.2536978.1621094.390625.1621094v-.0078125l.0078124.0078125c.1437741 0 .2879281-.0538149.390625-.1621094l.2421876-.2148437.5390624.9335937c.3017689-.0693133.5790033-.161511.7441407-.2539063a1.0001 1.0001 0 0 1 .0078125-.0039062c.1423806-.0780723.2745756-.1721542.4023436-.2734375l-.7265624-1.2558594.3710938-.328125c.0890096-.087958.1230466-.1675895.1230466-.2285156h.007813v-2.0546875c-.007-.4331352-.3567541-.7910156-.7949221-.7910156h-.46875v-1.2558594-.0058594h-.8457031zm.8398438 2.1054688.0039062.0097656c.4608293.00547.8398438.3761659.8398438.8378906 0 .4616825-.3790145.8305059-.8398438.8359375h-.0039062c-.4608293 0-.8398438-.374255-.8398438-.8359375 0-.4617247.3790145-.8378906.8398438-.8378906z"/><path d="m11.986328 12.158203c-.126631.08314-.247942.17385-.380859.248047l-.0039.002c-.234068.131158-.482398.240634-.736328.337891l1.429681 2.476515 1.177734.777344-.083984-1.410156z"/></g></svg>