<svg height="16" width="16" xmlns="http://www.w3.org/2000/svg"><path d="m8 0c-4.432 0-8 3.568-8 8s3.568 8 8 8 8-3.568 8-8-3.568-8-8-8zm1.5566406 1.712891c-.147152.145348-.25 1-.25 1 .146812-.2635.5996094-.59961.5996094-.59961-.4.8 0 2 0 2 .762672.760984 1.833984 3.332031 1.833984 3.332031l.324219.46875c.410804.585756.258663 1.307199-.148437 1.525391-1.525341.821064-1.671875-.472656-1.671875-.472656-1.2620246-.14636-2.337891-1.654297-2.337891-1.654297-1.7004355.877464-.4183487 3.457567.3164062 4.408203.8535691 1.101986.3893385 2.871476.2890626 3.214844-.087066.0031-.1718957.01172-.2597657.01172-2.9113275 0-5.3885375-1.695603-6.5273437-4.158204-.5811348-1.716906.1816406-3.476563.1816406-3.476563-.2218729.092651-.7441411.366011-.7988281.400391.0546875-1.234375 3.1992187-3.199219 3.1992187-3.199219h-1.1992187c2.377248-2.280252 5.0820312-1.425781 5.0820312-1.425781.087548-.497812 1.3671875-1.375 1.3671875-1.375z" fill="#bebebe" stroke-opacity=".550265" stroke-width="1.12"/></svg>