<svg height="16.000002" width="16" xmlns="http://www.w3.org/2000/svg"><g fill="#bebebe"><path d="m2 0c-1.19992 0-2 .7984-2 2v9.875c0 1.2016.80008 2.125 2 2.125v-5-6.75c0-.1238.0566-.25.1875-.25h11.625c.1309 0 .1875.1262.1875.25v4.75c.618202 0 1.055409.2884954 1.388672.625s.611328.7626585.611328 1.375v-7c0-1.2016-.80008-2-2-2z"/><path d="m7.25 6c-.47139 0-.74314.54175-.75 1v1h-2.5c-.46865.0651-1 .5417-1 1v6c0 .4583.52685 1 1 1h10c.47315 0 1-.5417 1-1v-6c0-.4583-.52685-1-1-1h-2.5v-1c0-.4583-.34111-1-.8125-1zm1.75 3c1.65685 0 3 1.34315 3 3s-1.34315 3-3 3-3-1.34315-3-3 1.34315-3 3-3z"/><path d="m11.000002 12.000003a2.0000004 1.9999999 0 1 1 -4.0000007 0 2.0000003 1.9999999 0 1 1 4.0000007 0z" stroke-width="1.758421"/></g></svg>