<svg height="16.000002" width="16" xmlns="http://www.w3.org/2000/svg"><g fill="#bebebe" transform="translate(-162.0002 -530)"><path d="m176.0002 530c1.19992 0 2 .7984 2 2v4h-2v-3.75c0-.1238-.0566-.25-.1875-.25h-11.625c-.1309 0-.1875.1262-.1875.25v11.75c-1.19992 0-2-.9234-2-2.125v-9.875c0-1.2016.80008-2 2-2z"/><path d="m169.2502 536c-.47139 0-.74314.54175-.75 1v1h-2.5c-.46865.0651-1 .5417-1 1v6c0 .4583.52685 1 1 1h10c.47315 0 1-.5417 1-1v-6c0-.4583-.52685-1-1-1h-2.5v-1c0-.4583-.34111-1-.8125-1zm1.75 3c1.65685 0 3 1.34315 3 3s-1.34315 3-3 3-3-1.34315-3-3 1.34315-3 3-3z"/><path d="m-3.7537768 10.335032a.96899819 1.335031 0 1 1 -1.9379964 0 .96899819 1.335031 0 1 1 1.9379964 0z" transform="matrix(2.0639875 0 0 1.4980924 180.74795 526.51717)"/></g></svg>