<svg height="16" width="16" xmlns="http://www.w3.org/2000/svg"><path d="m10.112208 31.999879c-1.005679.01463-.193801 2.391097-.647031 3.360161-.483446 1.033668-.923192.754437-1.06558.457482-.142389-.296956.175747-3.027602-1.2079983-2.488231-1.0196572.397454.5840485 2.095928.4656785 2.688539-.3617658 1.81116-2.6040902 1.082957-2.9836221.577872-.379532-.505086-3.1126743-4.445662-4.45852738-2.409336-1.34585262 2.036325 4.06676448 3.036308 3.97543048 3.12809-.091332.09178 1.3433437.69592 1.1854573.942115-.1578852.246195-.3272081.818423-1.1121987 1.059432-.7849903.241008-2.1080781-1.095911-2.4329019.310965-.3248237 1.406876 1.9098941.304037 2.4754228.213628.5655269-.09041.5391627.16542.6741837.387297.097956.160963.025616.429572.025616.565065 0 .135492-.064798.926509-.3693669 1.000517-1.4997893.364438-3.87619778.722774-3.0025771 2.186487.8736209 1.463712 2.845867-1.721945 3.6270682-1.939559s1.1433374.19636 1.3883268.355022c.2449901.158662.5617383.427651.3601453 1.498983-.2015924 1.071332-2.536819 4.185623-.6495934 4.104018 1.8872257-.08161 1.1599578-3.4785 1.4964217-3.816619.3364629-.338118 1.145353-.728909 1.809948-.545597.158446.0437.287719.193487.39908.388834.231471.431271.338339 1.071928.506663 1.238224.097.215368.194605.343787.313013.244878.321194-.268303.0618-.780304-.218239-1.251543-.06435-.11298-.131494-.224748-.195698-.330432-.04737-.07797-.0888-.150491-.126025-.220289-.000262-.000524-.000248-.001-.000525-.0015-.09357-.181352-.139753-.326517-.07889-.404715.244125-.313677.418191-.81079.904205-.960559 1.707097-.526054 3.715637 3.70436 4.660373 1.951855s-2.942708-2.242474-3.132189-2.837105c-.18948-.594631-.51803-.771741-.360145-1.017936s.275221.143446.611684-.194673c.336463-.338117 2.691729 1.690589 3.028192.338116.336464-1.352472-3.298686-.877604-3.298686-1.150108 0-.272502.522686-.640678.467216-.92982-.08218-.428387-.451662-.612749-.169059-.718754.282604-.106006 2.710922.730411 2.63526-.273567-.08197-1.087679-1.651714-.135223-2.537923-.0999-.425678.01697-.508995-.526383-.503589-.596315.0307-.396743.424958-.354681.371416-.653692-.06833-.381613-.585319-.114486-.518957-.427768.1663-.785087 2.123481-1.224411 1.326851-2.005646s-1.350038 1.139134-1.906772 1.819169c-.395655.483279-.849265.722837-1.30431.582995-.322865-.09921-.590502-.03546-.536364-.863211.05414-.82775 1.681408-2.894993.335555-3.233111-.08412-.02113-.15939-.03069-.226436-.02971zm1.239249 14.198844a.96233151.53295376 65.075688 0 0 -.103997.02715.96233151.53295376 65.075688 0 0 -.07787 1.097342.96233151.53295376 65.075688 0 0 .889349.648057.96233151.53295376 65.075688 0 0 .07736-1.097342.96233151.53295376 65.075688 0 0 -.78484-.675209z" fill="#bebebe" transform="translate(0 -32)"/></svg>