<svg height="16" width="16" xmlns="http://www.w3.org/2000/svg"><path d="m.21622188 14.371379 7.61411522-13.974379 8.1652229 15.114373s.04709.116673-.16546.05643c-.199824-.05685-.370799-.224435-.577836-.206616-.174369.01485-.278312.267286-.450984.239709-.246916-.03946-.373344-.509965-.623231-.502751-.220189.0064-.165884.428505-.494682.45481-.291464.02461-.243947-.775129-.537532-.799736-.198976-.01655-.243523.823918-.490439.823494-.261342 0 .01061-1.20915-.366133-1.229091-.294858-.0157-.132792 1.061083-.397527 1.062355-.365284.0017-.05515-1.763661-.505713-1.756024-.320313.0051.02418 1.633837-.392861 1.628746-.383951-.0047-.014-2.520548-.445044-2.49-.355526.02503.0437 2.250291-.347465 2.259625-.4738939.01103-.0021-3.099666-.4726209-3.103485-.416195-.0038-.04327 2.751771-.424255 2.751771-.464136 0 .0013-3.555325-.439954-3.57866-.480257-.02546.117519 3.571447-.406012 3.567628-.505289-.0038.144247-4.513735-.441226-4.557009-.479409-.03521.131095 4.221841-.361041 4.24051-.516744.01951.156126-4.958788-.455227-4.96006-.447589-.0013.03139 4.769565-.432316 4.836599-.428498-.09461.0857-5.266378-.414922-5.268075-.516743-.0017.0874 5.142068-.44759 5.153949-.448438.0059.190491-5.161586-.398376-5.14207-.54135.01612.02079 5.120856-.424255 5.112371-.480258-.0055.123034-4.722049-.415347-4.69235-.4102547.212132-.0157 3.648239-.4094062 4.739443-.4314679-.428506.030971-3.377983-.4488624-3.897281-.3937092.566816-.0857 3.968981-.4060126 3.981709-.3932849.01909-.019092-2.669039-.4408016-2.694494-.252432-.01527-.3864968 3.044936-.6957791 3.056815-.3593445.03606-.3198887-1.721236-.5685025-1.71572-.2880696.03691-.2125521 1.92276-.5905638 1.927428-.21721892.05176-.26982662-.74331-.46413562-.724642-.1743691.01655-.2070367.836223-.4951063.983866-.2634627.03564-.1353375-.251163.069578-.698761" fill="#bebebe" stroke-width=".424259"/></svg>