<svg height="16" width="16" xmlns="http://www.w3.org/2000/svg"><g fill="#bebebe" transform="translate(-61 -447)"><path d="m5.5.98632812c-1.385 0-2.5 1.11499998-2.5 2.49999998v5.0136719c0 .8435552.4164113 1.582838 1.0527344 2.035156l3.9472656-3.9492185v-3.0996094c0-1.385-1.115-2.49999998-2.5-2.49999998zm-4 4.01367188c-.27614 0-.5.22386-.5.5v2.96875c0 1.563969.801834 2.921103 2.0019531 3.730469v-.201172a1.0001 1.0001 0 0 1 .2929688-.705078l.0507812-.050781c-.8161551-.643898-1.3457031-1.6359282-1.3457031-2.773438v-2.96875c0-.27614-.22386-.5-.5-.5zm8 0c-.27614 0-.5.22386-.5.5 0 .0272736.0090287.0494621.0117188.0742188l.5605468-.5605469c-.0244639-.00368-.0467758-.0136719-.0722656-.0136719zm.5 2.4140625-.96875.96875v.0859375c0 .4816781-.0973954.9388044-.2695312 1.3554688l1.2285156-1.2285157c.0012048-.042911.0097656-.0837334.0097656-.1269531zm-2.3554688 2.3574219-.8730468.8730466c.3606681-.213638.6594087-.512379.8730468-.8730466zm-.7890624 1.9589846c-.4175717.17268-.8745727.269531-1.3554688.269531-.0261563 0-.0501636-.007253-.0761719-.007812l-.421875.421874v.585938h.5839844zm-4.8554688 2.269531c-.56475 0-1 .49007-1 1v1h.84375 2.15625 5 .09375.90625v-1c-.00006-.58435-.47642-.99995-1-1h-1.5859375l-.7070313.707031a1.0001 1.0001 0 0 1 -.7070312.292969h-2a1.0001 1.0001 0 0 1 -1-1z" transform="translate(61 447)"/><path d="m74.000047 450-1 1c1 0 2 1 2 2l1-1c0-1-.75185-2-2-2zm-2 2-6.998047 7-.002 2h2l7-7c0-1-1-2-2-2z" fill-rule="evenodd"/></g></svg>