<svg height="16" width="16" xmlns="http://www.w3.org/2000/svg"><g fill="#bebebe" fill-rule="evenodd"><path d="m7.4472656.90625c-1.17046-.0482-2.4418466.2440074-3.3066406.9433594l.046875.1210937c.264708-.04376.2768821-.2236642.7988281-.1289062l.03125.1386719c.1041516-.0850138.2577811-.1133818.5039063-.0351563.656251-.544539 1.25702-.6385831 1.875-.8769531 1.3681217.7521978 3.0361556 1.9484619 3.6953126 2.7070312.344498.0038901.633616.0130469.804687.0058594.10059.102003.196261.3832044.244141.5839844.213345.005344.434485-.0030308.5625.1445312-.247637.022538-.362318.0660825-.330078.1328125.103912.189403.249303.2504581.421875.2988281.408039.57786.809236 1.2219779.96875 2.0761719.048098.138185.075776.4375643-.132813.6289063.01592.13315.026453.2687203-.029297.4121094-.802822 1.0043899-.917264 2.6194152-2.546874 3.0292972l-.251954-1.1210941.896485-1.6015625c-.031974-.773566.162-.8265879.289062-1.1230469-.373989-.570737-.669453-1.1228529-.355469-1.5292969-.892777-.869691-2.3371601-1.414615-3.6035151-1.390625.6136302-.5146582 1.9847731-.5529229 2.9609371-.5449218-.723063-.4721014-2.1680599-1.0555397-3.5019528-.96875-.2741418.1924269-.5575508.3479899-.8730468.375-.3362135 1.0192174-1.289941 1.4979553-.71875 2.9804687.1501033-.0400288.2980299-.0635297.4375-.0566406.638754.03155 1.1252512.5147372 1.1445312 1.0351562.02266.611825-1.6475719 1.549457-2.2324218.984375-.1700626-.1643126-.2556207-1.3022045.234375-1.7558593-.5662035-1.0153193-.5212506-2.2695344-.6425782-3.2421876-.0109574-.4397941-.0490821-.9101781.140625-1.1191406-2.7924343.4411717-3.5180142 2.6761252-3.7675781 3.5625l.1464844.0371094c.04929-.261696.2120963-.4999547.5527343-.6992188l.2109376.2617188c-1.12680405.684463-1.48924617 4.6103597-.7519532 5.558594l.1933594-.25586c-.10123-.295775-.1373011-.5833384-.0488281-.9492184l.3417969.4199219c-.298339 2.0522945 1.5371742 3.5148315 3.9882812 4.8066405l-.2539062-.894531c-.2696231.085649-.4819218-.029914-.5898438-.517578l.2050781.013672c1.195678.706058 2.0352427 1.476236 6.5410159.669922l-.734375-.398438c-.247877.158375-.536385.146554-.835938.087891l.054688-.1875c2.272448.02349 4.185859-1.381792 4.798828-3.9121098l-.525391.3007813c-.0241.1546595-.02428.2992125-.564453.6562495l-.044922-.435546c2.121255-1.5369184 1.137371-3.6017399.541016-5.2109379l-.138672.1367188c.03213.21525.130612.3252286.056641.7128906l-.298828-.3808594c-.266059-2.437607-2.208182-3.8009937-4.3066411-4.3242187l.1367187.4101562c.5205634-.0057.6722624.2420496.8652344.4785156l-.607422.0546876c-.4561939-.6688031-1.5248534-1.0572658-2.6953124-1.1054688zm2.9160154 5.1855469c.665216.03989 1.237146 1.5764525.875 1.9765625-.60917.53106-2.1931609-.0457405-2.3300779-.8203125-.09646-.585142.8445911-1.192861 1.4550779-1.15625zm-6.3925779.671875 1.0878907.9277343c-.14446.3067741-.0800267.4929571-.5410157.984375.0283.403948-.0903251.6609822-.1894531.9375.07734.4253698.9253608.9197728.7304688 1.1445308 1.0185409.886863 2.2089101 1.580266 3.5957031 2.054688-1.544896-.026-3.0478383-.070717-4.4570313-.597656-.09465-.117297-.2293596-.210916-.3378906-.275391-.670618-.616496-.9676584-.935308-1.0527344-1.369141-.05847-.298144-.1455829-.342041-.2011718-.498046-.1111781-.3120108.0180756-.468154.0097656-.650391-.0083-.182237.1406232-.3017671.2089844-.5175781.0683598-.215811.0806306-.4992953.2285156-.9414063.146718-.438612.5456257-.8989577.9179687-1.1992187zm4.2265625.5800781c.170721.0055.4807313.3232411.6132813.6582031.132555.334962.2084786.85955.1035156 1.203125-.104956.343575-.5149279.3487768-.6855469-.0507812-.455945.557476-.860775.1779591-.859375-.1074219s.0323101-.9896444.2050782-1.1777344c.220555-.240116.4372628-.5253906.6230468-.5253906zm-2.4121094 2.5234375c.1250771-.0168.3591776.1952225.4296876.3242185.0940099.171996.0636702 1.644703-.2773438 1.029297-.341009-.615406-.2601787-.978125-.2304688-1.2499999.0074-.06797.0364251-.0979196.078125-.1035156zm4.6992188.0351563c.05738-.0139801.109539-.0081963.148437.0273437.155595.1423125-.168813 1.5026945-.410156 1.3925785-.2413428-.110116-.139359-.913008-.130859-1.054688.0064-.10626.220444-.3232812.392578-.3652342z" opacity=".2"/><path d="m8.2578125 2.6757812c-.3440375-.0105533-.6950275.0244568-1.0449219.1054688-.0148533.1984794-.0865424.4474684-.1230468.5585938-.2150354.65187-.5893305 1.0630911-.7578126 1.4238281-.1664192.3563214-.2347202.6538199.0800782 1.3613281.5974166.0672616 1.0479713.5199693 1.0664062 1.0175781.02266.611825-1.6475719 1.549457-2.2324218.984375-.1243019-.1200991-.2009501-.7619223-.0449219-1.2773437-.3941689-.587138-.5843238-1.2300272-.6816407-1.8535156-.5991305 1.0848155-.8822001 2.3132145-.3925781 2.8554687.349042.386563.4880405.5843249.4296875.7636719-.05835.179348-.3144531.3398437-.3144531.3398437s-.1362764 1.0797899.8691406.9140625c0 0-.0148794.2960414-.0214843.3925784.1092863.007052.2139914.046888.296875.11914.1069562.093129.2230789.175073.3339843.263672-.0595829-.284917-.0324343-.502133-.0136719-.6738279.0074-.06797.0364251-.0979196.078125-.1035156.1250771-.0168.3591776.1952225.4296876.3242185.0491628.089946.0611241.525075.015625.841797.7686657.536491 1.6241949.977628 2.5859374 1.306641.5368611.185431.3980105.980256-.1699218.972656-.7700068-.012959-1.5450278-.031151-2.3144532-.113281.143884.064054.2806782.140254.4277344.1875.613088.19697 1.9126725.17277 2.4921875.095703.579515-.07706 1.2395849-.600765 1.6523439-.679688.353769-.06764.313876-1.642616.347656-2.9785152.33091.1972842 1.027066-.0817625 1.080078-.5546876.044286-.3950876-.628789-.0729912-.546875-1.5703124-.086765-.038029-.162614-.0994058-.216797-.1816407-.194413-.296689-.385055-.6023868-.49414-.9511719-.053895-.1723329.061128-.3725256.080078-.5722656-.787732-.702267-2.0477866-1.192095-3.1152345-1.171875-.470785.0078921-.690557-.5799003-.3300781-.8828125.0865603-.0726.2267276-.0332337.3222656-.0898437l-.0097656-.0273438c.021436-.0004.0429671.0118498.0644531.0117188.5793552-.323546 1.2451581-.5041456 1.9257815-.5410156.094595-.005125.172314-.0009829.265625-.0039063-.5928503-.359903-1.2857216-.5907772-2.0195315-.6132813zm2.1054685 3.4160157c.665216.03989 1.237146 1.5764525.875 1.9765625-.60917.53106-2.1931609-.0457405-2.3300779-.8203125-.09646-.585142.8445912-1.192861 1.4550779-1.15625zm-2.1660154 1.2519531c.170721.0055.4807313.3232411.6132813.6582031.132555.334962.2084776.85955.1035156 1.203125-.104957.343575-.5149279.3487768-.6855469-.0507812-.455945.557476-.860775.1779591-.859375-.1074219s.0323101-.9896444.2050782-1.1777344c.220555-.240116.4372628-.5253906.6230468-.5253906zm2.2871094 2.5585938c.05738-.0139801.109538-.0081963.148437.0273437.155595.1423125-.168813 1.5026945-.410156 1.3925785-.2413428-.110116-.139359-.913008-.130859-1.054688.0064-.10626.220444-.3232803.392578-.3652342z"/></g></svg>