<svg height="16" width="16" xmlns="http://www.w3.org/2000/svg"><g fill="#bebebe"><path d="m8 .5a7.5 7.5 0 0 0 -7.5 7.5 7.5 7.5 0 0 0 7.5 7.5 7.5 7.5 0 0 0 7.5-7.5 7.5 7.5 0 0 0 -7.5-7.5zm.3066406 2.671875c2.4159104.069035 3.2939714 2.6094309 3.2070314 3.7480469-.08694 1.138615-.506447 1.1941645-.498047 1.5234375.0061.239489.384417.2009152.435547.6132812.02104.169697-.169282.3473125-.34961.4140625-.180323.06675-.346375.022018-.384765.085937-.07677.127843-.007 2.1479849-.232422 2.5546879-.112692.203352-.426546.224696-.6972656.367188-.270721.142492-.496755.388108-.7832032.373046-.6636108-.0348-1.4217333-.05009-2.0527343-.0332-.3155.0084-.4790402-.184497-.6738281-.296875-.1947882-.112382-.4828848-.167502-.6367188-.400393-.307668-.465783-.0468243-1.399101-.2070312-1.908203-.1602111-.5091028-.5839819-.5566405-.6386719-1.0957035 0 0-.08593-.3398437-.03125-.4335937-1.03167-3.8653931 1.1270587-5.5807488 3.5429687-5.5117188z" opacity=".2"/><g fill-rule="evenodd"><path d="m6.432203 13.288136c.813542.462968 1.142948-.05932 1.830509-.05932.967334 0 .944568 1.076271 0 1.076271-.678547.03398-1.27598-.374473-1.830509-1.016951z"/><path d="m9.512518 2.5140451c-.85559-.3796759-1.131363.1728114-1.815509.2412615-.962528.0963029-1.047023-.9768877-.107148-1.0709242.671793-.1013639 1.306921.2455826 1.922657.8296627z"/><path d="m9.698183 13.342931c.920447-.170201.835793-.781856 1.361574-1.224906.739725-.623332 1.415844.214368.693528.823029-.496992.463228-1.217051.535856-2.055102.401877z"/><path d="m6.185159 2.8454734c-.920021.1724854-.833846.7839318-1.358524 1.2282894-.738172.6251691-1.416373-.2108461-.695573-.8213023.495839-.464462 1.215715-.5388806 2.054097-.4069871z"/><path d="m13.232684 10.288394c.479788-.8037375-.03553-1.143934-.02123-1.8313457.02013-.9671246 1.095686-.9219757 1.076037.022388.01986.6791069-.400934 1.2679141-1.054809 1.8089577z"/><path d="m3.1852 4.8757101c-.595287.7223729-.137033 1.1362522-.254627 1.8136829-.165443.9530807-1.221963.7465754-1.060413-.1840753.082573-.6743609.587187-1.1931327 1.31504-1.6296076z"/><path d="m12.448254 4.6898412c-.451457-.8199861-1.005314-.5469836-1.591422-.9064508-.8246-.5057367-.242503-1.4112979.56269-.9174629.596193.3257848.891924.9863192 1.028732 1.8239137z"/><path d="m4.264741 10.826995c.189232.916722.799005.819413 1.252856 1.335902.638524.726649-.184986 1.419981-.808483.710432-.473426-.487288-.560958-1.205687-.444373-2.046334z"/><path d="m12.293228 8.1313255c.255417-.9005291-.330391-1.0957596-.494493-1.7634494-.230867-.9393807.819725-1.1741443 1.045165-.2568735.194949.6508268-.05911 1.3284801-.550674 2.0203234z"/><path d="m4.209371 6.2276321c-.388039.8518302.161721 1.133002.223466 1.8177854.08687.9634252-.987098 1.0374037-1.071923.096652-.09478-.6727541.258374-1.3044529.848457-1.9144374z"/><path d="m2.489433 8.691028c.0093.9360033.626356.9578752.972313 1.552059.48673.835958-.454827 1.357828-.930102.541543-.370787-.569296-.318414-1.2911111-.042211-2.093602z"/><path d="m10.767344 11.539034c.718652-.599776.344881-1.091287.585773-1.7352665.338913-.9060211 1.338989-.5076184 1.008052.3770795-.205907.647443-.797786 1.063904-1.593825 1.358187z"/><path d="m8.306641 3.171875c-2.41591-.06903-4.574639 1.646326-3.542969 5.511719-.05468.09375.03125.433593.03125.433593.05469.539063.478461.586602.638672 1.095704.160207.509102-.100637 1.44242.207031 1.908203.153834.232891.441931.288011.636719.40039.194788.112378.358328.305275.673828.296875.631001-.01689 1.389123-.0016 2.052734.0332.286448.01506.512482-.230554.783203-.373046.27072-.142492.584574-.163836.697266-.367188.22542-.406703.155652-2.426844.232422-2.554687.03839-.06392.204441-.01919.384765-.08594.180326-.06675.37065-.244366.34961-.414063-.05113-.412366-.429447-.37379-.435547-.613279-.0084-.329273.411107-.384822.498047-1.523437.08694-1.138616-.791121-3.679012-3.207031-3.748047zm1.658203 3.041016c.562119.09021.917892 1.444425.576172 1.753906-.574814.520583-1.86601-.176907-1.91211-.894531-.03248-.505589.820065-.942166 1.335938-.859375zm-3.515625.0332c.543941.02687.958191.439641.974609.882812.0193.521009-1.402352 1.319095-1.90039.837891-.160765-.15533-.24042-1.341962.349609-1.607422.199967-.08997.394858-.122237.576172-.113281zm1.566406.980468c.151418.0049.441031.345489.558594.642578s.169264.777304.07617 1.082032c-.09309.304728-.461954.332902-.613282-.02148-.394593.440548-.723886.147645-.722656-.105469.0012-.253114.01596-.781398.09375-.994141.07779-.212742.456004-.608444.607422-.603515zm-2.095703 2.382813c.01353-.000337.03131.0089.05078.0293.155796.163339.223071.577091.353516.716797.130447.139706.08934.446906-.01563.441406-.104961-.0055-.244984-.215064-.347656-.486328-.08987-.237355-.135717-.698815-.04102-.701172zm4.046875.02148c.08885-.01825.162532-.0081.169922.02539.02956.133913-.152034.978258-.347657 1.144531-.195619.166273-.231953-.224848-.203124-.453125.01441-.114138-.0073-.411209.123046-.572265.0652-.08053.168958-.126285.257813-.144531z"/></g></g></svg>