<svg height="16.000027" width="16.002401" xmlns="http://www.w3.org/2000/svg"><g transform="translate(-523.0002 165)"><circle cx="534.50256" cy="153.49998" fill="#bfbfbf" fill-opacity=".298039" r="4.500014" transform="scale(1 -1)"/><path d="m523.46895-164.99999c-.25058 0-.46875.21817-.46875.46875v12.0625c0 .2587.20995.46875.46875.46875h5.75c-.13724-.48068-.21875-.97527-.21875-1.5 0-3.03758 2.46242-5.5 5.5-5.5.89797 0 1.75131.21212 2.5.59375v-2.125c0-.2505-.21817-.4375-.46875-.4375l-.0312-.0312h-.0312-11.46875v6.5c0 .26932-.23068.5-.5.5s-.5-.23068-.5-.5v-7c0-.3099.15376-.5.5-.5h10.5v-.5c0-.28358-.21652-.5-.5-.5h-6.5v-1.53125c0-.2506-.21817-.46875-.46875-.46875h-4.0625zm11.3125 7c-2.08931-.12542-4.06216 1.24322-4.625 3.34375-.64324 2.40061.78689 4.85676 3.1875 5.5s4.85707-.78681 5.5-3.1875c.0575-.2146.0999-.43805.12591-.65597l-4.49073-.00031.53048-4.97833c-.0751-.01-.1509-.017-.22816-.0217z" fill="#bebebe"/><circle cx="532.5885" cy="152.7758" fill="none" r="3.089917" transform="scale(1 -1)"/></g></svg>