<svg height="16" width="16" xmlns="http://www.w3.org/2000/svg"><path d="m2 0c-1.108 0-2 .892-2 2v12c0 1.108.892 2 2 2h12c1.108 0 2-.892 2-2v-12c0-1.108-.892-2-2-2zm6 2h1c0 3.75 3.18501 2.0270043 2.5 7-.166667.2122963-.333333.1697177-.5 0 0-3.3943333-2-3.25-2-3.25v5.175781c0 1.199745-.3865929 1.838644-1.146525 2.277391-1.047863.604979-2.529942.265891-2.794922-.521484-.264981-.787376.172373-1.833132 1.259765-2.460938.545958-.3152064 1.160415-.3947252 1.664063-.2910155l.017619-.0293439z" fill="#bebebe" fill-rule="evenodd"/></svg>