<svg height="16" width="16" xmlns="http://www.w3.org/2000/svg"><g fill="#bebebe" fill-rule="evenodd"><path d="m8.4140625 1.4648438c-.2531161.0005794-.5098892.0768333-.7207031.2246093-.2113364.1481174-.3445181.3543023-.3613282.5761719-.0168509.2224099.0875231.44575.28125.6054688h.0019532l.0019531.0019531c.5381873.424868 1.0785904.8654559 1.6210937 1.2988281l-5.6992187-.0039062c-.3804901 0-.7003005.090699-.9394531.2617187-.2391463.1710263-.3924207.4233529-.4433594.7089844-.0973418.5458327.3355293 1.1738281 1.0507812 1.1738281.8672925.00115 1.7420036-.0018662 2.6132813-.0039062l-5.18945312 3.8398442h-.00195313c-.00208.001599-.00891197.007998-.02148437.017578-.29485832.22613-.49428053.527909-.57226563.84375-.0779851.31584-.03162961.653197.171875.914062.41386891.530185 1.24932625.512706 1.84570315.03125l.0019531-.001953 2.7480469-2.2480469c-.00405.066126-.0126308.086655-.0117188.1464844.00404.2380555.072768.6310425.1757813.9609375.2132724.679951.5747292 1.310114 1.0761719 1.863281.5141859.567388 1.1461066 1.02469 1.875 1.347657.7669046.339337 1.5991041.513081 2.4589842.511718.859838-.0019 1.690554-.177759 2.457031-.519531.728299-.326015 1.36116-.784647 1.875-1.353516.500175-.555202.861015-1.185071 1.074219-1.865234.107957-.344255.175112-.694037.203125-1.0449219.02693-.3450292.013954-.6922357-.035156-1.0371093-.09534-.6731763-.328083-1.3057826-.685547-1.8808594-.292859-.4714642-.658677-.8955505-1.089844-1.2558594l-5.0429685-3.8730469-.0039063-.0039062c-.00178-.00161-.0070198-.0046857-.0136718-.0097657-.1985928-.1520384-.4480558-.2271419-.7011719-.2265624zm2.0156255 4.4628906a3.3576403 3.0042059 0 0 1 3.357421 3.0058594 3.3576403 3.0042059 0 0 1 -3.357421 3.0039062 3.3576403 3.0042059 0 0 1 -3.3574224-3.0039062 3.3576403 3.0042059 0 0 1 3.3574224-3.0058594z"/><path d="m8.4882293 8.6690771c.0263204-.481082.2612928-.9057348.6145211-1.2063731.3476107-.2955373.8143927-.475989 1.3242816-.475989.509563 0 .976346.1804517 1.323875.475989.353618.3006383.588308.7249726.614935 1.2060546.02728.4951116-.170639.9548344-.517519 1.2953255-.353618.3468649-.857824.5646149-1.421291.5646149-.5637918 0-1.0679981-.21775-1.4215999-.5646149-.3472371-.3404911-.5444707-.8002139-.5172028-1.295007z"/></g></svg>