<svg height="16" width="16" xmlns="http://www.w3.org/2000/svg"><g fill="#bebebe" fill-rule="evenodd"><path d="m6.6792183 1.179813c-1.6989042.0763892-3.7001749.8411102-4.9060582 1.1642163-.603809.9839569-2.0078162 11.7410337-1.73945659 12.5237277 1.49073409.425911 3.98044179-.119282 6.02879839-1.182006-.0573841-.397288-.0426163-.807772.0533693-1.207702.2223362-.926375.7988973-1.602906 1.5062114-2.111007-.0634717-.200255-.2144276-.3785922-.189759-.565307.0080762-.0788993.0146363-.1665084.0276735-.2371918.0203069-.110095.0463175-.2333752.0790662-.3795069.0654983-.2922633.1570848-.666658.2668486-1.0989887.2195274-.8646614.5148904-1.9608143.8242651-3.051868.2665831-.9401426.5347845-1.8194482.7847322-2.5992267-.5176677-1.0087877-1.5465806-1.3086071-2.7356909-1.2551399zm-1.4469115 3.4709067c.6764077-.089647 1.6801569.3887654 1.6801569.8084287 0 .8207121-2.2845138 2.8755937-2.7198776 1.9449727-.1693691-.3620382.2871484-1.7766604.521837-2.4509819.1034822-.1792314.2924144-.272537.5178837-.3024195zm.1640623 4.2654992c.4898903.0372899.9175816.1565649 1.1069269.3459047.7474258.7474044-1.9477998 2.2120484-2.6961577 2.2711114-.5686936.075926-.222761-2.3401544.1047628-2.4727244.4415192-.1362681.9945777-.181582 1.484468-.1442917z"/><path d="m11.778989.77856337c-.32849.0107783-.56881.0487956-.676016.11068952-.435223.25126911-2.6724381 8.52094041-2.6724381 9.04491421-.031916.2198229.1202732.4591979.6325297.5534479.1923851.01519.3872957.03683.5811367.05732-1.2367417.184532-2.2450914.923097-2.5439553 2.168328-.2940012 1.224972.3993308 2.30632 1.9015423 2.486561 1.8450647.221379 2.7558107-1.088748 3.2456667-2.249369.446508-1.057914-.06439-1.924838-1.002163-2.279017.363311.0094.723793.0017 1.075301-.05732.221385-1.4547754 3.160078-7.4459468 3.526352-8.0803333.24149-.5040755.162419-.8291123 0-.9487671-1.309045-.61825133-3.082487-.8387892-4.067956-.80645423z"/></g></svg>