<svg height="16" width="16" xmlns="http://www.w3.org/2000/svg"><g fill="#bebebe"><path d="m4.09375 1.1425781c-1.5197066 0-2.0779569 1.4999017-2.1699219 2.7382813-.97194916 1.1331974-1.54296872 2.6679236-1.54296872 4.40625 0 .1474629.0124253.2921928.02148437.4375.28645087-.1270414.60126705-.2011719.93164065-.2011719.63842 0 1.3332272.1746791 2.0664062.4589844.366589.1421526.7204393.3080537 1.0507813.5585937.330342.2505401.7402343.6523084.7402343 1.3164064.0000001.664097-.4098923 1.063913-.7402343 1.314453s-.6841923.418394-1.0507813.560547c-.3827354.148413-.7540214.264847-1.1132812.34375 1.0366439 1.07987 2.4024086 1.75941 3.8671875 1.78125 2.8069554.03837 5.8266181-2.922775 6.8300781-5.2207032.466779 1.1155672 1.382217 2.5528222 3.015625 2.5527342 0 0-.761719-2.012982-.761719-3.8632811 0-1.8503.761719-3.7558594.761719-3.7558594-1.663137 0-2.584359 1.470829-3.042969 2.578125-1.014884-1.997743-3.9418995-5.2069676-6.8496091-5.2441406-.1659181.0045381-.3199549.0352807-.4804688.0527343-.35387-.4605022-.8352705-.7928166-1.5332031-.8144531zm-.28125 2.6933594c1.5975076.0440034 2.3719091 1.2159218 2.6640625 1.4882813a2.2857718 3.0465993 0 0 1 0 .0078124 2.2861328 3.0470805 0 0 1 -4.5722656 0 2.2857718 3.0465993 0 0 1 .1679687-1.1386718c.6642275-.2668839 1.2438999-.3710934 1.7402344-.3574219z" stroke-width=".380962"/><path d="m4.1905816 10.85703c0 .736399-2.1208166 1.333367-2.8572148 1.333367-.7363981 0-1.3333668-.596968-1.3333668-1.333367 0-.736398.5969687-1.333367 1.3333668-1.333367.7363982 0 2.8572148.596969 2.8572148 1.333367z"/></g></svg>