<svg height="16" width="16" xmlns="http://www.w3.org/2000/svg"><path d="m1.1992188 0c-.66480018 0-1.1992188.53441862-1.1992188 1.1992188v13.6015622c0 .6648.53441862 1.199219 1.1992188 1.199219h13.6015622c.6648 0 1.199219-.534419 1.199219-1.199219v-13.6015622c0-.66480018-.534419-1.1992188-1.199219-1.1992188zm6.8007812 3a5 5 0 0 1 5 5 5 5 0 0 1 -5 5 5 5 0 0 1 -5-5 5 5 0 0 1 2-3.9921875v6.4921875c0 .277.223.5.5.5s.5-.223.5-.5v-7.0761719a5 5 0 0 1 2-.4238281z" fill="#bebebe" stroke-width=".4"/><text x="346.31" y="-399.60999"/><path d="m7.2254292 5.2012585a.24048187.26234285 0 0 0 -.2254292.2606525v5.248274a.24048187.26234285 0 0 0 .3569296.227778l4.3301204-2.6229636a.24048187.26234285 0 0 0 0-.457903l-4.3301204-2.6229628a.24048187.26234285 0 0 0 -.1127146-.032875.24048187.26234285 0 0 0 -.018792.0000003z" fill="#bebebe" stroke-width=".480916"/></svg>