<svg height="16" width="16" xmlns="http://www.w3.org/2000/svg"><g fill="#bebebe"><path d="m1.2 0c-.6648 0-1.2.5352-1.2 1.2v13.6c0 .6648.5352 1.2 1.2 1.2h13.6c.6648 0 1.2-.5352 1.2-1.2v-13.6c0-.6648-.5352-1.2-1.2-1.2zm1.528906 2h10.542188c.403755 0 .728906.325151.728906.728906v10.542188c0 .403755-.325151.728906-.728906.728906h-10.542188c-.403755 0-.728906-.325151-.728906-.728906v-10.542188c0-.403755.325151-.728906.728906-.728906z" stroke-width=".4"/><path d="m4 4-.0001094 8h3.0001094v-2h-1v-4h.9998906l.0001094-2zm5 2h1v4h-1v2h3v-8h-3z"/></g></svg>