<svg height="16" viewBox="0 0 16 16" width="16" xmlns="http://www.w3.org/2000/svg"><path d="m5.6992188 1-1.1992188 1.3496094h-.25l-.125-.1503906h-1l-1.375 1.3007812v.4003906l.3496094.5996094-.5 1.1992188 1.8007812 6.8007812.5996094.800781 3.8007812 2.548828h.3984376l3.8007812-2.548828.599609-.800781 1.800782-6.8007812-.5-1.1992188.349609-.5996094v-.4003906l-1.375-1.3007812h-1l-.125.1503906h-.25l-1.199219-1.3496094zm2.3007812 2.1503906c.60231 0 1.16998.4492188 1.75.4492188l1.5-.2988282 1.650391 2.25c.0832.2190101.06198.3920382 0 .5488282l-1.900391 2.1503906c0 .38685.331841.6159314.300781 1.0507812 0 .4645601-.339132 1.0996098-1.101562 1.0996098-.7567605-.19913-1.6297703-.6906804-2.0000002-1.5000004.40521-.40651.8751218-.8105418 1.7011718-1.2011718l-.8007812-1.5996094c0-.64152 2.3281246-.7945969 2.3281246-1.1542969l-1.376953-.234375-1.300781.4511719s.4875275 2.3091481.3671875 2.5175781c0 0-.6544388.2832031-1.0742187.2832031-.4197802 0-1.0253907-.1914062-1.0253907-.1914062-.12621-.21861.2792969-2.5976563.2792969-2.5976563l-1.3378906-.3945312-1.3710938.0800781c0 .35938 2.3125.6618944 2.3125 1.2402344l-.8007812 1.5996094c.82897.4112198 1.286402.7848818 1.7011718 1.2011718-.3707899.79034-1.1842599 1.3055304-2 1.5000004-.7153399 0-1.1015624-.6806497-1.1015624-1.0996098 0-.4529898.3007812-.6307912.3007812-1.0507812l-1.9003906-2.1503906c-.0687-.15391-.0771-.3324582 0-.5488282l1.6503906-2.25 1.5.2988282c.54777 0 1.14769-.4492188 1.75-.4492188zm0 6.8964844c.68084 0 2.099609 1.052734 2.099609 1.052734l-2.099609 1.701172-2.0996094-1.701172s1.4187694-1.052734 2.0996094-1.052734z" fill="#bebebe" fill-rule="evenodd"/></svg>