<svg height="16" width="16" xmlns="http://www.w3.org/2000/svg"><path d="m8 0c-4.418276 0-8 3.58172-8 8s3.581724 8 8 8 8-3.58172 8-8-3.581724-8-8-8zm0 1.4980469a.7001953.7001953 0 0 1 0 1.4003906c-2.0654121 0-3.9224916 1.2402456-4.7128906 3.1484375s-.3549981 4.10008 1.1054687 5.560547c1.4604669 1.460467 3.652355 1.895868 5.5605469 1.105469 1.908192-.790399 3.148437-2.647479 3.148437-4.712891a.7001955.7001955 0 0 1 1.400391 0c0 2.627638-1.58605 5.000306-4.013672 6.005859-2.4276208 1.005554-5.2279163.449818-7.0859372-1.408203-1.8580211-1.858021-2.41375686-4.6583159-1.4082032-7.0859372 1.0055538-2.4276215 3.3782209-4.013672 6.0058594-4.0136719zm0 2.8867187a.7001953.7001953 0 0 1 0 1.4003906c-.897906 0-1.7032613.5376306-2.046875 1.3671876-.3436137.8295569-.1544466 1.7791472.4804688 2.4140624.6349152.6349158 1.5845055.8240828 2.4140624.4804688.8295571-.3436137 1.3671878-1.148969 1.3671878-2.046875a.700195.700195 0 1 1 1.40039 0c0 1.4601324-.883435 2.781075-2.2324215 3.339844-1.3489865.558768-2.9069836.249266-3.9394531-.783203-1.0324696-1.0324707-1.3419715-2.590467-.7832032-3.9394535.5587687-1.3489865 1.8797114-2.2324219 3.3398438-2.2324219zm.0683594 2.6953125a.86000001.86000001 0 0 1 .859375.859375.86000001.86000001 0 0 1 -.859375.8613281.86000001.86000001 0 0 1 -.859375-.8613281.86000001.86000001 0 0 1 .859375-.859375z" fill="#bebebe"/></svg>