<svg height="16" width="16" xmlns="http://www.w3.org/2000/svg"><g fill="#bebebe"><path d="m9.5 3.5c-1.28379 0-2.32658.97301-2.46875 2.21875-.32676-.12208-.66191-.21875-1.03125-.21875-1.65685 0-3 1.34315-3 3 0 .0982.02205.1855.03125.28125-.29969-.17924-.65661-.28125-1.03125-.28125-1.10457 0-2 .89543-2 2s.89543 2 2 2h1.3789062c-.1314753-.423279-.2227731-.863311-.2226562-1.328125.000315-2.4933402 2.0418173-4.5348437 4.5351562-4.5351562 2.4939948-.0006294 4.5387478 2.0411606 4.5390628 4.5351562.000117.464604-.091174.905021-.222657 1.328125h2.492188c.82843 0 1.5-.67157 1.5-1.5s-.67157-1.5-1.5-1.5c-.20711 0-.41429.0491-.59375.125.0526-.20194.09375-.40658.09375-.625 0-1.22936-.89334-2.22819-2.0625-2.4375.0419-.18136.0625-.36843.0625-.5625 0-1.38071-1.11929-2.5-2.5-2.5z"/><path d="m7.692076 7.6363278a3.5368265 3.5368294 0 0 0 -3.5363825 3.5363832 3.5368265 3.5368294 0 0 0 3.5363825 3.537719 3.5368265 3.5368294 0 0 0 3.537719-3.537719 3.5368265 3.5368294 0 0 0 -3.537719-3.5363832zm.1149826 1.2554489a.57045627.57045627 0 0 1 .5695649.5695654.57045627.57045627 0 0 1 -.5695649.5709019.57045627.57045627 0 0 1 -.5709018-.5709019.57045627.57045627 0 0 1 .5709018-.5695654zm-1.0268211 1.5963863h1.596386v2.272911l.4572557.0094v.45592h-2.0536417v-.455961h.4559193v-1.825014h-.4559193z" stroke-width=".684547"/></g></svg>