<svg enable-background="new 0 0 1024 1024" height="16" viewBox="0 0 16 16" width="16" xmlns="http://www.w3.org/2000/svg"><path d="m6.8007812 0-.3378906 1.6855469a6.5 6.5 0 0 0 -1.8417968.7617187l-1.4296876-.953125-1.6972656 1.6972656.9550782 1.4296876a6.5 6.5 0 0 0 -.765625 1.8417968l-1.6835938.3378906v2.3984376l1.6855469.3378906a6.5 6.5 0 0 0 .7617187 1.8417966l-.953125 1.429688 1.6972656 1.697265 1.4296876-.955078a6.5 6.5 0 0 0 1.8417968.765625l.3378906 1.683594h2.3984376l.3378906-1.685547a6.5 6.5 0 0 0 1.8417966-.761719l1.429688.953125 1.697265-1.697265-.955078-1.429688a6.5 6.5 0 0 0 .765625-1.8417966l1.683594-.3378906v-2.3984376l-1.685547-.3378906a6.5 6.5 0 0 0 -.761719-1.8417968l.953125-1.4296876-1.697265-1.6972656-1.429688.9550782a6.5 6.5 0 0 0 -1.8417966-.765625l-.3378906-1.6835938zm1.4453126 3a5 5 0 0 1 3.5136722 1.4648438l-1.414063 1.4140624a3 3 0 0 0 -2.1210936-.8789062 3 3 0 0 0 -3 3 3 3 0 0 0 3 3 3 3 0 0 0 2.1210936-.878906l1.414063 1.414062a5 5 0 0 1 -7.0703129 0 5 5 0 0 1 0-7.0703122 5 5 0 0 1 3.5566407-1.4648438z" fill="#bebebe" fill-rule="evenodd"/></svg>