<svg height="16" width="16" xmlns="http://www.w3.org/2000/svg"><path d="m8.0000001 0c-4.4320001 0-8.0000001 3.568-8.0000001 8s3.568 8 8.0000001 8c4.4319999 0 7.9999999-3.568 7.9999999-8s-3.568-8-7.9999999-8zm.486719 1.599219c3.1044039.236204 5.5873389 2.689838 5.8773429 5.778906-.434484.933584-1.44948 1.517995-2.253124 2.029687.196932-.590808.321954-1.266307.271874-2.029687-.13608-.99272-.600128-1.878756-1.280468-2.547656l-.646094 1.673437c0-2.16632-.394035-3.544603-1.9695309-4.904687zm-1.107031.03672c.933596.43448 1.518003 1.449472 2.029687 2.253124-.590816-.196936-1.266327-.321958-2.029687-.271874-.99272.136068-1.8787528.600132-2.5476568 1.280468l1.6734378.646094c-2.1663122 0-3.5445879.394035-4.9046879 1.969531.236204-3.104388 2.6898385-5.587339 5.7789069-5.877343zm-3.4890633 4.954687c-.196932.590824-.3219588 1.266311-.2718748 2.029687.136064.992712.6001449 1.878769 1.2804689 2.547657l.6460936-1.673438c0 2.166312.3940352 3.544592 1.9695316 4.904688-3.1043964-.2362-5.5873361-2.689839-5.8773441-5.778907.434476-.933596 1.4494768-1.518003 2.2531248-2.029687zm10.5101562 1.894531c-.236212 3.104408-2.689842 5.58734-5.7789059 5.877344-.933592-.434476-1.517999-1.449485-2.029687-2.253125.590816.19694 1.266315.321955 2.029687.271875.992724-.136084 1.8787639-.600125 2.5476559-1.280469l-1.6734369-.646093c2.1663159 0 3.5445949-.39404 4.9046869-1.969532z" fill="#bebebe" stroke-width=".4"/></svg>