<svg height="16" width="16" xmlns="http://www.w3.org/2000/svg"><path d="m54.135441 10.855112-41.05903 42.04245c-15.546623 15.541759 10.065442 14.246612 19.333621 20.124585 4.285287 2.789547-13.752782 6.376107-10.065442 10.062293 3.587682 3.686186 21.625751 7.073493 25.213434 10.660053 3.587682 3.686186-7.275023 7.571627-3.68734 11.257817 3.488024 3.68618 11.859283.19925 13.35415 8.56789 1.096236 6.17685 15.347308 3.08842 21.725409-2.19179 3.986314-3.38731-6.876391-3.38731-3.288708-7.07349 8.969205-9.066027 16.941832-4.08469 20.230541-12.453334 1.793841-4.4832-13.553466-7.671253-9.467495-10.560426 9.766469-6.874239 45.643289-10.361173 29.100089-26.899198l-42.553897-43.53685c-5.281866-4.9813335-13.952098-4.9813335-18.835332 0zm47.138159 80.996474c0 2.09216 16.24423 3.28768 15.34731-.498133-1.29556-6.376106-13.55347-5.877973-15.34731.498133zm-69.262199 11.058564c3.68734 3.18805 9.268179-.69739 11.06202-5.180591-3.587682-4.682453-16.842175.29888-11.06202 5.180591zm67.269042-6.674991c-4.584261 4.184321.797267 8.567891 5.281867 5.678721 1.19589-.79701-.0997-4.682454-5.281867-5.678721z" fill="none" stroke-width=".996422"/><g fill="#bebebe"><path d="m8 1c-1.9065333.0033411-3.7292188.7841897-5.046875 2.1621094l2.8642578 3.4350585c.1413224.1413224.4513564.3741738.6835938-.2675781l1.9208984-5.3081054c-.1403768-.0114039-.2810659-.0185686-.421875-.0214844zm1.4375.1503906-1.4833984 4.1049805c-.0591856.2208836-.1494313.5750601.5893555.4406738l5.6088869-1.0202637c-.977048-1.8110099-2.701452-3.1003837-4.714844-3.5253906zm-7.1347656 2.7910156c-.845605 1.1845402-1.3009679 2.6031969-1.3027344 4.0585938.001627.6706889.099634 1.337663.2910156 1.9804688l4.6176758-.8066406c.2994079-.0802261.470376-.3423154.1264649-.7548828zm12.2714846 1.6738282-4.323731.7861328c-.3524177.09443-.417862.3526432-.07959.7595215l3.766602 4.5305173c.691455-1.107319 1.059479-2.3859343 1.0625-3.691406-.002255-.8136258-.146339-1.6206295-.425781-2.3847656zm-4.9489749 3.6293944-2.076416 5.7319332c.1500993.012665.3005683.020482.4511719.023438 2.054409-.000938 4.004694-.90431 5.333984-2.470703l-2.985595-3.5905763c-.16004-.16004-.5303847-.2262052-.7231449.3059081zm-2.0888672.6599123-5.8840331 1.0270999c.9219098 1.998112 2.7297425 3.446404 4.8808593 3.910156l1.6132813-4.448486c.0885462-.330459.0197584-.657542-.6101075-.4887699z"/><circle cx="8.044194" cy="7.779029" r="1"/></g></svg>