<svg height="16" width="16" xmlns="http://www.w3.org/2000/svg"><g fill="#bebebe" fill-rule="evenodd"><path d="m8 0a8 8 0 0 0 -8 8 8 8 0 0 0 8 8 8 8 0 0 0 8-8 8 8 0 0 0 -8-8zm-2.2089844 2.6914062a2.875 2.875 0 0 1 2.875 2.875 2.875 2.875 0 0 1 -1.2734375 2.3847657 2.875 2.875 0 0 1 2.4257813 2.8339841 2.875 2.875 0 0 1 -2.875 2.875 2.875 2.875 0 0 1 -2.875-2.875 2.875 2.875 0 0 1 1.2734375-2.3847654 2.875 2.875 0 0 1 -2.4257813-2.8339844 2.875 2.875 0 0 1 2.875-2.875zm5.6601564 1.3886719a2.875 2.875 0 0 1 2.875 2.875 2.875 2.875 0 0 1 -2.875 2.875 2.875 2.875 0 0 1 -2.8750001-2.875 2.875 2.875 0 0 1 2.8750001-2.875z"/><ellipse cx="11.481497" cy="6.95143" opacity=".35" rx="2.948276" ry="2.98423"/></g></svg>