<svg height="16" width="16" xmlns="http://www.w3.org/2000/svg"><path d="m7.484375 0-4.609375 6.4101562c-1.7238513 3.1833411-1.88613408 9.7954088 5.6367188 9.5839848 5.3468382-.390988 7.3452682-5.501479 3.8339842-9.7070316zm-.671875 4.5332031c.132-.000022.2648353.00854.3945312.023437.7781781.0891 1.5102837.4355747 2.1503907.9160156.8534781.6405871 1.5266111 1.5189793 1.8671871 2.2382813.08782.185482.08868.2978199.13086.4511719-1.130541-1.7936255-2.6058249-2.5170629-3.917969-2.2714839-1.51221.283024-2.6817513 1.7118205-2.7382812 3.5390625-.03719 1.2020125.3898122 2.1207225 1.0507812 2.7753905s1.5305325 1.059524 2.4023438 1.361328c.8718108.301805 1.7546212.501144 2.4414062.707032.09146.02742.154998.05577.234375.08398-.650457.336694-1.4372409.566049-2.3769531.636719-3.441386.08751-4.7182246-1.18295-5.2773438-2.837887-.5587276-1.653778-.1482315-3.8977354.5761719-5.2480469.7083953-1.2770309 1.4000548-2.0060824 2.6640625-2.3515625.133901-.01618.2664385-.0234175.3984375-.0234375z" fill="#bebebe" fill-rule="evenodd" transform="translate(-.00047 .00091)"/></svg>