<svg height="16" width="16" xmlns="http://www.w3.org/2000/svg"><path d="m8 0c-4.432 0-8 3.568-8 8s3.568 8 8 8 8-3.568 8-8-3.568-8-8-8zm-.0078125 3.4921875a.50005.50005 0 0 1 .5078125.5078125v3.3125l3.150391-1.0234375a.50005.50005 0 0 1 .130859-.0273437.50005.50005 0 0 1 .177734.9785156l-3.1503902 1.0234375 1.9472652 2.6777341a.50005.50005 0 1 1 -.8085934.587891l-1.9472656-2.6796876-1.9472656 2.6796876a.50005.50005 0 1 1 -.8085938-.587891l1.9472656-2.6796872-3.1503906-1.0214844a.50005.50005 0 0 1 .1621094-.9785156.50005.50005 0 0 1 .1464844.0273437l3.1503906 1.0234375v-3.3125a.50005.50005 0 0 1 .4921875-.5078125z" fill="#bebebe" stroke-opacity=".55" stroke-width="1.12"/></svg>