<svg height="16" width="16" xmlns="http://www.w3.org/2000/svg"><path d="m8 0c-4.418276 0-8 3.58172-8 8s3.581724 8 8 8 8-3.58172 8-8-3.581724-8-8-8zm-5.8457031 3.0351562h11.9609371v.015625c.017809.2992558-.136665.4964413-.402343.6367188s-.641906.2277108-1.078125.3164062c-.872439.1773909-1.982094.3589426-2.9042972.9628907-.5409312.354252-.7862088.8817547-.8476563 1.3671875-.0614475.4854327.0637349.9278195.2519531 1.1054687.2636789.2488731.5210096.4585311.6601563.6601563.0695733.1008126.1105111.2010231.1035156.3027344-.0069955.1017112-.0613679.2033327-.1738281.3066406-.5731118.5264681-.9410521.7761671-1.0664063.9707031-.0626771.097268-.0680437.1763584-.0117187.2792969.056325.1029386.177818.2279576.3671875.3984376.140928.126871.2290913.219175.2714843.296875.0211941.038852.0305238.074032.0273438.107422-.003175.03339-.0186979.064947-.0449219.091797-.0538437.05513-.1343355.066859-.1953125.099609-.030489.01637-.0560867.036299-.0742187.068359-.018134.032058-.0302038.076848-.0273438.142578.0069599.159946.0616234.246058.1484375.304688.0868142.05863.2087103.089377.3496094.125.1412363.035708.2599178.118169.3144531.193359.01362.0188.0224938.036708.0273438.054688.00484.01797.0042837.037164-.0039063.052734-.008186.01557-.0229297.02525-.0429687.03125-.020039.006014-.0450509.00876-.0761719.00586-.1061569-.00979-.1774024.004875-.2246094.041015-.047206.036144-.0734545.096127-.0859375.185547-.024967.178845.0084311.467399.0332031.873047.0212837.348555.1574693.593727.3574219.708984.1999526.115263.4666179.10293.7558599-.072265.292647-.177258.504974-.30842.654296-.375.074661-.03329.133881-.051528.181641-.048828.047753.00268.084133.031335.101563.078125.034849.093574.013224.263437-.041016.539062-.054237.275625-.143765.654096-.253906 1.158203l-.001954.013672h-6.0585932l-.0019532-.013672c-.110141-.504107-.1996692-.882578-.2539062-1.158203s-.0758656-.445492-.0410156-.539062c.0174244-.04679.0538065-.075425.1015624-.078125.0477561-.00268.1069797.015538.1816407.048828.149322.066582.3616483.197742.6542969.375.2892428.17519.5559061.187523.7558593.072265.1999532-.115257.3361379-.360429.3574219-.708984.024773-.405648.0581691-.694202.0332031-.873047-.012482-.089427-.0387315-.149407-.0859375-.185547-.0472064-.03611-.1184523-.050815-.2246094-.041015-.0311209.0028-.0561328.00014-.0761718-.00586-.020039-.00597-.0347788-.01568-.0429688-.03125-.00819-.01556-.0087562-.034754-.0039062-.052734.004846-.01798.0137237-.035888.0273437-.054688.0544804-.075185.173216-.157649.3144531-.193359.140899-.03562.2627954-.06637.3496094-.125.0868144-.05863.1395244-.144742.1464844-.304688.00286-.065727-.0072586-.110518-.0253906-.142578s-.0437308-.051989-.0742188-.068359c-.0609768-.03275-.1414685-.044479-.1953125-.099609-.026224-.02686-.0417418-.058407-.0449219-.091797-.0031749-.033392.0061478-.068572.0273438-.107422.0423922-.077705.1305551-.170004.2714844-.296875.1893696-.17048.3108625-.295499.3671875-.3984376.056325-.1029385.0509582-.1820289-.0117188-.2792969-.1253542-.194536-.4932944-.444235-1.0664062-.9707031-.1124611-.1033079-.1668282-.2049294-.1738281-.3066406-.0069956-.1017114.0339421-.2019218.1035156-.3027344.139147-.2016252.3964772-.4112832.6601562-.6601563.188218-.1776492.3134006-.620036.2519532-1.1054687-.0614476-.4854328-.3067254-1.0129355-.8476563-1.3671875-.9222082-.6039482-2.0318577-.7854998-2.9042969-.9628907-.4362196-.0886954-.8124472-.1761287-1.078125-.3164062s-.4201523-.3374629-.4023437-.6367188z" fill="#bebebe"/></svg>