<svg height="16" width="16" xmlns="http://www.w3.org/2000/svg"><g fill="#bebebe" transform="translate(-321.0002 -447)"><path d="m1.7070312.29296875-1.41406245 1.41406245 6.29296875 6.2929688-6.29296875 6.292969 1.41406245 1.414062 6.2929688-6.2929685 6.292969 6.2929685 1.414062-1.414062-6.2929685-6.292969 6.2929685-6.2929688-1.414062-1.41406245-6.292969 6.29296875z" fill-opacity=".501961" fill-rule="evenodd" transform="translate(321.0002 447)"/><path d="m0 0v16h16v-16zm1.5 1.5h13v13h-13z" transform="translate(321.0002 447)"/><path d="m327.65059 448.68359v3.73828h1.59961c.49749 0 .86955-.0887 1.11328-.26562.24373-.17696.36524-.44604.36524-.80664 0-.23539-.0564-.43377-.16993-.5957-.11352-.16197-.27541-.27392-.48242-.33399.16194-.0618.28596-.15437.3711-.28125.0851-.12854.1289-.28483.1289-.4668 0-.34556-.11784-.59697-.35156-.7539-.23205-.15693-.60776-.23438-1.12695-.23438zm.96484.65625h.53321c.15192 0 .26724.0331.3457.10157.0785.0668.11719.16442.11719.29296 0 .13022-.0387.22815-.11719.29493-.0785.0668-.19378.10156-.3457.10156h-.53321zm0 1.44727h.56446c.19532 0 .34262.0393.43945.12109.0968.0801.14453.20134.14453.36328 0 .16527-.048.28929-.14648.3711-.0968.0818-.24385.12304-.4375.12304h-.56446z"/><g transform="translate(321.0002 447)"><path d="m8.0429688 5.9589844c-.5993267 0-1.0698761.171725-1.4121094.515625-.34056.3439-.5117188.8197812-.5117188 1.4257812 0 .6043334.1711588 1.077975.5117188 1.421875.3422333.3439.8127826.515625 1.4121094.515625.6009866 0 1.0715427-.171725 1.4121093-.515625.34056-.3439.5097657-.8175416.5097657-1.421875 0-.606-.1692057-1.0818812-.5097657-1.4257812-.3405666-.3439-.8111227-.515625-1.4121093-.515625zm0 .6992187c.2954866 0 .5236135.1071921.6855468.3242188.1619334.2170266.2421875.5239887.2421875.9179687 0 .3923134-.080254.6970359-.2421875.9140625-.1619333.2170267-.3900602.3242188-.6855468.3242188-.2938201 0-.5216605-.1071921-.6835938-.3242188-.1619333-.2170266-.2441406-.5217491-.2441406-.9140625 0-.39398.082207-.7009421.2441406-.9179687.1619333-.2170267.3897737-.3242188.6835938-.3242188z"/><path d="m12.556641 5.9589844c-.450747 0-.796716.1004546-1.03711.3007812-.2404.2003334-.359375.487095-.359375.859375 0 .29716.08586.5336977.257813.7089844.17362.1752933.446366.3026792.820312.3828125l.373047.082031c.22704.05012.377998.1065218.453125.1699218.07679.06344.115235.1546244.115235.2714844 0 .1302133-.05612.2287081-.167969.2988281-.111847.070113-.272069.1054688-.482422.1054688-.207007 0-.422784-.030283-.646485-.09375-.222033-.065107-.452679-.1621892-.691406-.2890625v.8144531c.238727.088487.47807.1541521.716797.1992187.238727.045067.475831.068359.712891.068359.502493 0 .8754-.1004546 1.11914-.3007812.2454-.202.369141-.5095284.369141-.921875 0-.3138534-.08839-.5543294-.263672-.7246094-.175287-.170286-.471032-.297392-.886719-.3808587l-.410156-.083984c-.195327-.040087-.33113-.087511-.40625-.1425781-.07345-.056767-.109375-.134215-.109375-.234375 0-.1335266.05584-.2334083.166016-.296875.11018-.063467.279385-.09375.509765-.09375.17362 0 .359361.023579.554688.070312.19532.04674.394269.1152113.599609.2070313v-.7910156c-.232053-.0617466-.456808-.1086052-.673828-.1386718-.217027-.0317334-.427472-.046875-.632812-.046875z"/><path d="m1.7128906 6.0273438v3.7382812h1.0175782c.5609266 0 .981252-.040967 1.2617187-.1210938.28046-.0818069.5203698-.218456.7207031-.4121093.1752867-.1686067.305485-.3636177.390625-.5839844.085147-.2220333.1289063-.473726.1289063-.7558594 0-.2787933-.04376-.5296333-.1289063-.75-.08514-.22036-.2153383-.4134179-.390625-.5820312-.19866-.1936534-.4360504-.3319761-.7148437-.4121094-.2771267-.0818-.6999716-.1210937-1.2675781-.1210937zm.9648438.7285156h.3457031c.3956533 0 .6972902.095409.9042969.2890625.2070066.1936533.3105468.4770429.3105468.8476562 0 .37228-.1057797.6562359-.3144531.8515625-.2070133.19532-.5064106.2929688-.9003906.2929688h-.3457031z"/></g><path d="m327.25411 457.46484 1.24804 1.83008-1.29687 1.90821h1.00781l.86719-1.27735.87304 1.27735h1.00586l-1.29882-1.90821 1.24804-1.83008h-1.01172l-.8164 1.20313-.81836-1.20313z"/></g></svg>