<svg height="16" width="16" xmlns="http://www.w3.org/2000/svg"><g fill="#bebebe"><path d="m9.0605469 1.7617188-1.4609375.390625v.875c0 1.2564636-.9297011 2.1021175-2.0488282 2.5703124v2.3964844h3.5097657z" fill-rule="evenodd" opacity=".35"/><g><g fill-rule="evenodd"><path d="m9.0508475 14.305085v-6.1355935h5.5254235l-.944937 3.5265535z" opacity=".35"/><path d="m8.6660156 1c-.3977163.2586421-.7690142.4429096-1.1289062.59375.033345.1708766.0625.3448269.0625.5273438v.8359374c.4910035-.1967543.7620197-.4570312.9003906-.4570312v5.1679688h-2.9492188v.8320312h2.9492188v5.25c-.7586699-.595451-1.9705537-1.031875-2.9492188-1.851562v1.677734c1.6574724.995739 3.4492188 1.284915 3.4492188 2.324219 0-2.018591 6.199219-1.958745 6.199219-7.400391v-7.5h-.699219c-2.29556 1.7770026-3.759742.9737284-5.1679688 0zm.8339844 1.5c.3096941 0 1.217254 1.3248861 4 .25h.599609l-.099609 4.9179688h-4.5zm0 6h4.5c-.05085 3.6289-3.081916 4.137-4.5 5.25z"/><path d="m2.8554688 1.2109375c-.2149153.0000003-.4186989.042941-.6035157.1210937-.1353405.9659119-.1808754 1.9330393.046875 2.9082032.1725783.066503.3592203.1054687.5566407.1054687h1.1328124c.2357428 0 .4557122-.055346.6542969-.1484375.3167451-1.0625772.2148941-1.9498722.0488281-2.8105468-.2110701-.1086562-.447175-.1757813-.703125-.1757813zm1.6953124 4.0585937c-.1226016.014667-.2442456.03125-.3710937.03125h-1.5605469c-.092153 0-.179525-.015629-.2695312-.023437v9.2226558l1.0996094 1.5 1.1015624-1.5z"/></g><path d="m2.619141.09960937c-1.340476 0-2.419922.90136093-2.419922 2.02148443v.90625c0 1.1201234 1.079446 2.0234374 2.419922 2.0234374h1.560547c1.340475 0 2.419921-.903314 2.419921-2.0234374v-.90625c0-1.1201235-1.079446-2.02148443-2.419921-2.02148443zm.236328.86132813h1.132812c.987616 0 1.783203.795587 1.783203 1.7832031v.0683594c0 .9876162-.795587 1.7832031-1.783203 1.7832031h-1.132812c-.987616 0-1.783203-.7955869-1.783203-1.7832031v-.068359c0-.9876161.795587-1.7832031 1.783203-1.7832035z"/></g></g></svg>