<svg height="16" width="16" xmlns="http://www.w3.org/2000/svg"><path d="m54.135441 10.855112-41.05903 42.04245c-15.546623 15.541759 10.065442 14.246612 19.333621 20.124585 4.285287 2.789547-13.752782 6.376107-10.065442 10.062293 3.587682 3.686186 21.625751 7.073493 25.213434 10.660053 3.587682 3.686186-7.275023 7.571627-3.68734 11.257817 3.488024 3.68618 11.859283.19925 13.35415 8.56789 1.096236 6.17685 15.347308 3.08842 21.725409-2.19179 3.986314-3.38731-6.876391-3.38731-3.288708-7.07349 8.969205-9.066027 16.941832-4.08469 20.230541-12.453334 1.793841-4.4832-13.553466-7.671253-9.467495-10.560426 9.766469-6.874239 45.643289-10.361173 29.100089-26.899198l-42.553897-43.53685c-5.281866-4.9813335-13.952098-4.9813335-18.835332 0zm47.138159 80.996474c0 2.09216 16.24423 3.28768 15.34731-.498133-1.29556-6.376106-13.55347-5.877973-15.34731.498133zm-69.262199 11.058564c3.68734 3.18805 9.268179-.69739 11.06202-5.180591-3.587682-4.682453-16.842175.29888-11.06202 5.180591zm67.269042-6.674991c-4.584261 4.184321.797267 8.567891 5.281867 5.678721 1.19589-.79701-.0997-4.682454-5.281867-5.678721z" fill="none" stroke-width=".996422"/><path d="m8 0a8 8 0 0 0 -8 8 8 8 0 0 0 8 8 8 8 0 0 0 8-8 8 8 0 0 0 -8-8zm.0800781 1.4882812a1.0000056.99996602 89.994886 0 1 .546875.1328126 1.0000056.99996602 89.994886 0 1 .4980469.8398437c.8349646.6229654 1.506206 1.6819869 1.933594 2.9199219.552417 1.6000883.666461 3.5371278-.123047 5.2695316a.50004291.50004291 0 1 1 -.908203-.416016c.656012-1.4394736.570389-3.1221663.085937-4.5253906-.3531119-1.0227974-.9364396-1.8628013-1.4999998-2.3496094a1.0000056.99996602 89.994886 0 1 -.9863281-.0058594 1.0000056.99996602 89.994886 0 1 -.3671875-1.3652344 1.0000056.99996602 89.994886 0 1 .8203125-.5zm-3.2539062 2.2167969c.3422556-.0131592.7197101.0152339 1.1328125.09375a.50007725.50007725 0 1 1 -.1875.9824219c-1.4184687-.2696006-1.9394884.0804576-2.2128906.5058594-.2734025.4254018-.2589686 1.1105872-.1621094 1.4375a.50004291.50004291 0 1 1 -.9589844.2832031c-.174318-.5883466-.2219017-1.4818763.2792969-2.2617187.3758989-.5848819 1.082608-1.0015381 2.109375-1.0410157zm6.9121091.2089844a.50004291.50004291 0 0 1 .148438.0136719c.596675.1432068 1.393623.5510128 1.818359 1.375.424737.8239872.297396 2.0072025-.800781 3.28125a.50059589.50059589 0 1 1 -.757813-.6542969c.942711-1.093684.901616-1.7204363.669922-2.1699219-.231694-.4494855-.832543-.779808-1.164062-.859375a.50004291.50004291 0 0 1 .085937-.9863281zm-2.9707029.5546875a.50004291.50004291 0 0 1 .0605469.9980469c-1.5745602.151592-2.9899393 1.0663268-3.9628906 2.1875-.7089745.8169814-1.1454294 1.7415367-1.2851563 2.4726561a.99996603 1.0000056 0 0 1 .4882813.859375.99996603 1.0000056 0 0 1 -1 1 .99996603 1.0000056 0 0 1 -1-1 .99996603 1.0000056 0 0 1 .4785156-.853516c.1228787-1.0341801.7048268-2.1444787 1.5625-3.132812 1.1094562-1.2784735 2.7280334-2.3468499 4.6230469-2.5292969a.50004291.50004291 0 0 1 .0351562-.0019531zm-.7675781 2.53125a1 1 0 0 1 1 1 1 1 0 0 1 -1 1 1 1 0 0 1 -1-1 1 1 0 0 1 1-1zm-3.1640625 1.6425781a.50004291.50004291 0 0 1 .4277344.2148438c.9185647 1.2878771 2.421511 2.0558451 3.8789062 2.3378901 1.0621669.20556 2.0806149.121858 2.7832029-.123046a.99996602 1.0000056.00511401 0 1 .498047-.853516.99996602 1.0000056.00511401 0 1 1.367188.367188.99996602 1.0000056.00511401 0 1 -.367188 1.365234.99996602 1.0000056.00511401 0 1 -.978516.011719c-.957072.411496-2.20887.463579-3.4941401.214843-1.6618813-.321619-3.3945059-1.190271-4.5-2.740234a.50004291.50004291 0 0 1 .3847656-.7949219zm.8652344 2.8613279a.50004291.50004291 0 0 1 .4980469.341797c.4757664 1.36329 1.039844 1.641935 1.5449218 1.666016s1.0915024-.330788 1.3261719-.578125a.50013731.50013731 0 0 1 .7265625.6875c-.4223484.445147-1.1736558.932822-2.0996094.888672-.9259535-.044148-1.8871824-.745879-2.4414062-2.333985a.50004291.50004291 0 0 1 .4453125-.671875z" fill="#bebebe" fill-rule="evenodd"/></svg>