<svg height="16" width="16" xmlns="http://www.w3.org/2000/svg"><path d="m210.00525 490a7.9213765 7.9999556 0 0 0 -7.92155 8 7.9213765 7.9999556 0 0 0 7.92155 8 7.9213765 7.9999556 0 0 0 7.92154-8 7.9213765 7.9999556 0 0 0 -7.92154-8zm1.81073 2.2574c.73493-.008 1.43064.4136 1.57743 1.07295.18687.73823-.26155 1.20425-.94288 1.31727 0 0-.0802.0322-.57398.0399-.98236.0154-2.06129.15179-2.82588.37233-.23741.0679-.66256.30497-.53613.58018.11151.28667.62555.52399.947.68135.36652.17943 2.14979 1.0105 3.10599 1.48314 0 0-2.83938.64678-3.56366.99725-1.43782.65814-1.60604 1.40509-1.27047 1.67515.34993.26622 1.00667.59698 2.98141.66483 1.78072.0378 2.68035-.0213 3.4563.3042.30351.1273.24695.33941.25396.39918-.1612.29167-.51943.49731-1.17757.73984-.62899.2318-1.80454.48314-1.80454.48314-.9643.21148-2.25423.33825-2.59394.36821-.83885.0739-1.49071.0282-1.49071.0282.0114-.002 2.27881-.50685 3.14384-.75636.34003-.0981 1.58539-.41578 1.56986-.5437-.011-.0909-.18517-.12645-1.2925-.0668-1.88.16929-2.50497-.027-3.76532-.4446-2.13386-.70706-2.59489-1.85492-1.55333-2.81831.92088-.76941 2.4906-1.43834 4.66689-1.31865 0 0-.74071-.22627-.99312-.34618-.67083-.31868-1.71276-.75095-2.43427-1.55334-.17074-.22087-.56016-.57403-.37164-.97316.28855-.61093 1.25082-.61606 2.61665-.69717 0 0 1.42382-.13521 2.10874-.24708.62913-.10275.77998-.30244.67584-.44804-.17633-.24653-.57084-.28537-2.9298-.26497 0 0 1.90814-.55489 2.69993-.69924.10511-.0192.21091-.0285.3159-.0296z" fill="#bebebe" transform="translate(-202.0002 -490)"/></svg>