<svg height="16" width="16" xmlns="http://www.w3.org/2000/svg"><path d="m0 4v8h16v-8zm3 3h1v1h1v1h-1v1h-1v-1h-1v-1h1zm8.25 1.5c.41421 0 .75.33579.75.75s-.33579.75-.75.75-.75-.33579-.75-.75.33579-.75.75-.75zm2 0c.41421 0 .75.33579.75.75s-.33579.75-.75.75-.75-.33579-.75-.75.33579-.75.75-.75zm-7 .75h1c.1385 0 .25.16725.25.375s-.1115.375-.25.375h-1c-.1385 0-.25-.16725-.25-.375s.1115-.375.25-.375zm2 0h1c.1385 0 .25.16725.25.375s-.1115.375-.25.375h-1c-.1385 0-.25-.16725-.25-.375s.1115-.375.25-.375z" fill="#bebebe"/></svg>