<svg height="16" width="16" xmlns="http://www.w3.org/2000/svg"><g fill="#bebebe"><path d="m9.7304688 1.8085938-8.92773442 2.5214843 2.04296872 7.2265629 2.0097657-.56836c-.2243664-.56694-.3574219-1.1794175-.3574219-1.8242185 0-2.7513689 2.2466789-4.9980469 4.9980469-4.9980469.0456159 0 .0835762.0241607.1289062.0253906.2765285.0074857.542687.0509538.806641.1015626zm-.234375 4.0234374c-1.8509651.0000002-3.3320313 1.4810661-3.3320313 3.3320313 0 .4912997.1089643.9526935.296875 1.3710935l5.3105465-1.4999998-.804687-2.8515624c-.444577-.2184076-.938585-.3515626-1.4707032-.3515626z" fill-opacity=".501961"/><path d="m9.3339844.33789062c-.067885.004021-.1368929.01493153-.2050782.03320313l-8.36914058 2.24218745c-.54549601.1461639-.87077618.7084109-.72460937 1.2539063l2.24218755 8.3691405c.1461657.545496.7103614.870773 1.2558593.72461l2.1699219-.582032c-.5157232-.607173-.8985703-1.328155-1.078125-2.130859l-1.7324219.464844-1.5078125-5.6328129-.0429687-.1601562 8.3671875-2.2421875.4218746 1.578125c.409828.053224.804581.1469211 1.177735.2929687l-.925782-3.453125c-.127893-.47730852-.5736338-.78595767-1.0488276-.75781248zm1.2734376 5.69531248.652344 2.4375-5.0312504 1.3476563c.1675137.8517186.660018 1.5786376 1.3398438 2.0605466l4.3339846-1.160156c.545498-.146164.870775-.710364.724609-1.2558594l-.685547-2.5527344c-.362587-.3936037-.817088-.6950326-1.333984-.8769531z"/><path d="m9.4959637 4.6664264c-2.4801876 0-4.4979222 2.0177335-4.4979222 4.4979221 0 2.4801885 2.0177346 4.4979225 4.4979222 4.4979225 1.1131763 0 2.1310343-.408572 2.9172723-1.080881l.138608.138608c-.03687.08742-.05983.18105-.05727.280469.000867.03054.01008.06025.02668.0859.638235.991643 1.392404 1.798149 2.192998 2.531383.02841.02606.06498.04148.103468.0436.358316.0195.674911-.0362.898022-.23687.223112-.200667.314109-.525515.276565-.944225-.0033-.03667-.01861-.07123-.0436-.09826-.736928-.792902-1.595938-1.511394-2.522923-2.18714-.0271-.01975-.05954-.03087-.09306-.03189-.0056-.000064-.0113.000142-.01692.000667-.08891.0062-.174149.03125-.255741.06507l-.147069-.147084c.672309-.786238 1.080881-1.804096 1.080881-2.9172725 0-2.4801886-2.017735-4.4979221-4.4979223-4.4979221zm0 .6663588c2.1200603 0 3.8315633 1.7115017 3.8315633 3.8315633 0 2.1200615-1.711503 3.8315635-3.8315633 3.8315635s-3.8315633-1.711502-3.8315633-3.8315635c0-2.1200616 1.711503-3.8315633 3.8315633-3.8315633z" fill-rule="evenodd"/></g></svg>