<svg height="16" width="16" xmlns="http://www.w3.org/2000/svg"><path d="m0 0c2.171828 2.4496199 1.2748896 5.7733305 2.6294642 6.8571429 1.3545749 1.0838123 2.4851655-.321864 4.2276787 1.1428571-1.4647212 1.5657365-2.8121699-.1779963-4.2276787 1.1428571-1.4155083 1.3208539-.4576356 4.4327769-2.6294642 6.8571429 2.4496194-2.171829 5.7733303-1.274889 6.8571429-2.629464 1.0838171-1.354575-.321864-2.485166 1.1428571-4.2276789 1.565736 1.4647209-.1779963 2.8121699 1.142857 4.2276789 1.320854 1.415509 4.432777.457635 6.857143 2.629464-2.171829-2.449619-1.274889-5.77333-2.629464-6.8571429-1.354575-1.0838125-2.485166.321864-4.227679-1.1428571 1.464721-1.5657365 2.81217.1779963 4.227679-1.1428571 1.415509-1.3208535.457635-4.4327768 2.629464-6.8571429-2.449619 2.171828-5.773331 1.2748896-6.857143 2.6294642-1.0838122 1.3545749.321864 2.4851655-1.142857 4.2276787-1.5657365-1.4647212.1779963-2.8121702-1.1428571-4.2276787-1.3208535-1.4155081-4.4327768-.4576362-6.8571429-2.6294642z" fill="#bebebe" fill-rule="evenodd"/></svg>