<svg height="16" width="16" xmlns="http://www.w3.org/2000/svg"><path d="m8 .5a7.5 7.5 0 0 0 -1.9492188.25976562l5.4492188 5.44921878v-4.8378906a7.5 7.5 0 0 0 -3.5-.8710938zm-2.9902344.6328125a7.5 7.5 0 0 0 -4.5097656 6.8671875 7.5 7.5 0 0 0 .35351562 2.244141l6.63476558-6.634766zm7.4902344.8789063v8.4882812h2.560547a7.5 7.5 0 0 0 .439453-2.5 7.5 7.5 0 0 0 -3-5.9882812zm-8 6-3.2480469 3.2480472a7.5 7.5 0 0 0 3.2480469 3.36914zm1 3.4882812v3.560547a7.5 7.5 0 0 0 2.5.439453 7.5 7.5 0 0 0 6.628906-4z" fill="#bebebe"/></svg>