<svg height="16" width="16" xmlns="http://www.w3.org/2000/svg"><path d="m8 0c-4.432 0-8 3.568-8 8s3.568 8 8 8 8-3.568 8-8-3.568-8-8-8zm.5957031 2.7441406.4003907 1.5996094c-2.3205021.4092109-6.9450448 2.7387863-1.5996094 3.5996094-4.3797929.037601-4.8004964 1.2003043-2.4003906 4.4003906-5.68559908-4.8428043.0774542-8.687185 3.5996093-9.5996094zm2.2460939 1.1542969c5.608247 4.7249266.890718 8.4860735-3.5703126 9.3574215l-.2753906-1.71289c2.3221023-.409212 6.9645762-2.5301553 1.6191406-3.3925784 4.3797936-.0360009 4.6066676-1.2122716 2.2265626-4.2519531z" fill="#bebebe" stroke-opacity=".550265" stroke-width="1.12"/></svg>