<svg height="16" width="16" xmlns="http://www.w3.org/2000/svg"><g fill="#bebebe" transform="translate(-463.00021 164.99852)"><path d="m473.0627-162.9375c-.41568-.0182-.62813.0274-.625.0312.006.008 1.72988.32697 2.03125.75 0 0-.71915.007-1.4375.21875-.0325.01 2.64053.33122 3.1875 3.0625 0 0-.29354-.64386-.65625-.75.23852.74134.16466 2.17583-.0625 2.875-.0292.0899-.0525-.38762-.5-.59375.14332 1.04923-.006 2.6978-.71875 3.15625-.0555.0357.43942-1.64894.0937-1-2.06368 3.2325-4.50486 1.31102-5.5.625.79871.19996 1.80035.0704 2.125-.15625.49572-.34615.79916-.59107 1.0625-.53125.26322.0601.42318-.22934.21875-.46875-.20466-.23989-.70268-.55471-1.375-.375-.47415.12687-1.04057.54268-1.9375 0-.7652-.46319-.67076-.69942-.67076-.93907 0-.23977.21387-.59107.59375-.53125.0851.0134.15074.009.1875 0 .18483.0422.35743.0964.53125.1875.008-.2241-.0292-.87345-.15625-1.23012.0106.004.0289.011.0312 0 .0384-.17687 1.05477-.18386 1.37388-.59643.20404-.26362.14073-.79683.14073-.79683h-1c-.52354.002-.97244-.75086-1.01451-.85669.11444-.62597.48612-.83952 1.01451-1.14331-.39748-.003-.18871 0-1 0-.52875 0-.84718.36158-1.01451.54956-.70058-.16587-1.38144-.25227-1.86049-.0609-.22125-.22941-.39604-.80055-.42188-1.48863 0 0-1.20486.73864-1.07812 2.55113-.002.14904-.0499.21348-.0625.3125-.13061.22845-.1553.40492-.125.375-.0656.13627-.15391.28402-.21875.46875-.0149.0362-.0495.0463-.0625.0937-.009.0322.002.0638 0 .0937-.11512.36099-.21516.98244-.3125 1.54262 0 0 .12424-.51425.3125-.88637-.15639.54353-.26211 1.54974-.1875 2.73012 0 0 .015-.20429.0625-.5.0465.80102.25925 1.72737.84375 2.75 1.46152 2.5575 3.89248 3.68885 6.4375 3.46875.44516-.0296.89639-.10834 1.34375-.21875 5.92923-1.46449 5.28125-8.78118 5.28125-8.78118l-.15625 1.09375s-.24147-1.99977-.53125-2.75c-.44412-1.14957-.62372-1.15791-.625-1.15625.29743.77226.21875 1.1875.21875 1.1875s-.51279-1.43939-1.90625-1.90625c-.82515-.27632-1.45932-.38807-1.875-.40625z"/><path d="m470.87695-164.01953c-.83043.0139-1.67042.17659-2.48047.5l-.46289.18359c.66083.79767 1.84339.43951 1.84339.43951 2.50802-.52344 5.12427.6034 6.44177 2.89252 1.49591 2.59908.85463 5.89258-1.50586 7.74219s-5.71108 1.68349-7.87695-.39062c-2.16588-2.07412-2.47623-5.41522-.73047-7.85352l.29101-.40625-.81445-.58203-.29101.40625c-2.03104 2.83673-1.66628 6.74516.85351 9.1582 2.5198 2.41305 6.43934 2.60693 9.18555.45508s3.49621-6.00355 1.75586-9.02734c-1.30527-2.26785-3.7177-3.55935-6.20899-3.51758z"/></g></svg>