<svg height="16" width="16" xmlns="http://www.w3.org/2000/svg"><path d="m3 1c-1.108 0-2 .892-2 2v10c0 1.108.892 2 2 2h10c1.108 0 2-.892 2-2v-10c0-1.108-.892-2-2-2zm8.371094 3.0078125h.050781v1.9765625h-.050781c-.83499 0-1.359068.3666012-1.7675784.9257812-.0069.0095001-.0105781.0212501-.0175781.03125h1.1464845v1.75h-2.0253908c-.0418799.0979-.0838531.1887094-.1269531.2871094-.33116.75615-.7102562 1.5180504-1.3164062 2.0878904-.60613.56984-1.4397956.944494-2.6660157.933594h-.0488281v-1.976562h.0488281c.8350001 0 1.3610213-.3666118 1.7695313-.9257818.40852-.5591699.6903244-1.3122093 1.0214844-2.0683593.33115-.75614.7122093-1.5161075 1.3183593-2.0859375.60614-.56984 1.4378528-.9464469 2.6640628-.9355469z" fill="#bebebe"/></svg>