<svg height="16" width="16" xmlns="http://www.w3.org/2000/svg"><path d="m8 0a8 8 0 0 0 -7.982422 7.6542969c.841192-.8205713 1.693607-1.4469488 2.572266-1.8867188.883258-.4420721 1.791816-.6784348 2.699218-.7304687.907403-.052034 1.814786.080326 2.69336.375 2.539745.8518304 4.922389 2.9044007 7.416016 5.6230466a8 8 0 0 0 .601562-3.035156 8 8 0 0 0 -8-8zm-2.591797 7.0136719c-.631036.035098-1.259668.2095802-1.921875.5410156-.979461.4902219-2.036126 1.3712267-3.150391 2.7207035a8 8 0 0 0 7.664063 5.724609 8 8 0 0 0 6.337891-3.132812c-2.587756-2.841236-4.93355-4.868127-6.992188-5.5585942-.673023-.2257322-1.306464-.3300195-1.9375-.2949219z" fill="#bebebe" fill-rule="evenodd"/></svg>