<svg height="16" width="16" xmlns="http://www.w3.org/2000/svg"><path d="m8 0a8 8 0 0 0 -8 8 8 8 0 0 0 8 8 8 8 0 0 0 8-8 8 8 0 0 0 -8-8zm.7109375 3.4570312c.7819223 0 1.2578125.2851668 1.2578125.7714844 0 .3528186-.3048113.6113282-.7148438.6113282-.3242116-.0000001-.4855286-.0869777-.6953124-.3730469-.0953566-.1334994-.1638361-.171875-.3164063-.171875-.3909611 0-.5911104.2955127-.7246094 1.0488281l-.1210937.65625h2.4960937l.0566407-.3125c.2383912-1.4017388 1.2589942-2.2304688 2.7656252-2.2304688.781923 0 1.259765.2851668 1.259765.7714844 0 .3528186-.304811.6113282-.714843.6113282-.324212-.0000001-.487482-.0965134-.697266-.3730469-.095356-.1334994-.161883-.171875-.314453-.171875-.390961 0-.591112.2955127-.724609 1.0488281l-.121094.65625h.847656a.5.5 0 0 1 .5.5.5.5 0 0 1 -.5.5h-1.029297l-.230469 1.2519531c-.305141 1.6878079-.383163 1.9648539-.640625 2.4511719-.142674.269984-.315204.510204-.5078121.724609l2.5253911-1.787109a.5.5 0 0 1 .289062-.0917969.5.5 0 0 1 .40625.2109375.5.5 0 0 1 -.119141.6972654l-6.083984 4.306641a.5.5 0 0 1 -.6972656-.119141.5.5 0 0 1 .1210937-.697265l2.3574219-1.669922c-.4207363.172511-.8842794.265625-1.3789062.265625-.7819223 0-1.2304688-.265407-1.2304688-.742188 0-.410033.3723675-.74414.8300781-.74414.2288553 0 .4186623.094677.609375.294921.2288554.238397.2860797.277344.4863281.277344.343283 0 .6578635-.238866.8867188-.667968.1621059-.314676.2949253-.791381.4570312-1.6972661l.4101563-2.2636719h-2.4960937l-.2304688 1.2519531c-.3051404 1.6782717-.3812097 1.9648539-.6386719 2.4511719-.3718899.705636-1.001854 1.286656-1.7265625 1.591797-.3909612.162106-.8578924.248047-1.3632812.248047-.7819223 0-1.2304688-.265407-1.2304688-.742188 0-.410033.3723676-.74414.8300782-.74414.2288552 0 .4186619.094677.609375.294921.228855.238397.2860797.277344.4863281.277344.343283 0 .6598165-.238866.8886719-.667968.1621059-.314676.2949253-.800916.4570312-1.6972661l.4101562-2.2636719h-.7070312a.5.5 0 0 1 -.5-.5.5.5 0 0 1 .5-.5h.8886719l.0566406-.3125c.2383909-1.4112744 1.2589942-2.2304688 2.765625-2.2304688z" fill="#bebebe" fill-rule="evenodd"/></svg>