<svg height="16" width="16" xmlns="http://www.w3.org/2000/svg"><g fill="#bebebe" transform="matrix(.37837838 0 0 .37837838 -1.08108 -1.08095)"><path d="m28.09375 9-2.46875 2.222656 2.474609-2.222656zm-6.308594 1.630859-3.785156 3.400391h-12.5v23.46875c0 1.108.892 2 2 2h18.84375l-3.8125-5.4375-.8125-1.125 1.0625-.875 6.6875-5.5625-14.125-7.34375-1.90625-1 1.59375-1.4375zm.722656 3.400391-3.851562 3.46875 14.1875 7.375 2 1.03125-1.71875 1.46875-7.375 6.09375 4.21875 6.03125h10.53125c1.108 0 2-.892 2-2v-23.46875z"/><path d="m42.5 14.03125v-3.53125c0-1.1080002-.892001-2-2-2h-11.84375l-6.15625 5.53125m-4.5 0 6.15625-5.53125h-16.65625c-1.108 0-2 .892-2 2v3.53125" fill-opacity=".501961"/></g></svg>