<svg height="16" viewBox="0 0 16 16" width="16" xmlns="http://www.w3.org/2000/svg"><path d="m0 .80078125c.1311002 1.44342305 1.1830599 1.77634435 1.2402344 3.31835935.030345.651239-.8270981 2.1476549-.8183594 3.0136719.00433.41041.20509175.7972992.54296875 1.0351563.64018775.45045 1.98191625.6328124 3.77343745.6328124h.1074219c-1.5130152 0-2.6468344.4016178-3.1875.7617188-.2853515.190149-.4553311.498081-.4589843.826172.0661974 2.196395.3717636 4.742274 2.8886718 4.810547 1.957447-.022009 2.8500745-2.081026 3.2382813-3.992188.1400536.230707.3831242.392578.6738281.392578s.5337745-.161871.6738281-.392578c.3882068 1.911162 1.2808346 3.970179 3.2382809 3.992188 2.516908-.068273 2.822474-2.614152 2.888672-4.810547-.003653-.328091-.173633-.636023-.458984-.826172-.540666-.360101-1.674484-.7617188-3.1875-.7617188h.107422c1.791521 0 3.133249-.1823624 3.773437-.6328124.337877-.2378572.538644-.6247463.542969-1.0351563.0087-.866017-.848704-2.3624329-.818359-3.0136719.057175-1.542015 1.109134-1.8749364 1.240234-3.31835935-3.564822 0-6.2846608 4.39024145-7.2207031 6.73828125-.3240484-.7344411.4199219-.7617621.4199219-1.5390625 0-.2736056-.1075562-.5129855-.2617188-.7148438l1.462891-3.0859374c-1.2030623-.017052-1.616784 1.5547127-1.744141 2.8242187-.1913889-.1291114-.4080131-.2226563-.65625-.2226563-.2472598 0-.463354.0925217-.6542969.2207032-.1276172-1.2691452-.5398075-2.839308-1.7421875-2.8222656l1.4589844 3.0839843c-.154758.202073-.2617187.4426086-.2617188.7167969 0 .7773004.7439703.8046214.4199219 1.5390625-.9360423-2.3480398-3.6558812-6.73828125-7.2207031-6.73828125zm2 1.19921875a.40000001.40000001 0 0 1 .4003906.4003906.40000001.40000001 0 0 1 -.4003906.4003906.40000001.40000001 0 0 1 -.4003906-.4003906.40000001.40000001 0 0 1 .4003906-.4003906zm12 0a.40000001.40000001 0 0 1 .400391.4003906.40000001.40000001 0 0 1 -.400391.4003906.40000001.40000001 0 0 1 -.400391-.4003906.40000001.40000001 0 0 1 .400391-.4003906zm-10.5996094 1.8496094a.60000002.60000002 0 0 1 .5996094.5996094.60000002.60000002 0 0 1 -.5996094.6015624.60000002.60000002 0 0 1 -.5996094-.6015624.60000002.60000002 0 0 1 .5996094-.5996094zm9.1992184 0a.60000002.60000002 0 0 1 .59961.5996094.60000002.60000002 0 0 1 -.59961.6015624.60000002.60000002 0 0 1 -.599609-.6015624.60000002.60000002 0 0 1 .599609-.5996094zm-10.1992184 2.1503906a.80000001.80000001 0 0 1 .7988282.8007812.80000001.80000001 0 0 1 -.7988282.7988282.80000001.80000001 0 0 1 -.8007812-.7988282.80000001.80000001 0 0 1 .8007812-.8007812zm11.1992184 0a.80000001.80000001 0 0 1 .800782.8007812.80000001.80000001 0 0 1 -.800782.7988282.80000001.80000001 0 0 1 -.798828-.7988282.80000001.80000001 0 0 1 .798828-.8007812zm-10.599609 4.400391a.60000002.60000002 0 0 1 .5996094.599609.60000002.60000002 0 0 1 -.5996094.599609.60000002.60000002 0 0 1 -.5996094-.599609.60000002.60000002 0 0 1 .5996094-.599609zm10 0a.60000002.60000002 0 0 1 .599609.599609.60000002.60000002 0 0 1 -.599609.599609.60000002.60000002 0 0 1 -.599609-.599609.60000002.60000002 0 0 1 .599609-.599609zm-9 2.40039a.80000001.80000001 0 0 1 .8007812.798828.80000001.80000001 0 0 1 -.8007812.800782.80000001.80000001 0 0 1 -.8007812-.800782.80000001.80000001 0 0 1 .8007812-.798828zm8 0a.80000001.80000001 0 0 1 .800781.798828.80000001.80000001 0 0 1 -.800781.800782.80000001.80000001 0 0 1 -.800781-.800782.80000001.80000001 0 0 1 .800781-.798828z" fill="#bebebe" stroke-width=".4"/><circle cx="14" cy="6" fill="#fff" r="0"/></svg>