<svg height="16" width="16" xmlns="http://www.w3.org/2000/svg"><path d="m54.135441 10.855112-41.05903 42.04245c-15.546623 15.541759 10.065442 14.246612 19.333621 20.124585 4.285287 2.789547-13.752782 6.376107-10.065442 10.062293 3.587682 3.686186 21.625751 7.073493 25.213434 10.660053 3.587682 3.686186-7.275023 7.571627-3.68734 11.257817 3.488024 3.68618 11.859283.19925 13.35415 8.56789 1.096236 6.17685 15.347308 3.08842 21.725409-2.19179 3.986314-3.38731-6.876391-3.38731-3.288708-7.07349 8.969205-9.066027 16.941832-4.08469 20.230541-12.453334 1.793841-4.4832-13.553466-7.671253-9.467495-10.560426 9.766469-6.874239 45.643289-10.361173 29.100089-26.899198l-42.553897-43.53685c-5.281866-4.9813335-13.952098-4.9813335-18.835332 0zm47.138159 80.996474c0 2.09216 16.24423 3.28768 15.34731-.498133-1.29556-6.376106-13.55347-5.877973-15.34731.498133zm-69.262199 11.058564c3.68734 3.18805 9.268179-.69739 11.06202-5.180591-3.587682-4.682453-16.842175.29888-11.06202 5.180591zm67.269042-6.674991c-4.584261 4.184321.797267 8.567891 5.281867 5.678721 1.19589-.79701-.0997-4.682454-5.281867-5.678721z" fill="none" stroke-width=".996422"/><g fill="#bebebe"><g transform="matrix(.64173738 0 0 .64173738 -84.482968 -408.19205)"><path d="m146.50761 646.99554c-3.02886 0-5.51073 2.47905-5.51073 5.50447 0 3.02541 2.48187 5.50446 5.51073 5.50446 3.02885 0 5.51072-2.47905 5.51072-5.50446 0-3.02542-2.48187-5.50447-5.51072-5.50447zm0 2.00893c1.94735 0 3.49951 1.55039 3.49951 3.49554 0 1.94514-1.55216 3.49553-3.49951 3.49553-1.94736 0-3.49952-1.55039-3.49952-3.49553 0-1.94515 1.55216-3.49554 3.49952-3.49554z"/><path d="m149.8125 655a1.0001 1.0001 0 0 0 -.5 1.71875l4 4a1.0054782 1.0054782 0 1 0 1.40625-1.4375l-4-4a1.0001 1.0001 0 0 0 -.90625-.28125z"/></g><path d="m3.1875 0c-1.2016 0-2.1875.98758-2.1875 2.1875v11.625c0 1.19992.9859 2.1875 2.1875 2.1875h9.486328l-1.453125-1.453125c-.541994.231089-1.05986.527344-1.6835936.527344-1.0995968 0-2.0998955-.414447-2.8886719-1.074219h-3.4609375c-.1238 0-.1875-.0566-.1875-.1875v-11.625c0-.1309.0637-.1875.1875-.1875h9.625c.1238 0 .1875.0566.1875.1875v5.4707031c.658606.7871896 1.072266 1.7853946 1.072266 2.8828129 0 .621498-.295199 1.138572-.525391 1.679687l1.453125 1.451172v-11.484375c0-1.19992-.9859-2.1875-2.1875-2.1875z"/></g></svg>