<svg height="16" width="16" xmlns="http://www.w3.org/2000/svg"><g fill="#bebebe"><path d="m12.863281 2.0625c-.108182-.016701-.205244.041596-.263672.109375-.05843.067779-.09946.1518956-.134765.2578125-.06106.1831724-.285179.8630183-1.09375 1.5351563-.599217.4981103-1.523177.9872605-2.9433596 1.2324218-.2904381-.1639009-.6213175-.2460937-.953125-.2460937-.4036722 0-.8057978.1252924-1.1347656.3691406-1.9256936-.1810535-2.7617188-1.8671875-2.7617188-1.8671875l-.3125-.6464844-.015625.71875-.0527344 2.2636719c-.1370038.2327734-.2246091.5116981-.2246094.8398437.0000003.0281761.0066326.0525542.0078126.0800782-.5806745-.6112303-1.2334864-.8594885-1.7871094-.7714844-.21860204.0347492-.42122382.1182657-.59570315.2441406-.69791697.5034989-.8820269 1.6448264-.01953125 2.8398438.36158442.5014222.8339202.8544275 1.3183594 1.0195316.2952582.100628.5979329.130141.8789062.074218.248502.179714.5205345.355989.8125.523438 1.2477144.715598 2.8457425 1.280202 4.3984375 1.30664.6252319.010648 1.2424268-.074728 1.8242188-.271484-.7303153-.407049-1.2910157-.753906-1.2910157-.753906l-.0097656-.007813-.015625-.011718-.0253906-.019532-.0195312-.017578c-.1872533-.157864-.3437032-.393857-.4453126-.658203-.7355184.001004-1.6494468-.18885-2.71875-.5664061 1.1191172.223833 1.9631784.2352438 2.6269532.1328125-.0140865-.2185918.0057355-.4426566.1152344-.6660156.2054759-.4191469.5489586-.6554398.9785156-.7304688.324563-.0376331.6123525.0376123.9296875.1464844.1316771.0366654 1.2624891.4738991 2.3847651 1.015625.824076-1.4851317 1.200573-3.7332028.835938-7.0429688v-.0019531c-.012755-.1000806-.035626-.1868436-.076172-.2617187-.040546-.0748753-.108614-.1512672-.216797-.1679688zm-5.3886716 3.2363281c.023402 0 .0450034.0107518.0683594.0117188.351638.014553.6972633.1282532.9550781.3574219.274938.2443898.4589844.6042682.4589843 1.1132812 0 .509012-.1840463.8688913-.4589843 1.1132812-.274939.24439-.647706.3710938-1.0234375.3710938-.3757316 0-.7504522-.1267038-1.0253906-.3710938-.2749384-.2443901-.4589844-.6042692-.4589844-1.1132812 0-.509013.1840457-.8688913.4589844-1.1132812.2408079-.214052.561136-.3186443.8886718-.3457032.046423-.00384.090076-.023437.1367188-.0234375zm-2.9160156.0917969c.3143522 0 .6265647.1051236.8554687.3085938.228904.2034698.3828125.5025145.3828125.9296874 0 .4271742-.1539085.7242644-.3828125.9277344s-.5411165.3105469-.8554687.3105469c-.3143526 0-.6265648-.1070769-.8554688-.3105469s-.3828125-.5005604-.3828125-.9277344c0-.4271729.1539085-.7262174.3828125-.9296874s.5411163-.3085938.8554688-.3085938z" fill-rule="evenodd"/><path d="m9.177764 9.3609328c-.10772.018815-.206169.090411-.252273.1844576-.09221.1880932-.0084.405741.167504.5540506l.0054.0041.0054.0041s1.637148 1.177414 3.067963 1.683853c.0011.0041.000834.0081.002.01221l.0529.179711.216331-.08206.02577.02441 1.198974.437408c.0318.332507.241585.669528.646958.824634.873216.33402 1.685309.752693 1.685309.752693-.416487-1.413761-.564242-2.53649-1.652658-2.436603-.123739.01136-.229246.04805-.320089.100366l-1.07555-.689003-.03255-.0034-.07866-.250917-.172251.108505c-1.27008-.810747-3.176475-1.3583427-3.176475-1.3583427l.02509.00949c-.118119-.055017-.231356-.078491-.339076-.059675z"/></g></svg>