<svg height="16" width="16" xmlns="http://www.w3.org/2000/svg"><path d="m217.61511 504.96709c-.40922.77797-3.19307 1.80218-4.90152-2.00307-1.47908-3.29436-1.68583.32115-2.87022 1.51322-.77112.77613-2.30994 4.64864-5.90865-4.0962-1.73201-4.20877-2.09733-6.89317-1.14724-8.31389.99298-1.48485 2.22716-2.06059 3.83648-2.06712 3.64021-.0148 3.77418 5.24244 2.35374 7.13088-.94208 1.25248-1.43526 3.17146-1.01302 3.97073.53713 1.01672.71999 1.09403 2.12361-1.83557 1.32849-2.77278 3.187-2.05358 3.92304.20893.64058 1.96909.837 3.26091 1.83223 3.79112 1.24147.66139 2.21821.85182 1.77155 1.70097z" fill="#bebebe" fill-rule="evenodd" transform="translate(-202.0002 -490)"/></svg>