<svg height="16" width="16" xmlns="http://www.w3.org/2000/svg"><path d="m54.135441 10.855112-41.05903 42.04245c-15.546623 15.541759 10.065442 14.246612 19.333621 20.124585 4.285287 2.789547-13.752782 6.376107-10.065442 10.062293 3.587682 3.686186 21.625751 7.073493 25.213434 10.660053 3.587682 3.686186-7.275023 7.571627-3.68734 11.257817 3.488024 3.68618 11.859283.19925 13.35415 8.56789 1.096236 6.17685 15.347308 3.08842 21.725409-2.19179 3.986314-3.38731-6.876391-3.38731-3.288708-7.07349 8.969205-9.066027 16.941832-4.08469 20.230541-12.453334 1.793841-4.4832-13.553466-7.671253-9.467495-10.560426 9.766469-6.874239 45.643289-10.361173 29.100089-26.899198l-42.553897-43.53685c-5.281866-4.9813335-13.952098-4.9813335-18.835332 0zm47.138159 80.996474c0 2.09216 16.24423 3.28768 15.34731-.498133-1.29556-6.376106-13.55347-5.877973-15.34731.498133zm-69.262199 11.058564c3.68734 3.18805 9.268179-.69739 11.06202-5.180591-3.587682-4.682453-16.842175.29888-11.06202 5.180591zm67.269042-6.674991c-4.584261 4.184321.797267 8.567891 5.281867 5.678721 1.19589-.79701-.0997-4.682454-5.281867-5.678721z" fill="none" stroke-width=".996422"/><path d="m7 0v1.5800781a6.5 6.5 0 0 0 -2.828125 1.1777344l-1.1210938-1.1210937-1.4140624 1.4140624 1.1191406 1.1191407a6.5 6.5 0 0 0 -1.1699219 2.8300781h-1.5859375v2h1.5800781a6.5 6.5 0 0 0 1.1777344 2.828125l-1.1210937 1.121094 1.4140624 1.414062 1.1191407-1.11914a6.5 6.5 0 0 0 2.8300781 1.169921v1.585938h2v-1.580078a6.5 6.5 0 0 0 2.828125-1.177734l1.121094 1.121093 1.414062-1.414062-1.11914-1.119141a6.5 6.5 0 0 0 1.169921-2.830078h1.585938v-2h-1.580078a6.5 6.5 0 0 0 -1.177734-2.828125l1.121093-1.1210938-1.414062-1.4140624-1.119141 1.1191406a6.5 6.5 0 0 0 -2.830078-1.1699219v-1.5859375z" fill="#bebebe"/></svg>