<svg height="16" width="16" xmlns="http://www.w3.org/2000/svg"><g fill="#bebebe" fill-rule="evenodd"><path d="m8 0a8 8 0 0 0 -4.3535156 1.2910156l2.265625 3.9238282c.5858695-.4416202 1.3040996-.7148438 2.0878906-.7148438.7689799 0 1.4766454.2608852 2.056641.6875l2.259765-3.9140625a8 8 0 0 0 -4.316406-1.2734375zm-8 8a8 8 0 0 0 4.3300781 7.101562l2.2578125-3.908203c-1.2242124-.54732-2.0878906-1.7745173-2.0878906-3.193359zm11.5 0c0 1.4343346-.881418 2.674773-2.1269531 3.212891l2.2597651 3.914062a8 8 0 0 0 4.367188-7.126953z"/><circle cx="8" cy="8" r="2.5"/></g></svg>