<svg height="16" width="16" xmlns="http://www.w3.org/2000/svg"><g fill="#bebebe"><path d="m7.5 12a3.5 3.5 0 0 1 -3.5 3.5 3.5 3.5 0 0 1 -3.5-3.5 3.5 3.5 0 0 1 3.5-3.5 3.5 3.5 0 0 1 3.5 3.5z"/><path d="m15.5 12a3.5 3.5 0 0 1 -3.5 3.5 3.5 3.5 0 0 1 -3.5-3.5 3.5 3.5 0 0 1 3.5-3.5 3.5 3.5 0 0 1 3.5 3.5z"/><path d="m15.5 4a3.5 3.5 0 0 1 -3.5 3.5 3.5 3.5 0 0 1 -3.5-3.5 3.5 3.5 0 0 1 3.5-3.5 3.5 3.5 0 0 1 3.5 3.5z"/><path d="m4 .5c-1.9270743 0-3.5 1.5729257-3.5 3.5s1.5729257 3.5 3.5 3.5 3.5-1.5729257 3.5-3.5-1.5729257-3.5-3.5-3.5zm0 1c1.3866342 0 2.5 1.1133658 2.5 2.5s-1.1133658 2.5-2.5 2.5-2.5-1.1133658-2.5-2.5 1.1133658-2.5 2.5-2.5z"/></g></svg>