<svg height="16" width="16" xmlns="http://www.w3.org/2000/svg"><g fill="#bebebe"><path d="m2 12c-1.10160834 0-2 .898392-2 2s.89839166 2 2 2c1.1016083 0 2-.898392 2-2s-.8983917-2-2-2z"/><path d="m6 12c-1.1016083 0-2 .898392-2 2s.8983917 2 2 2 2-.898392 2-2-.8983917-2-2-2z"/><path d="m10 12c-1.1016083 0-2 .898392-2 2s.8983917 2 2 2c1.101608 0 2-.898392 2-2s-.898392-2-2-2z"/><path d="m14 12c-1.101608 0-2 .898392-2 2s.898392 2 2 2 2-.898392 2-2-.898392-2-2-2z"/><path d="m2 8c-1.10160834 0-2 .8983917-2 2 0 1.101608.89839166 2 2 2 1.1016083 0 2-.898392 2-2 0-1.1016083-.8983917-2-2-2zm0 .5c.8313883 0 1.5.6686117 1.5 1.5 0 .831388-.6686117 1.5-1.5 1.5s-1.5-.668612-1.5-1.5c0-.8313883.6686117-1.5 1.5-1.5z"/><path d="m6 8c-1.1016083 0-2 .8983917-2 2 0 1.101608.8983917 2 2 2s2-.898392 2-2c0-1.1016083-.8983917-2-2-2z"/><path d="m10 8c-1.1016083 0-2 .8983917-2 2 0 1.101608.8983917 2 2 2 1.101608 0 2-.898392 2-2 0-1.1016083-.898392-2-2-2zm0 .5c.831388 0 1.5.6686117 1.5 1.5 0 .831388-.668612 1.5-1.5 1.5-.8313883 0-1.5-.668612-1.5-1.5 0-.8313883.6686117-1.5 1.5-1.5z"/><path d="m14 8c-1.101608 0-2 .8983917-2 2 0 1.101608.898392 2 2 2s2-.898392 2-2c0-1.1016083-.898392-2-2-2zm0 .5c.831388 0 1.5.6686117 1.5 1.5 0 .831388-.668612 1.5-1.5 1.5s-1.5-.668612-1.5-1.5c0-.8313883.668612-1.5 1.5-1.5z"/><path d="m10 4c-1.1016083 0-2 .8983917-2 2s.8983917 2 2 2c1.101608 0 2-.8983917 2-2s-.898392-2-2-2z"/><path d="m14 4c-1.101608 0-2 .8983917-2 2s.898392 2 2 2 2-.8983917 2-2-.898392-2-2-2zm0 .5c.831388 0 1.5.6686117 1.5 1.5s-.668612 1.5-1.5 1.5-1.5-.6686117-1.5-1.5.668612-1.5 1.5-1.5z"/><path d="m14 0c-1.101608 0-2 .89839166-2 2 0 1.1016083.898392 2 2 2s2-.8983917 2-2c0-1.10160834-.898392-2-2-2z"/></g></svg>