<svg height="16" width="16" xmlns="http://www.w3.org/2000/svg"><g fill="#bebebe" fill-rule="evenodd"><path d="m6.49822 10.493707a.50009807.50009807 0 0 0 -.4336357.251977l-2.0001923 3.494477a.50009807.50009807 0 0 0 .4336357.748119l9.0008633.01172a.50009807.50009807 0 0 0 .433636-.251977l2.000192-3.506196a.50009807.50009807 0 0 0 -.433636-.74812z"/><path d="m7.4688981 6.3297005a.50005.50005 0 0 0 -.0014-.5014797l-2.0260151-3.4791217a.50005.50005 0 0 0 -.8646247.00148l-4.51014898 7.788368a.50005.50005 0 0 0 .001401.501476l2.03616298 3.48498a.50005.50005 0 0 0 .864626-.0015z"/><path d="m10.594844 9.2436985a.50009807.50009807 0 0 0 .435036.2495515l4.026403-.015021a.50009807.50009807 0 0 0 .431071-.7495993l-4.49028-7.80083713a.50009807.50009807 0 0 0 -.435034-.24954889l-4.0365648.02088091a.50009807.50009807 0 0 0 -.4310553.74961011z"/></g></svg>