<svg height="16" width="16" xmlns="http://www.w3.org/2000/svg"><g fill="#bebebe" transform="translate(-463.00021 164.99852)"><circle cx="471.00021" cy="-156.99846" r="2.422955" stroke-width=".075717"/><path d="m8 0a8 8 0 0 0 -6.3925781 3.203125l2.7578125 4.7734375a3.636364 3.636364 0 0 1 .0019531-.0566406v-.0117188c0-.0033754.001945-.006392.0019531-.0097656a3.636364 3.636364 0 0 1 .0527344-.5292969c.2677227-2.0222471 1.986408-3.5957031 4.0800781-3.5957031h6.2792969a8 8 0 0 0 -6.78125-3.7734375zm-7.05273438 4.2382812a8 8 0 0 0 -.94726562 3.7617188 8 8 0 0 0 7.0410156 7.931641l2.7578125-4.773438-.0566406.033203-.0039063.001953c-.0087789.005069-.0185425.006723-.0273437.011719a3.636364 3.636364 0 0 1 -.4414063.199219c-1.8909915.796062-4.1300846.094796-5.1816406-1.7265626zm8.88671878.625.0605468.0351563c.0086485.0049931.0148388.0125314.0234376.0175781a3.636364 3.636364 0 0 1 .4335932.3105469c1.604365 1.2461847 2.101954 3.5151138 1.058594 5.3222655l-3.1406248 5.4375a8 8 0 0 0 7.7304688-7.986328 8 8 0 0 0 -.640625-3.1367188z" transform="translate(463.00021 -164.99852)"/></g></svg>