<svg height="16" width="16" xmlns="http://www.w3.org/2000/svg"><path d="m8 0c-4.432 0-8 3.568-8 8 0 .4609695.04693934.9103758.12109375 1.3496094l4.88671875-1.1542969a3 3 0 0 1 -.0078125-.1953125 3 3 0 0 1 3-3 3 3 0 0 1 3 3 3 3 0 0 1 -.011719.2265625l4.876953 1.2089844c.083864-.4660024.134766-.9446733.134766-1.4355469 0-4.432-3.568-8-8-8zm-2.7617188 9.1660156-4.8945312 1.1582034c.40078704 1.330708 1.1385014 2.508807 2.1132812 3.445312l3.25-3.8378904a3 3 0 0 1 -.46875-.765625zm5.5117188.0292969a3 3 0 0 1 -.9863281 1.2265625l2.2402341 4.503906c1.714604-.990039 3.025737-2.59154 3.628906-4.517578zm-4.2773438 1.3828125-3.25 3.835937c1.3324818.992385 2.9808612 1.585938 4.7773438 1.585938 1.1049246 0 2.155704-.221418 3.111328-.623047l-2.2421874-4.507812a3 3 0 0 1 -.8691406.130859 3 3 0 0 1 -1.5273438-.421875z" fill="#bebebe" stroke-opacity=".55" stroke-width="1.12"/></svg>