<svg height="16" viewBox="0 0 12 12" width="16" xmlns="http://www.w3.org/2000/svg"><g fill="#bebebe" fill-rule="evenodd"><path d="m6.6796875.97070312-5.3554687.00390626-.3242188.32421872v.9667969l.3242188.3242188h.6757812v11.1406252l.3789062.324219h1.2597657l.8222656-.853516.6015625-1.800781h-.4785156l.8203125-2.400391h.5l-.0292969-.0410156.5292969-1.5742188.7773437-.5859375h1.671875l.7011719 1.0527344-.0332031.0996094 5.4785156-5.6855469v-.9667969l-.378906-.32421872h-4.933594l-.3730469.32421872v.9667969l.3203125.3242188h.6796874l-4.314453 4.5195312v-4.5195312h.6796875l.3203125-.3242188v-.9667969z" transform="scale(.75)"/><path d="m11.302396 7.4997146.232684.3317564-.739625 2.371105h.297421l-.099281.297424h-1.200855l.701461-2.1001998h-1.052147l-.59846 1.8027758h.297216l-.099071.297424h-1.2008593l.7014613-2.1001998h-1.0523539l-.5982528 1.8027758h.3011453l-.1029991.297424h-1.2008582l.9034358-2.6991401h-.3011454l.0990707-.3011453h1.1017876l.3011453.3011453h.2974223l.3011454-.3011453h.899713l.301145.3011453h.301146l.301349-.3011453z"/><path d="m5.1380167 10.5.099071-.297424h-.3011445l.9034359-2.7029493h-1.2502906l-.1029993.3012332h.3507847l-.8997129 2.6991401"/><path d="m6.1368014 6.6012888.2020735-.6022905-.0990705-.1487112h-.6024975l-.1981437.1487112-.2020734.6022905.1029992.1487112h.6022905"/></g></svg>