<svg height="16" width="16.000002" xmlns="http://www.w3.org/2000/svg"><g fill="#bebebe" transform="translate(-123.0002 -669)"><path d="m125.5002 670c-1.385 0-2.5 1.11499-2.5 2.5v1.4375c.71291-.50478 1.57073-.94508 2.5-.94508h7.0625c1.26706 0 2.41714.69286 3.21875 1.57008l3.21875-2.5625h-4c-.23235-1.14125-1.22562-2-2.4375-2z"/><path d="m125.5002 675c-1.385 0-2.5 1.11499-2.5 2.5v5c0 1.385 1.115 2.5 2.5 2.5h7.0625c1.38501 0 2.48022-1.11514 2.5-2.5v-2.375l3.9375-3.125h-4c-.23235-1.14125-1.22562-2-2.4375-2zm3.9375 1c1.31394-.0736 2.4889.93606 2.5625 2.25-.00008 1.12109-.30842 1.54366-1.28125 2.28125-.15274.11491-.24173.20048-.28125.25-.0395.0497-.0312.0328-.0312.0312.006.42265-.3898.78125-.8125.78125s-.78685-.3586-.78125-.78125c0-.40191.17939-.75474.375-1 .19561-.24531.38054-.42561.5625-.5625.16324-.12845.38116-.31388.5625-.53125.0748-.0897.097-.23988.0937-.34375v-.0312c-.0253-.45059-.39316-.77528-.84375-.75-.45059.0253-.77528.36191-.75.8125h-1.625c-.0736-1.31395.93606-2.33257 2.25-2.40625zm.15625 6.40625c.44182 0 .8125.37067.8125.8125 0 .44182-.37068.78125-.8125.78125s-.78125-.33943-.78125-.78125c0-.44183.33943-.8125.78125-.8125z"/></g></svg>