<svg height="17.001059" width="16" xmlns="http://www.w3.org/2000/svg"><g fill="#bebebe" transform="translate(-103.0002 -668.99909)"><path d="m105.84375 669c-1.08551.0845-1.86273.94343-1.84375 2.03125v12.9375c-.0172 1.15954.87136 2.04816 2.03125 2.03125h9.9375c1.16021.0172 2.04809-.87208 2.03125-2.03125v-9.96875c-.008-.53261-.2464-1.00057-.625-1.375-.007-.007.007-.0243 0-.0312l-2.9375-2.96875c-.01-.0103-.0212-.0212-.0312-.0312-.37287-.37334-.87682-.58621-1.4063-.59385h-6.9375c-.0105-.00033-.0208.0002-.0312 0-.0314-.0006-.0624-.0006-.0937 0-.0105.0002-.0208-.00033-.0312 0v.8125l-.0625-.8125zm.15625 2h.0312 6.9375.0312v.0312l2.96875 2.96875h.0312v.0312 9.9375.0312h-.0312-9.9375-.0312v-.0312-12.9375-.0312z"/><path d="m111 674.875c-2.24078 0-4.0625 1.82172-4.0625 4.0625s1.82172 4.0625 4.0625 4.0625 4.0625-1.82172 4.0625-4.0625-1.82172-4.0625-4.0625-4.0625zm0 1c1.70408 0 3.0625 1.35842 3.0625 3.0625s-1.35842 3.0625-3.0625 3.0625-3.0625-1.35842-3.0625-3.0625 1.35842-3.0625 3.0625-3.0625z"/><path d="m111 676.9375c-1.09935 0-2 .90065-2 2s.90065 2 2 2 2-.90065 2-2-.90065-2-2-2zm0 1c.56265 0 1 .43735 1 1s-.43735 1-1 1-1-.43735-1-1 .43735-1 1-1z"/><path d="m109.33129 675.59968c-.76818.30889-1.36366.91476-1.66891 1.68481l1.90732.95366c.12816-.32566.37765-.59537.69936-.73114zm3.33782 0-.93777 1.90733c.32171.13577.5712.40548.69936.73114l1.90732-.95366c-.30524-.77005-.90073-1.37592-1.66891-1.68481zm-3.09941 4.06897-1.90732.95366c.30877.75714.9099 1.34782 1.66891 1.65302l.95366-1.90733c-.31881-.12998-.58152-.3825-.71525-.69935zm2.861 0c-.13373.31685-.39644.56937-.71525.69935l.95366 1.90733c.75901-.3052 1.36014-.89588 1.66891-1.65302z"/></g></svg>