<svg height="16" viewBox="0 0 4.2333332 4.2333332" width="16" xmlns="http://www.w3.org/2000/svg"><path d="m1.4967125.16968065c-.032316-.00294-.083846.019379-.1043839.060466-.020537.041077-.015026.075284-.00413.1028335.015426.039003.027828.067308.051405.1081457.043676.075648.064307.2739051.06951.4800541.00846.33525075.00145.55947665-.036689.93948705-.07772.7579518-.1710015.8295059-.1984328.9239686-.028842.099605-.2114938.3904609-.45154984.5979846-.3522134.3044816-.4796141.3404789-.7312094.4681887-.1304367.06621-.089885.1534511-.065715.1812716.053366.061427.1918126.017184.2774961.00513.73613604-.1307706 1.15430294-.6811265 1.30892534-.9565148.1193551-.212576.1680199-.4346752.2227211-.6221241.3269256.4692165.6205032.88595.769961 1.0975825.1513626.2143296.3619116.41618.5638037.4443604.2106859.029408.4282179.015956.7399581 0 .2495242-.0127711.2992129-.0643767.3188354-.1100729.0246626-.0574333-.0297914-.1268354-.0826809-.1467582-.1498844-.0564597-.3159132-.1058759-.4717209-.1662272-.1558076-.0603515-.3053245-.1239288-.4372323-.1997772-.2185602-.1256746-.4478412-.3156608-.6883142-.5622265-.2295594-.2353757-.4354281-.5005984-.6273373-.7859794.000772-.2284373.012342-.5077418.036172-.8417902.018457-.178258.037302-.31920455.055293-.42115305.018029-.1021615.041616-.1706415.044958-.1762121.029795-.0587737.034602-.1240787-.00207-.1875962-.033209-.0498064-.077574-.0741946-.1441739-.0981828-.1273832-.0622386-.2788288-.1226-.4133994-.1348581zm1.4308865.7864903c0 .042817-.054517.15083545-.1803463.27542865-.016647.016484-.1084334.1223828-.2188378.2294607-.1104044.1070778-.239427.2153347-.2973943.2997935-.010272.014967-.025333.047036-.00207.089393.042073.076614.1190345.047319.1353891.042827.029932-.00822.063758-.020428.1054174-.041337.3757044-.1857161.8450911-.4960472.9446159-.4960472.044581-.00331.069102-.025118.097144-.042347.029817-.018319.049608-.062395.049608-.1012835 0-.076934-.050425-.1159224-.1018002-.1689775-.0939059-.09697395-.1802768-.18023285-.2754287-.23460685-.026964-.0154089-.0489464-.0270485-.0831969-.0325576-.0755394-.0121502-.1731002.0228083-.1731002.1802538zm-2.55223904.10490725c-.027434.026798-.035656.061935-.035656.088364 0 .052856.018323.094893.045475.1508919.02715.055996.066042.122763.1167861.2020492.082221.1332932.1911438.2521765.2914483.3482914.038841.037217.0927.056796.1519251.044957.05922804-.011849.09850904-.063295.11626934-.1121357.0548733-.1508987.0519145-.2951141-.0320394-.3973826-.07784634-.1070201-.21764364-.1954997-.41546884-.300233-.1187409-.0628644-.1904574-.0719667-.2387396-.0248022z" fill="#bebebe" stroke-width=".999927"/></svg>