<svg height="16" viewBox="0 0 4.2333332 4.2333332" width="16" xmlns="http://www.w3.org/2000/svg"><path d="m1.696589.12044425c-.02723.0037139-.05846.01650989-.074423.04444735-.021683.04529972-.018416.1218052.027395.1721038.017442.0174422.048148.12491853.066155.25996513.018006.13504663.031104.31513837.037212.54112027.012264.4414674.017572.907853.017572 1.39854 0 .2389666-.00374.4286424-.00982.5685124-.015195.083571.00672.3339427-.093546.3514434-.08281.014453-.2091573-.015309-.2754653-.033077-.036425-.00897-.064496-.017572-.089929-.017572-.047296 0-.064556.012666-.080108.037217-.01305.028247-.011704.044399.00414.07184.016353.033296.068491.074907.1090509.099751.1316978.08067.2239342.1688251.2796047.2578977.053401.09368.1372252.290872.2635837.232574.1589396-.091764.2316038-.3219044.2578972-.4728987.025768-.1546097.026412-.3664893.0020699-.6367338-.0105146-.2313138-.0209893-.5927449-.0315268-.9964468.3794525.4101408.750612.9631834 1.1313442 1.248667.1068414.061685.2929788.042899.4139854.042899.1512196 0 .2931098-.017989.4356922-.056851.032329-.0097.058332-.019045.080109-.029459.074485-.029877.08318-.099651.038729-.1385299-.0198327-.0162258-.039228-.0223566-.064086-.0294583-.082754-.0236481-.2085142-.0715767-.3793527-.1250727-.2295114-.0718687-.3442494-.1716968-.4920234-.2558338-.3152358-.1849351-.5621467-.4420658-.8088359-.6522359.1891232-.155415.3705786-.3029749.5390531-.4377544.0972014-.078975.1797173-.1381397.2444603-.1793397.0647426-.0412005.1145885-.0630277.1364429-.0666716.0546343-.0106023.0969616-.0506078.1074981-.0899307.0136428-.0509154-.0152271-.1010178-.0372147-.1230054-.0561457-.0837176-.1470119-.16242389-.2733973-.23825535-.0671086-.04026219-.125825-.06265154-.1855417-.03876221-.059194.02898937-.0841741.10058847-.0801081.16590202.0052188.08383044-.0476599.22263514-.1912275.40209334-.1222012.1555297-.2649606.3054991-.4181147.451192-.0806771-.0888141-.1518248-.1646653-.2031139-.2165514.000295-.4830116.0062927-.80145932.0175721-.91427109.0118314-.11831815.0366933-.20173159.0666709-.25169587.0319809-.05539241.0267587-.11213088.0113697-.14884604-.103068-.13797293-.3465912-.21622623-.4997733-.19691275zm-.85948705.66774344c-.0557889-.007125-.12151493.004042-.14471223.0547835-.0194565.0569894.0109007.11375042.0372117.15608239.11400535.15070702.31702478.35988742.50598068.41243752.0572837.0130752.1191692.0057078.1540152-.0392766.1368872-.2334918-.0420494-.41358904-.2051862-.4884134-.1151169-.05115489-.23087148-.08267271-.34730915-.09561341zm.23825815.91220391c-.022589.014784-.12930475.060768-.2992441.1214548-.15592636.047845-.29957356.077598-.42948514.089412-.0639514 0-.13034016.014881-.14832999.064601-.0145955.068727.0449657.114786.0899281.1483325.11618815.06456.21105116.096812.2909749.056851.0610033-.024397.14939662-.061614.26926811-.1095686.0831473-.036526.23558572-.070805.26202762-.070805.000882.1002681-.030082.2093969-.054787.2801241-.024705.0707269-.10096022.210875-.19742876.3555783-.18784923.2885173-.42912874.5090798-.70132922.6832459-.06892625.043863-.10929895.071309-.13644294.1038827-.01414201.019278-.02349465.029369-.01963951.052717.005246.024455.020369.04486.04289684.052711.02144111.00534.04455605.00407.06460329 0 .10491582-.028112.241943-.067739.30079387-.094062.33649749-.136641.55814145-.3501126.75767293-.5876307.1077352-.1511842.2039602-.3286711.2656501-.4708315.0837223-.1695175.157918-.2745073.2051813-.3126842.04742-.0412992.0673305-.0883351.0449693-.1462626-.0199457-.0498478-.0614351-.0853982-.1209431-.1250702-.1132103-.075473-.2017894-.1218065-.2775374-.1369599-.0776282-.0129848-.1500812.0016851-.2087992.0449644z" fill="#bebebe"/></svg>