<svg height="16" width="16" xmlns="http://www.w3.org/2000/svg"><g fill="#bebebe" fill-rule="evenodd"><path d="m3 3v3.156l2.977-3.156zm7.023 0 2.977 3.156v-3.156zm-7.023 6.844v3.156h2.977zm10 0-2.977 3.156h2.977z" opacity=".35"/><path d="m8 .25-7.45703125 7.75 7.45703125 7.75 7.457031-7.75zm0 1.414063 6.042969 6.335937-6.042969 6.335938-6.0429688-6.335938z"/><circle cx="7.123993" cy="10.938047" r=".4"/><path d="m6.098796 12.773825c.6187184-.441941 1.9997864.09944 2.276-.861786.1314577-.457473 1.1911068-.572115.066291-1.723573-.7833997-.8019555-1.2134166-.9429287-1.6351842-.9612232-.385242-.0167102-.0924557-.3343558-.7667811-.3136055-.37727.0116094-.5084786-.6909032-.7317996-.698284-.4692854-.01551-.5822218-.1948525-.8461614-.4118021-.279977-.2301317-.5186113-.5343514-.6356838-.3954118-.1486548.1764212-.1897209.1976484-.2990959.1781171.1992188-.15625.3357713-.6119131.5173859-.4913825.3880171.2575119.4834551.2521059.8149114.3183971.3314563.066291-.1921732.1892932.3860288.2066863.080031.00241.1529879.078259.1799244.1630052.016148.050803.080969.1034195.1475621.1066532.070857.00344.1051401.067288.1624897.094093.2273565.1062657.380272.1711416.3872052.3212581.00346.074831.058102.1337297.3264134.1325163.225455-.00102.2760012-.0502431.1965929-.1581222-.0472805-.0642324-.1934727-.2360579-.3485608-.3572988-.0775441-.0606205-.2497237-.0983129-.2805326-.195966-.029308-.0928956-.1573113-.0594601-.2760831-.1229892-.9501746-.5082331-.0607669-.1325826-.8120679-.6573883-.5847574-.4084702-1.0500719-.5382902-.9004563-.5966214.072693-.024305.4586756.1824497 1.0938058.3148835.057941.012081.13342.083118.2041432.1316319.070723.048514.1366903.074505.131413.1069812-.022028.1355591.1027089.2276601.1724849.316913.1395518.1785058.2929783.2123476.20459-.1301573-.1767766-.6850097.0441941-.734728-.1546797-.856262-.2218975-.135604-.3986742-.0693127-.4647338-.2453341-.0754003-.2009104-.5876875-.2269436-.507538-.3070931 0 0 .121534-.1933496.5413786.093913.2099224.1436311.2955486.092532.466801.223733.1712524.1312015.2946088.2890025.3286941.6767233.088388 1.0054175.8175922 1.2374369 1.016466 1.3700194s.2541166.7954951.3204078.5745243c.066291-.2209709.3756503-1.1490484 0-1.8782524-.3756505-.7292043-.3594838-.7846969-.8507379-1.1490489-.275242-.2041408-.4161109-.248335-.8693441-.2359697-.3216354.008775-.6994126-.1048771-.6664034-.2280691 0 0 .2678406-.044032.380188-.016253.2301446.056906-.0924-.055136.5257926-.011368.3000555.021244.2485922-.07734.2485922-.07734s-.2596408-.4198447-.1823009-.6960582c.1850629.4502281.1450119.1367257.2354719.3128119.09046.1760861.1788484.4053434.1788484.4053434.1904506.1616728.3698544.2803624.751301.370126.055243-.4695631-.1325825-.7236796-.1325825-.7236796s-.6352913-.4198447-.6463399-.6131942c.030088-.1122887.4069441.3959595.6850098.2983107-.049718-.8065437.033146-.7844466.033146-.7844466.093913.508233.1988737.447466.1988737.9059805l.2430676-.0110485-.1988737.1546796c.00389.6773485.2005574.425439.2209708.9722719.2058001.1696247.7329993.9865427.955699 1.2926795.051896.089886.050396.3052199-.00552.4198447.1988696-.0331456.5468986-.6684369.5468986-.6684369.0746288-.0746288.281738-.0552427.281738-.0552427-.0220971-.3811747-.2375438-.1436311-.2817379-.4640389-.4087961-.325932-.2706893-.5192815-.3922233-.7899708l-.3425048-.4861359c.1823009-.0552427.4640388.2596408.4640388.2596408s.1393697.4555815.4750873.8673106c.2927864.3590777.3038349.2320194.3038349.2320194.2058197-.3214961.2302726-.6848462.2485923-1.0496116-.2660859-.0597147-.5266157-.7342109-.6187184-.8838834-.0359078-.0856262-.1333033-.1864294-.3151272-.246805-.0799986-.0265639.0270139-.1122714-.2398831-.3979903-.1381234-.1478641-.3110818-.3460804-.2957276-.3716708.143631-.1215342.7623495.6629127.7623495.6629127l-.0552427-.2154467c.2797252.061338.2147306.2835452.2983107.4364175.2461252.6470138.324484.3342578.4419417.6850097.1066289.2272205.209695.1291098.2420666-.035995.03391-.1729472.180525-.2083991.244069-.4501408.149258 0-.07182.5524271-.07182.5524271s.0382.1843509-.168486.955699c-.2697499.5175475-.2290084.6609097-.318322.7323338-.1606695.1284874-.1374299.192444-.1374299.3062292 0 0-.121534.022097-.2154466-.03867 0 0-.044194.2485922-.2375437.4087961.03867.1160097.243068.022097.243068.022097s.3204077-.2596404.4640388-.3866987c.1210886-.056699.2242464-.023744.3314564-.011049-.02304-.011518.432895-1.0237511.723679-1.0219903.159522.2273348-.454371.4319594-.403272.9501748.280336-.0001836.495761-.2337619.789972-.4143203 0 0 .104961-.2485922.408796-.6960582.193349.1712524-.43373.6308776-.06077.6463398.0221.1767766.0077.2245719-.168489.226495-.115549.00126.0028.1712524-.549664.3369805-.194253.1782544-.448466.2451559-.745776.2320199-.08081.1390099-.1608245.184751-.3425052.2154466 0 0-.3257771.2086878-.1049612.2568786.2069771.045171-.066291.2458301.011048.223733.6577704.086106.048628-.1722406.9170294-.2320194.204398-.127058.419845-.2762136.419845-.2762136.370126.03867.364602-.1988737.68501-.2872621 0 0 .541378-.4253689.696058-.4253689.154679 0-.348029.3590777-.348029.3590777s-.425369.3646019-.72368.4861359c.386699-.049718.778923.033145.778923.033145s.325931-.1712524.745776-.1823009c.04972.099437-.613194.3425048-.613194.3425048-.348029.011049-.232019.1325826-1.364495.1546797-.215447-.011049-.569.1408689-1.0392542.244449-.4200734.092527-.7920426.3355995-1.0986397.3963665.2604429.923812 1.7467489.5818127 2.7787089.7071068.209212.03086.389043.3241461 1.336873.2320193l-4.7840188 5.402738z"/></g></svg>