<svg height="16" width="16" xmlns="http://www.w3.org/2000/svg"><g fill="#bebebe" fill-rule="evenodd"><path d="m3 3v3.156l2.977-3.156zm7.023 0 2.977 3.156v-3.156zm-7.023 6.844v3.156h2.977zm10 0-2.977 3.156h2.977z" opacity=".35"/><path d="m8 .25-7.45703125 7.75 7.45703125 7.75 7.457031-7.75zm0 1.414063 6.042969 6.335937-6.042969 6.335938-6.0429688-6.335938z"/><circle cx="7.259586" cy="11.149912" r=".4"/><path d="m8.046875 3.0742188c-1.567795.0858476-2.1962046 1.8254001-1.3007812 3.2148437-.9965759.3876902-1.3660496-.7268713-1.7460938-1.8144531l-3.4238281 3.6445312 3.609375 3.4394534c.3619923.144683.6230367.137546.8984375.152344-.3013323-.404477-.8808422-1.081-.9824219-1.660157.3298957.05457.5504186.01887.609375-.1523435-.508343-.1704597-1.2176989.0892769-.8457031-1.9492187.3213421.3071027.6130968.8217464.9746094.8476562-.2394605-.5449973-.939777-1.1413122-.0761719-1.8984375.1242938.019842.1705287-.099709.3710937.203125.2286873.065829.3469166.056839.4414063.033203.027147.2239902.4141207.1598781.5253906.3398438.047835.2140118.053099.3309232.3222656.6777344.187779.2102892.1966757.6480893.2363281.9667968.012283.066588.056525.1615299.1171876.28125-1.1175089-.7266674-.7940936-1.1858037-.7773438-1.5917967-.7395975.6625204.1812377 1.6952488.9863281 1.9667968.080641.1398356.135677.2388424.2675781.4609374.043103.121225.1024337.237814.2792969.314453.022453.09485.046852.186934.025391.347657.1754214.225427.2644702.556897.5429687.576171-.1009001-.345807.095126-.289575.1347656-.5-.032439-.594268-.072829-1.2382011.068359-1.7890621.090235-.708824.145016-.9315088-.3222656-1.5253907.242745.7068885.2990781.7334306.00977 1.2050782 0 0 .036758-1.0314309-.00977-1.2050782-.0877869-.2542372-.1242624-.5250595-.3222656-.7792968.1613478.013539.3241062.0301737.4414063-.0664063.3277483.079354.6605945.1747967.9667965.1679688-.0719942-.118116-.1993855-.2548932-.035156-.2871094.132265.078089.197109.018158.289063.015625.426086.337001.689316.3224254.52539 1.4082031.217134-.2618097.515528-.5243744.431641-.9667968.344305-.060944.26102 1.5685064.162109 2.2539062-.147014.1402005-.294338.2514464-.576172.2792969.108129.100387.274151.1049271.449219.09375-.06978.2120927-.3166.3712721-.162109.6445311.174056.11118.412761.101935.695312-.05078l2.47461-2.4414064s-4.272346-4.1261255-3.611328-3.7617187c-1.0457908-.8323456-1.9514289-1.1347258-2.664063-1.0957041zm.4453125 2.34375c.2498297-.0306087.7088865.1966537.8378906.7597656.0298562.1194247-.7559055.2596145-.9140625.1015625-.204011-.5436536-.1276035-.8363619.0761719-.8613281z"/></g></svg>