<svg height="16" width="16" xmlns="http://www.w3.org/2000/svg"><g fill="#bebebe" fill-rule="evenodd"><path d="m12.336073-59.63137c-1.698905.07639-3.7001754.84111-4.9060587 1.164216-.603809.983957-2.0078162 11.741034-1.7394566 12.523728 1.4907341.425911 3.9804418-.119282 6.0287983-1.182006-.05738-.397288-.04262-.807772.05337-1.207702.222337-.926375.798898-1.602906 1.506212-2.111007-.06347-.200255-.214428-.378592-.189759-.565307.0081-.0789.01464-.166508.02767-.237192.02031-.110095.04632-.233375.07907-.379507.0655-.292263.157084-.666658.266848-1.098988.219528-.864662.514891-1.960815.824265-3.051868.266583-.940143.534785-1.819449.784732-2.599227-.517667-1.008788-1.54658-1.308607-2.73569-1.25514zm-1.446912 3.470907c.676408-.08965 1.680157.388765 1.680157.808428 0 .820712-2.284514 2.875594-2.7198777 1.944973-.1693691-.362038.2871487-1.77666.5218367-2.450982.103483-.179231.292415-.272537.517884-.302419zm.164062 4.265499c.489891.03729.917582.156565 1.106927.345905.747426.747404-1.9478 2.212048-2.6961575 2.271111-.5686936.07593-.222761-2.340154.1047628-2.472724.4415197-.136269.9945777-.181582 1.4844677-.144292z"/><path d="m23.799804-46.597591c-.32849.01078-.56881.0488-.676016.11069-.435223.251269-2.672438 8.52094-2.672438 9.044914-.03192.219823.120273.459198.63253.553448.192385.01519.387296.03683.581137.05732-1.236742.184532-2.245092.923097-2.543956 2.168328-.294001 1.224972.399331 2.30632 1.901543 2.486561 1.845064.221379 2.75581-1.088748 3.245666-2.249369.446508-1.057914-.06439-1.924838-1.002163-2.279017.363311.0094.723793.0017 1.075301-.05732.221385-1.454776 3.160078-7.445947 3.526352-8.080334.24149-.504075.162419-.829112 0-.948767-1.309045-.618251-3.082487-.838789-4.067956-.806454z"/><path d="m8 0a3 3 0 0 0 -3 3 3 3 0 0 0 3 3 3 3 0 0 0 3-3 3 3 0 0 0 -3-3z"/><path d="m.78710938 3c.11698486 2.9130341 1.93260172 5.3819315 4.48632812 6.4179688-1.8037312 1.6923342-3.0234375 4.5031932-3.0234375 6.5820312h4c1.200219-3.740361 2.5826542-4.720896 3.900391 0h4.15039c0-2.62996-1.652528-5.179865-3.460937-6.6621094 2.455959-1.0795583 4.181442-3.4995495 4.294922-6.3378906h-3.134766c0 2.1972944-1.802706 4-4 4s-4-1.8027056-4-4z"/></g></svg>