<svg height="16" width="16" xmlns="http://www.w3.org/2000/svg"><path d="m7.9146.127237c-.4927365 0-.9785254.1785188-1.3284395.5354625l-5.88420931 6.0252826c-2.22802519 2.2273285 1.44255561 2.0414965 2.77080131 2.8838845.6141352.399776-1.9710834.9138054-1.4426416 1.4420814.5141596.528277 3.0994422 1.013735 3.613602 1.527734.5141597.528277-1.0426245 1.085108-.5284648 1.613385.4998775.528275 1.6994924.02863 1.9137255 1.227953.1571042.885219 2.1996259.442664 3.1136874-.314056.571288-.485443-.9855225-.485548-.4713635-1.013823 1.2853985-1.299276 2.4279655-.585358 2.8992785-1.784689.25708-.642498-1.942561-1.099404-1.35699-1.513458 1.399657-.9851654 6.541464-1.4847774 4.170617-3.8548834l-6.0986175-6.2394111c-.378478-.3569437-.878249-.5354625-1.3709855-.5354625zm.049823.5729701c.3534845.00178.7069205.1337511.9640005.3907503l2.3279885 2.3702541c.214232.2141663.21447.6566401.08593.7851398l-1.156855-.9424476-.2286835 1.384981-.956724-.5139097-1.5568433.9852733-.5141894-2.0704735-.8282454 1.7989636-2.0710334-.0142754c-.3999021 0-.3428078-.4139109.071377-.8279655.814086-.899498 2.3994012-2.4272636 2.8992786-2.9555402.2570799-.2641382.6105157-.3925352.9639994-.3907502zm-2.4172781 9.1510065c.2312278-.0019.4938348.01038.7591084.03862l.036948.2205674s.2040531-.2076794.2437992-.1847394c.190289.1098284.6054391.4430934.6054391.4430934l.5357426-.130996.00448.365279.2309235-.191737c.2051448.805389-.9097461.350569-1.816598-.05767-.3778173-.170081-1.0068712-.02879-1.3256404-.262833-.2022345-.1484824.1715154-.2351614.7257994-.2396004zm8.9212031 1.6981974c-.494524.01784-.998087.264154-1.126628.721041 0 .299833 2.32805.471178 2.199511-.07138-.09284-.456887-.578362-.667512-1.072883-.649664zm-10.2297693 1.29737c-.6726029.0398-1.3924304.527523-.8229272 1.008506.5284419.456887 1.3283147-.09982 1.5853945-.742314-.160675-.209705-.4567386-.284284-.7624673-.266192zm8.8176363.05178c-.656982.599666.11417 1.228024.756869.81397.171386-.114222-.0142-.671192-.756869-.81397z" fill="#bebebe" stroke-width=".1428"/><path d="m54.135441 10.855112-41.05903 42.04245c-15.546623 15.541759 10.065442 14.246612 19.333621 20.124585 4.285287 2.789547-13.752782 6.376107-10.065442 10.062293 3.587682 3.686186 21.625751 7.073493 25.213434 10.660053 3.587682 3.686186-7.275023 7.571627-3.68734 11.257817 3.488024 3.68618 11.859283.19925 13.35415 8.56789 1.096236 6.17685 15.347308 3.08842 21.725409-2.19179 3.986314-3.38731-6.876391-3.38731-3.288708-7.07349 8.969205-9.066027 16.941832-4.08469 20.230541-12.453334 1.793841-4.4832-13.553466-7.671253-9.467495-10.560426 9.766469-6.874239 45.643289-10.361173 29.100089-26.899198l-42.553897-43.53685c-5.281866-4.9813335-13.952098-4.9813335-18.835332 0zm47.138159 80.996474c0 2.09216 16.24423 3.28768 15.34731-.498133-1.29556-6.376106-13.55347-5.877973-15.34731.498133zm-69.262199 11.058564c3.68734 3.18805 9.268179-.69739 11.06202-5.180591-3.587682-4.682453-16.842175.29888-11.06202 5.180591zm67.269042-6.674991c-4.584261 4.184321.797267 8.567891 5.281867 5.678721 1.19589-.79701-.0997-4.682454-5.281867-5.678721z" fill="none" stroke-width=".996422"/></svg>