<svg height="16" width="16" xmlns="http://www.w3.org/2000/svg"><path d="m8 0c-3.1960764 0-5.9353476 1.8597007-7.21875 4.5566406 5.3240712-2.6393735 12.432546-2.2312225 15.207031 3.6875.002451-.0818171.011719-.1617083.011719-.2441406 0-4.432-3.568-8-8-8zm-7.47070312 5.1484375c-.33671151.8861129-.52929688 1.8445102-.52929688 2.8515625 0 1.3548134.33619313 2.628042.92578125 3.744141 1.60992185-2.7954043 4.30099375-5.960368-.39648437-6.5957035zm10.60937512 2.5742187c-3.6866669-.0646714-7.724442 2.7359918-9.8808595 4.5820318 1.4181907 2.222757 3.8990841 3.695312 6.7421875 3.695312 3.740577 0 6.856189-2.544444 7.740234-6.0019531-1.304372-1.6116336-2.913025-2.2457703-4.601562-2.2753907z" fill="#bebebe" stroke-opacity=".55" stroke-width="1.12"/></svg>