<svg height="16" viewBox="0 0 20.552372 20.552373" width="16" xmlns="http://www.w3.org/2000/svg"><path d="m9.3127939 4.4316049c-7.9546848 0-8.54258172 1.4125259-8.54258168 1.4125259-.00000006 2.8998891.94254948 5.8497622 1.84901108 7.4941642.5064949.918827 1.4431094 1.471232 2.2529335 1.788865 1.1799378.45 2.6835237.691117 4.2073155.694973 1.5237917.0039 3.0683597-.230152 4.3327567-.684937 1.225827-.440911 2.15686-1.089679 2.631768-1.854096.04376-.08821.09067-.211867.135477-.30609 2.195826-.220659 3.708732-1.35928 4.074347-2.747275.19714-.7484024-.024391-1.5975109-.657315-2.1350967-.443856-.3770002-1.050091-.6011972-1.793816-.687446.04987-.5201469.07885-1.0424331.05269-1.5630615 0 0-.587899-1.4125259-8.5425821-1.4125259zm0 .7702406c4.0791801 0 7.3860091.6470121 7.3860091 1.4451419s-3.306829 1.445142-7.3860091 1.445142-7.3860089-.6470122-7.3860089-1.445142 3.3068288-1.4451419 7.3860089-1.4451419zm8.3092601 3.4773727c.564694.064587.939955.2252061 1.14152.3964105.28352.2408149.341493.471925.248374.825437-.14748.5598853-.900443 1.3391313-2.230354 1.6734553.333975-.873122.638841-1.8547319.84046-2.8953028zm-.423993 5.1884618c-.680953 1.168866-1.911797 1.961774-3.349294 2.478819-1.443207.5191-3.116847.764405-4.7718036.760205-1.6549564-.004187-3.2916806-.25694-4.6639234-.780277-1.342402-.511955-2.4664273-1.296476-2.9955485-2.446204-.7142349.411893-1.09101613.873187-1.09636067 1.342277.001763 1.560394 4.02695117 2.825052 8.99166307 2.825052 4.9647121 0 8.9899011-1.264658 8.9916631-2.825052-.0018-.473611-.38222-.939487-1.106396-1.35482z" fill="#bebebe" fill-rule="evenodd"/></svg>
