<svg height="16" width="16" xmlns="http://www.w3.org/2000/svg"><path d="m3.1564241.37550116c-.6385428.0002187-1.1566294.51780352-1.1568481 1.15634454v7.490226c-.0002992 3.6465443 2.3538172 6.6027273 6.000373 6.6024283 3.645658-.00097 5.997301-2.956781 5.997002-6.6024283l.0024-7.490226c-.000275-.63932804-.519217-1.15723886-1.158702-1.15634454-.488553 0-1.328374.86232994-4.840654.85978684-3.5123258-.002543-4.2768561-.85978684-4.8435709-.85978684zm8.8435759 2.11728294v7.7829109c0 2.652066-2.2147382 3.100062-4 3.100062v-2.00004c1.5977815 0 2-.236773 2-1.100022v-7.0288731z" fill="#bebebe" fill-rule="evenodd"/></svg>