<svg height="16" width="16" xmlns="http://www.w3.org/2000/svg"><path d="m7.5097656.0078125c-2.1167215-.01334299-4.2360582.47069786-4.5097656 1.4921875v2.5c0 .983987 3 3.1483039 3 4s-3 3.184677-3 4v2.5c.5387959 2.010814 8.463022 2.00403 9 0v-2.5c0-1.052342-3-3.1299435-3-4 0-.9039548 3-2.8207081 3-4v-2.5c-.259407-.96811768-2.3735128-1.47884451-4.4902344-1.4921875zm-.0097656.4921875c1.9329966 0 3.5.44771525 3.5 1 0 .5522847-1.5670034 1-3.5 1s-3.5-.4477153-3.5-1c0-.55228475 1.5670034-1 3.5-1z" fill="#bebebe" fill-rule="evenodd"/></svg>