<svg height="16" width="16" xmlns="http://www.w3.org/2000/svg"><g fill="#bebebe"><path d="m7.9570312 0c-.38613-.0042-.7771874.0747505-1.1171874.2578125-.36138.194582-.6560407.507042-.8378907.875-.18165.367673-.249755.7815942-.265625 1.1914063-.0157.4025835.014509.8047822.037109 1.2070312.0236.418263.038869.8369574.042969 1.2558594.0212.133552.030344.2691899.027344.4042968-.001.05278.00786.1049832.00586.1582032-.007.01901-.00998.037791-.017578.056641-.1927309.4785556-.5549157.8685632-.7968759 1.3242184-.2668999.5026459-.3805712 1.0732027-.5820312 1.6054687-.18437.487104-.4424775.942941-.6171875 1.4335937-.0820093.2303398-.1366681.4694948-.1777344.7109378.2661951.07012.5095798.193922.7363281.347656-.000366-.158002.00417-.31571.019531-.472656.0571-.5825724.216845-1.1519516.453125-1.6875002.15589-.3533585.34512-.6905267.5625-1.0097657-.0236-.201476-.00296-.4099316.056641-.6035156.0999-.318958.303325-.5901719.484375-.8710937.1042399-.1617231.2030568-.3292054.2792968-.5058594.0882276-.2044452.1374963-.4216921.1660156-.6425782-.0640526-.0685416-.1237612-.141519-.203125-.1914062-.0236-.01486-.0457593-.030435-.0683594-.046875-.0226-.01643-.044294-.036557-.058594-.060547-.009-.01396-.014578-.027059-.017578-.042969-.00329-.01004-.00387-.02069-.00391-.03125 0-.02112.00381-.04181.00781-.0625.0113-.055215.017256-.1106325.035156-.1640625.0228167-.0679316.0640817-.1300165.1093817-.1855465.0485019-.0594715.1117334-.1045784.1699219-.1542969-.0235078-.0169872-.0540041-.0223311-.0742188-.0429687-.0608774-.0621512-.1061782-.138047-.1386719-.21875-.0649874-.1614062-.0773187-.3381722-.0898437-.5117188-.0138327-.1916646-.0276495-.388039.0332031-.5703125.030426-.091137.080186-.1785435.1503906-.2441406.070205-.065597.1618732-.110009.2578125-.1152344.072022-.00392.1442973.014966.2089844.046875.064687.031909.1215985.077187.171875.1289063.1038087.1067872.1780209.2394051.2246094.3808594.046588.1414539.066218.2924929.068359.4414062.0007651.053222-.012691.1051407-.017578.1582031.099377-.030927.2008544-.056537.3046875-.0625.11839-.00677.2380725.00466.3515625.039063.043186.01309.081825.036287.1230469.054687-.0137363-.0328395-.0355859-.062173-.0468748-.0957031-.0729627-.2167127-.1002776-.4571057-.0273437-.6738281.0582301-.1730307.1791712-.3244021.3359374-.4179688.044959-.034153.095381-.06077.1484376-.080078.092609-.033702.1934758-.043377.2910156-.029297.09754.01408.1924758.052201.2753906.1054688.1658297.1065345.2841485.2769768.3496094.4628906.060498.1718187.076933.3572086.066406.5390625-.00826.1426435-.033724.2844005-.09375.4140625-.042371.091526-.1090492.1689806-.1855468.234375.035032.00954.070351.016524.1035156.03125.04511.02003.090234.047344.1152344.089844.013.02125.019621.045653.019531.070313 0 .00354-.00357.00617-.00391.00977.0073.01021.020391.015974.025391.027344.0278.059118.027025.1270563.015625.1914063-.0113.064351-.032016.1267262-.041016.1914062-.0086.060467-.00876.1226544-.035156.1777344-.010582.022072-.035769.031337-.052734.048828.080959.1415919.1493131.2927536.2148438.4433594.12193.280254.2777969.5459917.4042969.8242187.1753007.3856042.2958757.7960498.3593757 1.2148438.23172.239266.425282.5145971.570312.8144531.39859.824125.412877 1.7754921.316407 2.6894526.114241.115653.173287.279708.136718.451172-.03728.133909-.05783.27321-.04687.412109.01225.154461.03764.27547.140625.394532v.002c.0824.09466.174102.138068.294922.173828.06948.02057.140751.02449.212891.0293.124996.0083.251763.000015.371093-.03906.30927-.107013.582905-.314564.771485-.582031.0593-.08416.109582-.175271.132812-.27539.11987-.18708.203031-.39817.244141-.617188.0694-.369723.03736-.752443-.02734-1.1230466-.088-.505368-.235398-.9994535-.423828-1.4765625-.13859-.350944-.300674-.6963999-.527344-.9980468-.22182-.295183-.5016-.5431619-.71875-.8417969-.10569-.1453972-.201659-.297572-.308599-.4414646-.055-.113129-.111549-.2254968-.164063-.3398437-.14346-.312388-.273399-.6328347-.443359-.9316407-.0247-.04342-.05739-.08061-.08399-.1230468-.022-.289826-.05151-.5805748-.06641-.8710938-.0293-.573627.005-1.1585726-.144531-1.7128906-.073291-.270278-.189365-.529432-.339835-.765625-.1763195-.276751-.4002855-.52230875-.6660155-.71484375-.42399-.307203-.9491162-.46702325-1.4726563-.47265625zm1.7871094 13.498047c-.25851.236367-.5254344.462534-.8339844.626953-.626431.3338-1.3757851.399555-2.0644531.226562.00415.01399.011777.02484.015625.03906.063958.236548.070779.480856.03125.720703.101024-.01279.2010945-.03257.3027344-.04102.0793.05546.1869269.07159.2792969.04297.0235-.0073.034587-.03183.054687-.04492.0639.0042.1292594.0072.1933593.0078.0171.0124.027875.03218.046875.04102.049.02272.1025401.03218.15625.02734.0538-.0048.1063007-.02555.1503907-.05664h.00195c.29644.01539.5913256.047.8847656.0918.20625.03149.4096913.07586.6132813.121093-.0146-.103531-.02529-.206409-.025391-.294922-.0005097-.391393.070803-.745022.1269532-1.0625.027-.152085.044806-.297427.066406-.445312z"/><path d="m7.4863281 3.4863281c-.11841.0068-.2356362.031403-.3476562.070312-.24887.08643-.4738313.2407343-.6445313.4414063-.10393.0699605-.1981637.1548656-.2773437.2519536-.0453.05553-.086565.1176149-.109375.1855469-.0179.05343-.023856.1088475-.035156.1640625-.004.02069-.00781.04138-.00781.0625.00004.01056.0006163.02121.00391.03125.003.01591.00858.029009.017578.042969.0143.02399.035994.044117.058594.060547.0226.01644.044759.032015.068359.046875.12571.07902.2293125.1873565.3203125.3046875.1221.157414.2314513.3328486.3945313.4472656.11516.0808.2526081.126563.3925781.140625.16437.01651.3317744-.00798.4902344-.054687.14688-.04324.2876487-.107137.4179687-.1875.24772-.152764.4534025-.3741654.7265625-.4746094.0596-.02193.1241506-.037403.1816407-.064453.0575-.02705.1092487-.069655.1367187-.1269531.0264-.05508.026556-.1172674.035156-.1777344.009-.06468.029716-.1270552.041016-.1914062.0114-.06435.012175-.1322883-.015625-.1914063-.005-.01137-.018091-.017134-.025391-.027344.0003399-.0036.00391-.00623.00391-.00977.00009-.02466-.00653-.049062-.019531-.070313-.025-.0425-.070124-.069814-.1152344-.089844-.06181-.0274356-.1276894-.0407762-.1933694-.0566362-.20176-.04871-.3980844-.1205977-.5839844-.2128907-.0924-.0458799-.1824975-.0977423-.2734375-.1464843-.0935-.05011-.1875525-.0981383-.2890625-.1289063-.11349-.0344-.2331725-.0458325-.3515625-.0390625zm1.5507813.7929688a.05121251.05121251 0 0 1 .00781 0 .05121251.05121251 0 0 1 .041016.050781c0 .00354.00524.019472-.00586.044922a.05121251.05121251 0 0 0 -.00195.00195c-.0077.01532-.019344.026903-.027344.033203-.0097.00811-.018391.013378-.025391.017578a.05121251.05121251 0 0 0 -.00195.00195c-.07884.046447-.1564562.075617-.2226563.1171875-.07477.046977-.1418968.1145675-.2167968.1796875-.16506.143579-.35707.2562712-.5625.3320313-.1338.049326-.27094.080848-.40625.1113281-.1721.03877-.3490831.079172-.5332032.076172-.1849028-.0030266-.3790866-.0531197-.5273466-.1738217-.05442-.044219-.0967781-.0935456-.1425781-.1347656-.04562-.04106-.0946313-.0742575-.1445313-.0859375-.0077-.0018-.024322-.00151-.044922-.00781-.0184-.00581-.038187-.015473-.054687-.033203a.05121251.05121251 0 0 0 0-.00195c-.0097-.01174-.015531-.022873-.019531-.033203a.05121251.05121251 0 0 1 .052734-.072266c.08287.01299.1604625.050213.2265625.095703.06836.04706.1273531.099442.1894531.1386719.13743.086909.3031131.1262125.4707031.1328125.1676098.0064746.3364792-.0208729.5058592-.0546929.1346-.026866.2682781-.0564787.3925781-.1054688.19047-.0750969.3647331-.1925893.5332031-.3183593.07649-.057095.1498969-.1151475.2167969-.1796875.0235-.02265.0489719-.0458594.0761719-.0683594.02756-.02267.058709-.047387.099609-.060547.04891-.01576.0912-.00711.125-.00391z" fill-opacity=".501961"/><path d="m10.62891 11.199219c-.0764.0042-.15488.02626-.21289.07617-.0628.05404-.0951.134866-.10743.216797-.0124.08193-.006.165402 0 .248046.0354.493469.0354.990533-.0176 1.482422-.0291.270434-.0736.538816-.1211.806641-.0571.322323-.11957.647264-.11914.974609.00025.185074.0234.376038.1211.533203.0974.156566.26067.262284.42968.335938.24121.105113.50933.156232.76953.117187.21394-.0321.41642-.123341.5918-.25.17382-.125529.32157-.285447.47656-.433593.18123-.173226.374-.333742.58399-.470703.31341-.204422.65881-.353515.99219-.523438.19546-.09963.39186-.20916.5332-.376953.064-.07604.11617-.163256.15234-.255859.0205-.0872.007-.181686-.0371-.259766-.0324-.05756-.0791-.105483-.13086-.146484-.0518-.041-.10954-.07602-.16406-.113282-.11617-.07939-.22434-.16921-.33203-.259765-.10809-.0909-.21609-.182637-.30664-.291016-.0906-.108379-.16279-.236309-.18945-.375-.0162-.0843-.0142-.170322-.0215-.255859-.006-.06726-.0267-.132314-.0449-.197266-.0335.07252-.0608.157698-.0996.212891-.24993.354474-.60579.625091-1.01758.767578h-.004l-.004.002c-.28684.09393-.59264.09703-.88086.01172-.1705-.05046-.36662-.137327-.5293-.324219-.20052-.230481-.24612-.488264-.26172-.685547-.0144-.182196.0118-.371142.0606-.558594-.0364-.0036-.0728-.0098-.10937-.0078z"/><path d="m5.67773 5.736328c-.14994.187135-.29985.374904-.44921.5625-.15391.193294-.30779.385792-.46289.578125-.19031.235985-.38392.475269-.50782.751953-.10645.237741-.15752.496029-.23047.746094-.0828.283986-.19596.558669-.32226.826172-.11663.247006-.24435.487576-.37305.728516-.0885.165617-.17391.33601-.21094.519531l.33985-.0078.0625-.002.0605.01367c.2048.04682.40126.121961.58594.21875-.0355-.08959-.0757-.178587-.0937-.273437-.0754-.39587-.0566-.811598.0781-1.191407.0527-.148586.12228-.290968.18945-.433593.11643-.24721.22776-.498273.38086-.72461.19059-.281755.44425-.521607.59961-.824219.13113-.25542.18559-.541623.23633-.824218.0397-.221098.0785-.442792.11718-.664063z"/><path d="m3.47329 10.94001c.33991.07771.65773.249789.9086.491949.3094.298661.50896.689906.71348 1.068188.16532.305777.33808.608896.54754.886312.13671.181065.2885.350432.42312.533056.13461.182625.25307.381285.31232.600289.0769.284404.0473.597509-.0877.859376-.095.184278-.24101.34235-.4186.449357-.17758.107007-.38635.162291-.59354.154473-.32936-.01243-.63024-.177-.93645-.298924-.62388-.248408-1.3015-.326322-1.9445-.519931-.19761-.0595-.39192-.129929-.59093-.184571-.0884-.02428-.17828-.04562-.2618-.08349-.0835-.03787-.16161-.09425-.20797-.173372-.0358-.06113-.0509-.133086-.0498-.203925.001-.07084.0178-.140759.042-.207352.0484-.133185.12625-.253851.17823-.385668.0848-.215148.0976-.452193.085-.683119s-.0496-.460082-.0601-.691114c-.005-.102565-.004-.206175.0165-.30677.0206-.100596.0621-.198661.13123-.274554.0644-.07072.15048-.119541.24143-.149256.0909-.02971.18694-.04115.28254-.04499.19119-.0077.38526.01418.57241-.0257.18713-.03987.36031-.142558.48508-.287619.12477-.14506.20039-.331649.21183-.522643z"/><path d="m9.0039062 5.5722656c-.1224068.0765762-.2506583.1854611-.5136718.3476563-.1664558.1026464-.3471937.1857032-.5390625.2421875-.2046081.0603133-.4347608.0970647-.6816407.0722656-.2149335-.0215915-.4332801-.0912569-.6289062-.2285156 0 0-.0019531-.0019532-.0019531-.0019532-.077775.1580355-.1590968.3142345-.2460938.4492188-.1944112.3016359-.3639825.5400288-.4296875.75-.039469.1260817-.0523593.2637897-.0371094.3945312a.50005.50005 0 0 1 -.0820312.3398438c-.1998534.2935007-.3736778.6054805-.5175781.9316406-.2178837.4938512-.3649558 1.0135039-.4160157 1.5351564-.00561.057409-.0050625.120107-.0078124.179687.0608897.043867.1068061.064217.1738281.128907.4641769.448069.7055756.955781.8984375 1.3125.157986.292226.3080012.55204.4648437.759765.0989078.131002.2602882.308567.4316407.541016.0997084.135271.1777405.34203.2675781.523437.5260484.093366 1.0833691.075763 1.5371093-.166015.2039135-.108659.4010237-.279585.6035157-.457032.005223-.034473.012625-.081374.015625-.109374.045395-.420933.0493291-.858919.0175781-1.302735-.004521-.061207-.0260475-.247558.0078125-.470703.0349079-.232453.1450623-.569487.4433594-.826172.1056029-.090849.2381901-.142439.3125001-.162109.06524-.01722.06871-.016719.05664-.011719.037822-.02193.072812-.049596.113282-.066406a.50005.50005 0 0 1 .203125-.039063c.02379-.0086.036185-.015284.072265-.021484.016948-.6444941.050953-1.3019882-.201172-1.8242189-.121452-.2509902-.285301-.4840338-.4804682-.6855469a.50005.50005 0 0 1 -.1347657-.2734374c-.0566951-.3739159-.1645854-.7394813-.3203125-1.0820313-.1057485-.2326041-.2503732-.4893557-.3808594-.7792969z"/></g></svg>