<svg height="16" width="16" xmlns="http://www.w3.org/2000/svg"><g transform="translate(160 -57.362183)"><g transform="translate(-160 57.362183)"><path d="m7.9570312 0c-.38613-.0042-.7771874.0747505-1.1171874.2578125-.36138.194582-.6560407.507042-.8378907.875-.18165.367673-.249755.7815942-.265625 1.1914063-.0157.4025835.0145094.8047822.0371094 1.2070312.0236.418263.0388688.8369574.0429687 1.2558594.0212.133552.0303438.2691899.0273438.4042968-.001.05278.0078594.1049832.0058594.1582032-.007.01901-.0099782.0377906-.0175782.0566406-.19273.478556-.5549148.8685636-.796875 1.3242188-.2668999.5026459-.3805712 1.0732027-.5820312 1.6054687-.18437.487104-.4424775.942941-.6171875 1.4335937-.0820093.2303398-.1366681.4694948-.1777344.7109378.2661951.070121.5095798.193922.7363281.347656-.000366-.158002.0041723-.31571.0195313-.472656.0571-.5825724.216845-1.1519516.453125-1.6875002.15589-.3533585.34512-.6905267.5625-1.0097657-.0236-.201476-.0029594-.4099316.0566406-.6035156.0999-.318958.303325-.5901719.484375-.8710937.10424-.1617231.2030569-.3292054.2792969-.5058594.0882276-.2044452.1374963-.4216921.1660156-.6425782-.0640526-.0685416-.1237612-.141519-.203125-.1914062-.0236-.01486-.0457593-.030435-.0683594-.046875-.0225999-.01643-.0442937-.0365569-.0585937-.0605469-.009-.01396-.0145781-.0270587-.0175781-.0429687-.00329-.01004-.0038663-.02069-.0039063-.03125 0-.02112.0038125-.04181.0078125-.0625.0113-.055215.0172563-.1106325.0351563-.1640625.02281-.067932.064075-.1300169.109375-.1855469.0485019-.0594715.1117334-.1045784.1699219-.1542969-.0235078-.0169872-.0540041-.0223311-.0742188-.0429687-.0608774-.0621512-.1061782-.138047-.1386719-.21875-.0649874-.1614062-.0773187-.3381722-.0898437-.5117188-.0138327-.1916646-.0276495-.388039.0332031-.5703125.0304263-.0911367.080186-.1785435.1503906-.2441406.0702047-.0655971.1618732-.110009.2578125-.1152344.0720222-.0039227.1442973.0149664.2089844.046875.0646871.0319087.1215985.0771873.171875.1289063.1038087.1067872.1780209.2394051.2246094.3808594.0465884.1414539.0662185.2924929.0683594.4414062.0007651.0532224-.0126913.1051407-.0175782.1582031.0993768-.0309273.2008544-.0565371.3046875-.0625.11839-.00677.2380725.0046625.3515625.0390625.0431862.0130899.0818253.0362871.1230469.0546875-.0137365-.0328395-.0355861-.062173-.046875-.0957031-.0729627-.2167127-.1002776-.4571057-.0273437-.6738281.0582301-.1730307.1791712-.3244021.3359374-.4179688.0449594-.0341525.0953813-.0607703.1484376-.0800781.0926089-.0337018.1934758-.0433774.2910156-.0292969s.1924758.0522015.2753906.1054688c.1658297.1065345.2841485.2769768.3496094.4628906.0604979.1718187.0769327.3572086.0664062.5390625-.0082568.1426435-.0337241.2844005-.09375.4140625-.0423712.0915261-.1090492.1689806-.1855468.234375.0350321.0095385.0703508.0165244.1035156.03125.04511.02003.0902343.0473438.1152344.0898437.013.0212501.0196212.0456526.0195312.0703126 0 .0035399-.0035663.0061656-.0039062.0097656.0073.01021.0203906.0159737.0253906.0273437.0278.059118.027025.1270563.015625.1914063-.0113.064351-.0320157.1267262-.0410156.1914062-.0086001.060467-.0087563.1226544-.0351563.1777344-.0105816.0220715-.0357692.0313369-.0527344.0488281.0809587.1415919.1493131.2927536.2148438.4433594.12193.280254.2777969.5459917.4042969.8242187.1753002.3856042.2958752.7960498.3593752 1.2148438.23172.239266.425282.5145971.570312.8144531.39859.824125.412877 1.7754921.316407 2.6894529.114241.115653.173287.279708.136718.451172-.037277.133909-.057829.27321-.046875.412109.012251.154461.03764.27547.140625.394532v.001953c.0824.09466.174102.138068.294922.173828.069484.020566.140752.024485.212891.029297.124996.008337.251763.000015.371093-.039063.30927-.107013.582905-.314564.771485-.582031.0593-.08416.109582-.175271.132812-.27539.11987-.18708.203031-.39817.244141-.617188.0694-.369723.037356-.752443-.027344-1.1230469-.088-.505368-.235398-.9994535-.423828-1.4765625-.13859-.350944-.300674-.6963999-.527344-.9980468-.22182-.295183-.5016-.5431619-.71875-.8417969-.105684-.1453389-.201653-.2975137-.308593-.4414063-.054997-.113129-.111549-.2254968-.164063-.3398437-.14346-.312388-.273399-.6328347-.443359-.9316407-.0247-.0434198-.057385-.0806098-.083985-.1230468-.022-.289826-.051506-.5805748-.066406-.8710938-.0293-.573627.004999-1.1585726-.144531-1.7128906-.0733-.270278-.189374-.529432-.339844-.765625-.1763195-.276751-.4002855-.52230875-.6660155-.71484375-.42399-.307203-.9491162-.46702325-1.4726563-.47265625zm1.7871094 13.498047c-.25851.236367-.5254344.462534-.8339844.626953-.626431.3338-1.3757851.399555-2.0644531.226562.0041488.01399.0117769.024836.015625.039063.0639583.236548.0707792.480856.03125.720703.101024-.012793.2010945-.03257.3027344-.041016.0793.055464.1869269.071589.2792969.042969.0235-.0073.0345875-.031832.0546875-.044922.0639.0042.1292594.007213.1933593.007813.0171001.0124.0278752.032175.046875.041016.0490001.022717.1025401.032183.15625.027343.0538-.0048.1063007-.02555.1503907-.05664h.0019531c.29644.01539.5913256.046996.8847656.091797.20625.031487.4096913.07586.6132813.121093-.0146-.103531-.0252902-.206409-.0253907-.294922-.0005097-.391393.0708032-.745022.1269532-1.0625.027-.152085.0448062-.297427.0664062-.445312z" fill="#bebebe"/><path d="m9.2226562 4.875c-.0274004.0288722-.0497361.0630477-.0859374.0800781-.0574901.02705-.1220407.0425232-.1816407.0644531-.27316.100444-.4788425.3218454-.7265625.4746094-.13032.080363-.2710887.14426-.4179687.1875-.15846.04671-.3258644.0711975-.4902344.0546875-.13997-.014062-.2774181-.059825-.3925781-.140625-.16308-.114417-.2724313-.2898516-.3945313-.4472656-.0335495-.0432571-.0797825-.0732548-.1171875-.1132813-.0285227.2208861-.0778066.438133-.1660156.6425782-.0762.176654-.1731137.3421822-.2773438.5039062-.18106.280921-.3865181.5540849-.4863281.8730469-.0606.193585-.0801406.4000895-.0566406.6015625-.21738.31924-.4046469.6583607-.5605469 1.0117188-.23628.5355479-.4000112 1.1049287-.4570312 1.6875002-.0152935.156299-.0201196.313353-.0195313.470703.1151557.077885.2352529.148907.3359375.246094.38909.375588.6060008.820303.8066406 1.191406.1617501.29919.3222694.579116.5058594.822266.11981.158686.2742044.328837.4277344.537109.1471061.199574.291403.440131.3769531.728515.6886677.172991 1.4380142.10724 2.0644531-.226562.3079702-.164107.5755344-.38899.8339844-.625.0161-.109611.037328-.222758.0488282-.330078.0491999-.456218.0512781-.923011.0175781-1.392578-.006-.08128-.0198938-.202594.0039062-.359375.0242-.161149.0900005-.361956.2753909-.521485.0768-.06607.150115-.05806.228515-.08789.0362-.02884.076301-.052513.119141-.070313l.005859.023438c.0523-.01092.110704-.057947.158203-.060547h.001954c.0366-.002.073305-.000182.109375.005859.0209.0025.069218.003405.074218.003907.1219.011889.220097.07264.298829.152343.096398-.9139546.082203-1.8653279-.316407-2.6894529-.14503-.299856-.338582-.5751881-.570312-.8144531-.0635-.418795-.184075-.8292397-.3593752-1.2148438-.1264901-.278227-.2804138-.5439647-.4023438-.8242187-.0656774-.1510053-.1329606-.3034334-.2148438-.4453125z" fill="#ddd"/><path d="m7.4863281 3.4863281c-.11841.0068-.2356362.0314025-.3476562.0703125-.24887.08643-.4738313.2407343-.6445313.4414063-.10393.06996-.1981637.1548651-.2773437.2519531-.0453.05553-.086565.1176149-.109375.1855469-.0179.05343-.0238563.1088475-.0351563.1640625-.004.02069-.0078125.04138-.0078125.0625.00004.01056.0006163.02121.0039063.03125.003.01591.0085781.0290087.0175781.0429687.0143.02399.0359938.0441169.0585937.0605469.0226001.01644.0447594.032015.0683594.046875.12571.07902.2293125.1873565.3203125.3046875.1221.157414.2314513.3328486.3945313.4472656.11516.0808.2526081.126563.3925781.140625.16437.01651.3317744-.0079775.4902344-.0546875.14688-.04324.2876487-.107137.4179687-.1875.24772-.152764.4534025-.3741654.7265625-.4746094.0596-.0219299.1241506-.0374031.1816407-.0644531.0575-.02705.1092487-.0696551.1367187-.1269531.0264-.05508.0265562-.1172674.0351563-.1777344.0089999-.06468.0297156-.1270552.0410156-.1914062.0114-.06435.012175-.1322883-.015625-.1914063-.005-.01137-.0180906-.0171337-.0253906-.0273437.0003399-.0036.0039062-.0062257.0039062-.0097656.00009-.02466-.0065312-.0490625-.0195312-.0703126-.0250001-.0424999-.0701244-.0698137-.1152344-.0898437-.0618-.02744-.1276794-.0407806-.1933594-.0566406-.20176-.04871-.3980844-.1205977-.5839844-.2128907-.0924-.0458799-.1824975-.0977423-.2734375-.1464843-.0935-.05011-.1875525-.0981383-.2890625-.1289063-.11349-.0344-.2331725-.0458325-.3515625-.0390625zm1.5507813.7929688a.05121251.05121251 0 0 1 .0078125 0 .05121251.05121251 0 0 1 .0410156.0507812c0 .00354.0052406.0194719-.0058594.0449219a.05121251.05121251 0 0 0 -.0019531.0019531c-.0077.01532-.0193437.0269031-.0273438.0332031-.0097.00811-.0183906.0133782-.0253906.0175782a.05121251.05121251 0 0 0 -.0019531.0019531c-.07884.046447-.1564562.0756175-.2226563.1171875-.07477.046977-.1418968.1145675-.2167968.1796875-.16506.143579-.35707.2562712-.5625.3320313-.1338.0493259-.27094.0808481-.40625.1113281-.1721.03877-.3490831.0791719-.5332032.0761719-.1848999-.0030331-.3790837-.0531262-.5273437-.1738282-.05442-.044219-.0967781-.0935456-.1425781-.1347656-.04562-.04106-.0946313-.0742575-.1445313-.0859375-.0077-.0018-.0243218-.0015125-.0449219-.0078125-.0184-.00581-.0381874-.0154731-.0546874-.0332031a.05121251.05121251 0 0 0 0-.0019531c-.0097001-.01174-.0155313-.0228732-.0195313-.0332032a.05121251.05121251 0 0 1 .0527344-.0722656c.08287.01299.1604625.0502131.2265625.0957031.06836.04706.1273531.0994419.1894531.1386719.13743.086909.3031131.1262125.4707031.1328125.16761.00648.3364794-.0208675.5058594-.0546875.1346-.026866.2682781-.0564787.3925781-.1054688.19047-.0750969.3647331-.1925893.5332031-.3183593.07649-.057095.1498969-.1151475.2167969-.1796875.0235-.02265.0489719-.0458594.0761719-.0683594.02756-.02267.0587094-.0473869.0996094-.0605469.04891-.01576.0912-.0071062.125-.0039062z" fill="#808080"/></g><path d="m-149.37109 68.561402c-.0764.0042-.15488.02626-.21289.07617-.0628.05404-.0951.134866-.10743.216797-.0124.08193-.006.165402 0 .248046.0354.493469.0354.990533-.0176 1.482422-.0291.270434-.0736.538816-.1211.806641-.0571.322323-.11957.647264-.11914.974609.00025.185074.0234.376038.1211.533203.0974.156566.26067.262284.42968.335938.24121.105113.50933.156232.76953.117187.21394-.0321.41642-.123341.5918-.25.17382-.125529.32157-.285447.47656-.433593.18123-.173226.374-.333742.58399-.470703.31341-.204422.65881-.353515.99219-.523438.19546-.09963.39186-.20916.5332-.376953.064-.07604.11617-.163256.15234-.255859.0205-.0872.007-.181686-.0371-.259766-.0324-.05756-.0791-.105483-.13086-.146484-.0518-.041-.10954-.07602-.16406-.113282-.11617-.07939-.22434-.16921-.33203-.259765-.10809-.0909-.21609-.182637-.30664-.291016-.0906-.108379-.16279-.236309-.18945-.375-.0162-.0843-.0142-.170322-.0215-.255859-.006-.06726-.0267-.132314-.0449-.197266-.0335.07252-.0608.157698-.0996.212891-.24993.354474-.60579.625091-1.01758.767578h-.004l-.004.002c-.28684.09393-.59264.09703-.88086.01172-.1705-.05046-.36662-.137327-.5293-.324219-.20052-.230481-.24612-.488264-.26172-.685547-.0144-.182196.0118-.371142.0606-.558594-.0364-.0036-.0728-.0098-.10937-.0078z" fill="#bebebe"/><path d="m-154.32227 63.098511c-.14994.187135-.29985.374904-.44921.5625-.15391.193294-.30779.385792-.46289.578125-.19031.235985-.38392.475269-.50782.751953-.10645.237741-.15752.496029-.23047.746094-.0828.283986-.19596.558669-.32226.826172-.11663.247006-.24435.487576-.37305.728516-.0885.165617-.17391.33601-.21094.519531l.33985-.0078.0625-.002.0605.01367c.2048.04682.40126.121961.58594.21875-.0355-.08959-.0757-.178587-.0937-.273437-.0754-.39587-.0566-.811598.0781-1.191407.0527-.148586.12228-.290968.18945-.433593.11643-.24721.22776-.498273.38086-.72461.19059-.281755.44425-.521607.59961-.824219.13113-.25542.18559-.541623.23633-.824218.0397-.221098.0785-.442792.11718-.664063zm-.40429 6.056641c.0939.160697.18249.324172.26172.470703.16175.29919.32227.579116.50586.822266.0553.07325.13071.167295.19726.248046.0213-.0206.0522-.02976.0684-.05469.0551-.08501.0755-.190327.0645-.291016-.0111-.100688-.0508-.196704-.10351-.283203-.12876-.21129-.33174-.364092-.52735-.515625-.16134-.124988-.30969-.266204-.46679-.396484z" fill="#bebebe"/><path d="m-156.52671 68.302193c.33991.07771.65773.249789.9086.491949.3094.298661.50896.689906.71348 1.068188.16532.305777.33808.608896.54754.886312.13671.181065.2885.350432.42312.533056.13461.182625.25307.381285.31232.600289.0769.284404.0473.597509-.0877.859376-.095.184278-.24101.34235-.4186.449357-.17758.107007-.38635.162291-.59354.154473-.32936-.01243-.63024-.177-.93645-.298924-.62388-.248408-1.3015-.326322-1.9445-.519931-.19761-.0595-.39192-.129929-.59093-.184571-.0884-.02428-.17828-.04562-.2618-.08349-.0835-.03787-.16161-.09425-.20797-.173372-.0358-.06113-.0509-.133086-.0498-.203925.001-.07084.0178-.140759.042-.207352.0484-.133185.12625-.253851.17823-.385668.0848-.215148.0976-.452193.085-.683119s-.0496-.460082-.0601-.691114c-.005-.102565-.004-.206175.0165-.30677.0206-.100596.0621-.198661.13123-.274554.0644-.07072.15048-.119541.24143-.149256.0909-.02971.18694-.04115.28254-.04499.19119-.0077.38526.01418.57241-.0257.18713-.03987.36031-.142558.48508-.287619.12477-.14506.20039-.331649.21183-.522643z" fill="#bebebe"/><path d="m-129.32812 62.351562-.0566.0098.11329-.0039z" fill="#f80000"/></g></svg>