<svg height="16" width="16" xmlns="http://www.w3.org/2000/svg"><g fill="#bebebe"><path d="m8.3144531.744282v6.570312h7.6855469v-6.011719c0-.309209-.249384-.558593-.558594-.558593zm-8.3144531 7.570312v6.382813c0 .309209.24938445.558593.55859375.558593h6.75585935v-6.941406zm8.3144531 0v6.941406h7.1269529c.30921 0 .558594-.249384.558594-.558593v-6.382813z"/><path d="m.55859375.744282c-.3092093 0-.55859375.249384-.55859375.558593v6.011719h7.3144531v-6.570312zm.90820315 1.40625h4.4648437a.50005.50005 0 0 1 .5.5v2.976562a.50005.50005 0 0 1 -.5.5h-4.4648437a.50005.50005 0 0 1 -.50000002-.5v-2.976562a.50005.50005 0 0 1 .50000002-.5z" fill-opacity=".501961"/><path d="m1.9667969 3.150532v1.976562h3.4648437v-1.976562z"/></g></svg>