<svg height="16" width="16" xmlns="http://www.w3.org/2000/svg" xmlns:xlink="http://www.w3.org/1999/xlink"><linearGradient id="a" gradientUnits="userSpaceOnUse" x1="10.45763022709" x2="15.40158417765" y1="4.22916626437" y2="4.22916626437"><stop offset="0" stop-color="#bebebe"/><stop offset="1" stop-color="#bebebe" stop-opacity="0"/></linearGradient><path d="m.66601562 3.1660156v9.6679684h3.22265628c-.5601041-.928154-.8886719-2.009882-.8886719-3.1679684 0-3.3939118 2.7721053-6.1660156 6.1660156-6.1660156 3.3939104 0 6.1679684 2.7721038 6.1679684 6.1660156 0 1.1580864-.328268 2.2398144-.888672 3.1679684h1.554688v-9.6679684z" fill="url(#a)"/><path d="m9.1660156 4.5a5.1666641 5.1666684 0 0 0 -5.1660156 5.1660156 5.1666641 5.1666684 0 0 0 5.1660156 5.1679684 5.1666641 5.1666684 0 0 0 5.1679684-5.1679684 5.1666641 5.1666684 0 0 0 -5.1679684-5.1660156zm.1679688 1.8339844a.83333349.83333349 0 0 1 .8320316.8320312.83333349.83333349 0 0 1 -.8320316.8339844.83333349.83333349 0 0 1 -.8339844-.8339844.83333349.83333349 0 0 1 .8339844-.8320312zm-1.5 2.3320312h2.3320316v3.3203124l.667968.013672v.666016h-2.9999996v-.666016h.6660156v-2.6660156h-.6660156z" fill="#bebebe"/></svg>