<svg height="16" width="16" xmlns="http://www.w3.org/2000/svg" xmlns:xlink="http://www.w3.org/1999/xlink"><linearGradient id="a" gradientUnits="userSpaceOnUse" x1="10.21665808262" x2="15.37556650118" y1="4.06473903" y2="4.06473903"><stop offset="0" stop-color="#bebebe"/><stop offset="1" stop-color="#bebebe" stop-opacity="0"/></linearGradient><path d="m0 2.9550781v10.0878909h16v-10.0878909zm1.4042969.7265625h2.296875c.3978217 0 .7246093.3248345.7246093.7226563v7.4042971c0 .397821-.3267876.724609-.7246093.724609h-2.296875c-.3978218 0-.72265626-.326788-.72265628-.724609v-7.4042971c0-.3978218.32483448-.7226563.72265628-.7226563zm0 .3398438c-.2151144 0-.3828125.1676981-.3828125.3828125v7.4042971c0 .215114.1676981.382812.3828125.382812h2.296875c.2151144 0 .3847656-.167698.3847656-.382812v-7.4042971c0-.2151144-.1696512-.3828125-.3847656-.3828125zm1.6601562 3.0644531v1.7011719l-1.0214843-.8496094z" fill="url(#a)"/></svg>