<svg height="16" width="16" xmlns="http://www.w3.org/2000/svg"><g fill="#bebebe"><g><g stroke="none" transform="matrix(.50000001 0 0 .50000001 -4 -2.500025)"><path d="m24.5 23c-2.305556 0-4.126206.375738-5.419922 1.056641s-2.080078 1.735026-2.080078 2.943359a.50004994.50004994 0 1 0 1 0c0-.791667.463638-1.487544 1.544922-2.056641s2.760634-.943359 4.955078-.943359c1.808083 0 3.28763.112027 4.285156.285156.498763.08657.880491.192991 1.09375.285156.0853.03687.117454.0617.140625.07813a.50004994.50004994 0 0 0 .980469-.148442c0-.245857-.136414-.446871-.271484-.570312-.135071-.123442-.282958-.203802-.453125-.277344-.340335-.147085-.774248-.257127-1.31836-.351563-1.088224-.18887-2.608114-.300781-4.457031-.300781z"/><path d="m24.5 19c-2.287037 0-4.086377.244017-5.380859.789062-1.294482.545046-2.119141 1.502605-2.119141 2.710938a.50004994.50004994 0 1 0 1 0c0-.791667.425341-1.334108 1.505859-1.789062 1.080518-.454955 2.781178-.710938 4.994141-.710938 1.808083 0 3.28763.112027 4.285156.285156.498763.08657.880491.192991 1.09375.285156.0853.03687.117454.0617.140625.07813a.50004994.50004994 0 0 0 .980469-.148442c0-.245857-.136414-.446871-.271484-.570312-.135071-.123442-.282958-.203802-.453125-.277344-.340335-.147085-.774248-.257127-1.31836-.351563-1.088224-.18887-2.608114-.300781-4.457031-.300781z"/><path d="m24.960938 27c-2.305484 0-4.04439.515487-5.222657 1.490234-1.178267.974748-1.738281 2.398655-1.738281 4.009766a.50005.50005 0 1 0 1 0c0-1.388889.439835-2.464982 1.376953-3.240234.937119-.775253 2.427927-1.259766 4.583985-1.259766 1.663159 0 3.021154.128502 3.910156.359375.4445.115436.769586.259197.943359.386719.173774.127522.185547.184137.185547.253906a.50005.50005 0 1 0 1 0c0-.430231-.258467-.811116-.595703-1.058594s-.763097-.416217-1.28125-.550781c-1.036307-.269127-2.449577-.390625-4.162109-.390625z"/></g><path d="m4.801758 7.2812251c.219987.270311.543788.500801.929687.682617.716606.337629 1.675416.536121 2.732422.536133.348218.000004 1.051081.001 1.679687-.06348.314305-.03224.609104-.07934.84961-.161133.120253-.0409.228765-.0889.324219-.166992.095456-.078095.182617-.208843.182617-.358396a.25002489.25002489 0 0 0 -.499023-.02832c-.02153.01761-.08245.05164-.168946.08106-.172997.05884-.444186.105479-.739258.135742-.590141.06053-1.280694.06153-1.628906.06153-.993278-.000011-1.89059-.193393-2.518555-.489258-.152951-.07207-.286344-.149659-.402343-.229492z"/><path d="m4.746095 8.4960691a.25002489.25002489 0 0 0 -.246095.253906c0 .313273.142578.598239.366211.819336s.525568.390894.88379.5263659c.716441.270946 1.667022.404286 2.713866.404298.348218.000004 1.051081.001 1.679687-.06348.314305-.03224.609104-.07935.84961-.161133.120253-.0409.228765-.0889.324219-.166992.095456-.078095.182617-.2088419.182617-.3583969a.25002489.25002489 0 0 0 -.499023-.02832c-.02153.01761-.08245.05164-.168946.08106-.172998.05884-.444186.105479-.739258.135743-.590141.06053-1.280694.06153-1.628906.06152-1.00344-.000012-1.908983-.134525-2.537109-.372071-.314063-.118777-.556546-.263356-.708984-.414066-.152439-.150711-.217774-.294141-.217774-.463867a.25002489.25002489 0 0 0 -.253905-.253906z"/><path d="m4.746095 10.746069a.25002489.25002489 0 0 0 -.246095.253906c0 .626546.514839 1.126238 1.231445 1.463867s1.675416.53612 2.732422.536132c.348218.000004 1.054713.0014 1.692383-.09668.318835-.04905.621191-.120088.870117-.247071.248927-.126977.473633-.352673.473633-.656245a.25002489.25002489 0 1 0 -.5 0c0 .07143-.03659.126981-.201171.210937-.16458.08396-.428209.153544-.718751.198243-.581082.0894-1.267999.09083-1.616211.09082-.993278-.000011-1.89059-.193391-2.518555-.489257-.627964-.295869-.945312-.671294-.945312-1.010746a.25002489.25002489 0 0 0 -.253905-.253906z"/><path d="m5.246094 13.496069a.25002489.25002489 0 0 0 -.246094.253906c0 .819444.374983 1.430265.988282 1.779297.613298.349031 1.435857.470707 2.404297.470703h.357421a.25002489.25002489 0 1 0 0-.5h-.357421c-.924413.000004-1.672313-.12833-2.157228-.404297-.484913-.275966-.735351-.665148-.735351-1.345703a.25002489.25002489 0 0 0 -.253906-.253906z"/></g><g><path d="m2.399414 2.4999741-1.8662109 3.500001h14.9335939l-1.867187-3.500001z" fill-opacity=".156863" fill-rule="evenodd"/><path d="m2.25 1.9999741a.25002501.25002501 0 0 0 -.220703.132813l-2.0000001 3.750001a.25002501.25002501 0 0 0 -.0292969.117187v1.25a.25002501.25002501 0 0 0 .25.249999h15.5a.25002501.25002501 0 0 0 .25-.249999v-1.25a.25002501.25002501 0 0 0 -.0293-.117187l-1.999994-3.750001a.25002501.25002501 0 0 0 -.220706-.132813zm.149414.5h11.200196l1.90039 3.562501v.937499h-15v-.937499z"/><path d="m3.03125 2.4999741-.5.500001h1l.500001-.500001zm1.96875 0-.5.500001h1l.5-.500001zm2 0-.5.500001h1l.5-.500001zm2.000001 0-.5.500001h.999999l.5-.500001zm1.999999 0-.5.500001h1l.5-.500001zm2.03125 0-.5.500001h1l.21875-.21875-.15625-.281251zm-11.963867 2.500001-.536133 1 1-1zm1.432617 0-.9999999 1h.9999999l1-1zm2 0-1 1h1l1-1zm2 0-1 1h1l1-1zm2.000001 0-1.000001 1h1.000001l.999999-1zm2.031249 0-.999999 1h.999999l1-1zm2 0-1 1h1l1-1zm2.000001 0-1.000001 1h1.000001l.609374-.609376-.205078-.390624z"/><path d="m12.723633 1.0009511a.24946404.24946404 0 0 0 .02442.498047h1.129883a.24946404.24946404 0 0 0 .002 0c.238499-.0012.45116.122597.55664.313476a.24946404.24946404 0 0 0 .001.002l.593751 1.057618a.24946404.24946404 0 1 0 .43457-.243164l-.591797-1.057617-.001-.000975c-.198008-.357204-.583078-.57111099-.995115-.56934h-1.129883a.24946404.24946404 0 0 0 -.02442 0z"/><path d="m13.749024.00095111a.24936975.24936975 0 1 0 0 .498047h.56543c.251983-.000006.471503.11668.568359.263672l.40918.62499999a.24936975.24936975 0 1 0 .416992-.273438l-.409181-.62597599a.24936975.24936975 0 0 0 -.000999 0c-.209112-.317392-.586074-.487314-.984351-.487305z"/><path d="m2.121094 1.0009511c-.4123904-.0018-.7974265.212374-.9951175.570313l-.5917968 1.057617a.249464.249464 0 1 0 .4345704.243164l.5937499-1.057618a.249464.249464 0 0 0 0-.002c.1054305-.190891.319337-.314699.557617-.313476a.249464.249464 0 0 0 .001 0h1.129883a.249464.249464 0 1 0 0-.498047h-1.128906z"/><path d="m1.6855471.00095111c-.3982771-.000009-.7752406.169913-.9843752.487305a.24936977.24936977 0 0 0 -.000975 0l-.4091813.62597599a.24936977.24936977 0 1 0 .4169922.273438l.4091798-.62499999c.096855-.146992.3163754-.263678.5683595-.263672h.5654299a.24936977.24936977 0 1 0 0-.498047z"/><g><path d="m1.50000011 5.99997517h1.00000002v1.00000002h-1.00000002z"/><path d="m3.50000015 5.99997517h1.00000002v1.00000002h-1.00000002z"/><path d="m7.50000023 5.99997517h1.00000002v1.00000002h-1.00000002z"/><path d="m5.50000019 5.99997517h1.00000002v1.00000002h-1.00000002z"/><path d="m9.50000027 5.99997517h1.00000002v1.00000002h-1.00000002z"/><path d="m11.50000031 5.99997517h1.00000002v1.00000002h-1.00000002z"/><path d="m13.50000035 5.99997517h1.00000002v1.00000002h-1.00000002z"/></g></g></g></svg>