<svg height="16" width="16" xmlns="http://www.w3.org/2000/svg"><g fill="#bebebe" stroke-width="0" transform="matrix(1.0319689 0 0 1.0563566 -.693977 -6.778957)"><path d="m1.6415 10.204 6.7832 3.7866-6.7832 3.7866z" fill-rule="evenodd"/><path d="m15.208 13.991c0-3.658-3.131-6.6271-6.7834-6.6271-2.109 0-4.1361 1.0094-5.348 2.5503l.85177.47616c1.034-1.2658 2.7359-2.0798 4.4963-2.0798 3.1115-.0000001 5.8141 2.5683 5.8141 5.6799 0 3.1115-2.7025 5.6799-5.8141 5.6799-1.7553 0-3.5475-.92376-4.5815-2.183l-.84886.47427c1.2122 1.5345 3.3264 2.6554 5.4304 2.6554 3.6524 0 6.7832-2.9686 6.7832-6.6266z"/><path d="m12.301 13.99c0-2.2361-1.64-3.7866-3.8761-3.7866-1.1905 0-2.0368.32699-2.7782 1.1454l.8789.49036c.55229-.54547 1.065-.68916 1.8993-.68916 1.6896 0 2.9071 1.1392 2.9071 2.84s-1.2175 2.84-2.9071 2.84c-.84982 0-1.4491-.21841-2.0039-.78193l-.86824.48468c.74137.81851 1.6817 1.2439 2.8722 1.2439 2.2361 0 3.8761-1.5505 3.8761-3.7866z"/></g></svg>