<svg height="16" width="16" xmlns="http://www.w3.org/2000/svg"><g transform="matrix(.36363637 0 0 .36363637 -.729403 -1.035807)"><g fill="#bfc0bc"><path d="m11.740234 12.888672v14h24.697266v-.298828h-.199219v-13.701172z" fill-opacity=".501961"/><path d="m11.759766 12.884766-.002.0039h.002zm-.01953.02734-6.2460934 8.972657v5h6.2460934z" fill-opacity=".333333"/><path d="m42.512179 21.584874-6.273438-9.007534v14.011719h6.273438z" fill-opacity=".670588"/></g><path d="m11.5 12a.50005.50005 0 0 0 -.410156.212891l-7.0000002 10a.50005.50005 0 0 0 .4101562.787109h39a.50005.50005 0 0 0 .410156-.787109l-7-10a.50005.50005 0 0 0 -.410156-.212891zm.259766 1h24.480468l6.298828 9h-37.0781245z" fill="#bebebe" fill-rule="evenodd"/><path d="m3.0605469 20.304688c-.5845958-.000001-1.0546875.470091-1.0546875 1.054687v15.285156c0 .584596.4700917 1.054688 1.0546875 1.054688h41.8906251c.584596 0 1.054687-.470092 1.054687-1.054688v-15.285156c0-.584596-.470091-1.054687-1.054687-1.054687zm14.4160151 7.642578a1.50015 1.50015 0 0 1 1.523438 1.521484c0 .320257.210993.53125.53125.53125h8.4375c.160129 0 .555845-.121435.791016-.296875.235134-.175435.240234-.296405.240234-.234375a1.50015 1.50015 0 1 1 3 0c0 1.187344-.698139 2.081768-1.447266 2.640625-.749126.558857-1.618801.890625-2.583984.890625h-8.4375c-1.930367 0-3.53125-1.600883-3.53125-3.53125a1.50015 1.50015 0 0 1 1.476562-1.521484z" fill="#bebebe"/></g></svg>