<svg height="16" width="16" xmlns="http://www.w3.org/2000/svg"><g fill="#bebebe"><path d="m13.279298 5.035438v5.755859c0 .948981-.795159 1.744141-1.744141 1.744141h-7.8144529v1.232421c0 .412279.3318619.744141.7441407.744141h10.7910152c.412279 0 .744141-.331862.744141-.744141v-8.732421z"/><path d="m13.279298 2.976844v2.058594h2.720703v-1.314454c0-.412278-.331862-.74414-.744141-.74414z" fill-opacity=".501961"/><path d="m.000001 2.058875v8.732422c0 .412279.3318619.744141.7441406.744141h10.7910154c.412279 0 .744141-.331862.744141-.744141v-8.732422zm6.0332031 1.847656c.6893166.000005 1.400105.110343 1.7617188.330078.361606.217547.5429639.537333.5429687.957032-.0000048.215348-.053888.408684-.1640625.580078-.1101826.169202-.2988995.351309-.5644531.546875l-.2714844.1875c-.1921085.136241-.2941917.246579-.3535156.330078-.059329.08131-.089847.17065-.089844.269531v.148438h-1.5058591v-.16211c-.0000011-.180184.047395-.338124.140625-.476562.093226-.140632.2415554-.319809.5410156-.535157l.2714844-.191406c.1610269-.114261.2781077-.221182.3515625-.322265.076274-.101077.1152312-.201651.1152344-.302735-.0000031-.153814-.067524-.273673-.203125-.359375-.1356062-.08789-.5109514-.132807-.7539063-.132812-.2288333.000005-.4766316.03857-.7421875.113281-.2655588.07252-.5419206.181147-.8300781.326172v-1.035156c.3418341-.09229.6530378-.161125.9355469-.205078.2825061-.04394.5556247-.06641.8183593-.06641zm-.6445312 4.095703h1.5058593v1.486328h-1.5058593z"/><path d="m0 2.058173v-1.31361c0-.412279.3319067-.744185.7441854-.744185h10.7906876c.412279 0 .744186.331906.744186.744185v1.31361" fill-opacity=".501961"/></g></svg>