<svg height="16" width="16" xmlns="http://www.w3.org/2000/svg" xmlns:xlink="http://www.w3.org/1999/xlink"><linearGradient id="a" gradientTransform="matrix(.34002592 0 0 .34149424 -.177324 -4.332157)" gradientUnits="userSpaceOnUse" x1=".85863" x2="46.056423" y1="36.364109" y2="36.364109"><stop offset="0" stop-color="#bebebe" stop-opacity="0"/><stop offset=".1" stop-color="#bebebe"/><stop offset=".75" stop-color="#bebebe"/><stop offset="1" stop-color="#bebebe" stop-opacity="0"/></linearGradient><path d="m0 4.0117188v.8457031h2.3867188c.0648683 0 .1254265.0111198.1835937.0292969a.16649175.16649175 0 0 1 .0039063 0c.0978563.0332927.1779597.0914254.2421874.15625a.16649175.16649175 0 0 0 .0019532.0019531c.0336166.0356004.0606231.0724477.0839844.1113281a.16649175.16649175 0 0 1 .0019531.0039062c.050927.0895894.0859375.1948294.0859375.3105469v5.0957029c0 .115715-.0350035.220957-.0859375.310547a.16649175.16649175 0 0 1 -.0019531.003906c-.0233512.038869-.0503244.075698-.0839844.111329a.16649175.16649175 0 0 1 -.0019532.003906c-.0642255.064827-.1443275.121007-.2421874.154297a.16649175.16649175 0 0 1 -.0039063.001953c-.0579797.01804-.1186277.027343-.1835937.027344h-2.3867188v.980468h16v-.980468h-12.0742188c-.0648682-.000003-.1273758-.009164-.1855468-.027344a.16649175.16649175 0 0 1 -.0039063-.001953c-.0978582-.033292-.1760095-.089477-.2402343-.154297a.16649175.16649175 0 0 1 -.0039063-.003906c-.033618-.035601-.0606254-.072449-.0839844-.111329a.16649175.16649175 0 0 1 -.0019531-.003906c-.050929-.089591-.0839844-.194831-.0839844-.310547v-5.0957029c0-.1157147.0330504-.2209518.0839844-.3105469a.16649175.16649175 0 0 1 .0019531-.0039062c.023354-.0388701.0503344-.0757051.0839844-.1113281a.16649175.16649175 0 0 1 .0039063-.0019531c.064226-.0648261.1423743-.122959.2402343-.15625a.16649175.16649175 0 0 1 .0039063 0c.0260571-.0081471.0617551-.0209538.1113281-.0273438a.16649175.16649175 0 0 0 .0019531 0c.04298-.00541.0668256-.0019531.0722656-.0019531h12.0742188v-.8457031zm3.8945312 1.1777343c-.0014927.000193-.0293182.0072319-.0507812.0136719-.0309501.010529-.0817071.0443206-.1113281.0742188-.009724.0109118-.0276094.031825-.0371094.046875v.0019531l-.0019531.0019531c-.021709.0398399-.0371094.0991241-.0371094.1425781v5.0957029c0 .043462.0153882.102866.0371094.142578l.0019531.001954v.001953c.00975.01544.0275394.038288.0371094.048828l.0019531.001953c.029882.02942.079053.060002.109375.070312.023942.00707.0572173.013672.0820312.013672h12.0742188v-5.6562498h-12.0742188c-.03241 0-.0376698-.0011447-.03125-.0019531zm-3.8945312.0019531v5.6562498h2.3867188c.0246958 0 .0559711-.006572.0800781-.013672.02995-.01019.079375-.041172.109375-.070312.00911-.00964.0288725-.034651.0390625-.050781.022607-.039766.0410156-.101765.0410156-.146485v-5.0957029c0-.0434621-.0173475-.1027271-.0390625-.1425781-.008678-.014443-.0265294-.0387583-.0371094-.0507812-.0296232-.029899-.0823272-.0636878-.1132812-.0742188-.023936-.007019-.0552973-.0117188-.0800781-.0117188zm5.2714844 1.0039063h2.7734375c.331573 0 .6035156.2719426.6035156.6035156v2.4628907c0 .331573-.2719426.6035156-.6035156.6035156h-2.7734375c-.331573 0-.6054688-.2719426-.6054688-.6035156v-2.4628907c0-.331573.2738958-.6035156.6054688-.6035156zm0 .3339844c-.1528775 0-.2714844.1166534-.2714844.2695312v2.4628907c0 .1528777.1186069.2695312.2714844.2695312h2.7734375c.1528775 0 .2714843-.1166534.2714843-.2695312v-2.4628907c.0000002-.1528778-.1186068-.2695312-.2714843-.2695312z" fill="url(#a)"/></svg>