<svg height="16" width="16" xmlns="http://www.w3.org/2000/svg"><g fill="#bebebe" fill-rule="evenodd"><path d="m4.4960938 3.1992188c-1.9775495.0804833-3.68119487 1.9757101-4.48437505 4.3300781l-.01171875.0351562.00195313.0351563c.08881811 1.1157989.75164426 2.2580799 1.73632807 3.0859376.9846841.827857 2.3028292 1.343402 3.703125 1.160156.4492318-.05879.8354657-.156846 1.1992188-.271484l-.7851562-1.060547-.5390626.392578a.250025.250025 0 0 1 -.3261718-.376953l.7949218-.8066408c.0039601-.00417.0056357-.0096098.0097657-.0136718l.1054687-.1035156 1.2480469-1.265625a.250025.250025 0 0 1 .1621094-.0742188.250025.250025 0 0 1 .0488281.0019531l.7089844.09375a.250025.250025 0 0 1 .1152344.4492188l-.46875.34375 1.4414062.4335937c.1008024.029815.1896457.090638.2539062.1738282.017638.023001.029928.0521778.046875.0761718.4588693-.3949811.9485908-.827292 1.5351568-1.3144531 1.381.6794033 2.544516 1.0331992 3.345703 1.1855469.828795.1575975 1.3125.1308591 1.3125.1308594l.349609-.0195313-.226562-.2675781c-.285511-.3370316-.361101-.7115496-.347657-1.1367188.01344-.4251691.123443-.8898206.201172-1.3554687.07773-.4656482.125988-.9377136-.021484-1.3808594-.136633-.4105611-.501053-.7600798-1.056641-1.0351563-.0054-.0079399-.006099-.0155004-.011719-.0234374l-.005859.0058593c-.03519-.0170172-.029196-.0481761-.066406-.0644531l-.570313-.2480469-.003906-.0019531.025391 1.8691406c-.6094.359496-1.686401.50907-2.947266.1699219-.33446-.2464873-.683262-.498359-1.0390625-.7480469.0019756-.3176359.1044815-.5947705.3027345-.8710937.212857-.2966789.508133-.5871456.787109-.9082031l.248047-.2851563-.376953-.0039063c-1.2412323-.0133293-1.9016391.0405346-2.3632812.1503907-.4335358.1031676-.6793246.2584098-1.0234376.4238281-.9015035-.4741805-1.7914598-.8295456-2.6035156-.9003906-.1329271-.0115965-.2712333-.0151808-.4042968-.0097656zm-.6464844 1.8261718c.7076501.0000002 1.2851562.5775066 1.2851562 1.2851563s-.5775061 1.2851562-1.2851562 1.2851562-1.2851564-.5775065-1.2851563-1.2851562c-.0000002-.7076497.5775062-1.2851562 1.2851563-1.2851563z"/><path d="m6.14528 10.066432 2.02645 2.73931c1.518145-.824882 1.347206-2.079404.841158-2.73931l-2.192877-.6599052z"/></g></svg>