<svg height="16" width="16" xmlns="http://www.w3.org/2000/svg"><g fill="#bebebe" transform="matrix(.34807733 0 0 .34807733 -.3542 .3304)"><path d="m24 25.982422c-4.408619 0-8.506094.511713-12 1.388672v3.65625l1.068359 1.533203-.02539.816406c.02271.06822.07118.248976.464843.576172.897285.745779 3.617848 2.046875 10.304688 2.046875 6.737387 0 9.65077-1.272964 10.712891-2.074219.485505-.36626.581253-.59593.621093-.6875l.03711-.660156.816406-1.195313v-2.382812-1.628906c-3.493746-.876959-7.591381-1.388672-12-1.388672zm-18 3.554687c-1.2076535.62369-2.2471775 1.31034-3.0507812 2.070313-1.204007 1.138637-1.9316407 2.462355-1.9316407 3.892578 0 1.430224.7276337 2.75394 1.9316407 3.892578 1.2040068 1.138636 2.8991381 2.125672 4.9726562 2.955078 4.147036 1.658815 9.816264 2.669922 16.078125 2.669922s11.93109-1.011107 16.078125-2.669922c2.073519-.829406 3.76865-1.816442 4.972656-2.955078 1.204007-1.138638 1.933594-2.462354 1.933594-3.892578 0-.999669-.362541-1.945681-.988281-2.814453-1.304884 1.373156-3.133026 2.248424-5.146485 2.287109-.05711.249457-.0231.293006-.117187.519532-.437478 1.05328-1.272057 2.225585-2.59375 3.222656-2.61892 1.975691-6.861449 3.285156-14.326172 3.285156-7.430188 0-11.600505-1.322369-14.140625-3.433594-1.2859406-1.068815-2.0475679-2.33062-2.3984375-3.445312-.06618-.210246-.029021-.24054-.0625-.470703l-1.2109375-1.740235z"/><path d="m18.107422 11.494141c-1.704125.293782-3.260444.704475-4.572266 1.228515-1.344301.537016-2.450814 1.179903-3.246094 1.929688-.7952731.749784-1.2890621 1.636063-1.289062 2.597656v14.71875l1.039062 1.492188c-.005.160949-.03779.335666.0957.759765.18189.577854.595729 1.324811 1.455078 2.039063 1.718706 1.428502 5.164146 2.740234 12.22266 2.740234 7.101055 0 10.679011-1.291215 12.519531-2.679688.92026-.694234 1.395043-1.415459 1.628907-1.978515.174649-.420491.160998-.604513.169921-.759766l.869141-1.271484v-.310547h1.71875c2.366987 0 4.281251-1.914263 4.28125-4.28125v-4.4375c0-2.366987-1.914264-4.28125-4.28125-4.28125h-1.71875v-1.75c0-.966527-.509116-1.852973-1.322266-2.601562-.519452-.478215-1.180717-.907713-1.9375-1.298829-.401732.08633-.794687.159979-1.142578.220703-.558033.09741-.850428.177136-1.201172.259766.286514.525723.839369 1.132633 1.896485 2.90625.160637.269517.340599.610583.466797 1.087891a12.5 3.5000003 0 0 1 .740234 1.175781 12.5 3.5000003 0 0 1 -12.5 3.5 12.5 3.5000003 0 0 1 -12.5-3.5 12.5 3.5000003 0 0 1 5.28125-2.847656c.09024-1.757367.632673-3.301543 1.326172-4.658203zm20.892578 10.505859h.05273c.916503 0 1.730174.216437 2.316407.570312.586231.353877.943359.845194.943359 1.398438v3.0625c0 .553243-.357128 1.04456-.943359 1.398438-.586228.353875-1.399901.570312-2.316403.570312h-.052734z"/><path d="m22.388669 10.260151c2.267067-3.2716595 5.352385-1.0522902 8.325933-3.3673278 2.973549-2.3150381 3.568258-5.8928232 3.568258-5.8928232s4.592094 4.723982 3.568259 7.5764868c-1.023835 2.8525062-6.474179 1.3080372-7.663596 3.8335332-1.184347 5.72823 9.728287 7.376001-5.406727 7.589982-7.782415-.08104-4.796629-6.269856-2.392127-9.739851z" fill-rule="evenodd"/></g></svg>