<svg height="16" width="16" xmlns="http://www.w3.org/2000/svg"><g fill="#bebebe" fill-rule="evenodd" transform="matrix(.38095238 0 0 .38095238 -1.14286 -1.14286)"><path d="m28.919922 9.0019531c-4.025892.059149-8.065489 1.7303019-11.259766 5.7207029-1.698026 2.121239-1.943054 4.688584-1.396484 6.900391.546569 2.211807 1.848648 4.106018 3.408203 5.001953.01273.0071.02576.01359.03906.01953 1.272064.589475 2.51944.396867 3.443359-.103515.923919-.500383 1.568643-1.251786 1.769531-2.011719.10955-.408823-.306667-.760374-.691406-.583985-.223032.102364-1.060243.229966-1.773438.103516-.699941-.1241-1.232354-.420988-1.408203-.949219-.214715-1.684877.216601-3.083231 1.085938-4.121093.879643-1.050167 2.213956-1.74148 3.8125-1.916016 2.713097-.296233 5.12564.892457 6.951172 2.833984 1.825531 1.941528 3.027494 4.634511 3.248047 7.212891.627395 7.334554-5.155988 14.781485-11.902344 16.886719-.551979.16762-.42842.982135.148437.978515l15.35548.0254c2.932039-.01629 5.244722-2.357696 5.24475-5.25l-.0045-22.746102c.000316-.122235-.04415-.240352-.125-.332031-1.302576-1.47787-2.801342-2.838069-4.535156-3.992187-3.363109-2.238673-7.385758-3.7368655-11.41013-3.6777349z"/><path d="m8.2500075 3c-2.890877.0205354-5.2394923 2.3181108-5.2500075 5.2500075v22.7460865c-.0003157.122235.044152.240352.125.332031 1.3025817 1.477872 2.801339 2.838068 4.5351562 3.992187 3.3631308 2.238673 7.3857838 3.736863 11.4101558 3.677735 4.0259-.05912 8.065499-1.730304 11.259766-5.720703 1.698033-2.121238 1.943054-4.688584 1.396484-6.900391-.546569-2.211807-1.84865-4.106019-3.408203-5.001953-.01273-.0071-.02576-.01359-.03906-.01953-1.272068-.589475-2.51944-.396867-3.443359.103515-.92392.500383-1.568649 1.251783-1.769532 2.011719-.10955.408823.306667.760374.691406.583985.245311-.112588 1.086118-.269555 1.800782-.175782.357332.04689.689244.149739.93164.298828.232257.142853.374768.319816.458985.572266.434948 3.392598-1.742242 5.841825-4.908203 6.1875-2.713098.296232-5.125643-.892458-6.951174-2.833985-1.825531-1.941528-3.027491-4.634511-3.248047-7.212891-.627391-7.334555 5.155983-14.781485 11.902344-16.8867188.551982-.1676186.428422-.9821391-.148438-.9785156z"/></g></svg>