<svg height="16" width="16" xmlns="http://www.w3.org/2000/svg"><path d="m2.7324219 0c-1.5138319 0-2.7324219 1.21859-2.7324219 2.7324219v10.5351561c0 1.513832 1.21859 2.732422 2.7324219 2.732422h10.5351561c1.513832 0 2.732422-1.21859 2.732422-2.732422v-10.5351561c0-1.5138319-1.21859-2.7324219-2.732422-2.7324219zm1.875 3.6015625c.26116-.00814.524909.037417.765625.140625.240716.103196.4584803.264126.625.46875.190904.234561.3100498.5195664.4199219.8027344.109872.28324.2144913.5710817.3808593.8242187.27436.417412.7072519.8144532 1.2011719.8144532s.9268199-.3970132 1.2011719-.8144532c.166372-.253161.2709874-.5410107.3808593-.8242187.109872-.28316.2290177-.5681574.4199218-.8027344.16652-.204612.384284-.365542.625-.46875.24072-.103204.504485-.148725.765625-.140625.52228.01628 1.025669.251935 1.41211.609375.392732.363281.675401.8618375.732421 1.3984375.02851.268321-.0003.5441081-.08789.7988281-.087588.25476-.234949.4886579-.431641.6699219-.23196.213796-.52263.348401-.789062.515625-.133212.083632-.262703.1761705-.373047.2890625-.110348.112892-.201433.2458644-.251953.3964844-.04498.134004-.055227.2798419-.035157.4199219.020068.140117.070192.2747992.144532.3945312.14868.2395.389271.4145725.652343.5078125.30512.108128.641443.113912.935547.25.232744.10768.428689.2950885.550781.5234375.122096.22836.170306.495766.140626.753906-.034869.30332-.178415.592453-.392579.806641-.21416.214188-.497909.352327-.794921.398437-.43552.067612-.900193-.073353-1.216797-.384765-.1583-.15572-.280247-.349372-.347657-.5625-.06741-.2132-.080909-.444627-.037109-.664063.033448-.167528.099166-.327.160156-.486328.060992-.159357.118113-.3218714.132813-.4921874.02596-.30068-.086687-.6076283-.283203-.8339844-.19652-.2263689-.471843-.3755562-.761719-.4414062-.187032-.04249-.381424-.0504981-.5703126-.0175781-.188872.032964-.3723386.1074014-.5253906.2246093-.1530521.117213-.2738469.2768684-.3417969.4589844-.06795.182112-.0815238.3873788-.0273438.5742188.055492.191352.176035.3545056.296875.5117186.12084.157208.2465494.316293.3183594.501953.07919.20476.0874631.43543.0332031.648438-.054256.212952-.1681874.407974-.3183594.566406-.1661199.17528-.3766607.307116-.6054687.378906-.22884.07184-.479282.083985-.71875.083985-.23948 0-.474317-.012155-.703125-.083985-.2288-.071788-.4393328-.203626-.6054687-.378906-.150172-.1584-.2640994-.353438-.3183594-.566406-.05425-.213-.0459869-.443694.0332031-.648438.071808-.185656.1975234-.344745.3183594-.501953.120836-.157209.241375-.3203626.296875-.5117186.05418-.186832.0406062-.3920988-.0273438-.5742188-.067952-.182124-.1887449-.3417753-.3417969-.4589844-.1530399-.1172079-.3365026-.1916393-.5253906-.2246093-.1888917-.03292-.3832845-.0249119-.5703125.0175781-.28988.06586-.5652027.2150492-.7617187.4414062-.196516.2263601-.3091672.5332764-.2832032.8339844.014704.170304.0718206.3328184.1328126.4921874.0609959.159308.1267082.31878.1601562.486328.043796.21944.0302986.450895-.0371094.664063-.067408.213136-.1893522.406796-.3476562.5625-.3166.311408-.7812769.452365-1.2167969.384765-.29704-.046112-.5807579-.184249-.7949219-.398437-.2141641-.2142-.3577101-.503329-.3925781-.806641-.029672-.25812.018537-.525558.140625-.753906.12212-.228337.3180533-.4157535.5507813-.5234375.29408-.136088.6304148-.141868.9355468-.25.26308-.09324.5036678-.2683125.6523438-.5078125.07434-.119728.1244632-.2544102.1445312-.3945312.020068-.1400681.0097958-.2859059-.0351562-.4199219-.050524-.150616-.1416091-.2835924-.2519532-.3964844-.110348-.112892-.2398308-.2054325-.3730468-.2890625-.2664-.16724-.5570825-.301845-.7890625-.515625-.196684-.18128-.3440446-.4151619-.4316407-.6699219-.087612-.25472-.1164026-.5305151-.0878906-.7988281.057-.5366.3396859-1.0351765.7324219-1.3984375.38644-.357424.8898294-.593095 1.4121094-.609375zm3.3925781 3.8652344a.80084.81396056 0 0 0 -.8007812.8125.80084.81396056 0 0 0 .8007812.8144531.80084.81396056 0 0 0 .8007812-.8144531.80084.81396056 0 0 0 -.8007812-.8125z" fill="#bebebe" stroke-width=".4"/></svg>