<svg height="16" width="16" xmlns="http://www.w3.org/2000/svg"><g fill="#bebebe" transform="translate(-83.0002 -669)"><path d="m85.697821 670.93215a.78280346.78280346 0 0 0 -.783109.78311v10.54543a.78280346.78280346 0 0 0 .783109.78311h10.608271a.78280346.78280346 0 0 0 .780696-.78311v-10.54543a.78280346.78280346 0 0 0 -.780696-.78311zm1.563817 1.56622h.580082 3.19045.415729 3.067182.224781a.78280346.78280346 0 0 1 .783121.78312v.24895 2.08105 2.73363 1.80552.54624a.78280346.78280346 0 0 1 -.783121.78312h-.333546-2.356578-4.7881a.78280346.78280346 0 0 1 -.780696-.78312v-.46407h-.0025v-6.5646h.0025v-.38672a.78280346.78280346 0 0 1 .780696-.78312z"/><path d="m89.253307 679.70514v-5.43192l4.224819 2.6901z" fill-rule="evenodd"/><path d="m92.873932 668.97679a.78280346.78280346 0 0 0 -.350463.10395l-4.543989 2.62487h3.125196l.50999-.29487v.002l.335972-.19336a.78280346.78280346 0 0 1 1.068318.28521l.115954.20061h1.807929l-1.348701-2.33725a.78280346.78280346 0 0 0 -.720268-.39156zm-7.526574 4.24911-1.955365 1.12874a.78280346.78280346 0 0 0 -.287622 1.06833l2.242987 3.88413v-3.12762l-.106302-.18368a.78280346.78280346 0 0 1 .106302-.92331zm11.137592 1.15049v3.13004l.16194.28037.111129.19336a.78280346.78280346 0 0 1 -.273119 1.06349v1.8055l2.124558-1.22784a.78280346.78280346 0 0 0 .287622-1.0659zm-9.452932 7.84804 1.377695 2.38559a.78280346.78280346 0 0 0 1.068318.28521l4.623746-2.6708h-3.127621l-.451976.26104-.471318.27312a.78280346.78280346 0 0 1 -1.070731-.28762l-.142611-.24654z" fill-opacity=".333333"/></g></svg>