<svg height="16" width="16" xmlns="http://www.w3.org/2000/svg"><g fill="#bebebe" transform="matrix(.24989501 0 0 .24989501 .05412 -.01567814738)"><path d="m31.796875 3.984375a28.091696 28.091696 0 0 0 -28.0917969 28.091797 28.091696 28.091696 0 0 0 28.0917969 28.091797 28.091696 28.091696 0 0 0 28.091797-28.091797 28.091696 28.091696 0 0 0 -28.091797-28.091797zm2.427734 5.4492188a20 20 0 0 1 20 20.0000002 20 20 0 0 1 -20 20 20 20 0 0 1 -20-20 20 20 0 0 1 20-20.0000002z"/><path d="m31.632812 19.269531a12.848894 12.848894 0 0 0 -12.849609 12.84961 12.848894 12.848894 0 0 0 12.849609 12.847656 12.848894 12.848894 0 0 0 12.84961-12.847656 12.848894 12.848894 0 0 0 -12.84961-12.84961zm-3.257812 7.078125 9.214844 5.583985-9.214844 5.865234z" fill-rule="evenodd"/></g></svg>