<svg height="16" viewBox="0 0 16 16" width="16" xmlns="http://www.w3.org/2000/svg"><g transform="translate(-182.73994 -597.68866)"><path d="m187.23994 604.68866v-4s-.0359-1.5 2-1.5v2.5c0 .84685.38116 1.5 1.25 1.5h.5c.88499 0 1.25-.79073 1.25-1.5v-2.5c2.12316 0 2 1.5 2 1.5v4" fill="none" stroke="#bebebe" stroke-linejoin="round"/><g fill="#bebebe" fill-rule="evenodd"><path d="m194.73059 603.81737v7.42664c1.46691-.16092 2.61985-1.76175 2.61985-3.71332s-1.15294-3.5524-2.61985-3.71332z"/><path d="m186.7493 603.85683v7.42664c-1.46692-.16092-2.61986-1.76175-2.61986-3.71333 0-1.95157 1.15294-3.5524 2.61986-3.71331z"/><ellipse cx="191.17303" cy="612.0202" rx="1.490632" ry=".867285"/><rect height="7.638302" rx=".35" ry=".157259" width="1.2" x="193.73994" y="603.69794"/><rect height="7.639294" rx=".35" ry=".15728" width="1.2" x="186.53995" y="603.7406"/></g><path d="m191.85499 611.99823 1.30373-.0111c1.00556 0 1.87825-1.0717 1.87825-1.0717" fill="none" stroke="#bebebe" stroke-linecap="round" stroke-width=".5"/></g></svg>