<svg height="16" width="16" xmlns="http://www.w3.org/2000/svg"><g fill="#bebebe"><path d="m11.763672.85546875c-1.115397 0-2.1870578.81084125-3.5332032 3.75390625-1.0266152-2.307107-2.6169023-3.67012887-3.9257813-3.68554688-2.8779632-.033899-4.3046875 3.17828618-4.3046875 5.42382808 0 2.1432591.86968987 5.0255188 3.7714844 5.3261718l-.8808594-1.6953124c-.038475-.0748465-.0673491-.1542501-.0859375-.2363281-.1081853-.0862313-.1973029-.1939706-.2617187-.3164063l-.171875-.328125c-1.59336971-.9310115-1.74418122-3.8093434-.3710938-5.1914062.3910859-.393642.8081762-.5889231 1.234375-.6113281 1.2785965-.06722 2.6454661 1.4271902 3.6816406 3.8320312-.0802463.1389907-.1612108.2561986-.2402344.3886719.00723.029664.013093.059643.017578.089844.085456.07764.1568232.1694919.2109375.2714843l.4042971.7714842c.0639322-.1475407.1328509-.2877781.1894531-.4453125.7674841 1.516687 2.388715 3.644352 4.1621091 3.669922 3.874114-.061434 4.339844-3.90879 4.339844-6.3398439 0-2.4477701-1.841959-4.67773435-4.236328-4.67773435zm.154297 2.33203125c.257559.0014.540028.026339.851562.074219 2.492275.3830239 2.953148 4.0862163 1.28711 5.6777343-1.666038 1.5915187-3.872341-.2173743-5.2539066-3.4238283.7326319-1.268958 1.3123216-2.337689 3.1152346-2.328125z"/><path d="m11.5 4.5v1.5h-1.5v1h1.5v1.5h1v-1.5h1.5v-1h-1.5v-1.5z"/><path d="m4.7412883 6.2147339c-.114172-.0356053-.2434928-.0266688-.3582599.033533l-1.4504989.7608693c-.2295345.1204046-.3169422.4006863-.1965386.6302213l.6922844 1.3227235 2.2797046-1.1958351-.6928657-1.3208589c-.0601991-.1147795-.159655-.1950481-.2738259-.2306531zm1.2781209 2.1273731-2.2405681 1.1753057 2.2763316 4.3781813 2.102685 1.32679.1525594-2.509794z" fill-rule="evenodd" stroke-width=".596423"/></g></svg>