<svg height="16" width="16" xmlns="http://www.w3.org/2000/svg"><path d="m8 0c-4.432 0-8 3.568-8 8s3.568 8 8 8 8-3.568 8-8-3.568-8-8-8zm-.0332031 1.0019531c-.618478 1.432902-.9482245 3.3802278-1.0078125 5.3847657 3.0810616-.4624225 6.4305406.1975242 8.0371096 1.7089843-.045514 3.3884229-2.473625 6.1771689-5.6933596 6.7792969-1.653481-1.014581-2.452755-4.821343-2.34375-8.4882812-2.404409.3608666-4.6398013 1.4038429-5.7539063 3.2675781-.128035-.5310932-.2050781-1.0827933-.2050781-1.6542969 0-3.8667674 3.1044159-6.9800334 6.9667969-6.9980469z" fill="#bebebe" stroke-opacity=".55" stroke-width="1.12"/></svg>