<svg height="16" width="16" xmlns="http://www.w3.org/2000/svg"><path d="m54.135441 10.855112-41.05903 42.04245c-15.546623 15.541759 10.065442 14.246612 19.333621 20.124585 4.285287 2.789547-13.752782 6.376107-10.065442 10.062293 3.587682 3.686186 21.625751 7.073493 25.213434 10.660053 3.587682 3.686186-7.275023 7.571627-3.68734 11.257817 3.488024 3.68618 11.859283.19925 13.35415 8.56789 1.096236 6.17685 15.347308 3.08842 21.725409-2.19179 3.986314-3.38731-6.876391-3.38731-3.288708-7.07349 8.969205-9.066027 16.941832-4.08469 20.230541-12.453334 1.793841-4.4832-13.553466-7.671253-9.467495-10.560426 9.766469-6.874239 45.643289-10.361173 29.100089-26.899198l-42.553897-43.53685c-5.281866-4.9813335-13.952098-4.9813335-18.835332 0zm47.138159 80.996474c0 2.09216 16.24423 3.28768 15.34731-.498133-1.29556-6.376106-13.55347-5.877973-15.34731.498133zm-69.262199 11.058564c3.68734 3.18805 9.268179-.69739 11.06202-5.180591-3.587682-4.682453-16.842175.29888-11.06202 5.180591zm67.269042-6.674991c-4.584261 4.184321.797267 8.567891 5.281867 5.678721 1.19589-.79701-.0997-4.682454-5.281867-5.678721z" fill="none" stroke-width=".996422"/><g fill="#bebebe" fill-rule="evenodd"><path d="m3.1690298 3.1160626c-1.615012.2621635-.5127369 1.4062588-.5642608 2.8809084-.4069627-.21442-.9440028-.5219164-1.2556787-.548366-.1184194-.0100494-.2005647.0224221-.2264989.11921.4464503.3929403.5114068.6696406.5026688.9278513-.95717666.416271-1.63048233.5481095-1.62522968.6854575.00824998.2157258 1.16221518.613956 2.59083078 1.3430993.1250009.0637986.2762561.1195868.4112744.1808019.1365506.8797997.2004712 2.262356.6874444 2.131872.1504708-1.0186547.658022-1.0889937 1.0569954-1.261639a.57759609.62932106 0 0 0 -.00596.079473.57759609.62932106 0 0 0 .5781685.629826.57759609.62932106 0 0 0 .5781686-.629826.57759609.62932106 0 0 0 -.00397-.049671c.5064011.09399 1.021615.1751863 1.5715852.2066303a.57759609.75001276 0 0 0 .5781686.7152597.57759609.75001276 0 0 0 .5761816-.7053247c.54992-.0194 1.0520327-.0833 1.535822-.1649077a.57759609.62932106 0 0 0 .578169.6278394.57759609.62932106 0 0 0 .578169-.6298262.57759609.62932106 0 0 0 -.0079-.1013284c.405113.1906479.953905.2224289 1.11064 1.2834936.48021.128672.546981-1.2102526.679497-2.0921348.114529-.052664.239667-.1003621.349683-.1549731 1.277412-.6340977 2.557054-1.1930979 2.557054-1.3748887 0-.1141834-.615553-.3019871-1.509993-.739102-.0043-.2526695.06765-.5251019.502669-.9079829-.02594-.096788-.108079-.1292594-.2265-.11921-.300796.025526-.80732.3127468-1.209981.5265108-.02174-.013111-.04569-.032384-.06755-.045697-.01626-1.4416712 1.025907-2.5552256-.564261-2.8133562.09042.6550339-.102492 1.4082002-.95964 1.8398077-1.267713-.7504675-2.6180283-1.1404292-3.8406037-1.1543497-1.2355146-.0140678-2.6027545.34892-3.9518116 1.1742186-.8938287-.4277229-1.0952631-1.1938652-1.0033509-1.8596761zm4.9094653 2.1557143c.083951 0 .1667179.00772.2503411.00993-.0327837.6005801-.1021346 1.4691454-.3298144 1.468274-.2270775-.0008691-.2882311-.8630758-.3159064-1.4623094.1320254-.0062.2666576-.015895.3953797-.0158946zm.8642726.041723c.700338.0610864 1.3777843.1869312 1.9967683.3496831-.325505.5049083-1.0687974 1.2712724-2.5729499 1.3768756.3052038-.4351946.4918598-1.2604949.5761816-1.7265587zm-1.8576893.0198687c.0702649.4842985.2253795 1.279401.5046558 1.7007294-1.4951004-.1263932-2.1445737-.8688724-2.4060553-1.347073.6102394-.1615844 1.2613903-.2845257 1.9013995-.3536564zm4.4246786.4967084c1.347377.4292017 2.296779 1.0002449 2.296779 1.3331653 0 .2892265-1.117777.5052716-2.264989.8205622-1.147215.3152906-1.324676.7291678-3.4074205.7291678-2.0827441 0-2.4888789-.4149425-3.6776286-.6953917-1.1887497-.2804491-2.159688-.4285437-2.159688-.7947334 0-.4042774 1.004464-.951093 2.3186347-1.3649546.3253746.7050424 1.2715327 2.2473615 3.3835772 2.255056 2.0419752.00744 3.1061322-1.5189068 3.5107352-2.2828716z"/><path d="m5.3192922 13.89334c.6808439 0 .224561-3.194225-.0005087-3.194225-.2250696 0-.6803353 3.194225.0005087 3.194225z"/><path d="m10.764493 13.89334c.680844 0 .224561-3.194225-.000508-3.194225-.22507 0-.680336 3.194225.000508 3.194225z"/><path d="m8.0579346 15.941547c.6808441 0 .2245609-5.022982-.0005086-5.022982s-.6803355 5.022982.0005086 5.022982z"/></g></svg>