<svg height="16" width="16" xmlns="http://www.w3.org/2000/svg"><path d="m6.5 3.5c-1.38071 0-2.5 1.11929-2.5 2.5 0 .19407.0206.38114.0625.5625-1.16916.20931-2.0625 1.20814-2.0625 2.4375 0 .21842.04115.42306.09375.625-.17946-.0759-.38664-.125-.59375-.125-.82843 0-1.5.67157-1.5 1.5s.67157 1.5 1.5 1.5h12.5c1.10457 0 2-.89543 2-2s-.89543-2-2-2c-.37464 0-.73156.10201-1.03125.28125.0092-.09575.03125-.18305.03125-.28125 0-1.65685-1.34315-3-3-3-.36934 0-.70449.09667-1.03125.21875-.14217-1.24574-1.18496-2.21875-2.46875-2.21875zm-.3535156 3.1152344h.4042968.0429688c.07816-.0005.1546562.0160875.2226562.0546875l3.1289063 1.7890625c.1388595.07681.2089845.233535.2089845.390625 0 .1571-.070145.313825-.2089845.390625l-3.1289063 1.7871096c-.06802.0385-.1444562.05709-.2226562.05664h-.0429688-.4042968z" fill="#bebebe"/></svg>