<svg height="16" width="16" xmlns="http://www.w3.org/2000/svg"><path d="m.19524091 11.668667c2.26991079 1.706678 5.71488479-.283121 7.17991219-1.062306 2.8698759-1.5263663 3.3029039.389251 3.6957119.653173.608689.52061-1.500658 2.166384-1.382572 3.325963.0655.643678.155723 1.155003.155723 1.155003.267787-.000066 3.320338-1.521504 3.226801-3.033049 1.233444.6949 1.498033-.41189 2.929183-.191372-.202249-.30747-.463298-.765411-1.024512-1.005447-.59819-.223981-1.609359-.19273-1.871963-.954623-.04797-.861769-.03485-5.4589323-2.118676-6.8643268-.304433-.6121611.02415-1.4843959.616595-2.0803134.53574-.538839 1.340502-1.03505651 1.615954-1.35150296-1.246987-.01334334-2.510559.33845743-3.705186 1.03326996-.9476264.5511568-1.1925641 1.0429743-1.5883395 1.2272666-3.5730615-.7073398-7.51188089 2.236684-7.90947583 7.4027585-.0320908.4169191-.0256947 1.6163291.18084424 1.7455061z" fill="#bebebe" fill-rule="evenodd" stroke-width="1.102765"/></svg>