<svg height="16" width="16" xmlns="http://www.w3.org/2000/svg"><path d="m8 0a8 8 0 0 0 -8 8 8 8 0 0 0 8 8 8 8 0 0 0 8-8 8 8 0 0 0 -8-8zm0 2.28125c3.153414-.0000002 5.720703 2.565408 5.720703 5.71875s-2.567289 5.720703-5.720703 5.720703c-3.1534142 0-5.7207034-2.567361-5.7207031-5.720703 0-3.1533418 2.567289-5.71875 5.7207031-5.71875zm0 1c-2.612983 0-4.7207031 2.1058726-4.7207031 4.71875-.0000002 2.612878 2.1077199 4.720703 4.7207031 4.720703 2.612983 0 4.720703-2.107825 4.720703-4.720703 0-2.6128775-2.10772-4.7187502-4.720703-4.71875z" fill="#bebebe"/></svg>