<svg height="16" width="16" xmlns="http://www.w3.org/2000/svg"><g fill="#bebebe" transform="matrix(.1815177 0 0 .1815177 -.00039 -.00062)"><path d="m47.143455 28.293927c-5.409 0-13.323-4.407-21.036-4.407s-12.32 4.407-13.122 5.008c-.801.601-1.303 2.904 1.102 2.203s4.407-.701 8.214-.701 12.922 5.209 22.138 5.209 16.928-7.111 18.631-9.616.1-3.306-1.202-2.704c-1.303.601-9.716 5.008-14.725 5.008z"/><path d="m70.641455 42.015927c-5.683 0-13.997-4.406-22.1-4.406s-12.944 4.406-13.786 5.008-1.369 2.904 1.157 2.203 4.63-.701 8.629-.701 13.576 5.209 23.257 5.209 17.785-7.111 19.574-9.615c1.789-2.505.105-3.307-1.263-2.705s-10.206 5.007-15.468 5.007z"/><path d="m37.938455 57.157927c-5.893 0-14.515-4.761-22.918-4.761-8.4029994 0-13.4239994 4.761-14.29699936 5.41-.873.649-1.419 3.137 1.19999996 2.379 2.62-.757 4.802-.757 8.9489994-.757 4.147 0 14.079 5.626 24.12 5.626 10.04 0 18.443-7.681 20.299-10.386s.109-3.57-1.31-2.921-10.586 5.41-16.043 5.41z"/></g></svg>