<svg height="16" width="16" xmlns="http://www.w3.org/2000/svg"><g fill="#bebebe"><path d="m6.7929688.17578125c-.821685 0-1.5228734.49680721-1.9199219 1.23046875.3492346.0847663.6718626.2174381.9609375.375.374902.2043423.6400721.4846907.9082031.7714844 1.42715.3908767 2.5801771 1.3486422 3.2675785 2.6367187.139935.0959966.282956.186675.408203.3242188.490145.5382631.633489 1.1914366.666015 1.7519531.031889.5490522-.054628 1.2801598-.570312 1.8847656-.037384.1413707-.086866.2770433-.128906.4160156h1.078125c-.02202.2421531-.105262.9807198-.494141 1.4687498l-.224609.283203h.361328c.959255 0 1.577778-.478082 1.933593-.947265.305325-.4026014.37417-.7017.404297-.808594l.642579.0039062h.001953c.742894 0 1.253365-.3103758 1.541015-.7949218.287598-.4845759.371094-1.1179734.371094-1.8027344v-4.1953125c0-1.422676-1.002199-2.59765625-2.271484-2.59765625z" fill-opacity=".333333"/><path d="m4.0849186 2.314772c-.2207516.01-.4311499.06634-.6175273.184103 0 0 1.1692633.203018 1.4354619.826766-.010755.0011-.02119.0035-.03193.0048-.4605047-.349173-1.6631764-.568011-2.1154891-.05027 0 0 1.0218946-.03157 1.0563858.309103-1.6824155.632846-2.9272222 2.243935-2.7642662 4.152854.2191398 2.567075-.0018 3.644806-.2894022 4.383831-.2876056.738979-.6786968 1.196584-.7574732 2.408241l-.0006783.006115v.0054c0 .385913.094772.704587.3145381.921195.219766.216608.5414528.309783.9347826.309783.3989395.000034 9.1121263.05031 10.0543483.05031.423483 0 .675944-.234631.773777-.45788.09616-.219439.07674-.423566.07609-.430707-.0028-.296387-.174972-.552747-.408288-.778533-.23523-.227637-.541893-.435049-.863452-.633152-.643116-.396208-1.35713-.772724-1.619565-1.057068h-.000695c-.11318-.122401-.189633-.367796-.211957-.675272-.02232-.307475.0041-.669805.05095-1.012228.09297-.679477.261608-1.273249.264266-1.282609.114393-.272204.203121-.558631.263588-.855978.04012-.03255.07869-.06835.114809-.108016.303932-.333771.367772-.785982.343071-1.211277-.02468-.425296-.135339-.838181-.408272-1.137908-.100781-.110676-.214391-.196678-.33356-.263587-.5646223-1.292711-1.7158188-2.252919-3.1093767-2.536685-.3227263-.472354-1.3069597-1.109428-2.1501357-1.071331zm-.5822014 3.783967c.6770546 0 1.3994567.88578 1.3994567 1.492527 0 .768001-.7321565 1.290082-1.2262229 1.290082-.6770532 0-1.2269021-.623305-1.2269021-1.391305 0-.667404.3766153-1.391304 1.0536683-1.391304zm5.1107339.0021c.2774647-.01067.5754469.08035.8023099.329484.358461.393651.458151 1.433579.06114 1.869565-.397008.435938-1.0452419.208772-1.4395368-.224232-.4537266-.498271-.5002706-1.25627-.1032609-1.692256.144855-.159075.4018831-.271937.6793478-.282609zm-2.1365488 2.434104c.3728139 0 .4410059 2.05609 2.224864.763587-.099223 1.07171-1.373864 2.029891-1.7384512 2.377717-.7067495-.380483-2.4282361-.804088-3.1311141-2.358744 2.196247 1.274235 2.2666863-.782608 2.6447013-.782608z"/></g></svg>