<svg height="16" width="16" xmlns="http://www.w3.org/2000/svg"><g fill="#bebebe"><path d="m3.46875 0c-.49032 0-.79608.22798-1.03125.46875-.23518.24077-.4375.5614862-.4375 1.0351562v.4960938h-2v14h8.9433594c-.3776183-.364761-.696141-.778415-.9335938-1.193359-.1628293-.284542-.2765021-.54512-.3710937-.796875l-5.5898438.039062-.0488281-10.048828h2c0-.66536 0-2 0-2h3v2h2v1.9414062c.4935995-.4589144 1.098159-.8231374 1.859375-.9316406l.070313-.0097656h.070312v-3h-2v-.3710938-.03125c-.0239-.43144-.17024-.75369308-.40625-1.03320308-.22372-.26496-.6267-.53125312-1.15625-.53320312v-.03125h-.0625z"/><path d="m6 10h2c.27642-1.10346 1.06513-3.72415 3-4h3v2h2v2h-2v2h2v2h-2v2h-3c-1.93487-.27585-2.72358-2.89656-3-4h-2z" fill-rule="evenodd"/></g></svg>