<svg height="16" width="16" xmlns="http://www.w3.org/2000/svg"><g fill="#bebebe" transform="translate(-142.0002 -530)"><path d="m145.46889 530c-.49032 0-.79606.2289-1.03123.46967-.23518.24077-.4375.5596-.4375 1.03327l.00004.49706h-2v14h7.00007v-2l-4.95072.0494-.04935-10.0494h1.99993c0-.66536.00007-2 .00007-2h3l-.00013 2h1.99997l.00016 1h2l-.0002-3h-1.99996v-.37182-.0313c-.0239-.43144-.17024-.75376-.40625-1.03327-.22372-.26496-.62668-.53034-1.15623-.53229v-.0313h-.0625-3.90618z"/><path d="m148.0002 540h2c.27642-1.10346 1.06513-3.72415 3-4h3v2h2v2h-2v2h2v2h-2v2h-3c-1.93487-.27585-2.72358-2.89656-3-4h-2z" fill-rule="evenodd"/></g></svg>