<svg height="16" width="16" xmlns="http://www.w3.org/2000/svg"><g transform="translate(-323.02908 -649.02581)"><path d="m331.9377 653c.0187.16677.0625.32822.0625.5 0 2.48528-2.01472 4.5-4.5 4.5-.11769 0-.22834-.0224-.34375-.0312v2.21875c0 1.00412.80838 1.8125 1.8125 1.8125l1.54511-.00005 2 2.04688 2.0625-2.04688h1.61114c1.00413 0 1.8125-.80838 1.8125-1.8125v-5.375c0-1.00412-.80837-1.8125-1.8125-1.8125z" fill="#c3c3c3" opacity=".5"/><path d="m327.5002 650c-1.933 0-3.5 1.567-3.5 3.5s1.567 3.5 3.5 3.5 3.5-1.567 3.5-3.5-1.567-3.5-3.5-3.5zm-.53125 1h1.03125l-.0625 1.375a.19951718.19951718 0 0 0 0 .0625.19951718.19951718 0 0 0 0 .0312.19951718.19951718 0 0 0 .125.125.19951718.19951718 0 0 0 .0312 0 .19951718.19951718 0 0 0 .0625 0 .19951718.19951718 0 0 0 .0625 0 .19951718.19951718 0 0 0 .0312-.0312l1.15625-.75.5.90625-1.21875.625a.19951718.19951718 0 0 0 -.0312 0 .19951718.19951718 0 0 0 -.0312.0312.19951718.19951718 0 0 0 -.0312.0937.19951718.19951718 0 0 0 0 .0625.19951718.19951718 0 0 0 0 .0312.19951718.19951718 0 0 0 .0312.0625.19951718.19951718 0 0 0 .0312.0312.19951718.19951718 0 0 0 .0312.0312l1.25.625-.53125.90625-1.15625-.781a.19951718.19951718 0 0 0 -.0312 0 .19951718.19951718 0 0 0 -.0625-.0312.19951718.19951718 0 0 0 -.0625 0 .19951718.19951718 0 0 0 -.125.0937.19951718.19951718 0 0 0 -.0312.0312.19951718.19951718 0 0 0 0 .0312.19951718.19951718 0 0 0 0 .0625l.0625 1.3751h-1.03125l.0937-1.375a.19951718.19951718 0 0 0 -.0312-.0937.19951718.19951718 0 0 0 -.0312-.0625.19951718.19951718 0 0 0 -.0625-.0312.19951718.19951718 0 0 0 -.0625-.0312.19951718.19951718 0 0 0 -.0312 0 .19951718.19951718 0 0 0 -.0937.0312l-1.1875.78125-.5-.90625 1.25-.625a.19951718.19951718 0 0 0 .0312-.0312.19951718.19951718 0 0 0 .0312-.0312.19951718.19951718 0 0 0 .0312-.0625.19951718.19951718 0 0 0 0-.0312.19951718.19951718 0 0 0 0-.0625.19951718.19951718 0 0 0 0-.0312.19951718.19951718 0 0 0 -.0312-.0625.19951718.19951718 0 0 0 -.0312-.0312.19951718.19951718 0 0 0 -.0312 0l-1.25-.625.5-.90625 1.1875.75a.19951718.19951718 0 0 0 .0312.0312.19951718.19951718 0 0 0 .0625 0 .19951718.19951718 0 0 0 .0625 0 .19951718.19951718 0 0 0 .0312 0 .19951718.19951718 0 0 0 .0312-.0312.19951718.19951718 0 0 0 .0312-.0312.19951718.19951718 0 0 0 .0312-.0312.19951718.19951718 0 0 0 0-.0312.19951718.19951718 0 0 0 .0312-.0625.19951718.19951718 0 0 0 0-.0312z" fill="#bebebe"/></g></svg>