<svg height="16" width="16" xmlns="http://www.w3.org/2000/svg"><g fill="#bebebe" transform="translate(-63.0002 -649)"><path d="m75.000204 650c1.662 0 3 1.338 3 3v6c0 1.662-1.338 3-3 3h-8c-1.662 0-3-1.338-3-3v-6c0-1.662 1.338-3 3-3zm0 2h-8c-.554 0-1 .446-1 1v6c0 .554.446 1 1 1h8c.554 0 1-.446 1-1v-6c0-.554-.446-1-1-1z"/><path d="m71.000204 663c-5 0-5 1-5 1 0 1 1 1 1 1h8c1 0 1-1 1-1s0-1-5-1z"/><path d="m71.000202 652.99993v5.00007l-4 .00007v.99993h8v-6z" opacity=".35"/><path d="m70.000202 653-3 4h3z"/></g></svg>