<svg height="16" width="16" xmlns="http://www.w3.org/2000/svg"><path d="m8 .96875c-.25562 0-.52288.08538-.71875.28125l-.1875.1875-.46875.46875-1.03125 1.03125-3.21875 3.21875-.65625.65625-.46875.46875c-.39174.39174-.39174 1.04576 0 1.4375l.46875.46875.65625.65625 3.21875 3.21875 1.03125 1.03125.46875.46875.1875.1875c.19587.19585.46313.28125.71875.28125s.52288-.0854.71875-.28125l.1875-.1875.46875-.46875.3632812-.363281-2.1796874-2.091797c-.37845-.35441-.6152344-.857626-.6152344-1.416016 0-1.0731094.8725487-1.941406 1.9492187-1.941406.70922 0 1.3308349.3769863 1.6718749.9414062.34104-.5644198.960702-.9414062 1.669922-.9414062.799695 0 1.486479.4793988 1.787109 1.1660156l.259766-.2597656.46875-.46875c.39174-.39174.39174-1.04576 0-1.4375l-.46875-.46875-.65625-.65625-3.21875-3.21875-1.03125-1.03125-.46875-.46875-.1875-.1875c-.19587-.19585-.46313-.28125-.71875-.28125zm-1.5878906 2.3671875c.33039 0 .6204269.1765231.7792968.4394531.15887-.26293.4469538-.4394531.7773438-.4394531.50157 0 .9082031.40635.9082031.90625 0 .26015-.1088262.4950862-.2851562.6601563l-1.421875 1.3242187-1.3789063-1.3242187c-.1763-.1651-.2871094-.4000263-.2871094-.6601563 0-.4999.4066432-.90625.9082032-.90625z" fill="#bebebe"/></svg>