<svg height="16" width="16" xmlns="http://www.w3.org/2000/svg"><g fill="#bebebe"><path d="m13.279298 5.035438v5.755859c0 .948981-.795159 1.744141-1.744141 1.744141h-7.8144529v1.232421c0 .412279.3318619.744141.7441407.744141h10.7910152c.412279 0 .744141-.331862.744141-.744141v-8.732421z"/><path d="m13.279298 2.976844v2.058594h2.720703v-1.314454c0-.412278-.331862-.74414-.744141-.74414z" fill-opacity=".501961"/><path d="m.000001 2.058875v8.732422c0 .412279.3318619.744141.7441406.744141h10.7910154c.412279 0 .744141-.331862.744141-.744141v-8.732422z"/><path d="m0 2.058173v-1.31361c0-.412279.3319067-.744185.7441854-.744185h10.7906876c.412279 0 .744186.331906.744186.744185v1.31361" fill-opacity=".501961"/></g></svg>