<svg height="16" width="16" xmlns="http://www.w3.org/2000/svg"><path d="m205.12129 490.76953c-1.17521 0-2.12109.94588-2.12109 2.12109v9.98829c0 1.17521.94588 2.12109 2.12109 2.12109h10.07618c1.17521 0 2.12109-.94588 2.12109-2.12109v-9.98829c0-1.17521-.94588-2.12109-2.12109-2.12109zm2.82618 1.61133c.68554 0 1.19661.17774 1.53515.5332.33855.35547.50781.89301.50781 1.61524v2.70507h-.77929v-.71875c-.17774.28776-.39887.50044-.66407.63868-.26519.13542-.58897.20312-.97265.20312-.48524 0-.8724-.13541-1.16016-.40625-.28494-.27365-.42773-.64062-.42773-1.09765 0-.5332.17773-.93425.5332-1.20508.35829-.27084.8915-.40625 1.59961-.40625h1.0918v-.0762c0-.35829-.11849-.63542-.35547-.83008-.23416-.19749-.56424-.29492-.99024-.29492-.27083 0-.53429.0308-.79101.0957-.25674.0649-.50326.16317-.74024.29297v-.71875c.28494-.11002.56207-.19249.83008-.2461.26802-.0564.5293-.084.78321-.084zm2.74804 1.10156h1.51367v2.53906c.20877-.27647.44141-.47959.69532-.60937.2539-.13259.54492-.19922.875-.19922.58398 0 1.06423.23373 1.43945.69922.37522.46267.5625 1.05838.5625 1.78906 0 .73069-.18728 1.32943-.5625 1.79492-.37522.46268-.85547.69336-1.43945.69336-.33008 0-.6211-.0636-.875-.19336-.25391-.13259-.48655-.3368-.69532-.61328v.6836h-1.51367zm-2.25781 1.36914c-.62913 0-1.06597.071-1.30859.21485-.24262.14388-.36329.38932-.36329.73632 0 .27648.0909.49848.27149.66211.18337.16081.43099.24024.74414.24024.43164 0 .77756-.15235 1.03711-.45703.26237-.30752.39258-.71485.39258-1.22266v-.17383zm4.7793 1.46289c-.32444 0-.57509.11958-.75.35938-.1721.23698-.25782.57878-.25782 1.02734 0 .44857.0857.7934.25782 1.0332.17491.23699.42556.35547.75.35547s.57097-.11848.74023-.35547c.17209-.23697.25781-.5818.25781-1.0332 0-.45138-.0857-.79427-.25781-1.03125-.16926-.23698-.41579-.35547-.74023-.35547zm-4.79883 1.98242c.22005 0 .43902.0254.65625.0762.21723.0479.43836.12193.66406.2207l-.15625.76953c-.1862-.13541-.38607-.23697-.59766-.30469-.20876-.0677-.42469-.10156-.65039-.10156-.24826 0-.48524.0434-.71093.13086-.22288.0874-.41212.21224-.56446.37305-.24262.24544-.4299.53321-.5625.86328-.13259.33008-.19922.67079-.19922 1.02344 0 .426.10678.74435.31836.95312.21441.20877.53819.3125.97266.3125.21441 0 .44184-.0328.68164-.0977.24262-.0649.49544-.16122.75781-.29101l-.14843.76953c-.2257.0931-.45746.16189-.69727.20703-.23697.0479-.48133.0723-.73242.0723-.62913 0-1.11263-.15755-1.45117-.47071-.33854-.31597-.50782-.76562-.50782-1.34961 0-.49088.0868-.94162.26172-1.35351.17774-.41471.44011-.78711.78711-1.11719.23698-.22569.51519-.39605.83399-.51172.31879-.11567.66689-.17383 1.04492-.17383z" fill="#bebebe" transform="translate(-202.0002 -490)"/></svg>