<svg height="16" width="16" xmlns="http://www.w3.org/2000/svg"><g fill="#bebebe" transform="translate(-303.02908 -629.02581)"><path d="m304.0002 634v5h4.0625v-5zm2 1.9375 1-.9375v3h-1z"/><path d="m305.0002 630c-.61019 0-1 .42165-1 .96875v.0312h1zm0 1v1h1v-1zm1 0h1v-1h-1zm1 0v1h1v-1zm0 1h-1v1h1zm-2 0h-1v1h1z"/><path d="m309.09395 634v5h3.9375v-5zm.90625 1h1.04701c.77808 0 .95299.39744.95299.99295 0 .0763-.0231.11705-.0625.2258l-.40625.78125h.46875v1.0625h-1.21875-.8125l1.02816-1.90587c.0469-.0937-.00082-.15272-.0594-.15663h-.93751z"/><path d="m309.09395 630v1h.9375v-1zm.9375 1v1h1v-1zm1 0h1v-1h-1zm1 0v1h1v-1zm0 1h-1v1h1zm-2 0h-.9375v1h.9375z"/><path d="m314.09395 634v5h3.9375v-5zm.90625 1h2.03125l-.0312.5v.46875.0937l-.0625.125-.15625.3125.1875.34375.0625.125v.125.40625.5h-2.03125v-1h.90625l-.125-.21875-.125-.25.125-.25.1562-.2812h-.9375z"/><path d="m314.09395 630v1h.90625v-1zm.90625 1v1h1v-1zm1 0h1v-1h-1zm1 0v1h1v-1zm0 1h-1v1h1zm-2 0h-.90625v1h.90625z"/><path d="m309.09395 634v5h3.9375v-5zm.90625 1h1.04701c.77808 0 .95299.39744.95299.99295 0 .0763-.0231.11705-.0625.2258l-.40625.78125h.46875v1.0625h-1.21875-.8125l1.02816-1.90587c.0469-.0937-.00082-.15272-.0594-.15663h-.93751z"/><path d="m314.09395 634v5h3.9375v-5zm.90625 1h2.03125l-.0312.5v.46875.0937l-.0625.125-.15625.3125.1875.34375.0625.125v.125.40625.5h-2.03125v-1h.90625l-.125-.21875-.125-.25.125-.25.1562-.2812h-.9375z"/><path d="m317.0002 643c.61019 0 1-.42165 1-.96875v-.0312h-1zm0-1v-1h-1v1zm-1 0h-1v1h1zm-1 0v-1h-1v1zm0-1h1v-1h-1zm2 0h1v-1h-1z"/><path d="m312.90645 643v-1h-.9375v1zm-.9375-1v-1h-1v1zm-1 0h-1v1h1zm-1 0v-1h-1v1zm0-1h1v-1h-1zm2 0h.9375v-1h-.9375z"/><path d="m307.90645 643v-1h-.90625v1zm-.90625-1v-1h-1v1zm-1 0h-1v1h1zm-1 0v-1h-1v1zm0-1h1v-1h-1zm2 0h.90625v-1h-.90625z"/></g></svg>