<svg height="16" width="16" xmlns="http://www.w3.org/2000/svg"><path d="m49.982553 381.00459c-4.418276 0-8 3.58172-8 8s3.581724 8 8 8 8-3.58172 8-8-3.581724-8-8-8zm0 1.94321c1.121291 0 2.030093.9088 2.030093 2.03009 0 1.12128-.908802 2.03008-2.030093 2.03008s-2.030093-.9088-2.030093-2.03008c0-1.12129.908802-2.03009 2.030093-2.03009zm-4.797388 4.12017c3.206661-.0458 6.412936-.0154 9.619527.0113 0 0 .430917-.008.430917.42408v.20861c0 .22582-.235609.28804-.235609.28804l-2.985178.57817v2.1109l1.354691 3.90641c.136799.22572-.158388.2902-.158388.2902l-.526496.005c-.253171 0-.348086-.21303-.348086-.21303l-2.071779-3.59156c-.222279-.5041-.236169-.43981-.44654.00077l-2.168947 3.58622c-.07254.21764-.355596.22239-.355596.22239l-.570299-.009s-.208476-.006-.160647-.20918l1.387549-3.9888v-2.1109l-2.891946-.5548c-.232448-.0787-.328841-.29434-.328841-.29434v-.21764s-.0097-.44343.455668-.44343z" fill="#bebebe" transform="translate(-41.982553 -381.00459)"/></svg>