<svg height="16" width="16" xmlns="http://www.w3.org/2000/svg"><path d="m203.07716 490.00224c-.59485-.038-1.07596.47989-1.07596 1.07593v13.84589c0 .59604.4799 1.07594 1.07596 1.07594h13.84609c.59605 0 1.07595-.4799 1.07595-1.07594v-13.84589c0-.59604-.4813-1.11669-1.07595-1.07593-1.468.10058-2.63367.1658-3.71421.20377-2.21031-.12701-1.36632.84802-3.16808.86945-2.10435.025-.75732-.95813-3.61911-.91292-1.21185-.043-2.38259-.0989-3.34469-.1603zm9.56946 1.68183h3.67888v12.73463h-12.75656l-.0299-12.72648h3.84191s.11157.3401.69556.61676c.58404.27669.76078.25268.76078.25268l-1.65196 8.48523 2.80128 2.70342 2.72519-2.70342-1.6275-8.4635s.27199-.0548.85858-.32603c.39558-.18291.70372-.57329.70372-.57329z" fill="#bebebe" transform="translate(-202.0002 -490)"/></svg>