<svg height="16" width="16" xmlns="http://www.w3.org/2000/svg"><g fill="#bebebe" transform="translate(-203.00045 -529)"><path d="m1.75-36c-.952203 0-1.75.7978-1.75 1.75v4.5c0 .9522.797797 1.75 1.75 1.75h.125l-.78125 1.5625-.71875 1.4375h1.625 6 1.625l-.71875-1.4375-.78125-1.5625h.125c.952203 0 1.75-.7978 1.75-1.75v-4.5c0-.9522-.797797-1.75-1.75-1.75zm.25 2h6v4h-6z" transform="translate(203.00045 569)"/><path d="m210.7502 530c-.9522 0-1.75.7978-1.75 1.75v.25h2 .25 5.75v4h-3v3.25c0 .6591-.25164 1.26982-.65625 1.75h5.28125l-1.5-3h.125c.9522 0 1.75-.7978 1.75-1.75v-4.5c0-.9522-.7978-1.75-1.75-1.75z"/></g></svg>