<svg height="16" width="16" xmlns="http://www.w3.org/2000/svg"><g fill="#bebebe" transform="translate(-262 -381)"><path d="m274.1086 387c.61968.75088.99548 1.7106.99548 2.76018 0 2.39905-1.94483 4.34389-4.3439 4.34389-1.04958 0-2.00928-.37579-2.76018-.99547.52525 2.23887 2.53308 3.8914 4.93213 3.8914 2.79892 0 5.06787-2.26897 5.06787-5.06787 0-2.39908-1.65253-4.40688-3.8914-4.93213z"/><rect height="1.441942" rx=".720971" width="1.441942" x="267.79041" y="383.79041"/><rect height="1.397748" rx=".698874" width="1.397748" x="271.8125" y="384.8125"/><rect height="1.441942" rx=".720971" width="1.441942" x="268.79041" y="386.79041"/><path d="m265 393-.74508-2.25492-2.25492-.74508 2.25492-.74508.74508-2.25492.74508 2.25492 2.25492.74508-2.25492.74508z" transform="translate(.50492 -3.495079)"/></g></svg>