<svg height="16" width="15.999999" xmlns="http://www.w3.org/2000/svg"><g fill="#bebebe" transform="translate(-243.0002 -509)"><path d="m244.5019 517c-.83194 0-1.5017.669-1.5017 1.5v4c0 .831.66976 1.5 1.5017 1.5h9.01024c.83194 0 1.5017-.669 1.5017-1.5v-4c0-.831-.66976-1.5-1.5017-1.5zm.0626 1c3.18558.26867 6.11566.23073 8.88509 0 .30226-.0252.56314.25953.56314.5625v2.875c0 .30297-.26175.52842-.56314.5625-3.00415.33966-5.96427.32696-8.88509 0-.30144-.0337-.56314-.25953-.56314-.5625v-2.875c0-.30297.26089-.58799.56314-.5625z"/><path d="m252.511 509c-.83194 0-1.5017.669-1.5017 1.5v4c0 .831.66976 1.5 1.5017 1.5h4.00455c.83195 0 1.50171-.669 1.50171-1.5v-4c0-.831-.66976-1.5-1.50171-1.5zm.0626 1c1.29314.1279 2.58627.12207 3.87941 0 .30197-.0285.56314.25953.56314.5625v2.875c0 .30297-.26208.52562-.56314.5625-1.25472.1537-2.54147.17922-3.87941 0-.30063-.0403-.56314-.25953-.56314-.5625v-2.875c0-.30297.2613-.59235.56314-.5625z"/><path d="m244.5019 510c-.83194 0-1.5017.669-1.5017 1.5v3c0 .831.66976 1.5 1.5017 1.5h4.00455c.83195 0 1.50171-.669 1.50171-1.5v-3c0-.831-.66976-1.5-1.50171-1.5zm.0626 1c1.69195.19941 2.84796.13085 3.8794 0 .3009-.0382.56314.25953.56314.5625v2.875c0 .30297-.26231.5238-.56314.5625-1.21498.1563-2.49789.17677-3.8794 0-.30087-.0385-.56314-.25953-.56314-.5625v-2.875c0-.30297.2619-.598.56314-.5625z"/></g></svg>