<svg height="16" width="16" xmlns="http://www.w3.org/2000/svg"><g fill="#bebebe" transform="translate(-121 -447)"><path d="m1 2c-.554 0-1 .446-1 1v10c0 .554.446 1 1 1h14c.554 0 1-.446 1-1v-3.4941406c-.2152.0353203-.441164.0164973-.642578-.1054688.255448.4514094.083938 1.0068664-.357422 1.2636714v1.335938h-3v-1.652344c-.471182-.340983-.846963-.8042576-1.072266-1.347656h-1.927734v-2h1.341797l-.998047-1h-1.34375v-.6972656c-.3502483-.0238449-.68989-.0930371-1-.2246094v.921875h-2v-2h.6679688c-.3675261-.5142134-.5898438-1.13814-.5898438-1.8125 0-.0670696.0149184-.1234762.0195312-.1875zm10.318359 0c.003867.0631745.019532.1234251.019532.1875 0 .15116-.050866.2580213-.072266.3945312l1.416016 1.4179688h.318359v.3183594l.429688.4296875c.134619-.0212.238861-.0722657.388671-.0722657.846473 0 1.616431.3459686 2.181641.9003907v-2.5761719c0-.554-.446-1-1-1zm-9.318359 2h2v2h-2zm1 3h2v2h-2zm3 0h2v2h-2zm-4 3h2v2h-2zm3 0h6v2h-6z" transform="translate(121 447)"/><path d="m127.026 449.18765c0-.25241.0573-.49785.13581-.72346l1.1889 1.19136c.24416.24485.63238.24485.87656 0l.44816-.44815c.24416-.24484.24416-.63416 0-.87901l-1.18891-1.19135c.22497-.0786.46926-.13704.72099-.13704 1.20485 0 2.18153.97951 2.18153 2.18765 0 .25242-.0573.49662-.13581.72222l2.8482 2.85062c.22367-.0778.4661-.1358.71605-.1358 1.20486 0 2.18152.97951 2.18152 2.18766 0 .27399-.0639.53977-.15556.78148l-1.26668-1.26914c-.24417-.24484-.65213-.24484-.89631 0l-.42841.42963c-.12209.12242-.19506.28838-.19506.44814 0 .15977.073.32696.19506.44939l1.22718 1.23086c-.20833.0662-.43152.11729-.66174.11729-1.20485 0-2.18151-.97951-2.18151-2.18765 0-.25242.0573-.49663.13581-.72222l-.75928-.76173.003-.003-2.08646-2.08765c-.22497.0787-.46927.13704-.721.13704-1.20486 0-2.18151-.97951-2.18151-2.18766z"/></g></svg>