<svg height="16" width="16" xmlns="http://www.w3.org/2000/svg"><g fill="#bebebe"><path d="m9.4600758 6.115573c.9120982.3404411 1.7174112.983683 2.2422012 1.892646 1.199525 2.077638.487673 4.734334-1.589983 5.933869-.908963.52479-1.9279825.679196-2.888121.517988 1.5743148 1.676293 4.139412 2.103511 6.21705.903986 2.423936-1.39946 3.254419-4.498921 1.854969-6.9228391-1.19954-2.0776643-3.634573-2.9902051-5.8361162-2.3256499z"/><g transform="rotate(90)"><rect height="1.441942" rx=".720971" width="1.441942" x="5.995105" y="-2.519172"/><rect height="1.397748" rx=".698874" width="1.397748" x="8.628635" y="-4.885644"/><rect height="1.441942" rx=".720971" width="1.441942" x="10.759081" y="-2.636552"/></g><path d="m4.7551958 6.7760306-.74508-2.25492-2.2549201-.74508 2.2549201-.74508.74508-2.25491996.74508 2.25491996 2.25492.74508-2.25492.74508z"/></g></svg>