<svg height="16" width="16" xmlns="http://www.w3.org/2000/svg"><g fill="#bebebe"><path d="m6.026 2.18765c0-.25241.0573-.49785.13581-.72346l1.1889 1.19136c.24416.24485.63238.24485.87656 0l.44816-.44815c.24416-.24484.24416-.63416 0-.87901l-1.18891-1.19135c.22497-.0786.46926-.13704.72099-.13704 1.20485 0 2.18153.97951 2.18153 2.18765 0 .25242-.0573.49662-.13581.72222l2.8482 2.85062c.22367-.0778.4661-.1358.71605-.1358 1.20486 0 2.18152.97951 2.18152 2.18766 0 .27399-.0639.53977-.15556.78148l-1.26668-1.26914c-.24417-.24484-.65213-.24484-.89631 0l-.42841.42963c-.12209.12242-.19506.28838-.19506.44814 0 .15977.073.32696.19506.44939l1.22718 1.23086c-.20833.0662-.43152.11729-.66174.11729-1.20485 0-2.18151-.97951-2.18151-2.18765 0-.25242.0573-.49663.13581-.72222l-.75928-.76173.003-.003-2.08646-2.08765c-.22497.0787-.46927.13704-.721.13704-1.20486 0-2.18151-.97951-2.18151-2.18766z"/><path d="m6.5292969 4.8242188-1.0292969 1.1757812h-2.5v4h2.5l3.5 4v-8.2753906l-.4179688-.4179688c-.1303669.019335-.2288458.0683594-.3730468.0683594-.6322726 0-1.195598-.2171424-1.6796875-.5507812z" fill-rule="evenodd"/></g></svg>