<svg height="16" viewBox="0 0 16 15.999999" width="16" xmlns="http://www.w3.org/2000/svg"><g transform="translate(-161.64136 -579.25353)"><path d="m178.47766 611.54383c.8058-6.4843 5.5747-9.9922 11-11" fill="none" stroke="#bebebe" stroke-linecap="round" stroke-linejoin="round" stroke-miterlimit="0"/><g fill="#bebebe"><circle cx="189.4539" cy="600.62854" r="1.5" stroke-width="1.5"/><circle cx="178.4539" cy="611.62854" r="1.5" stroke-width="1.5"/><path d="m183.95386 606.09733v4.8437c0 1.7193 2 3.1563 4.4687 4.1875 2.5313-1.0312 4.5-2.1953 4.5-4.125v-4.9062zm1 2h3v1 1l-2-1zm4 0h3l-1 1-2 1zm-3 3h5c-2.4749 4.4894-5 0-5 0z" fill-rule="evenodd"/><path d="m7.9902344.25a.750075.750075 0 0 0 -.5195313.21875l-3.25 3.25a.750075.750075 0 0 0 .00781 1.0683594l6.5546874 6.3691406-.267578.265625 1.0625 1.0625.802734-.804687a.750075.750075 0 0 0 -.0078-1.06836l-6.5546971-6.3691405 2.1816406-2.1835937 2.191406 2.1914062-1.2207029 1.21875 1.0605469 1.0605469 1.75-1.75a.750075.750075 0 0 0 0-1.0605469l-3.25-3.25a.750075.750075 0 0 0 -.5410156-.21875z" fill-rule="evenodd" transform="translate(161.64136 579.25353)"/><path d="m4.78125 10.71875-1.0605469 1.060547 3.75 3.75a.750075.750075 0 0 0 1.0605469 0l1.984375-1.984375-1.0605469-1.060547-1.4550781 1.453125z" fill-opacity=".501961" fill-rule="evenodd" transform="translate(161.64136 579.25353)"/></g></g></svg>