<svg height="16" width="16" xmlns="http://www.w3.org/2000/svg"><g fill="#bebebe" stroke-width=".142363"><path d="m7.905886.0001307c-.6525412.00303204-1.2757034.05868442-1.8240219.15570919-1.6152779.28536656-1.9085497.88266321-1.9085499 1.98418001v1.4547687h3.8170997v.484923h-3.8170997-1.4325245c-1.1093555 0-2.08073882.6667865-2.38457511 1.9352428-.35047132 1.4539453-.36601663 2.3612308 0 3.8793833.27133308 1.1300543.91931321 1.9352423 2.02866831 1.9352423h1.3124061v-1.743942c0-1.2598963 1.0900916-2.3712287 2.3845751-2.371229h3.8126507c1.0613072 0 1.9085502-.8738456 1.9085502-1.9396917v-3.6346974c0-1.0344556-.872681-1.81153355-1.9085502-1.98418001-.6557207-.10915307-1.3360876-.15874127-1.9886288-.15570919zm-2.064259 1.1700434c.3942802 0 .7162623.3272414.7162623.7296088-.0000003.4009411-.3219821.7251599-.7162623.7251599-.3956937-.0000001-.7162623-.3242189-.7162623-.7251599-.0000001-.4023673.3205686-.7296088.7162623-.7296088z"/><path d="m12.27909 4.0797116v1.6950057c0 1.3141151-1.114116 2.4201656-2.3845752 2.4201658h-3.8126507c-1.044349 0-1.9085497.8938217-1.9085499 1.9396919v3.634697c0 1.034455.8995312 1.642911 1.9085499 1.939691 1.2082792.355282 2.3669558.419491 3.8126507 0 .9609702-.278232 1.9085502-.838176 1.9085502-1.939691v-1.454769h-3.8126511v-.484923h3.8126511 1.90855c1.109356 0 1.522747-.773799 1.908548-1.9352423.398521-1.195688.381564-2.3455358 0-3.8793833-.274159-1.1043702-.797782-1.9352428-1.908548-1.9352428zm-2.144338 9.2046374c.395694.000001.716262.324219.716262.72516 0 .402367-.320569.729609-.716262.729609-.3942807 0-.7162624-.327242-.7162624-.729609.0000003-.400941.3219813-.72516.7162624-.72516z" fill-opacity=".752941"/></g></svg>