<svg height="16" width="16" xmlns="http://www.w3.org/2000/svg"><g fill="#bebebe"><path d="m7.6481699.000127c-.6332433.00294244-1.2379766.05695021-1.7700795.15110777-1.5675086.27693359-1.8521073.85657933-1.8521075 1.92554483v.9122204h3.7042152v.9701507h-3.7042152-1.39016c-1.076548 0-2.01920429.647082-2.31405511 1.8780536-.3401067 1.4109793-.35519227 2.2914533 0 3.7647422.26330885 1.0966605.89212601 1.8780535 1.96867371 1.8780535h1.2735938v-1.6924063c0-1.2226647 1.0578539-2.3015937 2.3140551-2.3015937h3.6998978c1.0299208 0 1.8520118-.8475845 1.8520118-1.8819334v-3.527287c0-1.0038861-.846777-1.75800031-1.8520118-1.92554483-.6363288-.10592745-1.2965749-.15405024-1.9298183-.15110777zm-2.0032119.8849839c.38262 0 .69508.317571.69508.7080478-.0000002.3890928-.31246.7037304-.69508.7037304-.3839917-.0000001-.69508-.3146377-.69508-.7037304-.0000001-.3904767.3110883-.7080478.69508-.7080478z" stroke-width=".138154"/><path d="m12.43 4.5200001v1.6323989c0 1.2655768-1.073379 2.330601-2.29695 2.330601h-3.6719384c-1.0058056 0-1.8381114.8609809-1.8381116 1.86822v3.500446c0 .996247.8663325 1.582228 1.8381116 1.868047 1.1636855.342159 2.2795991.403996 3.6719384 0 .925503-.267954 1.838111-.807218 1.838111-1.868047v-.900666h-3.6719381v-.967382h3.6719381 1.838112c1.068414 0 1.466548-.745217 1.838109-1.863761.383815-1.1515241.367482-2.2589011 0-3.7360943-.26404-1.0635791-.768339-1.8637626-1.838109-1.8637626zm-2.065581 9.1144829c.381092 0 .689828.312242.689828.698373 0 .387507-.308737.702662-.689828.702662-.379727 0-.689826-.315155-.689826-.702661.0000003-.386132.310098-.698374.689826-.698374z" fill-opacity=".752941" stroke-width=".137107"/></g></svg>