<svg height="16" width="16" xmlns="http://www.w3.org/2000/svg"><path d="m54.135441 10.855112-41.05903 42.04245c-15.546623 15.541759 10.065442 14.246612 19.333621 20.124585 4.285287 2.789547-13.752782 6.376107-10.065442 10.062293 3.587682 3.686186 21.625751 7.073493 25.213434 10.660053 3.587682 3.686186-7.275023 7.571627-3.68734 11.257817 3.488024 3.68618 11.859283.19925 13.35415 8.56789 1.096236 6.17685 15.347308 3.08842 21.725409-2.19179 3.986314-3.38731-6.876391-3.38731-3.288708-7.07349 8.969205-9.066027 16.941832-4.08469 20.230541-12.453334 1.793841-4.4832-13.553466-7.671253-9.467495-10.560426 9.766469-6.874239 45.643289-10.361173 29.100089-26.899198l-42.553897-43.53685c-5.281866-4.9813335-13.952098-4.9813335-18.835332 0zm47.138159 80.996474c0 2.09216 16.24423 3.28768 15.34731-.498133-1.29556-6.376106-13.55347-5.877973-15.34731.498133zm-69.262199 11.058564c3.68734 3.18805 9.268179-.69739 11.06202-5.180591-3.587682-4.682453-16.842175.29888-11.06202 5.180591zm67.269042-6.674991c-4.584261 4.184321.797267 8.567891 5.281867 5.678721 1.19589-.79701-.0997-4.682454-5.281867-5.678721z" fill="none" stroke-width=".996422"/><g fill="#bebebe" fill-rule="evenodd"><path d="m5.9101562 1.2714844c-.0552426.0810227-.1049135.1240554-.1601562.2050781-.0990276.0140257-.1917516.0319942-.3476562.0175781-.0992635.0755273-.1205978.1248084-.1328126.2148438-.0393989-.0639891-.0989678-.1014422-.2011718-.1015625-.045718.054794-.066662.096648-.052734.1503906.077005.136968.1562408.2748119.28125.3925781-.030298.00456-.058838.00953-.089844.013672-.0175088-.0191486-.0488359-.0725926-.0585939-.0742188-.1591037-.0018447-.1725571.1011606-.2382813.1660156-.1779422.2890789-.2463013.493392-.3007812.6875-.0857189.1510751-.179156.30636-.2519531.4511718-.0450713.0262199-.0984254.0675867-.1914063.1816407-.0767866.2577667-.0976832.3877202-.1289062.5429687-.7720907 1.9753111-.4439807 3.7313193-.2871094 4.5058594 1.1741259 1.0834475 2.7901957 2.843626 4.75 6.3125-.3116522-3.188657-1.3956861-5.2941536-1.4705204-6.6949903-.1112144-2.0818433.9025711-2.0469062 3.0565154-3.0238172.763853-.2099852 2.267343.2619599 2.391411.060347.08016-.091988.255955-.1360113.35146-.068017.101907.072553.167575.1412398.21215.1119118-.025584-.8653382-1.426627-1.1017547-2.523438-1.6002781-.322354-.9164132-.7394157-1.5740841-1.642578-1.7851562-.0801737-.014177-.144872-.0196466-.2207031-.03125-.2864512-.1831042-1.4574334-.4306732-1.4609375-.390625 0 0-.027794.2044081-.099609.1933594-.0409248-.0187632-.2962302-.3889484-.3652348-.359375-.2383745-.0291041-.3422988.0811498-.6738281.078125-.1585892-.0747335-.1212316-.1458157-.1445313-.15625zm2.5234376 1.5175781c.1439048-.0069493.3070412.0226493.4628906.0839844.3819111.1496692.6224708.4470885.5371094.6640625-.0854351.2168253-.4641147.2710473-.8457032.1210937-.3819111-.1496692-.6224708-.4470885-.5371094-.6640625.0470997-.1199688.188102-.1955057.3828126-.2050781z"/><path d="m8 0a8 8 0 0 0 -8 8 8 8 0 0 0 8 8 8 8 0 0 0 3.982422-1.072266l.455078 1.072266h3.15625l-1.216797-3.185547a8 8 0 0 0 1.623047-4.814453 8 8 0 0 0 -8-8zm-.078125.24023438a5.296875 4.5826898 0 0 1 5.296875 4.58398442 5.296875 4.5826898 0 0 1 -4.9160156 4.5703124c.356484 1.2222188.9600832 3.0585598 1.1933594 5.4453128a1.0001 1.0001 0 0 1 -1.8671876.589844c-1.9152569-3.390027-3.4431226-5.042792-4.5566406-6.070313a1.0001 1.0001 0 0 1 -.3027344-.5351562c-.1089479-.5379107-.3032861-1.606255-.1738281-2.9082032a1.0001 1.0001 0 0 1 .1015625-.3476562 5.296875 4.5826898 0 0 1 -.0722656-.7441406 5.296875 4.5826898 0 0 1 5.296875-4.58398442z"/></g></svg>