<svg height="16" width="16" xmlns="http://www.w3.org/2000/svg"><path d="m54.135441 10.855112-41.05903 42.04245c-15.546623 15.541759 10.065442 14.246612 19.333621 20.124585 4.285287 2.789547-13.752782 6.376107-10.065442 10.062293 3.587682 3.686186 21.625751 7.073493 25.213434 10.660053 3.587682 3.686186-7.275023 7.571627-3.68734 11.257817 3.488024 3.68618 11.859283.19925 13.35415 8.56789 1.096236 6.17685 15.347308 3.08842 21.725409-2.19179 3.986314-3.38731-6.876391-3.38731-3.288708-7.07349 8.969205-9.066027 16.941832-4.08469 20.230541-12.453334 1.793841-4.4832-13.553466-7.671253-9.467495-10.560426 9.766469-6.874239 45.643289-10.361173 29.100089-26.899198l-42.553897-43.53685c-5.281866-4.9813335-13.952098-4.9813335-18.835332 0zm47.138159 80.996474c0 2.09216 16.24423 3.28768 15.34731-.498133-1.29556-6.376106-13.55347-5.877973-15.34731.498133zm-69.262199 11.058564c3.68734 3.18805 9.268179-.69739 11.06202-5.180591-3.587682-4.682453-16.842175.29888-11.06202 5.180591zm67.269042-6.674991c-4.584261 4.184321.797267 8.567891 5.281867 5.678721 1.19589-.79701-.0997-4.682454-5.281867-5.678721z" fill="none" stroke-width=".996422"/><path d="m5.1855469 1.304687c-1.2490642.000001-2.2981536.781134-2.9707031 1.816407-.6725496 1.035273-1.0449219 2.370156-1.0449219 3.828125 0 1.457968.3723723 2.792852 1.0449219 3.828125.6725495 1.035273 1.7216389 1.816406 2.9707031 1.816406.096332 0 .1893095-.01243.2832031-.02148.099855.72911.3882096 1.341769.8378906 1.77539.7457667.719133 1.7058499.888672 2.5078125.888672v-2c-.4861729 0-.9177079-.132003-1.1210937-.328125-.1845744-.177986-.3480148-.487607-.2324219-1.294926.2615071-.248677.4976969-.528736.6972656-.835937.6725496-1.035273 1.0449218-2.370157 1.0449219-3.828125 0-1.457969-.3723723-2.792853-1.0449219-3.828125-.6725495-1.035273-1.723592-1.816407-2.9726562-1.816407zm6.3144531.695313v2.083984h-1v2h1v3.416016c0 .419501-.01384 1.257783.601562 1.962891.615403.705107 1.64351 1.037109 3.148438 1.037109v-2c-1.214022 0-1.560764-.260061-1.640625-.351562-.079861-.091504-.109375-.25438-.109375-.648438v-3.416016h1.5v-2h-1.5v-2.083984zm-6.3144531 1.304687c.4171508 0 .8755504.260701 1.2949219.90625.4193712.64555.7226562 1.631402.7226562 2.738282 0 1.106879-.303285 2.092732-.7226562 2.738281-.4193713.645549-.8777711.90625-1.2949219.90625s-.8735975-.260701-1.2929688-.90625-.7226562-1.631402-.7226562-2.738281c0-1.10688.3032849-2.092732.7226562-2.738282.4193713-.645549.875818-.90625 1.2929688-.90625z" fill="#bebebe"/></svg>