<svg height="16" width="16" xmlns="http://www.w3.org/2000/svg"><path d="m8 1.25c-3.7101551 0-6.75 3.0398449-6.75 6.75 0 3.710155 3.0398449 6.75 6.75 6.75 1.2928131 0 2.499513-.375733 3.529297-1.013672l1.167969 1.167969h2.121093v-2.123047l-1.146484-1.146484c.678404-1.051901 1.078125-2.2980054 1.078125-3.634766 0-3.7101551-3.039845-6.75-6.75-6.75zm0 3c2.088835 0 3.75 1.6611652 3.75 3.75 0 .5084343-.102202.989717-.28125 1.4296875l-2.4492188-2.4492187c-.2832793-.2906701-.6722493-.4541501-1.078125-.453125-1.3468175.0003289-2.0109619 1.6377238-1.0449218 2.5761718l2.4042968 2.4042964c-.4059014.148413-.8400237.242188-1.3007812.242188-2.0888348 0-3.75-1.661165-3.75-3.75 0-2.0888348 1.6611652-3.75 3.75-3.75z" fill="#bebebe"/></svg>