<svg height="16" width="16" xmlns="http://www.w3.org/2000/svg"><g fill="#bebebe"><path d="m.5081956 1c-.2817828 0-.5081956.225207-.5081956.50549v11.837327c0 .280282.2264128.506572.5081956.506572h.4265796v1.150611h2.0240767v-1.150611h9.8124191v1.150611h2.024076v-1.150611h.696457c.281783 0 .508196-.22629.508196-.506572v-11.837327c0-.280283-.226413-.50549-.508196-.50549zm2.5551248 2.062008h10.1628236c.442006 0 .79766.35376.79766.793412v6.993505c0 .439653-.355654.793413-.79766.793413h-10.1628236c-.4420059 0-.7976603-.35376-.7976603-.793413v-6.993505c0-.439652.3556544-.793412.7976603-.793412z"/><g transform="matrix(.4786317 0 0 .47599469 -34.6454677 -209.39139543)"><rect height="9" rx=".9998" ry="1" width="9.96875" x="82.03125" y="451"/><path d="m92 455.4693 3.469295-3.4693h.530905v7h-.5z"/></g></g></svg>