<svg height="16" width="16" xmlns="http://www.w3.org/2000/svg"><path d="m54.135441 10.855112-41.05903 42.04245c-15.546623 15.541759 10.065442 14.246612 19.333621 20.124585 4.285287 2.789547-13.752782 6.376107-10.065442 10.062293 3.587682 3.686186 21.625751 7.073493 25.213434 10.660053 3.587682 3.686186-7.275023 7.571627-3.68734 11.257817 3.488024 3.68618 11.859283.19925 13.35415 8.56789 1.096236 6.17685 15.347308 3.08842 21.725409-2.19179 3.986314-3.38731-6.876391-3.38731-3.288708-7.07349 8.969205-9.066027 16.941832-4.08469 20.230541-12.453334 1.793841-4.4832-13.553466-7.671253-9.467495-10.560426 9.766469-6.874239 45.643289-10.361173 29.100089-26.899198l-42.553897-43.53685c-5.281866-4.9813335-13.952098-4.9813335-18.835332 0zm47.138159 80.996474c0 2.09216 16.24423 3.28768 15.34731-.498133-1.29556-6.376106-13.55347-5.877973-15.34731.498133zm-69.262199 11.058564c3.68734 3.18805 9.268179-.69739 11.06202-5.180591-3.587682-4.682453-16.842175.29888-11.06202 5.180591zm67.269042-6.674991c-4.584261 4.184321.797267 8.567891 5.281867 5.678721 1.19589-.79701-.0997-4.682454-5.281867-5.678721z" fill="none" stroke-width=".996422"/><path d="m1.6699219 0c-.92473811 0-1.6699219.74518379-1.6699219 1.6699219v12.6601561c0 .924738.74518379 1.669922 1.6699219 1.669922h12.6601561c.924738 0 1.669922-.745184 1.669922-1.669922v-12.6601561c0-.92473811-.745184-1.6699219-1.669922-1.6699219zm6.2148437 3.3554688a5.0989995 4.6440678 0 0 1 5.0976564 4.6445312 5.0989995 4.6440678 0 0 1 -5.0976564 4.644531 5.0989995 4.6440678 0 0 1 -1.4335937-.189453l-1.7402344.96875-.1601563-1.912109a5.0989995 4.6440678 0 0 1 -1.765625-3.511719 5.0989995 4.6440678 0 0 1 5.0996094-4.6445312z" fill="#bebebe" fill-rule="evenodd"/></svg>