<svg height="16" width="16" xmlns="http://www.w3.org/2000/svg"><path d="m54.135441 10.855112-41.05903 42.04245c-15.546623 15.541759 10.065442 14.246612 19.333621 20.124585 4.285287 2.789547-13.752782 6.376107-10.065442 10.062293 3.587682 3.686186 21.625751 7.073493 25.213434 10.660053 3.587682 3.686186-7.275023 7.571627-3.68734 11.257817 3.488024 3.68618 11.859283.19925 13.35415 8.56789 1.096236 6.17685 15.347308 3.08842 21.725409-2.19179 3.986314-3.38731-6.876391-3.38731-3.288708-7.07349 8.969205-9.066027 16.941832-4.08469 20.230541-12.453334 1.793841-4.4832-13.553466-7.671253-9.467495-10.560426 9.766469-6.874239 45.643289-10.361173 29.100089-26.899198l-42.553897-43.53685c-5.281866-4.9813335-13.952098-4.9813335-18.835332 0zm47.138159 80.996474c0 2.09216 16.24423 3.28768 15.34731-.498133-1.29556-6.376106-13.55347-5.877973-15.34731.498133zm-69.262199 11.058564c3.68734 3.18805 9.268179-.69739 11.06202-5.180591-3.587682-4.682453-16.842175.29888-11.06202 5.180591zm67.269042-6.674991c-4.584261 4.184321.797267 8.567891 5.281867 5.678721 1.19589-.79701-.0997-4.682454-5.281867-5.678721z" fill="none" stroke-width=".996422"/><path d="m4.5 0a4.5 4.5 0 0 0 -4.5 4.5 4.5 4.5 0 0 0 .6171875 2.2636719 7.4576273 7.4576273 0 0 0 -.1171875 1.2792969 7.4576273 7.4576273 0 0 0 7.4570312 7.4570312 7.4576273 7.4576273 0 0 0 1.2832032-.113281 4.5 4.5 0 0 0 2.2597656.613281 4.5 4.5 0 0 0 4.5-4.5 4.5 4.5 0 0 0 -.673828-2.3652344 7.4576273 7.4576273 0 0 0 .089844-1.0917968 7.4576273 7.4576273 0 0 0 -7.4589848-7.45898442 7.4576273 7.4576273 0 0 0 -1.0996093.08984374 4.5 4.5 0 0 0 -2.3574219-.67382812zm3.6015625 3.1054688c1.2851344-.0394169 2.6570945.4657209 3.4316405 1.6953124a.85048721.85048721 0 1 1 -1.439453.90625c-.4458201-.7077394-1.4065599-1.0066197-2.2753906-.8730468-.4344154.0667864-.8153197.2420853-1.0527344.4570312s-.3535156.4350498-.3535156.7832032c0 .3081493.0440707.3348832.4140625.5253906.3699917.1905073 1.024887.3537262 1.7304687.5195312.7055818.1658051 1.4671434.3336182 2.1523434.7382813.6852.404663 1.282254 1.2121001 1.263672 2.1933591-.014539.767788-.409734 1.443868-.949218 1.894531-.539487.450666-1.2190707.716694-1.9511724.814454-1.4642034.195515-3.2066727-.325113-4.3320312-1.847657a.85008502.85008502 0 1 1 1.3671875-1.0097652c.74083 1.0022992 1.8286852 1.2952872 2.7382812 1.1738282.454798-.060729.8467277-.234089 1.0878907-.435547.2411642-.201458.3354432-.389625.3398442-.623047.007838-.4140137-.076927-.4869799-.429688-.6953124-.3527612-.2083325-.9842039-.3863139-1.6757812-.5488281-.6915776-.1625142-1.4379603-.3113722-2.1191407-.6621094-.6811803-.3507372-1.3378906-1.0934873-1.3378906-2.0371093 0-.8226417.3746248-1.5545833.9140625-2.0429688s1.2212879-.7674442 1.9335938-.8769531c.1780764-.0273773.3593781-.0431972.5429687-.0488281z" fill="#bebebe"/></svg>