<svg height="16" width="16" xmlns="http://www.w3.org/2000/svg"><g fill="#bebebe"><path d="m8 0a8 8 0 0 0 -7.97265625 7.4394531l4.30664065 1.7539063a2.3201942 2.3201942 0 0 1 1.2871094-.390625 2.3201942 2.3201942 0 0 1 .1445312.0078125l1.6640625-2.4902344a3.1819806 3.1819806 0 0 1 -.0292969-.3964844 3.1819806 3.1819806 0 0 1 3.1816404-3.1816406 3.1819806 3.1819806 0 0 1 3.181641 3.1816406 3.1819806 3.1819806 0 0 1 -3.181641 3.1816407 3.1819806 3.1819806 0 0 1 -.351562-.0214844l-2.3027346 1.8085936a2.3201942 2.3201942 0 0 1 .0136718.230469 2.3201942 2.3201942 0 0 1 -2.3203124 2.320312 2.3201942 2.3201942 0 0 1 -2.3007813-2.041015l-3.06835938-1.4394534a8 8 0 0 0 7.74804688 6.0371094 8 8 0 0 0 8-8 8 8 0 0 0 -8-8z"/><path d="m10.705078 3.7148438a2.2428544 2.2428544 0 0 0 -2.2421874 2.2421874 2.2428544 2.2428544 0 0 0 2.2421874 2.2421876 2.2428544 2.2428544 0 0 0 2.244141-2.2421876 2.2428544 2.2428544 0 0 0 -2.244141-2.2421874zm0 .640625a1.6020389 1.6020389 0 0 1 1.603516 1.6015624 1.6020389 1.6020389 0 0 1 -1.603516 1.6015626 1.6020389 1.6020389 0 0 1 -1.6015624-1.6015626 1.6020389 1.6020389 0 0 1 1.6015624-1.6015624z"/><path d="m5.6171875 9.296875a1.7734375 1.7734375 0 0 0 -.6992187.1464844l1.0332031.4316406a1.2421875 1.2421875 0 0 1 .9082031 1.195312 1.2421875 1.2421875 0 0 1 -1.2421875 1.242188 1.2421875 1.2421875 0 0 1 -.6367187-.177734l-1.03125-.46875a1.7734375 1.7734375 0 0 0 1.6679687 1.177734 1.7734375 1.7734375 0 0 0 1.7734375-1.773438 1.7734375 1.7734375 0 0 0 -1.7734375-1.773437z"/></g></svg>