<svg height="16" viewBox="0 0 16 16" width="16" xmlns="http://www.w3.org/2000/svg"><path d="m8 0c-4.432 0-8 3.568-8 8s3.568 8 8 8 8-3.568 8-8-3.568-8-8-8zm-.002 2c.03492.00165.06821.017023.0918.042969.4796.5236.918647 1.0869999 1.373047 1.625.0008.002.0059.00386.0059.00586.6752.8984 1.240366 1.8902469 1.634766 2.8730469.438 1.0904.699687 2.0561812.929687 3.4257812.0388.2303999.07968.5324279.113281.7988279.0336.2664.05859.481938.05859.585938v.05078c0 .0684-.05269.125259-.121094.13086l-.083977.007812c-1.0476.0888-1.730094.313866-2.496094.822266-.3508.2328-.594056.434509-1.097656.912109-.088.0836-.170822.159244-.232422.214844-.0308.0276-.05617.04961-.07617.06641-.01.0084-.01854.01664-.02734.02344-.0044.0036-.008.0069-.01562.01172-.0036.0024-.0088.0038-.01758.0078-.0088.004-.01695.01372-.06055.01172-.0364-.002-.04473-.01007-.05273-.01367-.0076-.004-.01163-.0058-.01563-.0078-.0068-.0048-.01163-.0085-.01563-.01172-.0084-.0064-.01619-.01153-.02539-.01953-.0184-.0156-.04191-.03885-.07031-.06445-.0568-.0516-.130538-.120466-.210937-.197266-.608801-.5836-.990001-.879615-1.5-1.166015-.0528-.0296-.1015193-.05697-.1367192-.07617-.0148-.008-.025956-.01278-.035156-.01758.0008.0004.00586-.0004.00586 0-.0008-.0004-.00586-.0016-.00586-.002-.0036-.0012-.00381-.0031-.00781-.0039-.0016-.0012-.00586-.0012-.00586-.002-.0036-.0016-.00692-.0039-.011719-.0059-.01-.004-.024616-.01038-.041016-.01758-.0328-.0144-.077-.03349-.125-.05469-.2083999-.0924-.3492999-.144631-.5625-.207031-.316-.0924-.7920343-.173806-1.1152343-.191406-.0408-.0024-.078175-.0066-.109375-.0098-.0156-.0016-.030169-.0019-.042969-.0039-.0064-.0012-.011531-.0039-.019531-.0059s-.012922.002-.044922-.01758c-.0596-.0364-.054594-.06528-.058594-.08008-.0056-.0148-.00586-.02325-.00586-.03125 0-.016-.0004-.02932 0-.04492.0008-.0312.00186-.06999.00586-.117187.0076-.094.021463-.220434.039063-.365234.0352-.2896.086319-.650066.1367187-.9472661.23-1.3584.4836156-2.2899875.9160156-3.3671875.464-1.156 1.1044653-2.2359094 1.9472659-3.2871094v-.00195c.342-.4152.719397-.8498813 1.091797-1.2382813.02556-.026351.06112-.041669.09766-.041016z" fill="#bebebe" stroke-opacity=".55" stroke-width="1.12"/></svg>