<svg height="16" width="16" xmlns="http://www.w3.org/2000/svg"><g fill="#bebebe" transform="translate(-323 -649.00012)"><path d="m338.40053 650.35131a1.230441 1.230441 0 0 1 -.0384.15379 1.230441 1.230441 0 0 1 -1.23032.96119h-2.07616c.71107.47029 1.33149 1.04487 1.84548 1.73013 1.0664 1.4218 1.54069 3.11516 1.461 4.76749-.0111.23605-.0434.45796-.0769.69205-.26748 1.87277-1.25866 3.66407-2.88355 4.88283-3.24981 2.43749-7.90486 1.75033-10.34236-1.49945-2.43753-3.24985-1.75034-7.90485 1.49945-10.34237a1.238103 1.238103 0 0 1 .73044-.23068 1.238103 1.238103 0 0 1 .19223 0h1.03808v.99963.11528a1.238103 1.238103 0 0 1 0 .11528 1.238103 1.238103 0 0 1 -.49981.99964c-2.18596 1.63958-2.60073 4.69615-.96119 6.88209 1.63957 2.18595 4.69611 2.60077 6.88209.96119 2.18596-1.63959 2.60076-4.69613.96119-6.8821-.39631-.52837-.90176-.94677-1.461-1.26876v1.76858a1.230441 1.230441 0 0 1 -1.23032 1.23032 1.230441 1.230441 0 0 1 -.26913 0h-.96119v-1.03808-.19224-4.92127-1.23032h1.23032 4.92127a1.230441 1.230441 0 0 1 .23068 0h.99964v.99963a1.230441 1.230441 0 0 1 .0384.34603z" fill-opacity=".501961"/><g transform="translate(-2 .00352)"><path d="m326.0002 657.00012h10v7.05898c0 .4922-.47266.9375-.99609.9375h-8.00391c-.53906 0-1-.42964-1-1z"/><path d="m329.6875 651.96875a1.0001 1.0001 0 0 0 -.65625.375l-2.8125 3.46875a1.0001 1.0001 0 0 0 -.21875.625v1a1.0001 1.0001 0 1 0 2 0v-.65625l2.59375-3.15625a1.0001 1.0001 0 0 0 -.90625-1.65625z"/><path d="m331.90625 654.96875a1.0001221 1.0001221 0 1 0 -.0312 2l2.15625.375v.15625a1.0001 1.0001 0 1 0 2 0v-1a1.0001 1.0001 0 0 0 -.8125-1l-3-.5a1.0001 1.0001 0 0 0 -.3125-.0312z"/></g></g></svg>