<svg height="16" width="16" xmlns="http://www.w3.org/2000/svg"><g fill="#bebebe"><path d="m14.253906 0a1.230441 1.230441 0 0 0 -.123047.00585938h-4.9199215-1.2304687v1.23046872 3.8808594l2.4023432.4003906a1.0001 1.0001 0 0 1 .023438.0039063c.012118.0023123.023122.0072358.035156.0097656v-1.1425781c.55924.32199 1.064628.7392081 1.460938 1.2675781 1.318068 1.7573255 1.287815 4.0676134.097656 5.761719v3.390625c.134941-.08792.271709-.17155.402344-.269532 1.62489-1.21876 2.615332-3.010042 2.882812-4.882812.0335-.23409.065072-.4573094.076172-.6933594.07969-1.65233-.394537-3.343825-1.460937-4.765625-.51399-.68526-1.134634-1.2601787-1.845703-1.7304687h2.076171a1.230441 1.230441 0 0 0 1.230469-.9609375 1.230441 1.230441 0 0 0 .039063-.1542969 1.230441 1.230441 0 0 0 -.039063-.3457031v-1.00000002h-.998047a1.230441 1.230441 0 0 0 -.109375-.00585938z" fill-opacity=".501961"/><g transform="translate(-325 -648.9966)"><path d="m326.0002 657.00012h10v7.05898c0 .4922-.47266.9375-.99609.9375h-8.00391c-.53906 0-1-.42964-1-1z"/><path d="m329.6875 651.96875a1.0001 1.0001 0 0 0 -.65625.375l-2.8125 3.46875a1.0001 1.0001 0 0 0 -.21875.625v1a1.0001 1.0001 0 1 0 2 0v-.65625l2.59375-3.15625a1.0001 1.0001 0 0 0 -.90625-1.65625z"/><path d="m331.90625 654.96875a1.0001221 1.0001221 0 1 0 -.0312 2l2.15625.375v.15625a1.0001 1.0001 0 1 0 2 0v-1a1.0001 1.0001 0 0 0 -.8125-1l-3-.5a1.0001 1.0001 0 0 0 -.3125-.0312z"/></g></g></svg>