<svg height="16" viewBox="0 0 16 15.999999" width="16" xmlns="http://www.w3.org/2000/svg"><g fill="#bebebe" transform="translate(-161.64136 -579.25353)"><path d="m8.4003906 2.5a2 2 0 0 0 -1.9335937 1.5h1.0527343c.8036401 0 1.4804688.6787719 1.4804688 1.4824219v.9238281a2 2 0 0 0 1.400391-1.90625 2 2 0 0 0 -2.0000004-2z" stroke-width=".005936" transform="translate(161.64136 579.25353)"/><path d="m9 7v4.517578c0 .80365-.6768287 1.482422-1.4804688 1.482422h-1.9042968c.6274121.879082 1.6761769 1.472105 2.8847656 1.5 1.97919-.0456 3.544107-1.594278 3.498047-3.460938v-3.4628901c.008-.31107-.252201-.5684719-.582031-.5761719z" stroke-width=".00596" transform="translate(161.64136 579.25353)"/><circle cx="174.39136" cy="584.25354" r="1.5" stroke-width=".004452"/><g transform="translate(161.64136 579.25353)"><path d="m12.888672 7c.074722.1850878.116818.3876383.111328.6015625v3.4121095c.012629.511742-.086539.996574-.244141 1.455078 1.288089-.156995 2.274992-1.224176 2.244141-2.5078125v-2.5371094c.005-.22812-.182389-.4181781-.417969-.4238281z" stroke-width=".004313"/><path d="m1.4824219 5c-.266936 0-.4824219.2154859-.4824219.4824219v6.0351561c0 .266936.2154859.482422.4824219.482422h6.0351562c.266936 0 .4824219-.215486.4824219-.482422v-6.0351561c0-.266936-.2154859-.4824219-.4824219-.4824219zm1.5175781 1.5h3v.75h-1.125v3.25h-.75v-3.25h-1.125z" fill-rule="evenodd"/></g></g></svg>