<svg height="16" width="16" xmlns="http://www.w3.org/2000/svg"><path d="m8 0c-4.432 0-8 3.568-8 8s3.568 8 8 8 8-3.568 8-8-3.568-8-8-8zm2.695312 4.7988281c.187201.0116.240079.0296344.330079.1152344.1348.1284.195922.3076469.169921.4980469-.028.2048-2.2999651 6.6188216-2.3847651 6.7324216-.18.242-.4861375.321947-.7109375.185547v.001953c-.2116-.1284-.3455938-.350262-.9335938-1.539062-.3252-.658-.6343-1.2424284-.6875-1.2988284-.0596-.0632-.5508031-.3240406-1.2832031-.6816406-1.4472-.7068-1.5957031-.81875-1.5957031-1.21875 0-.1868.091575-.3653844.234375-.4589844.0492-.032 1.5628815-.5746781 3.3632812-1.2050781 3.1632004-1.1064 3.2820464-1.1440594 3.4980464-1.1308594z" fill="#bebebe" stroke-opacity=".55" stroke-width="1.12"/></svg>