<svg height="16" width="16" xmlns="http://www.w3.org/2000/svg"><g fill="#bebebe" fill-rule="evenodd"><path d="m2.3183594 3.3164062c-1.35037341 1.2311939-1.89062502 3.0532565-1.89062502 5.09375 0 2.7950928 1.87400642 4.6270108 3.89257812 5.8457028.248119.149799.4443722.03436.3203125-.335937-.5919664-1.766912-1.4810274-2.580097-1.4882812-5.1582032.2507025.2121126.7128673.4685454 1.0917968.4648437-.1677898-.3066391-.3867258-.6474224-.5625-1.0449219-.1157227.0523282-.2460173.0912303-.390625.1054688-.367727.0362074-.743947-.1331737-.953125-.3339844-.4183559-.4016214-.4664599-.8105463-.4277344-1.234375.0440066-.4816224.1659393-.8160277.2597657-1.1347656-.0068503.0232711.0002678.0127344-.0644531-.3164063-.0647211-.3291405-.1315615-.8925379.0390624-1.5292969.0432085-.1612513.1057093-.3006671.1738282-.421875z"/><path d="m7.6421478 15.848151c6.6473332-.297045 7.6871442-5.749135 7.6871442-7.7800802 0-2.0309456-2.101095-5.3008889-4.102473-5.797923-.598128-.1485426-.709567-.3056073-1.13055-.5139981-1.0049005-.4974349-3.5207451-.5674049-4.4126041.0276633.114167-.5342724.1625275-.91209677.5613553-1.5710536-.669885-.02106173-1.272111.5630957-1.9310735 1.4784377-.3498649.4859853-.5388148.9617591-.5497325 1.2282515-.0285292.6963797-.4844402.7166716-.6135176 1.198395-.2428636.9063792.1747164 1.2962583.0183907 1.8273284-.1009223.3428533-.1858165.5677509-.2181222.921327-.0301495.3299764.1960247.6519925.482118.3579636.5793743-.5954447.7293772-.474069 1.1185197-.7362841s.9355022-.6565962 1.4939985-.7777029c.5788324-.1255164 1.3643864.017411 1.9807029.017411 1.4344895 0 1.3640534-.6961334 1.8819973.5070723.5179435 1.2032056 1.0136055 2.4829961.081954 4.0321171.9563225 0 1.2139815-.3716829 1.5070695-.6647711-.341076 2.6569121-1.412886 4.9981341-3.8657995 6.0256011-.1645312.08058-.1818362.228847.010622.220247z"/></g></svg>