<svg height="16" width="16" xmlns="http://www.w3.org/2000/svg"><path d="m54.135441 10.855112-41.05903 42.04245c-15.546623 15.541759 10.065442 14.246612 19.333621 20.124585 4.285287 2.789547-13.752782 6.376107-10.065442 10.062293 3.587682 3.686186 21.625751 7.073493 25.213434 10.660053 3.587682 3.686186-7.275023 7.571627-3.68734 11.257817 3.488024 3.68618 11.859283.19925 13.35415 8.56789 1.096236 6.17685 15.347308 3.08842 21.725409-2.19179 3.986314-3.38731-6.876391-3.38731-3.288708-7.07349 8.969205-9.066027 16.941832-4.08469 20.230541-12.453334 1.793841-4.4832-13.553466-7.671253-9.467495-10.560426 9.766469-6.874239 45.643289-10.361173 29.100089-26.899198l-42.553897-43.53685c-5.281866-4.9813335-13.952098-4.9813335-18.835332 0zm47.138159 80.996474c0 2.09216 16.24423 3.28768 15.34731-.498133-1.29556-6.376106-13.55347-5.877973-15.34731.498133zm-69.262199 11.058564c3.68734 3.18805 9.268179-.69739 11.06202-5.180591-3.587682-4.682453-16.842175.29888-11.06202 5.180591zm67.269042-6.674991c-4.584261 4.184321.797267 8.567891 5.281867 5.678721 1.19589-.79701-.0997-4.682454-5.281867-5.678721z" fill="none" stroke-width=".996422"/><path d="m7.2558594 0c-.2781148 0-.5005052.22272107-.5039063.5h-3.6992187c-.5835187 0-1.0527344.46921574-1.0527344 1.0527344v.1445312c0 .5835187.4692157 1.0527344 1.0527344 1.0527344h3.6972656v1.9121094h-4.0996094c-.3423965 0-1.3395563.042172-1.46875 1.0664062l-1.17187497 9.1718754c-.06558307.585865.21777624 1.099609.85742187 1.099609h14.1171875c.626482 0 1.123623-.320966.996094-1.339844l-1.3125-8.9609372c-.068727-.5439898-.654018-1.0371094-1.298828-1.0371094h-4.119141v-1.9121094h3.697266c.583518 0 1.052734-.4692157 1.052734-1.0527344v-.1445312c0-.58351866-.469216-1.0527344-1.052734-1.0527344h-3.6992191c-.0034011-.27727893-.2257915-.5-.5039063-.5zm-3.3847656 5.5h2.8789062v1h-2.1132812c-.2208207 0-.8639454.0241359-.9472657.6113281l-.7578125 5.2578129c-.0422959.335875.1421631.630859.5546875.630859h9.1035159c.404035 0 .724825-.183456.642578-.767578l-.845703-5.138672c-.044323-.3118688-.422037-.59375-.837891-.59375h-2.298828v-1h3.083984c.509197 0 .971118.3695152 1.025391.7773438l1.037109 6.7187502c.100708.76385-.29043 1.003906-.785156 1.003906h-11.1503905c-.5051202 0-.7275712-.384996-.6757813-.824219l.9257813-6.8769529c.1020226-.7678664.8897697-.7988281 1.1601563-.7988281zm2.6289062 1.5h.25v2.4941406c0 .2802495.2256099.5058594.5058594.5058594h1.4882812c.2802495 0 .5058594-.2256099.5058594-.5058594v-2.4941406h.25l.5 3.5h1.5l-3.5 2-3.5-2h1.5z" fill="#bebebe" fill-rule="evenodd"/></svg>