<svg height="16.000031" width="16.000202" xmlns="http://www.w3.org/2000/svg"><g fill="#bebebe"><path d="m12 8a4 4 0 0 0 -4 4 4 4 0 0 0 4 4 4 4 0 0 0 4-4 4 4 0 0 0 -4-4zm-1 1h2v1h-2zm0 2h2v4h-2z"/><path d="m8 3a3 3 0 1 1 -6 0 3 3 0 1 1 6 0z" stroke-width="1.2"/><path d="m2.4414062 6.0859375c-1.10938.36328-2.43602995 1.2877537-2.43749995 2.9023437l-.00390625 3.0117188c-.00072.554.446 1 1 1h6.1015625c-.0664027-.323511-.1015625-.65763-.1015625-1 .0000002-1.883663 1.0678982-3.5131764 2.6171875-4.3652344-.4346755-.7463476-1.195925-1.3148866-2.0625-1.5410156-.70541.62353-1.5391775.90625-2.5546875.90625s-1.8531837-.2905325-2.5585938-.9140625z"/></g></svg>