<svg height="16" width="16" xmlns="http://www.w3.org/2000/svg"><g fill="#bebebe"><path d="m8.0546875 1.3789062c-.287757 0-.5334556.1452737-.6972656.3574219h-.1308594c-.429371 0-.7978011.1995026-1.0019531.5351563l-.0039063.0039062-1.8925781 3.5761719-.0976562.1933594c-.3771035-.0031604-.8375267.0020299-1.1640626-.0039063h-.1992187-.0039063c-.7250098 0-1.3577271.5019463-1.7988281 1.2578125-.23621962.4047837-.41582143.8904541-.53710935 1.4238281l2.57226565.0136719c.320516.001834.5646456.1590504.7128906.2773438.000202.0001615.0890974.089098.0996094.0996093l.0058594.0058594c.0036399.00354.0032168-.0001436.0292968.0371094.0013.00194.0026063.0038994.0039063.0058594.02195.032275.0412219.070925.0449219.078125.0007.0013.0012921.0025962.0019531.0039062.00394.007946.0165325.0216805.0390625.0859375h-.0019532c.01408.039951.0228907.0740144.0253907.0839844.01043.0412479.0190437.0814139.0273437.1230469.01603.0800385.0327482.1688513.0488282.2558594h3.0078124c.4889781 0 1.1059312.2349172 1.4082032.8457032.0274.055394.0489569.116837.0605468.179687.092229.510609.29729 1.248348.71875 1.826172.396946.544214.9658368.95387 1.9550778 1.0625.428451-.077488.852174-.377992 1.181641-.935547.092392-.15636.177726-.331347.253906-.519531.077123-.190648.263105-.3146.46875-.3125l.144532.001953h.001953c.0031.000026.004736.001897.007812.001953.160078-.545687.257813-1.148791.257813-1.794921 0-.5429813-.064761-1.0599799-.179688-1.5351568l-1.048828 1.9101568c-.0013.003299-.002606.006465-.003906.009765l-.175782.304688c-.133072.230332-.423182.316162-.660156.195312l-.308594-.15625c-.003299-.0013-.006465-.002606-.009765-.003906l-.318359-.169922c-.003923-.0025-.007819-.005111-.011719-.007813l-.314453-.179687c-.239217-.137182-.322232-.442134-.185547-.6816406l.175781-.3066406 1.667969-3.0390626c-.337098-.2801217-.717113-.4570312-1.132813-.4570312-.004 0-.0077.0019231-.011718.0019531v-.0039062l-.179688.0019531s-2.8457498.0213122-5.4746094.015625l1.6796875-3.1757812h.0019531c-.0057999.00977.0159588-.0187143.0429688-.0351563.02776-.016898.0576725-.0253906.0703125-.0253906h.1308594c.16381.2121482.4095086.3574218.6972656.3574219h5.6835935c.286204 0 .531391-.1433216.695313-.3535157h.382812l-3.818359 6.9570313-.177735.3105466.314454.179688.318359.169922.308594.15625.175781-.304688 3.957031-7.2128905c.171125-.2897648.109143-.6127794-.019531-.8476563-.150254-.2742746-.456651-.4947009-.841797-.4863281h-.597656c-.16381-.2121482-.409508-.3574218-.697266-.3574219z"/><path d="m.333984 9.220703c-.0883 0-.169086.04855-.21289.09766-.0438.04911-.06442.09906-.08008.142579-.03132.087015-.03711.164058-.03711.164058-.000826.0045-.0015.0091-.002.01367-.02576.979874.148812 2.191511.607422 3.18164.432718.934232 1.152937 1.675915 2.181641 1.753907.02926.02416.06752.04075.11914.03906l8.4375-.01172h.05274.01172c.0067-.000165.0093-.0051.01563-.0059.401341-.01744.857067-.163647 1.265625-.429687.435249-.283421.815088-.706205.962891-1.257813.0056-.02032.0076-.04148.0059-.0625 0 0-.0077-.07704-.03906-.164062-.01566-.04351-.03627-.09347-.08008-.142579-.04347-.04873-.12149-.09692-.208985-.09766h-.002l-.146484-.002c-.0846.208994-.180612.405708-.287109.585938-.393843.666499-.946113 1.110767-1.574219 1.203125-1.182511-.101868-1.918398-.633604-2.396485-1.289063-.492278-.674915-.707182-1.48062-.80664-2.03125-.003-.01627-.0083-.03205-.01563-.04687-.207546-.419377-.615733-.568267-.960944-.568267h-3.220703c-.04807 0-.142456-.0422-.214844-.0918-.0039-.0151-.007-.02745-.01172-.04883-.01527-.06857-.03341-.162295-.05078-.25586-.01737-.09356-.03395-.18743-.04883-.261718-.0074-.03714-.01447-.06996-.02148-.09766-.0035-.01385-.0063-.02563-.01172-.04101-.0027-.0077-.0074-.01667-.01367-.0293-.0032-.0063-.0068-.01334-.01367-.02344-.0035-.005-.01345-.01732-.01367-.01758-.000176-.000226-.02318-.021303-.02339-.021474-.111857-.089257-.241388-.167048-.402344-.167969z" fill-opacity=".990826" fill-rule="evenodd"/></g></svg>