<svg height="16" width="16" xmlns="http://www.w3.org/2000/svg"><g fill="#bebebe"><path d="m.333984 9.220703c-.0883 0-.169086.04855-.21289.09766-.0438.04911-.06442.09906-.08008.142579-.03132.087015-.03711.164058-.03711.164058-.000826.0045-.0015.0091-.002.01367-.02576.979874.148812 2.191511.607422 3.18164.432718.934232 1.152937 1.675915 2.181641 1.753907.02926.02416.06752.04075.11914.03906l8.4375-.01172h.05274.01172c.0067-.000165.0093-.0051.01563-.0059.401341-.01744.857067-.163647 1.265625-.429687.435249-.283421.815088-.706205.962891-1.257813.0056-.02032.0076-.04148.0059-.0625 0 0-.0077-.07704-.03906-.164062-.01566-.04351-.03627-.09347-.08008-.142579-.04347-.04873-.12149-.09692-.208985-.09766h-.002l-.146484-.002c-.0846.208994-.180612.405708-.287109.585938-.393843.666499-.946113 1.110767-1.574219 1.203125-1.182511-.101868-1.918398-.633604-2.396485-1.289063-.492278-.674915-.707182-1.48062-.80664-2.03125-.003-.01627-.0083-.03205-.01563-.04687-.207546-.419377-.615733-.568267-.960944-.568267h-3.220703c-.04807 0-.142456-.0422-.214844-.0918-.0039-.0151-.007-.02745-.01172-.04883-.01527-.06857-.03341-.162295-.05078-.25586-.01737-.09356-.03395-.18743-.04883-.261718-.0074-.03714-.01447-.06996-.02148-.09766-.0035-.01385-.0063-.02563-.01172-.04101-.0027-.0077-.0074-.01667-.01367-.0293-.0032-.0063-.0068-.01334-.01367-.02344-.0035-.005-.01345-.01732-.01367-.01758-.000176-.000226-.02318-.021303-.02339-.021474-.111857-.089257-.241388-.167048-.402344-.167969z" fill-opacity=".990826" fill-rule="evenodd"/><path d="m8.054688 1.3789062c-.287756 0-.533456.1452737-.697266.3574219h-.13086c-.42937 0-.797801.1995026-1.001953.5351563l-.0039.00391-1.892578 3.5761719-.0957.1875-1.166016.00195h-.199214-.0039c-.72501 0-1.357727.5019463-1.798828 1.2578125-.158461.2715443-.281678.5894982-.388672.9238274l2.427735.013672c.480062.00275.834893.2394528 1.019531.3867188.002.0013.0039.0026.0059.00391.000105.00008.05229.044981.05859.050781.0031.0029.0068.00511.0098.00781.0015.0014.0018.00396.0039.00586.001.0009001.0031.00131.0059.00391.0025.00239.08055.088819.0957.1054687.0015.0016.0098.00977.0098.00977.0052.00476-.0031-.00718.04297.058594.0026.00389.0052.00779.0078.011719.03704.054453.074.1247125.07813.1328125.002.00259.0039.0052.0059.00781.0016.00323.01923.025443.06055.1425781v.00195c.02217.063423.03559.120953.03711.1269532h2.599609c.632745-.0000002 1.460423.3228032 1.857422 1.1250005.04747.09597.08138.199175.101563.308593.00067.0013.0012.0026.0019.0039.085.470587.280216 1.138407.630859 1.61914.314406.431052.729595.726002 1.503906.835938.244563-.05772.533038-.223432.796875-.669922.07829-.13249.152954-.2838.220704-.451172.154765-.382637.528697-.630891.941406-.625l.134765.002h.0039c.0013-.000003.0026-.000003.0039 0 .0408.000345.07329.0086.111328.01172.08696-.412657.150391-.842802.150391-1.304687 0-.2547541-.01597-.5024634-.04297-.7441414l-.746094 1.3593754a1.0001 1.0001 0 0 1 -.01172.01953l-.175781.304688a1.0001 1.0001 0 0 1 -1.316406.392578l-.308594-.15625a1.0001 1.0001 0 0 1 -.01953-.0098l-.318359-.169922a1.0001 1.0001 0 0 1 -.02539-.01367l-.314449-.1797a1.0001 1.0001 0 0 1 -.371227-1.3652345l.171875-.3027344 1.679688-3.0605469c-.223219-.1125883-.456251-.1914062-.707032-.1914062-.004 0-.0077.00192-.01172.00195v-.00391l-.179686.00196-5.470703.00586 1.675781-3.1660156h.0019c-.0058.00977.01596-.018714.04297-.035156.02776-.016898.05767-.025391.07031-.025391h.13086c.16381.2121482.40951.3574217.697266.3574219h5.683593c.286204 0 .531391-.1433216.695313-.3535157h.382812l-3.818359 6.9570313-.177734.3105471.314453.179688.318359.169922.308594.15625.175781-.304688 3.957031-7.212891c.171136-.2897651.1092-.6127799-.019477-.8476568-.150254-.2742744-.456651-.4947009-.841797-.4863281h-.597656c-.16381-.2121482-.409508-.3574217-.697266-.3574219z"/></g></svg>