<svg height="16" width="16" xmlns="http://www.w3.org/2000/svg"><g fill="#bebebe" transform="translate(-142 -490)"><path d="m144.1875 490c-1.20512 0-2.1875 1.01794-2.1875 2.21875v10.5625c0 1.20081.98238 2.21875 2.1875 2.21875h11.625c1.20512 0 2.1875-1.01794 2.1875-2.21875v-10.5625c0-1.20081-.98238-2.21875-2.1875-2.21875zm0 2h11.625c.12026 0 .1875.08.1875.21875v10.5625c0 .13871-.06724.21875-.1875.21875h-11.625c-.12026 0-.1875-.08-.1875-.21875v-10.5625c0-.13871.06724-.21875.1875-.21875z"/><path d="m151.3125 493.96875a.50005.50005 0 0 0 -.34375.34375l-1.6875 6.09375-.875-1.1875a.50005.50005 0 0 0 -.40625-.21875h-2.5-.5v1h.5 2.25l1.3125 1.78125a.50005.50005 0 0 0 .875-.15625l1.53125-5.4375 1.0625 3.46875a.50005.50005 0 0 0 .46875.34375h1.5.5v-1h-.5-1.125l-1.4375-4.6875a.50005.50005 0 0 0 -.625-.34375z"/></g></svg>