<svg height="16" width="16" xmlns="http://www.w3.org/2000/svg"><path d="m4.2105263 0c-2.3326316 0-4.2105263 1.877895-4.2105263 4.210526v4.210527c0 2.190456 1.6560354 3.979968 3.7894737 4.189967v3.38898l3.3684213-3.368421h4.631579c2.332631 0 4.210526-1.877895 4.210526-4.210526v-4.210527c0-2.332631-1.877895-4.210526-4.210526-4.210526zm4.5847037 1.684211h.0033c1.066231.0075 1.992664.359877 2.717927 1.04194.367242.346148.648703.762373.833882 1.232731.182972.465558.276492.994574.28125 1.569901v.000822c.0017.197617-.168112.362415-.372533.36431-.000253.000084-.0041.000822-.0041.000822-.203958 0-.372894-.16219-.375-.358553v-.000822c-.0077-.987074-.309654-1.743495-.88898-2.289474-.586231-.551099-1.3132-.830531-2.197368-.837171-.204876-.001-.373712-.167342-.372533-.365131.0019-.196897.17075-.359375.374177-.359375zm-3.7976969.851151c.1487579.02529.2838279.101956.3898029.227796.0015.0016.0024.003.0041.0049.0034.0039.0082.0088.01398.01563.01151.01372.02764.03331.0477.05757.04012.0485.09507.116503.155427.190789.120717.148577.262456.32565.35033.444079h.000822c.163928.223116.380029.573288.491776.77056.214215.3816.08651.77915-.140625.953124l-.382401.305922c-.15595.125751-.140996.373387-.140625.379934.004.0149.563325 2.106985 2.643915 2.642269.0066.000384.253757.01525.377467-.140624l.306743-.384047c.17499-.226593.572599-.350442.953125-.137335h.000822c.198106.110253.545684.325422.77056.491776.118859.08721.294822.229374.443256.350329.145141.118312.262126.216101.268092.221217.243482.203116.302851.52176.152961.833882v.01727l-.01069.01809c-.1632.285642-.380112.55243-.648849.797697-.002.0018-.0029.0039-.0049.0058-.0019.0023.000205.000617-.0033.0041l-.0025.0016-.0025.0033c-.227073.190459-.456541.300204-.688322.327303-.03384.0076-.06932.01041-.109375.0082-.09877.0015-.198534-.01327-.294408-.04523l-.02056-.0074-.01234-.0148c-.338387-.097509-.87282-.321321-1.770504-.816563-.594231-.328548-1.090585-.666331-1.508223-.999177-.222232-.17419-.449598-.373983-.680099-.601974l-.0041-.0041-.0041-.0049c-.0012-.0016-.0067-.0075-.0148-.01563h-.0016l-.02303-.02303c-.01259-.01259-.01772-.02019-.02138-.02385-.01057-.0095-.02029-.01947-.02303-.0222-.230558-.230609-.429184-.459485-.604506-.679316-.3328004-.418274-.6679221-.914731-.9958884-1.509047-.492421-.896673-.7174412-1.426199-.8166118-1.766447l-.01727-.0099-.00822-.02796c-.030627-.09902-.04523-.19999-.04523-.299342 0-.03571-.0002059-.06907.00822-.106086.026421-.2184.1412451-.436375.3149672-.65296v-.01974l.019737-.02138c.2510737-.273309.5191449-.49124.8050986-.653783l.01727-.0099h.012335c.1543158-.07421.3088278-.100729.4514805-.07648zm3.8199009.833881c.64699.04598 1.189455.272139 1.572369.675987.38117.401853.570322.920065.556743 1.500823-.0044.19197-.169907.348684-.368421.348684h-.009c-.201457-.0043-.364576-.169053-.360197-.363487v-.0016c.0098-.422568-.106948-.73173-.363487-1.002467v-.000822c-.251369-.26579-.585794-.411519-1.081415-.446546-.200421-.01413-.356749-.186967-.342105-.380757.01463-.193575.194915-.343917.395559-.32977z" fill="#bebebe" fill-rule="evenodd" stroke-width=".421053"/></svg>