<svg height="16" width="16" xmlns="http://www.w3.org/2000/svg"><path d="m8 .625c-.4666425.000165-.9340431.12741434-1.0019531.3808594l-.6660157 2.4394531c1.1363903.3837386 2.195757.382795 3.3339844-.0019531l-.6640625-2.4375c-.06811-.25419509-.5353106-.3810244-1.0019531-.3808594zm-2.28125 5.0761719-.7832031 2.8691406c2.1947496 1.2249223 3.9289145 1.2227453 6.1289061-.0019531l-.78125-2.8671875c-1.5864366.7037188-2.9781558.7032474-4.564453 0zm-2.21875 4.2988281s-.49376.00092-.6875.5625l-1.3125 3.9375c-.5 1.49609-.004 1.50391 1.5 1.5h10c1.50391-.004 2.00781.004 1.5-1.5l-1.3125-3.9375c-.18783-.55795-.6875-.5625-.6875-.5625h-1.033203l.193359.710938c-1.34393.846377-2.5104994 1.291015-3.660156 1.291015-1.1485816 0-2.3119861-.444266-3.6542969-1.289062l.1953125-.712891z" fill="#bebebe" fill-rule="evenodd"/></svg>