<svg height="16.00366" width="16" xmlns="http://www.w3.org/2000/svg"><g fill="#bebebe" transform="translate(-183 -529)"><path d="m191.0002 533.84553v10.38049l-2.34399-2.28818-1.33941 2.73465c-.32808.73962-2.03368.14492-1.5487-.84412l1.32547-2.83928h-2.95789z" display="block"/><path d="m190.15645 530.0625c-3.82659.46006-6.57883 3.95775-6.09375 7.78125.13127 1.03473.29377 1.38184.29377 1.38184l1.67498-1.63184c-.33104-2.75343 1.62156-5.23146 4.375-5.5625s5.23146 1.62156 5.5625 4.375c.31355 2.60795-1.39127 5.02493-3.96875 5.53125l.0312 2s.52086-.1059.62354-.13097c3.41561-.83385 5.70627-4.1273 5.28271-7.65028-.46006-3.8266-3.95466-6.55381-7.78125-6.09375z"/><path d="m187.11401 536.81075v-.20594l-.19845.0186c.0165-.13108.0329-.26192.0497-.39298h-.1159l-.11567.14974-.11589.056-.16546-.0933-.0165-.20595.0331-.2246.24823-.18706h.19845l.0329-.1124.2481.0559.18201.22482.0331-.37455.31431-.26192.11579-.28083.23155-.0935.13233-.18706.29767-.0564.14899-.22437c-.14888 0-.29778 0-.44666 0l.28121-.13108h.19834l.28133-.0938.0331-.11197-.0993-.0938-.11578-.0375.0331-.11219-.0827-.16838-.19856.0747.0331-.14961-.23156-.13109-.18189.31801.0165.1124-.18189.0751-.11589.24326-.0495-.2246-.31432-.13108-.0496-.16838.41355-.24349.182-.16838.0165-.20583-.0992-.0562-.13232-.0188-.0827.20595s-.13834.0271-.1739.0358c-.45422.41845-1.37199 1.32172-1.58522 3.02699.008.0395.15456.2688.15456.2688l.34734.20572.34733.0938m3.96995-4.30452-.43022-.16849-.496.0562-.61221.16839-.11578.1124.38045.26192v.14974l-.14889.14973.19865.39332.13201-.0751.16577-.26193c.25555-.079.48467-.1685.72756-.28081l.19866-.50529m2.5317.34226-.37536.0938-.21896.1564v.12512l-.37537.25024.0938.34409.21897-.15641.12512.15641.1564.0938.0938-.28153-.0626-.1564.0626-.0938.21896-.18768h.0938l-.0938.21896v.18768c.0893-.0242.15896-.051.25025-.0626l-.25025.18769v.12512l-.3128.21896-.28152-.0626v-.1564l-.12513.0626.0626.1564h-.21897l-.12512.21896-.1564.1564-.0938.0312v.18769l.0312.1564h-.0312v.53176l.0626-.0312.0938-.21896.18768-.12512.0312-.0938.28153-.0626.1564.18768.18768.0938-.0938.18768.1564-.0312.0626-.21896-.18768-.21896h.0626l.21896.1564.0312.21896.1564.21896.0626-.3128.0938-.0312c.096.0997.16936.23186.25024.34408h.28152l.18768.12513-.0938.0938-.1564.1564h-.25024l-.34409-.0938h-.18768l-.12512.1564-.34408-.37536-.25025-.0626-.37536.0626-.1564.0938v2.40858l.0312.0312.25024-.1564.0938.0938h.28153l.12512.15641-.0938.3128.18768.18768v.37537l.12512.25024-.0938.25024c-.009.16175 0 .30744 0 .46921.0796.21915.14369.43617.21896.65688l.0626.34409v.18768h.12512l.21897-.12512h.25024l.37536-.43793-.0312-.1564.25025-.21896-.18769-.18768.21897-.18768.21896-.12513.0938-.12512-.0626-.25024v-.59433l.18768-.37536.18768-.25024.25025-.56305v-.1564c-.11666.0146-.22995.0231-.34409.0312-.0723.005-.1446 0-.21896 0-.12371-.25986-.21851-.51016-.3128-.78201l-.15641-.18768-.0938-.31281.0626-.0626.21897.25025.25024.56304.1564.1564-.0626.21897.1564.1564.25024-.25025.31281-.21896.1564-.18768v-.21896c-.0389-.0733-.0548-.14559-.0938-.21896l-.1564.18768-.12512-.1564-.18769-.12513v-.28152l.21897.21896.21896-.0312c.10176.0924.19224.20771.28152.31281l.1564-.18769c0-.1748-.19995-1.02143-.6256-1.7517-.42568-.73002-1.15738-1.40761-1.15738-1.40761l-.0626.0938-.21896.21896-.25024-.25024h.25024l.12512-.12512-.4692-.0938-.25025-.0938z" fill-opacity=".329412"/></g></svg>