<svg height="16" width="16" xmlns="http://www.w3.org/2000/svg"><path d="m54.135441 10.855112-41.05903 42.04245c-15.546623 15.541759 10.065442 14.246612 19.333621 20.124585 4.285287 2.789547-13.752782 6.376107-10.065442 10.062293 3.587682 3.686186 21.625751 7.073493 25.213434 10.660053 3.587682 3.686186-7.275023 7.571627-3.68734 11.257817 3.488024 3.68618 11.859283.19925 13.35415 8.56789 1.096236 6.17685 15.347308 3.08842 21.725409-2.19179 3.986314-3.38731-6.876391-3.38731-3.288708-7.07349 8.969205-9.066027 16.941832-4.08469 20.230541-12.453334 1.793841-4.4832-13.553466-7.671253-9.467495-10.560426 9.766469-6.874239 45.643289-10.361173 29.100089-26.899198l-42.553897-43.53685c-5.281866-4.9813335-13.952098-4.9813335-18.835332 0zm47.138159 80.996474c0 2.09216 16.24423 3.28768 15.34731-.498133-1.29556-6.376106-13.55347-5.877973-15.34731.498133zm-69.262199 11.058564c3.68734 3.18805 9.268179-.69739 11.06202-5.180591-3.587682-4.682453-16.842175.29888-11.06202 5.180591zm67.269042-6.674991c-4.584261 4.184321.797267 8.567891 5.281867 5.678721 1.19589-.79701-.0997-4.682454-5.281867-5.678721z" fill="none" stroke-width=".996422"/><path d="m7.966797.5c-.05308.004078-.105168.0166051-.154297.0371094-1.667457.6766989-3.165927 1.1860895-4.425781 1.4765625-.226201.0526356-.386389.254084-.386719.4863281 0 2.2442563-.157611 4.5449786.355469 6.7128906.51308 2.1679124 1.747091 4.1922034 4.394531 5.7207034.155549.08946.347105.08871.501953-.002 2.52166-1.465466 3.748398-3.482166 4.294922-5.6601096.546524-2.1779433.456271-4.5126626.453125-6.7714844-.00018-.2473501-.181174-.4574034-.425781-.4941406-1.352967-.2027705-2.830122-.7457526-4.363282-1.4589844-.060662-.02841903-.126417-.0443595-.193359-.046875-.01692-.00086005-.03387-.00086005-.05078 0zm.03711 1.0234375c1.35806.6201311 2.690656 1.0788476 3.994141 1.328125.0082 2.1604036.05237 4.2956049-.419922 6.1777344-.474253 1.8899361-1.501032 3.5108091-3.580078 4.8203121-2.201966-1.369942-3.226557-2.99384-3.669922-4.8671871-.440305-1.8604155-.341823-3.9653655-.330078-6.125 1.201946-.3020922 2.529786-.7419074 4.005859-1.3339844zm.04102 1.6113281c-1.085125.4403729-2.06244.7735984-2.900391.9667969.128516 2.9035687.306461 5.7443572 2.900391 7.7363285 2.133461-1.9068587 2.72025-4.8272172 2.902344-7.7363285-.921088-.1380445-1.899087-.5000778-2.902344-.9667969z" fill="#bebebe" fill-rule="evenodd"/></svg>