<svg height="16" width="16" xmlns="http://www.w3.org/2000/svg"><path d="m54.135441 10.855112-41.05903 42.04245c-15.546623 15.541759 10.065442 14.246612 19.333621 20.124585 4.285287 2.789547-13.752782 6.376107-10.065442 10.062293 3.587682 3.686186 21.625751 7.073493 25.213434 10.660053 3.587682 3.686186-7.275023 7.571627-3.68734 11.257817 3.488024 3.68618 11.859283.19925 13.35415 8.56789 1.096236 6.17685 15.347308 3.08842 21.725409-2.19179 3.986314-3.38731-6.876391-3.38731-3.288708-7.07349 8.969205-9.066027 16.941832-4.08469 20.230541-12.453334 1.793841-4.4832-13.553466-7.671253-9.467495-10.560426 9.766469-6.874239 45.643289-10.361173 29.100089-26.899198l-42.553897-43.53685c-5.281866-4.9813335-13.952098-4.9813335-18.835332 0zm47.138159 80.996474c0 2.09216 16.24423 3.28768 15.34731-.498133-1.29556-6.376106-13.55347-5.877973-15.34731.498133zm-69.262199 11.058564c3.68734 3.18805 9.268179-.69739 11.06202-5.180591-3.587682-4.682453-16.842175.29888-11.06202 5.180591zm67.269042-6.674991c-4.584261 4.184321.797267 8.567891 5.281867 5.678721 1.19589-.79701-.0997-4.682454-5.281867-5.678721z" fill="none" stroke-width=".996422"/><g fill="#bebebe" fill-rule="evenodd"><path d="m7.9667969.5c-.05308.004078-.1051679.01660508-.1542969.03710938-1.667457.67669892-3.1659272 1.18608952-4.4257812 1.47656252-.226201.0526356-.3863888.254084-.3867188.4863281 0 2.2442563-.1576113 4.5449786.3554688 6.7128906.5130799 2.1679124 1.7470912 4.1922034 4.3945312 5.7207034.155549.08946.3471051.088757.5019531-.001953 2.5216599-1.465466 3.7483979-3.482213 4.2949219-5.6601566.239896-.9560042.346609-1.9446666.402344-2.9414063l-1.09375 1.1015625c-.063203.547558-.148263 1.083254-.277344 1.5976563-.474253 1.8899361-1.501032 3.5108091-3.5800781 4.8203121-2.201966-1.369942-3.2265569-2.99384-3.6699219-4.8671871-.440305-1.8604155-.3418231-3.9653655-.3300781-6.125 1.201946-.3020922 2.5297863-.7419074 4.0058593-1.3339844.7569981.3456681 1.5055511.6340485 2.2460938.8710937l.759766-.7597656c-.901157-.2714879-1.8367117-.64031022-2.7988285-1.0878906-.060662-.02841903-.1264174-.0443595-.1933594-.046875-.01692-.00086005-.0338712-.00086005-.0507812 0zm.078125 2.6347656c-1.085125.4403729-2.0624397.7735984-2.9003907.9667969.128516 2.9035687.3064607 5.7443568 2.9003907 7.7363285 1.029709-.92034 1.6933451-2.0801102 2.1308591-3.3574222l-1.941406.5175781a1.0001 1.0001 0 0 1 -1.2265625-1.2050781l.6347656-2.5859376a1.0001 1.0001 0 0 1 .2636719-.46875l1.1777344-1.1777343c-.3440385-.1327168-.6874569-.2622129-1.0390625-.4257813z"/><g transform="matrix(.63196779 0 0 .63192993 -246.4877 -485.74059)"><path d="m403.66263 777.27842 5.84933-5.85075 2.99982 2.99981-5.82888 5.87306-4.02677 1.07184z"/><path d="m412.62129 768.66211c-.20052 0-.40103.0768-.55468.23047l-1.76953 1.76758 3.05273 3.05273 1.76953-1.76953c.3073-.3073.3073-.80208 0-1.10938l-1.94336-1.9414c-.15365-.15365-.35417-.23047-.55469-.23047z"/></g></g></svg>