<svg height="16" width="16" xmlns="http://www.w3.org/2000/svg"><path d="m204.58878 502.07864c3.12876 2.34373.75967 3.6912 1.30839 3.89104.80111.29175 1.91495-1.62117 2.4575-1.5018.56886.12514 1.02394.12514 1.38802-.28444.36407-.40958.6884-.48727 1.41079.12515.71455.60578.95903-.0612.45509-1.05809-.52335-1.03533.30499-1.07914.3982-2.33234.1024-1.37665-.19935-1.0978 1.63833-1.90001 1.52613-.66621 2.27419.13589 2.37335-.43139.0512-.29282-1.09247-1.21334-2.27095-1.5255-1.20269-.31858-1.84912-.38699-1.77569-1.86128.0418-.83953-.33186-1.51068-.72235-2.43652-.781-1.85164-2.18573-3.25999-3.293-2.59684-1.03533.62006-.95188 2.93676-.72385 4.52746.11402.79534.43627 1.52457.59038 1.99947.12142.37411-.47993.69054-.98151 1.02758-1.86222 1.25136-2.3551 2.13894-.76228 1.97966.93963-.094 2.27488.44725 2.89837.41527.38683-.0199.48069.47216.61722 1.01827.13652.54611-.0952 1.5002-.36606 1.2818-.21704-.175-.5809-.47154-.69203-.20096-.26168.63713.30719 1.90001-1.80899.3982-2.11618-1.5018-3.42177-1.49569-2.13893-.53473z" fill="#bebebe" fill-rule="evenodd" transform="translate(-202.0002 -490)"/></svg>