<svg height="16" width="16" xmlns="http://www.w3.org/2000/svg"><g fill="#bebebe"><path d="m7.5.98632812c-1.385 0-2.5 1.11499998-2.5 2.49999998v5.0136719c0 1.385 1.115 2.5 2.5 2.5.5660484 0 1.0818362-.19301 1.5-.507812v-.492188-1h.9492188c.0324549-.1613003.0507812-.3288603.0507812-.5v-5.0136719c0-1.385-1.115-2.49999998-2.5-2.49999998z"/><path d="m3.5 5c-.27614 0-.5.22386-.5.5v2.96875c0 1.96838 1.25801 3.62455 3 4.25v1.28125h-2c-.56475 0-1 .49007-1 1v1h.84375 2.15625 3v-2-.820312-.460938c.2000726-.07184.3919936-.159873.578125-.257812l-.578125-.578126v-.226562c-.456766.214335-.9609196.34375-1.5.34375-1.9523 0-3.5-1.5671-3.5-3.53125v-2.96875c0-.27614-.22386-.5-.5-.5z"/><path d="m11.5 5c-.27614 0-.5.22386-.5.5 0 .069.0061.12768.03125.1875v2.78125c0 .1824286-.02646.3566092-.05273.53125h.802734l.164062.1601562c.034663-.2252595.054684-.4559854.054684-.6914062v-2.96875c0-.27614-.22386-.5-.5-.5z"/><path d="m10 10h1.375l1.125 1.09375 1.09375-1.09375h1.40625v1.46875l-1.09375 1.0625 1.09375 1.0625v1.40625h-1.4375l-1.0625-1.0625-1.0625 1.0625h-1.4375v-1.40625l1.0625-1.0625-1.0625-1.0625z"/></g></svg>