<svg height="16" width="16" xmlns="http://www.w3.org/2000/svg"><path d="m8 0c-4.432 0-8 3.568-8 8s3.568 8 8 8 8-3.568 8-8-3.568-8-8-8zm-2.4277344 4.390625c.1856362-.0032258.2099969.0616592.390625.5644531.2056926.5724727.3601812.8835699.6621094 1.2050781.4178403.4449485.838172.6367188 1.3964844.6367188.4616043 0 .9125241-.1262575 1.1113281-.3125.0812481-.0761585.2472469-.2901156.2480469-.4179688.00031-.0601143-.04201-.3182531-.09375-.5253906-.09036-.3613049-.0921188-.3794884-.0429688-.4589844.0928961-.150324-.0438128-.1369654 1.9531254-.4980468.622972-.1126618.882886-.1089325 1.03125.0234375.111556.0995244.183593.4070039.183593.7871093 0 .8661523-.53801 1.3345021-1.652343 1.6679688-.508552.152155-.759766.186799-.759766.265625 0 .0953336.30615.1773571.947266.484375.674045.3227452 1.071446.5482824 1.386718.7871094.637285.4827628.981376.9016212 1.179688 1.5292966.115656.365307.116.585431 0 .675782-.053992.042012-.437788.126544-1.355469.300781-1.649733.313232-1.651046.353985-1.78125.328125-.141536-.028153-.234469-.154737-.324219-.449219-.1555399-.510378-.3497837-.981468-.6601559-1.3105469-.8236966-.8733689-2.3455682-1.1570454-3.1542969-.5878906-.213244.1500911-.4084802.4333265-.4863281.7050781-.0335761.1170186-.0794025.5589394-.1015625.7851564-.0384641.394771-.0447405.41656-.1328125.5-.1081281.102436-.00031.115377-1.296875.361328-1.2907009.244825-1.3332037.20728-1.4023437.017578-.0532721-.146343-.0169623-.727346.0585937-.947266.2558482-.7442613.6875846-1.2483555 2.0234375-1.8398432.8547167-.3784216.8106428-.4416547.6992188-.5722657-.970844-.5709158-1.9612655-.8389372-2.8535156-1.8984375-.2236563-.3546887-.3924444-.8843325-.3339844-1.046875.0342841-.0956466.1753036-.1964226.3398437-.2441406.1556321-.0451639 2.6008807-.5014656 2.7304688-.5097656.034192-.0023.0634437-.0054594.0898437-.0058594z" fill="#bebebe" stroke-width=".4"/></svg>