<svg height="16" width="16" xmlns="http://www.w3.org/2000/svg"><g fill="#bebebe" transform="translate(-44.517797 4.09673)"><path d="m44.517797 10.823502 3.85307-1.9242799-3.85307-1.9061839v-1.0797682l4.865192 2.4732131v1.0134138l-4.865192 2.5033731m0 0v-1.079768m10.012458-1.4236051-4.865192 2.5033731v-1.079768l3.853072-1.9242799-3.853072-1.9061839v-1.0797682l4.865192 2.4732131zm5.987542-1.3331225h-4.850159v-1.0134139h4.850159zm0 2.6843406h-4.850159v-1.0134143h4.850159z"/><path d="m49.020113-4.0967298 2.84898 4.22618328-3.265687 4.83942322h1.335828l2.590384-3.855284 2.572653 3.855284h1.329917l-3.150427-4.69608766.0133-.0162546 2.940596-4.35326424h-1.32844l-2.285981 3.37060277-.0059.005911-2.265293-3.37651357z"/></g></svg>