<svg height="16" width="16" xmlns="http://www.w3.org/2000/svg"><path d="m10.390725.7045228c-.336203.477762-.406983.83166-.406983 1.928742 0 .743185-.07078 1.55715-.176949 1.822573-.176948.442372-.194643.460067-1.627929.406982l-1.468675-.05308-.08847-1.061693c-.141559-1.787183-1.061693-2.548063-1.928742-1.610234-.318508.336202-.389287.583931-.353898 1.433285.05308 1.079388-.212338 1.504065-.920134 1.504065-.424677 0-1.521759.65471-1.645623.990913-.123865.336203.176948 1.132473.460067 1.150167.123864.0177.61932.0177 1.079387-.01769.548542-.01769 1.008608.07078 1.291727.2654229.406982.247728.442371.389287.389287 1.291726l-.05309 1.0086081-1.946437.08848c-2.56575705.123864-3.27355305.4954562-2.90196005 1.5748442.106169.300813.212339.566236.212339.566236.01769.0177 1.06169205.08847 2.33572405.141559l2.300334.10617.141559 1.486369c.141559 1.557149.424677 2.141081 1.008609 2.141081.442372 0 .530846-.353897.530846-1.999521 0-2.335724.01769-2.35342 1.787183-2.548063 1.433285-.141559 1.574844 0 1.574844 1.716403 0 1.114778.07078 1.45098.371593 1.840268.477762.601626.796269.583931 1.132472-.08847.247728-.477761.265423-.707794.07078-1.769487-.283119-1.59254-.159254-1.751793 1.380201-1.751793 1.327116 0 2.530367-.495458 2.530367-1.061693 0-.4069832-.566236-.7608812-.955524-.6016272-.159254.07078-.725489.05309-1.238641 0-1.309422-.176948-1.875657-.6901001-1.875657-1.7517931 0-1.0793879.300812-1.8756569.76088-1.9818259.212338-.05309 1.061692-.159254 1.875656-.265424 1.574845-.176949 1.964132-.371592 1.964132-.902439 0-.318508-.159254-.336202-2.034911-.336202-1.928741 0-2.03491-.01769-2.300334-.424678-.230034-.336202-.247728-.61932-.106169-1.592539.283118-2.017216-.336203-2.884265-1.167862-1.645624zm-.513152 6.069344c.141559.353898.141559 2.2649449 0 2.618843-.08847.212338-.371593.283118-1.291726.283118-1.504065 0-1.804878-.212339-1.911047-1.3625061-.08847-.813964-.05308-.902439.477761-1.3448109.460067-.406982.72549-.477762 1.59254-.477762.778574 0 1.043998.07078 1.132472.283118z" fill="#bebebe"/></svg>