<svg height="16" width="16" xmlns="http://www.w3.org/2000/svg"><g fill="#bebebe" transform="matrix(.19786082 0 0 .19786082 26.661185 19.139341)"><path d="m-82.46373-71.067078c.06 0-6.73-2.51-16.23 1.77a11.53 11.53 0 0 1 -1.12-.54c9.13-6.31 17.14-9 24-8-4.42-3.89-9.26-4.47-16.32-4.47-7.83 0-14.77 3.07-19.17 7.82a18.76 18.76 0 0 0 -4.15-.44c-10.61 0-19.82 10.01-19.27 21.38s12.48 18.46 19.27 16.55a1.4 1.4 0 0 1 .5 0c1.5-7.52 7.63-25.01 32.49-34.07z"/><path d="m-54.04373-55.867078c1.32 8.35-5.68 13.06-12.68 13.56-3.57 6.62-10.92 12-21.54 12a25 25 0 0 1 -12.51-2.84 16 16 0 0 1 -2.85.26c-3.71 0-6.24-.86-8.71-3.79 5-6.73 20.22-18.83 38.76-12.58 9.91 3.33 12.49-4.5 10-7.43-9.34-11.07-30.46-1.11-31.21-.27 8.25-13.24 37.91-16.94 40.74 1.09z"/></g></svg>