<svg height="16" width="16" xmlns="http://www.w3.org/2000/svg"><g fill="#bebebe"><path d="m14.222656.953125c-.716021-.02682281-1.801636.5356144-2.777344 1.5058594l-2.101562 2.0898437-2.9863281-1.0019531 6.0703121 6.0703125-1.011718-3.015625 2.037109-2.0253906c1.30093-1.2937 1.901743-2.8058083 1.345703-3.3925781-.13901-.14669-.337498-.22152786-.576172-.2304688zm-8.7089841 7.40625-.0117188.0117188c-.377222.3751225-.6873245.7662135-.9355469 1.1503906l-2.8632812-.2148438-.6972656.7089844 2.8476562 2.107422 2.0800782 2.84375.703125-.703125-.2109376-2.892578c.3604428-.236214.7274777-.530219 1.0820313-.882813l.0683594-.068359z"/><path d="m1.979861 1.026713v.004a1.0001 1.000104 0 0 1 .0605-.002 1.0001 1.000104 0 0 1 .6875.302731l11.95508 11.953178a1.0001 1.000104 0 0 1 .28711.921873v.792973h-.88672a1.0001 1.000104 0 0 1 -.81445-.300781l-11.95508-11.953177a1.0001 1.000104 0 0 1 -.30273-.718753v-1.000004h.96875z" stroke-width="1.000002"/></g></svg>