<svg height="16" width="16" xmlns="http://www.w3.org/2000/svg"><path d="m12 8a4 4 0 0 0 -4 4 4 4 0 0 0 4 4 4 4 0 0 0 4-4 4 4 0 0 0 -4-4zm-1 1.0605469h2v3.9648441h-2zm0 4.9570311h2v.990234h-2z" fill="#f57900" opacity=".2"/><g fill="#bebebe"><path d="m6.40605 3a.50005.50005 0 0 0 -.40625.5v2.5h-1.5a.50005.50005 0 1 0 0 1h2a.50005.50005 0 0 0 .5-.5v-3a.50005.50005 0 0 0 -.59375-.5z"/><path d="m6.5 0c-3.5780766 0-6.5 2.9219234-6.5 6.5-.00000006 3.578077 2.9219234 6.5 6.5 6.5.2011911 0 .3990639-.011223.5957031-.029297-.0625782-.31446-.0957031-.638592-.0957031-.970703 0-.36078.0417004-.711145.1152344-1.050781-.2031584.027649-.4041225.0625-.6152344.0625-2.5036179 0-4.5117188-2.0081011-4.5117188-4.511719 0-2.5036178 2.008101-4.5117188 4.5117188-4.5117188 2.5036179 0 4.511719 2.0081009 4.511719 4.5117188 0 .2111119-.034851.412076-.0625.6152344.339636-.073534.690001-.1152344 1.050781-.1152344.332111 0 .656243.0331249.970703.0957031.018074-.1966392.029297-.394512.029297-.5957031 0-3.5780766-2.921923-6.50000006-6.5-6.5z"/></g></svg>