<svg height="16" width="16" xmlns="http://www.w3.org/2000/svg"><g fill="#bebebe" transform="translate(-221.0002 -397)"><path d="m227.40625 402a.50005.50005 0 0 0 -.40625.5v2.5h-1.5a.50005.50005 0 1 0 0 1h2a.50005.50005 0 0 0 .5-.5v-3a.50005.50005 0 0 0 -.59375-.5z"/><path d="m231.99995 408h1.375l1.125 1.09375 1.09375-1.09375h1.40625v1.46875l-1.09375 1.0625 1.09375 1.0625v1.40625h-1.4375l-1.0625-1.0625-1.0625 1.0625h-1.4375v-1.40625l1.0625-1.0625-1.0625-1.0625z"/><path d="m227.5002 399c-3.57801 0-6.5 2.92199-6.5 6.5s2.92199 6.5 6.5 6.5c1.29116 0 2.48506-.37561 3.5-1.03125v-2.65625c-.82069 1.02721-2.071 1.6875-3.5 1.6875-2.49713 0-4.5-2.00287-4.5-4.5 0-2.49712 2.00287-4.5 4.5-4.5 2.49712 0 4.5 2.00288 4.5 4.5 0 .53296-.11393 1.02721-.28125 1.5h2.09375c.11483-.48186.1875-.98435.1875-1.5 0-3.57801-2.922-6.5-6.5-6.5z"/></g></svg>