<svg height="16" width="16" xmlns="http://www.w3.org/2000/svg"><g fill="#bebebe" transform="translate(-101.0002 -197)"><path d="m101.0002 202h2.48438l2.96875-3 .54687.0156v12l-.47529.00083-3.04033-3.01643h-2.48438z"/><path d="m112.0002 198v1.4375c1.83194 2.09574 2.4091 4.95454 1.78125 7.5625h1.9375c.59628-3.14015-.20259-6.51217-2.40625-9zm-2 2v1.8125c1.4103 1.84307 1.4103 4.53193 0 6.375v1.8125h1v-3h1.71875c.63623-2.40215.0964-5.12224-1.625-7z" opacity=".35"/><path d="m111.99995 208h1.375l1.125 1.09375 1.09375-1.09375h1.40625v1.46875l-1.09375 1.0625 1.09375 1.0625v1.40625h-1.4375l-1.0625-1.0625-1.0625 1.0625h-1.4375v-1.40625l1.0625-1.0625-1.0625-1.0625z"/><path d="m110.00019 205.0002c0-1.25733-.31165-2.21571-1-3h-1v3 .375 2.625h1c.67206-.8369 1-1.74267 1-3z" opacity=".35"/></g></svg>