<svg height="16" width="16" xmlns="http://www.w3.org/2000/svg"><g fill="#bebebe" transform="translate(-81.0002 -197)"><path d="m81.0002 202h2.48437l2.96876-3 .54687.0156v12l-.4753.00083-3.04033-3.01643h-2.48437z"/><path d="m96.00019 205.0002c0-2.81422-1-5.17173-2.58557-7h-1.41443v1.48072c1.26466 1.51928 2 3.21936 2 5.51928s-.77953 4-2 5.51928v1.48072h1.38128c1.46575-1.64044 2.61872-4.18578 2.61872-7z" opacity=".35"/><path d="m93.00019 205.0002c0-2.16664-.73878-4.01982-2-5h-1v2c.60652.78878 1 1.75887 1 3s-.39348 2.21938-1 3v2h1c1.2229-.99478 2-2.8734 2-5z" opacity=".35"/><path d="m90.00019 205.0002c0-1.25733-.31165-2.21571-1-3h-1v3 .375 2.625h1c.67206-.8369 1-1.74267 1-3z"/></g></svg>