<svg height="16" width="16" xmlns="http://www.w3.org/2000/svg"><g fill="#bebebe" transform="translate(-41.0002 -337)"><path d="m51.55489 345.09373c-.70541.62353-1.53918.90625-2.55469.90625s-1.85318-.29053-2.55859-.91406c-1.10938.36328-2.43603 1.28775-2.4375 2.90234l-.0039 3.01172c-.00072.554.446 1.00002 1 1.00002h8c.554 0 1-.44602 1-1.00002v-3c0-1.38672-1.10231-2.5558-2.44531-2.90625z"/><path d="m52 342.5a2.5 2.5 0 1 1 -5 0 2.5 2.5 0 1 1 5 0z" transform="matrix(1.2 0 0 1.2 -10.3998 -69.00003)"/></g></svg>