<svg height="16" width="16.020596" xmlns="http://www.w3.org/2000/svg"><g fill="#bebebe" transform="translate(-201.0002 -217)"><path d="m206.46875 217c-.49033 0-.79607.22846-1.03125.46875s-.4375.5585-.4375 1.03125v.5h-1-1v1 12 1h1 7v-2h-6v-10h1 1v-1-1h4v1 1h1 1v3h2v-4-1h-1-1v-.375-.0312-.0312c-.0239-.4306-.17023-.72105-.40625-1-.22374-.26444-.6267-.52931-1.15625-.53125v-.0312h-.0625-4.90625z"/><path d="m213.76884 224.99991a1.016466 1.016466 0 0 0 -.46875.28125l-3 3a1.0001 1.0001 0 0 0 -.28125.90625v.8125h.8125.1875 2.5625l-1.28125 1.28125a1.016466 1.016466 0 0 0 -.28125.84375 1.016466 1.016466 0 0 0 0 .0937v.78125h.84375.15625a1.016466 1.016466 0 0 0 .71875-.28125l3-3a1.0001 1.0001 0 0 0 .28125-.7187 1.0001 1.0001 0 0 0 0-.125v-.875h-.84375-.15625-2.5625l1.28125-1.28125a1.016466 1.016466 0 0 0 .28125-.84375 1.016466 1.016466 0 0 0 0-.0937v-.7813h-.84375-.0937a1.016466 1.016466 0 0 0 -.0625 0 1.016466 1.016466 0 0 0 -.25 0z" opacity=".5"/><path d="m206.0002 222v2h6v-2zm0 3v2h4l2-2h-1zm0 3.0625v1.9375h3v-1.9375z"/></g></svg>