<svg height="16" width="16" xmlns="http://www.w3.org/2000/svg"><g fill="#bebebe"><path d="m5 11.045784v1.9375h3.00025v-2z"/><path d="m5.46855 0c-.49033 0-.79607.22845986-1.03125.46874986s-.4375.55850004-.4375 1.03125004v.5h-2v14.0000001h8v-2h-6v-10.0000001h2v-2h4v2h2v3h2v-5h-2v-.4374c-.0239-.4306-.17023-.72105004-.40625-1.00000004-.22374-.26444-.6267-.56065986-1.15625-.56259986z"/><path d="m12.8748 7.9835339a1.0001 1.0001 0 0 0 -.59375.28125l-3 3.0000001a1.0001 1.0001 0 0 0 .71875 1.71875h2.5625l-1.28125 1.28125a1.016466 1.016466 0 1 0 1.4375 1.4375l3-3a1.0001 1.0001 0 0 0 -.71875-1.71875h-2.5625l1.28125-1.2812501a1.0001 1.0001 0 0 0 -.84375-1.71875z"/><path d="m15.00024 10.983294h1v1h-1z"/><path d="m9.00024 11.983294h1v1h-1z"/><path d="m13.00024 7.9832939h1v1h-1z"/><path d="m11.00024 14.983294h1v1h-1z"/><path d="m12.15605 8.4210339-2 3.0000001 1.6875 1.125 2-3.0000001z"/><path d="m13.15605 11.421034-2 3 1.6875 1.125 2-3z"/></g></svg>