<svg height="16" width="16" xmlns="http://www.w3.org/2000/svg"><path d="m5 11v2h2.1015625c-.0664027-.323511-.1015625-.65763-.1015625-1s.0351598-.676489.1015625-1z" fill="#c00"/><path d="m5.46875 0c-.49033 0-.79607.22846-1.03125.46875s-.4375.5585-.4375 1.03125v.5h-1-1v1 12 1h1 6.0371094c-.6950113-.517062-1.2582199-1.199029-1.6113282-2h-3.4257812v-10h1 1v-1-1h4v1 1h1 1v3c.710984 0 1.386045.1551192 2 .4257812v-4.4257812-1h-1-1v-.375-.03125-.03125c-.0239-.4306-.17023-.72105-.40625-1-.22374-.26444-.6267-.52931-1.15625-.53125v-.03125h-.0625z" fill="#bebebe"/><path d="m12 8a4 4 0 0 0 -4 4 4 4 0 0 0 4 4 4 4 0 0 0 4-4 4 4 0 0 0 -4-4zm-1 1h2v4h-2zm0 5h2v1h-2z" fill="#f57900"/></svg>