<svg height="16.016466" width="16.009651" xmlns="http://www.w3.org/2000/svg"><g transform="translate(-241.0002 -217)"><path d="m246.0002 227.99975v2h3.00025v-2z" fill="#ef2929"/><g fill="#bebebe"><path d="m246.46875 217c-.49033 0-.79607.22846-1.03125.46875s-.4375.5585-.4375 1.03125v.5h-1-1v1 12 1h1 7v-2h-6v-10h1 1v-1-1h4v1 1h1 1v3h2v-4-1h-1-1v-.375-.0312-.0312c-.0239-.4306-.17023-.72105-.40625-1-.22374-.26444-.6267-.52931-1.15625-.53125v-.0312h-.0625-4.90625z"/><path d="m253.875 225a1.0001 1.0001 0 0 0 -.59375.28125l-3 3a1.0001 1.0001 0 0 0 .71875 1.71875h2.5625l-1.28125 1.28125a1.016466 1.016466 0 1 0 1.4375 1.4375l3-3a1.0001 1.0001 0 0 0 -.71875-1.71875h-2.5625l1.28125-1.28125a1.0001 1.0001 0 0 0 -.84375-1.71875z"/><path d="m256.00046 227.99976h1v1h-1z"/><path d="m250.00044 228.99976h1v1h-1z"/><path d="m254.00044 224.99976h1v1h-1z"/><path d="m252.00044 231.99976h1v1h-1z"/><path d="m253.15625 225.4375-2 3 1.6875 1.125 2-3z"/><path d="m254.15625 228.4375-2 3 1.6875 1.125 2-3z"/></g></g></svg>