<svg height="16" width="16" xmlns="http://www.w3.org/2000/svg"><g transform="translate(-101.0002 -217)"><path d="m106.0002 227.99975v1.99999h2.00025v-2z" fill="#c00"/><path d="m106.46875 217c-.49033 0-.79607.22846-1.03125.46875s-.4375.5585-.4375 1.03125v.5h-1-1v1 12 1h1 4v-2h-3v-10h1 1v-1-1h4v1 1h1 1v3h2v-4-1h-1-1v-.375-.0312-.0312c-.0239-.4306-.17023-.72105-.40625-1-.22374-.26444-.6267-.52931-1.15625-.53125v-.0312h-.0625-4.90625z" fill="#bebebe"/><path d="m109.8752 225c-.49245 0-.875.38256-.875.875v6.25c0 .49244.38255.875.875.875h6.25c.49245 0 .875-.38256.875-.875v-6.25c0-.49244-.38255-.875-.875-.875zm2.125 1h2v4h-2zm0 5h2v1h-2z" fill="#f57900"/></g></svg>