<svg height="16" width="16" xmlns="http://www.w3.org/2000/svg"><g fill="#bebebe"><path d="m12.76864 7.99991a1.016466 1.016466 0 0 0 -.46875.28125l-3 3a1.0001 1.0001 0 0 0 -.28125.90625v.8125h.8125.1875 2.5625l-1.28125 1.28125a1.016466 1.016466 0 0 0 -.28125.84375 1.016466 1.016466 0 0 0 0 .0937v.78125h.84375.15625a1.016466 1.016466 0 0 0 .71875-.28125l3-3a1.0001 1.0001 0 0 0 .28125-.7187 1.0001 1.0001 0 0 0 0-.125v-.875h-.84375-.15625-2.5625l1.28125-1.28125a1.016466 1.016466 0 0 0 .28125-.84375 1.016466 1.016466 0 0 0 0-.0937v-.7813h-.84375-.0937a1.016466 1.016466 0 0 0 -.0625 0 1.016466 1.016466 0 0 0 -.25 0z" opacity=".5"/><path d="m5 5v2h6v-2zm0 3v2h4l2-2h-1zm0 3.0625v1.9375h3v-1.9375z"/><path d="m5.46875 0c-.49033 0-.79607.2284599-1.03125.4687499s-.4375.5585-.4375 1.03125v.5h-2v14.0000001h8v-2h-6v-10.0000001h2v-2h4v2h2v3h2v-5h-2v-.4374c-.0239-.4306-.17023-.72105-.40625-1-.22374-.26444-.6267-.5606599-1.15625-.5625999z"/></g></svg>