<svg height="16" width="16" xmlns="http://www.w3.org/2000/svg"><g fill="#bebebe"><path d="m5 4.9998989v2h6v-2zm0 3v2h4l.25-.125 1.75-1.75v-.125zm0 3.0625001v1.9375h3v-.8125-1.125z"/><path d="m12.75 7.9998989c-.17789.0489-.3419.14729-.46875.28125l-3 2.9687501c-.2353.23073-.34458.61409-.28125.9375v.8125h1 2.125l-.84375 1.25c-.15169.14917-.24515.35304-.28125.5625v.375.8125h1c.26386.004.52791-.13024.71875-.3125l3-3c.1837-.18978.28737-.42344.28125-.6875.003-.0416.003-.0834 0-.125v-.875h-.84375-.0937c-.0208-.00065-.0417-.00065-.0625 0h-2.125l.84375-1.3125001c.15169-.14917.24515-.33095.28125-.53125v-.375-.78125h-1.25z"/><path d="m5.46875-.0000002c-.49033 0-.79607.2284598-1.03125.4687498s-.4375.5585001-.4375 1.0312501v.5h-2v14.0000003h8v-2h-6v-10.0000003h2v-2h4v2h2v3h2v-5h-2v-.4374c-.0239-.4306-.17023-.7210501-.40625-1.0000001-.22374-.26444-.6267-.5606598-1.15625-.5625998z"/></g></svg>