<svg height="16.03327" width="16" xmlns="http://www.w3.org/2000/svg"><path d="m6.8748.00965a1.0001 1.0001 0 0 0 -.875 1v3.5625l-1.28125-1.28125a1.016466 1.016466 0 1 0 -1.4375 1.4375l2.71875 2.71875v1.125l-2.71875 2.71875a1.016466 1.016466 0 1 0 1.4375 1.4375l1.28125-1.28125v3.5625a1.0001 1.0001 0 0 0 1.71875.71875l4-4a1.0001 1.0001 0 0 0 0-1.4375l-2.28125-2.28125 2.28125-2.28125a1.0001 1.0001 0 0 0 0-1.4375l-4-4a1.0001 1.0001 0 0 0 -.84375-.28125zm1.125 3.4375 1.5625 1.5625-1.5625 1.5625zm0 6 1.5625 1.5625-1.5625 1.5625z" fill="#bebebe"/></svg>