<svg height="16.000011" width="16.000002" xmlns="http://www.w3.org/2000/svg" xmlns:xlink="http://www.w3.org/1999/xlink"><clipPath id="a"><path d="m62.0002 317v16h9v-6h3v-10z"/></clipPath><g fill="#bebebe" transform="translate(-61.000198 -317)"><path clip-path="url(#a)" d="m67.875 317a1.0001 1.0001 0 0 0 -.875 1v3.5625l-1.28125-1.28125a1.016466 1.016466 0 1 0 -1.4375 1.4375l2.71875 2.71875v1.125l-2.71875 2.71875a1.016466 1.016466 0 1 0 1.4375 1.4375l1.28125-1.28125v3.5625a1.0001 1.0001 0 0 0 1.71875.71875l4-4a1.0001 1.0001 0 0 0 0-1.4375l-2.28125-2.28125 2.28125-2.28125a1.0001 1.0001 0 0 0 0-1.4375l-4-4a1.0001 1.0001 0 0 0 -.84375-.28125zm1.125 3.4375 1.5625 1.5625-1.5625 1.5625zm0 6 1.5625 1.5625-1.5625 1.5625z" opacity=".5"/><path d="m64.025024 320.00552h.994487v.994487h-.994487z" opacity=".5"/><path d="m64.000198 329h.994487v.994487h-.994487z" opacity=".5"/><path d="m67.000198 332.00552h.994487v.994487h-.994487z" opacity=".5"/><path d="m67.000198 317h.994487v.994487h-.994487z" opacity=".5"/><path d="m72.0002 328h1.375l1.125 1.09375 1.09375-1.09375h1.40625v1.46875l-1.09375 1.0625 1.09375 1.0625v1.40625h-1.4375l-1.0625-1.0625-1.0625 1.0625h-1.4375v-1.40625l1.0625-1.0625-1.0625-1.0625z"/></g></svg>