<svg height="16" width="16" xmlns="http://www.w3.org/2000/svg"><g fill="#bebebe"><path d="m7.987964 1.263c-3.8423098 0-6.724964 2.882664-6.724964 6.7249642 0 2.6092158 1.3140283 4.3857668 3.4495734 5.5937498l.7832033-3.183593.3417968-.339844c-.5109303-.5363714-.8339844-1.2535354-.8339844-2.0703128 0-1.6805399 1.303825-2.9843752 2.9843749-2.9843752.81829 0 1.537428.3234425 2.074219.8359378l.642578-.6406248c.286422-.286459.668251-.429688 1.039063-.429688.370878 0 .755742.14832 1.037109.429688l1.158203 1.1582029c.563359.5633613.563359 1.5128105 0 2.0761719l-5.21875 5.1738282-2.4570313.654297c.4485631.384564.8094104.533698 1.7246093.533698 3.8423 0 6.781805-2.964836 6.781805-6.8071358 0-3.8423002-2.939505-6.7249642-6.781805-6.7249642zm.01758 4.7425424c-1.09865 0-2.0136719.8974437-2.0136719 1.9960937 0 .5233403.2099332.9994848.546875 1.3554688l.714844-.7148438c-.1506111-.1716853-.2480488-.3889461-.2480488-.640625 0-.55821.4417897-.9980469.9999997-.9980469.25245 0 .471061.098539.642578.25l.710938-.7109374c-.355572-.3320503-.830567-.5371094-1.353516-.5371094z" opacity=".35"/><path d="m7.9882812.99609375c-3.842306 0-6.99218745 3.14989145-6.99218745 6.99218745 0 2.6086828 1.45306025 4.9070538 3.58789065 6.1152348l.9121094-3.705078.3339843-.332032c-.5109208-.5363689-.8261719-1.2613562-.8261719-2.0781248 0-1.3585102.8579777-2.4575687 2.0722657-2.8339843l-1.0839844-3.3359375a6.5 6.5 0 0 1 1.9160156-.3183594 6.5 6.5 0 0 1 .0917969 0v3.5058594c.8137097.0030991 1.5360028.3182413 2.070312.828125l.634766-.6347656c.281416-.2814514.664134-.4296876 1.039063-.4296876.374998.0000001.755711.1482899 1.037109.4296876l1.158203 1.1582031c.562778.562777.562778 1.5133887 0 2.0761719l-5.2187499 5.1738282-3.3300781.886719c.8045451.327288 1.6808935.509765 2.5976562.509765 3.8422958 0 7.0156248-3.173329 7.0156248-7.0156248 0-3.8422959-3.173329-6.99218745-7.0156248-6.99218745zm.0117188 5.00976565v1c.00213-.0000129.0037194-.0019531.0058594-.0019532.2519186 0 .4751032.0932506.6464844.2441407l.7070312-.7050781c-.3555733-.3320578-.8305606-.5371094-1.3535156-.5371094-.00198 0-.00388-.0000058-.0058594 0zm-.6132812.109375c-.8008325.2625266-1.3945313 1.0048591-1.3945313 1.8867187 0 .5233707.2098985.9994783.546875 1.3554688l.7109375-.7089844c-.1509999-.1717795-.2441406-.3944419-.2441406-.6464844 0-.4484374.2898606-.8065639.6914062-.9355469z"/><g fill-rule="evenodd" stroke-width=".596423"><path d="m6.4001547 10.908574 3.4886747-3.4895219 1.7891616 1.7891556-3.4764779 3.5028283-2.4016582.63927z"/><path d="m11.743305 5.7696086c-.119594 0-.239183.045805-.330824.1374576l-1.055388 1.0542253 1.820718 1.8207183 1.055389-1.0553884c.18328-.1832807.18328-.4783789 0-.6616597l-1.159065-1.1578955c-.09164-.0916404-.211235-.1374576-.33083-.1374576z"/></g></g></svg>