<svg height="16" width="16" xmlns="http://www.w3.org/2000/svg"><g fill="#bebebe"><path d="m7.987964 1.263c-3.8423098 0-6.724964 2.882664-6.724964 6.7249642 0 2.6092158 1.3140283 4.3857668 3.4495734 5.5937498l.7832033-3.183593.3417968-.339844c-.5109303-.5363714-.8339844-1.2535354-.8339844-2.0703128 0-1.6805399 1.3038249-2.9843752 2.9843749-2.9843752.81829 0 1.537428.3234425 2.074219.8359378l.642578-.6406248c.286422-.286459.668251-.429688 1.039063-.429688.370878 0 .755742.14832 1.037109.429688l1.158203 1.1582029c.563359.5633613.563359 1.5128105 0 2.0761719l-5.21875 5.1738282-2.457031.654297c.448563.384564.80941.533698 1.724609.533698 3.8423 0 6.781805-2.964836 6.781805-6.8071358 0-3.8423002-2.939505-6.7249642-6.781805-6.7249642zm.01758 4.7425424c-1.09865 0-2.0136719.8974437-2.0136719 1.9960937 0 .5233403.2099332.9994848.5468749 1.3554688l.714842-.7148438c-.150609-.1716853-.248047-.3889461-.248047-.640625 0-.55821.44179-.9980469 1-.9980469.25245 0 .471061.098539.642578.25l.710938-.7109374c-.355572-.3320503-.830567-.5371094-1.353516-.5371094z" opacity=".35"/><path d="m7.9882812.99609375c-3.842306 0-6.99218745 3.14989145-6.99218745 6.99218745 0 2.6086828 1.45306025 4.9070538 3.58789065 6.1152348l.5234375-2.121094-.9277344 1.27539a6.5 6.5 0 0 1 -2.3613281-7.2656245 6.5 6.5 0 0 1 6.1816406-4.4921875v3.5058594c.8137097.0030991 1.5360028.3182413 2.070312.828125l.634766-.6347656c.281416-.2814514.664134-.4296876 1.039063-.4296876.374998.0000001.755711.1482899 1.037109.4296876l1.158203 1.1582031c.562778.562777.562778 1.5133887 0 2.0761719l-5.2187499 5.1738282-3.3300781.886719c.8045451.327288 1.6808935.509765 2.5976562.509765 3.8422958 0 7.0156248-3.173329 7.0156248-7.0156248 0-3.8422959-3.173329-6.99218745-7.0156248-6.99218745zm.0117188 5.00976565v1c.00213-.0000129.0037194-.0019531.0058594-.0019532.2519186 0 .4751032.0932506.6464844.2441407l.7070312-.7050781c-.3555733-.3320578-.8305606-.5371094-1.3535156-.5371094-.00198 0-.00388-.0000058-.0058594 0z"/><g fill-rule="evenodd" stroke-width=".596423"><path d="m6.4001547 10.908574 3.4886747-3.4895219 1.7891616 1.7891556-3.4764779 3.5028283-2.4016582.63927z"/><path d="m11.743305 5.7696086c-.119594 0-.239183.045805-.330824.1374576l-1.055388 1.0542253 1.820718 1.8207183 1.055389-1.0553884c.18328-.1832807.18328-.4783789 0-.6616597l-1.159065-1.1578955c-.09164-.0916404-.211235-.1374576-.33083-.1374576z"/></g></g></svg>