<svg height="16" width="16" xmlns="http://www.w3.org/2000/svg"><g fill="#bebebe"><path d="m7.9882812.99609375c-3.842306 0-6.99218745 3.14989145-6.99218745 6.99218745 0 2.6086828 1.45306025 4.9070538 3.58789065 6.1152348l.1289062-.521485a6.5 6.5 0 0 1 -3.2128906-5.582031 6.5 6.5 0 0 1 6.5-6.5 6.5 6.5 0 0 1 6.5 6.5 6.5 6.5 0 0 1 -6.5 6.5 6.5 6.5 0 0 1 -1.7363281-.238281l-.8730469.232422c.8045451.327288 1.6808935.509765 2.5976562.509765 3.8422958 0 7.0156248-3.173329 7.0156248-7.0156248 0-3.8422959-3.173329-6.99218745-7.0156248-6.99218745z"/><path d="m6.4001547 10.908574 3.4886747-3.4895219 1.7891616 1.7891556-3.4764779 3.5028283-2.4016582.63927z" fill-rule="evenodd" stroke-width=".596423"/><path d="m11.743305 5.7696086c-.119594 0-.239183.045805-.330824.1374576l-1.055388 1.0542253 1.820718 1.8207183 1.055389-1.0553884c.18328-.1832807.18328-.4783789 0-.6616597l-1.159065-1.1578955c-.09164-.0916404-.211235-.1374576-.33083-.1374576z" fill-rule="evenodd" stroke-width=".596423"/><path d="m7.9882813 1.2633174c-3.8423099 0-6.7249641 2.8826636-6.7249641 6.7249638 0 2.6092158 1.3140283 4.3857668 3.4495734 5.5937498l.7832033-3.183593.3417968-.339844c-.5109303-.5363714-.8339844-1.2535354-.8339844-2.0703128 0-1.6805399 1.303825-2.9843749 2.984375-2.984375.8182897 0 1.5374278.3234423 2.0742187.8359376l.642578-.640625c.286422-.2864585.668251-.4296878 1.039063-.4296878.370878 0 .755742.14832 1.037109.4296878l1.158203 1.1582031c.563359.5633613.563359 1.5128105 0 2.0761719l-5.2187497 5.1738282-2.4570314.654297c.4485631.384564.8094104.533698 1.7246093.533698 3.8422998 0 6.7818048-2.964836 6.7818048-6.8071358 0-3.8423002-2.939505-6.7249638-6.7818047-6.7249638zm.017578 4.742542c-1.0986501 0-2.013672.8974437-2.013672 1.9960937 0 .5233403.2099332.9994848.546875 1.3554688l.714844-.7148438c-.1506091-.1716853-.2480468-.3889461-.2480468-.640625 0-.55821.44179-.9980469 1-.9980469.2524498 0 .4710603.098539.6425781.25l.7109376-.7109374c-.3555723-.3320503-.830567-.5371094-1.3535159-.5371094z" opacity=".35"/></g></svg>