<svg height="16" width="16" xmlns="http://www.w3.org/2000/svg"><path d="m7.9882812.99609375c-3.842306 0-6.99218745 3.14989145-6.99218745 6.99218745 0 2.6086828 1.45306025 4.9070538 3.58789065 6.1152348l.1289062-.519532a6.5 6.5 0 0 1 -1.5429687-1.234375 6.5 6.5 0 0 1 -1.1074219-6.9941402 6.5 6.5 0 0 1 5.9375-3.8554688v3.5058594c.8137097.0030991 1.5360028.3182413 2.070312.828125l.634766-.6347656c.281416-.2814514.664134-.4296876 1.039063-.4296876.374998.0000001.755711.1482899 1.037109.4296876l1.158203 1.1582031c.562778.562777.562778 1.5133887 0 2.0761719l-4.3867186 4.3476562.4550776 1.400391a6.5 6.5 0 0 1 -3.7363276.076171l-.8808594.236329c.8045451.327288 1.6808935.509765 2.5976562.509765 3.8422958 0 7.0156248-3.173329 7.0156248-7.0156248 0-3.8422959-3.173329-6.99218745-7.0156248-6.99218745zm.0117188 5.00976565v1c.00213-.0000129.0037194-.0019531.0058594-.0019532.2519186 0 .4751032.0932506.6464844.2441407l.7070312-.7050781c-.3555733-.3320578-.8305606-.5371094-1.3535156-.5371094-.00198 0-.00388-.0000058-.0058594 0z" fill="#bebebe"/><g fill="#bebebe" fill-rule="evenodd" transform="matrix(.59642297 0 0 .59642297 -234.35351 -452.67813)"><path d="m403.66263 777.27842 5.84933-5.85075 2.99982 2.99981-5.82888 5.87306-4.02677 1.07184z"/><path d="m412.62129 768.66211c-.20052 0-.40103.0768-.55468.23047l-1.76953 1.76758 3.05273 3.05273 1.76953-1.76953c.3073-.3073.3073-.80208 0-1.10938l-1.94336-1.9414c-.15365-.15365-.35417-.23047-.55469-.23047z"/></g><path d="m6.4001547 10.908574 3.4886747-3.4895219 1.7891616 1.7891556-3.4764779 3.5028283-2.4016582.63927z" fill="none" stroke-width=".596423"/><path d="m11.743305 5.7696086c-.119594 0-.239183.045805-.330824.1374576l-1.055388 1.0542253 1.820718 1.8207183 1.055389-1.0553884c.18328-.1832807.18328-.4783789 0-.6616597l-1.159065-1.1578955c-.09164-.0916404-.211235-.1374576-.33083-.1374576z" fill="none" stroke-width=".596423"/><path d="m7.9879641 1.263c-3.8423099 0-6.7249641 2.882664-6.7249641 6.7249642 0 2.6092158 1.3140283 4.3857668 3.4495734 5.5937498l.7832033-3.183593.3417968-.339844c-.5109303-.5363714-.8339844-1.2535354-.8339844-2.0703128 0-1.6805399 1.303825-2.9843752 2.984375-2.9843752.8182897 0 1.5374278.3234425 2.0742189.8359378l.642578-.6406248c.286422-.286459.668251-.429688 1.039063-.429688.370878 0 .755742.14832 1.037109.429688l1.158203 1.1582029c.563359.5633613.563359 1.5128105 0 2.0761719l-5.2187499 5.1738282-2.4570314.654297c.4485631.384564.8094104.533698 1.7246093.533698 3.8423 0 6.781805-2.964836 6.781805-6.8071358 0-3.8423002-2.939505-6.7249642-6.7818049-6.7249642zm.017578 4.7425424c-1.0986501 0-2.013672.8974437-2.013672 1.9960937 0 .5233403.2099332.9994848.546875 1.3554688l.714844-.7148438c-.1506091-.1716853-.2480468-.3889461-.2480468-.640625 0-.55821.44179-.9980469 1-.9980469.2524498 0 .4710603.098539.6425781.25l.7109376-.7109374c-.3555723-.3320503-.830567-.5371094-1.3535159-.5371094z" fill="#bebebe" opacity=".35"/></svg>