<svg height="16" width="16" xmlns="http://www.w3.org/2000/svg"><g fill="#bebebe"><path d="m7.9882812.99609375c-3.8423099 0-6.99218745 3.14988755-6.99218745 6.99218745 0 3.8422998 3.14987755 7.0156248 6.99218745 7.0156248 3.8422998 0 7.0156248-3.173325 7.0156248-7.0156248s-3.173325-6.99218745-7.0156248-6.99218745zm.0117188.50390625v3.5058594c.9977482.0037998 1.8641949.4705514 2.40625 1.1992187l.652344-.6523437c.18898-.1889.440247-.2832031.685547-.2832032.24535 0 .497083.096693.683593.2832032l1.158204 1.1582031c.3733.37332.37331.9958206 0 1.3691406l-1.408204 1.4082031-3.7167965 3.6718748-.4609375.123047v1.216797a6.5 6.5 0 0 1 -2.5742188-.535156l-.3125.083984.0507813-.208984a6.5 6.5 0 0 1 -2.7929687-2.589844 6.5 6.5 0 0 1 0-6.5 6.5 6.5 0 0 1 5.6289062-3.25zm0 4.5058594v1c.002133-.0000129.0037229-.0019532.0058594-.0019532.4374434 0 .7923383.2746421.9296875.6601563l.5996093-.5996094.1425782-.1425781c-.3564061-.5493769-.9712509-.9160156-1.671875-.9160156-.0019794 0-.0038812-.0000058-.0058594 0z"/><g fill-rule="evenodd" transform="matrix(.59642297 0 0 .59642297 -234.353508 -452.678127)"><path d="m403.66263 777.27842 5.84933-5.85075 2.99982 2.99981-5.82888 5.87306-4.02677 1.07184z"/><path d="m412.62129 768.66211c-.20052 0-.40103.0768-.55468.23047l-1.76953 1.76758 3.05273 3.05273 1.76953-1.76953c.3073-.3073.3073-.80208 0-1.10938l-1.94336-1.9414c-.15365-.15365-.35417-.23047-.55469-.23047z"/></g></g></svg>