<svg height="16.000004" width="16" xmlns="http://www.w3.org/2000/svg"><g fill="#bebebe" transform="translate(-141.0002 -317)"><path d="m144.34395 328.52122c-1.20207.2879-1.99303 1.09829-2.1875 2.4375-.0536.5628-.28002 1.34482.25 1.71875.70817.42322 1.57418.35362 2.34375.21875.56137-.14838.80163-.2025 1.25-.625 0 0-.0518-1.07046.1875-1.65625 1.931-.81073 3.81009-.75064 5.6875 0 .23926.58579.1875 1.65625.1875 1.65625.44837.4225.68863.47662 1.25.625.76957.13487 1.63558.20447 2.34375-.21875.53002-.37393.30355-1.15595.25-1.71875-.19447-1.33921-.98543-2.1496-2.1875-2.4375-3.13782-.59102-6.2763-.72425-9.375 0z"/><path d="m150.0002 319v.78125a1.001098 1.001098 0 0 0 1.03125 1.21875h.59375l-2.5625 2.5625-2.375-2.28125a1.0054782 1.0054782 0 0 0 -.71875-.28125h-.125-.84375v.75a1.0054782 1.0054782 0 0 0 0 .0937 1.0054782 1.0054782 0 0 0 .28125.875l3.09375 2.96875.6875.6875.71875-.6875 3.21875-3.25v.5625a1.0001 1.0001 0 0 0 1 1h1v-.84375a1.0001 1.0001 0 0 0 0-.1562v-3-1h-1-2.96875a1.0001 1.0001 0 0 0 -.0312 0h-1z" opacity=".5"/></g></svg>