<svg height="16" width="16" xmlns="http://www.w3.org/2000/svg"><g transform="translate(-181.0002 -237)"><path d="m188.6252 238.3125c-1.98846 0-3.625 1.63655-3.625 3.625v1.67774c-.95643.0756-1.75.84923-1.75 1.82226v.46485 4.78515c.00002.55228.44772.99998 1 1h4.375 1.75 4.375c.55228-.00002.99998-.44772 1-1v-4.78515-.46485c0-.97303-.79358-1.7467-1.75-1.82226v-1.67774c0-1.98845-1.63655-3.625-3.625-3.625zm.125 3.75h1.5v1.5h-1.5z"/><path d="m188.62523 239.31257c-1.43913 0-2.62504 1.18591-2.62504 2.62504v2.62504h-.87502c-.48475 0-.875.39026-.875.87501v.46486 4.78521h4.37506 1.75002 4.37506v-4.78521-.46486c0-.48475-.39025-.87501-.875-.87501h-.87502v-2.62504c0-1.43913-1.18591-2.62504-2.62504-2.62504zm0 1.75002h1.75002c.49991 0 .87501.37513.87501.87502v2.62504h-3.50004v-2.62504c0-.49989.3751-.87502.87501-.87502z" fill="#bebebe"/></g></svg>