<svg height="16" width="16" xmlns="http://www.w3.org/2000/svg"><path d="m12 4a4 4 0 0 0 -4 4 4 4 0 0 0 4 4 4 4 0 0 0 4-4 4 4 0 0 0 -4-4zm-1 1h2v4h-2zm0 5h2v1h-2z" fill="#f57900" opacity=".2"/><path d="m5 0c-1.64469 0-3 1.35529-3 3v3h2v-2.75-.25c0-.1428225.0270523-.2759552.0761719-.3964844.1473586-.3615876.4953756-.6035156.9238281-.6035156h2c.57127 0 1 .42871 1 1v.25 1.7871094c.5170621-.6950113 1.199029-1.2582199 2-1.6113282v-.4257812c0-1.64471-1.35531-3-3-3zm-3.0625 9c-.554 0-1.06473.44979-1 1v.53125 4.46875h10.0625v-2l-.035156-.111328c-1.9340122-.412071-3.4652858-1.949655-3.8632815-3.888672z" fill="#bebebe"/></svg>