<svg height="16" width="16" xmlns="http://www.w3.org/2000/svg"><g transform="translate(-101.0002 -397)"><path d="m106.0002 397c-1.64469 0-3 1.35529-3 3v3h2v-3c0-.57129.42873-1 1-1h2c.57127 0 1 .42871 1 1v.25c.26687-.14912.55674-.25.875-.25h1.125c0-1.64471-1.35531-3-3-3zm-3.0625 9c-.554 0-1.06473.44979-1 1v.53125 4.46875h10.0625v-2h-2.125c-1.01035 0-1.875-.86466-1.875-1.875v-2.125z" fill="#bebebe"/><path d="m109.875 401c-.49245 0-.875.38256-.875.875v6.25c0 .49244.38255.875.875.875h6.25c.49245 0 .875-.38256.875-.875v-6.25c0-.49244-.38255-.875-.875-.875zm2.125 1h2v4h-2zm0 5h2v1h-2z" fill="#f57900"/></g></svg>