<svg height="16" width="16" xmlns="http://www.w3.org/2000/svg"><g transform="translate(-201.0002 -237)"><path d="m208.6252 237c-1.98839 0-3.625 1.63659-3.625 3.625v2.625c-.00006.55231.44769 1.00006 1 1h1.75c.55231.00006 1.00006-.44769 1-1v-2.5h1.5v4.125h-5.125c-1.02135 0-1.875.85367-1.875 1.875v.46485 4.78515c-.00006.55231.44769 1.00006 1 1h10.5c.55231.00006 1.00006-.44769 1-1v-4.78515-.46485c0-.97297-.79365-1.7467-1.75-1.82226v-4.30274c0-1.98841-1.63662-3.625-3.625-3.625z"/><path d="m208.62575 237.99936c-1.43914 0-2.62508 1.18591-2.62508 2.62508v2.62507h1.75006v-2.62507c0-.4999.37515-.87503.87502-.87503h1.75006c.49987 0 .87502.37513.87502.87503v5.25015h-6.12518c-.48478 0-.87503.39026-.87503.87504v.46486 4.78529h10.50031v-4.78529-.46486c0-.48478-.39026-.87504-.87502-.87504h-.87502v-5.25015c0-1.43917-1.18594-2.62508-2.62508-2.62508z" fill="#bebebe"/></g></svg>