<svg height="16" width="16" xmlns="http://www.w3.org/2000/svg"><g fill="#bebebe" transform="translate(-260.99994 -257)"><path d="m269 257c-2.74958 0-5 2.25042-5 5 0 1.58622.84459 2.90336 2 3.8125v2.1875 1h1 4 1v-1-2.1875c1.15541-.90914 2-2.22628 2-3.8125 0-2.74958-2.25042-5-5-5zm0 2c1.66868 0 3 1.33132 3 3 0 1.11585-.59507 2.03788-1.5 2.5625l-.5.3125v.5625 1.5625h-2v-1.5625-.5625l-.5-.3125c-.90493-.52462-1.5-1.44665-1.5-2.5625 0-1.66868 1.33132-3 3-3z"/><path d="m267 272v1h4v-1z"/><path d="m266 270v1h6v-1z"/><path d="m268 262v1h2v-1z" opacity=".35"/></g></svg>