<svg height="16" width="16.000002" xmlns="http://www.w3.org/2000/svg"><path d="m41.53145 398c-.28913 0-.53125.24212-.53125.53125v13.9375c0 .2985.23264.53125.53125.53125h8.476562c-1.216981-.9143-2.007812-2.36994-2.007812-4 0-2.74957 2.250429-5 5-5 1.389592 0 2.651992.57453 3.560547 1.49805l.439453-1.9668c0-.2891-.24212-.53125-.53125-.53125h-10.46875l-2 7.5c0 .277-.223.5-.5.5s-.5-.223-.5-.5l2-8c0-.277.223-.5.5-.5h.96875 8.53125v-1.40625c0-.3272-.26666-.59375-.59375-.59375h-7.40625v-1.46875c0-.28915-.24212-.53125-.53125-.53125z" fill="#32a679" transform="translate(-41.0002 -397)"/><path d="m12.000002 8a4 4 0 0 0 -3.9999996 4 4 4 0 0 0 3.9999996 4 4 4 0 0 0 4-4 4 4 0 0 0 -4-4zm-1 1.0605469h2v3.9648441h-2zm0 4.9570311h2v.990234h-2z" fill="#bebebe"/></svg>