<svg height="16" width="16.000002" xmlns="http://www.w3.org/2000/svg"><g fill="#bebebe"><path d="m.53125 1c-.28912971 0-.53125.2421203-.53125.53125v13.9375c0 .2985.2326403.53125.53125.53125h8.4765625c-1.2169798-.914299-2.0078125-2.369942-2.0078125-4 0-1.479093.6518182-2.8128694 1.6816406-3.7304688l-2.6816406.7148438.734375-2.984375h-1.734375l-2 7.5c0 .277-.2230003.5-.5.5s-.5-.223-.5-.5l2-8c0-.2769997.2230003-.5.5-.5h.96875 1.5117188l.0917968-.3691406 1.6347656-1.6308594h-2.7070312v-1.46875c0-.2891497-.2421203-.53125-.53125-.53125zm13.46875 3.1660156-.839844.8339844h.839844zm-1.849609 1.8339844-1.101563 1.0917969c.308383-.0600812.625921-.0917969.951172-.0917969 1.389591 0 2.651993.5745278 3.560547 1.4980469l.439453-1.9667969c0-.2890997-.24212-.53125-.53125-.53125z"/><path d="m12.000002 8a4 4 0 0 0 -3.9999996 4 4 4 0 0 0 3.9999996 4 4 4 0 0 0 4-4 4 4 0 0 0 -4-4zm-1 1.0605469h2v3.9648441h-2zm0 4.9570311h2v.990234h-2z"/><path d="m13.320119 0c-.119591 0-.240384.04701-.332022.138672l-1.054659 1.054688 1.820264 1.820312 1.05466-1.05664c.183274-.18328.183274-.476877 0-.660157l-1.158174-1.158203c-.091637-.09164-.210477-.138672-.330069-.138672zm-1.855419 1.650391-3.4881896 3.490234-.6015466 2.441407 2.4022808-.640625 3.4764704-3.501954z" fill-rule="evenodd" stroke-width=".596415"/></g></svg>