<svg height="16" width="16.000002" xmlns="http://www.w3.org/2000/svg"><g fill="#bebebe"><path d="m41.53145 398c-.28913 0-.53125.24212-.53125.53125v13.9375c0 .2985.23264.53125.53125.53125h12.9375c.2986 0 .53125-.23265.53125-.53125l2-8.9375c0-.2891-.24212-.53125-.53125-.53125h-3.318359l-1.853516 1.83789-4.296875 1.14649.734375-2.98438h-1.734375l-2 7.5c0 .277-.223.5-.5.5s-.5-.223-.5-.5l2-8c0-.277.223-.5.5-.5h.96875 1.511719l.091797-.36914 1.634765-1.63086h-2.707031v-1.46875c0-.28915-.24212-.53125-.53125-.53125zm13.46875 3.16602-.839844.83398h.839844z" transform="translate(-41.0002 -397)"/><path d="m13.320312 0c-.119594 0-.24039.047015-.332031.138672l-1.054687 1.054688 1.820312 1.820312 1.054688-1.05664c.183279-.18328.183279-.476877 0-.660157l-1.158204-1.158203c-.09164-.09164-.210483-.138672-.330078-.138672zm-1.855468 1.650391-3.4882815 3.490234-.6015625 2.441407 2.402344-.640625 3.476562-3.501954z" fill-rule="evenodd" stroke-width=".596423"/></g></svg>