<svg height="16" width="16.000002" xmlns="http://www.w3.org/2000/svg"><path d="m81.53145 398c-.28913 0-.53125.24212-.53125.53125v13.9375c0 .2985.23264.53125.53125.53125h8.476563c-1.216982-.9143-2.007813-2.36993-2.007813-4 0-2.74957 2.250427-5 5-5h1v.10156c1.216761.24975 2.277736.94488 3 1.90625v-2.47656c0-.2891-.24212-.53125-.53125-.53125h-1.46875v-2.40625c0-.3272-.26666-.59375-.59375-.59375h-7.40625v-1.46875c0-.28915-.24212-.53125-.53125-.53125zm2.0625 6h1s.55232.0902.75.28125l2.65625 2.71875-2.65625 2.71875c-.19768.1912-.44055.28125-.75.28125h-1v-1c0-.2569.12983-.52845.3125-.71875l1.28125-1.28125-1.28125-1.28125c-.18267-.1903-.13084-.53709-.3125-.71875zm13.40625 7.99219c-.286371.38117-.626637.72144-1.007812 1.00781h.476562c.2986 0 .53125-.23265.53125-.53125z" fill="#00a09f" transform="translate(-81.0002 -397)"/><path d="m12 8a4 4 0 0 0 -4 4 4 4 0 0 0 4 4 4 4 0 0 0 4-4 4 4 0 0 0 -4-4zm-1 1.060547h2v3.964844h-2zm0 4.957031h2v.990234h-2z" fill="#bebebe"/></svg>