<svg height="16" width="16.000002" xmlns="http://www.w3.org/2000/svg"><path d="m81.53145 398c-.28913 0-.53125.24212-.53125.53125v13.9375c0 .2985.23264.53125.53125.53125h14.9375c.2986 0 .53125-.23265.53125-.53125v-8.9375c0-.2891-.24212-.53125-.53125-.53125h-1.46875v-2.40625c0-.3272-.26666-.59375-.59375-.59375h-7.40625v-1.46875c0-.28915-.24212-.53125-.53125-.53125zm2.0625 6h1s.55232.0902.75.28125l2.65625 2.71875-2.65625 2.71875c-.19768.1912-.44055.28125-.75.28125h-1v-1c0-.2569.12983-.52845.3125-.71875l1.28125-1.28125-1.28125-1.28125c-.18267-.1903-.13084-.53709-.3125-.71875zm9.40625 0h1v1c0 .2569-.12983.52845-.3125.71875l-1.28125 1.28125 1.28125 1.28125c.18267.1903.3125.46185.3125.71875v1h-1c-.30945 0-.55232-.09-.75-.28125l-2.65625-2.71875 2.65625-2.71875c.19768-.191.44055-.28125.75-.28125z" fill="#32a679" transform="translate(-81.0002 -397)"/></svg>