<svg height="16" width="16" xmlns="http://www.w3.org/2000/svg"><g fill="#bebebe"><path d="m11.5625 4-.09375.013672c-.481127.0352699-.85284.301024-1.0625.548828-.236007.278936-.382321.56942-.40625 1v.4375h-2v10h4.121094v-1.128906h-1.265625v-1.580078c.000165-.09785.01259-.197154.03711-.291016.02845-.108898.07456-.210292.158203-.291016l1.705077-1.708984.56836-.568359c.100548-.09814.231332-.159398.371093-.173829h1.792969v1.867188h.511719v-6.125h-2v-.4375c-.02393-.43058-.170243-.721064-.40625-1-.20966-.247804-.581373-.5135561-1.0625-.5488281l-.15625-.0136719zm-.5625 1h2v1h-2zm5 9.849609-1.152344 1.150391h1.152344z" stroke-width=".999952"/><path d="m14.132955 11.000006a.6228093.6228093 0 0 0 -.09468.0071.6228093.6228093 0 0 0 -.370234.175224l-1.86813 1.868134a.6228093.6228093 0 0 0 -.175227.582201v.488936h.623183 1.315603l-.592091.887434-.0043.0071a.63300119.63300119 0 0 0 -.09609.467741v.505892h.508719a.63300119.63300119 0 0 0 .561005-.175225l1.868132-1.868132a.6228093.6228093 0 0 0 .175289-.58226v-.48891h-.623237-1.315605l.561004-.842215a.6228093.6228093 0 0 0 .0028-.0028.6228093.6228093 0 0 0 .130006-.573724v-.449365h-.507285a.6228093.6228093 0 0 0 -.09892-.0071z" stroke-width=".622747"/><g stroke-width=".995223"><path d="m1.701305.000024c-.923183-.003-1.696785.764832-1.701305 1.725447v2.274539h3.000001v-3.999996z"/><path d="m4.000002.000014v3.999996h3.000001l-.00001-2.239c.003-.960615-.73503-1.756278-1.658263-1.760996z"/><path d="m0 5.000011.00004 2.354181c-.0089 2.009867 1.568334 3.635894 3.499962 3.645778 1.931607.01 3.490506-1.600242 3.500001-3.61014v-2.389819z"/></g></g></svg>