<svg height="16" width="16" xmlns="http://www.w3.org/2000/svg"><g fill="#bebebe"><path d="m5 6v7h2.9902344v-.558594c-.100603-.513755-.0248046-1.009973.2402344-1.441406.0918979-.162405.2027774-.318157.3476562-.460938l2.421875-2.3964839v-2.1425781z"/><path d="m13.029297 7.986328a1.0001 1.0001 0 0 0 -.154297.013672 1.0001 1.0001 0 0 0 -.59375.28125l-3 3a1.0001 1.0001 0 0 0 -.28125.931641v.787109h1 2.115234l-.929687 1.394531a1.016466 1.016466 0 0 0 -.185547.785157v.820312h.824219a1.016466 1.016466 0 0 0 .894531-.28125l3-3a1.0001 1.0001 0 0 0 .28125-.931641v-.787109h-1-2.115234l.90039-1.349609.0039-.0039a1.0001 1.0001 0 0 0 .210944-.927741v-.71875h-.808594a1.0001 1.0001 0 0 0 -.162109-.01367z"/><path d="m5.4687505-.0000001c-.49033 0-.79607.21199-1.03125.45228s-.4375.5585-.4375 1.03125v.51647h-2.0000005v14.0000001h8.000001v-2h-6.0000005v-10.0000001h2v-2h4.0000005v2h1.999999v3h2.000001v-5h-2.000001v-.45387c-.0239-.4306-.170229-.72105-.406249-1-.22374-.26444-.6267-.54419-1.15625-.54613z"/></g></svg>