<svg height="16" width="16" xmlns="http://www.w3.org/2000/svg"><path d="m11.46875 4.0000001c.0012.0056-.0011.00817 0 .013672-.481127.035272-.85284.3010236-1.0625.548828-.236007.278936-.38232.56942-.40625 1v.03125.03125.375h-1-1v1 7.9999999 1h1 6.00075 1v-1-7.9999999-1h-1-1v-1.3750001-.03125.9687501c-.02393-.43058-.170243-.7210639-.40625-1-.20966-.2478044-.581373-.5135557-1.0625-.548828.0011-.00551-.0012-.00807 0-.013672h-.09375-.0625l-.81325-.0000001zm-.4685.9999999h2v1 1h1 1v8h-6v-8h1 1v-1z" fill="#bebebe" stroke-width=".999952"/><path d="m9.000475 13.000007v1.999904h5.999711v-1.999904z" fill="#ef2929" stroke-width=".999952"/><path d="m345.67931 450.99343c-.93151-.003-1.68515.76529-1.68971 1.72648.018.74437.0221 1.50686.015 2.26896l2.92137.0153.0189-4.00381-1.26571-.006zm2.40728.0117-.0189 4.00384 2.9215.0153c.015-.7651.03-1.53284.0366-2.26867.003-.96119-.74166-1.7388-1.67322-1.74352l-1.26604-.006zm-4.08639 5.08092c-.0113.83161-.037 1.50046-.0375 2.26595-.009 2.01107 1.55182 3.63807 3.50087 3.64796 1.94903.01 3.52584-1.6012 3.53542-3.6123-.0353-.83655-.046-1.50842-.0375-2.30161z" fill="#bebebe" transform="matrix(.99106095 0 0 .99940172 -340.88796 -450.7236)"/></svg>