<svg height="16" width="16" xmlns="http://www.w3.org/2000/svg"><path d="m13.029297 7.986328a1.0001 1.0001 0 0 0 -.154297.013672 1.0001 1.0001 0 0 0 -.59375.28125l-3 3a1.0001 1.0001 0 0 0 -.28125.931641v.787109h1 2.115234l-.929687 1.394531a1.016466 1.016466 0 0 0 -.185547.785157v.820312h.824219a1.016466 1.016466 0 0 0 .894531-.28125l3-3a1.0001 1.0001 0 0 0 .28125-.931641v-.787109h-1-2.115234l.90039-1.349609.0039-.0039a1.0001 1.0001 0 0 0 .210944-.927741v-.71875h-.808594a1.0001 1.0001 0 0 0 -.162109-.01367z" fill="#bebebe"/><path d="m5 12v1h2.9902344v-.558594c-.0292532-.149389-.039959-.296144-.0390625-.441406z" fill="#ef2929"/><path d="m5.46875.0000004c-.49033 0-.79607.21199-1.03125.45228s-.4375.5585-.4375 1.03125v.51647h-2v13.9999996h8v-2h-6v-9.9999996h2v-2h4v2h2v3h2v-5h-2v-.45387c-.0239-.4306-.17023-.72105-.40625-1-.22374-.26444-.6267-.54419-1.15625-.54613z" fill="#bebebe"/></svg>