<svg height="16" width="16" xmlns="http://www.w3.org/2000/svg"><path d="m9 12.999985v2h3.121094v-.128906h-1.265625v-1.580078c.000165-.09785.01259-.197155.03711-.291016z" fill="#ef2929" stroke-width=".999952"/><g fill="#bebebe"><path d="m14.132955 11.000006a.6228093.6228093 0 0 0 -.09468.0071.6228093.6228093 0 0 0 -.370234.175225l-1.86813 1.868134a.6228093.6228093 0 0 0 -.175227.582201v.488936h.623183 1.315603l-.592091.887434-.0043.0071a.63300119.63300119 0 0 0 -.09609.467741v.505892h.508719a.63300119.63300119 0 0 0 .561005-.175225l1.868132-1.868132a.6228093.6228093 0 0 0 .175289-.58226v-.48891h-.623237-1.315605l.561004-.842215a.6228093.6228093 0 0 0 .0028-.0028.6228093.6228093 0 0 0 .130006-.573724v-.449365h-.507285a.6228093.6228093 0 0 0 -.09892-.0071z" stroke-width=".622747"/><path d="m1.701305.0000246c-.923183-.003-1.696785.764832-1.701305 1.7254475v2.2745384h3.000001v-3.9999959z" stroke-width=".995223"/><path d="m4.000002.0000146v3.9999959h3.000001l-.00001-2.2389997c.003-.9606152-.73503-1.7562782-1.658263-1.7609962z" stroke-width=".995223"/><path d="m0 5.0000118.00004 2.3541807c-.0089 2.0098668 1.568334 3.6358935 3.499962 3.6457775 1.931607.01 3.490506-1.600242 3.500001-3.6101388v-2.3898194z" stroke-width=".995223"/><path d="m11.468749 4.0136698c-.481127.03527-.85284.301024-1.0625.548828-.236007.278936-.38232.56942-.406249 1v.4375h-2v10.0000002h4.121094v-.999998h-3.121094v-8.0000002h1.999999v-2h2.000001v2h1.999999v3.2578122h.488281v1.867188h.511719v-6.1250002h-2v-.4375c-.02393-.43058-.170243-.721064-.40625-1-.20966-.247804-.581372-.513556-1.062499-.548828l-.15625-.01367h-.812501zm4.53125 10.8359392-1.152344 1.150391h1.152344z" stroke-width=".999952"/></g></svg>