<svg height="16" width="16" xmlns="http://www.w3.org/2000/svg"><g fill="#bebebe"><g stroke-width=".999952"><path d="m11.46875 4.0000001c.0012.0056-.0011.00817 0 .013672-.481127.035272-.85284.3010236-1.0625.548828-.236007.278936-.38232.56942-.40625 1v.03125.03125.375h-1-1v1 7.9999999 1h1 6.00075 1v-1-7.9999999-1h-1-1v-1.3750001-.03125.9687501c-.02393-.43058-.170243-.7210639-.40625-1-.20966-.2478044-.581373-.5135557-1.0625-.548828.0011-.00551-.0012-.00807 0-.013672h-.09375-.0625l-.81325-.0000001zm-.4685.9999999h2v1 1h1 1v8h-6v-8h1 1v-1z"/><path d="m9.000475 9.0002v1.999904h5.999711v-1.999904z"/><path d="m9.000475 11.000104v1.999903h5.999711v-1.999903z"/><path d="m9.000475 13.000007v1.999904h5.999711v-1.999904z"/><path d="m9.000475 7.0002973v1.9999027h5.999711v-1.9999027z"/></g><path d="m1.0000029 0c-1.00915999.005-.99999999 1-.99999999 1v11c0 1 .99999999 1 .99999999 1h4c1 0 1-1 1-1v-8c.0009-.554-.446-1-1-1h-3v-2s-.009-.99447-1-1zm0 4h4v3.03125l-4-.0312zm0 4h1v1.0000004h1v-1.0000004h1v1.0000004h1v.9999996h-1v1h1v1h-1v-1h-1v1h-1v-1h-1v-1h1v-.9999996h-1zm1 2v1h1v-1zm1 0h1v-.9999996h-1z"/></g></svg>