<svg height="16" width="16" xmlns="http://www.w3.org/2000/svg"><path d="m9 12.999985v2h3.121094v-.128906h-1.265625v-1.580078c.000165-.09785.01259-.197155.03711-.291016z" fill="#ef2929" stroke-width=".999952"/><g fill="#bebebe"><g><path d="m14.132955 11.000006a.6228093.6228093 0 0 0 -.09468.0071.6228093.6228093 0 0 0 -.370234.175225l-1.86813 1.868134a.6228093.6228093 0 0 0 -.175227.582201v.488936h.623183 1.315603l-.592091.887434-.0043.0071a.63300119.63300119 0 0 0 -.09609.467741v.505892h.508719a.63300119.63300119 0 0 0 .561005-.175225l1.868132-1.868132a.6228093.6228093 0 0 0 .175289-.58226v-.48891h-.623237-1.315605l.561004-.842215a.6228093.6228093 0 0 0 .0028-.0028.6228093.6228093 0 0 0 .130006-.573724v-.449365h-.507285a.6228093.6228093 0 0 0 -.09892-.0071z" stroke-width=".622747"/><path d="m1.0000029 0c-1.00915999.005-.99999999 1-.99999999 1v11c0 1 .99999999 1 .99999999 1h4c1 0 1-1 1-1v-8c.0009-.554-.446-1-1-1h-3v-2s-.009-.99447-1-1zm0 4h4v3.03125l-4-.0312zm0 4h1v1.0000004h1v-1.0000004h1v1.0000004h1v.9999996h-1v1h1v1h-1v-1h-1v1h-1v-1h-1v-1h1v-.9999996h-1zm1 2v1h1v-1zm1 0h1v-.9999996h-1z"/></g><path d="m11.46875 4.0136704c-.481127.03527-.85284.301024-1.0625.548828-.236007.278936-.38232.56942-.40625 1v.4375h-2v9.9999996h4.121094v-.999998h-3.121094v-7.9999996h2v-2h2v2h1.999999v3.2578126h.488281v1.867188h.511719v-6.1250006h-2v-.4375c-.02393-.43058-.170243-.721064-.40625-1-.20966-.247804-.581372-.513556-1.062499-.548828l-.15625-.01367h-.8125zm4.531249 10.8359386-1.152344 1.150391h1.152344z" stroke-width=".999952"/></g></svg>