<svg height="16" width="16" xmlns="http://www.w3.org/2000/svg"><g fill="#bebebe" transform="translate(-261.0002 -217.01647)"><path d="m266.46875 217.01647c-.49033 0-.79607.21199-1.03125.45228s-.4375.5585-.4375 1.03125v.51647h-2v14h8v-2h-6v-10h2v-2h4v2h2v3h2v-5h-2v-.45387c-.0239-.4306-.17023-.72105-.40625-1-.22374-.26444-.6267-.54419-1.15625-.54613z"/><path d="m273.875 225a1.0001 1.0001 0 0 0 -.59375.28125l-3 3a1.0001 1.0001 0 0 0 .71875 1.71875h2.5625l-1.28125 1.28125a1.016466 1.016466 0 1 0 1.4375 1.4375l3-3a1.0001 1.0001 0 0 0 -.71875-1.71875h-2.5625l1.28125-1.28125a1.0001 1.0001 0 0 0 -.84375-1.71875z"/><path d="m276.00046 227.99976h1v1h-1z"/><path d="m270.00046 228.99976h1v1h-1z"/><path d="m274.00046 224.99976h1v1h-1z"/><path d="m272.00046 231.99976h1v1h-1z"/><path d="m273.15625 225.4375-2 3 1.6875 1.125 2-3z"/><path d="m274.15625 228.4375-2 3 1.6875 1.125 2-3z"/></g></svg>