<svg height="16" width="16" xmlns="http://www.w3.org/2000/svg"><g fill="#bebebe"><path d="m13.029297 7.986328a1.0001 1.0001 0 0 0 -.154297.013672 1.0001 1.0001 0 0 0 -.59375.28125l-3 3a1.0001 1.0001 0 0 0 -.28125.931641v.787109h1 2.115234l-.929687 1.394531a1.016466 1.016466 0 0 0 -.185547.785157v.820312h.824219a1.016466 1.016466 0 0 0 .894531-.28125l3-3a1.0001 1.0001 0 0 0 .28125-.931641v-.787109h-1-2.115234l.90039-1.349609.0039-.0039a1.0001 1.0001 0 0 0 .210944-.927741v-.71875h-.808594a1.0001 1.0001 0 0 0 -.162109-.01367z"/><path d="m5 8v5h2.9902344v-.558594c-.100603-.513755-.0248046-1.009973.2402344-1.441406.0918979-.162405.2027774-.318157.3476562-.460938l2.421875-2.3964839v-.1425781z"/><path d="m5.4687502.0000003c-.49033 0-.79607.21199-1.0312502.45228-.23518.24029-.4375.5585-.4375 1.03125v.51647h-2v13.9999997h8v-2h-6v-9.9999997h2.0000002v-2h3.9999998v2h2v3h2v-5h-2v-.45387c-.0239-.4306-.17023-.72105-.40625-1-.22374-.26444-.6267-.54419-1.15625-.54613z"/></g></svg>