<svg height="16" width="16" xmlns="http://www.w3.org/2000/svg"><path d="m9.000475 13.000007v1.999904h5.999711v-1.999904z" fill="#ef2929" stroke-width=".999952"/><g fill="#bebebe"><path d="m11.468751 4.0136723c-.481127.03527-.85284.301024-1.0625.548828-.236007.278936-.38232.56942-.40625 1v.4375h-2v9.9999997h8v-9.9999997h-1.99925v-.4375c-.02393-.43058-.170243-.721064-.40625-1-.20966-.247804-.581373-.513556-1.0625-.548828l-.15625-.01367h-.81325zm-.4685.986328h2v2h2v7.9999997h-6v-7.9999997h2z" stroke-width=".999952"/><g transform="matrix(.99106095 0 0 .99940172 -340.88796 -450.7236)"><path d="m345.67931 450.99343c-.93151-.003-1.71209.76529-1.71665 1.72648v2.2759h3.02706v-4.00239z"/><path d="m347.99874 450.99342v4.00239h3.02706l-.00001-2.24034c.003-.96119-.74166-1.75733-1.67322-1.76205z"/><path d="m343.96266 455.99641.00004 2.35559c-.009 2.01107 1.58248 3.63807 3.53153 3.64796 1.94903.01 3.52199-1.6012 3.53157-3.6123v-2.39125z"/></g></g></svg>