<svg height="16" width="16" xmlns="http://www.w3.org/2000/svg"><g transform="matrix(.99106095 0 0 .99940172 -340.88796 -450.7236)"><path d="m345.67931 450.99343c-.93151-.003-1.71209.76529-1.71665 1.72648v2.2759h3.02706v-4.00239z" fill="#bebebe"/><path d="m347.99874 450.99342v4.00239h3.02706l-.00001-2.24034c.003-.96119-.74166-1.75733-1.67322-1.76205z" fill="#bebebe"/><path d="m343.96266 455.99641.00004 2.35559c-.009 2.01107 1.58248 3.63807 3.53153 3.64796 1.94903.01 3.52199-1.6012 3.53157-3.6123v-2.39125z" fill="#bebebe"/></g><path d="m11.46875 4.0136545c-.481127.03527-.85284.301024-1.0625.548828-.236007.278936-.38232.56942-.40625 1v.4375h-2v10.0000005h4.121094v-.999998h-3.121094v-8.0000005h2v-2h2v2h1.999999v3.2578125h.488281v1.867188h.511719v-6.1250005h-2v-.4375c-.02393-.43058-.170243-.721064-.40625-1-.20966-.247804-.581372-.513556-1.062499-.548828l-.15625-.01367h-.8125zm4.531249 10.8359395-1.152344 1.150391h1.152344z" fill="#ef2929" stroke-width=".999952"/><path d="m14.132955 11.000006a.6228093.6228093 0 0 0 -.09468.0071.6228093.6228093 0 0 0 -.370234.175225l-1.86813 1.868134a.6228093.6228093 0 0 0 -.175227.582201v.488936h.623183 1.315603l-.592091.887434-.0043.0071a.63300119.63300119 0 0 0 -.09609.467741v.505892h.508719a.63300119.63300119 0 0 0 .561005-.175225l1.868132-1.868132a.6228093.6228093 0 0 0 .175289-.58226v-.48891h-.623237-1.315605l.561004-.842215a.6228093.6228093 0 0 0 .0028-.0028.6228093.6228093 0 0 0 .130006-.573724v-.449365h-.507285a.6228093.6228093 0 0 0 -.09892-.0071z" fill="#bebebe" stroke-width=".622747"/></svg>