<svg height="16" width="16" xmlns="http://www.w3.org/2000/svg"><g fill="#bebebe"><path d="m11.46875 4.0136721c-.481127.035272-.85284.3010236-1.0625.548828-.236007.278936-.38232.56942-.40625 1v.4375h-2v9.9999999h8.00075v-9.9999999h-2v-.4375c-.02393-.43058-.170243-.7210639-.40625-1-.20966-.2478044-.581373-.5135557-1.0625-.548828l-.15625-.013672-.81325-.0000001zm-.4685.9863279h2v2h-2z" stroke-width=".999952"/><path d="m1.0000029 0c-1.00915999.005-.99999999 1-.99999999 1v11c0 1 .99999999 1 .99999999 1h4c1 0 1-1 1-1v-8c.0009-.554-.446-1-1-1h-3v-2s-.009-.99447-1-1zm0 4h4v3.03125l-4-.0312zm0 4h1v1.0000004h1v-1.0000004h1v1.0000004h1v.9999996h-1v1h1v1h-1v-1h-1v1h-1v-1h-1v-1h1v-.9999996h-1zm1 2v1h1v-1zm1 0h1v-.9999996h-1z"/></g></svg>