<svg height="16" width="16" xmlns="http://www.w3.org/2000/svg"><g fill="#bebebe"><g stroke-width=".999952"><path d="m11.46875 4.0000001c.0012.0056-.0011.00817 0 .013672-.481127.035272-.85284.3010236-1.0625.548828-.236007.278936-.38232.56942-.40625 1v.03125.03125.375h-1-1v1 7.9999999 1h1 6.00075 1v-1-7.9999999-1h-1-1v-1.3750001-.03125.9687501c-.02393-.43058-.170243-.7210639-.40625-1-.20966-.2478044-.581373-.5135557-1.0625-.548828.0011-.00551-.0012-.00807 0-.013672h-.09375-.0625l-.81325-.0000001zm-.4685.9999999h2v1 1h1 1v8h-6v-8h1 1v-1z"/><path d="m9.000475 9.0002v1.999904h5.999711v-1.999904z"/><path d="m9.000475 11.000104v1.999903h5.999711v-1.999903z"/><path d="m9.000475 13.000007v1.999904h5.999711v-1.999904z"/></g><path d="m.75 0c-.4155 0-.75.3345-.75.75v10.5c0 .4155.3345.75.75.75h6.25v-2.25h-1v-1.5h1v-.75h-1v-1.5h1v-.75h-1v-1.5h1.5v1.25h1.5v-4.25c0-.4155-.3345-.75-.75-.75zm.75 1.5h1.5v1.5h-1.5zm4.5 0h1.5v1.5h-1.5zm-2.25.75h1.5v1.5h-1.5zm-2.25 1.5h1.5v4.5h-1.5zm2.25.75h1.5v1.5h-1.5zm0 2.25h1.5v1.5h-1.5zm-2.25 2.25h1.5v2.25h-1.5zm2.25 0h1.5v1.5h-1.5z" stroke-width=".75"/></g></svg>