<svg height="16" width="16" xmlns="http://www.w3.org/2000/svg"><g fill="#bebebe"><g stroke-width=".999952"><path d="m11.46875 3.9999845c.0012.0056-.0011.0082 0 .01367-.481127.03527-.85284.301024-1.0625.548828-.236007.278936-.38232.56942-.40625 1v.03125.03125.375h-1-1v1 8.0000005 1h1 3.121094v-.759764-.240234h-3.121094v-8.0000005h1 1v-1-1h2v1 1h.999999 1v3.2578125h.488281v.449219 1.050781.367188h.511719v-5.1250005-1h-1-1v-.4375c-.02393-.43058-.170243-.721064-.40625-1-.20966-.247804-.581372-.513556-1.062499-.548828.0011-.0055-.0012-.0081 0-.01367h-.09375-.0625-.8125zm4.531249 10.8496095-1.152344 1.150391h.152344 1v-1z"/><path d="m9 8.9999845v2.0000005h3.755859l.56836-.568359c.100548-.09814.23133-.159398.371092-.173829.06007.000007.06952-.0011.193361 0h.505858.605469v-1.2578125z"/><path d="m9 10.999985v2h1.892578c.02845-.108898.07456-.210292.158203-.291016l1.705078-1.708984z"/><path d="m9 12.999985v2h3.121094v-.128906h-.623047-.642578v-1.580078c.000165-.09785.01259-.197155.03711-.291016z"/><path d="m9.000475 7.0002815v1.999903h5.99971v-1.999903z"/><path d="m11.000379 5.0003775v1.999904h1.999903v-1.999904z"/></g><path d="m14.132955 11.000006a.6228093.6228093 0 0 0 -.09468.0071.6228093.6228093 0 0 0 -.370234.175225l-1.86813 1.868134a.6228093.6228093 0 0 0 -.175227.582201v.488936h.623183 1.315603l-.592091.887434-.0043.0071a.63300119.63300119 0 0 0 -.09609.467741v.505892h.508719a.63300119.63300119 0 0 0 .561005-.175225l1.868132-1.868132a.6228093.6228093 0 0 0 .175289-.58226v-.48891h-.623237-1.315605l.561004-.842215a.6228093.6228093 0 0 0 .0028-.0028.6228093.6228093 0 0 0 .130006-.573724v-.449365h-.507285a.6228093.6228093 0 0 0 -.09892-.0071z" stroke-width=".622747"/><path d="m1.0000029.00000019c-1.00915999.005-.99999999 1.00000001-.99999999 1.00000001v10.9999998c0 1 .99999999 1 .99999999 1h4c1 0 1-1 1-1v-7.9999998c.0009-.554-.446-1-1-1h-3v-2s-.009-.99447001-1-1.00000001zm0 4.00000001h4v3.03125l-4-.0312zm0 4h1v1.0000004h1v-1.0000004h1v1.0000004h1v.9999994h-1v1h1v1h-1v-1h-1v1h-1v-1h-1v-1h1v-.9999994h-1zm1 1.9999998v1h1v-1zm1 0h1v-.9999994h-1z"/></g></svg>