<svg height="16" width="16" xmlns="http://www.w3.org/2000/svg"><path d="m345.67931 450.99343c-.93151-.003-1.68515.76529-1.68971 1.72648.018.74437.0221 1.50686.015 2.26896l2.92137.0153.0189-4.00381-1.26571-.006zm2.40728.0117-.0189 4.00384 2.9215.0153c.015-.7651.03-1.53284.0366-2.26867.003-.96119-.74166-1.7388-1.67322-1.74352l-1.26604-.006zm-4.08639 5.08092c-.0113.83161-.037 1.50046-.0375 2.26595-.009 2.01107 1.55182 3.63807 3.50087 3.64796 1.94903.01 3.52584-1.6012 3.53542-3.6123-.0353-.83655-.046-1.50842-.0375-2.30161z" fill="#bebebe" transform="matrix(.99106095 0 0 .99940172 -340.88796 -450.7236)"/><path d="m11.46875 3.9999845c.0012.0056-.0011.0082 0 .01367-.481127.03527-.85284.301024-1.0625.548828-.236007.278936-.38232.56942-.40625 1v.03125.03125.375h-1-1v1 8.0000005 1h1 3.121094v-.759764-.240234h-3.121094v-8.0000005h1 1v-1-1h2v1 1h.999999 1v3.2578125h.488281v.449219 1.050781.367188h.511719v-5.1250005-1h-1-1v-.4375c-.02393-.43058-.170243-.721064-.40625-1-.20966-.247804-.581372-.513556-1.062499-.548828.0011-.0055-.0012-.0081 0-.01367h-.09375-.0625-.8125zm4.531249 10.8496095-1.152344 1.150391h.152344 1v-1z" fill="#ef2929" stroke-width=".999952"/><path d="m14.132955 11.000006a.6228093.6228093 0 0 0 -.09468.0071.6228093.6228093 0 0 0 -.370234.175225l-1.86813 1.868134a.6228093.6228093 0 0 0 -.175227.582201v.488936h.623183 1.315603l-.592091.887434-.0043.0071a.63300119.63300119 0 0 0 -.09609.467741v.505892h.508719a.63300119.63300119 0 0 0 .561005-.175225l1.868132-1.868132a.6228093.6228093 0 0 0 .175289-.58226v-.48891h-.623237-1.315605l.561004-.842215a.6228093.6228093 0 0 0 .0028-.0028.6228093.6228093 0 0 0 .130006-.573724v-.449365h-.507285a.6228093.6228093 0 0 0 -.09892-.0071z" fill="#bebebe" stroke-width=".622747"/></svg>