<svg height="16" width="16" xmlns="http://www.w3.org/2000/svg"><path d="m5 11v2h2.1015625c-.0664027-.323511-.1015625-.65763-.1015625-1s.0351598-.676489.1015625-1z" fill="#ef2929"/><path d="m12 8.0000005a4 4 0 0 0 -4 3.9999995 4 4 0 0 0 4 4 4 4 0 0 0 4-4 4 4 0 0 0 -4-3.9999995zm-1 1h2v3.9999995h-2zm0 4.9999995h2v1h-2z" fill="#f57900"/><path d="m5.46875 0c-.490327 0-.796069.22846-1.03125.46875s-.4375.52725-.4375 1v.53125h-2v14h7.0371094c-.6950113-.517062-1.2582199-1.199029-1.6113282-2h-3.4257812v-10h2v-2h4v2h2v3c.710984 0 1.386045.1551192 2 .4257812v-5.4257812h-2v-.4375c-.02393-.4306-.170232-.72105-.40625-1-.223737-.26444-.626697-.56056-1.15625-.5625z" fill="#bebebe"/></svg>