<svg height="16" width="16" xmlns="http://www.w3.org/2000/svg"><g fill="#bebebe"><path d="m4.999998 7v2h6v-2z"/><path d="m5.46855 0c-.490327 0-.796069.22846-1.03125.46875s-.4375.52725-.4375 1v.53125h-1-1v1 12 1h1 10 1v-1-12-1h-1-1v-.375-.0312-.0312c-.02393-.4306-.170232-.72105-.40625-1-.223737-.26444-.626697-.52931-1.15625-.53125v-.0312h-.0625-4.90625zm.53125 2h4v1 1h1 1v10h-8v-10h1 1v-1z"/><path d="m4.999998 9v2h6v-2z"/><path d="m4.999998 11v2h6v-2z"/><path d="m4.999998 5v2h6v-2z"/><path d="m6.999998 3v2h2v-2z"/></g></svg>