<svg height="16" width="16" xmlns="http://www.w3.org/2000/svg"><g fill="#bebebe"><path d="m5.46875 0c-.490327 0-.796069.22846-1.03125.46875s-.4375.52725-.4375 1v.53125h-1-1v1 12 1h1 7v-2h-2-4v-10h1 1v-1-1h4v1 1h1 1v3h2v-4-1h-1-1v-.375-.03125-.03125c-.02393-.4306-.170232-.72105-.40625-1-.223737-.26444-.626697-.52931-1.15625-.53125v-.03125h-.0625z"/><path d="m13.029297 7.986328a1.0001 1.0001 0 0 0 -.154297.013672 1.0001 1.0001 0 0 0 -.59375.28125l-3 3a1.0001 1.0001 0 0 0 -.28125.931641v.787109h1 2.115234l-.929687 1.394531a1.016466 1.016466 0 0 0 -.185547.785157v.820312h.824219a1.016466 1.016466 0 0 0 .894531-.28125l3-3a1.0001 1.0001 0 0 0 .28125-.931641v-.787109h-1-2.115234l.90039-1.349609.0039-.0039a1.0001 1.0001 0 0 0 .210944-.927741v-.71875h-.808594a1.0001 1.0001 0 0 0 -.162109-.01367z"/><path d="m5 7v2h5.132812l.867188-.8574219v-1.1425781z"/><path d="m5 9v2h3.2304688c.091898-.162405.2027774-.318158.3476562-.460938l1.554687-1.539062z"/><path d="m5 11v2h2.989867v-.558594c-.100603-.513755-.024773-1.009973.240266-1.441406z"/></g></svg>