<svg height="16" width="16" xmlns="http://www.w3.org/2000/svg"><path d="m5.46875 0c-.490327 0-.796069.22846-1.03125.46875s-.4375.52725-.4375 1v.53125h-1-1v1 12 1h1 5v-2h-4v-10h1 1v-1-1h4v1 1h1 1v6h2v-7-1h-1-1v-.375-.03125-.03125c-.02393-.4306-.170232-.72105-.40625-1-.223737-.26444-.626697-.52931-1.15625-.53125v-.03125h-.0625z" fill="#bebebe"/><path d="m9 11h1.375l1.125 1.09375 1.09375-1.09375h1.40625v1.46875l-1.09375 1.0625 1.09375 1.0625v1.40625h-1.4375l-1.0625-1.0625-1.0625 1.0625h-1.4375v-1.40625l1.0625-1.0625-1.0625-1.0625z" fill="#ef2929"/></svg>