<svg height="16" width="16" xmlns="http://www.w3.org/2000/svg"><g fill="#bebebe"><path d="m11.5625 4-.09375.013672c-.481127.0352699-.85284.301024-1.0625.548828-.236007.278936-.38232.56942-.40625 1v.4375h-2v10h4.121094v-1.128906h-1.265625v-1.580078c.000165-.09785.01259-.197155.03711-.291016.02845-.108898.07456-.210292.158203-.291016l2.273438-2.277343c.100548-.09814.231332-.159397.371093-.173829.06007.000008.06952-.0011.19336 0h1.599609v1.867188h.511718v-6.125h-2v-.4375c-.02393-.43058-.170243-.721064-.40625-1-.20966-.247804-.581373-.5135561-1.0625-.5488281l-.15625-.0136719zm-.5625 1h2v2h2v3h-6v-3h2zm5 9.849609-1.152344 1.150391h1.152344z" stroke-width=".999952"/><path d="m14.132955 11.000006a.6228093.6228093 0 0 0 -.09468.0071.6228093.6228093 0 0 0 -.370234.175225l-1.86813 1.868134a.6228093.6228093 0 0 0 -.175227.582201v.488936h.623183 1.315603l-.592091.887434-.0043.0071a.63300119.63300119 0 0 0 -.09609.467741v.505892h.508719a.63300119.63300119 0 0 0 .561005-.175225l1.868132-1.868132a.6228093.6228093 0 0 0 .175289-.58226v-.48891h-.623237-1.315605l.561004-.842215a.6228093.6228093 0 0 0 .0028-.0028.6228093.6228093 0 0 0 .130006-.573724v-.449365h-.507285a.6228093.6228093 0 0 0 -.09892-.0071z" stroke-width=".622747"/><path d="m1.0000029-.0000002c-1.00915999.005-.99999999.9999999-.99999999.9999999v11.0000003c0 1 .99999999 1 .99999999 1h4.0000004c1 0 1-1 1-1v-8.0000002c.0009-.554-.446-1-1-1h-3v-2.0000001s-.009-.9944699-1.0000004-.9999999zm0 4h4.0000004v3.03125l-4.0000004-.0312zm0 4h1.0000004v1.0000004h1v-1.0000004h1v1.0000004h1v.9999996h-1v1.0000002h1v1h-1v-1h-1v1h-1v-1h-1.0000004v-1.0000002h1.0000004v-.9999996h-1.0000004zm1.0000004 2v1.0000002h1v-1.0000002zm1 0h1v-.9999996h-1z"/></g></svg>