<svg height="16" width="16" xmlns="http://www.w3.org/2000/svg"><path d="m11.46875 4.0136721c-.481127.035272-.85284.3010236-1.0625.548828-.236007.278936-.38232.56942-.40625 1v.4375h-2v9.9999999h8v-9.9999999h-1.99925v-.4375c-.02393-.43058-.170243-.7210639-.40625-1-.20966-.2478044-.581373-.5135557-1.0625-.548828l-.15625-.013672-.81325-.0000001zm-.4685.9863279h2v2h2v8h-6v-8h2z" fill="#ef2929" opacity=".2" stroke-width=".999952"/><path d="m.75 0c-.4155 0-.75.3345-.75.75v10.5c0 .4155.3345.75.75.75h6.25v-2.25h-1v-1.5h1v-.75h-1v-1.5h1v-.75h-1v-1.5h1.5v1.25h1.5v-4.25c0-.4155-.3345-.75-.75-.75zm.75 1.5h1.5v1.5h-1.5zm4.5 0h1.5v1.5h-1.5zm-2.25.75h1.5v1.5h-1.5zm-2.25 1.5h1.5v4.5h-1.5zm2.25.75h1.5v1.5h-1.5zm0 2.25h1.5v1.5h-1.5zm-2.25 2.25h1.5v2.25h-1.5zm2.25 0h1.5v1.5h-1.5z" fill="#bebebe" stroke-width=".75"/></svg>