<svg height="16" width="16" xmlns="http://www.w3.org/2000/svg"><g fill="#bebebe"><path d="m11.5625 4-.09375.013672c-.481127.0352718-.85284.3010236-1.0625.548828-.236007.278936-.38232.56942-.40625 1v.4375h-2v10h4.121094v-1h-3.121094v-8h2v-2h2v2h2v3.257812h.488281v1.867188h.511719v-6.125h-2v-.4375c-.02393-.43058-.170243-.7210639-.40625-1-.20966-.2478044-.581373-.5135558-1.0625-.5488281l-.15625-.0136719zm4.4375 10.849609-1.152344 1.150391h1.152344z" stroke-width=".999952"/><path d="m.75 0c-.4155 0-.75.3345-.75.75v10.5c0 .4155.3345.75.75.75h6.25v-2.25h-1v-1.5h1v-.75h-1v-1.5h1v-.75h-1v-1.5h1.5v1.25h1.5v-4.25c0-.4155-.3345-.75-.75-.75zm.75 1.5h1.5v1.5h-1.5zm4.5 0h1.5v1.5h-1.5zm-2.25.75h1.5v1.5h-1.5zm-2.25 1.5h1.5v4.5h-1.5zm2.25.75h1.5v1.5h-1.5zm0 2.25h1.5v1.5h-1.5zm-2.25 2.25h1.5v2.25h-1.5zm2.25 0h1.5v1.5h-1.5z" stroke-width=".75"/><path d="m14.132955 11.000021a.6228093.6228093 0 0 0 -.09468.0071.6228093.6228093 0 0 0 -.370234.175225l-1.868131 1.868134a.6228093.6228093 0 0 0 -.175227.582201v.488936h.623183 1.315604l-.592092.887434-.0043.0071a.63300119.63300119 0 0 0 -.09609.467741v.505892h.508719a.63300119.63300119 0 0 0 .561006-.175225l1.868131-1.868132a.6228093.6228093 0 0 0 .175289-.58226v-.48891h-.623235-1.315606l.561005-.842215a.6228093.6228093 0 0 0 .0028-.0028.6228093.6228093 0 0 0 .130005-.573724v-.449365h-.507285a.6228093.6228093 0 0 0 -.09892-.0071z" stroke-width=".622747"/></g><path d="m9 11.980469v3.019531h3.121094v-.128906h-1.265625v-1.580078c.000165-.09785.01259-.197155.03711-.291016.02845-.108898.07456-.210292.158203-.291016l.70703-.708984z" fill="#f57900" stroke-width=".999952"/></svg>