<svg height="16" width="16" xmlns="http://www.w3.org/2000/svg"><g fill="#bebebe"><path d="m10.000006 12.999995a1.9999997 1.9999997 0 1 1 -3.9999995 0 1.9999998 1.9999998 0 1 1 3.9999995 0z" stroke-width="2"/><path d="m7.99999 2.0002c-2.81422 0-5.17173 1-7 2.58557v1.41443h1.48072c1.51928-1.26466 3.21936-2 5.51928-2s4 .77953 5.51928 2h1.48072v-1.38128c-1.64044-1.46575-4.18578-2.61872-7-2.61872z" opacity=".35"/><path d="m7.99999 5.0002c-2.16664 0-4.01982.73878-5 2v1h2c.78878-.60652 1.75887-1 3-1s2.21938.39348 3 1h2v-1c-.99478-1.2229-2.8734-2-5-2z" opacity=".35"/><path d="m7.99999 8.0002c-1.25733 0-2.21571.31165-3 1v1h3 .375 2.625v-1c-.8369-.67206-1.74267-1-3-1z"/><path d="m13.083333 10.583335c-.685291 0-1.25.564708-1.25 1.25v1.249999h-.416665c-.230834 0-.416668.185833-.416668.416667v.221354 2.278645h2.083333.833334 2.083333v-2.278645-.221354c0-.230834-.185835-.416667-.416667-.416667h-.416666v-1.249999c0-.685292-.564708-1.25-1.25-1.25zm0 .833333h.833334c.238041 0 .416665.178626.416665.416667v1.249999h-1.666665v-1.249999c0-.238041.178624-.416667.416666-.416667z" stroke-width=".416667"/><path d="m.5 10.5a.50005.50005 0 0 0 -.390625.8125l1.890625 2.363281v2.324219h1v-2.324219l1.890625-2.363281a.50005.50005 0 0 0 -.390625-.8125zm1.0410156 1h1.9179688l-.9589844 1.199219z" fill-rule="evenodd"/></g></svg>