<svg height="16.009432" viewBox="0 0 16.021761 16.009432" width="16.021761" xmlns="http://www.w3.org/2000/svg"><g fill="#bebebe" stroke-dashoffset="2078.74" stroke-linecap="round" stroke-linejoin="round" stroke-miterlimit="0"><path d="m8 .00976563c-4.4123291 0-8 3.58767087-8 7.99999997 0 2.2061654.89724828 4.2058424 2.3457031 5.6542964l.7050781-.701171c-1.2671589-1.266164-2.0507812-3.0161846-2.0507812-4.9531254 0-3.871891 3.128109-7 7-7 1.9379365 0 3.688763.7844262 4.955078 2.0527344l.705078-.7011719c-1.448917-1.4518964-3.451017-2.35156248-5.660156-2.35156247zm-.0996094 3.44335937c-.8862976 0-1.5955589.273219-2.1289062.8183594-.5333472.5451406-.8007813 1.2678905-.8007813 2.1699218 0 .921641.2538545 1.6482655.7636719 2.1816407.2842916.2929878.6270358.5017551 1.0234375.6328125l.796875-.796875c-.3736767-.0640295-.6834084-.235805-.9257813-.5175782-.3098123-.3647344-.4648437-.8646559-.4648437-1.5 0-.631422.1550314-1.129406.4648437-1.4941406.3137337-.3686563.7381375-.5527344 1.2714844-.5527344.5333476 0 .9538601.1840781 1.2636719.5527344.3040955.3535296.459402.8334226.46875 1.4375l.9882815-.9902344c-.110927-.2857137-.242117-.5455505-.398438-.7714843-.5333463-.7804531-1.3065529-1.1699219-2.3222654-1.1699219z" opacity=".35"/><path d="m13.660156 2.3613281-.705078.7011719c1.263714 1.2657023 2.044922 3.013311 2.044922 4.9472656 0 3.8718904-3.128109 7.0000004-7 7.0000004-1.9349501 0-3.6833621-.782014-4.9492188-2.046875l-.7050781.701171c1.4484549 1.448456 3.4481324 2.345704 5.6542969 2.345704 4.41233 0 8-3.58767 8-8.0000004 0-2.20319-.894827-4.2004509-2.339844-5.6484375zm-3.039062 3.0332031-.9882815.9902344c.0002963.0191461.0019531.0372428.0019531.0566406 0 .6353441-.1569694 1.1352656-.4707031 1.5-.3098118.3647346-.7303243.546875-1.2636719.546875-.1213135 0-.2356828-.0104449-.3457031-.0292968l-.796875.796875c.3199289.105774.6740691.1621094 1.0664063.1621094.42354-.0000001.8091739-.0891251 1.1582031-.2695313.3490285-.1804063.6377777-.4400626.8652343-.7773437-.0588246 1.0745939-.2971934 1.8767952-.7128906 2.4062502-.4117757.52553-1.0086347.787109-1.7929687.787109-.2941254 0-.5945008-.036812-.9003907-.111328-.3058904-.074516-.6082029-.181078-.90625-.322266v1.082032c.3294205.117656.647235.204845.953125.263671.3058903.058829.6082028.089844.90625.089844 1.1098327 0 1.9915648-.412734 2.6464848-1.236328.65884-.827515.988281-1.933937.988281-3.3183592 0-1.0511408-.137878-1.9209075-.408203-2.6171876z"/></g></svg>