<?xml version="1.0" encoding="UTF-8" standalone="no"?>
<svg
   height="16.009432"
   viewBox="0 0 16.021761 16.009432"
   width="16.021761"
   version="1.1"
   id="svg6"
   sodipodi:docname="kbd-compose-mixed.svg"
   inkscape:version="1.2.2 (b0a8486541, 2022-12-01)"
   xmlns:inkscape="http://www.inkscape.org/namespaces/inkscape"
   xmlns:sodipodi="http://sodipodi.sourceforge.net/DTD/sodipodi-0.dtd"
   xmlns="http://www.w3.org/2000/svg"
   xmlns:svg="http://www.w3.org/2000/svg">
  <defs
     id="defs10" />
  <sodipodi:namedview
     id="namedview8"
     pagecolor="#505050"
     bordercolor="#eeeeee"
     borderopacity="1"
     inkscape:showpageshadow="0"
     inkscape:pageopacity="0"
     inkscape:pagecheckerboard="0"
     inkscape:deskcolor="#505050"
     showgrid="false"
     inkscape:zoom="32"
     inkscape:cx="14.875"
     inkscape:cy="10.046875"
     inkscape:window-width="1920"
     inkscape:window-height="1138"
     inkscape:window-x="1920"
     inkscape:window-y="38"
     inkscape:window-maximized="1"
     inkscape:current-layer="svg6" />
  <path
     id="circle2"
     style="color:#000000;fill:#bebebe;stroke-linecap:round;stroke-linejoin:round;stroke-miterlimit:0;stroke-dashoffset:2078.74;-inkscape-stroke:none;opacity:0.35"
     d="M 13.648438 2.3515625 C 12.200373 0.90598445 10.203677 0.00976562 8 0.009765625 C 3.5876665 0.009765625 0 3.5974321 0 8.0097656 C 0 10.213443 0.89621882 12.210138 2.3417969 13.658203 L 4 12 L 2.8164062 12 L 2.8164062 4 L 6.0039062 4 C 4.7886256 4.9132864 4 6.367401 4 8 C 4 9.1229022 4.379441 10.156056 5.0078125 10.992188 L 5.7167969 10.283203 C 5.2667066 9.6365043 5 8.8510065 5 8 C 5 5.9543164 6.5223791 4.2779813 8.5 4.0332031 L 8.5 7.5 L 9.5 6.5 L 9.5 4.0332031 C 10.158339 4.1146884 10.763178 4.3591644 11.28125 4.71875 L 11.994141 4.0058594 C 11.15816 3.3774008 10.123193 3 9 3 L 3.109375 3 C 4.3703986 1.7688709 6.0944236 1.0097656 8 1.0097656 C 9.9334405 1.0097656 11.679689 1.791568 12.945312 3.0546875 L 13.648438 2.3515625 z M 1.8164062 4.7226562 L 1.8164062 11.296875 C 1.2956383 10.317312 1 9.1985805 1 8.0097656 C 1 6.8209507 1.2956383 5.702219 1.8164062 4.7226562 z " />
  <path
     id="path1004"
     style="color:#000000;fill:#bebebe;stroke-linecap:round;stroke-linejoin:round;stroke-miterlimit:0;stroke-dashoffset:2078.74;-inkscape-stroke:none;opacity:1"
     d="M 13.648438 2.3515625 L 12.945312 3.0546875 C 14.214218 4.3210827 15 6.0713111 15 8.0097656 C 15 11.88166 11.871895 15.009766 8 15.009766 C 6.0844692 15.009766 4.3525698 14.242525 3.0898438 13 L 9 13 C 11.755493 13 14 10.755493 14 8 C 14 6.3677 13.209044 4.9191777 11.994141 4.0058594 L 11.28125 4.71875 C 12.319443 5.4393432 13 6.6353133 13 8 C 13 10.045684 11.477621 11.722019 9.5 11.966797 L 9.5 6.5 L 8.5 7.5 L 8.5 11.966797 C 7.3450713 11.823847 6.3486519 11.191065 5.7167969 10.283203 L 5.0078125 10.992188 C 5.2930368 11.371716 5.624496 11.714872 6.0039062 12 L 4 12 L 2.3417969 13.658203 C 3.7906411 15.10954 5.7913438 16.009766 8 16.009766 C 12.412334 16.009766 16 12.4221 16 8.0097656 C 16 5.8011094 15.099774 3.8004067 13.648438 2.3515625 z " />
</svg>
