<svg height="16.009432" viewBox="0 0 16.021761 16.009432" width="16.021761" xmlns="http://www.w3.org/2000/svg"><g fill="#bebebe" stroke-dashoffset="2078.74" stroke-linecap="round" stroke-linejoin="round" stroke-miterlimit="0"><path d="m13.660156 2.3613281-.705078.7011719c1.263714 1.2657023 2.044922 3.013311 2.044922 4.9472656 0 3.8718904-3.128109 7.0000004-7 7.0000004-1.9349501 0-3.6833621-.782014-4.9492188-2.046875l-.7050781.701171c1.4484549 1.448456 3.4481324 2.345704 5.6542969 2.345704 4.41233 0 8-3.58767 8-8.0000004 0-2.20319-.894827-4.2004509-2.339844-5.6484375zm-3.8925779 3.8867188-.8417969.8417969.7109376 1.9199218h-2.6308594l-1 1.0000004h4.0058596l.808593 2.277343h1.25zm-3.7617187 3.7617191-1.9492188 1.947265-.1269531.330078h1.2675781z"/><path d="m8 .00976563c-4.4123291 0-8 3.58767087-8 7.99999997 0 2.2061654.89724828 4.2058424 2.3457031 5.6542964l.7050781-.701171c-1.2671589-1.266164-2.0507812-3.0161846-2.0507812-4.9531254 0-3.871891 3.128109-7 7-7 1.9379365 0 3.688763.7844262 4.955078 2.0527344l.705078-.7011719c-1.448917-1.4518964-3.451017-2.35156248-5.660156-2.35156247zm-.6777344 3.39453127-3.265625 8.5527341 1.9492188-1.947265 1-1.0000004h-.6367188l1.6308594-4.421875.9257812 2.5019532.8417969-.8417969-1.0839843-2.84375z" opacity=".35"/></g></svg>