<svg height="16.009432" viewBox="0 0 16.021761 16.009432" width="16.021761" xmlns="http://www.w3.org/2000/svg"><path d="m8 .00976563c-4.4123379 0-8 3.58766207-8 7.99999997 0 4.4123384 3.5876621 8.0000004 8 8.0000004 4.412338 0 8-3.587662 8-8.0000004 0-4.4123379-3.587662-7.99999998-8-7.99999997zm0 .99999997c3.871899 0 7 3.1281012 7 7 0 3.8718984-3.128101 7.0000004-7 7.0000004-1.9155327 0-3.6474289-.76724-4.9101562-2.009766h5.9101562c2.755496 0 5-2.244504 5-5 0-2.7554959-2.244504-5-5-5h-5.890625c1.2610249-1.2311303 2.9850467-1.9902344 4.890625-1.9902344zm-5.1835938 2.9902344h3.1875c-1.2152819.9132873-2.0039062 2.3673994-2.0039062 4 0 1.6326008.7886243 3.086713 2.0039062 4h-3.1875zm5.6835938.0332031v7.9335939c-1.9776229-.244778-3.5-1.921111-3.5-3.966797 0-2.0456856 1.5223771-3.7220185 3.5-3.9667969zm1 0c1.977623.2447784 3.5 1.9211113 3.5 3.9667969 0 2.045686-1.522377 3.722019-3.5 3.966797zm-7.6835938.6894531v6.5742188c-.5207685-.979564-.8164062-2.0982933-.8164062-3.2871094s.2956377-2.3075457.8164062-3.2871094z" fill="#bebebe" stroke-dashoffset="2078.74" stroke-linecap="round" stroke-linejoin="round" stroke-miterlimit="0"/></svg>