<svg height="16.009432" viewBox="0 0 16.021761 16.009432" width="16.021761" xmlns="http://www.w3.org/2000/svg"><circle cx="7.999985" cy="8.009448" r="7.499984" style="fill:none;stroke:#bebebe;stroke-linecap:round;stroke-linejoin:round;stroke-miterlimit:0;stroke-dashoffset:2078.737305;opacity:.35"/><path d="m-36.128098-.41525486v-1.78148024q.73579.3485505 1.490944.5325076.755152.1839572 1.481261.1839572 1.93629 0 2.952843-1.2973823 1.026234-1.3070643 1.171455-3.9599207-.561524.8326483-1.423173 1.2780184-.86165.44537-1.907246.44537-2.168646 0-3.436915-1.3070643-1.258589-1.3167462-1.258589-3.5920063 0-2.2268505 1.316677-3.5726425 1.316678-1.345791 3.504686-1.345791 2.507495 0 3.824172 1.926709 1.32636 1.917027 1.32636 5.5768072 0 3.4177312-1.626484 5.4606242-1.616802 2.03321115-4.356652 2.03321115-.735791 0-1.490944-.14522935-.755153-.14522935-1.568395-.43568806zm3.891943-6.12867934q1.316678 0 2.081512-.900422.774516-.9004221.774516-2.4688993 0-1.5587955-.774516-2.4592175-.764834-.910104-2.081512-.910104-1.316677 0-2.091193.910104-.764836.900422-.764836 2.4592175 0 1.5684772.764836 2.4688993.774516.900422 2.091193.900422z" fill="#bebebe" opacity=".35" transform="matrix(.60760767 0 0 .60760767 27.486932 12.464774)"/></svg>