<svg height="16.009432" viewBox="0 0 16.021761 16.009432" width="16.021761" xmlns="http://www.w3.org/2000/svg"><g fill="#bebebe" stroke-dashoffset="2078.74" stroke-linecap="round" stroke-linejoin="round" stroke-miterlimit="0"><path d="m8 .00976563c-4.4123291 0-8 3.58767087-8 7.99999997 0 2.2061654.89724828 4.2058424 2.3457031 5.6542964l.7050781-.701171c-1.267157-1.266164-2.0507812-3.0161862-2.0507812-4.9531254 0-3.871891 3.128109-7 7-7 1.9384527 0 3.688684.7857833 4.955078 2.0546875l.705078-.703125c-1.448917-1.4518964-3.451017-2.35156248-5.660156-2.35156247zm0 2.99999997-2.5 3h1.5v3.0058594l2-2v-1.0058594h1.007812l.267579-.2695312zm-2.5 7.0000004.2285156.27539.2753906-.27539z" opacity=".35"/><path d="m13.660156 2.3613281-.705078.703125c1.263119 1.2656221 2.044922 3.0118741 2.044922 4.9453125 0 3.8718904-3.128109 7.0000004-7 7.0000004-1.9349517 0-3.6833619-.782012-4.9492188-2.046875l-.7050781.701171c1.4484549 1.448456 3.4481324 2.345704 5.6542969 2.345704 4.41233 0 8-3.58767 8-8.0000004 0-2.20319-.894827-4.2004509-2.339844-5.6484375zm-3.384765 3.3789063-.267579.2695312h.492188zm-1.275391 1.2753906-2 2v.994141h-.9960938l-.2753906.27539 2.2714844 2.72461 2.5-3h-1.5z"/></g></svg>