<svg height="16.009432" viewBox="0 0 16.021761 16.009432" width="16.021761" xmlns="http://www.w3.org/2000/svg"><g fill="#bebebe" stroke-dashoffset="2078.74" stroke-linecap="round" stroke-linejoin="round" stroke-miterlimit="0"><path d="m13.648438 2.3515625c-1.448065-1.44557805-3.444761-2.34179688-5.648438-2.34179687-4.4123335 0-8 3.58766647-8 7.99999997 0 2.2036774.89621882 4.2003724 2.3417969 5.6484374l1.6582031-1.658203h-1.1835938v-8h3.1875c-1.2152806.9132864-2.0039062 2.367401-2.0039062 4 0 1.1229022.379441 2.156056 1.0078125 2.992188l.7089844-.708985c-.4500903-.6466987-.7167969-1.4321965-.7167969-2.283203 0-2.0456836 1.5223791-3.7220187 3.5-3.9667969v3.4667969l1-1v-2.4667969c.658339.0814853 1.263178.3259613 1.78125.6855469l.712891-.7128906c-.835981-.6284586-1.870948-1.0058594-2.994141-1.0058594h-5.890625c1.2610236-1.2311291 2.9850486-1.9902344 4.890625-1.9902344 1.9334405 0 3.679689.7818024 4.945312 2.0449219zm-11.8320318 2.3710937v6.5742188c-.5207679-.979563-.8164062-2.0982945-.8164062-3.2871094s.2956383-2.3075466.8164062-3.2871094z" opacity=".35"/><path d="m13.648438 2.3515625-.703126.703125c1.268906 1.2663952 2.054688 3.0166236 2.054688 4.9550781 0 3.8718944-3.128105 7.0000004-7 7.0000004-1.9155308 0-3.6474302-.767241-4.9101562-2.009766h5.9101562c2.755493 0 5-2.244507 5-5 0-1.6323-.790956-3.0808223-2.005859-3.9941406l-.712891.7128906c1.038193.7205932 1.71875 1.9165633 1.71875 3.28125 0 2.045684-1.522379 3.722019-3.5 3.966797v-5.466797l-1 1v4.466797c-1.1549287-.14295-2.1513481-.775732-2.7832031-1.683594l-.7089844.708985c.2852243.379528.6166835.722684.9960937 1.007812h-2.0039062l-1.6582031 1.658203c1.4488442 1.451337 3.4495469 2.351563 5.6582031 2.351563 4.412334 0 8-3.587666 8-8.0000004 0-2.2086562-.900226-4.2093589-2.351562-5.6582031z"/></g></svg>