<svg height="16" width="16" xmlns="http://www.w3.org/2000/svg"><path d="m408.0002 158c-1.6447 0-3 1.3553-3 3v3h-1c-.554 0-1 .446-1 1v.53125 5.46875h5 1.25977c-.16761-.46988-.25977-.97456-.25977-1.5 0-2.47429 2.02571-4.5 4.5-4.5.52544 0 1.03012.09216 1.5.25977v-.25977c0-.554-.446-1-1-1h-1v-3c0-1.6447-1.3553-3-3-3zm0 2h2c.5713 0 1 .4287 1 1v3h-4v-3c0-.5713.4287-1 1-1z" fill="#bebebe" transform="translate(-401.0002 -157)"/><path d="m12.500001 9c-1.935275 0-3.5 1.56472-3.5 3.5 0 1.935275 1.564725 3.5 3.5 3.5 1.935274 0 3.499999-1.564725 3.499999-3.5 0-1.93528-1.564725-3.5-3.499999-3.5zm-2 3h3.999999v1h-3.999999z" fill="#ef2929" stroke-width=".5"/></svg>