<svg height="16" width="16" xmlns="http://www.w3.org/2000/svg"><path d="m408.0002 158c-1.6447 0-3 1.3553-3 3v3h-1c-.554 0-1 .446-1 1v.53125 5.46875h5 .45898l2.94141-5.45703.00781-.01563c.32066-.55069.94511-1.01615 1.63672-.97851.67548.0368 1.20453.45879 1.53125.98828l.01367.02148.41016.75v-.77734-.53125c0-.554-.446-1-1-1h-1v-3c0-1.6447-1.3553-3-3-3zm0 2h2c.5713 0 1 .4287 1 1v3h-4v-3c0-.5713.4287-1 1-1z" fill="#bebebe" transform="translate(-401.0002 -157)"/><path d="m11.991072 8.5469002c-.26275-.0143-.519114.1415246-.718748.4843734l-3.1249893 5.7968554c-.2667341.481693.02411 1.171871.5468732 1.171871h6.5781031c.490858 0 .951551-.579693.609373-1.171871l-3.15624-5.7656055c-.199359-.3230839-.471623-.5013083-.734372-.5156233zm.03125 1.9687438c.272239-.0086.524243.243384.515623.515623v1.968743c.0035.264154-.235814.499998-.499998.499998-.26418 0-.503734-.235844-.499999-.499998v-1.968743c-.004-.233299.17705-.456264.406249-.499998.02555-.0073.05172-.01245.07813-.0156zm.01563 3.484363c.276139 0 .499998.223859.499998.499998s-.223859.499998-.499998.499998-.499999-.223859-.499999-.499998.22386-.499998.499999-.499998z" fill="#f57900" stroke-width=".499998"/></svg>