<svg height="16" width="16" xmlns="http://www.w3.org/2000/svg"><path d="m408.0002 158c-1.6447 0-3 1.3553-3 3v3h-1c-.554 0-1 .446-1 1v.53125 5.46875h5 1.27344l-.71289-.71289c-.69462-.69458-.69462-1.84448 0-2.53906l3.1875-3.1875c.34973-.34973.80439-.52735 1.26953-.52735.46515 0 .9198.17764 1.26953.52735l.71289.71289v-.27344c0-.554-.446-1-1-1h-1v-3c0-1.6447-1.3553-3-3-3zm0 2h2c.5713 0 1 .4287 1 1v3h-4v-3c0-.5713.4287-1 1-1z" fill="#bebebe" transform="translate(-401.0002 -157)"/><path d="m12.017751 8.0333792c-.20009 0-.407671.07955-.562501.234375l-3.1875051 3.1875048c-.30966.309646-.30966.815356 0 1.125002l3.1875051 3.187505c.309656.309645.815341.309645 1.125002 0l3.187505-3.187505c.30966-.309646.309655-.815356 0-1.125002l-3.187505-3.1875048c-.15483-.15482-.362411-.234375-.562501-.234375zm-.09375 1.484377c.821216-.046 1.547752.5850408 1.593752 1.4062518-.00005.700682-.188855.960887-.796876 1.421878-.09546.07182-.1628.1253-.1875.15625-.0247.03105-.01563.01663-.01563.01563.0035.264155-.235816.5-.500001.5s-.503501-.235845-.500001-.5c0-.251196.11212-.471711.234376-.625001.122255-.153315.24565-.25819.359375-.343751.102025-.08028.230415-.19227.343751-.328125.04675-.05605.0645-.15383.0625-.21875v-.01565c-.0158-.281621-.249631-.484551-.531251-.468751-.281621.0158-.484551.21838-.468751.500001h-1.000001c-.046-.821217.585036-1.4539528 1.406252-1.5000028zm.09375 4.0000058c.27614 0 .500001.223861.500001.500001s-.223861.500001-.500001.500001-.500001-.223861-.500001-.500001.223861-.500001.500001-.500001z" fill="#f57900" stroke-width=".500001"/></svg>