<svg height="16" width="16" xmlns="http://www.w3.org/2000/svg"><path d="m408.0002 158c-1.6447 0-3 1.3553-3 3v3h-1c-.554 0-1 .446-1 1v.53125 5.46875h5 1.25977c-.1676-.46964-.25977-.97508-.25977-1.5 0-2.47265 2.02735-4.5 4.5-4.5.52492 0 1.03036.09217 1.5.25977v-.25977c0-.554-.446-1-1-1h-1v-3c0-1.6447-1.3553-3-3-3zm0 2h2c.5713 0 1 .4287 1 1v3h-4v-3c0-.5713.4287-1 1-1z" fill="#bebebe" transform="translate(-401.0002 -157)"/><path d="m12.5 9c-1.930916 0-3.5 1.569081-3.5 3.5 0 1.930913 1.569084 3.5 3.5 3.5 1.930914 0 3.5-1.569087 3.5-3.5 0-1.930919-1.569086-3.5-3.5-3.5zm-1.703125 1.296875a.5.5 0 0 1 .353516.146484l1.55664 1.556641h1.792969a.5.5 0 0 1 .5.5.5.5 0 0 1 -.5.5h-2a.50005.50005 0 0 1 -.353516-.146484l-1.703125-1.703125a.5.5 0 0 1 0-.707032.5.5 0 0 1 .353516-.146484z" fill="#f57900" stroke-width=".467502"/></svg>