<svg height="16" width="16" xmlns="http://www.w3.org/2000/svg"><g fill="#bebebe"><path d="m3.0800781 3.7050781a1.0000999 1.0000318 0 0 0 -.2988281.0136719 1.0000999 1.0000318 0 0 0 -.40625 1.78125l5 4 .2070312.1660156c.8038121-1.510587 2.3605188-2.5674115 4.1601568-2.6601562h.001953l1.880859-1.5058594a1.0005298 1.0004615 0 0 0 -1.25-1.5625l-4.375 3.5-4.375-3.5a1.0000999 1.0000318 0 0 0 -.5449219-.2324219z"/><path d="m1.8125 3c-.4584095.0874999-.82073002.5334405-.8125 1v9c.00005.523539.4764105.99995 1 1h5.421875c-.270198-.613512-.421875-1.289664-.421875-2h-4v-7h10v2.1015625c.73801.151483 1.417871.4669331 2 .90625v-4.0078125c-.00005-.5235395-.476421-.99995-1-1h-12c-.0312-.00099-.06255-.00099-.09375 0-.0312-.00099-.06255-.00099-.09375 0z"/><path d="m12 8a4 4 0 0 0 -4 4 4 4 0 0 0 4 4 4 4 0 0 0 4-4 4 4 0 0 0 -4-4zm-1 1.0605469h2v3.9648441h-2zm0 4.9570311h2v.990234h-2z"/></g></svg>