<svg height="16" width="16" xmlns="http://www.w3.org/2000/svg"><g fill="#bebebe" transform="translate(-40.99995 -297)"><path d="m43.78125 301a1.0000999 1.0000999 0 0 0 -.40625 1.78125l5 4 .625.5.625-.5 5-4a1.0004882 1.0004882 0 1 0 -1.25-1.5625l-4.375 3.5-4.375-3.5a1.0000999 1.0000999 0 0 0 -.84375-.21875z"/><path d="m42.90625 300a1.0001 1.0001 0 0 0 -.90625 1v9a1.0001 1.0001 0 0 0 1 1h12a1.0001 1.0001 0 0 0 1-1v-9a1.0001 1.0001 0 0 0 -1-1h-12a1.0001 1.0001 0 0 0 -.09375 0zm1.09375 2h10v7h-10z"/></g></svg>