<svg height="16" width="16" xmlns="http://www.w3.org/2000/svg"><g fill="#bebebe"><path d="m5 0c-2.7495773 0-5 2.2504227-5 5 0 1.5862184.84459116 2.9033609 2 3.8125v5.875 1.28125l1.25-.3125 4-1.03125.75-.21875v-.75-.720703l-.2753906-.949219.2753906-1.029297v-2.144531c.2754997-.2167783.532705-.4574611.765625-.71875l1.1171875-4.1679688c-.4952065-2.2378636-2.5018137-3.9257812-4.8828125-3.9257812zm0 2c1.6686783 0 3 1.3313217 3 3 0 1.1158489-.5950709 2.0378805-1.5 2.5625l-.5.3125v.5625 4.4375l-2 .53125v-4.96875-.5625l-.5-.3125c-.9049291-.5246195-1.5-1.4466511-1.5-2.5625 0-1.6686783 1.3313217-3 3-3z"/><path d="m5 14.49794v-5.49794l1.99994-.56256.00006 5.56256z" opacity=".35"/><path d="m5 5a1 1 0 1 0 0-2 1 1 0 1 0 0 2z"/></g><g fill="#32a678" fill-rule="evenodd" stroke-width=".999927" transform="matrix(.86086328 -.49705254 .49701965 .86092025 -725.05898 -456.55805)"><path d="m403.66263 777.27842 5.84933-5.85075 2.99982 2.99981-5.82888 5.87306-4.02677 1.07184z"/><path d="m412.62129 768.66211c-.20052 0-.40103.0768-.55468.23047l-1.76953 1.76758 3.05273 3.05273 1.76953-1.76953c.3073-.3073.3073-.80208 0-1.10938l-1.94336-1.9414c-.15365-.15365-.35417-.23047-.55469-.23047z"/></g></svg>