<svg height="16" width="16" xmlns="http://www.w3.org/2000/svg"><g fill="#bebebe"><path d="m1.90625 3a1.0001 1.0001 0 0 0 -.90625 1v6.683594c.004595-.055458.0125169-.116873.0292969-.191406.0335699-.14907.0833818-.389286.3828125-.6347661.2994297-.2454795.8273394-.2611711 1.0800781-.1621094.2527387.0990618.3668615.214519.4746094.3222655l.09375.09375.3535156-.3535155c.02999-.029986.06136-.0577464.09375-.0839844.0648319-.0524505.1344413-.0973366.2070313-.1347656.1811838-.0937089.3827675-.140625.5839843-.140625s.4008475.0469164.5820313.140625c.0723559.0374288.1423503.0823143.2070312.1347656.03239.026238.0637601.0539974.09375.0839844.2048288.2048395.2767107.4804585.3066406.7539065.2734478.029929.5490675.101802.7539063.30664.1799188.17992.2930407.405336.3378906.642579v.001953c.00733.038927.011925.077777.015625.117187v.001953c.0037.039421.0058594.079541.0058594.119141 0 .321994-.1194862.644874-.359375.884766l-.3535156.353515.09375.09375c.1077459.107748.2232057.221871.3222656.474609.0470852.12013.067899.301808.0507813.492188h7.6445312a1.0001 1.0001 0 0 0 1-1v-9a1.0001 1.0001 0 0 0 -1-1h-12a1.0001 1.0001 0 0 0 -.09375 0zm1.1738281.9863281a1.0000999 1.0000999 0 0 1 .5449219.2324219l4.375 3.5 4.375-3.5a1.0004882 1.0004882 0 1 1 1.25 1.5625l-5 4-.625.5-.625-.5-5-4a1.0000999 1.0000999 0 0 1 .40625-1.78125 1.0000999 1.0000999 0 0 1 .2988281-.0136719z"/><path d="m2.031639 10.645163c-.02855.03844-.03729.111055-.03729.189206.000001.858355.0055 2.458301.0055 2.458301l-1.999786 1.999785.707107.707108 1.999786-1.999787s1.599946.0055 2.458301.0055c.178629-.000001.326129-.04952.110486-.265165l-.80102-.80102 1.06066-1.060659c.09763-.09763.09763-.255924 0-.353554s-.255923-.09763-.353553 0l-1.06066 1.06066-.707107-.707106 1.06066-1.060661c.09763-.09763.09763-.255923 0-.353553s-.255922-.09763-.353553 0l-1.060661 1.060661-.801019-.801019c-.121299-.121299-.191189-.128172-.227875-.07872z" fill-rule="evenodd"/></g></svg>