<svg height="16" width="16" xmlns="http://www.w3.org/2000/svg"><path d="m7.1054688-.00195313c-2.178519 0-3.9652603 1.78456953-3.984375 3.96679693-.00151.0116949-.0028063.0234152-.0039063.0351562v4.0996094h2v-4.0996094c.00114-.034516.0004816-.0690671-.0019531-.1035156.0527159-1.0658495.9136085-1.8945313 1.9902344-1.8945313 1.1113552 0 1.9921874.8826313 1.9921874 1.9980469-.0016399.0740659.0049103.1480865.0195313.2207031v2.1699219c.0376447-.0029595.0752433-.0058225.1132813-.0078125l1.2246092-4.5449219c-.7123753-1.10429915-1.9507907-1.83984373-3.3496092-1.83984373zm-6.0078126 3.97851563c-.0670238.0011163-.13376582.0089683-.1992187.0234375-.46562803.1042782-.79273607.5229765-.78125 1v3.0996094h.9882813 1.0117187v-3.0996094c.0133954-.569146-.4503382-1.0346563-1.0195313-1.0234375zm6.0351563.9980469c-.0771193-.0010935-.155024.0075872-.234375.0253906-.465628.1042782-.7927361.5229765-.78125 1v1.8203125c.568169-.534308 1.2332459-.9834158 2-1.2324219v-.5878906c.0137524-.5690997-.44454-1.0177365-.984375-1.0253906zm-4.0390625 10.3007816.2421875.318359c.1835812.248944.4720226.398933.78125.40625h2.5234375c-.2905026-.219835-.5606934-.464399-.8085938-.724609z" fill="#bebebe"/><path d="m8.7620039 11.975146 2.1275361-7.9444534 4.073399 1.0915291-2.098843 7.9534963-2.9337724 2.924285z" fill="#ef2929" fill-rule="evenodd" stroke-width=".994072"/><path d="m12.19171.10426565c-.17262.099669-.307061.26545166-.362956.4741214l-.644801 2.40129475 4.14525 1.1107899.643832-2.4029736c.111809-.417305-.134106-.84327113-.551383-.95508768l-2.637882-.70543855c-.208638-.05590827-.41944-.02237519-.59206.07729378z" fill="#ef2929" fill-rule="evenodd" stroke-width=".994072"/><g fill="#bebebe" stroke-width=".862449"><path d="m8.9492188 7.4101562c-1.1410524.1550836-2.0928819.8195524-2.7773438 1.6894532h-5.0664062-1.1054688l.26953125 1.0781246.88867185 3.451172.1894531.646485h.6464844 4.1777344c.6698569.851339 1.5962794 1.504773 2.7050781 1.677734l-.5683593-1.951172c-.4411754-.226065-.803649-.581708-1.0585938-1.021484l-.2695312-.429688h-.484375-3.828125l-.4570313-1.724609h4.2851563.484375l.2695312-.431641c.2795053-.4821419.6897448-.8618544 1.1894531-1.082031z"/><path d="m1.2684732 11.687679h4.7416128l.4851711 1.724877-4.7973433.000052z" opacity=".35"/></g></svg>