<svg height="16" width="16" xmlns="http://www.w3.org/2000/svg"><g fill="#bebebe"><path d="m12 8a4 4 0 0 0 -4 4 4 4 0 0 0 4 4 4 4 0 0 0 4-4 4 4 0 0 0 -4-4zm-1 1.060547h2v3.964844h-2zm0 4.957031h2v.990234h-2z"/><path d="m1.90625 3a1.0001 1.0001 0 0 0 -.90625 1v9a1.0001 1.0001 0 0 0 1 1h5.421875c-.270198-.613512-.421875-1.289664-.421875-2 0-.761846.1721821-1.484861.4804688-2.1328125l-.1054688-.0859375-5-4a1.0000999 1.0000999 0 0 1 .40625-1.78125 1.0000999 1.0000999 0 0 1 .2988281-.0136719 1.0000999 1.0000999 0 0 1 .5449219.2324219l4.375 3.5 4.375-3.5a1.0004882 1.0004882 0 1 1 1.25 1.5625l-1.525391 1.2207031c1.085041.021602 2.08801.3927781 2.900391 1.0058594v-4.0078125a1.0001 1.0001 0 0 0 -1-1h-12a1.0001 1.0001 0 0 0 -.09375 0z"/></g></svg>