<svg height="16" width="16" xmlns="http://www.w3.org/2000/svg"><g fill="#bebebe"><path d="m2.7813 4a1.0000999 1.0000999 0 0 0 -.40625 1.78125l5 4 .625.5.625-.5 5-4a1.0004882 1.0004882 0 1 0 -1.25-1.5625l-4.375 3.5-4.375-3.5a1.0000999 1.0000999 0 0 0 -.84375-.21875z"/><path d="m1.90625 3a1.0001 1.0001 0 0 0 -.90625 1v6.685547c.0045941-.055458.0125169-.118826.0292969-.193359.0335698-.149069.0833811-.389286.3828125-.6347661.2994294-.2454795.8273397-.2611711 1.0800781-.1621094.2527394.0990618.3668616.2145195.4746094.3222655l.0332031.033203v-5.050781h10v7h-6.4335938c-.0513811.216206-.1592365.420953-.3242187.585938l-.3535156.353515.09375.09375c.1077465.107748.2232038.221871.3222656.474609.0469564.119802.0676437.302373.0507813.492188h7.6445312a1.0001 1.0001 0 0 0 1-1v-9a1.0001 1.0001 0 0 0 -1-1h-12a1.0001 1.0001 0 0 0 -.09375 0z"/><path d="m2.031576 10.6456c-.02855.03844-.03729.111055-.03729.189206.000001.858355.0055 2.458301.0055 2.458301l-1.999786 1.999786.707107.707107 1.999786-1.999786s1.599946.0055 2.458301.0055c.178629-.000001.326129-.04952.110486-.265165l-.80102-.80102 1.06066-1.060659c.09763-.09763.09763-.255924 0-.353554s-.255923-.09763-.353553 0l-1.06066 1.06066-.707107-.707106 1.06066-1.060661c.09763-.09763.09763-.255923 0-.353553s-.255922-.09763-.353553 0l-1.060661 1.06066-.801019-.801019c-.121299-.121299-.191189-.128172-.227875-.07872z" fill-rule="evenodd"/></g></svg>