<svg height="16" width="16" xmlns="http://www.w3.org/2000/svg"><g fill="#bebebe" transform="matrix(-1 0 0 1 356.96881 -257)"><path d="m346 260c-2.74958 0-5 2.25042-5 5s2.25042 5 5 5c1.58622 0 2.90336-.84459 3.8125-2h4.84375.75l.21875-.75 1.03125-4 .3125-1.25h-1.28125-5.875c-.90914-1.15541-2.22628-2-3.8125-2zm0 2c1.11585 0 2.03788.59507 2.5625 1.5l.3125.5h.5625 4.96875l-.53125 2h-4.4375-.5625l-.3125.5c-.52462.90493-1.44665 1.5-2.5625 1.5-1.66868 0-3-1.33132-3-3s1.33132-3 3-3z"/><path d="m355.49794 265h-5.49794l-.56256 1.99994 5.56256.00006z" opacity=".35"/><path d="m346 265a1 1 0 1 1 -2 0 1 1 0 1 1 2 0z"/></g></svg>