<svg height="16" width="16" xmlns="http://www.w3.org/2000/svg"><g fill="#bebebe"><path d="m7.1054688 0c-2.1900194 0-3.9882813 1.8039348-3.9882813 4.0019531v4.0976563h.2148437 1.7851563v-4.0976563a.99998749.99998749 0 0 0 -.0019531-.0683593c.0353143-1.0826255.901938-1.9316407 1.9902344-1.9316407 1.1112325 0 1.9902343.8847077 1.9902343 2a.99816374 1.0018139 0 0 0 .0195313.1875v3.0078125c.5860867-.3962535 1.2531866-.6840635 1.9999996-.7832031v-2.4121094a.99998749.99998749 0 0 0 -.035156-.2851562c-.147198-2.0668208-1.8800008-3.7167969-3.9746092-3.7167969zm-6.0566407 3.9804688a.99998749.99998749 0 0 0 -.1503906.0214843.99998749.99998749 0 0 0 -.78125 1v5.4589849a.99998749.99998749 0 0 0 .21875 1.195312l2.3242187 3.050781-.2382812-.814453-.8925781-3.46875-.58203128-2.3242186h1.16992188v-3.0976563a.99998749.99998749 0 0 0 -1.0683594-1.0214843zm5.9980469 1a.99998749.99998749 0 0 0 -.1503906.0214843.99998749.99998749 0 0 0 -.7792969 1v2.0976563h1.9414063c.0180478-.0189507.0383661-.0358968.0566406-.0546875v-2.0429688a.99998749.99998749 0 0 0 -1.0683594-1.0214843zm-3.953125 10.2949222.2421875.318359a.99998749.99998749 0 0 0 .78125.40625h2.9980469a.99998749.99998749 0 0 0 .8125-.40625l.1933594-.257812c-.0202241-.02075-.0425527-.039602-.0625-.060547h-3.8359376z" stroke-width=".999888"/><g transform="matrix(-.86243444 0 0 .8624643 310.09014 -216.86536)"><path d="m346 260c-2.74958 0-5 2.25042-5 5s2.25042 5 5 5c1.58622 0 2.90336-.84459 3.8125-2h4.84375.75l.21875-.75 1.03125-4 .3125-1.25h-1.28125-5.875c-.90914-1.15541-2.22628-2-3.8125-2zm0 2c1.11585 0 2.03788.59507 2.5625 1.5l.3125.5h.5625 4.96875l-.53125 2h-4.4375-.5625l-.3125.5c-.52462.90493-1.44665 1.5-2.5625 1.5-1.66868 0-3-1.33132-3-3s1.33132-3 3-3z"/><path d="m355.49794 265h-5.49794l-.56256 1.99994 5.56256.00006z" opacity=".35"/><path d="m346 265a1 1 0 1 1 -2 0 1 1 0 1 1 2 0z"/></g></g></svg>