<svg height="16" width="16" xmlns="http://www.w3.org/2000/svg"><g fill="#bebebe"><path d="m12 8a4 4 0 0 0 -4 4 4 4 0 0 0 4 4 4 4 0 0 0 4-4 4 4 0 0 0 -4-4zm-1 1.060547h2v3.964844h-2zm0 4.957031h2v.990234h-2z"/><path d="m1.90625 3a1.0001 1.0001 0 0 0 -.90625 1v6.683594c.004594-.055458.0125169-.116873.0292969-.191406.0335698-.149069.0833811-.389286.3828125-.6347661.2994294-.2454795.8273397-.2611711 1.0800781-.1621094.2527394.0990618.3668616.214519.4746094.3222655l.09375.09375.3535156-.3535155c.029987-.029986.061359-.0577464.09375-.0839844.0648319-.0524505.1344463-.0973366.2070313-.1347656.1811843-.0937089.3827677-.140625.5839843-.140625.2012167 0 .4008465.0469164.5820313.140625.0723549.0374288.142347.0823143.2070312.1347656.03239.026238.0637601.0539974.09375.0839844.2048298.2048395.2767107.4804585.3066406.7539065.2734468.02993.5490665.101802.7539063.30664.1799188.17992.2930407.405336.3378906.642579v.001953c.00733.038927.011925.077777.015625.117187v.001953c.0037.039421.0058594.079541.0058594.119141 0 .321994-.1194872.644874-.359375.884766l-.3535156.353515.09375.09375c.1077469.107748.2232057.221871.3222656.474609.0470847.12013.067899.301808.0507813.492188h1.0664062c-.2701977-.613511-.421875-1.289665-.421875-2 0-.761845.1721824-1.484862.4804688-2.1328125l-.1054688-.0859375-5-4a1.0000999 1.0000999 0 0 1 .40625-1.78125 1.0000999 1.0000999 0 0 1 .2988281-.0136719 1.0000999 1.0000999 0 0 1 .5449219.2324219l4.375 3.5 4.375-3.5a1.0004882 1.0004882 0 1 1 1.25 1.5625l-1.525391 1.2207031c1.08504.021602 2.088011.3927787 2.900391 1.0058594v-4.0078125a1.0001 1.0001 0 0 0 -1-1h-12a1.0001 1.0001 0 0 0 -.09375 0z"/><path d="m2.0316345 10.645163c-.02855.03844-.03729.111055-.03729.189206.000001.858355.0055 2.458301.0055 2.458301l-1.999786 1.999786.707107.707107 1.999786-1.999787s1.599946.0055 2.4583015.0055c.178629 0 .326129-.04952.110485-.265165l-.8010195-.801019 1.0606595-1.06066c.09763-.09763.09763-.255924 0-.353553-.09763-.09763-.255923-.09763-.353552 0l-1.0606605 1.06066-.707107-.707106 1.06066-1.060661c.09763-.09763.09763-.255923 0-.353553s-.255922-.09763-.353553 0l-1.060661 1.06066-.801019-.801019c-.121299-.121299-.191189-.128172-.227875-.07872z" fill-rule="evenodd"/></g></svg>