<svg height="16" width="16" xmlns="http://www.w3.org/2000/svg"><g fill="#bebebe"><path d="m7.1054688-.00195313c-2.1785211 0-3.9652602 1.78456743-3.984375 3.96679693-.00151.011695-.00281.023415-.00391.035156v5.40625c.00105.013045.00235.026068.00391.039063-.00245.018172-.00441.036408-.00586.054687 0 1.368868 1.1330859 2.5 2.5019531 2.5s2.5-1.131132 2.5-2.5c-.00061-.00521-.00126-.010422-.00195-.015625.000692-.0052.00134-.010412.00195-.015625v-3.4687498c.015717-.6504003-.5839408-1.1424272-1.2187494-1-.4656285.1042783-.7927361.522976-.78125 1v3.46875c.00061.00521.00126.010422.00195.015625-.000692.0052-.00134.010412-.00195.015625 0 .2879894-.2120106.5-.5.5s-.5-.2120106-.5-.5c-.00155-.016322-.00351-.032602-.00586-.048828.00229-.014928.00425-.029906.00586-.044922v-5.40625c.00114-.034516.0004847-.069067-.00195-.1035156.052716-1.0658505.9136075-1.8945313 1.9902344-1.8945313 1.1113564 0 1.9921874.8826302 1.9921874 1.9980469-.00164.074066.00491.1480864.019531.2207031v2.5859375l1.3378905-4.96875c-.7123761-1.10430028-1.9507921-1.83984373-3.349612-1.83984373zm-6.0078126 3.97851563c-.0670239.0011163-.13376575.0089683-.1992187.0234375-.4656285.1042783-.79273608.522976-.78125 1v5.443359c-.21445859.40653-.12421557.906895.21875 1.212891l3 3.9375c.1835814.248944.4720223.398933.78125.40625h3c.3202582.0025.6223376-.148549.8125-.40625l.6054687-.808594-.7011718-2.414062-1.2167969 1.628906h-2.03125l-2.46875-3.244141v-5.755859c.0133954-.5691466-.4503377-1.0346563-1.0195313-1.0234375z"/><g fill-rule="evenodd" transform="matrix(.86086328 -.49705254 .49701965 .86092025 -725.05898 -456.55805)"><path d="m403.66263 777.27842 5.84933-5.85075 2.99982 2.99981-5.82888 5.87306-4.02677 1.07184z"/><path d="m412.62129 768.66211c-.20052 0-.40103.0768-.55468.23047l-1.76953 1.76758 3.05273 3.05273 1.76953-1.76953c.3073-.3073.3073-.80208 0-1.10938l-1.94336-1.9414c-.15365-.15365-.35417-.23047-.55469-.23047z"/></g></g></svg>