<svg height="16.001099" width="16" xmlns="http://www.w3.org/2000/svg"><g fill="#bebebe"><path d="m68.87495 297.00085a1.0001 1.0001 0 0 0 -.5.25l-4.90625 4a1.0001 1.0001 0 0 0 -.0625.03125s-.32587.29728-.65625.75c-.22334.30605-.3527.8316-.5 1.3125a1.0001 1.0001 0 0 0 -.03125.03125 1.0001 1.0001 0 0 0 -.21875.5625c-.00051.0118.00036.0176 0 .0293a1.0001 1.0001 0 0 0 0 .03125 1.0001 1.0001 0 0 0 0 .15625v3.52734c.004594-.05545.012517-.11687.029297-.1914.03357-.14907.083381-.38929.382812-.63477.29943-.24548.82734-.26117 1.080078-.16211.25274.09906.366862.21452.47461.32227l.033203.0332v-2.67383l4.6875 3.53125.3125.21875.3125-.21875 4.6875-3.53125v6.625h-6.644531c-.019128.20956-.084493.42932-.212891.58594-.245479.29943-.485698.34924-.634766.38281-.149068.03356-.250936.03516-.341796.03516-.716915 0-1.653285-.00261-2.046875-.00391l-.998047.99805h11.878906a1.0001 1.0001 0 0 0 1-1v-7.84375a1.0001 1.0001 0 0 0 0-.15625 1.0001 1.0001 0 0 0 -.21875-.65625 1.0001 1.0001 0 0 0 -.03125-.03125c-.32774-1.18787-1.125-2-1.125-2a1.0001 1.0001 0 0 0 -.03125-.0293l-4.96875-4.03125a1.0001 1.0001 0 0 0 -.65625-.25 1.0001 1.0001 0 0 0 -.09375 0zm.125 2.28125 4.3125 3.53125.03125.03125c.021.0255.18032.24952.34375.5l-4.6875 3.53125-4.6875-3.53125c.0259-.0394.0349-.0872.0625-.125.1908-.26146.31874-.41421.34375-.4375l.03125-.03125z" fill-opacity=".501961" transform="translate(-60.99995 -296.9989)"/><path d="m2.0316345 10.645163c-.02855.03844-.03729.111055-.03729.189206.000001.858355.0055 2.458301.0055 2.458301l-1.999786 1.999786.707107.707107 1.999786-1.999787s1.599946.0055 2.4583015.0055c.178629 0 .326129-.04952.110485-.265165l-.8010195-.801019 1.0606595-1.06066c.09763-.09763.09763-.255924 0-.353553-.09763-.09763-.255923-.09763-.353552 0l-1.0606605 1.06066-.707107-.707106 1.06066-1.060661c.09763-.09763.09763-.255923 0-.353553s-.255922-.09763-.353553 0l-1.060661 1.06066-.801019-.801019c-.121299-.121299-.191189-.128172-.227875-.07872z" fill-rule="evenodd"/></g></svg>