<svg height="16" width="16" xmlns="http://www.w3.org/2000/svg"><g fill="#bebebe"><path d="m3.0800781 3.7050781a1.0000999 1.0000318 0 0 0 -.2988281.0136719 1.0000999 1.0000318 0 0 0 -.40625 1.78125l5 4 .2070312.1660156c.8038121-1.510587 2.3605188-2.5674115 4.1601568-2.6601562h.001953l1.880859-1.5058594a1.0005298 1.0004615 0 0 0 -1.25-1.5625l-4.375 3.5-4.375-3.5a1.0000999 1.0000318 0 0 0 -.5449219-.2324219z"/><path d="m1.8125 3c-.458409.0874998-.82073001.533441-.8125 1v6.683594c.004594-.055458.0125169-.116874.0292969-.191406.0335697-.149069.0833814-.389286.3828125-.6347661.2994291-.2454793.82734-.261171 1.0800781-.1621094.2527391.0990617.3668617.2145192.4746094.3222655l.0332031.033203v-5.050781h10v2.1015625c.73801.151483 1.417871.4669331 2 .90625v-4.0078125c-.00005-.523539-.476422-.99995-1-1h-12c-.0312-.00099-.06255-.00099-.09375 0-.0312-.00099-.06255-.00099-.09375 0zm4.7539062 9c-.0513812.216206-.1592373.420953-.3242187.585938l-.3535156.353515.09375.09375c.1077468.107748.2232058.221872.3222656.474609.0470847.12013.0678989.301808.0507813.492188h1.0664062c-.270198-.613512-.421875-1.289664-.421875-2z"/><path d="m12 8a4 4 0 0 0 -4 4 4 4 0 0 0 4 4 4 4 0 0 0 4-4 4 4 0 0 0 -4-4zm-1 1.0605469h2v3.9648441h-2zm0 4.9570311h2v.990234h-2z"/><path d="m2.0316345 10.645163c-.02855.03844-.03729.111055-.03729.189206.000001.858355.0055 2.458301.0055 2.458301l-1.999786 1.999786.707107.707107 1.999786-1.999787s1.599946.0055 2.4583015.0055c.178629 0 .326129-.04952.110485-.265165l-.8010195-.801019 1.0606595-1.06066c.09763-.09763.09763-.255924 0-.353553-.09763-.09763-.255923-.09763-.353552 0l-1.0606605 1.06066-.707107-.707106 1.06066-1.060661c.09763-.09763.09763-.255923 0-.353553s-.255922-.09763-.353553 0l-1.060661 1.06066-.801019-.801019c-.121299-.121299-.191189-.128172-.227875-.07872z" fill-rule="evenodd"/></g></svg>