<svg height="16" width="16" xmlns="http://www.w3.org/2000/svg"><g fill="#bebebe"><path d="m2.03125 8.9980469v2.0000001h12.96875v-2.0000001h-.998047c-.83594.6284308-1.875612 1.0019531-3.001953 1.0019531-1.1263405 0-2.1660132-.3735223-3.0019531-1.0019531z"/><path d="m3.90625 6.99836a1.0001 1.0001 0 0 0 -.59375.28125l-2 2-.6875.71875.6875.71875 2 2a1.016466 1.016466 0 1 0 1.4375-1.4375l-1.28125-1.28125 1.28125-1.28125a1.0001 1.0001 0 0 0 -.84375-1.71875z"/><g transform="matrix(-1 0 0 1 -180.96875 -275.00164)"><path d="m-185.99989 282h1v1h-1z"/><path d="m-185.99989 287h1v1h-1z"/></g><path d="m11 1c-2.20914 0-4 1.79086-4 4 0 2.20915 1.79086 4 4 4s4-1.79085 4-4c0-2.20914-1.79086-4-4-4zm-1 2h2v4h-2l-.004-1.98857-.9959-.0114v-1z"/></g></svg>