<svg height="16" width="16" xmlns="http://www.w3.org/2000/svg"><g fill="#bebebe"><path d="m1 9.0039062v1.9999998h12.96875v-1.9999998h-5.9746094c-.8345927.624868-1.8713228.9960938-2.9941406.9960938s-2.1595479-.3712258-2.9941406-.9960938z"/><path d="m11.75 7.00378a1.0001 1.0001 0 0 0 -.5 1.71875l1.28125 1.28125-1.28125 1.28125a1.016466 1.016466 0 1 0 1.4375 1.4375l2-2 .6875-.71875-.6875-.71875-2-2a1.0001 1.0001 0 0 0 -.9375-.28125z"/><path d="m10.96875 7.00378h1v1h-1z"/><path d="m10.96875 12.00378h1v1h-1z"/><path d="m5 1c-2.20914 0-4 1.79086-4 4 0 2.20915 1.79086 4 4 4s4-1.79085 4-4c0-2.20914-1.79086-4-4-4zm-1 2h2v4h-2l-.004-1.98857-.9959-.0114v-1z"/></g></svg>