<svg height="16" width="16" xmlns="http://www.w3.org/2000/svg"><g fill="#bebebe" transform="translate(-120.99995 -277)"><path d="m126.78125 286a1.0001 1.0001 0 0 0 -.5 1.71875l1.28125 1.28125-1.28125 1.28125a1.016466 1.016466 0 1 0 1.4375 1.4375l2-2 .6875-.71875-.6875-.71875-2-2a1.0001 1.0001 0 0 0 -.9375-.28125z"/><path d="m125 280c-1.6447 0-3 1.3553-3 3v4c0 1.6447 1.3553 3 3 3h4v-2h-4c-.5713 0-1-.4287-1-1v-4c0-.5713.4287-1 1-1h8c.5713 0 1 .4287 1 1v4c0 .5713-.4287 1-1 1h-1v2h1c1.6447 0 3-1.3553 3-3v-4c0-1.6447-1.3553-3-3-3z"/><g transform="scale(-1 1)"><path d="m-126.9999 286h1v1h-1z"/><path d="m-126.9999 291h1v1h-1z"/></g></g></svg>