<svg height="16" width="16" xmlns="http://www.w3.org/2000/svg"><g fill="#bebebe" transform="translate(-60.999948 -277)"><path d="m62 280v2h3c.571297 0 1 .4287 1 1v4c0 1.6447 1.355297 3 3 3h6v-2h-6c-.571297 0-1-.4287-1-1v-4c0-1.6447-1.355297-3-3-3z"/><path d="m72.78125 286a1.0001 1.0001 0 0 0 -.5 1.71875l1.28125 1.28125-1.28125 1.28125a1.016466 1.016466 0 1 0 1.4375 1.4375l2-2 .6875-.71875-.6875-.71875-2-2a1.0001 1.0001 0 0 0 -.9375-.28125z"/><path d="m72.78125 278a1.0001 1.0001 0 0 0 -.5 1.71875l1.28125 1.28125-1.28125 1.28125a1.016466 1.016466 0 1 0 1.4375 1.4375l2-2 .6875-.71875-.6875-.71875-2-2a1.0001 1.0001 0 0 0 -.9375-.28125z"/><path d="m68.99995 280c-.229573 0-.440853.0438-.65625.0937.481303.5511.861254 1.17761 1.03125 1.90625h5.625v-2h-6zm-7 8v2h3c.229573 0 .440853-.0438.65625-.0937-.481303-.55115-.861254-1.17766-1.03125-1.9063z"/><path d="m72 286h1v1h-1z"/><path d="m72 291h1v1h-1z"/><path d="m72 278h1v1h-1z"/><path d="m72 283h1v1h-1z"/></g></svg>