<svg height="16" width="16.00025" xmlns="http://www.w3.org/2000/svg"><g fill="#bebebe" transform="translate(-140.99995 -277)"><path d="m146.78125 286a1.0001 1.0001 0 0 0 -.5 1.71875l1.28125 1.28125-1.28125 1.28125a1.016466 1.016466 0 1 0 1.4375 1.4375l2-2 .6875-.71875-.6875-.71875-2-2a1.0001 1.0001 0 0 0 -.9375-.28125z"/><path d="m156.0002 286.00549v.99451c0 1.6447-1.3553 3-3 3h-1v-2h1c.5713 0 1-.4287 1-1v-.98346zm-8.00732-4.00549h-2.99268c-.5713 0-1 .4287-1 1v4c0 .5713.4287 1 1 1h4v2h-4c-1.6447 0-3-1.3553-3-3v-4c0-1.6447 1.3553-3 3-3h2.98163z"/><path d="m-146.99995 286h1v1h-1z" transform="scale(-1 1)"/><path d="m-146.99995 291h1v1h-1z" transform="scale(-1 1)"/><path d="m153.0002 277c-2.20914 0-4 1.79086-4 4 0 2.20915 1.79086 4 4 4s4-1.79085 4-4c0-2.20914-1.79086-4-4-4zm-1 2h2v4h-2l-.004-1.98857-.9959-.0114v-1z"/></g></svg>