<svg height="16.001099" width="16.0002" xmlns="http://www.w3.org/2000/svg" xmlns:xlink="http://www.w3.org/1999/xlink"><clipPath id="a"><path d="m21 281h14v11h-14z"/></clipPath><g fill="#bebebe"><rect height="10.012877" rx="2.5" width="5" x="3" y=".987122"/><path clip-path="url(#a)" d="m27.96875 273.625c-2.502477 0-4.53125 2.02877-4.53125 4.53125v5.8125c0 2.50248 2.028773 4.53125 4.53125 4.53125s4.53125-2.02877 4.53125-4.53125v-5.8125c0-2.50248-2.028773-4.53125-4.53125-4.53125zm0 1c1.964148 0 3.53125 1.5671 3.53125 3.53125v5.8125c0 1.96415-1.567102 3.53125-3.53125 3.53125s-3.53125-1.5671-3.53125-3.53125v-5.8125c0-1.96415 1.567102-3.53125 3.53125-3.53125z" transform="matrix(.993968 0 0 1 -22.293101 -275.48613)"/><path d="m2 5.5a.5.5 0 1 1 -1 0 .5.5 0 1 1 1 0z" stroke-width=".5"/><path d="m10 5.5a.5.5 0 1 1 -1 0 .5.5 0 1 1 1 0z" stroke-width=".5"/><path d="m1.90625 14a1.001098 1.001098 0 1 0 .09375 2h7a1.0001 1.0001 0 1 0 0-2h-7a1.0001 1.0001 0 0 0 -.0937 0z"/><path d="m1 15h9.0002v1h-9.0002z"/><path d="m4 12h3v4h-3z"/><path d="m13.0002.99193c-1.09865 0-2.00806.90942-2.00806 2.00807s.90941 2.00806 2.00806 2.00806 2.00806-.90941 2.00806-2.00806-.90941-2.00807-2.00806-2.00807z" opacity=".35"/><path d="m13.00019 5.99193c-1.09865 0-2.00806.90941-2.00806 2.00806s.90941 2.00807 2.00806 2.00807 2.00807-.90942 2.00807-2.00807-.90942-2.00806-2.00807-2.00806z" opacity=".35"/><path d="m11.0002 11h1.375l1.125 1.09375 1.09375-1.09375h1.40625v1.46875l-1.09375 1.0625 1.09375 1.0625v1.40625h-1.4375l-1.0625-1.0625-1.0625 1.0625h-1.4375v-1.40625l1.0625-1.0625-1.0625-1.0625z"/></g></svg>