<svg height="16.001099" width="16" xmlns="http://www.w3.org/2000/svg" xmlns:xlink="http://www.w3.org/1999/xlink"><clipPath id="a"><path d="m21 281h14v11h-14z"/></clipPath><g fill="#bebebe"><path d="m13.0002 1c-1.10457 0-2 .89543-2 2s.89543 2 2 2 2-.89543 2-2-.89543-2-2-2z" opacity=".35"/><rect height="10" rx="2.4999" ry="2.5" width="4.9998" x="3.000198" y="1"/><path clip-path="url(#a)" d="m27.96875 273.625c-2.502477 0-4.53125 2.02877-4.53125 4.53125v5.8125c0 2.50248 2.028773 4.53125 4.53125 4.53125s4.53125-2.02877 4.53125-4.53125v-5.8125c0-2.50248-2.028773-4.53125-4.53125-4.53125zm0 1c1.964148 0 3.53125 1.5671 3.53125 3.53125v5.8125c0 1.96415-1.567102 3.53125-3.53125 3.53125s-3.53125-1.5671-3.53125-3.53125v-5.8125c0-1.96415 1.567102-3.53125 3.53125-3.53125z" transform="matrix(.993968 0 0 1 -22.2931 -275.48613)"/><path d="m2 5.5a.5.5 0 1 1 -1 0 .5.5 0 1 1 1 0z" stroke-width=".5"/><path d="m10 5.5a.5.5 0 1 1 -1 0 .5.5 0 1 1 1 0z" stroke-width=".5"/><path d="m1.90625 14a1.001098 1.001098 0 1 0 .09375 2h7a1.0001 1.0001 0 1 0 0-2h-7a1.0001 1.0001 0 0 0 -.0937 0z"/><path d="m1 15h9v1h-9z"/><path d="m4 12h3v4h-3z"/><path d="m15.000197 12.999994a2.0000001 1.9999943 0 1 1 -4 0 2.0000001 1.9999943 0 1 1 4 0z" stroke-width="1.03226"/><path d="m13.0002 6c-1.10457 0-2 .89543-2 2s.89543 2 2 2 2-.89543 2-2-.89543-2-2-2z" opacity=".35"/></g></svg>