<svg height="16" width="16" xmlns="http://www.w3.org/2000/svg"><g fill="#bebebe" transform="translate(-161.0002 -258)"><path d="m167.0002 259c-1.00916.005-1 1-1 1v11c0 1 1 1 1 1h4c1 0 1-1 1-1v-8c.0009-.554-.446-1-1-1h-3v-2s-.009-.99447-1-1zm0 4h4v3.03125l-4-.0312zm0 4h1v1h1v-1h1v1h1v1h-1v1h1v1h-1v-1h-1v1h-1v-1h-1v-1h1v-1h-1zm1 2v1h1v-1zm1 0h1v-1h-1z"/><path d="m177.0002 263v1c0 .25689-.12983.52846-.3125.71875l-1.28125 1.28125 1.28125 1.28125c.18267.19029.3125.46186.3125.71875v1h-1c-.30945 0-.55232-.0903-.75-.28125l-2.65625-2.71875 2.65625-2.71875c.19768-.19095.44055-.28125.75-.28125z"/><path d="m161.0002 263v1c0 .25689.12983.52846.3125.71875l1.28125 1.28125-1.28125 1.28125c-.18267.19029-.3125.46186-.3125.71875v1h1c.30945 0 .55232-.0903.75-.28125l2.65625-2.71875-2.65625-2.71875c-.19768-.19095-.44055-.28125-.75-.28125z"/></g></svg>