<svg height="16" width="16.0002" xmlns="http://www.w3.org/2000/svg"><path d="m83.0625 237c-1.150728 0-2.0625.91177-2.0625 2.0625v11.875c0 1.15073.911772 2.0625 2.0625 2.0625h11.875c1.150728 0 2.0625-.91177 2.0625-2.0625v-11.875c0-1.15073-.911772-2.0625-2.0625-2.0625zm1.9375 3h2v8c-.00036-.00045.0315.0001.03125 0h3.9375c.0068-.0193.02945-.016.03125 0 .000877.008 0-.0554 0-.0312v-7.9688h2v7.96875c0 .56264-.227078.99957-.5625 1.375-.31592.35364-.851921.632-1.46875.625v.0312h-.09375-3.875c-.624797 0-.994128-.24118-1.34375-.5625-.331084-.30424-.64399-.78976-.625-1.4375l-.03125.00005v-.09375z" fill="#bebebe" transform="translate(-81 -237)"/></svg>