<svg height="16" width="16.00025" xmlns="http://www.w3.org/2000/svg"><path d="m63.06245 237c-1.150728 0-2.0625.91177-2.0625 2.0625v11.875c0 1.15073.911772 2.0625 2.0625 2.0625h11.875c1.150728 0 2.0625-.91177 2.0625-2.0625v-11.875c0-1.15073-.911772-2.0625-2.0625-2.0625zm4.0625 3.03125h3.78125.0625c.0032-.0001-.0032.0314 0 .0312.527306-.0204 1.072537.076 1.5.46875.414747.38112.59343 1.00751.5625 1.59375h.03125v.125.75h-2v-.875-.0625-.0312c-.01759-.002.0033-.002-.03125 0h-.03125-.03125-3.84375c-.02762 0-.02197.002-.03125 0-.0064.004-.02919-.003-.03125 0-.0073.0224.0068.0466 0 .0625v.0312 5.8125c-.02367-.0217-.0031.0605 0 .0625h3.90625c.0068-.0193.02945-.016.03125 0 .000877.008 0-.0554 0-.0312v-1.9375h-2v-2h3 1v1 2.9375c0 .56264-.227078.99952-.5625 1.375-.31592.35364-.851921.632-1.46875.625v.0312h-.09375-3.8125c-.624797 0-.994128-.24123-1.34375-.5625-.331051-.30421-.64392-.78987-.625-1.4375.00006-.002-.03131.002-.03125 0v-.0937-5.8125-.0937-.0625c.06247-.43728.205355-.88912.5625-1.28125s.946079-.625 1.5-.625z" fill="#bebebe" transform="translate(-60.99995 -237)"/></svg>