<svg height="16" width="16.000017" xmlns="http://www.w3.org/2000/svg"><path d="m5.00002 7c-.30943.00004-.61463.0905-.8125.28125l-3.59375 3.71875 3.65625 3.71875c.19771.19101.44055.28124.75.28125h1v-1c-.00005-.25688-.12958-.52871-.3125-.71875l-1.28125-1.28125h3.62501c.0217-.27718.11278-1 .72266-2h-4.37892l1.21875-1.28125c.18273-.19024.40624-.46185.40625-.71875v-1z" fill="#bebebe" opacity=".5"/><path d="m12.50002 9c-1.93299 0-3.5 1.56701-3.5 3.5s1.56701 3.5 3.5 3.5 3.5-1.56701 3.5-3.5-1.56701-3.5-3.5-3.5zm-2.5 2.96875h5v1.03125h-5z" fill="#ef2929" opacity=".2"/><path d="m12.48049 8.03125 2.92578-3.03125-3.65625-3.71875c-.19771-.19101-.44055-.28124-.75-.28125h-1v1c.00005.25688.12958.52871.3125.71875l1.28125 1.28125h-4.59374c-.52831-.007-1 .47164-1 1s.47169 1.00747 1 1h4.62499l-1.21875 1.28125c-.18273.19024-.40624.46185-.40625.71875v.42578c.62016-.37715 1.90848-.50701 2.48047-.39453z" fill="#bebebe" opacity=".5"/></svg>