<svg height="16" width="16" xmlns="http://www.w3.org/2000/svg"><g fill="#bebebe" transform="translate(-141.0002 -257)"><path d="m141.02205 266v3 3h1 2v-3h-2v-3z" opacity=".35"/><path d="m152.99995 257.0221v7h2v5h-2v3h3v-3-5-1-6z" opacity=".35"/><path d="m144.99995 269v3h3v-3z" opacity=".35"/><path d="m148.99995 269v3h3v-3z" opacity=".35"/><path d="m144.99995 263v1h3v-1z" opacity=".35"/><path d="m148.99995 260v4h3v-4z" opacity=".35"/><path d="m29 209a1 1 0 1 1 -2 0 1 1 0 1 1 2 0z" transform="matrix(1.5 0 0 1.5 102.5 -46.999999)"/><path d="m29 209a1 1 0 1 1 -2 0 1 1 0 1 1 2 0z" transform="matrix(1.5 0 0 1.5 106.5 -46.999999)"/><path d="m29 209a1 1 0 1 1 -2 0 1 1 0 1 1 2 0z" transform="matrix(1.5 0 0 1.5 110.49995 -46.999999)"/></g></svg>