<svg height="16" width="16" xmlns="http://www.w3.org/2000/svg"><path d="m144.0002 238c-2.00009 0-2 2-2 2v10c0 2 2 2 2 2l10-.0937c1.99991-.0187 2-1.90625 2-1.90625v-10c0-2-2-2-2-2h-10zm5 2.03125c1.81426 0 3.62896.61811 5 1.875v1.09375h-1.8125c-1.84307-1.41031-4.53193-1.41031-6.375 0h-1.8125v-1.09375c1.37103-1.25689 3.18574-1.875 5-1.875zm0 3.0625c1.04363 0 2.0799.33741 2.875 1 .0433.0185.0851.0394.125.0625v.84375h-6v-.8125c.0387-.0339.0805-.0652.125-.0937.79509-.66259 1.83137-1 2.875-1zm0 2.90625c1.10457 0 2 .89543 2 2s-.89543 2-2 2-2-.89543-2-2 .89543-2 2-2z" fill="#f57900" transform="translate(-141.0002 -237)"/></svg>