<svg height="16" width="16" xmlns="http://www.w3.org/2000/svg"><g fill="#bebebe"><path d="m4 11v1.009766h3v.990234h-5v2h12v-2h-5v-.990234h3v-1.009766z" opacity=".5"/><path d="m8 1c-1.64501 0-3 1.355-3 3v1h-1v1.0097656h8v-1.0097656h-1v-1c0-1.645-1.35499-3-3-3zm0 2c.56413 0 1 .43588 1 1v1h-2v-1c0-.56412.43587-1 1-1z" opacity=".5"/><g stroke-width="1.5"><path d="m5.01303 8.4956a1.5 1.5 0 1 1 -3 0 1.5 1.5 0 1 1 3 0z"/><path d="m9.01303 8.4956a1.5 1.5 0 1 1 -3 0 1.5 1.5 0 1 1 3 0z"/><path d="m13.01298 8.4956a1.5 1.5 0 1 1 -3 0 1.5 1.5 0 1 1 3 0z"/></g></g></svg>