<svg height="16" width="16" xmlns="http://www.w3.org/2000/svg"><g fill="#bebebe"><path d="m7 1c-1.6447 0-3 1.3553-3 3v3h-1c-.554 0-1 .446-1 1v.53125 5.46875h5 2v-.820312l.6484375-.648438-.6484375-.648438v-1.882812-1h2.78125l.708984.6894531.689454-.6894531h.820312v-.46875-.53125c0-.554-.446-1-1-1h-1v-3c0-1.6447-1.3553-3-3-3zm0 2h2c.5713 0 1 .4287 1 1v3h-4v-3c0-.5713.4287-1 1-1z" opacity=".5"/><path d="m10 10h1.375001l1.125 1.09375 1.09375-1.09375h1.40625v1.46875l-1.09375 1.0625 1.09375 1.0625v1.40625h-1.4375l-1.062501-1.0625-1.0625 1.0625h-1.4375v-1.40625l1.062501-1.0625-1.062501-1.0625z"/></g></svg>