<svg height="16" width="16.000002" xmlns="http://www.w3.org/2000/svg"><g fill="#bebebe" transform="translate(-241.0002 -177)"><path d="m244.0002 178c-1.108 0-2 .892-2 2v10c0 1.108.892 2 2 2h7v-2h-6c-.554 0-1-.446-1-1v-6c0-.554.446-1 1-1h1v-1c0-.554.446-1 1-1h4c.554 0 .96747.44696 1 1v1h1c.554 0 1 .446 1 1v4h2v-7c0-1.108-.892-2-2-2z" fill-opacity=".501961"/><path d="m5 12v1h2v-1z" fill-opacity=".501961" opacity=".35" transform="translate(241.0002 177)"/><path d="m252.0002 188h1.375l1.125 1.09375 1.09375-1.09375h1.40625v1.46875l-1.09375 1.0625 1.09375 1.0625v1.40625h-1.4375l-1.0625-1.0625-1.0625 1.0625h-1.4375v-1.40625l1.0625-1.0625-1.0625-1.0625z"/><path d="m8 12v1h2v-1z" fill-opacity=".501961" opacity=".35" transform="translate(241.0002 177)"/></g></svg>