<svg height="16" width="16" xmlns="http://www.w3.org/2000/svg"><g fill="#bebebe" transform="translate(-241.0002 -237)"><path d="m248 248.6875v1.3125h2v-1.3125z" opacity=".5"/><path d="m243 250v2h12v-2z" opacity=".5"/><path d="m244.99995 242h8v1.009414h-8z" opacity=".5"/><path d="m248.99997 238.00041c-1.64501 0-3 1.355-3 3v2h6v-2c0-1.645-1.35499-3-3-3zm0 2c.56413 0 1 .43588 1 1v1h-2v-1c0-.56412.43587-1 1-1z" opacity=".5"/><path d="m244.99995 248h8v1.009414h-8z" opacity=".5"/><path d="m29 209a1 1 0 1 1 -2 0 1 1 0 1 1 2 0z" transform="matrix(1.5 0 0 1.5 202.51323 -68.0044)"/><path d="m29 209a1 1 0 1 1 -2 0 1 1 0 1 1 2 0z" transform="matrix(1.5 0 0 1.5 206.51323 -68.0044)"/><path d="m29 209a1 1 0 1 1 -2 0 1 1 0 1 1 2 0z" transform="matrix(1.5 0 0 1.5 210.51318 -68.0044)"/></g></svg>