<svg height="16" width="16" xmlns="http://www.w3.org/2000/svg"><g fill="#bebebe" transform="translate(-141.0002 -177)"><path d="m152 188h1.375l1.125 1.09375 1.09375-1.09375h1.40625v1.46875l-1.09375 1.0625 1.09375 1.0625v1.40625h-1.4375l-1.0625-1.0625-1.0625 1.0625h-1.4375v-1.40625l1.0625-1.0625-1.0625-1.0625z"/><path d="m29 209a1 1 0 1 1 -2 0 1 1 0 1 1 2 0z" opacity=".35" transform="matrix(1.9999995 0 0 1.9999995 93.00022 -227.9999)"/><path d="m149.00019 179.0002c-2.81422 0-5.17173 1-7 2.58557v1.41443h1.48072c1.51928-1.26466 3.21936-2 5.51928-2s4 .77953 5.51928 2h1.48072v-1.38128c-1.64044-1.46575-4.18578-2.61872-7-2.61872z" opacity=".35"/><path d="m149.00019 182.0002c-2.16664 0-4.01982.73878-5 2v1h2c.78878-.60652 1.75887-1 3-1s2.21938.39348 3 1h2v-1c-.99478-1.2229-2.8734-2-5-2z" opacity=".35"/><path d="m149.00019 185.0002c-1.25733 0-2.21571.31165-3 1v1h3 .375 2.625v-1c-.8369-.67206-1.74267-1-3-1z" opacity=".35"/></g></svg>