<svg height="16" width="16" xmlns="http://www.w3.org/2000/svg"><g fill="#bebebe" transform="translate(-281.0002 -177)"><path d="m284.0002 178c-1.108 0-2 .892-2 2v10c0 1.108.892 2 2 2h3.4375c-.19602-.29942-.3125-.64826-.3125-1.03125 0-.65623.39455-1.12163.90625-1.46875-.21873-.13975-.41072-.30386-.5625-.5h-1.46875v1h-1c-.554 0-1-.446-1-1v-6c0-.554.446-1 1-1h1v-1c0-.554.446-1 1-1h4c.554 0 .96747.44696 1 1v1h1c.554 0 1 .446 1 1v6c0 .554-.446 1-1 1h-1v-1h-1.5c-.11489.19937-.25785.36525-.46875.5.5117.34712.90625.81252.90625 1.46875 0 .38299-.11648.73183-.3125 1.03125h3.375c1.108 0 2-.892 2-2v-10c0-1.108-.892-2-2-2z" opacity=".35"/><path d="m288.84821 181.96875c1.64243-.092 3.0955 1.17008 3.1875 2.8125-.0001 1.40136-.37771 1.92177-1.59375 2.84375-.19093.14364-.3256.2506-.375.3125-.0494.0621-.0312.0332-.0312.0312.007.52831-.47163 1-1 1s-1.007-.47169-1-1c0-.50239.22424-.94342.46875-1.25.24451-.30663.4913-.51638.71875-.6875.20405-.16056.46083-.38454.6875-.65625.0935-.1121.129-.30766.125-.4375v-.0312c-.0316-.56324-.49926-.9691-1.0625-.9375s-.9691.43676-.9375 1h-2c-.092-1.64243 1.17007-2.9079 2.8125-3zm.1875 8c.55228 0 1 .44772 1 1s-.44772 1-1 1-1-.44772-1-1 .44772-1 1-1z"/></g></svg>