<svg height="16" width="16.000031" xmlns="http://www.w3.org/2000/svg"><g fill="#bebebe" transform="translate(-261.00018 -177)"><path d="m264.0002 178c-1.108 0-2 .892-2 2v3h2c0-.554.446-1 1-1h1v-1c0-.554.446-1 1-1h4c.554 0 .96747.44696 1 1v1h1c.554 0 1 .446 1 1h2v-3c0-1.108-.892-2-2-2zm-2 10v2c0 1.108.892 2 2 2h10c1.108 0 2-.892 2-2v-2h-2v1c0 .554-.446 1-1 1h-4.95317-1.04683-2c-.554 0-1-.446-1-1v-1z" opacity=".35"/><path d="m29 209a1 1 0 1 1 -2 0 1 1 0 1 1 2 0z" transform="matrix(1.5 0 0 1.5 222.5002 -128)"/><path d="m29 209a1 1 0 1 1 -2 0 1 1 0 1 1 2 0z" transform="matrix(1.5 0 0 1.5 226.5002 -128)"/><path d="m29 209a1 1 0 1 1 -2 0 1 1 0 1 1 2 0z" transform="matrix(1.5 0 0 1.5 230.50015 -128)"/><path d="m266.00021 189h6v1h-6z" opacity=".15"/></g></svg>