<svg height="16" width="16.000002" xmlns="http://www.w3.org/2000/svg" xmlns:xlink="http://www.w3.org/1999/xlink"><clipPath id="a"><path d="m-73-30-7-7v-4.5h16.5v4.5l-7.5 7z"/></clipPath><g transform="translate(-161.0002 -177)"><path clip-path="url(#a)" d="m-72-38v1h1v-.96875c-.323493-.02728-.659974-.03125-1-.03125zm1 1v1h1v-1zm1 0h1v-.59375c-.325389-.09548-.651632-.155871-1-.21875zm1 0v1h1v-1zm1 0h.5c-.165334-.08409-.326508-.144584-.5-.21875zm0 1v1h1v-1zm1 0h1v1h1c-.558128-.671658-1.230995-1.257248-2-1.71875zm2 1v1h-1v1h-1v1h-1v1h-1v1h-1v-1h-1v1h-1v-1h-1v1h-1v-1h-1v-1h-1v-1h-1v-1h-1v-1h-.5625c-1.565675 1.851407-.4375 4.375987-.4375 7 0 5.2155 1.38973 6 7 6s7-.7845 7-6c0-2.373824 1.295521-5.440954 0-7zm-13 0h1v-1h-.5625c-.144921.123613-.301098.242063-.4375.375zm1-1h1v-1h-.0625c-.328078.173814-.639372.348926-.9375.5625zm1-1h1v-.5c-.346235.124586-.680795.303191-1 .46875zm1 0v1h1v-1zm1 0h1v-.9375c-.343576.03632-.675775.08361-1 .15625zm1 0v1h1v-1zm1 1v1h1v-1zm1 1v1h1v-1zm1 0h1v-1h-1zm1 0v1h1v-1zm1 1v1h1v-1zm1 0h1v-1h-1zm-1 1h-1v1h1zm-1 1h-1v1h1zm-1 0v-1h-1v1zm-1 0h-1v1h1zm-1 0v-1h-1v1zm-1 0h-1v1h1zm-1 0v-1h-1v1zm-1-1v-1h-1v1zm-1-1v-1h-1v1zm0-1h1v-1h-1zm1 0v1h1v-1zm1 0h1v-1h-1zm1 0v1h1v-1zm1 1v1h1v-1zm-1 0h-1v1h1zm3 1h1v-1h-1z" fill="#bebebe" opacity=".35" transform="translate(241.0002 217)"/><path d="m161.0002 193v-16h16v16z" fill="none"/><path d="m171.0002 190c0 1.10456-.89543 1.99999-2 1.99999s-2-.89543-2-1.99999.89543-2 2-2 2 .89544 2 2z" fill="#bebebe"/></g></svg>