<svg height="16" width="16.000031" xmlns="http://www.w3.org/2000/svg"><g fill="#bebebe" transform="translate(-401.00018 -177)"><path d="m406.0002 184c-.30943.00004-.61463.0905-.8125.28125l-3.59375 3.71875 3.65625 3.71875c.19771.19101.44055.28124.75.28125h1v-1c-.00005-.25688-.12958-.52871-.3125-.71875l-1.28125-1.28125h5.59375v-2h-5.625l1.21875-1.28125c.18273-.19024.40624-.46185.40625-.71875v-1z" opacity=".5"/><path d="m412.00018 188h1.375l1.125 1.09375 1.09375-1.09375h1.40625v1.46875l-1.09375 1.0625 1.09375 1.0625v1.40625h-1.4375l-1.0625-1.0625-1.0625 1.0625h-1.4375v-1.40625l1.0625-1.0625-1.0625-1.0625z"/><path d="m412.0002 186c.30943-.00004.61463-.0905.8125-.28125l3.59375-3.71875-3.65625-3.71875c-.19771-.19101-.44055-.28124-.75-.28125h-1v1c.00005.25688.12958.52871.3125.71875l1.28125 1.28125h-4.59374c-.52831-.007-1 .47164-1 1s.47169 1.00747 1 1h4.62499l-1.21875 1.28125c-.18273.19024-.40624.46185-.40625.71875v1z" opacity=".5"/></g></svg>