<svg height="16" width="16" xmlns="http://www.w3.org/2000/svg"><g transform="translate(-161.0002 -177)"><g fill="#bebebe"><path d="m29 209a1 1 0 1 1 -2 0 1 1 0 1 1 2 0z" opacity=".32" transform="matrix(1.9999995 0 0 1.9999995 113.00021 -227.9999)"/><path d="m29 209a1 1 0 1 1 -2 0 1 1 0 1 1 2 0z" transform="matrix(1.5 0 0 1.5 122.5002 -128)"/><path d="m29 209a1 1 0 1 1 -2 0 1 1 0 1 1 2 0z" transform="matrix(1.5 0 0 1.5 126.5002 -128)"/><path d="m29 209a1 1 0 1 1 -2 0 1 1 0 1 1 2 0z" transform="matrix(1.5 0 0 1.5 130.5002 -128)"/></g><g fill="none"><path d="m169 178.5c-2.93267 0-5.40212 1.06197-7.3125 2.71875a.50005.50005 0 0 0 -.1875.375v1.40625a.50005.50005 0 0 0 .5.5h1.46875a.50005.50005 0 0 0 .34375-.125c1.45156-1.20829 2.99415-1.875 5.1875-1.875 2.18694 0 3.76041.70348 5.21875 1.875a.50005.50005 0 0 0 .3125.125h1.46875a.50005.50005 0 0 0 .5-.5v-1.375a.50005.50005 0 0 0 -.15625-.375c-1.73492-1.55017-4.39297-2.75-7.34375-2.75zm0 1c2.60609 0 4.94914 1.07652 6.5 2.40625v.59375h-.875c-1.53582-1.18206-3.31212-2-5.625-2-2.30727 0-4.08249.77549-5.625 2h-.875v-.65625c1.72017-1.43019 3.8908-2.34375 6.5-2.34375z" opacity=".32"/><path d="m169 181.5c-1.58377 0-3.0432.36102-4.15625 1.0625a.50005.50005 0 0 0 .28125.9375h7.6875a.50005.50005 0 0 0 .25-.9375c-1.11056-.68195-2.51541-1.0625-4.0625-1.0625z" opacity=".32"/></g></g></svg>