<svg height="16" width="16" xmlns="http://www.w3.org/2000/svg"><g fill="#bebebe"><path d="m8.0015367 1.3816715c-.2504824-.0009326-.4696814.094767-.6261609.2254248-.1564794.1306484-.2613298.3027361-.3670882.4712725-.2115074.3370727-.3699227.7241571-.5326751 1.133784-.1627523.4096174-.3270034.8361912-.475341 1.1608669-.1483376.3246664-.3255575.545155-.3378263.5536802-.0121238.0084782-.2894038.1102161-.6554228.1430077-.3660181.0327822-.8301237.0463473-1.2841959.065376-.4540723.0190288-.9140358.0341011-1.31227.1207384-.1991208.0433328-.391314.0955959-.5693016.1974092-.1779876.1018132-.3456206.269709-.4239465.4992881-.078329.2295791-.046168.4769152.034252.6608912.08042.1839854.2134254.3439683.3468556.4930896.2668698.298271.5960154.5704575.9494585.8463933.353443.2759358.7316753.5268327 1.005842.7632885.2741666.2364558.427886.4785072.4325009.492402.00452.013753.029381.315557-.051397.6615883-.080778.3460218-.2108244.7646728-.3323616 1.1872618-.1215382.422599-.2371624.849663-.2747903 1.241909-.018812.196119-.040366.383675.00499.578484.045349.1948.1738003.405133.37588.547952.2020703.14282.4233041.177194.6294872.160238.2061831-.01696.4101045-.06622.5983252-.142546.3764415-.152739.7552786-.403664 1.1364659-.642748.3811865-.239084.7613555-.49131 1.079131-.669841.3177754-.178531.6108022-.253026.6259235-.252969.01494.000056.2857902.08959.6018889.27066.3160986.181065.683265.438067 1.0622255.680184.3789613.242117.7724133.468673 1.1473953.624407.187487.07791.366377.142113.572391.160699.206015.01856.451965-.0292.655185-.170553.203209-.141312.319604-.331919.366612-.526371.04701-.194451.04042-.409937.02333-.606263-.03422-.392661-.149771-.813847-.267627-1.237548-.117855-.4237-.246478-.835202-.324248-1.181996-.07777-.3467848-.06753-.646808-.0628-.6606651.0047-.013659.176596-.2378311.452733-.4719601.276137-.2341291.636793-.5063815.992536-.7793405s.722679-.5384384.992061-.8344297c.134687-.1479909.227776-.3150483.309754-.4983649.08197-.1833166.128113-.4038806.05163-.6340343-.076477-.2301537-.25536-.3891851-.432496-.4924114-.177134-.1032263-.345521-.1710515-.544317-.216014-.397592-.0899627-.860614-.1319672-1.314646-.1547358-.45403-.0227968-.890993-.0367387-1.256836-.0725353-.365843-.0357967-.674157-.1236116-.686346-.132231-.012048-.0084782-.173349-.2226553-.3187826-.5484144-.1454333-.325759-.3076478-.7424887-.4667517-1.1533025-.159103-.4108139-.3153554-.8141763-.5238475-1.152841-.1042511-.1693465-.2198216-.3334459-.3751669-.465319-.1553453-.131873-.3797178-.2419477-.6302003-.2428803z" opacity=".35" stroke-width=".942018"/><path d="m8.002792 1.0051c-.2659-.00099-.498591.1006-.664702.2393-.166111.13869-.277415.32137-.389683.50028-.224526.35782-.392692.76873-.565462 1.20357-.17277.43483-.347131.88766-.504599 1.23232-.157468.34465-.345596.57871-.35862.58776-.01287.009-.307217.117-.695765.15181-.388547.0348-.881219.0492-1.36324.0694s-.970296.0362-1.393042.12817c-.211377.046-.4154.10148-.604343.20956s-.366894.28631-.450041.53002c-.08315.24371-.04901.50627.03636.70157.08537.19531.226562.36514.368205.52344.283296.31663.632701.60557 1.007899.89849s.776711.55926 1.067753.81027.454223.50796.459122.52271c.0048.0146.03119.33498-.05456.70231-.08575.36732-.223801.81174-.352819 1.26034-.129019.44861-.25176.90196-.291704 1.31835-.01997.20819-.04285.40729.0053.61409.04814.20679.184498.43007.399016.58168.214508.15161.449359.1881.668233.1701s.435347-.0703.635153-.15132c.399612-.16214.801767-.42851 1.206417-.68231.404649-.2538.808218-.52155 1.145553-.71107s.648398-.2686.66445-.26854c.01586.00006.303381.0951.638936.28732.335555.19221.725321.46503 1.127607.72205.402287.25702.819957.49752 1.218019.66284.199027.0827.388928.15086.607623.17059.218695.0197.479784-.031.695512-.18105.215717-.15001.339276-.35235.389178-.55877.0499-.20642.04291-.43517.02476-.64358-.03632-.41683-.158989-.86394-.284099-1.31372s-.261649-.88661-.344206-1.25475c-.08256-.36813-.07169-.68662-.06666-.70133.005-.0145.187465-.25247.480599-.50101s.675989-.53755 1.053628-.82731c.37764-.28976.767161-.57158 1.053124-.88579.142977-.1571.241796-.33444.32882-.52904.08702-.1946.135998-.42874.05481-.67306-.08119-.24432-.271084-.41314-.459122-.52272-.188037-.10958-.366789-.18158-.577821-.22931-.422064-.0955-.913586-.14009-1.395564-.16426-.481977-.0242-.945835-.039-1.334196-.077s-.715653-.13122-.728592-.14037c-.01279-.009-.184019-.23636-.338404-.58217s-.326584-.78819-.495481-1.22429c-.168896-.4361-.334766-.86429-.556091-1.2238-.110668-.17977-.233352-.35397-.398259-.49396s-.40309-.25684-.66899-.25783zm.0086.99424c.0422.0358.106711.13602.184103.26173.154773.25141.330675.6272.493967 1.04883s.319052.88645.495985 1.28277c.176933.39633.314564.73379.675296.98889.360721.25509.770187.29763 1.215244.34118.445058.0435.92882.0532 1.394807.0765.465988.0234.918236.0697 1.213479.13647.147627.0334.255581.0572.303811.0853-.02227.0498-.07958.15478-.179562.26464-.199968.21973-.537491.48746-.902606.7676-.365114.28015-.778037.57219-1.113986.85704-.33595.28485-.639918.53221-.779871.94209-.139952.40986-.05396.77681.04065 1.19869.09461.42189.25406.87813.375016 1.31299s.226877.84692.25228 1.13851c.01156.13264-.01699.23485-.02778.29267-.05993-.008-.176402-.0324-.303811-.0853-.278362-.11561-.646494-.32808-1.03543-.57657-.388935-.24849-.803899-.53053-1.18847-.75081-.38457-.22028-.707909-.39837-1.155138-.40015-.447219-.002-.792046.17245-1.178633.38965-.386587.21719-.784375.49517-1.175607.74055s-.776359.4507-1.055898.56412c-.139769.0567-.246155.0856-.302298.0902-.01026-.0578-.01522-.16008-.0025-.29243.02793-.29118.138178-.70893.262912-1.14264.124734-.43372.254035-.89785.352315-1.31883.09828-.42099.186721-.78846.05027-1.19943-.136442-.41097-.43218-.64202-.765707-.92967-.333527-.28766-.705509-.58555-1.068257-.86876-.362749-.2832-.717797-.56075-.915974-.78224-.09908-.11075-.162208-.21163-.184103-.26173.04834-.0276.154481-.058.302298-.0902.295625-.0643.745175-.10714 1.211209-.1267.466034-.0196.948238-.0298 1.393546-.0697s.846793-.0499 1.209695-.30216c.362893-.25221.5383-.60511.718755-1.00009.180456-.39497.33731-.84115.504347-1.26156s.318485-.83556.475555-1.08586c.07853-.12515.167511-.20007.21012-.23565z"/></g></svg>