<svg height="16" width="16" xmlns="http://www.w3.org/2000/svg"><g stroke="#bebebe" stroke-linejoin="round"><circle cx="7.5" cy="7.503878" fill="#bebebe" opacity=".35" r="1.812139" stroke-width="1.875723"/><path d="m7.50005 3.7539996v-3.00000004" fill="none" opacity=".35" stroke-linecap="round"/><path d="m7.49995 11.246879v3" fill="none" opacity=".35" stroke-linecap="round"/><path d="m11.24644 7.4999498h3" fill="none" opacity=".35" stroke-linecap="round"/><path d="m3.7535605 7.5003891h-3" fill="none" opacity=".35" stroke-linecap="round"/><path d="m10.149168 4.8513416 2.121321-2.1213204" fill="none" opacity=".35" stroke-linecap="round"/><path d="m4.8508318 10.149537-2.1213204 2.12132" fill="none" opacity=".35" stroke-linecap="round"/></g><path d="m10.144531 9.6445312a.50005.50005 0 0 0 -.347656.8574218l.203125.203125v-.705078h.708984l-.205078-.2050781a.50005.50005 0 0 0 -.359375-.1503907z" fill="#bebebe" opacity=".35"/><path d="m4.8509028 4.8512708-2.1213204-2.1213203" fill="none" opacity=".35" stroke="#bebebe" stroke-linecap="round" stroke-linejoin="round"/><path d="m10.999869 11h1.375l1.125 1.09375 1.09375-1.09375h1.40625v1.46875l-1.09375 1.0625 1.09375 1.0625v1.40625h-1.4375l-1.0625-1.0625-1.0625 1.0625h-1.4375v-1.40625l1.0625-1.0625-1.0625-1.0625z" fill="#bebebe"/></svg>