<svg height="16" width="16" xmlns="http://www.w3.org/2000/svg"><g fill="#bebebe" transform="translate(-201.0002 -357)"><path d="m208.7502 358c-1.73094.0864-3.41683.92045-4.53125 2.40625-.37148.49528-.64784 1.03758-.84375 1.59375h2.21875c.0797-.13684.1525-.27626.25-.40625 1.33264-1.77674 3.81698-2.1139 5.59375-.78125 1.77673 1.33264 2.1139 3.81699.78125 5.59375-.3221.42949-.73294.76958-1.1875 1.03125v-1.4375h-1.02773l.0277 5h4c.0623.006.12519.006.1875 0h.8125v-.8125c.0237-.0916.0342-.18665.0312-.28125-.008-.0423-.0182-.0841-.0312-.125-.10014-.44715-.5419-.79228-1-.78125h-1.6875c.57793-.3823 1.08222-.84928 1.5-1.40625.86676-1.15564 1.25228-2.53198 1.1875-3.875-.009-.19188-.0353-.37223-.0625-.5625-.21741-1.52218-1.02301-2.97815-2.34375-3.96875-1.15562-.86677-2.52871-1.25471-3.875-1.1875z"/><path d="m205.03125 363.9375c-1.08877 0-2 .87892-2 1.96875v1.59375h1v-1.59375c0-.55143.45371-.96875 1-.96875s.96875.41732.96875.96875v1.5625h1v-1.5625c0-1.08983-.87998-1.96875-1.96875-1.96875z"/><path d="m202.06514 367h5.966215v4.062607h-5.966215z"/></g></svg>