<svg height="16" width="16" xmlns="http://www.w3.org/2000/svg"><path d="m195.07599 369.90653a1.0001 1.0001 0 0 0 -.0314-.12504 1.0001 1.0001 0 0 0 -1-.78125h-1.68749c.57793-.3823 1.08222-.84927 1.5-1.40624.86676-1.15564 1.25227-2.53199 1.18749-3.87501-.009-.19188-.0353-.37222-.0625-.56249-.21741-1.52218-1.02304-2.97814-2.34378-3.96874-2.64143-1.98119-6.42504-1.42267-8.40624 1.21875-1.98122 2.64147-1.42266 6.42504 1.21875 8.40624a1.0063276 1.0063276 0 0 0 .59377.18747 1.0063276 1.0063276 0 0 0 .1562.00003h.84375l.00001-.81251-.00003-.0938a1.0063276 1.0063276 0 0 0 -.00002-.0938 1.0063276 1.0063276 0 0 0 -.40627-.81248c-1.77675-1.33265-2.11391-3.81701-.78125-5.59376 1.33264-1.77674 3.81698-2.11389 5.59375-.78124 1.77673 1.33264 2.1139 3.81698.78125 5.59374-.3221.42949-.73294.76958-1.1875 1.03125l-.00001-1.43749a1.0001 1.0001 0 0 0 -1-1 1.0001 1.0001 0 0 0 -.21874-.00002l-.78124.00001v.84375l-.00003.15622v4.00001.99999l1 .00001 4.00001-.00001a1.0001 1.0001 0 0 0 .1875-.00008h.81249l-.00001-.81251a1.0001 1.0001 0 0 0 .0313-.28123z" fill="#bebebe" transform="translate(-181.0002 -357)"/></svg>