<svg height="16" width="16" xmlns="http://www.w3.org/2000/svg"><g fill="#bebebe" transform="translate(-300.99995 -217)"><path d="m303 218v1 6c0 2.07167 1.5096 3.68102 2.84375 4.875s2.65625 2 2.65625 2l.5.28125.53125-.3125s1.29429-.79757 2.625-2 2.84375-2.79945 2.84375-4.84375v-6-1h-1-10zm2 2h8v5c0 .91968-.98696 2.31843-2.15625 3.375-.90589.81857-1.47889 1.139-1.84375 1.375-.35377-.22243-.92859-.52475-1.84375-1.34375-1.16585-1.04335-2.15625-2.42724-2.15625-3.40625z"/><path d="m308.99995 221v7.5c-.41988-.29448-.58096-.35517-1.15625-.875-1.08858-.98364-1.84375-2.26762-1.84375-2.625v-4z"/></g></svg>