<svg height="16" width="16" xmlns="http://www.w3.org/2000/svg"><g fill="#bebebe"><g transform="translate(-101.0002 -397)"><path d="m108.99741 398.0051c.2659-.00099.49859.1006.6647.2393.16611.13869.27741.32137.38968.50028.22453.35782.39269.76873.56546 1.20357.17277.43483.34713.88766.5046 1.23232.15747.34465.3456.57871.35862.58776.0129.009.30722.117.69577.15181.38854.0348.88122.0492 1.36324.0694s.97029.0362 1.39304.12817c.21138.046.4154.10148.60434.20956.18895.10808.3669.28631.45004.53002.0831.24371.049.50627-.0364.70157-.0854.19531-.22656.36514-.3682.52344-.2833.31663-.6327.60557-1.0079.89849s-.77671.55926-1.06775.81027-.45423.50796-.45912.52271c-.005.0146-.0312.33498.0546.70231.0858.36732.2238.81174.35282 1.26034.12902.44861.25176.90196.29171 1.31835.02.20819.0428.40729-.005.61409-.0481.20679-.1845.43007-.39902.58168-.2145.15161-.44936.1881-.66823.1701s-.43535-.0703-.63515-.15132c-.39961-.16214-.80177-.42851-1.20642-.68231s-.80822-.52155-1.14555-.71107c-.33734-.18952-.6484-.2686-.66445-.26854-.0159.00006-.30338.0951-.63894.28732-.33555.19221-.72532.46503-1.12761.72205-.40228.25702-.81995.49752-1.21801.66284-.19903.0827-.38893.15086-.60763.17059-.21869.0197-.47978-.031-.69551-.18105-.21572-.15001-.33927-.35235-.38918-.55877-.0499-.20642-.0429-.43517-.0248-.64358.0363-.41683.15899-.86394.2841-1.31372s.26164-.88661.3442-1.25475c.0826-.36813.0717-.68662.0667-.70133-.005-.0145-.18747-.25247-.4806-.50101-.29314-.24854-.67599-.53755-1.05363-.82731s-.76716-.57158-1.05312-.88579c-.14298-.1571-.2418-.33444-.32882-.52904-.087-.1946-.136-.42874-.0548-.67306s.27108-.41314.45912-.52272c.18803-.10958.36679-.18158.57782-.22931.42206-.0955.91359-.14009 1.39556-.16426.48198-.0242.94584-.039 1.3342-.077s.71565-.13122.72859-.14037c.0128-.009.18402-.23636.33841-.58217.15438-.34581.32658-.78819.49548-1.22429.16889-.4361.33476-.86429.55609-1.2238.11066-.17977.23335-.35397.39826-.49396.1649-.13999.40309-.25684.66899-.25783zm-.009.99424c-.0422.0358-.10671.13602-.1841.26173-.15478.25141-.33068.6272-.49397 1.04883s-.31905.88645-.49599 1.28277c-.17693.39633-.31456.73379-.67529.98889-.36072.25509-.77019.29763-1.21525.34118-.44505.0435-.92881.0532-1.3948.0765-.46599.0234-.91824.0697-1.21348.13647-.14763.0334-.25558.0572-.30381.0853.0223.0498.0796.15478.17956.26464.19997.21973.53749.48746.90261.7676.36511.28015.77803.57219 1.11398.85704s.63992.53221.77987.94209c.13996.40986.054.77681-.0406 1.19869-.0946.42189-.25406.87813-.37502 1.31299s-.22688.84692-.25228 1.13851c-.0116.13264.017.23485.0278.29267.0599-.008.17641-.0324.30381-.0853.27837-.11561.6465-.32808 1.03543-.57657.38894-.24849.8039-.53053 1.18847-.75081s.70791-.39837 1.15514-.40015c.44722-.002.79205.17245 1.17864.38965.38658.21719.78437.49517 1.1756.74055s.77636.4507 1.0559.56412c.13977.0567.24615.0856.3023.0902.0102-.0578.0152-.16008.003-.29243-.0279-.29118-.13818-.70893-.26291-1.14264-.12474-.43372-.25404-.89785-.35232-1.31883-.0983-.42099-.18672-.78846-.0503-1.19943.13645-.41097.43218-.64202.76571-.92967.33353-.28766.70551-.58555 1.06826-.86876.36275-.2832.71779-.56075.91597-.78224.0991-.11075.16221-.21163.1841-.26173-.0483-.0276-.15448-.058-.30229-.0902-.29563-.0643-.74518-.10714-1.21121-.1267-.46604-.0196-.94824-.0298-1.39355-.0697s-.84679-.0499-1.20969-.30216c-.3629-.25221-.5383-.60511-.71876-1.00009-.18045-.39497-.33731-.84115-.50434-1.26156-.16704-.42041-.31849-.83556-.47556-1.08586-.0785-.12515-.16751-.20007-.21012-.23565z"/><path d="m109.0002 398.5c.92654-.003 1.43567 3.13373 2.1875 3.65625.75154.52231 4.02289.0261 4.3125.875.28973.84921-2.65482 2.27358-2.9375 3.125-.28257.85109 1.24718 3.69066.5 4.21875-.74748.5283-3.10471-1.72244-4.03125-1.71875-.008.00003-.0226-.00041-.0312 0z"/></g><path d="m8.0011708 1.381985c-.2504824-.000933-.4696814.09477-.6261609.225425-.1564794.130648-.2613298.302736-.3670882.471272-.2115074.337073-.3699227.724157-.5326751 1.133784-.1627523.409618-.3270034.836191-.475341 1.160867-.1483376.324666-.3255575.545155-.3378263.55368-.012124.0085-.2894038.110216-.6554228.143008-.3660181.03278-.8301237.04635-1.2841959.06538-.4540723.01903-.9140358.0341-1.31227.120738-.1991208.04333-.391314.0956-.5693016.19741-.1779876.101813-.3456206.269709-.4239465.499288-.078329.229579-.046168.476915.034252.660891.08042.183985.2134254.343968.3468556.49309.2668698.298271.5960154.570457.9494585.846393.353443.275936.7316753.526832 1.005842.763288.2741666.236456.427886.478507.4325009.492402.00452.01375.029381.315557-.051397.661589-.080778.346021-.2108244.764672-.3323616 1.187261-.1215382.422599-.2371624.849663-.2747903 1.241909-.018812.196119-.040366.383675.00499.578484.045349.1948.1738003.405133.37588.547952.2020703.14282.4233041.177194.6294872.160238.2061831-.01696.4101045-.06622.5983252-.142546.3764415-.152739.7552786-.403664 1.1364659-.642748.3811865-.239084.7613555-.49131 1.079131-.669841.3177754-.178531.6108022-.253026.6259235-.252969.01494.000056.2857902.08959.6018889.27066l.427155-10.058725c-.1042511-.169346-.2198216-.333445-.3751669-.465319-.1553453-.131873-.3797178-.241947-.6302003-.24288z" opacity=".35" stroke-width=".942018"/></g></svg>