<svg height="16" width="16" xmlns="http://www.w3.org/2000/svg"><g fill="#bebebe" transform="translate(-181.03125 -397.00006)"><path d="m183.5002 398s-1.5 0-1.5 1.5v11.9688s0 1.5312 1.5 1.5312h7.5v-2h-7.00005v-11h1.00005v-2zm8.5 0v2h1v7h2v-7.5c0-1.5-1.5-1.5-1.5-1.5z"/><rect height="3.999939" rx=".499998" ry=".499939" width="4.96895" x="186.03125" y="397.00006"/><path d="m192 408h1.375l1.125 1.09375 1.09375-1.09375h1.40625v1.46875l-1.09375 1.0625 1.09375 1.0625v1.40625h-1.4375l-1.0625-1.0625-1.0625 1.0625h-1.4375v-1.40625l1.0625-1.0625-1.0625-1.0625z"/></g></svg>