<svg height="16" width="16" xmlns="http://www.w3.org/2000/svg"><g transform="translate(-161.03125 -397.00005)"><path d="m162.0002 399.5v11.9688c0 1.5312 1.5 1.5312 1.5 1.5312h4.5v-2h-4v-11h1v-2h-1.5s-1.5 0-1.5 1.5zm10-1.49995v2h1.03125v4.03125l1.96875-.0313v-4.5c0-1.50004-1.5-1.5-1.5-1.5zm-6.9375 4.03125v6.96875l2.9375-.00005v-3.00191s0-1.99809 2-1.99809h2v-2z" fill="#bebebe"/><rect fill="#bebebe" height="3.99995" rx=".499998" ry=".49995" width="4.968957" x="166.03125" y="397.00006"/><path d="m170.0002 405c-1 0-1 1-1 1v6s0 1 1 1h6c1 0 1-1 1-1v-6c0-1-1-1-1-1zm2 1 2.03125.00005v4l-2.03125-.00005zm0 5 2.03125.00005-.0312.99995h-2z" fill="#f57900"/></g></svg>