<svg height="16" width="16" xmlns="http://www.w3.org/2000/svg"><path d="m12 8a4 4 0 0 0 -4 4 4 4 0 0 0 4 4 4 4 0 0 0 4-4 4 4 0 0 0 -4-4zm-1.03125 1h2.03125v4h-2.03125zm0 5h2.03125l-.03125 1h-2z" fill="#f57900" opacity=".2"/><g fill="#bebebe"><path d="m2.46875 1s-1.5 0-1.5 1.5v11.96875c0 1.5312 1.5 1.53125 1.5 1.53125h6.5683594c-.6950113-.517062-1.2582199-1.199029-1.6113282-2h-4.4570312v-11h1v-2zm8.5 0v2h1.03125v4c.69858 0 1.363333.1483457 1.96875.4101562v-4.9101562c0-1.50004-1.5-1.5-1.5-1.5zm0 4-6.9375.03125v6.96875h2.96875c0-2.3959337 1.7099474-4.4114355 3.96875-4.890625z"/><rect height="3.99995" rx=".499998" ry=".49995" width="4.968957" x="5" y=".000011"/></g></svg>