<svg height="16.072405" width="16" xmlns="http://www.w3.org/2000/svg"><g fill="#bebebe"><path d="m8.00022.07240486c-.54132 0-1.60848.21402544-1.60848.21402544-.34046.0456755-.14937.69003076-.0212.9989857.0612.147471.93595.3366998.93595.3366998l-.0212.9787664s-1.46549.2140254-1.92404.601618c-.45855.3869332-.82896.437506-1.38777 1.7229484-.34922.80357-.76807 4.6396777-1.04058 5.8318194-.27285 1.192133-.59952 1.315137-.59952 1.315137h11.33365s-.32667-.123004-.59952-1.315137c-.27251-1.1921417-.69136-5.0282494-1.04057-5.8318194-.55881-1.2854424-.92922-1.3360152-1.38778-1.7229484-.45855-.3875926-1.92404-.601618-1.92404-.601618l-.0212-.9787664s.87472-.1892288.93595-.3366998c.12818-.30895494.31927-.95331016-.0212-.9989857 0 0-1.06716-.21402544-1.60847-.21402544z" stroke-width=".331304"/><path d="m14.468285 13.072501-12.9256966-.000096c-.2514126.000202-.3486647.425699-.3510528.680814-.00202.255145.081557.691711.3404279.691508h4.9042039c-.00202.0255-.010625.04827-.010625.07447 0 .855837.706416 1.553194 1.5744702 1.553194.8680644 0 1.5744803-.697357 1.5744803-1.553194 0-.02995-.0081-.05596-.010625-.0851h4.9042031c.253538-.000212.340226-.426901.340429-.680853.000192-.253931-.08611-.681065-.340429-.680853z" stroke-width=".340427"/></g></svg>