<svg height="16.072405" width="16" xmlns="http://www.w3.org/2000/svg"><g fill="#bebebe" stroke-width=".33643" transform="translate(-201.0002 -397)"><path d="m209.00042 397.07241c-.54132 0-1.60848.2207-1.60848.2207-.34046.0471-.14937.71155-.0212 1.03014.0612.15207.93595.3472.93595.3472l-.0212 1.00929s-1.46549.2207-1.92404.62038c-.45855.399-.82896.45115-1.38777 1.77668-.34922.82863-.76807 4.78437-1.04058 6.01369-.27285 1.22931-.59952 1.35615-.59952 1.35615l5.66683-.0104 5.66682.0104s-.32667-.12684-.59952-1.35615c-.27251-1.22932-.69136-5.18506-1.04057-6.01369-.55881-1.32553-.92922-1.37768-1.38778-1.77668-.45855-.39968-1.92404-.62038-1.92404-.62038l-.0212-1.00929s.87472-.19513.93595-.3472c.12818-.31859.31927-.98304-.0212-1.03014 0 0-1.06716-.2207-1.60847-.2207z"/><path d="m215.39258 410.10772-12.7739.0104c-.24846.0002-.34457.41021-.34693.66233-.002.25215.0806.68359.33643.68339h4.84661c-.002.0252-.0105.0477-.0105.0736 0 .84579.69812 1.53496 1.55598 1.53496.85787 0 1.55599-.68917 1.55599-1.53496 0-.0296-.008-.0553-.0105-.0841h4.84661c.25056-.00021.33623-.42189.33643-.67286.00019-.25095-.0851-.67307-.33643-.67286z"/></g></svg>