<svg height="16" viewBox="0 0 16 16" width="16" xmlns="http://www.w3.org/2000/svg"><g fill="#bebebe"><path d="m11.15625.00976563-3.3046875 5.99023437h3.6933595.455078 2.691406c-.519969-1.7501786-1.718794-3.354773-3.695312-4.3144531zm-3.9960938 1.05664057c-2.7907008.3321004-5.0730544 2.3096869-5.8613281 4.9335938h2.7011719.9121094zm-5.484375 9.9335938c.6224915 1.320867 1.6356215 2.420917 2.9042969 3.128906l.2695313-3.128906h-.8496094zm3.71875 0 .515625.615234.3066407-.615234zm2.6757813 0-.8632813 1.242188 1.671875.173828-4.1835937 3.576172 1.9628906-1.035157c.31822.0382 1.0116605.0625 1.3378907.0625 2.7999072 0 5.2090392-1.645375 6.3300782-4.019531h-2.326172z" opacity=".35"/><path d="m4 7a1.5 1.5 0 0 0 -1.5 1.5 1.5 1.5 0 0 0 1.5 1.5 1.5 1.5 0 0 0 1.5-1.5 1.5 1.5 0 0 0 -1.5-1.5zm4 0a1.5 1.5 0 0 0 -1.5 1.5 1.5 1.5 0 0 0 1.5 1.5 1.5 1.5 0 0 0 1.5-1.5 1.5 1.5 0 0 0 -1.5-1.5zm4 0a1.5 1.5 0 0 0 -1.5 1.5 1.5 1.5 0 0 0 1.5 1.5 1.5 1.5 0 0 0 1.5-1.5 1.5 1.5 0 0 0 -1.5-1.5z"/></g></svg>