<svg height="16" width="16.0002" xmlns="http://www.w3.org/2000/svg"><g fill="#bebebe" transform="translate(-121 -317)"><path d="m124.03145 317c-1.66919 0-3.03125 1.36206-3.03125 3.03125v7.9375c0 1.66919 1.36206 3.03125 3.03125 3.03125h6.96875v-2h-2v-2h7v-6.96875c0-1.66919-1.36206-3.03125-3.03125-3.03125zm0 2h8.9375c.59578 0 1.03125.43547 1.03125 1.03125v5.96875h-11v-5.96875c0-.59578.43547-1.03125 1.03125-1.03125zm-1.03125 8h5v2h-3.96875c-.59578 0-1.03125-.43547-1.03125-1.03125z" opacity=".5"/><path d="m132.0002 328h1.375l1.125 1.09375 1.09375-1.09375h1.40625v1.46875l-1.09375 1.0625 1.09375 1.0625v1.40625h-1.4375l-1.0625-1.0625-1.0625 1.0625h-1.4375v-1.40625l1.0625-1.0625-1.0625-1.0625z"/></g></svg>