<svg height="16" width="16" xmlns="http://www.w3.org/2000/svg"><g fill="#bebebe" transform="translate(-61.0002 -357)"><path d="m74.0002 372v-4.5h-3.5z"/><path d="m64.5002 358c-1.385 0-2.5 1.115-2.5 2.5v5c0 1.385 1.115 2.5 2.5 2.5h9c1.385 0 2.5-1.115 2.5-2.5v-5c0-1.385-1.115-2.5-2.5-2.5zm1.5 2h1c.27614 0 .53779.10029.71875.28125l1.28125 1.28125 1.28125-1.28125c.18096-.18096.44261-.28125.71875-.28125h1v1c0 .27614-.10029.53779-.28125.71875l-1.28125 1.28125 1.28125 1.28125c.18096.18096.28125.44261.28125.71875v1h-1c-.27614 0-.53779-.10029-.71875-.28125l-1.28125-1.28125-1.28125 1.28125c-.18096.18096-.44261.28125-.71875.28125h-1v-1c0-.27614.10029-.53779.28125-.71875l1.28125-1.28125-1.28125-1.28125c-.18096-.18096-.28125-.44261-.28125-.71875z"/></g></svg>