<svg height="16.000637" width="16" xmlns="http://www.w3.org/2000/svg"><g fill="#bebebe" transform="translate(-101.0002 -396.99936)"><path d="m107.70528 397c-.31595.0265-.52774.33667-.4375.64062l.42578 1.54297c-.42482.10963-.83882.26266-1.23828.45703l-1.02149-1.76562c-.0919-.16463-.26863-.26356-.45703-.25586-.38079.0138-.60682.43144-.41015.75781l1.01757 1.75782c-.3383.21721-.66636.45108-.97656.70312l-1.2539-1.25391c-.0945-.0967-.22418-.1509-.35938-.15039-.44709.002-.6672.54472-.34766.85743l1.22071 1.2207c-.28147.26634-.54674.52461-.79297.79297l-.7207-.72071c-.0945-.0967-.22418-.1509-.35938-.15039-.44709.002-.6672.54472-.34766.85743l.76368.76367c-.88547 1.0759-1.41016 1.94531-1.41016 1.94531s.8718 1.45034 2.27539 2.92383l1.10742-1.10742c-.89639-.93384-1.38281-1.81641-1.38281-1.81641s2.13401-4 6-4c.37919 0 .73655.0478 1.08203.11719l1.4668-1.4668c-.2562-.12492-.51595-.24003-.78321-.33203l.57032-1.64648c.1182-.32287-.11717-.66594-.46094-.67188-.21868-.003-.41409.136-.48242.34375l-.59766 1.7207c-.26145-.04154-.52669-.06445-.79492-.06445-.10545 0-.20804.0187-.3125.0254l-.45508-1.65039c-.0563-.21805-.25139-.37157-.47656-.375-.0169-.00086-.0339-.00086-.0508 0zm8.28515 4.43359c-.12976.004-.25303.0575-.34375.15039l-.7207.72071c-.0612-.0667-.13019-.13193-.19336-.19727l-1.09765 1.0957c.8841.92646 1.36523 1.79688 1.36523 1.79688s-2.13401 4-6 4c-.36779 0-.71469-.0458-1.05078-.11133l-1.47852 1.47852c.79576.38497 1.64436.63281 2.5293.63281 4.41828 0 8-6 8-6s-.52469-.86941-1.41016-1.94531l.76368-.76367c.32529-.31801.0914-.86992-.36329-.85743zm-6.99023.56641c-1.65685 0-3 1.34315-3 3 0 .0621.0139.12046.0176.18164l1.84375-1.84375c.0659-.23651.24478-.41384.47656-.47656l.84375-.84375c-.0612-.00372-.11955-.01758-.18166-.01758zm2.98438 2.85352-3.13282 3.13086c.0502.002.0976.0156.14844.0156 1.65685 0 3-1.34315 3-3 0-.0501-.0132-.0969-.0156-.14648z"/><path d="m115.02168 398.02734v.004a1.0001 1.0001 0 0 0 -.0605-.002 1.0001 1.0001 0 0 0 -.6875.30273l-11.95508 11.95313a1.0001 1.0001 0 0 0 -.28711.92187v.79297h.88672a1.0001 1.0001 0 0 0 .81445-.30078l11.95508-11.95313a1.0001 1.0001 0 0 0 .30273-.71875v-1h-.96875z"/></g></svg>