<svg height="16.000637" width="16" xmlns="http://www.w3.org/2000/svg"><g fill="#bebebe"><path d="m1.979779 1.02798v.004a1.0001 1.0001 0 0 1 .0605-.002 1.0001 1.0001 0 0 1 .6875.30273l11.95508 11.95313a1.0001 1.0001 0 0 1 .28711.92187v.79297h-.88672a1.0001 1.0001 0 0 1 -.81445-.30078l-11.95508-11.95313a1.0001 1.0001 0 0 1 -.30273-.71875v-1h.96875z"/><path d="m8.0351562 5.0195312a2.9831696 2.9831696 0 0 0 -.1972656.0097657l3.1718754 3.171875a2.9831696 2.9831696 0 0 0 .007812-.1992188 2.9831696 2.9831696 0 0 0 -2.9824218-2.9824219zm-2.9804687 2.8808594a2.9831696 2.9831696 0 0 0 -.0039063.1015625 2.9831696 2.9831696 0 0 0 2.984375 2.9843749 2.9831696 2.9831696 0 0 0 .0996094-.005859z"/><path d="m6.7050781.00195313c-.31595.0265-.52774.33667499-.4375.64062499l.4257813 1.54296878c-.42482.1096298-.8388213.2626612-1.2382813.4570312l-1.0214843-1.76562498c-.0919-.16463-.2686313-.26355935-.4570313-.25585937-.1535927.00556627-.2698147.08692583-.3554687.19140625l3.3085937 3.3085938c.0094421-.0018821.0178759-.0059762.0273437-.0078126.1450642-.0283801.293268-.0517704.4433594-.0703124.196246-.021543.3930778-.0410157.5996094-.0410157.1967914 0 .386456.0174354.5742188.0371094.1722672.020456.3421092.0467961.5078124.0800781 1.5373998.3088876 2.7236848 1.2171707 3.5527348 2.0859375.8841.92646 1.365234 1.796875 1.365234 1.796875s-.482613.8729355-1.369141 1.8007813c-.002735.0028441-.007022.0049673-.009765.0078125l1.109375 1.1093751c.070068-.074333.123189-.144461.191406-.21875.2403-.26093.464728-.514981.667969-.7617189.08766-.1065061.159897-.1970781.240234-.2988281.179297-.2267863.338217-.432055.478516-.625.06268-.086057.08412-.1140124.138672-.1914062.344968-.4868627.552734-.8222657.552734-.8222657s-.131192-.2165187-.373047-.5683593c-.241856-.3518399-.594374-.8390031-1.037109-1.3769532l.763672-.7636718c.32529-.3180101.09141-.8699119-.363282-.8574219-.12976.004-.25303.057501-.34375.1503906l-.720703.7207031c-.0612-.0667-.130189-.1319256-.193359-.1972656l-.001953.0019531c-.192475-.1993425-.385513-.3969171-.597657-.5976562l-.740234-.6738281c-.3102-.2520401-.638262-.4859151-.976562-.703125l-.871094-.4941407c-.227058-.1104821-.459543-.2037188-.6953126-.2871093-.0284365-.0103597-.0553805-.0253098-.0839844-.0351563l.570313-1.64648438c.118197-.32286999-.117168-.66593499-.460938-.67187499-.21868-.00300001-.4140919.136-.4824219.34374999l-.5976562 1.72070308c-.1586673-.0252096-.3211412-.0285314-.4824219-.0390624-.10446-.0067002-.20705-.0253907-.3125-.0253907s-.20804.0186906-.3125.0253907l-.4550781-1.65039068c-.0563-.21804999-.2513925-.37156999-.4765625-.37499999-.0169-.00086001-.033881-.00086001-.0507813 0zm-5.71093748 4.43359377c-.00388999.0000173-.00590962.0038062-.00976562.0039062-.10639596.0023-.19952008.0339467-.27539062.0878907h-.00195313c-.019437.0138749-.02594355.0383294-.04296875.0546874-.0512968.0493051-.10211786.098799-.12890625.1640626-.0111748.02714-.00530995.0572604-.01171875.0859374-.0144528.0644981-.03165965.1289323-.01953125.1953126.0173214.094801.0624386.187279.14257813.265625l.76367182.7636718c-.8854698 1.0759-1.4101562 1.9453125-1.4101562 1.9453125s.20771917.335453.55273438.8222657c.05454919.0773939.07599.1053487.13867187.1914062.14029827.192945.29921842.3982136.47851565.625.080337.1017499.1525702.1923221.2402343.2988281.2032409.2467379.427669.5007889.6679688.7617189.070158.0764.1241751.147879.1972656.224609l.0019532-.001953c.8811374.922762 1.9693487 1.853015 3.1933593 2.445313.1570581.076.3172934.141058.4785157.205078.0740509.02965.147801.058987.2226562.085937.1306436.0465.2615095.08944.3945312.126953.1238274.03549.2492474.062824.375.089844.1100508.02317.2186624.050126.3300782.066406.2401044.03599.4824397.058594.7285156.058594s.4884144-.022654.7285156-.058594c.1114158-.01627.2200275-.043236.3300782-.066406.1257526-.02702.2511727-.054354.375-.089844.1330215-.03751.2638876-.08045.3945312-.126953.074855-.02695.1486063-.056287.222656-.085937.159872-.063484.318814-.127943.47461-.203125l-1.4804691-1.480469c-.1559778.030239-.3149237.055079-.4765625.074219-.185946.01929-.3735679.037109-.5683594.037109s-.3824134-.017819-.5683594-.037109c-.1635797-.019371-.3246495-.043457-.4824218-.074219-1.545079-.301193-2.7445768-1.2192-3.5800782-2.0878906-.8865276-.9278458-1.3691406-1.8007813-1.3691406-1.8007813s.4811839-.867741 1.3632812-1.7929687l-1.0976562-1.0976563c-.0626522.0646846-.1308183.1292795-.1914062.1953125l-.7207032-.7207031c-.0463711-.0474803-.1022098-.0857806-.1621094-.1113281h-.0019531c-.00976-.00408-.021248-.0023994-.03125-.0058594-.048183-.016811-.096505-.0316021-.1484375-.0332031-.0035-.0000961-.0062856.0019831-.0097656.0019531-.002077-.000018-.00377937-.0019631-.00585938-.0019531z"/><path d="m10.873641 2.7521858 1.160253-1.6776972c.10485-.15670104.288968-.24108904.476137-.21825384.378445.044397.570135.47887044.34784.78835644l-1.155718 1.6702378c-.02209.5871068-1.667292.047824-.828512-.5626432z"/><path d="m12.428209 3.9638526 1.207534-1.2986214c.09093-.1000685.218551-.1589421.35368-.1633429.446869-.014233.686544.5201297.378571.8442384l-1.175573 1.264228c-.932498.6412623-1.021527-.1704918-.764212-.6465021z"/></g></svg>