<svg height="16.000637" width="16" xmlns="http://www.w3.org/2000/svg"><g fill="#bebebe"><path d="m8.0351562 5.0175781a2.9831696 2.9831696 0 0 0 -2.984375 2.9824219 2.9831696 2.9831696 0 0 0 2.984375 2.984375 2.9831696 2.9831696 0 0 0 2.9824218-2.984375 2.9831696 2.9831696 0 0 0 -2.9824218-2.9824219zm0 1.625a1.3582944 1.3582944 0 0 1 1.3574219 1.3574219 1.3582944 1.3582944 0 0 1 -1.3574219 1.359375 1.3582944 1.3582944 0 0 1 -1.359375-1.359375 1.3582944 1.3582944 0 0 1 1.359375-1.3574219z"/><path d="m6.7050781 0c-.31595.0265-.52774.336675-.4375.640625l.4257813 1.5429688c-.42482.1096299-.8388213.2626612-1.2382813.4570312l-1.0214843-1.765625c-.0919-.16463-.2686313-.26355936-.4570313-.25585938-.38079.01380001-.6068262.43144248-.4101563.75781248l1.0175782 1.7578125c-.3383.21721-.6663625.451085-.9765625.703125l-1.2539063-1.2539062c-.0945-.0967-.224175-.1509007-.359375-.1503906-.44709.0019999-.6671962.5447118-.3476562.8574218l1.2207031 1.2207032c-.2121424.200739-.4051348.3983106-.5976563.5976562l-.0019531-.0019531c-.06317.06534-.1321594.1305656-.1933593.1972656l-.7207032-.7207031c-.0463711-.0474803-.1022098-.0857807-.1621094-.1113282h-.0019531c-.0097577-.0040819-.0212481-.0024027-.03125-.0058593-.048183-.0168105-.0965047-.0316023-.1484375-.0332031-.0034981-.0000961-.0062938.0019827-.0097656.0019531-.00207728-.000018-.00377938-.001961-.00585938-.0019531-.0038903.0000173-.00590989.0038074-.00976562.0039062-.10639596.002303-.19952007.0339472-.27539062.0878906h-.00195313c-.019437.0138751-.02594352.038329-.04296875.0546875-.0512968.0493048-.10211786.0987986-.12890625.1640625-.01117481.0271402-.00531031.0572602-.01171875.0859375-.01445276.0644978-.03165973.1289323-.01953125.1953125.01732138.0948014.06243857.187279.14257813.265625l.76367182.7636719c-.88546985 1.0759-1.4101562 1.9453125-1.4101562 1.9453125s.20771917.3354529.55273438.8222656c.05454924.0773938.07598996.1053489.13867187.1914063.14029827.192945.29921844.3982136.47851565.625.0803368.10175.1525702.192322.2402343.2988281.2032409.246738.427669.500789.6679688.761719.0701584.076403.1241751.147879.1972656.224609l.0019532-.001953c.8811374.922762 1.9693487 1.853015 3.1933593 2.445313.1570581.075998.3172934.141058.4785157.205078.0740505.029651.147801.058986.2226562.085937.1306436.046502.2615094.089441.3945312.126953.1238273.035492.2492473.062821.375.089844.1100507.023171.2186624.050133.3300782.066406.2401012.035947.4824397.058594.7285156.058594s.4884144-.022647.7285156-.058594c.1114158-.016273.2200275-.043235.3300782-.066406.1257526-.027023.2511727-.054352.375-.089844.1330216-.037512.2638876-.080451.3945312-.126953.0748552-.026951.1486061-.056286.222656-.085937.161222-.06402.321458-.129078.478516-.205078 1.22401-.592297 2.312222-1.522551 3.193359-2.445313l.001953.001953c.073091-.07673.127108-.148206.197266-.224609.2403-.26093.464728-.514981.667969-.761719.087664-.1065061.159897-.1970781.240234-.2988281.179297-.2267863.338217-.432055.478516-.625.062682-.0860574.084122-.1140125.138672-.1914063.345015-.4868126.552734-.8222656.552734-.8222656s-.131192-.2165187-.373047-.5683594c-.241856-.35184-.594374-.8390031-1.037109-1.3769531l.763672-.7636719c.32529-.31801.091408-.8699118-.363282-.8574218-.12976.0039999-.25303.0575006-.34375.1503906l-.720703.7207031c-.0612-.0667-.130189-.1319256-.193359-.1972656l-.001953.0019531c-.192522-.1993456-.385514-.3969172-.597657-.5976562l-.740234-.6738282c-.3102-.25204-.638262-.485915-.976562-.703125l-.871094-.4941406c-.227058-.1104821-.459543-.2037188-.6953126-.2871094-.0284365-.0103595-.0553805-.0253098-.0839844-.0351562l.570313-1.6464844c.118198-.32287-.117168-.665935-.460938-.671875-.21868-.003-.4140919.136-.4824219.34375l-.5976562 1.7207031c-.1586673-.0252095-.3211412-.0285314-.4824219-.0390625-.10446-.0067-.20705-.0253906-.3125-.0253906s-.20804.0186906-.3125.0253906l-.4550781-1.6503906c-.0563-.21805-.2513925-.37157-.4765625-.375-.0169-.00086-.0338813-.00086-.0507813 0zm1.2949219 4c.1967914 0 .386456.0174354.5742188.0371094.1722673.0204557.3421092.0467964.5078124.0800781 1.5373998.3088871 2.7236848 1.2171707 3.5527348 2.0859375.8841.92646 1.365234 1.796875 1.365234 1.796875s-.482613.8729354-1.369141 1.8007812c-.835501.8686908-2.034999 1.7866978-3.5800778 2.0878908-.1577725.030762-.3188421.054849-.4824218.074219-.185946.019286-.3735679.037109-.5683594.037109s-.3824134-.017823-.5683594-.037109c-.1635797-.01937-.3246495-.043457-.4824218-.074219-1.545079-.301193-2.7445768-1.2192-3.5800782-2.0878908-.8865276-.9278458-1.3691406-1.8007812-1.3691406-1.8007812s.4811344-.870415 1.3652344-1.796875c.8355388-.875567 2.0415538-1.7911193 3.5917968-2.0917969.1450642-.0283801.293268-.0517706.4433594-.0703125.196246-.021543.3930778-.0410156.5996094-.0410156z"/><path d="m10.873641 2.7505488 1.160253-1.6776972c.10485-.15670109.288968-.24108909.476137-.21825389.378445.044397.570135.47887049.34784.78835649l-1.155718 1.6702378c-.02209.5871067-1.667292.047824-.828512-.5626432z"/><path d="m12.428209 3.9622156 1.207534-1.2986215c.09093-.1000684.218551-.1589421.35368-.1633428.446869-.014233.686544.5201297.378571.8442384l-1.175573 1.264228c-.932498.6412623-1.021527-.1704918-.764212-.6465021z"/></g></svg>