<svg height="16" width="16" xmlns="http://www.w3.org/2000/svg"><g fill="#bebebe" transform="translate(-120.99995 -297)"><path d="m130.78125 302a1.0001 1.0001 0 0 0 -.5 1.71875l2 2 .71875.6875.71875-.6875 2-2a1.016466 1.016466 0 1 0 -1.4375-1.4375l-1.28125 1.28125-1.28125-1.28125a1.0001 1.0001 0 0 0 -.9375-.28125z"/><path d="m127 298c-1.6447 0-3 1.3553-3 3v8c0 1.6447 1.3553 3 3 3h4v-2h-4c-.5713 0-1-.4287-1-1v-8c0-.5713.4287-1 1-1h4c.5713 0 1 .4287 1 1v4h2v-4c0-1.6447-1.3553-3-3-3z"/><g transform="rotate(-90)"><path d="m-302.99994 129.99995h1v1h-1z"/><path d="m-302.99994 134.99995h1v1h-1z"/></g></g></svg>