<svg height="16" width="16.0002" xmlns="http://www.w3.org/2000/svg"><g transform="translate(-301 -277)"><path d="m310.5 279c-1.28379 0-2.32658.97301-2.46875 2.21875-.32676-.12208-.66191-.21875-1.03125-.21875-1.65685 0-3 1.34315-3 3 0 .0982.0221.1855.0312.28125-.29964-.17924-.65656-.28125-1.0312-.28125-1.10457 0-2 .89543-2 2s.89543 2 2 2h5v-2.125c0-1.01034.86465-1.875 1.875-1.875h5.0625c-.20912-.9858-.99904-1.7583-2-1.9375.0419-.18136.0625-.36843.0625-.5625 0-1.38071-1.11929-2.5-2.5-2.5z" fill="#bebebe"/><path d="m309.8752 285c-.49245 0-.875.38256-.875.875v6.25c0 .49244.38255.875.875.875h6.25c.49245 0 .875-.38256.875-.875v-6.25c0-.49244-.38255-.875-.875-.875zm2.125 1h2v4h-2zm0 5h2v1h-2z" fill="#f57900"/></g></svg>