<svg height="16" width="16" xmlns="http://www.w3.org/2000/svg"><g opacity=".5" transform="translate(-101 -277)"><path d="m108.92773 277.00391a7.9980464 7.9980464 0 0 0 -7.65429 5.92773 7.9980464 7.9980464 0 0 0 3.77148 9.01172c-.02657-.14467-.04492-.29164-.04492-.44336 0-1.19987.92797-2.08548 2.06445-2.31836.17023-1.76678 1.627-3.18164 3.43555-3.18164.98046 0 1.78594.4901 2.41602 1.14258.19902-.04678.36066-.14258.58398-.14258 1.18656 0 2.08188.7708 2.5293 1.79883a7.9980464 7.9980464 0 0 0 .69531-1.72656 7.9980464 7.9980464 0 0 0 -5.6543-9.79493 7.9980464 7.9980464 0 0 0 -2.14258-.27343z" fill="#bebebe" fill-opacity=".333333"/><path d="m108.67383 277.00586c-3.40421.1354-6.46914 2.45562-7.39844 5.92383-.96285 3.59334.68187 7.26311 3.76953 9.01758-.02703-.14586-.04492-.29422-.04492-.44727 0-1.12553.82013-1.96666 1.85938-2.25977.0696-.0975.15046-.1857.24414-.26367.24376-1.56203 1.48967-2.79361 3.07421-2.94531-.043-.0323-.08-.041-.12695-.0879-.0966-.0969-.15483-.17372-.20898-.25-.53248-.22441-.81838-.86879-.64453-1.51758.0804-.30037.25511-.54047.46679-.7168-.12671-.0648-.28154-.13854-.50781-.21679-.79778-.27811-1.60343.12337-2.14844.10547.21425.19848.45365.38993.73633.57031-.81764-.021-1.37549.086-1.92969.19531-.13328.77018.0801 1.46815.32813 2.16016-.63547-.54511-1.21929-1.14481-1.69531-1.83008-.71962.98192-.89367 2.02738-.84375 3.09375-.39205-.84398-.66236-1.63375-.42188-3.07617-.57788.93295-1.22666 1.96606-1.17773 3.49023-.40039-1.4951-.60206-3.00631-.13477-4.57226l-.4043 1.56054.70313-3.16406.73828-1.55273.70898.25586c.10695-.70293.6914-1.36007 1.12696-2.03125.11571.73894.15706 1.51075.60156 2.10546.35974-.73373.98133-1.01409 1.5293-1.42187-.31902-.44764-.63574-.80296-.51367-1.22266.22243-.76829 1.35555-.73061 1.95312-.46484.59764.26578-.047 1.41419.43359 1.52539-.14174.0785-.28004.17527-.40234.29687-.63086.62778-.69312 1.59446-.14062 2.1504.55241.55593 1.5078.5047 2.13867-.12305.63086-.62779.69119-1.59443.13867-2.15039-.32157-.32354-.76604-.42723-1.21875-.3418.46702-.30662.9707-.90625.9707-.90625l1.76563-.30469c-.29978-.12113-.61536-.22866-.93555-.31445-.79966-.21427-1.60308-.30078-2.38867-.26953zm-1.72852 2.22461c-.35523.67287-.9053 1.25494-.90039 2.0918.4141-.0355.81446-.0219 1.20899.0156.0488-.11254.0975-.22735.12695-.35352.0321-.14199.0481-.29685.043-.45898-.0167-.53721-.23811-.94482-.47852-1.29492zm8.71289 1.69922c-.0828-.002-.16823.006-.25781.0312-.37425.10604-.74138.20152-1.05859.38086.52869.3377.78721 1.04897.5957 1.76367-.16127.60188-.59799 1.03648-1.10742 1.17773.40084.65882.90633 1.30985.67578 2.36719-.0414.18985-.0989.3488-.16211.49805.76401.26712 1.34776.88137 1.68164 1.64453.29095-.53793.53618-1.10886.70117-1.72461.57603-2.14977.21373-4.32135-.82617-6.10156-.0798-.0202-.15935-.0346-.24219-.0371zm-11.33203.12304c-.49727.003-.98776.45921-1.16406 1.11719-.20151.75201.0831 1.48183.64648 1.63281.5635.151 1.19107-.33393 1.39258-1.08593.20149-.75198-.0987-1.48574-.66211-1.63672-.0704-.0189-.14185-.0277-.21289-.0274zm-.1875.57227c.0835-.022.16958-.0226.25391 0 .33732.0904.52099.53227.40039.98242-.12063.45013-.50056.74078-.83789.65039-.33732-.0904-.50539-.52837-.38477-.97851.0904-.3376.31778-.58846.56836-.6543zm2.48633.72852c-.10021.0289-.19569.0492-.29687.082.0361.0898.0747.17393.125.25976.028-.11335.0951-.22027.17187-.34179zm9.10352 1.4746c.1892.0379.35037.24206.39453.53516.0145.0982.0139.1978.002.29297-.0103.0711-.0176.13478-.0391.19922h.002c-.0626.1939-.18821.35104-.33594.41211-.26263.10878-.53296-.12279-.59179-.51367-.0584-.39308.11003-.79577.37304-.9043.0657-.0272.13225-.0341.19532-.0215zm-4.14063 1.25977c-.31023.11566-.51223.6777-.79492.94727.83465.0871 1.53889.51244 2.09961 1.08593.007-.0171.0218-.0337.0273-.0508h.002c.31807-.98927-.37291-1.69642-1.08985-1.97656-.0896-.035-.16994-.0335-.24414-.006zm3.34766.20508c.11094-.0463.21159.042.23633.20898.006.0415.0164.0921.0117.13282-.0156.12037-.084.22754-.16796.26171-.11094.0463-.22124-.0605-.2461-.22656-.0248-.16634.0547-.33105.16602-.37695zm.9375.30664c.1127.0258.20809.15314.23437.33008.009.0593.009.12236.002.17968-.0211.17136-.10847.31035-.22657.35938-.15766.0654-.32006-.07-.35547-.30469-.0351-.23605.0707-.48944.22852-.55469.0394-.0163.0796-.0183.11719-.01zm-13.28711 1.29883c.0722-.007.15949.0183.24414.0762.16922.11632.25651.30543.20508.44336-.0513.13746-.22916.15479-.39844.0391-.16921-.11632-.25647-.30544-.20508-.44336.0256-.0688.0821-.10819.1543-.11523z" fill="#bebebe" fill-rule="evenodd"/><path d="m8 0c1.51114 0 2.736328 3.58172 2.736328 8 0 .4351372-.022055.8532447-.044922 1.2695312.461111.2060209.872795.5087252 1.22461.8730468.19902-.04678.360664-.142578.583984-.142578 1.191838 0 2.089757.77762 2.535156 1.8125.615779-1.133546.964844-2.4317875.964844-3.8125 0-4.41828-3.58172-8-8-8z" opacity=".5" transform="translate(101 277)"/><path d="m110.5 287c-1.38071 0-2.5 1.11929-2.5 2.5 0 .21842.0411.42306.0937.625-.17941-.0759-.38659-.125-.5937-.125-.82843 0-1.5.67157-1.5 1.5s.67157 1.5 1.5 1.5h8c.82843 0 1.5-.67157 1.5-1.5s-.67157-1.5-1.5-1.5c0-1.10457-.89543-2-2-2-.31572 0-.60948.0885-.875.21875-.43705-.72779-1.21426-1.21875-2.125-1.21875z" fill="#bebebe"/></g></svg>