<svg height="16" width="16" xmlns="http://www.w3.org/2000/svg"><path d="m7.672875.00586c-3.404192.1354-6.469106 2.45562-7.398401 5.92383-.962845 3.59334.681867 7.26311 3.76951 9.01758-.02703-.14586-.04492-.29422-.04492-.44727 0-1.12553.820126-1.96666 1.859371-2.25977.0696-.0975.150459-.1857.244138-.26367.243759-1.56203 1.489662-2.79361 3.074194-2.94531-.043-.0323-.08-.041-.126949-.0879-.0966-.0969-.15483-.17372-.208979-.25-.532477-.22441-.818376-.86879-.644527-1.51758.0804-.30037.255109-.54047.466788-.7168-.12671-.0648-.281539-.13854-.507808-.21679-.797775-.27811-1.603421.12337-2.148428.10547.214249.19848.453647.38993.736326.57031-.817636-.021-1.375483.086-1.92968.19531-.133279.77018.0801 1.46815.328128 2.16016-.635466-.54511-1.219283-1.14481-1.695301-1.83008-.719616.98192-.893665 2.02738-.843745 3.09375-.392048-.84398-.662357-1.63375-.421878-3.07617-.577877.93295-1.226654 1.96606-1.177724 3.49023-.400388-1.4951-.602057-3.00631-.134769-4.57226l-.404298 1.56054.703126-3.16406.738276-1.55273.708977.25586c.106949-.70293.691396-1.36007 1.126954-2.03125.115709.73894.157059 1.51075.601557 2.10546.359738-.73373.981324-1.01409 1.529291-1.42187-.319018-.44764-.635736-.80296-.513667-1.22266.222429-.76829 1.355543-.73061 1.95311-.46484.597637.26578-.047 1.41419.433588 1.52539-.14174.0785-.280039.17527-.402338.29687-.630857.62778-.693117 1.59446-.14062 2.1504.552407.55593 1.507792.5047 2.138659-.12305.630857-.62779.691187-1.59443.138669-2.15039-.321568-.32354-.766036-.42723-1.218743-.3418.467017-.30662.970695-.90625.970695-.90625l1.765621-.30469c-.299779-.12113-.615357-.22866-.935546-.31445-.799656-.21427-1.603071-.30078-2.388657-.26953zm-1.728511 2.22461c-.355228.67287-.905295 1.25494-.900385 2.0918.414098-.0355.814456-.0219 1.208984.0156.0488-.11254.0975-.22735.126949-.35352.0321-.14199.0481-.29685.043-.45898-.0167-.53721-.238109-.94482-.478517-1.29492zm8.712844 1.69922c-.0828-.002-.168229.006-.257808.0312-.374248.10604-.741377.20152-1.058585.38086.528687.3377.787206 1.04897.595697 1.76367-.161269.60188-.597987 1.03648-1.107414 1.17773.400838.65882.906325 1.30985.675776 2.36719-.0414.18985-.0989.3488-.162109.49805.764006.26712 1.347753.88137 1.681631 1.64453.290949-.53793.536177-1.10886.701167-1.72461.576026-2.14977.213728-4.32135-.826166-6.10156-.0798-.0202-.159349-.0346-.242189-.0371zm-11.33197.12304c-.497267.003-.987755.45921-1.164054 1.11719-.201509.75201.0831 1.48183.646477 1.63281.563497.151 1.191064-.33393 1.392572-1.08593.201489-.75198-.0987-1.48574-.662106-1.63672-.0704-.0189-.141849-.0277-.212889-.0274zm-.187499.57227c.0835-.022.169579-.0226.253909 0 .337318.0904.520987.53227.400388.98242-.12063.45013-.500558.74078-.837886.65039-.337318-.0904-.505387-.52837-.384768-.97851.0904-.3376.317778-.58846.568357-.6543zm2.486317.72852c-.10021.0289-.195689.0492-.296869.082.0361.0898.0747.17393.125.25976.028-.11335.0951-.22027.171869-.34179zm9.103472 1.4746c.189199.0379.350368.24206.394528.53516.0145.0982.0139.1978.002.29297-.0103.0711-.0176.13478-.0391.19922h.002c-.0626.1939-.188209.35104-.335938.41211-.262629.10878-.532958-.12279-.591787-.51367-.0584-.39308.110029-.79577.373038-.9043.0657-.0272.132249-.0341.195319-.0215zm-4.140608 1.25977c-.310229.11566-.512228.6777-.794916.94727.834645.0871 1.538882.51244 2.099599 1.08593.007-.0171.0218-.0337.0273-.0508h.002c.318068-.98927-.372908-1.69642-1.089845-1.97656-.0896-.035-.169939-.0335-.244138-.006zm3.347642.20508c.110939-.0463.211589.042.236329.20898.006.0415.0164.0921.0117.13282-.0156.12037-.084.22754-.167959.26171-.11094.0463-.221239-.0605-.246099-.22656-.0248-.16634.0547-.33105.166019-.37695zm.937495.30664c.112699.0258.208089.15314.234369.33008.009.0593.009.12236.002.17968-.0211.17136-.10847.31035-.226569.35938-.157659.0654-.320058-.07-.355468-.30469-.0351-.23605.0707-.48944.228519-.55469.0394-.0163.0796-.0183.117189-.01zm-13.28704 1.29883c.0722-.007.15949.0183.244139.0762.169219.11632.256509.30543.205079.44336-.0513.13746-.229159.15479-.398438.0391-.169209-.11632-.256469-.30544-.205079-.44336.0256-.0688.0821-.10819.154299-.11523z" fill="#bebebe" fill-rule="evenodd" stroke-width=".999997"/><path d="m7.92773.00391a7.9980464 7.9980464 0 0 0 -7.65429 5.92773 7.9980464 7.9980464 0 0 0 3.77148 9.01172c-.02657-.14467-.04492-.29164-.04492-.44336 0-1.19987.92797-2.08548 2.06445-2.31836.17023-1.76678 1.627-3.18164 3.43555-3.18164.98046 0 1.78594.4901 2.41602 1.14258.19902-.04678.36066-.14258.58398-.14258 1.18656 0 2.08188.7708 2.5293 1.79883a7.9980464 7.9980464 0 0 0 .69531-1.72656 7.9980464 7.9980464 0 0 0 -5.6543-9.79493 7.9980464 7.9980464 0 0 0 -2.14258-.27343z" fill="#bebebe" fill-opacity=".333333"/><path d="m8 0c-3.82635 0-6.92773 3.58173-6.92773 8 0 2.69673 1.15914 5.07615 2.92968 6.52539-.00009-.009-.002-.0167-.002-.0254 0-1.19987.92797-2.08548 2.06445-2.31836.17028-1.76677 1.62705-3.18163 3.4356-3.18163.98046 0 1.78594.4901 2.41602 1.14258.19902-.04678.36066-.14258.58398-.14258 1.19184 0 2.08976.77762 2.53516 1.8125.61578-1.13355.96484-2.43179.96484-3.8125 0-4.41827-3.58172-8-8-8z" opacity=".5"/><path d="m9.5 10c-1.38071 0-2.5 1.11929-2.5 2.5 0 .21842.0411.42306.0937.625-.17941-.0759-.38659-.125-.5937-.125-.82843 0-1.5.67157-1.5 1.5s.67157 1.5 1.5 1.5h8c.82843 0 1.5-.67157 1.5-1.5s-.67157-1.5-1.5-1.5c0-1.10457-.89543-2-2-2-.31572 0-.60948.0885-.875.21875-.43705-.72779-1.21426-1.21875-2.125-1.21875z" fill="#bebebe"/></svg>