<svg height="16.009432" viewBox="0 0 16.021761 16.009432" width="16.021761" xmlns="http://www.w3.org/2000/svg"><g fill="#bebebe" transform="translate(-421 -276.99425)"><path d="m429.05273 277.10547c-.64399-.16587-1.33529-.14866-1.99023.0723a1.0001 1.0001 0 1 0 .63867 1.89454c.56448-.19041 1.18096-.0318 1.58399.4082.40303.43995.50811 1.06964.26953 1.61719-.23859.54755-.76973.89883-1.36524.90234a1.0001 1.0001 0 1 0 .0117 2c1.38234-.008 2.63523-.83605 3.1875-2.10352.55227-1.26746.30495-2.74816-.6289-3.76757-.46693-.50971-1.06304-.85757-1.70704-1.02344z"/><path d="m421 282v2h7.38086v-2z" fill-rule="evenodd"/><path d="m434.9043 281.11914c-.53477-.15751-1.11423-.16181-1.66602.0137a1.0003435 1.0003435 0 1 0 .60742 1.90625c.33541-.10666.68417-.009.93164.28321.24747.29225.3141.73219.15625 1.09961-.15784.36741-.47992.57404-.82617.57617a1.0001 1.0001 0 1 0 .0117 2c1.15822-.007 2.19541-.72353 2.65234-1.78711.45694-1.06359.27923-2.29829-.46875-3.18164-.37398-.44168-.86366-.75265-1.39843-.91016z"/><path d="m428 285v2h6v-2z" fill-rule="evenodd"/><path d="m430.46484 292.99414c-.50186.044-1.01601-.0614-1.4707-.32422a.9914438.9914438 0 1 1 .99219-1.7168c.19328.11173.42455.091.5957-.0527.17115-.14378.2329-.37119.15625-.58203-.0766-.21084-.26742-.3457-.49023-.3457a.99136091.99136091 0 1 1 0-1.98243c1.05042 0 1.99469.66337 2.35351 1.65039.35883.98703.0601 2.10174-.74414 2.77735-.4021.3378-.89072.53221-1.39258.57617z"/><path d="m422 287.99609v2h8.375v-2z" fill-rule="evenodd"/></g></svg>