<svg height="16" width="16.0002" xmlns="http://www.w3.org/2000/svg"><path d="m12 8a4 4 0 0 0 -4 4 4 4 0 0 0 4 4 4 4 0 0 0 4-4 4 4 0 0 0 -4-4zm-1 1h2v4h-2zm0 5h2v1h-2z" fill="#f57900"/><path d="m9.5 2c-1.28379 0-2.32658.97301-2.46875 2.21875-.32676-.12208-.66191-.21875-1.03125-.21875-1.65685 0-3 1.34315-3 3 0 .0982.02205.1855.03125.28125-.29969-.17924-.65661-.28125-1.03125-.28125-1.10457 0-2 .89543-2 2s.89543 2 2 2h5.1015625c.4668778-2.2746078 2.4912288-4 4.8984375-4 .707883 0 1.380358.1534378 1.992188.421875-.03774-1.1925422-.910966-2.1546188-2.054688-2.359375.0419-.18136.0625-.36843.0625-.5625 0-1.38071-1.11929-2.5-2.5-2.5z" fill="#bebebe" opacity=".5"/></svg>