<svg height="16" width="16" xmlns="http://www.w3.org/2000/svg"><g opacity=".5" transform="translate(-101 -277)"><path d="m108.92773 277.00391a7.9980464 7.9980464 0 0 0 -7.65429 5.92773 7.9980464 7.9980464 0 0 0 3.77148 9.01172c-.02657-.14467-.04492-.29164-.04492-.44336 0-1.19987.92797-2.08548 2.06445-2.31836.17023-1.76678 1.627-3.18164 3.43555-3.18164.98046 0 1.78594.4901 2.41602 1.14258.19902-.04678.36066-.14258.58398-.14258 1.18656 0 2.08188.7708 2.5293 1.79883a7.9980464 7.9980464 0 0 0 .69531-1.72656 7.9980464 7.9980464 0 0 0 -5.6543-9.79493 7.9980464 7.9980464 0 0 0 -2.14258-.27343z" fill="#bebebe" fill-opacity=".333333"/><path d="m7.6738281.00585938c-3.4042136.13539626-6.4691406 2.45562312-7.39843748 5.92382812-.96285045 3.5933395.68187185 7.2631105 3.76953128 9.0175785-.0270299-.145853-.0449219-.294221-.0449219-.447266 0-1.125533.8201305-1.966664 1.859375-2.259766.0696083-.097487.1504607-.185705.2441406-.263672.2437605-1.56203 1.4896777-2.7936119 3.0742188-2.945312-.0430435-.0323368-.080047-.0409511-.1269532-.0878906-.0965999-.0969-.1548343-.17372-.2089843-.25-.53248-.22441-.8183813-.8687882-.6445313-1.5175782.0804-.3003699.2551169-.5404668.4667969-.7167968-.12671-.0648-.2815425-.1385469-.5078125-.2167969-.79778-.27811-1.6034275.1233688-2.1484375.1054687.21425.1984801.4536481.3899326.7363281.5703126-.81764-.0210001-1.3754875.0859825-1.9296875.1953124-.13328.77018.080095 1.4681463.328125 2.1601563-.63547-.54511-1.2192925-1.1448081-1.6953125-1.8300781-.71962.98192-.89367 2.02738-.84375 3.0937496-.39205-.8439796-.662355-1.6337515-.421875-3.0761715-.57788.93295-1.22666435 1.9660644-1.1777344 3.4902345-.40038995-1.4951001-.60205558-3.0063157-.13476558-4.5722658l-.40429687 1.5605469.70312505-3.1640625.7382812-1.5527344.7089844.2558594c.10695-.70293.6913931-1.36007 1.1269531-2.03125.11571.73894.1570625 1.5107588.6015625 2.1054688.35974-.73373.9813269-1.014095 1.5292969-1.421875-.31902-.44764-.6357319-.8029563-.5136719-1.22265628.22243-.76828999 1.355555-.73061375 1.953125-.46484374.59764.26578-.0470363 1.41419062.4335938 1.52539062-.14174.0785-.2800438.175265-.4023438.296875-.63086.62778-.693115 1.5944506-.140625 2.1503906.55242.55593 1.5078019.5047031 2.1386719-.1230468.63086-.6277901.6911921-1.5944307.1386719-2.1503907-.32157-.32354-.76604-.4272268-1.21875-.3417969.46702-.30662.9707031-.90624995.9707031-.90624995l1.7656251-.3046875c-.29978-.12113-.615357-.22866313-.935547-.31445313-.7996631-.21426749-1.6030841-.30077654-2.3886719-.26953124zm-1.7285156 2.22460942c-.35523.6728699-.9053006 1.2549368-.9003906 2.0917968.4141-.0355.8144543-.021875 1.2089843.015625.0488-.11254.0975232-.2273556.1269532-.3535156.0321-.14199.0480687-.2968544.0429687-.4589844-.0167-.53721-.2381056-.9448219-.4785156-1.2949218zm8.7128905 1.6992187c-.08284-.0024625-.168232.00625-.257812.03125-.37425.10604-.741384.2015194-1.058594.3808594.52869.3377.787213 1.0489719.595703 1.7636719-.16127.6018799-.597992 1.0364843-1.107422 1.1777343.40084.65882.906331 1.3098475.675781 2.3671875-.041399.1898496-.098891.3487983-.162109.4980474.764007.267121 1.347756.881373 1.681641 1.644531.290954-.537927.53618-1.108855.701171-1.72461.576031-2.1497696.213729-4.3213521-.826171-6.1015621-.07977-.02015-.159348-.0346469-.242188-.0371094zm-11.3320311.1230469c-.497271.0025835-.9877588.459205-1.1640625 1.1171875-.20151.75201.0830544 1.4818325.6464844 1.6328125.5635.151 1.1910681-.3339375 1.3925781-1.0859375.20149-.75198-.0986994-1.4857388-.6621094-1.6367188-.0704363-.0188737-.1418519-.0277128-.2128906-.0273437zm-.1875.5722656c.0835289-.0219461.1695787-.022595.2539062 0 .33732.0904.5209906.5322719.4003907.9824219-.1206301.45013-.5005607.7407806-.8378907.6503906-.33732-.0904-.5053856-.5283756-.3847656-.9785156.09045-.3375975.3177727-.5884586.5683594-.6542969zm2.4863281.7285156c-.10021.0289-.195695.0492313-.296875.0820313.0361.0898.0747.1739356.125.2597656.028-.11335.095095-.2202769.171875-.3417969zm9.103516 1.4746094c.189205.0378642.350378.2420562.394531.5351562.0145.0982001.013953.1977988.001953.2929688-.0103.0711-.017563.1347787-.039062.1992188h.001953c-.0626.1938999-.188208.3510393-.335938.4121093-.26263.10878-.532967-.1227918-.591797-.5136719-.0584-.3930799.110037-.7957668.373047-.9042968.065655-.0271925.132244-.0341058.195313-.0214844zm-4.140625 1.2597656c-.310235.1156561-.512227.6776964-.7949222.9472656.8346542.0871097 1.5388892.5124425 2.0996092 1.0859378.006511-.017108.021844-.033667.027344-.050782h.001953c.31808-.9892695-.372904-1.696422-1.089844-1.976562-.089612-.0350412-.169945-.0335195-.24414-.0058594zm3.347656.2050782c.11094-.0463.211598.0419943.236328.2089843.006.0415.016419.0921225.011719.1328125-.0156.12037-.084009.2275488-.167969.2617188-.11094.0463-.221234-.0604725-.246094-.2265625-.0248-.16634.054746-.3310531.166016-.3769531zm.9375.3066406c.112701.0257536.208095.1531456.234375.3300781.009.0593.009163.1223575.001953.1796875-.0211.17136-.108463.310345-.226563.359375-.15766.0654-.320058-.0700375-.355468-.3046875-.0351-.23605.070715-.4894475.228515-.5546875.039403-.016275.079621-.0183502.117188-.0097656zm-13.2871095 1.2988281c.07217-.0070425.1594906.0182769.2441406.0761719.16922.1163196.2565081.3054296.2050781.4433596-.0512999.13746-.2291574.154792-.3984374.039062-.1692101-.11632-.2564682-.305439-.2050782-.443359.02565-.0688251.0821269-.108192.1542969-.1152345z" fill="#bebebe" fill-rule="evenodd" transform="translate(101 277)"/><path d="m109 277c-4.41828 0-8 3.58172-8 8 0 2.97811 1.63101 5.57194 4.04492 6.94922-.02726-.14645-.04492-.29551-.04492-.44922 0-1.19987.92797-2.08548 2.06445-2.31836.17023-1.76678 1.627-3.18164 3.43555-3.18164.98046 0 1.78594.4901 2.41602 1.14258.19902-.04678.36066-.14258.58398-.14258 1.14806 0 2.01764.72513 2.47852 1.70312.57163-1.10814.90039-2.36543.90039-3.70312 0-4.41828-3.52776-8-7.87891-8z" opacity=".5"/><path d="m110.5 287c-1.38071 0-2.5 1.11929-2.5 2.5 0 .21842.0411.42306.0937.625-.17941-.0759-.38659-.125-.5937-.125-.82843 0-1.5.67157-1.5 1.5s.67157 1.5 1.5 1.5h8c.82843 0 1.5-.67157 1.5-1.5s-.67157-1.5-1.5-1.5c0-1.10457-.89543-2-2-2-.31572 0-.60948.0885-.875.21875-.43705-.72779-1.21426-1.21875-2.125-1.21875z" fill="#bebebe"/></g></svg>