<svg height="16" width="16" xmlns="http://www.w3.org/2000/svg"><g fill="#bebebe" transform="translate(-121 -277)"><path d="m129 280c-2.74958 0-5 2.25041-5 5 0 1.78334.9576 3.36255 2.375 4.25.16853-.0758.34883-.13986.53125-.1875.22859-1.81667 1.71945-3.25 3.59375-3.25 1.00251 0 1.83852.47365 2.5 1.125.175-.0333.30776-.125.5-.125.0432 0 .0823-.002.125 0 .22408-.56633.375-1.16979.375-1.8125 0-2.74959-2.25042-5-5-5z"/><rect height="2" rx=".5625" width="2" x="121" y="284"/><rect height="2" rx=".5625" width="2" x="135" y="284"/><rect height="2" rx=".5625" transform="matrix(0 1 -1 0 414 196)" width="2" x="81" y="284"/><g transform="matrix(-.70710678 .70710678 -.70710678 -.70710678 393.45795 423.59292)"><rect height="2" rx=".5625" width="2" x="81" y="284"/><rect height="2" rx=".5625" width="2" x="95" y="284"/></g><rect height="2" rx=".5625" transform="matrix(.70710678 .70710678 -.70710678 .70710678 267.59292 20.542064)" width="2" x="81" y="284"/><path d="m190.5 326c-1.38071 0-2.5 1.11929-2.5 2.5 0 .21842.0411.42306.0937.625-.17941-.0759-.38659-.125-.5937-.125-.82843 0-1.5.67157-1.5 1.5s.67157 1.5 1.5 1.5h8c.82843 0 1.5-.67157 1.5-1.5s-.67157-1.5-1.5-1.5c0-1.10457-.89543-2-2-2-.31572 0-.60948.0885-.875.21875-.43705-.72779-1.21426-1.21875-2.125-1.21875z" transform="translate(-60 -39)"/></g></svg>