<svg height="16" width="16" xmlns="http://www.w3.org/2000/svg"><g fill="#bebebe" opacity=".5" transform="translate(-81 -277)"><path d="m88.995611 279.99373c-2.749582 0-5.006324 2.25675-5.006324 5.00633s2.256742 5.00633 5.006324 5.00633 5.006324-2.25675 5.006324-5.00633-2.256742-5.00633-5.006324-5.00633z"/><rect height="2" rx=".5625" width="2" x="81" y="284"/><rect height="2" rx=".5625" width="2" x="95" y="284"/><g transform="matrix(0 1 -1 0 374 196)"><rect height="2" rx=".5625" width="2" x="81" y="284"/><rect height="2" rx=".5625" width="2" x="95" y="284"/></g><g transform="matrix(-.70710678 .70710678 -.70710678 -.70710678 353.45794 423.59293)"><rect height="2" rx=".5625" width="2" x="81" y="284"/><rect height="2" rx=".5625" width="2" x="95" y="284"/></g><g transform="matrix(.70710678 .70710678 -.70710678 .70710678 227.59293 20.542061)"><rect height="2" rx=".5625" width="2" x="81" y="284"/><rect height="2" rx=".5625" width="2" x="95" y="284"/></g></g></svg>