<svg height="16" width="16" xmlns="http://www.w3.org/2000/svg"><g fill="#bebebe" transform="translate(-101 -277)"><circle cx="247.07959" cy="-179.04942" fill-opacity=".333333" r="7.998046" transform="matrix(-.25881905 .96592583 -.96592583 -.25881905 0 0)"/><path d="m116.7257 287.06832c.57603-2.14977.21453-4.32196-.82537-6.10217-.15954-.0403-.32155-.055-.50071-.005-.37425.10604-.73993.20163-1.05714.38097.52869.3377.78734 1.04888.59583 1.76358-.16127.60188-.59918 1.03599-1.10861 1.17724.40084.65882.90713 1.31105.67658 2.36839-.3847 1.76415-1.79797 1.57018-2.63042 3.232-.53969 1.07685-.66031 2.16146-.68845 2.81038 2.60742-.75072 4.78451-2.81304 5.53831-5.62625zm-.61709-.9592c-.0211.17136-.10831.31152-.22641.36055-.15766.0654-.31967-.0712-.35508-.30585-.0351-.23605.0716-.48894.2294-.55418.15761-.0651.31607.0848.35111.32071.009.0593.008.12117.00079.1785zm-.0204-1.25294c-.0626.1939-.18923.35084-.33696.41191-.26263.10878-.53169-.12377-.59052-.51465-.0584-.39308.10922-.79622.37223-.90475.26262-.10877.53161.12388.59048.51468.0145.0982.014.19711.002.29228-.0103.0711-.0177.13575-.0392.20019zm-.90455.77823c-.0156.12037-.0834.22881-.16736.26298-.11094.0463-.22162-.0617-.24648-.22779-.0248-.16634.0545-.33087.16577-.37677.11094-.0463.21067.0421.2354.20909.006.0415.0176.0927.0129.13339zm-2.26226 1.43513c.31808-.98927-.37215-1.69651-1.08909-1.97665-.7169-.28033-.85496 1.77866-1.782.85096-.0966-.0969-.15405-.17369-.2082-.24997-.53248-.22441-.81935-.86885-.6455-1.51764.0804-.30037.25566-.54091.46734-.71724-.12671-.0648-.28217-.13866-.50844-.21691-.79778-.27811-1.60354.12267-2.14855.10477.21425.19848.4548.38983.73748.57021-.81764-.021-1.37596.0863-1.93016.19563-.13328.77018.0793 1.46947.32733 2.16148-.63547-.54511-1.21857-1.14589-1.69459-1.83116-.71962.98192-.89379 2.02869-.84387 3.09506-.39205-.84398-.66226-1.63535-.42178-3.07777-.57788.93295-1.22733 1.9673-1.1784 3.49147-.40039-1.4951-.60185-3.00638-.13456-4.57233l-.4036 1.56054.70242-3.16538.73951-1.55155.70864.25493c.10695-.70293.69138-1.35973 1.12694-2.03091.11571.73894.15687 1.51052.60137 2.10523.35974-.73373.98204-1.01295 1.53001-1.42073-.31902-.44764-.63604-.80351-.51398-1.22321.22243-.76829 1.35607-.73054 1.95364-.46477.59764.26578-.0476 1.41434.43303 1.52554-.14174.0785-.28102.17533-.40332.29694-.63086.62778-.69152 1.59393-.13903 2.14987.55242.55593 1.50671.50389 2.13758-.12386.63086-.62779.69149-1.59393.13897-2.14989-.32157-.32354-.76704-.42668-1.21975-.34125.46702-.30662.97123-.90621.97123-.90621l1.76515-.30466c-.29978-.12113-.61503-.22987-.93522-.31566-4.26487-1.14276-8.64349 1.38762-9.78724 5.65618-1.08052 4.03248 1.11911 8.16682 4.96128 9.5756.6081-.0437 2.29699-.18941 2.80711-.6897.0344-.0358.0496-.0727.0777-.10867-.12133.0181-.23877.00025-.30568-.0675-.10774-.10535-.0588-.27794.11877-.38937.11486-.0711.25014-.0993.36173-.0814-.0282-.43243-.40272-.84474-.84659-1.06927-.66652-.33705-2.06938.35279-2.06938.35279.18424-.67875.39569-1.6767 1.46402-1.77869.90955-.0868 1.934.84457 2.717.37164 0 0 2.04085-.987 2.35875-1.97631zm-4.30495 3.56099c-.002.0326-.013.0575-.0243.0907-.0441.13361-.15578.26221-.32483.36663-.33798.20891-.77174.21262-.97506.0143-.20321-.19844-.0943-.51962.2438-.7285.33803-.20893.77175-.21261.97509-.0143.0763.0745.11254.17392.10534.27139zm-1.23537-9.64652c.0321-.14199.047-.29648.0419-.45861-.0167-.53721-.23821-.9446-.47862-1.2947-.35523.67287-.90531 1.25483-.9004 2.09169.4141-.0355.81513-.0213 1.20966.0162.0488-.11254.0979-.22852.12733-.35468zm-.75534 1.36907c-.10021.0289-.19604.0495-.29722.0823.0361.0898.0744.17427.1247.2601.028-.11335.0956-.22116.17238-.34268zm-1.42476.36348c.20149-.75198-.0991-1.48458-.66251-1.63556-.56349-.15099-1.17487.33726-1.37636 1.08924-.20151.75201.0839 1.48055.64733 1.63153.5635.151 1.19003-.33321 1.39154-1.08521zm-.40775-.10923c-.12063.45013-.50065.74072-.83798.65033-.33732-.0904-.50601-.528-.38539-.97814.1206-.45013.48551-.74477.82282-.65439.33732.0904.52115.53205.40055.9822zm-1.75841 4.81034c-.0513.13746-.2297.15493-.39898.0392-.16921-.11632-.25624-.3058-.20485-.44372.0513-.13765.22968-.15489.39898-.0391.16922.11632.25626.30577.20483.4437z" fill-rule="evenodd"/></g></svg>