<svg height="16" width="16" xmlns="http://www.w3.org/2000/svg"><g fill="#bebebe"><path d="m9.5 4c-.2431097 0-.473967.0443452-.6953125.109375 1.7341625.3452364 3.1251115 1.7683287 3.2285155 3.6152344a1.0001 1.0001 0 0 1 .001953.0566406c-.000056.7904911-.12046 1.4963948-.478515 2.1074219s-.869275 1.0475941-1.509766 1.5332031a1.0001 1.0001 0 0 1 -.003906.001953c-.1796603.135119-.3410556.322006-.1933596.136719-.01725.02169-.0295875.037706-.0546875.066406-.00918.0105-.027925.029428-.046875.048828-.128603.313136-.2379459.595895-.4980469.800781.1861913.150905.3423276.328893.4726562.523438h4.7773438c.82843 0 1.5-.67157 1.5-1.5s-.67157-1.5-1.5-1.5c-.20711 0-.41429.0491-.59375.125.0526-.20194.09375-.40658.09375-.625 0-1.22936-.89334-2.22819-2.0625-2.4375.0419-.18136.0625-.36843.0625-.5625 0-1.38071-1.11929-2.5-2.5-2.5zm-5.2480469 2.5703125c-.7555537.5447541-1.2519531 1.4270842-1.2519531 2.4296875 0 .0982.02205.1855.03125.28125-.29969-.17924-.65661-.28125-1.03125-.28125-1.10457 0-2 .89543-2 2s.89543 2 2 2h4.3476562c.1303287-.194545.2864655-.372533.4726563-.523438-.45959-.362614-.7898031-.864115-.7832031-1.515624.002687-.795422.3367799-1.427931.6855468-1.8652349.0457731-.0574021.0866326-.0743761.1328126-.1269531h-1.8203126a1.0001 1.0001 0 0 1 -.9980468-.9433594c-.0290005-.5177328.0509219-1.0064976.2148437-1.4550781z" opacity=".35"/><path d="m7.848177 4.969c1.64243-.092 3.0955 1.17008 3.1875 2.8125-.0001 1.40136-.37771 1.92177-1.59375 2.84375-.19093.14364-.3256.2506-.375.3125-.0494.0621-.0312.0332-.0312.0312.007.52831-.47163 1-1 1s-1.007-.47169-1-1c0-.50239.22424-.94342.46875-1.25.24451-.30663.4913-.51638.71875-.6875.20405-.16056.46083-.38454.6875-.65625.0935-.1121.129-.30766.125-.4375v-.0312c-.0316-.56324-.49926-.9691-1.0625-.9375s-.9691.43676-.9375 1h-2c-.092-1.64243 1.17007-2.9079 2.8125-3zm.1875 8c.55228 0 1 .44772 1 1s-.44772 1-1 1-1-.44772-1-1 .44772-1 1-1z"/></g></svg>