<svg height="16" width="16" xmlns="http://www.w3.org/2000/svg"><g fill="#bebebe" transform="translate(-41.0002 -447)"><path d="m49.7795 452.00772c-.17789.0489-.3419.14728-.46875.28125l-3.03125 3c-.2353.23073-.34458.58283-.28125.90625v.8125h.8125.1875 1.4707l-1.1875 1.27358c-.21461.21931-.32135.53954-.28125.84375-.001.0312-.001.0625 0 .0937v.78125h.84375.15625c.26386.004.52791-.099.71875-.28125l3-2.99234c.18369-.18976.28735-.45466.28125-.71869.003-.0416.003-.0834 0-.125v-.875h-.84375-.15625-1.56445l1.3125-1.28125c.21461-.21931.32135-.53954.28125-.84375.001-.0312.001-.0625 0-.0937v-.78129h-.84375-.0937c-.0208-.00065-.0417-.00065-.0625 0-.0829-.0103-.16709-.0103-.25 0z"/><path d="m46.46875 447c-.49202 0-.796149.22777-1.03125.46875s-.4375.55884-.4375 1.03125v.5h-1-1v1 12 1h1 10 1v-1-12-1h-1-1v-.375-.0312-.0312c-.02385-.43046-.170408-.72033-.40625-1-.22357-.26511-.624895-.52941-1.15625-.53125v-.0312h-.0625-4.90625zm.53125 2h4v1 1h1 1v10h-8v-10h1 1v-1z" opacity=".5"/></g></svg>