<svg height="16" width="16" xmlns="http://www.w3.org/2000/svg"><path d="m64.5002 452c-.27614 0-.5.22386-.5.5v2.96875c0 1.96838 1.25801 3.62455 3 4.25v1.28125h-2c-.56475 0-1 .49007-1 1v1h.84375 2.15625 5 .0937.90625v-1c-.00006-.58435-.47642-.99995-1-1h-2v-1.28125c1.74199-.62545 3-2.28162 3-4.25v-2.96875c0-.27614-.22386-.5-.5-.5s-.5.22386-.5.5c0 .069.006.12768.0312.1875v2.78125c0 1.96415-1.57895 3.53125-3.53125 3.53125s-3.5-1.5671-3.5-3.53125v-2.96875c0-.27614-.22386-.5-.5-.5zm3.9998-4.01288c1.385 0 2.5 1.115 2.5 2.5v5.01288c0 1.385-1.115 2.5-2.5 2.5s-2.5-1.115-2.5-2.5v-5.01288c0-1.385 1.115-2.5 2.5-2.5z" fill="#bebebe" transform="translate(-61 -447)"/></svg>