<svg height="16" width="16.000002" xmlns="http://www.w3.org/2000/svg"><g fill="#bebebe" transform="translate(-61.0002 -467)"><rect height="6.051684" rx="1.862784" transform="matrix(.95982607 -.28059566 .29019891 .95696635 0 0)" width="3.568049" x="-77.762108" y="475.23813"/><path d="m68.968788 468c-3.305456 0-6.023914 3.00835-5.968586 5.71875.04825 2.36557.808593 4.69547 1 5.28125h1.525504c-1.16149-2.29152-1.049064-5.1562-1.049064-5.1562 0-2.37255 2.006651-4.31249 4.492146-4.3125 2.485496 0 4.499787 1.82687 4.492147 4.28125-.02342 1.67413-.171684 2.65858-1.005236 5.1875h1.570681c.224499-.64458.973822-3.19046.973822-5.28125 0-2.8298-2.725958-5.71875-6.031414-5.71875z"/><rect height="6.051684" rx="1.862784" transform="matrix(-.95982607 -.28059566 -.29019891 .95696635 0 0)" width="3.568049" x="-209.83998" y="436.54532"/></g></svg>