<svg height="16" width="16" xmlns="http://www.w3.org/2000/svg"><g fill="#bebebe" transform="translate(-141.0002 -567)"><path d="m572 146.0002h2v6h-2z" transform="matrix(0 1 1 0 0 0)"/><path d="m146.46875 567c-.49033 0-.79607.22846-1.03125.46875s-.4375.52725-.4375 1v.53125h-1-1v1 12 1h1 10 1v-1-12-1h-1-1v-.375-.0312-.0312c-.0239-.4306-.17023-.72105-.40625-1-.22374-.26444-.6267-.52931-1.15625-.53125v-.0312h-.0625-4.90625zm.53125 2h4v1 1h1 1v10h-8v-10h1 1v-1z"/><g transform="matrix(0 1 1 0 0 0)"><path d="m575 146.0002h2v6h-2z"/><path d="m578 146.0002h2v6h-2z"/></g></g></svg>