<svg height="16" width="16" xmlns="http://www.w3.org/2000/svg"><path d="m192.5018 468c1.933 0 3.5 1.567 3.5 3.5 0 1.11938-.526 2.10932-1.34375 2.75.20995.18305.34375.4483.34375.75-.002 2 0 3.05212 0 6 0 .554-.446 1-1 1h-9c-.554 0-1-.446-1-1v-2.15625l-2.5625 1.90625c-.0194.013-.0404.0236-.0625.0312-.0309.005-.0628.005-.0937 0-.0207.002-.0418.002-.0625 0-.0221-.008-.0431-.0182-.0625-.0312-.0221-.008-.0431-.0181-.0625-.0312-.0112-.01-.0217-.02-.0312-.0312-.0112-.01-.0217-.02-.0312-.0312-.0131-.0194-.0236-.0404-.0312-.0625-.002-.0207-.002-.0418 0-.0625v-6.0625c-.002-.0207-.002-.0418 0-.0625.008-.0221.0181-.0431.0312-.0625.01-.0112.02-.0217.0312-.0312.01-.0112.02-.0217.0312-.0312.01-.0112.02-.0217.0312-.0312.01-.0112.02-.0217.0312-.0312.0194-.013.0404-.0236.0625-.0312.0309-.005.0628-.005.0937 0 .0104-.0006.0208-.0006.0312 0 .0112.01.0217.02.0312.0312.0221.008.0431.0181.0625.0312l2.5625 1.90625v-1.15625c0-.3017.1338-.56695.34375-.75-.81775-.64068-1.34375-1.63062-1.34375-2.75 0-1.933 1.567-3.5 3.5-3.5 1.2836 0 2.39085.68846 3 1.71875.60915-1.03029 1.7164-1.71875 3-1.71875zm0 2c-.82843 0-1.5.67157-1.5 1.5s.67157 1.5 1.5 1.5 1.5-.67157 1.5-1.5-.67157-1.5-1.5-1.5zm-6 0c-.82843 0-1.5.67157-1.5 1.5s.67157 1.5 1.5 1.5 1.5-.67157 1.5-1.5-.67157-1.5-1.5-1.5zm3 3.28125c-.15809.26739-.34144.50321-.5625.71875h1.125c-.22106-.21554-.40441-.45136-.5625-.71875z" fill="#bebebe" transform="translate(-181.0002 -467)"/></svg>