<svg height="16" width="16" xmlns="http://www.w3.org/2000/svg"><g fill="#bebebe" transform="translate(359 -487)"><path d="m-355.34375 487c-1.41825 0-2.59375 1.17557-2.59375 2.59375v11.375 1h1 12 1v-1-11.375c0-1.41818-1.1755-2.59375-2.59375-2.59375zm0 2h8.8125c.34449 0 .59375.24859.59375.59375v10.375h-10v-10.375c0-.34516.24926-.59375.59375-.59375z"/><path d="m-354 491.03125v1h.5 5 .5v-1h-.5-5z"/><path d="m-354 493v1h.5 5 .5v-1h-.5-5z"/><path d="m-354 495v1h.5 5 .5v-1h-.5-5z"/><path d="m-354 497v1h.5 5 .5v-1h-.5-5z"/></g></svg>