<svg height="16" width="16" xmlns="http://www.w3.org/2000/svg"><g fill="#bebebe"><path d="m3.1875 0c-1.2016 0-2.1875.98758-2.1875 2.1875v11.625c0 1.19992.9859 2.1875 2.1875 2.1875h9.625c1.2016 0 2.1875-.98758 2.1875-2.1875v-11.625c0-1.19992-.9859-2.1875-2.1875-2.1875zm0 2h9.625c.1238 0 .1875.0566.1875.1875v11.625c0 .1309-.0637.1875-.1875.1875h-9.625c-.1238 0-.1875-.0566-.1875-.1875v-11.625c0-.1309.0637-.1875.1875-.1875z"/><path d="m8.66095 8 1.33905 4c.73426 2.05595 3 .38433 1.4966-1z"/><path d="m7.9902344 2.9726562a4.0133567 4.0133567 0 0 0 -4.0136719 4.0136719 4.0133567 4.0133567 0 0 0 4.0136719 4.0117189 4.0133567 4.0133567 0 0 0 .6015625-.050781l-.8789063-2.6289066c-.0679211-.2022818-.0722973-.2525466-.1230468-.4121094a1.0051566 1.0051566 0 0 1 -.6054688-.9199219 1.0051566 1.0051566 0 0 1 1.0058594-1.0058593 1.0051566 1.0051566 0 0 1 1.0039062.9335937c.1230574.1230108.2333893.2302627.3925782.3984375l1.8769532 1.9863281a4.0133567 4.0133567 0 0 0 .740234-2.3125 4.0133567 4.0133567 0 0 0 -4.0136716-4.0136719z"/></g></svg>