<svg height="16.009148" width="16" xmlns="http://www.w3.org/2000/svg"><g fill="#bebebe" transform="translate(-341.0002 -446.99085)"><path d="m345.67931 450.99343c-.93151-.003-1.68515.76529-1.68971 1.72648.018.74437.0221 1.50686.015 2.26896l2.92137.0153.0189-4.00381-1.26571-.006zm2.40728.0117-.0189 4.00384 2.9215.0153c.015-.7651.03-1.53284.0366-2.26867.003-.96119-.74166-1.7388-1.67322-1.74352l-1.26604-.006zm-4.08639 5.08092c-.0113.83161-.037 1.50046-.0375 2.26595-.009 2.01107 1.55182 3.63807 3.50087 3.64796 1.94903.01 3.52584-1.6012 3.53542-3.6123-.0353-.83655-.046-1.50842-.0375-2.30161z"/><path d="m349.0627 447c-.4543.0495-.88397.2214-1.25.5-.48804.37146-.8125.95486-.8125 1.6875-.004.26416.23582.50712.5.50712s.50374-.24296.5-.50712c0-.4491.17164-.70389.4375-.90625s.66376-.30023 1.0625-.28125c.39874.019.78428.15409 1.0625.40625s.46875.5845.46875 1.125c0 2.1653 1.46382 3.50909 3 3.46875.85672-.0225 1.68825-.47696 2.25-1.3125l-.5625-1c-.37537.9157-1.06785 1.29541-1.71875 1.3125-.96046.0252-1.96875-.72975-1.96875-2.46875 0-.79197-.33682-1.44388-.8125-1.875s-1.08104-.62738-1.6875-.65625c-.15162-.007-.31732-.0165-.46875 0zm6.9375 1.9999c-10 9.3334-5 4.6667 0 0z"/></g></svg>