<svg height="16" width="16.53125" xmlns="http://www.w3.org/2000/svg"><g fill="#bebebe" transform="translate(-260.7502 -467)"><path d="m269.0021 467.00379-1.0019.0275.0312.5c.0471.46556-.20254.96951-.59375 1.21875-.35305.24895-.90493.1983-1.59375.21875-.34855.003-.70297.0839-1.03125.28125-.32828.19733-.64985.5469-.71875 1-.15832.89239.45382 1.63343 1.15625 1.78125.80729.17604 1.64453.0756 2.625 0 .25579-.0197.60056.0205.8125.125.33374.26075.28443.40291.28125.875h-4.90625-.75l-.21875.71875-1.96875 7-.375 1.28125h1.34375 13.875 1.3125l-.375-1.28125-1.90625-6.8125-1.46875 2.21875 1.125 3.875h-11.28125l1.4375-5h3.25c.0102-.0106.0207-.0211.0312-.0312l1.34375-.875.53125-1.0625v-.0312-.46875c-.003-.61146-.40574-1.09656-.84375-1.3125s-.93011-.25063-1.34375-.21875c-.99591.0768-1.73951.12494-2.3125 0h-.0312c-.19949-.042-.41743-.20971-.34375-.625.0189-.12428.0777-.19648.21875-.28125.14101-.0848.35246-.15487.53125-.15625h.0312c.56397-.0167 1.37705.11764 2.09375-.40625.81874-.59848 1.15373-1.39515 1.0625-2.125z"/><path d="m274.12612 469.07046s-2.51922 3.50643-4.04033 5.96897l-1.40567 1.1673.0373 1.57392-.76313 1.24524.69536-.001.74028-.58334 1.67496-.4626.5949-1.48097 4.18505-6.36462z"/><path d="m34.648232 252.43883a.57452428.57452428 0 1 1 -1.149049 0 .57452428.57452428 0 1 1 1.149049 0z" transform="matrix(1.1306064 0 0 1.1306064 236.54995 184.02987)"/></g></svg>