<svg height="16" width="16" xmlns="http://www.w3.org/2000/svg"><path d="m3 4v.0195312c-1.6711.1052001-3 1.8390588-3 3.9804688 0 2.20914 1.41076 4 3.15625 4 1.16684 0 2.17252-.80945 2.71875-2h4.25c.54623 1.19055 1.55191 2 2.71875 2 1.74549 0 3.15625-1.79086 3.15625-4 0-2.14141-1.3289-3.8752687-3-3.9804688v-.0195312h-.15625zm0 2h1v1h1v1h-1v1h-1v-1h-1v-1h1zm9.449219.1113281c.27614 0 .5.22386.5.5s-.22386.5-.5.5-.5-.22386-.5-.5.22386-.5.5-.5zm-1 1c.27614 0 .5.22386.5.5s-.22386.5-.5.5-.5-.22386-.5-.5.22386-.5.5-.5zm2 0c.27614 0 .5.22386.5.5s-.22386.5-.5.5-.5-.22386-.5-.5.22386-.5.5-.5zm-6.0390628.3378907c.0847314 0 .1694501.0327362.234375.0976562l.03125.03125c.1298402.12983.1298402.33891 0 .46875l-.8574218.8515625c-.12982.12983-.3389.12985-.46875 0l-.03125-.03125c-.12983-.12983-.12984-.33892 0-.46875l.8574218-.8515625c.06491-.06492.1496438-.0976562.234375-.0976562zm2 0c.0847314 0 .1694502.0327362.234375.0976562l.03125.03125c.1298401.12983.1298402.33891 0 .46875l-.8574218.8515625c-.12982.12983-.3389.12985-.46875 0l-.03125-.03125c-.12983-.12983-.12984-.33892 0-.46875l.8574218-.8515625c.0649101-.06492.1496438-.0976562.234375-.0976562zm3.0390628.6621093c.27614 0 .5.22386.5.5s-.22386.5-.5.5-.5-.22386-.5-.5.22386-.5.5-.5z" fill="#bebebe"/></svg>