<svg height="16" width="16.0002" xmlns="http://www.w3.org/2000/svg"><path d="m223.5002 570c-1.385 0-2.5 1.115-2.5 2.5v6c0 1.385 1.115 2.5 2.5 2.5h11c1.385 0 2.5-1.115 2.5-2.5v-6c0-1.385-1.115-2.5-2.5-2.5zm2 3c1.37479 0 2.5 1.12521 2.5 2.5 0 .56453-.21241 1.08026-.53125 1.5h3.0625c-.31884-.41974-.53125-.93547-.53125-1.5 0-1.37479 1.12521-2.5 2.5-2.5s2.5 1.12521 2.5 2.5-1.12521 2.5-2.5 2.5h-.5-6-.5c-1.37479 0-2.5-1.12521-2.5-2.5s1.12521-2.5 2.5-2.5zm0 1c-.83435 0-1.5.66565-1.5 1.5s.66565 1.5 1.5 1.5 1.5-.66565 1.5-1.5-.66565-1.5-1.5-1.5zm7 0c-.83435 0-1.5.66565-1.5 1.5s.66565 1.5 1.5 1.5 1.5-.66565 1.5-1.5-.66565-1.5-1.5-1.5z" fill="#bebebe" transform="translate(-221 -567)"/></svg>