<svg height="16" width="16" xmlns="http://www.w3.org/2000/svg"><g fill="#bebebe" transform="translate(-181 -467)"><path d="m184.5625 469c-.84831 0-1.5625.71419-1.5625 1.5625v8.875c0 .84832.71417 1.5625 1.5625 1.5625h7.875c.84834 0 1.5625-.71416 1.5625-1.5625v-7.90625-.40625l-.28125-.28125-1.4375-1.53125-.28125-.3125h-.4375zm.4375 2h6.125l.875.9375v7.0625h-7z"/><path d="m186.93391 472.06839h3.13258c.51728 0 .93371.41643.93371.93371v2.0494c0 .51727-.41643.93371-.93371.93371h-3.13258c-.51728 0-.93371-.41644-.93371-.93371v-2.0494c0-.51728.41643-.93371.93371-.93371z"/></g></svg>