<svg height="16" width="16" xmlns="http://www.w3.org/2000/svg"><g fill="#bebebe" transform="translate(299 -447)"><path d="m7.9882812.99609375c-3.8423099 0-6.99218745 3.14988755-6.99218745 6.99218745 0 3.8422998 3.14987755 7.0156248 6.99218745 7.0156248 3.5574098 0 6.5380038-2.721017 6.9609378-6.1738279-.300449.1022549-.616152.1699219-.949219.1699219-1.17913 0-2.0111-.8006213-2.5-1.8007812-.138968.2842911-.309407.5488664-.503906.7871093v.0019531c0 1.6805401-1.3272727 3.0078128-3.0078128 3.0078128-1.6805499 0-2.984375-1.3272727-2.984375-3.0078128 0-.9166345.3980802-1.7098993 1.0234376-2.2519531.1373588-1.5217834 1.417802-2.7363281 2.9726562-2.7363281v-1.921875c-.3314394-.0487376-.6677605-.08203125-1.0117188-.08203125zm4.0117188 1.27734375v1.5605469c.305514-.280975.665587-.5030713 1.058594-.6503906-.321861-.3370078-.676204-.6417172-1.058594-.9101563zm-3 2.7265625c-.1340417 0-.2595673.0271759-.375.0722656.5261097.1087276.9932615.3562185 1.375.6953125v-.3300781l-.5019531-.2910156c-.16717-.09688-.3348969-.1464844-.4980469-.1464844zm5 0c-.56413 0-1 .43587-1 1s.43587 1 1 1c.369008 0 .66864-.1974764.841797-.484375-.109255-.4992246-.275353-.9775318-.486328-1.4316406-.119415-.0498315-.238857-.0839844-.355469-.0839844z" transform="translate(-299 447)"/><path d="m-290.99496 453.0058c-1.09865 0-2.01317.89789-2.01317 1.99654 0 1.09864.91452 1.99653 2.01317 1.99653s1.99654-.89789 1.99654-1.99653c0-1.09865-.89789-1.99654-1.99654-1.99654zm0 .99827c.55821 0 .99827.44006.99827.99827 0 .5582-.44006.99826-.99827.99826s-.99827-.44006-.99827-.99826c0-.55821.44006-.99827.99827-.99827z"/><path d="m-289 447v1 3.28125c-.29454-.17076-.63503-.28125-1-.28125-1.10457 0-2 .89543-2 2s.89543 2 2 2 2-.89543 2-2v-5h4v3.28125c-.29454-.17076-.63503-.28125-1-.28125-1.10457 0-2 .89543-2 2s.89543 2 2 2 2-.89543 2-2v-5-1h-1-4z"/></g></svg>