<svg height="16" width="16" xmlns="http://www.w3.org/2000/svg"><g fill="#bebebe"><path d="m7.99014.996876c-3.842334 0-6.99414 3.151841-6.99414 6.994141 0 2.78048 1.655137 5.203179 4.023437 6.333984.04493-.06.08841-.121075.140625-.171875.493704-.505763 1.13483-.710359 1.779297-.699219-.230105-.594613-.407653-1.215469-.408203-1.867187-.000098-.316742.03342-.626102.08789-.927735-.964262-.494048-1.613281-1.48828-1.613281-2.667968 0-1.68054 1.303814-2.984375 2.984375-2.984375 1.1263 0 2.082497.592196 2.597656 1.484375.379902-.08834.773856-.140739 1.179687-.140625 1.214935.00022 2.322141.437442 3.212891 1.138672-.26302-3.609939-3.317448-6.492188-6.990234-6.492188zm.01563 5.009766c-1.098657 0-2.011719.897444-2.011719 1.996094 0 .69283.364418 1.305296.908204 1.664062.126582-.318354.286888-.619779.470703-.904297-.219247-.182442-.365235-.447308-.365235-.759765 0-.55821.439834-.998047.998047-.998047.296131 0 .552867.128554.734375.328125.27292-.195111.565053-.363324.873047-.503907-.364476-.496023-.948036-.822265-1.607427-.822265z" stroke-width="1.000003"/><path d="m11.767484 7.350391a4.235142 4.2350193 0 0 0 -4.236328 4.236329 4.235142 4.2350193 0 0 0 1.46875 3.203125c-.180161.253298-.316008.355245-.380859.361328-.08235.0077-.259012-.06299-.50586-.232422-.246846-.169434-.533995-.4132-.939453-.515625-.405458-.102423-.919654.03632-1.320313.458984a.42355654.42354427 0 1 0 .615235.580078c.259189-.273423.341999-.256217.498047-.216797.15605.03942.394552.202954.667968.390625.273418.187672.610683.421483 1.064454.378907.377209-.03539.708626-.288927 1.003906-.712891a4.235142 4.2350193 0 0 0 2.064453.539063 4.235142 4.2350193 0 0 0 4.234375-4.234375 4.235142 4.2350193 0 0 0 -4.234375-4.236329zm-.912109.740235a1.0182774 1.0182479 0 0 1 1.017578 1.017579 1.0182774 1.0182479 0 0 1 -1.017578 1.019531 1.0182774 1.0182479 0 0 1 -1.019532-1.019531 1.0182774 1.0182479 0 0 1 1.019532-1.017579zm2.970703.84375a1.0182865 1.018257 0 0 1 .984375.705079 1.0182865 1.018257 0 0 1 -.654297 1.281249 1.0182865 1.018257 0 0 1 -1.283203-.654296 1.0182865 1.018257 0 0 1 .654297-1.281251 1.0182865 1.018257 0 0 1 .298828-.05078zm-4.683594 1.734375a1.0184673 1.0184378 0 0 1 .300781.05273 1.0184673 1.0184378 0 0 1 .654297 1.283203 1.0184673 1.0184378 0 0 1 -1.283203.654297 1.0184673 1.0184378 0 0 1 -.654297-1.285156 1.0184673 1.0184378 0 0 1 .912109-.703125 1.0184673 1.0184378 0 0 1 .07031-.002zm2.671875.216797a.59476583.5947486 0 0 1 .002 0 .59476583.5947486 0 0 1 .574219.412109.59476583.5947486 0 0 1 -.382813.748047.59476583.5947486 0 0 1 -.75-.382813.59476583.5947486 0 0 1 .38086-.748046.59476583.5947486 0 0 1 .175781-.0293zm2.117188 1.152343a1.0183075 1.0182781 0 0 1 .853515.417969 1.0183075 1.0182781 0 0 1 -.224609 1.423828 1.0183075 1.0182781 0 0 1 -1.423828-.226562 1.0183075 1.0182781 0 0 1 .226562-1.421875 1.0183075 1.0182781 0 0 1 .56836-.19336zm-2.925782 1.072266a1.0182264 1.0181969 0 0 1 .640625.193359 1.0182264 1.0181969 0 0 1 .226563 1.421875 1.0182264 1.0181969 0 0 1 -1.423828.22461 1.0182264 1.0181969 0 0 1 -.22461-1.421875 1.0182264 1.0181969 0 0 1 .78125-.417969z"/></g></svg>