<svg height="16" width="16" xmlns="http://www.w3.org/2000/svg"><g fill="#bebebe" transform="translate(-81.0004 -567)"><path d="m91.821225 569.9226c-.51723.0289-.893987.45912-1.217875.81961-.312986.40363-.632043.84439-.720132 1.35834-.000441.15361.190527.22826.273881.34769.315705.28394.640789.71588.440084 1.15767-.282822.56132-.816802.93361-1.228845 1.39409-.333726.33495-.760964.7905-1.282047.5974-.386469-.14676-.61392-.50331-.915238-.74631-.416899.0323-.784706.29108-1.133451.50474-.446917.3241-.909808.72224-1.071934 1.2696-.09532.43568.362292.66962.645279.89893.706955.51212 1.656625.5798 2.464589.2866 1.301287-.4622 2.349909-1.424 3.273374-2.42025.789291-.89761 1.542952-1.95008 1.644127-3.17843.06931-.86385-.370924-1.72031-1.036536-2.25103l-.06693-.0264-.06834-.0122z"/><path d="m91.90645 577c-.78136.64834-1.70296 1.25106-2.84375 1.65625-1.61391.58567-3.5818.50692-5.1875-.65625-.0425-.0301-.0842-.0614-.125-.0937.0583.0472-.12967-.067-.375-.28125l-1.375 1.37495v3h14v-3l-2-2zm-.40625 1.79687c.38953 0 .70313.3136.70313.70313s-.3136.70313-.70313.70313-.70313-.3136-.70313-.70313.3136-.70313.70313-.70313zm2 .0234c.37655 0 .67969.30314.67969.67969s-.30314.67969-.67969.67969-.67969-.30314-.67969-.67969.30314-.67969.67969-.67969z"/></g></svg>