<svg height="16" width="16.000002" xmlns="http://www.w3.org/2000/svg"><g fill="#bebebe" transform="translate(-61.0002 -467)"><path d="m65.468952 468c-.82099 0-1.46875.64776-1.46875 1.46875v11.0625c0 .82099.64776 1.46875 1.46875 1.46875h7.0625c.82099 0 1.46875-.64776 1.46875-1.46875v-11.0625c0-.82099-.64776-1.46875-1.46875-1.46875zm-.46875 1h8v5h-8zm4 6c1.65685 0 3 1.34315 3 3s-1.34315 3-3 3-3-1.34315-3-3 1.34315-3 3-3z"/><path d="m-170 261a1 1 0 1 1 -2 0 1 1 0 1 1 2 0z" transform="matrix(1.5 0 0 1.5 325.5002 86.5)"/></g></svg>