<svg height="16" width="16" xmlns="http://www.w3.org/2000/svg" xmlns:xlink="http://www.w3.org/1999/xlink"><clipPath id="a"><path d="m26.998718 221.50153h1.876245v4.878324h-1.876245z"/></clipPath><clipPath id="b"><path d="m26.965673 221.28162h2.897728v5.312969h-2.897728z"/></clipPath><clipPath id="c"><path d="m26.849981 220.75h3.825v6.375001h-3.825z"/></clipPath><g fill="#bebebe" transform="translate(-41.0002 -488)"><path clip-path="url(#c)" d="m27.0625 220.5a1.1640267 1.1640267 0 0 0 -.6875 2c.800009.80001.800009 2.07499 0 2.875a1.1640267 1.1640267 0 1 0 1.625 1.625c1.689583-1.68958 1.689583-4.43542 0-6.125a1.1640267 1.1640267 0 0 0 -.9375-.375z" transform="matrix(0 -.784314 .94117704 0 -161.76464 519.059)"/><path clip-path="url(#b)" d="m27.0625 221.125a.55495196.55495196 0 0 0 -.25.9375c1.032743 1.03274 1.032743 2.71726 0 3.75a.55495196.55495196 0 1 0 .78125.78125c1.456849-1.45685 1.456849-3.85565 0-5.3125a.55495196.55495196 0 0 0 -.53125-.15625z" transform="matrix(0 -1.72549 1.8821873 0 -372.49324 542.529)"/><path clip-path="url(#a)" d="m27.125 221.3125a.36160181.36160181 0 0 0 -.21875.59375.36160181.36160181 0 0 0 .03125.0312c1.106624 1.10662 1.106624 2.89338 0 4a.36160181.36160181 0 1 0 .5.5c1.382968-1.38297 1.382968-3.61703 0-5a.36160181.36160181 0 0 0 -.3125-.125z" transform="matrix(0 -2.66667 2.8685171 0 -593.37427 566)"/><path d="m29 209a1 1 0 1 1 -2 0 1 1 0 1 1 2 0z" transform="matrix(1.9999995 0 0 1.9999995 -6.999785 83.0001)"/></g></svg>