<svg height="16" width="16" xmlns="http://www.w3.org/2000/svg"><g fill="#bebebe" transform="translate(-281.00023 -447)"><path d="m284.0002 447c-.57847 0-1.0598.19914-1.46875.5625-.20447.18168-.38952.41779-.5.75s-.11181.77424.0625 1.125l1 2c.0882.17755.20315.42726.375.6875.24004-.0728.4938-.125.75-.125h9.5625c.2562 0 .50996.0522.75.125.17185-.26025.28676-.50995.375-.6875l1-2c.17431-.35076.17298-.79279.0625-1.125s-.29553-.56832-.5-.75c-.40895-.36336-.89028-.5625-1.46875-.5625zm.125 2h9.75l-.78125 1.5625c-.1179.23724-.17682.37121-.21875.4375h-7.75c-.0419-.0663-.10085-.20026-.21875-.4375z"/><path d="m285.0002 453c-.4875 0-.93518.14403-1.3125.4375s-.6875.78189-.6875 1.34375v8.21875h12v-8.21875c0-.56186-.31018-1.05028-.6875-1.34375s-.825-.4375-1.3125-.4375zm0 1h8v6h-8zm7 7h1v1h-1z"/><path d="m284.00021-451h10.000013v2h-10.000013z" opacity=".35" transform="scale(1 -1)"/><path d="m286.00021 458.03125h5.999986v1h-5.999986z"/><path d="m286.00021 455.03125h5.99999v.96875l-5.99999 1z" opacity=".35"/></g></svg>