<svg height="16" width="16" xmlns="http://www.w3.org/2000/svg"><path d="m.53125 1c-.28913 0-.53125.24212-.53125.53125v13.9375c0 .2985.23264.53125.53125.53125h14.9375c.2986 0 .53125-.23265.53125-.53125v-8.9375c0-.2891-.24212-.53125-.53125-.53125h-12.46875v7.5c0 .277-.223.5-.5.5s-.5-.223-.5-.5v-8c0-.277.223-.5.5-.5h2.96875 8.53125v-1.40625c0-.3272-.26666-.59375-.59375-.59375h-7.40625v-1.46875c0-.28915-.24212-.53125-.53125-.53125zm7.6484375 6.3027344h1.1289063 3.3867182 1.128907v1.1289062 4.1816404c.001.0146.005859.028269.005859.042969 0 .0146-.005529.028369-.005859.042969-.02432 1.06399-.903287 1.935547-1.972657 1.935547-1.084419 0-1.9785151-.894086-1.9785151-1.978516 0-1.08442.8940951-1.958984 1.9785151-1.958984.30263 0 .58617.073492.84375.195312v-2.4609374h-3.3867182v4.1816404c.0009999.0146.0058593.028269.0058593.042969 0 1.08442-.8940956 1.978516-1.9785156 1.978516s-1.9785156-.894096-1.9785156-1.978516.8940956-1.958984 1.9785156-1.958984c.30263 0 .58617.073482.84375.195312v-2.4609374zm-.84375 4.5195316c-.4743 0-.8535156.359674-.8535156.833984 0 .4743.3792156.853516.8535156.853516.46825 0 .8425625-.370148.8515625-.835938h-.0078125v-.103516c-.04331-.430399-.39909-.748046-.84375-.748046zm4.5156245 0c-.4743 0-.851562.359674-.851562.833984 0 .4743.377262.853516.851562.853516.459201 0 .82651-.355574.84961-.808594h-.003906v-.13086c-.04331-.430399-.401034-.748046-.845704-.748046z" fill="#bebebe"/></svg>