<svg height="16" width="16.000002" xmlns="http://www.w3.org/2000/svg"><path d="m228.53105 996c-.28913 0-.53125.24212-.53125.53125v10.93755c0 .2985.23264.5312.53125.5312h5.46875v2h-5.53125c-.26299 0-.46875.2057-.46875.4688v1.0624c0 .263.20576.4688.46875.4688h13.0625c.26299 0 .46875-.2058.46875-.4688v-1.0624c0-.263-.20575-.4688-.46875-.4688h-5.53125v-2h5.46875c.2986 0 .53125-.2326.53125-.5312v-5.9376c0-.2891-.24212-.5312-.53125-.5312h-10.46875v4.5c0 .277-.223.5-.5.5s-.5-.223-.5-.5v-5c0-.277.223-.5.5-.5h2.96875 6.53125v-1.40625c0-.32713-.26666-.59375-.59375-.59375h-6.375v-1.46875c0-.28915-.24212-.53125-.53125-.53125z" fill="#bebebe" transform="translate(-227.9998 -996)"/></svg>