<svg height="16" width="16" xmlns="http://www.w3.org/2000/svg"><path d="m.53125 1c-.28913 0-.53125.24212-.53125.53125v13.9375c0 .2985.23264.53125.53125.53125h14.9375c.2986 0 .53125-.23265.53125-.53125v-8.9375c0-.2891-.24212-.53125-.53125-.53125h-12.46875v7.5c0 .277-.223.5-.5.5s-.5-.223-.5-.5v-8c0-.277.223-.5.5-.5h2.96875 8.53125v-1.40625c0-.3272-.26666-.59375-.59375-.59375h-7.40625v-1.46875c0-.28915-.24212-.53125-.53125-.53125zm6.2363281 6.1875a.48341944.48341944 0 0 1 .0449219 0 .48341944.48341944 0 0 1 .046875 0h3.1113281a.48341944.48341944 0 0 1 .3476559.1347656l1.720703 1.7226563a.48341944.48341944 0 0 1 .136719.3476562v4.5624999a.48341944.48341944 0 0 1 -.484375.482422h-4.832031a.48341944.48341944 0 0 1 -.484375-.482422v-6.2851561a.48341944.48341944 0 0 1 .3925781-.4824219zm.5742188.9667969v5.3164061h3.8671871v-3.8671874h-1.4511715v-1.4492187z" fill="#bebebe"/></svg>