<svg height="16" width="16" xmlns="http://www.w3.org/2000/svg"><path d="m.53125 1c-.28913 0-.53125.24212-.53125.53125v13.9375c0 .2985.23264.53125.53125.53125h14.9375c.2986 0 .53125-.23265.53125-.53125v-8.9375c0-.2891-.24212-.53125-.53125-.53125h-12.46875v7.5c0 .277-.223.5-.5.5s-.5-.223-.5-.5v-8c0-.277.223-.5.5-.5h2.96875 8.53125v-1.40625c0-.3272-.26666-.59375-.59375-.59375h-7.40625v-1.46875c0-.28915-.24212-.53125-.53125-.53125zm6.3027344 6.1875c.0159-.00051.031075-.00051.046875 0 .0159-.00051.0330281-.00051.0488281 0h3.2363285c.13277-.00309.265828.048325.361328.140625l1.791015 1.7910156c.09232.09541.144625.2285682.140625.3613282v4.2421872h-.501953v.503906h-.503906v.501954h-.501953v-.501954h-.501953v.501954h-.5039065v-.501954h-.5019531v.501954h-.5039063v-.501954h-.5019531v.501954h-.5039062v-.501954h-.5019532v.501954h-.5019531v-.501954h-.5039063v-.503906h.5039063v-.501953h-.5039063v-.503906h.5039063v-.501953h-.5039063v-.503906-4.0214849c-.0041499-.23459.1777232-.4579531.4082032-.5019531zm.0957031 5.027344h.5019531v.501953h-.5019531v.503906h.5019531v.501953h.5019532v.503906h.5039062v-.503906h.5019531v.503906h.5039063v-.503906h.5019531v.503906h.5039065v-.503906h.501953v.503906h.501953v-.503906-4.0214841h-1.5078125v-1.5097657h-2.5136719v3.0175778.501954h-.5019531zm.5019531 1.507812h-.5019531v.503906h.5019531z" fill="#bebebe"/></svg>