<svg height="16" width="16" xmlns="http://www.w3.org/2000/svg"><g fill="#bebebe"><path d="m208.53105 997c-.28913 0-.53125.24212-.53125.53125v13.93755c0 .2984.23264.5312.53125.5312h14.9375c.2986 0 .53125-.2327.53125-.5312v-8.9376c0-.289-.24212-.5312-.53125-.5312h-3.31836l-1.85352 1.8379-4.29687 1.1465.73437-2.9844h-3.73437v7.5c0 .277-.223.5-.5.5s-.5-.223-.5-.5v-8c0-.277.223-.5.5-.5h2.96875 1.51172l.0918-.3691 1.63476-1.6309h-2.70703v-1.46875c0-.28915-.24212-.53125-.53125-.53125zm13.46875 3.166-.83984.834h.83984z" transform="translate(-207.9998 -996)"/><path d="m13.320312 0c-.119594 0-.24039.047015-.332031.138672l-1.054687 1.054688 1.820312 1.820312 1.054688-1.05664c.183279-.18328.183279-.476877 0-.660157l-1.158204-1.158203c-.09164-.09164-.210483-.138672-.330078-.138672zm-1.855468 1.650391-3.4882815 3.490234-.6015625 2.441407 2.402344-.640625 3.476562-3.501954z" fill-rule="evenodd" stroke-width=".596423"/></g></svg>