<svg height="16" width="16" xmlns="http://www.w3.org/2000/svg"><g fill="#bebebe"><path d="m.53125 1c-.28912971 0-.53125.2421203-.53125.53125v13.9375c0 .2984.2326403.53125.53125.53125h8.4765625c-1.2169788-.914299-2.0078125-2.369902-2.0078125-4 0-1.479109.6518181-2.812874 1.6816406-3.7304688l-2.6816406.7148438.734375-2.984375h-3.734375v7.5c0 .277-.2230003.5-.5.5s-.5-.223-.5-.5v-8c0-.2769997.2230003-.5.5-.5h2.96875 1.5117188l.0917968-.3691406 1.6347656-1.6308594h-2.7070312v-1.46875c0-.2891497-.2421203-.53125-.53125-.53125zm13.46875 3.1660156-.839844.8339844h.839844zm-1.849609 1.8339844-1.101563 1.0917969c.308383-.0600805.625921-.0917969.951172-.0917969 1.630058 0 3.085701.7908137 4 2.0078125v-2.4765625c0-.2889997-.24212-.53125-.53125-.53125zm3.849609 8.992188c-.28637.381199-.626643.721412-1.007812 1.007812h.476562c.2986 0 .53125-.23275.53125-.53125z"/><path d="m12.000002 8a4 4 0 0 0 -3.9999996 4 4 4 0 0 0 3.9999996 4 4 4 0 0 0 4-4 4 4 0 0 0 -4-4zm-1 1.0605469h2v3.9648441h-2zm0 4.9570311h2v.990234h-2z"/><path d="m13.320312-.00000002c-.119594 0-.24039.047015-.332031.13867202l-1.054687 1.054688 1.820312 1.820312 1.054688-1.05664c.183279-.18328.183279-.476877 0-.660157l-1.158204-1.158203c-.09164-.09164-.210483-.13867202-.330078-.13867202zm-1.855468 1.65039102-3.4882815 3.490234-.6015625 2.441407 2.402344-.640625 3.476562-3.501954z" fill-rule="evenodd" stroke-width=".596423"/></g></svg>