<svg height="16" width="16" xmlns="http://www.w3.org/2000/svg"><path d="m.53125 1c-.28913 0-.53125.24212-.53125.53125v13.9375c0 .2985.23264.53125.53125.53125h14.9375c.2986 0 .53125-.23265.53125-.53125v-8.9375c0-.2891-.24212-.53125-.53125-.53125h-12.46875v7.5c0 .277-.223.5-.5.5s-.5-.223-.5-.5v-8c0-.277.223-.5.5-.5h2.96875 8.53125v-1.40625c0-.3272-.26666-.59375-.59375-.59375h-7.40625v-1.46875c0-.28915-.24212-.53125-.53125-.53125zm8.7070312 6.2753906c.28822 0 .5195313.2313213.5195313.5195313 0 .28822-.2313112.5214843-.5195313.5214843-.2882099 0-.5214843-.2332643-.5214843-.5214843 0-.28821.2332744-.5195313.5214843-.5195313zm-.1640624 1.5605469h.3261718c.19815 0 .3574219.1592819.3574219.3574219v.3261718c0 .1981501-.1592719.3574219-.3574219.3574219h-.3261718c-.19815 0-.3574219-.1592719-.3574219-.3574219v-.3261718c0-.19814.1592719-.3574219.3574219-.3574219zm-.0976563 1.5605465h.5214844c.1441 0 .2597656.115656.2597656.259766v.521484c0 .14411-.1156656.259766-.2597656.259766h-.5214844c-.1441 0-.2597656-.115656-.2597656-.259766v-.521484c0-.14411.1156656-.259766.2597656-.259766zm-2.8613281.523438h.8652344c.1460599-.0114.289375.036834.390625.146484l1.8105468 1.931641.0644532.78125.0546874-.78125 1.7968748-1.931641c.09789-.09793.235037-.146484.373047-.146484h.888672v.519531c0 .13801-.048584.2771-.146484.375l-2.7148441 2.744141-.5039063.001953-2.7148437-2.746094c-.09567-.09242-.1580625-.226745-.1640625-.359375-.00024-.0055-.00007-.009625 0-.015625z" fill="#bebebe"/></svg>