<svg height="16" width="16" xmlns="http://www.w3.org/2000/svg"><path d="m.53125 1c-.28913 0-.53125.24212-.53125.53125v13.9375c0 .2985.23264.53125.53125.53125h14.9375c.2986 0 .53125-.23265.53125-.53125v-8.9375c0-.2891-.24212-.53125-.53125-.53125h-12.46875v7.5c0 .277-.223.5-.5.5s-.5-.223-.5-.5v-8c0-.277.223-.5.5-.5h2.96875 8.53125v-1.40625c0-.3272-.26666-.59375-.59375-.59375h-7.40625v-1.46875c0-.28915-.24212-.53125-.53125-.53125zm11.248047 6.625a1.2922794 1.2922794 0 0 1 1.292969 1.2929688 1.2922794 1.2922794 0 0 1 -1.292969 1.2910152 1.2922794 1.2922794 0 0 1 -.867188-.3359371l-2.1914059 1.0664061a1.2922794 1.2922794 0 0 1 .0117188.154297 1.2922794 1.2922794 0 0 1 -.0078125.134766l2.1738286 1.097656a1.2922794 1.2922794 0 0 1 .880859-.347656 1.2922794 1.2922794 0 0 1 1.292969 1.291015 1.2922794 1.2922794 0 0 1 -1.292969 1.292969 1.2922794 1.2922794 0 0 1 -1.292969-1.292969 1.2922794 1.2922794 0 0 1 .011719-.15625l-2.1621095-1.089843a1.2922794 1.2922794 0 0 1 -.8964844.363281 1.2922794 1.2922794 0 0 1 -1.2910156-1.292969 1.2922794 1.2922794 0 0 1 1.2910156-1.2929688 1.2922794 1.2922794 0 0 1 .8925781.3593748l2.1699218-1.050781a1.2922794 1.2922794 0 0 1 -.015625-.1914062 1.2922794 1.2922794 0 0 1 1.292969-1.2929688z" fill="#bebebe"/></svg>