<svg height="16" width="16" xmlns="http://www.w3.org/2000/svg"><g fill="#bebebe"><path d="m208.53105 997c-.28913 0-.53125.24212-.53125.53125v13.93755c0 .2984.23264.5312.53125.5312h8.47656c-1.21698-.9143-2.00781-2.3699-2.00781-4 0-2.7496 2.25043-5 5-5 1.63006 0 3.0857.7908 4 2.0078v-2.4766c0-.289-.24212-.5312-.53125-.5312h-12.46875v7.5c0 .277-.223.5-.5.5s-.5-.223-.5-.5v-8c0-.277.223-.5.5-.5h2.96875 8.53125v-1.40625c0-.3272-.26666-.59375-.59375-.59375h-7.40625v-1.46875c0-.28915-.24212-.53125-.53125-.53125zm15.46875 13.9922c-.28637.3812-.62664.7214-1.00781 1.0078h.47656c.2986 0 .53125-.2327.53125-.5312z" transform="translate(-207.9998 -996)"/><path d="m12.000002 8a4 4 0 0 0 -3.9999996 4 4 4 0 0 0 3.9999996 4 4 4 0 0 0 4-4 4 4 0 0 0 -4-4zm-1 1.0605469h2v3.9648441h-2zm0 4.9570311h2v.990234h-2z"/></g></svg>