<svg height="16" width="16" xmlns="http://www.w3.org/2000/svg"><path d="m.53125 1c-.28913 0-.53125.24212-.53125.53125v13.9375c0 .2985.23264.53125.53125.53125h14.9375c.2986 0 .53125-.23265.53125-.53125v-8.9375c0-.2891-.24212-.53125-.53125-.53125h-12.46875v7.5c0 .277-.223.5-.5.5s-.5-.223-.5-.5v-8c0-.277.223-.5.5-.5h2.96875 8.53125v-1.40625c0-.3272-.26666-.59375-.59375-.59375h-7.40625v-1.46875c0-.28915-.24212-.53125-.53125-.53125zm8.4628906 6.2753906.5039063.0019532 2.7148441 2.7441402c.0979.0979.146484.23699.146484.375v.519532h-.888672c-.13801 0-.275157-.048551-.373047-.146485l-1.7968748-1.9316404-.0546874-.78125-.0644532.78125-1.8105468 1.9316404c-.1012501.109654-.2445651.157885-.390625.146485h-.8652344v-.519532c-.00007-.006-.00024-.010125 0-.015625.006-.13263.068392-.266955.1640625-.359375zm-.0175781 3.1230474h.5214844c.1441 0 .2597656.115655.2597656.259765v.521485c0 .144109-.1156656.259765-.2597656.259765h-.5214844c-.1441 0-.2597656-.115656-.2597656-.259765v-.521485c0-.14411.1156656-.259766.2597656-.259765zm.0976563 1.560546h.3261718c.19815 0 .3574219.159272.3574219.357422v.326172c0 .19814-.1592719.357422-.3574219.357422h-.3261718c-.1981502 0-.3574219-.159282-.3574219-.357422v-.326172c0-.19815.1592718-.357422.3574219-.357422zm.1640624 1.560547c.2882202 0 .5195313.233265.5195313.521485 0 .28821-.2313111.519531-.5195313.519531-.2882099 0-.5214843-.231321-.5214843-.519531 0-.28822.2332744-.521485.5214843-.521485z" fill="#bebebe"/></svg>