<svg height="16" width="16" xmlns="http://www.w3.org/2000/svg"><path d="m.53125 1c-.28913 0-.53125.24212-.53125.53125v13.9375c0 .2985.23264.53125.53125.53125h14.9375c.2986 0 .53125-.23265.53125-.53125v-8.9375c0-.2891-.24212-.53125-.53125-.53125h-12.46875v7.5c0 .277-.223.5-.5.5s-.5-.223-.5-.5v-8c0-.277.223-.5.5-.5h2.96875 8.53125v-1.40625c0-.3272-.26666-.59375-.59375-.59375h-7.40625v-1.46875c0-.28915-.24212-.53125-.53125-.53125zm7.8535156 6.5h2.2929684c.31508 0 .572266.2571856.572266.5722656v.5742188h1.71875c.31625 0 .572266.2571856.572266.5722656v4.583984c0 .31508-.256016.572266-.572266.572266h-6.875c-.31625 0-.5722656-.257186-.5722656-.572266v-4.583984c0-.31508.2560156-.5722656.5722656-.5722656h1.71875v-.5742188c0-.31508.2571856-.5722656.5722656-.5722656zm1.1464844 1.71875c-1.26565 0-2.2910156 1.025366-2.2910156 2.291016 0 1.26564 1.0253656 2.292968 2.2910156 2.292968s2.291016-1.027328 2.291016-2.292968c0-1.26565-1.025366-2.291016-2.291016-2.291016zm0 1.146484c.63283 0 1.146484.511702 1.146484 1.144532s-.513654 1.146484-1.146484 1.146484-1.1464844-.513654-1.1464844-1.146484.5136544-1.144532 1.1464844-1.144532z" fill="#bebebe"/></svg>