<svg height="16" width="16" xmlns="http://www.w3.org/2000/svg"><path d="m.53125 1c-.28913 0-.53125.24212-.53125.53125v13.9375c0 .2985.23264.53125.53125.53125h14.9375c.2986 0 .53125-.23265.53125-.53125v-8.9375c0-.2891-.24212-.53125-.53125-.53125h-12.46875v7.5c0 .277-.223.5-.5.5s-.5-.223-.5-.5v-8c0-.277.223-.5.5-.5h2.96875 8.53125v-1.40625c0-.3272-.26666-.59375-.59375-.59375h-7.40625v-1.46875c0-.28915-.24212-.53125-.53125-.53125zm4.9921875 7h5.4238285c.37695 0 .68164.3026575.68164.6796875v2.3613285l2.359375-2.3613285h.361328v4.7656245h-.339843l-2.38086-2.404296v2.404296c0 .377031-.30469.679688-.68164.679688h-5.4238285c-.37696 0-.6796875-.302658-.6796875-.679688v-4.7656245c0-.37703.3027275-.6796875.6796875-.6796875z" fill="#bebebe"/></svg>