<svg height="16" width="16" xmlns="http://www.w3.org/2000/svg"><g fill="#bebebe"><path d="m6.5847458 5.0441942c-.1380655.0000138-.2499862.1119345-.25.25v5.3202128c.0002634.201668.2269005.32006.3925781.205078l3.5226761-2.6144069c.14267-.099499.14267-.3106575 0-.4101562l-3.5226761-2.7058058c-.0418328-.0291637-.091583-.0448384-.1425781-.0449219z" fill-rule="evenodd"/><path d="m8.0390625 1.1894531c-4.1645778 0-7.7734375 2.4988942-7.7734375 6.8105469 0 4.311654 3.1368991 6.810547 7.7734375 6.810547 4.6365375 0 7.6953125-2.185653 7.6953125-6.810547 0-4.6248938-3.530735-6.8105469-7.6953125-6.8105469zm.0039063 2.2011719c2.5703592 0 4.8867182 1.4913449 4.8867192 4.6074219 0 3.1160781-1.905718 4.7089841-4.8867192 4.7089841-2.9810026 0-4.9628907-1.651186-4.9628907-4.7089841 0-3.0577962 2.3925317-4.6074219 4.9628907-4.6074219z" stroke-width=".464768"/></g></svg>