<svg height="16" width="16" xmlns="http://www.w3.org/2000/svg"><path d="m54.135441 10.855112-41.05903 42.04245c-15.546623 15.541759 10.065442 14.246612 19.333621 20.124585 4.285287 2.789547-13.752782 6.376107-10.065442 10.062293 3.587682 3.686186 21.625751 7.073493 25.213434 10.660053 3.587682 3.686186-7.275023 7.571627-3.68734 11.257817 3.488024 3.68618 11.859283.19925 13.35415 8.56789 1.096236 6.17685 15.347308 3.08842 21.725409-2.19179 3.986314-3.38731-6.876391-3.38731-3.288708-7.07349 8.969205-9.066027 16.941832-4.08469 20.230541-12.453334 1.793841-4.4832-13.553466-7.671253-9.467495-10.560426 9.766469-6.874239 45.643289-10.361173 29.100089-26.899198l-42.553897-43.53685c-5.281866-4.9813335-13.952098-4.9813335-18.835332 0zm47.138159 80.996474c0 2.09216 16.24423 3.28768 15.34731-.498133-1.29556-6.376106-13.55347-5.877973-15.34731.498133zm-69.262199 11.058564c3.68734 3.18805 9.268179-.69739 11.06202-5.180591-3.587682-4.682453-16.842175.29888-11.06202 5.180591zm67.269042-6.674991c-4.584261 4.184321.797267 8.567891 5.281867 5.678721 1.19589-.79701-.0997-4.682454-5.281867-5.678721z" fill="none" stroke-width=".996422"/><g fill="#bebebe" stroke-width=".513594"><path d="m0 7.99923c0 4.411774 3.588996 8.00077 7.999743 8.00077 4.411261 0 8.000257-3.588996 8.000257-8.00077 0-4.40972-3.588996-7.9987163-8.000257-7.9987163-4.410747 0-7.999743 3.5889963-7.999743 7.9987163zm1.618335 0c0-3.519148 2.862774-6.3808946 6.381408-6.3808946s6.382949 2.8617466 6.382949 6.3808946c0 3.520688-2.864315 6.382948-6.382949 6.382948s-6.381408-2.86226-6.381408-6.382948z"/><path d="m8.898019 11.290341c0 .517703-.419606.936796-.937309.936796-.516162 0-.935769-.419093-.935769-.936796v-7.492312c0-.517703.419093-.936796.935769-.936796.517703 0 .937309.419093.937309.936796z"/><path d="m5.815427 11.290341c0 .517703-.42012.936796-.937823.936796-.516162 0-.935769-.419093-.935769-.936796v-3.981382c0-.515649.419607-.935769.935769-.935769.517703 0 .937823.42012.937823.935769z"/><path d="m11.980612 11.290341c0 .517703-.419093.936796-.936796.936796-.516162 0-.935769-.419093-.935769-.936796v-3.981382c0-.515649.419607-.935769.935769-.935769.517703 0 .936796.42012.936796.935769z"/></g></svg>