<svg height="16" width="16" xmlns="http://www.w3.org/2000/svg"><path d="m12.619141 0-1.683594.45117188c.124491.46460653-.150619.94191302-.615235 1.06640622-.4646141.1244933-.9419149-.1506278-1.0664058-.61523435l-.8417968.22460935c.124491.4646067-.1506195.941913-.6152344 1.0664063-.4646065.124491-.9419154-.1506279-1.0664062-.6152344l-.8417969.2246094c.124491.4646064-.1506279.9419153-.6152344 1.0664062-.4646064.124491-.9419153-.1506278-1.0664063-.6152344l-.8417968.2265626c.124491.4646065-.1506279.9419152-.6152344 1.0664062s-.9438684-.152581-1.0683594-.6171875l-1.6816406.4511719.45117188 1.6835937c.46460653-.124491.94191522.1506279 1.06640622.6152344.124491.4646064-.1506278.9419153-.61523435 1.0664063l.22460935.8417968c.4646151-.1244932.9419153.1506279 1.0664063.6152344s-.1506195.9419131-.6152344 1.0664062l.2246094.8417968c.4646065-.1244903.9419152.150628 1.0664062.615234.124491.464607-.1506278.941916-.6152344 1.066407l.2265626.841797c.4646064-.124491.9419152.150627 1.0664062.615234.124491.464608-.152581.943868-.6171875 1.068359l.4511719 1.681641 1.6835937-.451172c-.124491-.464605.1506279-.941915.6152344-1.066406.4646064-.124491.9419153.150629 1.0664063.615234l.8417968-.224609c-.0470907-.175746-.0363619-.352123.0195313-.511719a5 5 0 0 1 -.6074219-2.361328 5 5 0 0 1 .5957031-2.3398438c-.2826486-.0249779-.5556801-.108796-.8261719-.2597656-.5902993.4101366-1.2244064 1.2088474-.9453124 2.2539064l.4707031 1.761719-1.6816407.451172-2.4804687-9.2539068 9.2539065-2.4804687 1.318359 4.9179687a5 5 0 0 1 1.105469.2910157c.079311-.2878244.301972-.5284367.611328-.6113281l-.224609-.8417969c-.464615.1244933-.941916-.1506279-1.066407-.6152344-.124491-.4646064.150619-.9419131.615235-1.0664063l-.226563-.8417968c-.464614.1244932-.941915-.1506279-1.066406-.6152344s.152574-.9438661.617187-1.0683594zm-4.962891 4.9882812a2.0098332 2.0098332 0 0 0 -1.8671875 2.5292969 2.0099718 2.0099718 0 0 0 2.2460937 1.4570313 5 5 0 0 1 1.6113282-1.3710938 2.0099718 2.0099718 0 0 0 .0253906-1.1269531 2.0098332 2.0098332 0 0 0 -2.015625-1.4882813z" fill="#cd656c" stroke-width=".87093"/><path d="m12.000002 8a4 4 0 0 0 -3.9999996 4 4 4 0 0 0 3.9999996 4 4 4 0 0 0 4-4 4 4 0 0 0 -4-4zm-1 1.0605469h2v3.9648441h-2zm0 4.9570311h2v.990234h-2z" fill="#bebebe"/></svg>