<svg height="16" width="16" xmlns="http://www.w3.org/2000/svg"><g fill="#bebebe"><path d="m469.0002 520c-3.86599 0-7 3.13401-7 7s3.13401 7 7 7h.00586c-.63146-.83715-1.00586-1.87703-1.00586-3 0-.6995.14574-1.3666.4082-1.97266-1.24293.00856-3.39943.09888-4.4082.91602v-.5c0-.67944 1.7369-1.40103 4.97852-1.4043.37453-.50641.84225-.93962 1.37695-1.27539-.21693-.18244-.35547-.45347-.35547-.76367v-.96875c0-.55833.44167-1.03125 1-1.03125s1 .47292 1 1.03125v.96875c0 .03424-.00261.06828-.00586.10156.32526-.06715.66151-.10156 1.00586-.10156 1.12297 0 2.16285.3744 3 1.00586 0-.00197 0-.00389 0-.00586 0-3.86599-3.13401-7-7-7zm-2 4c.55833 0 1.03125.47292 1.03125 1.03125v.96875c0 .55833-.47292 1-1.03125 1s-1-.44167-1-1v-.96875c0-.55833.44167-1.03125 1-1.03125z" transform="translate(-461.0002 -519)"/><path d="m12 8a4 4 0 0 0 -4 4 4 4 0 0 0 4 4 4 4 0 0 0 4-4 4 4 0 0 0 -4-4zm-1 1.0605469h2v3.9648441h-2zm0 4.9570311h2v.990234h-2z"/></g></svg>