<svg height="16" width="16.000002" xmlns="http://www.w3.org/2000/svg"><g fill="#bebebe" transform="translate(-501.0002 -175)"><path d="m507.0002 187v2h-5.53125c-.26299 0-.46875.2057-.46875.4688v1.0624c0 .263.20576.4688.46875.4688h13.0625c.26299 0 .46875-.2058.46875-.4688v-1.0624c0-.263-.20575-.4688-.46875-.4688h-5.53125v-2z"/><path d="m505 175c-1.0907 0-2 .9093-2 2v8c0 1.0907.9093 2 2 2h6c1.0907 0 2-.9093 2-2v-8c0-1.0907-.9093-2-2-2zm0 2h6v8h-6z"/><path d="m506.00021 178h4.000001v1h-4.000001z"/><path d="m509.00021 180h.999998v1h-.999998z"/></g></svg>