<svg height="16" width="16.000002" xmlns="http://www.w3.org/2000/svg"><path d="m.53125 1c-.28913 0-.53125.24212-.53125.53125v13.9375c0 .2985.23264.53125.53125.53125h14.9375c.2986 0 .53125-.23265.53125-.53125v-8.9375c0-.2891-.24212-.53125-.53125-.53125h-12.46875v7.5c0 .277-.223.5-.5.5s-.5-.223-.5-.5v-8c0-.277.223-.5.5-.5h2.96875 8.53125v-1.40625c0-.3272-.26666-.59375-.59375-.59375h-7.40625v-1.46875c0-.28915-.24212-.53125-.53125-.53125zm3.4296875 6.2421875h2l-2 2zm9.1386715 0h2v2zm-9.1386715 4.5703125 2 2h-2zm11.1386715 0v2h-2z" fill="#bebebe"/></svg>