<svg height="16" width="16.000002" xmlns="http://www.w3.org/2000/svg"><g fill="#bebebe"><path d="m485.0002 175c-2 0-2 2-2 2h-2v2h15v-2h-2c0-2-2-2-2-2zm0 1h7v1h-7zm-3 4v9s0 2 2 2h6.02148a5 5 0 0 1 -1.59765-2h-4.42383v-9zm11 0v2a5 5 0 0 1 2 .41992v-2.41992zm-7 1v6h1v-6zm2 0v6a5 5 0 0 1 1-2.97852v-3.02148zm2 0v2.01562a5 5 0 0 1 1-.59179v-1.42383z" transform="translate(-481.0002 -175)"/><path d="m12.000002 8a4 4 0 0 0 -3.9999996 4 4 4 0 0 0 3.9999996 4 4 4 0 0 0 4-4 4 4 0 0 0 -4-4zm-1 1.0605469h2v3.9648441h-2zm0 4.9570311h2v.990234h-2z"/></g></svg>