<svg height="16" width="16" xmlns="http://www.w3.org/2000/svg"><path d="m.53125 1c-.28913 0-.53125.24212-.53125.53125v13.9375c0 .2985.23264.53125.53125.53125h14.9375c.2986 0 .53125-.23265.53125-.53125v-8.9375c0-.2891-.24212-.53125-.53125-.53125h-12.46875v7.5c0 .277-.223.5-.5.5s-.5-.223-.5-.5v-8c0-.277.223-.5.5-.5h2.96875 8.53125v-1.40625c0-.3272-.26666-.59375-.59375-.59375h-7.40625v-1.46875c0-.28915-.24212-.53125-.53125-.53125zm8.9042969 6.1992188c.5536082.0021416.8483861 1.9618121 1.2949221 2.2890624.446712.3273799 2.405114.0175388 2.574219.5449218.169037.527175-1.604098 1.413647-1.777344 1.939453-.173315.526015.724705 2.29339.27539 2.617188-.449137.32367-1.8389701-1.089513-2.3925778-1.091797-.5538266-.002285-1.9555474 1.39953-2.4023437 1.072265-.4466196-.327135.46773-2.088016.2988281-2.615234-.1689686-.527426-1.9368515-1.427066-1.7636718-1.953125.1731112-.5258508 2.1289044-.1998829 2.578125-.5234374.4493983-.3236825.7606258-2.2814394 1.3144531-2.2792968z" fill="#bebebe"/></svg>