<svg height="16" width="16" xmlns="http://www.w3.org/2000/svg"><path d="m569.0002 321.96875c-.25562 0-.52288.0854-.71875.28125l-6.03125 6.03125c-.39174.39174-.39174 1.04576 0 1.4375l4.34375 4.34375 1-.53125c-.017-.16809-.0312-.3274-.0312-.5s.0141-.33191.0312-.5l-1.84375-1c.0975-.44488.22853-.87248.40625-1.28125l2.09375.28125c.1695-.29.37133-.56351.59375-.8125l-.90625-1.90625c.33555-.29842.67387-.58239 1.0625-.8125l1.53125 1.46875c.3057-.13661.63429-.2392.96875-.3125l.40625-2.09375c.21544-.0199.4356-.0312.65625-.0312s.44081.0113.65625.0312l.40625 2.09375c.33446.0733.66305.17589.96875.3125l.6875-.65625-5.5625-5.5625c-.19587-.19587-.46313-.28125-.71875-.28125zm3.5625 8.0625c-1.65685 0-3 1.34315-3 3 0 .79675.30578 1.52531.8125 2.0625l4.25-4.25c-.53719-.50672-1.26575-.8125-2.0625-.8125zm-4.3125 5.5-.15625.0312.1875.1875c.0605.0605.14862.0832.21875.125-.0839-.11796-.17712-.21905-.25-.34375z" fill="#bebebe" transform="translate(-561.0002 -320.99999)"/></svg>