<svg height="16" width="16" xmlns="http://www.w3.org/2000/svg"><g fill="#bebebe" transform="translate(-462 -300)"><path d="m464.8127 301a1.0000999 1.0000999 0 0 0 -.8125 1v13a1.0000999 1.0000999 0 0 0 1 1h10a1.0000999 1.0000999 0 0 0 1-1v-9.4375a1.0000999 1.0000999 0 0 0 -.28125-.71875l-3.5625-3.5625a1.0000999 1.0000999 0 0 0 -.71875-.28125h-6.4375a1.0000999 1.0000999 0 0 0 -.0937 0 1.0000999 1.0000999 0 0 0 -.0937 0zm1.1875 2h5v3h3v8h-8z"/><path d="m469.4 306.4c-.98682 0-1.8.81318-1.8 1.8v1.2s-.6 0-.6.6v.31875 2.68125h6v-2.68125-.31875s0-.6-.6-.6v-1.2c0-.98682-.81318-1.8-1.8-1.8zm0 1.2h1.2c.34278 0 .6.25722.6.6v1.2h-2.4v-1.2c0-.34278.25722-.6.6-.6z"/></g></svg>