<svg height="16.008873" width="16" xmlns="http://www.w3.org/2000/svg"><g fill="#bebebe"><path d="m4 .00976563c-1.0907 0-2 .90929999-2 1.99999997v12.0000004c0 1.0907.9093 2 2 2h9c1.0907 0 2-.9093 2-2v-12.0000004c0-1.09069998-.9093-1.99999997-2-1.99999997zm0 1.99999997h9v12.0000004h-9z"/><g transform="translate(-162.95598 -509.99123)"><path d="m174.55021 516.00014a.50219246.50219246 0 1 0 -.0937-1h-6a.50005.50005 0 1 0 0 1h6a.50005.50005 0 0 0 .0937 0z"/><path d="m173.55021 518.00014a.50219246.50219246 0 1 0 -.0937-1h-5a.50005.50005 0 1 0 0 1h5a.50005.50005 0 0 0 .0937 0z"/><path d="m174.55021 520.00014a.50219246.50219246 0 1 0 -.0937-1h-6a.50005.50005 0 1 0 0 1h6a.50005.50005 0 0 0 .0937 0z"/><path d="m171.55021 522.00014a.50219246.50219246 0 1 0 -.0937-1h-3a.50005.50005 0 1 0 0 1h3a.50005.50005 0 0 0 .0937 0z"/><path d="m174.0196 514.00075c.66889-.0606.57481-1.0647-.0937-1h-5.46967c-.67616-.01-.67616 1.00956 0 1h5.46967c.0312.003.0625.003.0937 0z"/></g></g></svg>