<svg height="16" width="16" xmlns="http://www.w3.org/2000/svg"><g fill="#bebebe" transform="translate(-462 -300)"><path d="m464.8127 301a1.0000999 1.0000999 0 0 0 -.8125 1v13a1.0000999 1.0000999 0 0 0 1 1h10a1.0000999 1.0000999 0 0 0 1-1v-9.4375a1.0000999 1.0000999 0 0 0 -.28125-.71875l-3.5625-3.5625a1.0000999 1.0000999 0 0 0 -.71875-.28125h-6.4375a1.0000999 1.0000999 0 0 0 -.0937 0 1.0000999 1.0000999 0 0 0 -.0937 0zm1.1875 2h5v3h3v8h-8z"/><path d="m469.99406 306.27734c-.26596 0-.48122.21346-.48122.47942 0 .26597.21526.48122.48122.48122s.47941-.21525.47941-.48122c0-.26596-.21345-.47942-.47941-.47942zm-.1514 1.44006c-.18285 0-.32982.14698-.32982.32983v.30098c0 .18285.14697.32983.32982.32983h.30099c.18285 0 .32982-.14698.32982-.32983v-.30098c0-.18285-.14697-.32983-.32982-.32983zm-.0902 1.44006c-.13298 0-.23971.10672-.23971.23971v.48122c0 .13299.10673.23971.23971.23971h.48122c.13298 0 .23971-.10672.23971-.23971v-.48122c0-.13299-.10673-.23971-.23971-.23971zm-2.64041.48302v.47943c-.00007.006-.00022.009 0 .0144.006.12239.0631.24637.1514.33163l2.50523 2.53407.465-.002 2.50523-2.53226c.0903-.0903.13517-.21869.13517-.34605v-.47943h-.82005c-.12736 0-.2539.0449-.34424.13518l-1.65811 1.78257-.0505.72093-.0595-.72093-1.67076-1.7825c-.0934-.10122-.22568-.14569-.36046-.13518z"/></g></svg>