<svg height="16" width="16" xmlns="http://www.w3.org/2000/svg"><g fill="#bebebe" transform="translate(-502.0002 -299.99988)"><path d="m504.0002 301.99988c-.52358.00005-.99995.47642-1 1v10c.00005.52358.47642.99995 1 1h3.00009v-2s-1.99293-.0211-2.00009.0001v-7.99998h10.99999l.00066 7.99988h-1.00055v2h2.0006c.5193 0 .9993-.43501.9993-.99988v-10c.00075-.46663-.43709-1.00012-1-.9999z"/><path d="m513.99939 308.06279a3 3 0 0 1 -5.99868 0 3 3 0 1 1 5.99868 0z"/><path d="m510.00036 308.99988-2.00024 7h1l2.00018-2 1.99982 2h1l-1.99987-7" fill-rule="evenodd"/></g></svg>