<svg height="16.00001" width="16" xmlns="http://www.w3.org/2000/svg"><g fill="#bebebe"><path d="m3.1894531 1c-1.09071 0-2 .9093-2 2h10.8222659v11h-10.8222659c0 1.0907.90929 2 2 2h8.8222659c1.09069 0 2-.90929 2-2v-11c0-1.09071-.90931-2-2-2z"/><path d="m.59355 12a.50219246.50219246 0 1 0 .0937 1h1.8125a.50005.50005 0 1 0 0-1h-1.8125a.50005.50005 0 0 0 -.0937 0z"/><path d="m.59355 10a.50219246.50219246 0 1 0 .0937 1h1.8125a.50005.50005 0 1 0 0-1h-1.8125a.50005.50005 0 0 0 -.0937 0z"/><path d="m.59355 8a.50219246.50219246 0 1 0 .0937 1h1.8125a.50005.50005 0 1 0 0-1h-1.8125a.50005.50005 0 0 0 -.0937 0z"/><path d="m.59355 6a.50219246.50219246 0 1 0 .0937 1h1.8125a.50005.50005 0 1 0 0-1h-1.8125a.50005.50005 0 0 0 -.0937 0z"/><path d="m.59355 4a.50219246.50219246 0 1 0 .0937 1h1.8125a.50005.50005 0 1 0 0-1h-1.8125a.50005.50005 0 0 0 -.0937 0z"/><path d="m7.6704118 4.877c-.1331993 0-.2724642.044504-.3745289.1465643l-3.1427859 3.1429889c-.2041293.2041423-.2041293.5449631 0 .7491054l2.2634572 2.2636034.5210837-.276843c-.00886-.08759-.016258-.170614-.016258-.26056 0-.08995.00735-.172963.016258-.260558l-.9607481-.521117c.0508053-.2318351.1190833-.4546649.2116903-.667682l1.0910189.1465643c.088324-.1511241.1934941-.2936549.3093936-.4234077l-.4722322-.9933795c.1748497-.1555119.3511427-.3034937.5536514-.4234076l.7979096.7653906c.1592954-.0711857.3305176-.124651.5047998-.1628495l.2116902-1.0910883c.1122628-.010318.2269841-.016259.3419608-.016259.1149778 0 .2296992.00594.341962.016259l.2116908 1.0910883c.174281.038199.345504.091655.5048.1628495l.358244-.341983-2.8985281-2.8987148c-.1020609-.1020675-.2413298-.1465643-.3745291-.1465643zm1.8563604 4.201508c-.8633574 0-1.5632506.6999384-1.5632506 1.563351 0 .415201.1593371.794867.4233802 1.074806l2.2146072-2.2147493c-.279922-.2640602-.6595625-.4234077-1.0747368-.4234077zm-2.2471732 2.866146-.081419.01626.097704.09771c.031526.03153.077444.04336.1139871.06514-.043719-.06147-.092295-.114151-.130271-.179134z" stroke-width=".521101"/></g></svg>