<svg height="16" width="16" xmlns="http://www.w3.org/2000/svg"><g fill="#bebebe" transform="translate(-441.0002 -301)"><path d="m444.50433 309.01365c-1.92115 0-3.50339 1.5501-3.50339 3.47125s1.58224 3.50339 3.50339 3.50339 3.50339-1.58224 3.50339-3.50339-1.58224-3.47125-3.50339-3.47125zm0 1.99275c.84027 0 1.51064.63823 1.51064 1.4785s-.67037 1.51063-1.51064 1.51063-1.51064-.67036-1.51064-1.51063.67037-1.4785 1.51064-1.4785z"/><path d="m452.50433 309.01365c-1.92115 0-3.50339 1.5501-3.50339 3.47125s1.58224 3.50339 3.50339 3.50339 3.50339-1.58224 3.50339-3.50339-1.58224-3.47125-3.50339-3.47125zm0 1.99275c.84027 0 1.51064.63823 1.51064 1.4785s-.67037 1.51063-1.51064 1.51063-1.51064-.67036-1.51064-1.51063.67037-1.4785 1.51064-1.4785z"/><path d="m446.0004 303.00003h2.000022v9.515729h-2.000022z"/><path d="m454.0004 303.00003h2.000041v9.562697h-2.000041z"/><path d="m446.0004 303.00003h10.000017v2h-10.000017z"/></g></svg>