<svg height="16" width="16" xmlns="http://www.w3.org/2000/svg"><g fill="#bebebe" transform="translate(-462 -300)"><path d="m464.8127 301a1.0000999 1.0000999 0 0 0 -.8125 1v13a1.0000999 1.0000999 0 0 0 1 1h10a1.0000999 1.0000999 0 0 0 1-1v-9.4375a1.0000999 1.0000999 0 0 0 -.28125-.71875l-3.5625-3.5625a1.0000999 1.0000999 0 0 0 -.71875-.28125h-6.4375a1.0000999 1.0000999 0 0 0 -.0937 0 1.0000999 1.0000999 0 0 0 -.0937 0zm1.1875 2h5v3h3v8h-8z"/><path d="m469.24926 306.8103v1.49781h1.43784c-.0413 0 .0629.11931.0629.0614v.69186h-.75183c-1.28502 0-2.26922.84287-2.28766 1.86055-.009.50884.22903 1.02075.64505 1.3647s.98514.52365 1.64261.52365h2.24964v-4.44076c0-.8771-.66439-1.55923-1.56071-1.55923h-1.43783zm.74891 3.74891h.75183v.75329h-.75183c-.38899 0-.59448-.10328-.68893-.18138-.0945-.0781-.10191-.12895-.10093-.18284.002-.10779.0636-.38907.78986-.38907z"/></g></svg>