<svg height="16" width="16" xmlns="http://www.w3.org/2000/svg"><g fill="#bebebe"><path d="m464.8125 301a1.0000999 1.0000999 0 0 0 -.8125 1v13a1.0000999 1.0000999 0 0 0 1 1h10a1.0000999 1.0000999 0 0 0 1-1v-3.85938l-2 2.00196v.85742h-8v-11h5v.35547l.50977-.50977c.34941-.34938.7924-.48047 1.18554-.48047.2224 0 .46054.04482.68946.14454l-1.22852-1.22852a1.0000999 1.0000999 0 0 0 -.71875-.28125h-6.4375a1.0000999 1.0000999 0 0 0 -.09375 0 1.0000999 1.0000999 0 0 0 -.09375 0z" transform="translate(-462 -300)"/><path d="m10.695802 3.365c-.170411 0-.348581.056933-.479159.1874973l-4.020776 4.0207757c-.261156.261156-.261156.697163 0 .95832l2.895792 2.895791.666657-.354162c-.01133-.112058-.0208-.218263-.0208-.333328s.0094-.221271.0208-.333329l-1.229149-.666657c.065-.296582.152351-.581645.270829-.854154l1.395814.187497c.112998-.19333.247549-.375668.395827-.541658l-.604158-1.2708155c.223697-.1989441.44924-.3882547.708323-.5416592l1.020819.9791527c.203797-.09107.422854-.159464.645824-.20833l.270829-1.3958137c.143625-.013266.290396-.0208.437494-.0208s.293869.00753.437494.0208l.270829 1.3958137c.22297.04887.442027.117258.645824.20833l.458327-.4374935-3.70828-3.7082802c-.130578-.1305781-.308749-.1874973-.47916-.1874973zm2.374966 5.374923c-1.104551 0-1.999971.89542-1.999971 1.999971 0 .531159.20385 1.016858.541659 1.37498l2.833292-2.833293c-.358121-.337808-.843821-.541658-1.37498-.541658zm-2.874958 3.666613-.104166.0208.124999.124998c.04033.04033.09908.05547.145831.08333-.05593-.07864-.118078-.146031-.166664-.229163z" stroke-width=".667"/></g></svg>