<svg height="16.000038" width="16" xmlns="http://www.w3.org/2000/svg"><path d="m1.96875 0s-.96875 1-.96875 2v12c0 1.00959-1 2-1 2h1s.42287-.42699.71875-1h1c-.29588.57301-.71875 1-.71875 1h1s1-1.02145 1-2v-2h8v2c0 1.00959-1 2-1 2h1s.42287-.42699.71875-1h1c-.29588.57301-.71875 1-.71875 1h1s1-1.02145 1-2v-12c0-1 .96875-2 .96875-2h-3s-.96875 1-.96875 2v3h-8v-3c0-1 .96875-2 .96875-2zm.3125 1h1c-.15291.30578-.28125.65211-.28125 1h-1c0-.34789.12834-.69422.28125-1zm11 0h1c-.15291.30578-.28125.65211-.28125 1h-1c0-.34789.12834-.69422.28125-1zm-11.28125 2h1v1h-1zm11 0h1v1h-1zm-11 2h1v1h-1zm11 0h1v1h-1zm-9 1h8v5h-8zm-2 1h1v1h-1zm11 0h1v1h-1zm-11 2h1v1h-1zm11 0h1v1h-1zm-11 2h1v1h-1zm11 0h1v1h-1zm-11 2h1v1h-1zm11 0h1v1h-1z" fill="#bebebe"/></svg>