<svg height="16" width="16" xmlns="http://www.w3.org/2000/svg"><g fill="#bebebe" transform="translate(-462 -300)"><path d="m464.8127 301a1.0000999 1.0000999 0 0 0 -.8125 1v13a1.0000999 1.0000999 0 0 0 1 1h10a1.0000999 1.0000999 0 0 0 1-1v-9.4375a1.0000999 1.0000999 0 0 0 -.28125-.71875l-3.5625-3.5625a1.0000999 1.0000999 0 0 0 -.71875-.28125h-6.4375a1.0000999 1.0000999 0 0 0 -.0937 0 1.0000999 1.0000999 0 0 0 -.0937 0zm1.1875 2h5v3h3v8h-8z"/><path d="m607.50022 322c-.831 0-1.5.669-1.5 1.5v1.5h-3c-.554 0-1 .446-1 1v3h1.5c.831 0 1.5.669 1.5 1.5s-.669 1.5-1.5 1.5h-1.5v3c0 .554.446 1 1 1h3v-1.5c0-.831.669-1.5 1.5-1.5s1.5.669 1.5 1.5v1.5h3c.554 0 1-.446 1-1v-3h1.5c.831 0 1.5-.669 1.5-1.5s-.669-1.5-1.5-1.5h-1.5v-3c0-.554-.446-1-1-1h-3v-1.5c0-.831-.669-1.5-1.5-1.5z" transform="matrix(.45000026 0 0 .45000026 196.14974373995 161.79991654)"/></g></svg>