<svg height="16" width="16" xmlns="http://www.w3.org/2000/svg"><g fill="#bebebe" transform="translate(-481 -321.00012)"><path d="m483.8127 322.00012a1.0000999 1.0000999 0 0 0 -.8125 1v13a1.0000999 1.0000999 0 0 0 1 1h10a1.0000999 1.0000999 0 0 0 1-1v-9.4375a1.0000999 1.0000999 0 0 0 -.28125-.71875l-3.5625-3.5625a1.0000999 1.0000999 0 0 0 -.71875-.28125h-6.4375a1.0000999 1.0000999 0 0 0 -.0937 0 1.0000999 1.0000999 0 0 0 -.0937 0zm1.1875 2h5v3h3v8h-8z"/><path d="m-35.826172 21.416016h14.257813v3.320312h-18.789063v-3.320312l9.355469-12.1875004-9.355469-10.3320312v-3.3203125h18.4375v3.3203125h-13.90625l9.355469 10.2539062z" transform="matrix(.21125251 0 0 .21125251 495.48069 328.72959)"/></g></svg>