<svg height="16" width="16" xmlns="http://www.w3.org/2000/svg"><g fill="#bebebe" transform="translate(-481 -321.00012)"><path d="m487.41869 325.99882c-.86024 0-1.55632.72246-1.55632 1.58269 0 .86024.69608 1.55632 1.55632 1.55632s1.5827-.69608 1.5827-1.55632c0-.86023-.72246-1.58269-1.5827-1.58269zm0 1.00237c.3198 0 .58032.26053.58032.58032 0 .3198-.26052.55395-.58032.55395s-.55394-.23415-.55394-.55395c0-.31979.23414-.58032.55394-.58032z"/><path d="m490.00018 329h2v1h-2z"/><path d="m486.00021 331h6.000014v1h-6.000014z"/><path d="m486.00021 333h6.000014v1h-6.000014z"/><g transform="translate(-80.00006 126.00012)"><g fill-rule="evenodd"><path d="m564.00018 204h.999983v1h-.999983z"/><path d="m563.00018 205h.999983v1h-.999983z"/><path d="m564.00018 206h.999983v1h-.999983z"/><path d="m563.00018 207h.999983v1h-.999983z"/><path d="m564.00018 208h.999983v1h-.999983z"/><path d="m563.00018 209h.999983v1h-.999983z"/><path d="m565.00018 209h.999983v1h-.999983z"/><path d="m567.00018 209h.999983v1h-.999983z"/><path d="m569.00018 209h.999983v1h-.999983z"/><path d="m571.00018 209h.999983v1h-.999983z"/></g><path d="m563.8127 196c-.4584.0875-.82072.5334-.8125 1v8h2v-7h5v3h3v7.99746h2v-8.43496c.006-.26406-.0976-.52897-.28125-.71875l-3.5625-3.5625c-.18978-.18371-.45469-.28737-.71875-.28125h-6.4375c-.0312-.001-.0625-.001-.0937 0-.0312-.001-.0625-.001-.0937 0z"/><g fill-rule="evenodd"><path d="m564.00018 210h.999983v1h-.999983z"/><path d="m566.00018 210h.999983v1h-.999983z"/><path d="m568.00018 210h.999983v1h-.999983z"/><path d="m570.00018 210h.999983v1h-.999983z"/><path d="m572.00024 210h.999983v1h-.999983z"/><path d="m573.00018 208.8125h.999985v1.1875h-.999985z"/></g></g></g></svg>