<svg height="16" width="16" xmlns="http://www.w3.org/2000/svg"><g fill="#bebebe"><path d="m10.58398 11.11449c-.13328.0903-.27644.17073-.43359.24024-.58468.25861-1.32974.39844-2.15039.39844s-1.56571-.13983-2.15039-.39844c-.15674-.0693-.30059-.14832-.43359-.23828a2.7554348 1.21875 0 0 0 -.17188.41797 2.7554348 1.21875 0 0 0 2.75586 1.21875 2.7554348 1.21875 0 0 0 2.75586-1.21875 2.7554348 1.21875 0 0 0 -.17188-.41993z"/><path d="m5.47266 9.55199a2.7554348 1.21875 0 0 0 -.22852.48243 2.7554348 1.21875 0 0 0 2.75586 1.21875 2.7554348 1.21875 0 0 0 2.75586-1.21875 2.7554348 1.21875 0 0 0 -.23047-.48243c-.11714.0738-.24069.14177-.375.20118-.58468.25861-1.32974.40039-2.15039.40039s-1.56571-.14178-2.15039-.40039c-.13486-.0597-.25942-.12706-.37695-.20118z"/><path d="m10.75543 8.43493a2.7554348 1.21875 0 0 1 -2.75543 1.21875 2.7554348 1.21875 0 0 1 -2.75543-1.21875 2.7554348 1.21875 0 0 1 2.75543-1.21875 2.7554348 1.21875 0 0 1 2.75543 1.21875z"/><g transform="translate(1.559517 19.21124)"><g fill-rule="evenodd" transform="translate(-562.55958 -214.21149)"><path d="m564.00018 204h.99998v1h-.99998z"/><path d="m563.00018 205h.99998v1h-.99998z"/><path d="m564.00018 206h.99998v1h-.99998z"/><path d="m563.00018 207h.99998v1h-.99998z"/><path d="m564.00018 208h.99998v1h-.99998z"/><path d="m563.00018 209h.99998v1h-.99998z"/><path d="m565.00018 209h.99998v1h-.99998z"/><path d="m567.00018 209h.99998v1h-.99998z"/><path d="m569.00018 209h.99998v1h-.99998z"/><path d="m571.00018 209h.99998v1h-.99998z"/></g><path d="m1.25312-18.21149c-.4584.0875-.82072.5334-.8125 1v8h2v-7h5v3h3v7.99746h2v-8.43496c.006-.26406-.0976-.52897-.28125-.71875l-3.5625-3.5625c-.18978-.18371-.45469-.28737-.71875-.28125h-6.4375c-.0312-.001-.0625-.001-.0937 0-.0312-.001-.0625-.001-.0937 0z"/><g fill-rule="evenodd" transform="translate(-562.55958 -214.21149)"><path d="m564.00018 210h.99998v1h-.99998z"/><path d="m566.00018 210h.99998v1h-.99998z"/><path d="m568.00018 210h.99998v1h-.99998z"/><path d="m570.00018 210h.99998v1h-.99998z"/><path d="m572.00024 210h.99998v1h-.99998z"/><path d="m573.00018 208.8125h.99999v1.1875h-.99999z"/></g></g></g></svg>