<svg height="16" width="16" xmlns="http://www.w3.org/2000/svg"><g fill="#bebebe"><path d="m-35.826172 21.416016h14.257813v3.320312h-18.789063v-3.320312l9.355469-12.1875004-9.355469-10.3320312v-3.3203125h18.4375v3.3203125h-13.90625l9.355469 10.2539062z" transform="matrix(.21125251 0 0 .21125251 14.48069 7.72947)"/><g transform="translate(-561.00006 -195)"><g fill-rule="evenodd"><path d="m564.00018 204h.999983v1h-.999983z"/><path d="m563.00018 205h.999983v1h-.999983z"/><path d="m564.00018 206h.999983v1h-.999983z"/><path d="m563.00018 207h.999983v1h-.999983z"/><path d="m564.00018 208h.999983v1h-.999983z"/><path d="m563.00018 209h.999983v1h-.999983z"/><path d="m565.00018 209h.999983v1h-.999983z"/><path d="m567.00018 209h.999983v1h-.999983z"/><path d="m569.00018 209h.999983v1h-.999983z"/><path d="m571.00018 209h.999983v1h-.999983z"/></g><path d="m563.8127 196c-.4584.0875-.82072.5334-.8125 1v8h2v-7h5v3h3v7.99746h2v-8.43496c.006-.26406-.0976-.52897-.28125-.71875l-3.5625-3.5625c-.18978-.18371-.45469-.28737-.71875-.28125h-6.4375c-.0312-.001-.0625-.001-.0937 0-.0312-.001-.0625-.001-.0937 0z"/><path d="m564.00018 210h.999983v1h-.999983z" fill-rule="evenodd"/><path d="m566.00018 210h.999983v1h-.999983z" fill-rule="evenodd"/><path d="m568.00018 210h.999983v1h-.999983z" fill-rule="evenodd"/><path d="m570.00018 210h.999983v1h-.999983z" fill-rule="evenodd"/><path d="m572.00024 210h.999983v1h-.999983z" fill-rule="evenodd"/><path d="m573.00018 208.8125h.999985v1.1875h-.999985z" fill-rule="evenodd"/></g></g></svg>