<svg height="16" width="16" xmlns="http://www.w3.org/2000/svg"><g fill="#bebebe" transform="translate(-541.0002 -301)"><path d="m543.0002 301c-1.05237 0-2 .84508-2 1.9375v11.125c0 1.09242.94763 1.9375 2 1.9375h11c1.05237 0 2-.84508 2-1.9375v-11.125c0-1.09242-.94763-1.9375-2-1.9375zm0 5h3.03125v2h-3.03125zm4.03125 0h2.96875v2h-2.96875zm3.96875 0h3v2h-3zm-8 3h3.03125v2h-3.03125zm4.03125 0h2.96875v2h-2.96875zm3.96875 0h3v2h-3zm-8 3h3.03125v2h-3.03125zm4.03125 0h2.96875v2h-2.96875zm3.96875 0h3v2h-3z"/><path d="m551.00018 309h2.999999v1.999999h-2.999999z" opacity=".35"/></g></svg>