<svg height="16" width="16" xmlns="http://www.w3.org/2000/svg"><g fill="#bebebe" transform="translate(-461 -321.00012)"><path d="m469.5625 331.34375c-.46643-.0643-1.04585-.1297-1.53125.25-.40319.3154-.7654.72703-1.09375 1.03125s-.65996.4375-.59375.4375h-1.34938v1h1.34938c.58207 0 .88604-.38153 1.25-.71875s.75079-.69367 1.0625-.9375c.10629-.0831.40859-.14514.78125-.0937.37266.0514.69959.1875 1.09375.1875.14648 0 .20407.0328.3125.125s.24045.24389.375.4375.28193.42119.5.625.56155.375.9375.375h.84375v-1h-.84375c-.0991 0-.15147-.002-.25-.0937-.0985-.0921-.23537-.26783-.375-.46875s-.29184-.42134-.53125-.625-.57764-.375-.96875-.375c-.0328 0-.50232-.0919-.96875-.15625z"/><path d="m467.41869 326.86218c-.86024 0-1.55632.72246-1.55632 1.58269 0 .86024.69608 1.55632 1.55632 1.55632s1.5827-.69608 1.5827-1.55632c0-.86023-.72246-1.58269-1.5827-1.58269zm0 1.00237c.3198 0 .58032.26053.58032.58032 0 .3198-.26052.55395-.58032.55395s-.55394-.23415-.55394-.55395c0-.31979.23414-.58032.55394-.58032z"/><g transform="translate(-100.00006 126.00012)"><g fill-rule="evenodd"><path d="m564.00018 204h.999983v1h-.999983z"/><path d="m563.00018 205h.999983v1h-.999983z"/><path d="m564.00018 206h.999983v1h-.999983z"/><path d="m563.00018 207h.999983v1h-.999983z"/><path d="m564.00018 208h.999983v1h-.999983z"/><path d="m563.00018 209h.999983v1h-.999983z"/><path d="m565.00018 209h.999983v1h-.999983z"/><path d="m567.00018 209h.999983v1h-.999983z"/><path d="m569.00018 209h.999983v1h-.999983z"/><path d="m571.00018 209h.999983v1h-.999983z"/></g><path d="m563.8127 196c-.4584.0875-.82072.5334-.8125 1v8h2v-7h5v3h3v7.99746h2v-8.43496c.006-.26406-.0976-.52897-.28125-.71875l-3.5625-3.5625c-.18978-.18371-.45469-.28737-.71875-.28125h-6.4375c-.0312-.001-.0625-.001-.0937 0-.0312-.001-.0625-.001-.0937 0z"/><g fill-rule="evenodd"><path d="m564.00018 210h.999983v1h-.999983z"/><path d="m566.00018 210h.999983v1h-.999983z"/><path d="m568.00018 210h.999983v1h-.999983z"/><path d="m570.00018 210h.999983v1h-.999983z"/><path d="m572.00024 210h.999983v1h-.999983z"/><path d="m573.00018 208.8125h.999985v1.1875h-.999985z"/></g></g></g></svg>