<svg height="16" width="16" xmlns="http://www.w3.org/2000/svg"><g fill="#bebebe" transform="translate(-481 -321.00012)"><path d="m483.8127 322.00012a1.0000999 1.0000999 0 0 0 -.8125 1v13a1.0000999 1.0000999 0 0 0 1 1h10a1.0000999 1.0000999 0 0 0 1-1v-9.4375a1.0000999 1.0000999 0 0 0 -.28125-.71875l-3.5625-3.5625a1.0000999 1.0000999 0 0 0 -.71875-.28125h-6.4375a1.0000999 1.0000999 0 0 0 -.0937 0 1.0000999 1.0000999 0 0 0 -.0937 0zm1.1875 2h5v3h3v8h-8z"/><path d="m491.58398 332.11461c-.13328.0903-.27644.17073-.43359.24024-.58468.25861-1.32974.39844-2.15039.39844s-1.56571-.13983-2.15039-.39844c-.15674-.0693-.30059-.14832-.43359-.23828a2.7554348 1.21875 0 0 0 -.17188.41797 2.7554348 1.21875 0 0 0 2.75586 1.21875 2.7554348 1.21875 0 0 0 2.75586-1.21875 2.7554348 1.21875 0 0 0 -.17188-.41993z"/><path d="m486.47266 330.55211a2.7554348 1.21875 0 0 0 -.22852.48243 2.7554348 1.21875 0 0 0 2.75586 1.21875 2.7554348 1.21875 0 0 0 2.75586-1.21875 2.7554348 1.21875 0 0 0 -.23047-.48243c-.11714.0738-.24069.14177-.375.20118-.58468.25861-1.32974.40039-2.15039.40039s-1.56571-.14178-2.15039-.40039c-.13486-.0597-.25942-.12706-.37695-.20118z"/><path d="m491.75543 329.43505a2.7554348 1.21875 0 0 1 -2.75543 1.21875 2.7554348 1.21875 0 0 1 -2.75543-1.21875 2.7554348 1.21875 0 0 1 2.75543-1.21875 2.7554348 1.21875 0 0 1 2.75543 1.21875z"/></g></svg>