<svg height="16" width="16" xmlns="http://www.w3.org/2000/svg"><g fill="#bebebe" transform="translate(-501 -321.00012)"><path d="m503.8127 322.00012a1.0000999 1.0000999 0 0 0 -.8125 1v13a1.0000999 1.0000999 0 0 0 1 1h9.99999a1.0000999 1.0000999 0 0 0 1-1v-9.4375a1.0000999 1.0000999 0 0 0 -.28125-.71875l-3.56249-3.5625a1.0000999 1.0000999 0 0 0 -.71875-.28125h-6.4375a1.0000999 1.0000999 0 0 0 -.0937 0 1.0000999 1.0000999 0 0 0 -.0937 0zm1.1875 2h5v3h2.99999v8h-7.99999z"/><path d="m506.00018 325h1.000006v1h-1.000006z"/><path d="m508.00018 325h1.000006v1h-1.000006z"/><path d="m506.00018 327h1.000006v1h-1.000006z"/><path d="m508.00018 327h1.000006v1h-1.000006z"/><path d="m506.00018 333h1.000006v1h-1.000006z"/><path d="m508.00018 333h1.000006v1h-1.000006z"/><path d="m510.00018 333h1.000006v1h-1.000006z"/><path d="m506.0002 332.01126h6v-1.01126l-1.46875-2.55124-1.53125 2.04687-1.46875-1.0625-1.53125 1.56687z"/></g></svg>