<svg height="16" width="16" xmlns="http://www.w3.org/2000/svg"><g fill="#bebebe" transform="translate(-501 -321.00012)"><path d="m506.00018 325h1.000006v1h-1.000006z"/><path d="m508.00018 325h1.000006v1h-1.000006z"/><path d="m506.00018 327h1.000006v1h-1.000006z"/><path d="m508.00018 327h1.000006v1h-1.000006z"/><path d="m506.00018 333h1.000006v1h-1.000006z"/><path d="m508.00018 333h1.000006v1h-1.000006z"/><path d="m510.00018 333h1.000006v1h-1.000006z"/><path d="m506.0002 332.01126h6v-1.01126l-1.46875-2.55124-1.53125 2.04687-1.46875-1.0625-1.53125 1.56687z"/><g transform="translate(-60.00006 126.00012)"><g fill-rule="evenodd"><path d="m564.00018 204h.999983v1h-.999983z"/><path d="m563.00018 205h.999983v1h-.999983z"/><path d="m564.00018 206h.999983v1h-.999983z"/><path d="m563.00018 207h.999983v1h-.999983z"/><path d="m564.00018 208h.999983v1h-.999983z"/><path d="m563.00018 209h.999983v1h-.999983z"/><path d="m565.00018 209h.999983v1h-.999983z"/><path d="m567.00018 209h.999983v1h-.999983z"/><path d="m569.00018 209h.999983v1h-.999983z"/><path d="m571.00018 209h.999983v1h-.999983z"/></g><path d="m563.8127 196c-.4584.0875-.82072.5334-.8125 1v8h2v-7h5v3h3v7.99746h2v-8.43496c.006-.26406-.0976-.52897-.28125-.71875l-3.5625-3.5625c-.18978-.18371-.45469-.28737-.71875-.28125h-6.4375c-.0312-.001-.0625-.001-.0937 0-.0312-.001-.0625-.001-.0937 0z"/><path d="m564.00018 210h.999983v1h-.999983z" fill-rule="evenodd"/><path d="m566.00018 210h.999983v1h-.999983z" fill-rule="evenodd"/><path d="m568.00018 210h.999983v1h-.999983z" fill-rule="evenodd"/><path d="m570.00018 210h.999983v1h-.999983z" fill-rule="evenodd"/><path d="m572.00024 210h.999983v1h-.999983z" fill-rule="evenodd"/><path d="m573.00018 208.8125h.999985v1.1875h-.999985z" fill-rule="evenodd"/></g></g></svg>